<svg id="_0220_car" xmlns="http://www.w3.org/2000/svg" xmlns:xlink="http://www.w3.org/1999/xlink" viewBox="0 0 500 500" data-imageid="car-81" imageName="Car" class="illustrations_image" style="width: 158px;"><defs><style>.cls-1_car-81{fill:url(#linear-gradient);}.cls-1_car-81,.cls-2_car-81,.cls-3_car-81,.cls-4_car-81,.cls-5_car-81,.cls-6_car-81,.cls-7_car-81,.cls-8_car-81,.cls-9_car-81,.cls-10_car-81,.cls-11_car-81,.cls-12_car-81,.cls-13_car-81,.cls-14_car-81,.cls-15_car-81,.cls-16_car-81,.cls-17_car-81,.cls-18_car-81,.cls-19_car-81,.cls-20_car-81,.cls-21_car-81,.cls-22_car-81{stroke-width:0px;}.cls-2_car-81{fill:url(#linear-gradient-11-car-81);}.cls-3_car-81{fill:url(#linear-gradient-12-car-81);}.cls-4_car-81{fill:url(#linear-gradient-13-car-81);}.cls-5_car-81{fill:url(#linear-gradient-10-car-81);}.cls-6_car-81{fill:url(#linear-gradient-17-car-81);}.cls-7_car-81{fill:url(#linear-gradient-16-car-81);}.cls-8_car-81{fill:url(#linear-gradient-19-car-81);}.cls-9_car-81{fill:url(#linear-gradient-15-car-81);}.cls-10_car-81{fill:url(#linear-gradient-18-car-81);}.cls-11_car-81{fill:url(#linear-gradient-14-car-81);}.cls-12_car-81{fill:url(#linear-gradient-4-car-81);}.cls-13_car-81{fill:url(#linear-gradient-2-car-81);}.cls-14_car-81{fill:url(#linear-gradient-3-car-81);}.cls-15_car-81{fill:url(#linear-gradient-8-car-81);}.cls-16_car-81{fill:url(#linear-gradient-9-car-81);}.cls-17_car-81{fill:url(#linear-gradient-7-car-81);}.cls-18_car-81{fill:url(#linear-gradient-5-car-81);}.cls-19_car-81{fill:url(#linear-gradient-6-car-81);}.cls-20_car-81{isolation:isolate;opacity:.24;}.cls-20_car-81,.cls-22_car-81{fill:#68e1fd;}.cls-21_car-81{fill:#606161;}</style><linearGradient id="linear-gradient-car-81" x1="-1034.62" y1="2685.86" x2="-1038.48" y2="2943.58" gradientTransform="translate(1284.8 3070.16) scale(1 -1)" gradientUnits="userSpaceOnUse"><stop offset="0" stop-color="#231f20" stop-opacity="0"/><stop offset="1" stop-color="#231f20"/></linearGradient><linearGradient id="linear-gradient-2-car-81" x1="-1047.06" y1="2672.44" x2="-1020.83" y2="2947.13" gradientTransform="translate(1284.8 3070.16) scale(1 -1)" gradientUnits="userSpaceOnUse"><stop offset="0" stop-color="#fff" stop-opacity="0"/><stop offset=".95" stop-color="#fff"/></linearGradient><linearGradient id="linear-gradient-3-car-81" x1="-1040.87" y1="2874.51" x2="-1025.44" y2="2635.31" xlink:href="#linear-gradient-car-81"/><linearGradient id="linear-gradient-4-car-81" x1="-1039.65" y1="2874.58" x2="-1024.22" y2="2635.39" xlink:href="#linear-gradient-car-81"/><linearGradient id="linear-gradient-5-car-81" x1="-1036.34" y1="2874.8" x2="-1020.91" y2="2635.61" xlink:href="#linear-gradient-car-81"/><linearGradient id="linear-gradient-6-car-81" x1="-1217.41" y1="2915" x2="-1087.57" y2="2915" xlink:href="#linear-gradient-2-car-81"/><linearGradient id="linear-gradient-7-car-81" x1="-902.36" y1="2949.54" x2="-926.77" y2="2841.83" xlink:href="#linear-gradient-2-car-81"/><linearGradient id="linear-gradient-8-car-81" x1="-964.42" y1="2870.16" x2="-942.82" y2="2439.62" xlink:href="#linear-gradient-car-81"/><linearGradient id="linear-gradient-9-car-81" x1="-947.33" y1="2886.3" x2="-934.99" y2="2715.79" xlink:href="#linear-gradient-car-81"/><linearGradient id="linear-gradient-10-car-81" x1="-1058.88" y1="2868.12" x2="-1092.83" y2="2523.22" xlink:href="#linear-gradient-car-81"/><linearGradient id="linear-gradient-11-car-81" x1="-925.86" y1="2855.03" x2="-959.81" y2="2510.12" xlink:href="#linear-gradient-car-81"/><linearGradient id="linear-gradient-12-car-81" x1="-968.98" y1="2796.56" x2="-969.5" y2="2925.67" xlink:href="#linear-gradient-2-car-81"/><linearGradient id="linear-gradient-13-car-81" x1="-1036.96" y1="2847.73" x2="-945.92" y2="2847.73" xlink:href="#linear-gradient-car-81"/><linearGradient id="linear-gradient-14-car-81" x1="-994.61" y1="2843.49" x2="-867.4" y2="2843.49" xlink:href="#linear-gradient-car-81"/><linearGradient id="linear-gradient-15-car-81" x1="-1072.15" y1="2818.21" x2="-1019.94" y2="2818.21" xlink:href="#linear-gradient-2-car-81"/><linearGradient id="linear-gradient-16-car-81" x1="-1041.49" y1="2811.84" x2="-1006" y2="2846.17" gradientTransform="translate(1289 3121.39) scale(1 -1)" xlink:href="#linear-gradient-car-81"/><linearGradient id="linear-gradient-17-car-81" x1="-879.08" y1="2839.38" x2="-839.73" y2="2839.38" gradientTransform="translate(1289 3121.39) scale(1 -1)" xlink:href="#linear-gradient-car-81"/><linearGradient id="linear-gradient-18-car-81" x1="-1022.24" y1="2917.47" x2="-1016.48" y2="2771.43" gradientTransform="translate(1289 3121.39) scale(1 -1)" xlink:href="#linear-gradient-car-81"/><linearGradient id="linear-gradient-19-car-81" x1="-862.34" y1="2920.98" x2="-856.79" y2="2780.34" gradientTransform="translate(1289 3121.39) scale(1 -1)" xlink:href="#linear-gradient-car-81"/></defs><g id="background_car-81"><path class="cls-20_car-81 targetColor" d="M484.84,273.9c0,.3-.06.63-.11.93-.25,1.62-.52,3.24-.8,4.85-5.07,27.38-18.17,54.23-41.44,69.23-27.59,17.81-63.22,15.56-95.55,10.05-32.33-5.51-65.59-13.76-97.43-5.89-22,5.42-41.71,18.25-63.84,22.96-48.56,10.33-96-19.7-134.15-51.44-11.73-9.8-23.4-20.08-31.51-33.01-2.37-3.75-4.36-7.74-5.92-11.9-.73-1.89-1.35-3.82-1.87-5.78-2.36-8.55-2.74-17.54-.28-26.03,3.4-11.65,11.28-20.59,20.28-28.97,8.74-8.22,18.53-15.89,26.03-25.1,3.45-4.25,6.51-8.8,9.17-13.59,8.17-14.44,13.63-30.61,22.23-44.89,1.88-3.05,3.8-5.92,5.75-8.63,44.46-60.93,120.02-39.77,185.6-42.94,22.53-1.07,47-1.62,65.25,11.62,14.91,10.8,22.91,28.96,37.24,40.53,5.47,4.26,11.51,7.76,17.93,10.39,12.69,5.54,26.61,9.17,38.69,16,12.5,7.05,22.36,17.26,29.62,29.3,5.15,8.52,9.09,17.71,11.7,27.32,4.9,17.91,6.06,36.63,3.41,55Z" style="fill: rgb(8, 166, 76);"/><path class="cls-20_car-81 targetColor" d="M484.84,273.9c0,.3-.06.63-.11.93-4.36,29-17.63,58.21-42.24,74.05-27.59,17.84-63.22,15.59-95.55,10.08-32.33-5.51-65.59-13.76-97.43-5.89-22,5.42-41.71,18.25-63.84,22.96-48.56,10.33-96-19.7-134.15-51.44-11.73-9.8-23.4-20.08-31.51-33.01-3.46-5.47-6.09-11.43-7.79-17.68h472.62Z" style="fill: rgb(8, 166, 76);"/><path class="cls-1_car-81" d="M484.84,273.9c0,.3-.06.63-.11.93-4.36,29-17.63,58.21-42.24,74.05-27.59,17.84-63.22,15.59-95.55,10.08-32.33-5.51-65.59-13.76-97.43-5.89-22,5.42-41.71,18.25-63.84,22.96-48.56,10.33-96-19.7-134.15-51.44-11.73-9.8-23.4-20.08-31.51-33.01-3.46-5.47-6.09-11.43-7.79-17.68h472.62Z"/><path class="cls-13_car-81" d="M483.93,279.68c-5.07,27.38-18.17,54.23-41.44,69.23-27.59,17.81-63.22,15.56-95.55,10.05-32.33-5.51-65.59-13.76-97.43-5.89-22,5.42-41.71,18.25-63.84,22.96-48.56,10.33-96-19.7-134.15-51.44-11.73-9.8-23.4-20.08-31.51-33.01-2.37-3.75-4.36-7.74-5.92-11.9h469.85Z"/><path class="cls-20_car-81 targetColor" d="M486.07,260.93c-.06,1.59-.16,3.18-.33,4.77-.19,2.76-.52,5.51-.9,8.22H12.22c-.74-2.7-1.28-5.44-1.61-8.22-.2-1.58-.31-3.18-.32-4.77-.09-3.31.21-6.63.88-9.87.2-1.06.45-2.12.76-3.15.17-.55.33-1.1.52-1.62,1.17-3.46,2.75-6.78,4.69-9.87,1.01-1.65,2.11-3.24,3.29-4.77,3.56-4.56,7.51-8.8,11.78-12.69h449.23c1.18,4.18,2.12,8.41,2.82,12.69.3,1.59.55,3.17.77,4.77.41,3.26.71,6.57.93,9.87.11,1.59.17,3.18.2,4.77.11,3.25.08,6.57-.08,9.87Z" style="fill: rgb(8, 166, 76);"/><path class="cls-14_car-81" d="M486.07,260.93c-.06,1.59-.16,3.18-.33,4.77H10.58c-.2-1.58-.3-3.18-.3-4.77h475.79Z"/><path class="cls-12_car-81" d="M486.18,251.05H11.16c.2-1.06.45-2.12.76-3.15.17-.55.33-1.1.52-1.62h473.54c.15,1.56.15,3.15.2,4.77Z"/><path class="cls-18_car-81" d="M485.05,236.36H17.15c1.01-1.65,2.11-3.24,3.29-4.77h463.85c.3,1.59.55,3.17.77,4.77Z"/><path class="cls-19_car-81" d="M197.23,151.9c.11,2.12-1.41,4.03-3.04,5.4-11.99,9.95-30.33,2.25-45.38,6.22-10.74,2.82-19.21,11.59-29.98,14.25-4.61,1.15-9.43,1.12-14.1,1.89-5.35.87-10.49,2.82-15.87,3.59-7.3,1.03-14.74-.02-21.46-3.04,8.17-14.44,13.63-30.61,22.23-44.89,1.88-3.05,3.8-5.92,5.75-8.63,12.82-.28,26.8,7.64,37.9,11.54,18.06,6.35,38.23,2.76,56.75,7.62,3.26.84,7.01,2.69,7.2,6.06Z"/><path class="cls-17_car-81" d="M469.77,191.57c-33.68,1.54-67.6-3.78-101.45-3.65-31.35.14-63.47,4.85-93.54-4.13-4.19-1.26-9.2-4.33-8.11-8.58,14.24-3.39,26.23-12.88,39.93-18.14,12.49-4.78,26.06-5.96,39.19-3.43,7.84,1.57,15.73,4.41,23.63,3.15,6.52-1.04,12.22-4.82,18.22-7.53,3.78-1.73,8.58-2.61,13.79-2.99,12.69,5.54,26.61,9.17,38.69,16,12.49,7.07,22.36,17.26,29.65,29.3Z"/></g><g id="car_car-81"><path class="cls-15_car-81" d="M406.22,300.02c18.79-.15,37.78.71,56.16-3.14.39-5.23-3.06-10.17-7.51-12.94-4.45-2.77-9.77-3.76-14.97-4.43-16.48-2.12-33.15-1.7-49.79-1.23-38.44,1.06-76.87,2.24-115.3,3.53-19.22.64-38.43,1.31-57.65,2.01-11.99.43-18.99,3.07-26.8,8.6-2.49,1.72-3.11,5.14-1.39,7.63.74,1.08,1.85,1.85,3.11,2.18,31.88,8.32,68.95,6.16,100.85,4.46,37.76-2,75.41-6.38,113.27-6.67Z"/><path class="cls-22_car-81 targetColor" d="M282.24,291.91c3.38.57,6.64,1.69,10,2.31,4.23.78,8.6.75,12.92.71,31.67-.49,63.29-2.6,94.73-6.35,2.11-.13,4.19-.62,6.13-1.47,1.89-.95,3.39-2.51,5.08-3.77,5.25-3.88,12.21-4.65,18.72-4.15s12.9,2.15,19.42,2.57c.92.14,1.86,0,2.69-.4,1.5-.91,1.55-3.03,1.41-4.77-.58-6.66-1.74-13.89-6.69-18.34-5.26-4.76-13.08-4.94-20.17-4.84-5.81.08-11.67.16-17.34,1.41-6.02,1.35-11.65,4.02-17.57,5.75-11.88,3.46-24.49,3.03-36.86,2.57l-68.5-2.55c-9.47-.35-19.13-.71-28.25,1.86s-23.22,11.11-22.38,22.38c.71,9.68,2.37,13.45,8.97,12.93,8.01-.67,29.66-7.23,37.67-5.86Z" style="fill: rgb(8, 166, 76);"/><path class="cls-16_car-81" d="M282.24,291.91c3.38.57,6.64,1.69,10,2.31,4.23.78,8.6.75,12.92.71,31.67-.49,63.29-2.6,94.73-6.35,2.11-.13,4.19-.62,6.13-1.47,1.89-.95,3.39-2.51,5.08-3.77,5.25-3.88,12.21-4.65,18.72-4.15s12.9,2.15,19.42,2.57c.92.14,1.86,0,2.69-.4,1.5-.91,1.55-3.03,1.41-4.77-.58-6.66-1.74-13.89-6.69-18.34-5.26-4.76-13.08-4.94-20.17-4.84-5.81.08-11.67.16-17.34,1.41-6.02,1.35-11.65,4.02-17.57,5.75-11.88,3.46-24.49,3.03-36.86,2.57l-68.5-2.55c-9.47-.35-19.13-.71-28.25,1.86s-23.22,11.11-22.38,22.38c.71,9.68,2.37,13.45,8.97,12.93,8.01-.67,29.66-7.23,37.67-5.86Z"/><path class="cls-22_car-81 targetColor" d="M244.56,297.74l-1.31.08c-17.73,1.28-43.72-3.86-47.3-5.68-3.58-1.81-6.42-9.65-4.94-20.09.83,4.85,2.74,8.19,4.94,9.29,3.59,1.81,29.57,6.96,47.3,5.68h.11c-.08.79-.11,1.59-.11,2.41,0,2.82.44,5.62,1.31,8.3Z" style="fill: rgb(8, 166, 76);"/><path class="cls-22_car-81 targetColor" d="M407.45,289.3h0l-30.45,3.1s-43.24,1.54-80.97,3.02c.46-1.97.69-3.98.71-6,0-1.61-.14-3.21-.44-4.8,37.68-1.48,80.73-3.02,80.73-3.02l29.54-3.01c-.14,1.09-.21,2.19-.22,3.29-.02,2.52.36,5.02,1.11,7.43Z" style="fill: rgb(8, 166, 76);"/><path class="cls-5_car-81" d="M244.56,297.74l-1.31.08c-17.73,1.28-43.72-3.86-47.3-5.68-3.58-1.81-6.42-9.65-4.94-20.09.83,4.85,2.74,8.19,4.94,9.29,3.59,1.81,29.57,6.96,47.3,5.68h.11c-.08.79-.11,1.59-.11,2.41,0,2.82.44,5.62,1.31,8.3Z"/><path class="cls-2_car-81" d="M407.45,289.3h0l-30.45,3.1s-43.24,1.54-80.97,3.02c.46-1.97.69-3.98.71-6,0-1.61-.14-3.21-.44-4.8,37.68-1.48,80.73-3.02,80.73-3.02l29.54-3.01c-.14,1.09-.21,2.19-.22,3.29-.02,2.52.36,5.02,1.11,7.43Z"/><path class="cls-22_car-81 targetColor" d="M452.61,282.31v-.41c0-13.15-10.35-23.87-23.12-23.87-10.99,0-20.2,7.92-22.57,18.5-.17.7-.3,1.4-.39,2.12l-29.54,3.01s-43.02,1.54-80.73,3.02c0-.23-.08-.42-.11-.61-3-14.46-17.15-23.75-31.62-20.76-10.44,2.16-18.59,10.32-20.76,20.76h0c-.2.98-.35,1.97-.44,2.96h-.11c-17.73,1.28-43.72-3.86-47.3-5.68-2.19-1.09-4.11-4.44-4.94-9.29v-.22c1.57-10.58,7.45-15.43,15.71-21.86,7.34-5.73,31.74-12.52,41.08-14.99l2.63-.71c3.72-.99,24.42-10.99,39.18-18.25,10.2-5.01,21.32-7.87,32.67-8.39,4.94-.22,10.63-.47,16.58-.71,10.94-.44,22.8-.85,32.72-.99,26.42-.38,50.92,6.96,52.26,7.35s9.46,13.1,12.93,17.34c3.48,4.25,14.85,14.28,14.85,14.28,0,0,3.53.38,5.87,14.52,0,.25.08.47.11.71,1.19,7.75-.58,15.66-4.97,22.16Z" style="fill: rgb(8, 166, 76);"/><path class="cls-3_car-81" d="M193.22,266.98c6.35,2.68,13.4,3.43,20.28,3.45,3.34.11,6.69-.24,9.94-1.04,3.13-1,6.15-2.33,8.99-3.98,8.08-4.3,16.19-8.56,24.31-12.77,3.53-1.83,7.12-3.67,10.98-4.59,3.7-.87,7.52-.89,11.32-.9l30.54-.05c28.91-.05,57.89-9.32,86.74-10.83,13.97-.73,27.97-.66,41.93.21-5.22-2.31-10.07-5.38-14.39-9.1-1.22-1.05-2.46-2.27-2.77-3.85-.28-1.41.26-2.89.21-4.34-.09-2.68-2.21-4.94-4.68-6.03-2.46-1.09-5.22-1.2-7.9-1.3-23.2-.88-46.39-1.73-69.59-2.55-9.25-.32-18.53-.62-27.72.52-30.52,3.81-56.68,22.99-85.64,33.35-6.8,2.44-13.82,4.41-20.2,7.76-6.39,3.35-9.71,9.32-12.35,16.04Z"/><path class="cls-4_car-81" d="M338.88,206.98c-.38.61-1.67,1.12-4.14,1.54-16,2.69-44.37,23.12-55.71,27.38-11.35,4.25-30.86.38-30.86.38-.13-.42-.24-.85-.32-1.29l2.63-.71c3.72-.99,24.42-10.99,39.18-18.25,10.2-5.01,21.32-7.87,32.67-8.39,4.94-.2,10.61-.44,16.56-.66Z"/><path class="cls-11_car-81" d="M290.95,239.22c-.88.71-1.02,2-.31,2.89.42.52,1.06.8,1.72.76,21.43-1.41,89.44-5.99,95.91-7.29,7.72-1.54,24.68-3.08,27.5-8.46,2.82-5.38,1.09-11.45,1.09-11.45,0,0-51.1-9.04-76.72-3.3-20.11,4.49-39.73,19.23-49.2,26.86Z"/><path class="cls-9_car-81" d="M212.65,260.01s18.77-14.66,22.88-15.69c4.11-1.03,29.32-.25,29.32-.25,0,0-7.46,5.64-11.83,7.2s-34.46,9.77-40.37,8.74Z"/><circle class="cls-21_car-81" cx="269.8" cy="287.99" r="20.89"/><circle class="cls-7_car-81" cx="269.8" cy="287.99" r="20.89"/><circle class="cls-22_car-81 targetColor" cx="270.04" cy="288.26" r="14.96" style="fill: rgb(8, 166, 76);"/><circle class="cls-21_car-81" cx="429.6" cy="282.01" r="19.68"/><circle class="cls-6_car-81" cx="429.6" cy="282.01" r="19.68"/><circle class="cls-22_car-81 targetColor" cx="429.82" cy="282.26" r="14.09" style="fill: rgb(8, 166, 76);"/><circle class="cls-10_car-81" cx="270.1" cy="288.59" r="12.42"/><circle class="cls-8_car-81" cx="429.88" cy="282.19" r="11.26"/></g></svg>