<?xml version="1.0" encoding="UTF-8"?>
<svg id="Layer_1" xmlns="http://www.w3.org/2000/svg" version="1.1" viewBox="0 0 30.9 30.9">
  <!-- Generator: Adobe Illustrator 29.2.1, SVG Export Plug-In . SVG Version: 2.1.0 Build 116)  -->
  <defs>
    <style>
      .st0 {
        fill: #033e44;
      }
    </style>
  </defs>
  <path class="st0" d="M19.3,2c-2.1-2.1-5.5-2.2-7.7,0,0,0,0,0,0,0l-1.2,1.2h-1.7c-3,0-5.5,2.3-5.5,5.4,0,0,0,0,0,.1v1.7s-1.2,1.2-1.2,1.2c-2.1,2.1-2.2,5.5,0,7.7,0,0,0,0,0,0l1.2,1.2v1.7c0,3,2.3,5.5,5.4,5.5,0,0,0,0,.1,0h1.7s1.2,1.2,1.2,1.2c2.1,2.1,5.5,2.2,7.7,0,0,0,0,0,0,0l1.2-1.2h1.7c3,0,5.5-2.3,5.5-5.4,0,0,0,0,0-.1v-1.7s1.2-1.2,1.2-1.2c2.1-2.1,2.2-5.5,0-7.7,0,0,0,0,0,0l-1.2-1.2v-1.7c0-3-2.3-5.5-5.4-5.5,0,0,0,0-.1,0h-1.7s-1.2-1.2-1.2-1.2ZM19.9,13.3l-5.6,5.6c-.4.4-1,.4-1.3,0,0,0,0,0,0,0l-2.8-2.8c-.4-.4-.4-1,0-1.3s1-.4,1.3,0l2.2,2.2,5-5c.4-.4,1-.4,1.3,0s.4,1,0,1.3h0"/>
</svg>