<?xml version="1.0" encoding="utf-8"?>
<!-- Generator: Adobe Illustrator 27.9.0, SVG Export Plug-In . SVG Version: 6.00 Build 0)  -->
<svg version="1.1" id="Layer_1" xmlns="http://www.w3.org/2000/svg" xmlns:xlink="http://www.w3.org/1999/xlink" x="0px" y="0px"
	 viewBox="0 0 1920 960" style="enable-background:new 0 0 1920 960;" xml:space="preserve">
<style type="text/css">
	.st0{fill:#0077D9;}
	.st1{fill:#646364;}
	.st2{fill:#FFFFFF;}
	.st3{fill:#350000;}
	.st4{fill:#FFBC0E;}
	.st5{fill:#DFEAEF;}
	.st6{font-family:'Voltaire-Regular';}
	.st7{font-size:70px;}
	.st8{font-size:55px;}
</style>
<g>
	<rect class="st0" width="1920" height="960"/>
</g>
<path class="st1" d="M680.9,207.7c0,0-88.7-85.4-151.9-103.8s-313.6,2.8-322,8.1c-8.4,5.3-58.6,60.3-68.3,82.4s-9.1,55.7-7,66.3
	c0.7,5.1,2.3,10,4.9,14.5c0,0-15.2-0.8-16.7,7.6s0,59.5,0,70.2s8.4,18.2,18.8,20.6s130.4,0,130.4,0s9.8,14.5,13.9,14.5h570.8
	c12.5,0-0.7-17.6-4.2-17.6c0,0,8.4-64.1,3.5-67.9l-4.9-4c0.8-13-5.3-25.4-16-32.8C814.1,253.8,760.6,230.3,680.9,207.7z"/>
<path d="M853.8,391.1H283c-4.5,0-10.8-7.6-15.5-14.5c-18.2,0.4-119.3,2.1-129.5,0c-12.7-2.8-21.3-12.1-21.3-23.6c0-2.7,0-8-0.2-14.7
	c-0.5-26.1-0.8-50,0.2-56c1.1-6.8,8.5-9.4,14.9-10c-1.3-3.6-2.4-7.2-3-11c-2.1-10.6-3-45.2,7.2-68.2s60.3-77.8,69.5-83.7
	c6.1-3.8,81.1-10.3,141.9-13.4c52.5-2.7,146.2-5.6,182.5,4.9C591,118.7,674.1,197,682.4,204.8c77.1,22,131.7,45.3,151.5,58.6
	c11.2,7.6,17.8,20.4,17.5,33.9l3.6,2.9c4.1,3.2,3.4,26.2-2.1,68.5c4.3,3,9.1,10.5,9.1,15.2c0.1,2-0.8,3.9-2.3,5.2
	C858.1,390.5,855.9,391.2,853.8,391.1z M269,370.5c1,0,2,0.5,2.5,1.4c4.4,6.5,9.8,12.7,11.6,13.1h570.6c0.2,0,2.1,0,2.2-0.6
	c0.6-2.9-4.7-9.9-6.8-10.9c-1.7-0.2-2.8-1.7-2.6-3.4c3.7-28.6,6.3-60.5,4.3-65.3l-4.6-3.6c-0.8-0.6-1.3-1.7-1.2-2.7
	c0.7-11.9-4.9-23.3-14.7-30c-18.9-12.7-74-36.3-150.4-58.1c-0.5-0.1-0.9-0.4-1.3-0.7c-0.9-0.9-88.9-85.1-150.7-103
	c-64.1-18.6-311,3.8-319.6,7.9c-7.9,5-57.8,59.9-67.1,81c-9.6,21.7-8.8,54.5-6.8,64.6c0.6,4.7,2.1,9.2,4.4,13.3
	c0.7,1,0.7,2.2,0.1,3.2c-0.6,1-1.6,1.6-2.8,1.6c-3.3-0.2-12.8,0.4-13.6,5.1c-1,6.1-0.5,36.6-0.2,54.9c0,6.6,0.2,12.1,0.2,14.8
	c0,8.5,6.5,15.5,16.4,17.6c8.3,1.8,96.4,0.5,129.7,0L269,370.5z M851.2,305L851.2,305z"/>
<path class="st2" d="M448.8,211l-10.5-90c0,0,67.6,6.1,105.3,18.2s76.7,41.2,83.7,55s5.6,25.2,0,27.3
	C621.8,223.7,448.8,211,448.8,211z"/>
<path d="M622.4,224.8c-26.2,0-127.6-7.4-173.8-10.8c-1.5-0.1-2.6-1.2-2.8-2.7l-10.5-90c-0.1-0.9,0.2-1.8,0.9-2.5
	c0.6-0.6,1.5-1,2.4-0.9c2.8,0.2,68.4,6.3,106,18.4c36.6,11.9,77.6,40.9,85.4,56.4c4.9,9.5,6.3,19.1,3.9,25.5
	c-0.9,2.7-2.9,4.9-5.5,6.1C626.5,224.8,624.5,224.9,622.4,224.8z M451.6,208.1c67.7,5.1,168.3,11.9,174.9,10.6
	c0.9-0.6,1.5-1.5,1.8-2.6c1.4-3.7,1.2-11.1-3.6-20.6c-6.4-12.7-44.5-41.3-82-53.4c-31.9-10.3-86.3-16.3-100.9-17.8L451.6,208.1z"/>
<path class="st3" d="M617.7,235.4c-2.2-0.1,4.9-53.6,4.9-53.6s23,6.9,30,23.6C659.6,222.1,649.1,237.5,617.7,235.4z"/>
<path d="M623.2,238.6c-1.8,0-3.7-0.1-5.7-0.2l0,0c-0.9-0.1-1.7-0.5-2.2-1.2c-1-1.2-2.6-3.2,4.3-55.8c0.1-0.9,0.6-1.6,1.4-2.1
	c0.8-0.5,1.7-0.6,2.5-0.4c1,0.3,24.5,7.4,31.9,25.3c3.6,7.3,3,16-1.5,22.8C648.5,234.5,637.7,238.6,623.2,238.6z M620.3,232.5
	c14,0.6,24.1-2.6,28.7-9.1c3.2-5.1,3.5-11.5,0.8-16.9c-4.8-11.5-18.2-18.2-24.6-20.6C622.6,205.5,620.4,225.9,620.3,232.5
	L620.3,232.5L620.3,232.5z"/>
<path class="st2" d="M418.9,208.7l-4.2-87.7c0,0-129.7,0-141.6,6.1c-11.9,6.1-50.2,36.7-48.8,50.3s23,16,29.3,19.8
	C259.9,201,418.9,208.7,418.9,208.7z"/>
<path d="M418.9,211.7h-0.1c-37.5-1.8-160.2-8-166.7-11.9c-2.2-1.1-4.6-2-7-2.7c-9.1-3-22.5-7.4-23.8-19.4
	c-1.6-16.2,39.5-47.7,50.5-53.4c12.1-6.3,129.6-6.4,142.9-6.4c1.7,0,3,1.4,3,3l4.2,87.7C421.9,210.4,420.5,211.7,418.9,211.7
	L418.9,211.7z M411.8,124c-51.9,0-129.2,1.6-137.3,5.8c-13.1,6.7-48.3,36.4-47.2,47.3c0.8,8.1,11.2,11.5,19.6,14.3
	c2.9,0.8,5.7,1.9,8.4,3.2c6.3,2.6,98.2,7.8,160.5,10.8L411.8,124z"/>
<circle class="st2" cx="258.8" cy="367.5" r="72.2"/>
<path d="M258.8,442.7c-41.5,0-75.2-33.7-75.2-75.2s33.7-75.2,75.2-75.2S334,326,334,367.5S300.3,442.7,258.8,442.7z M258.8,298.4
	c-38.2,0-69.2,31-69.2,69.2s31,69.2,69.2,69.2s69.2-31,69.2-69.2l0,0C327.9,329.3,296.9,298.4,258.8,298.4z"/>
<ellipse class="st1" cx="258.8" cy="367.5" rx="41.3" ry="41.3"/>
<path d="M258.8,411.9c-24.5,0-44.4-19.9-44.4-44.4s19.9-44.4,44.4-44.4s44.4,19.9,44.4,44.4l0,0C303.1,392,283.3,411.8,258.8,411.9z
	 M258.8,329.2c-21.1,0-38.3,17.1-38.3,38.3s17.1,38.3,38.3,38.3s38.3-17.1,38.3-38.3l0,0C297.1,346.3,279.9,329.2,258.8,329.2
	L258.8,329.2L258.8,329.2z"/>
<ellipse class="st2" cx="677.3" cy="367.5" rx="72.2" ry="72.2"/>
<path d="M677.3,442.7c-41.5,0-75.2-33.7-75.2-75.2s33.7-75.2,75.2-75.2s75.2,33.7,75.2,75.2l0,0C752.5,409,718.8,442.7,677.3,442.7z
	 M677.3,298.4c-38.2,0-69.2,31-69.2,69.2s31,69.2,69.2,69.2s69.2-31,69.2-69.2l0,0C746.4,329.3,715.4,298.4,677.3,298.4z"/>
<ellipse class="st1" cx="677.3" cy="367.5" rx="41.3" ry="41.3"/>
<path d="M677.3,411.9c-24.5,0-44.4-19.9-44.4-44.4s19.9-44.4,44.4-44.4s44.4,19.9,44.4,44.4l0,0C721.6,392,701.8,411.8,677.3,411.9z
	 M677.3,329.2c-21.2,0-38.3,17.1-38.3,38.3s17.2,38.3,38.3,38.3c21.2,0,38.3-17.1,38.3-38.3l0,0
	C715.6,346.3,698.4,329.2,677.3,329.2L677.3,329.2L677.3,329.2z"/>
<path class="st4" d="M151.3,202c-2.8,6.4-5.1,13.1-6.9,19.9c-2.9,16.8-3,33.4-1.2,35c1.8,1.5,19.5,1.2,21.6,0
	c2.1-1.2,16.5-27.3,18.2-33c1.7-5.6,5.5-17.2,2.2-19.5S154.5,198.7,151.3,202z"/>
<path d="M152.5,260.9c-9.3,0-10.7-1.2-11.4-1.8c-5.2-4.5,0.2-37.4,0.2-37.8c1.8-7,4.2-13.9,7.1-20.6c0.1-0.4,0.4-0.7,0.6-0.9
	c4.7-4.7,34-0.7,37.9,2s3.6,9.4-1,23c-1.2,3.6-16,32.6-19.8,34.7c-4,1.1-8.2,1.6-12.3,1.4H152.5z M145.4,254.5
	c5.9,0.6,11.9,0.5,17.7-0.3c6.5-10,12.2-20.5,17.1-31.3c4.1-12.1,3.4-15.5,3-16.1c-3.9-2-25.1-4.1-29.7-2.6
	c-2.6,5.9-4.7,12-6.3,18.2C145.2,232.9,144.5,243.7,145.4,254.5z"/>
<path class="st4" d="M834.1,303.4c0,0-1.6-18-10.6-22.9s-44.1-18.9-46.5-12.6s15.3,28.6,19.9,32.4
	C801.4,304.1,834.1,303.4,834.1,303.4z"/>
<path d="M826.8,306.5c-11.6,0-28-0.6-32-3.9c-2.8-2.4-24.3-26.9-20.8-35.8c0.6-1.4,1.7-2.5,3.2-3c9.3-3.4,42.5,11.2,47.6,14
	c10.2,5.5,12.2,23.3,12.2,25.3c0.1,0.8-0.2,1.7-0.8,2.3c-0.6,0.6-1.4,1-2.2,1L826.8,306.5z M779.7,269.3
	c-0.2,4.8,13.3,23.7,19.1,28.6c2.4,1.8,17.8,2.6,31.9,2.5c-1-5.6-3.5-14.5-8.6-17.2C810.9,277.2,784.9,267.9,779.7,269.3z"/>
<path d="M155.7,287.9h-19.1c-1.7,0-3-1.4-3-3s1.4-3,3-3h19.1c1.7,0,3,1.4,3,3S157.3,287.9,155.7,287.9z"/>
<path d="M517.5,245.3h-35.9c-1.7,0-3-1.4-3-3s1.4-3,3-3h35.9c1.7,0,3,1.4,3,3S519.2,245.3,517.5,245.3L517.5,245.3z"/>
<path d="M396.6,245.3h-35.9c-1.7,0-3-1.4-3-3s1.4-3,3-3h35.9c1.7,0,3,1.4,3,3S398.2,245.3,396.6,245.3L396.6,245.3z"/>
<path d="M443.9,383.4c-1.7,0-3-1.4-3-3V251.5c0-4.4-12.4-24.3-24.5-41.1c-1-1.4-0.7-3.3,0.7-4.2c1.4-1,3.3-0.7,4.2,0.7
	c4.2,6.1,25.6,36.1,25.6,44.7v128.9C446.9,382.1,445.5,383.4,443.9,383.4z"/>
<path class="st5" d="M300.1,174.5c-1.1,0-2.1-0.6-2.6-1.5c-0.9-1.4-0.4-3.3,1.1-4.2l60.6-35.6c1.4-1,3.3-0.7,4.2,0.7
	c1,1.4,0.7,3.3-0.7,4.2c-0.2,0.1-0.4,0.2-0.5,0.3L301.6,174C301.1,174.3,300.6,174.5,300.1,174.5z"/>
<path class="st5" d="M340.3,192.7c-1,0-2-0.5-2.5-1.4c-0.9-1.4-0.5-3.3,0.9-4.2l38.3-24.9c1.4-0.9,3.3-0.5,4.2,0.9
	c0.9,1.4,0.5,3.3-0.9,4.2L342,192.2C341.5,192.5,340.9,192.7,340.3,192.7z"/>
<path class="st5" d="M481.6,198.6c-1.7,0-3-1.4-3-3c0-0.9,0.4-1.7,1-2.3l46.9-42c1.2-1.1,3.2-1,4.3,0.2s1,3.2-0.2,4.3l0,0
	l-46.9,42.1C483.1,198.3,482.3,198.6,481.6,198.6z"/>
<path class="st5" d="M543,205.1c-0.8,0-1.6-0.3-2.2-0.9c-1.2-1.2-1.2-3.1,0-4.3l27.3-26.2c1.2-1.2,3.1-1.2,4.3,0l0,0
	c1.2,1.2,1.2,3.1,0,4.3l-27.3,26.2C544.6,204.7,543.8,205.1,543,205.1z"/>
<text transform="matrix(1 0 0 1 250.555 652.9326)" class="st2 st6 st7">We buy “any” car</text>
<text transform="matrix(1 0 0 1 142.0035 788.0769)" class="st2 st6 st8">Get Your Free Online Valuation Now!</text>
</svg>
