<?xml version="1.0" encoding="UTF-8"?>
<svg id="Layer_1" xmlns="http://www.w3.org/2000/svg" version="1.1" viewBox="0 0 400 300">
  <!-- Generator: Adobe Illustrator 29.2.1, SVG Export Plug-In . SVG Version: 2.1.0 Build 116)  -->
  <defs>
    <style>
      .st0 {
        fill: #fff;
      }

      .st1 {
        fill: #0896a6;
      }

      .st2 {
        fill: #093f68;
      }

      .st3 {
        fill: #08a64c;
      }
    </style>
  </defs>
  <g id="_68_piggy_bank_outline">
    <rect class="st3" x="92.3" y="218.4" width="38.7" height="10" rx="2.1" ry="2.1"/>
    <path class="st2" d="M128.9,229.4h-34.5c-1.7,0-3.1-1.4-3.1-3.1v-5.8c0-1.7,1.4-3.1,3.1-3.1h34.5c1.7,0,3.1,1.4,3.1,3.1v5.8c0,1.7-1.4,3.1-3.1,3.1h0ZM94.4,219.4c-.6,0-1.1.5-1.1,1.1v5.8c0,.6.5,1.1,1.1,1.1h34.5c.6,0,1.1-.5,1.1-1.1h0v-5.8c0-.6-.5-1.1-1.1-1.1h-34.5Z"/>
    <rect class="st3" x="96.4" y="208.4" width="38.7" height="10" rx="2.1" ry="2.1"/>
    <path class="st2" d="M133.1,219.4h-34.5c-1.7,0-3.1-1.4-3.1-3.1v-5.8c0-1.7,1.4-3.1,3.1-3.1h34.5c1.7,0,3.1,1.4,3.1,3.1v5.8c0,1.7-1.4,3.1-3.1,3.1ZM98.6,209.4c-.6,0-1.1.5-1.1,1.1v5.8c0,.6.5,1.1,1.1,1.1h34.5c.6,0,1.1-.5,1.1-1.1h0v-5.8c0-.6-.5-1.1-1.1-1.1h-34.5Z"/>
    <rect class="st3" x="100.7" y="198.4" width="38.7" height="10" rx="2.1" ry="2.1"/>
    <path class="st2" d="M137.3,209.4h-34.5c-1.7,0-3.1-1.4-3.1-3.1v-5.8c0-1.7,1.4-3.1,3.1-3.1h34.5c1.7,0,3.1,1.4,3.1,3.1v5.8c0,1.7-1.4,3.1-3.1,3.1ZM102.8,199.4c-.6,0-1.1.5-1.1,1.1h0v5.8c0,.6.5,1.1,1.1,1.1h34.5c.6,0,1.1-.5,1.1-1.1v-5.8c0-.6-.5-1.1-1.1-1.1h-34.5Z"/>
    <rect class="st3" x="87.3" y="188.3" width="38.7" height="10" rx="2.1" ry="2.1"/>
    <path class="st2" d="M123.9,199.4h-34.5c-1.7,0-3.1-1.4-3.1-3.1v-5.8c0-1.7,1.4-3.1,3.1-3.1h34.5c1.7,0,3.1,1.4,3.1,3.1v5.8c0,1.7-1.4,3.1-3.1,3.1ZM89.4,189.4c-.6,0-1.1.5-1.1,1.1h0v5.8c0,.6.5,1.1,1.1,1.1h34.5c.6,0,1.1-.5,1.1-1.1v-5.8c0-.6-.5-1.1-1.1-1.1,0,0,0,0,0,0h-34.5Z"/>
    <rect class="st3" x="92.3" y="178.3" width="38.7" height="10" rx="2.1" ry="2.1"/>
    <path class="st2" d="M128.9,189.3h-34.5c-1.7,0-3.1-1.4-3.1-3.1v-5.8c0-1.7,1.4-3.1,3.1-3.1h34.5c1.7,0,3.1,1.4,3.1,3.1v5.8c0,1.7-1.4,3.1-3.1,3.1ZM94.4,179.3c-.6,0-1.1.5-1.1,1.1v5.8c0,.6.5,1.1,1.1,1.1h34.5c.6,0,1.1-.5,1.1-1.1v-5.8c0-.6-.5-1.1-1.1-1.1h-34.5Z"/>
    <path class="st2" d="M135.3,145.9c-4.2,0-10.8-.8-15.4-4.9-.7-.6-1.2-1.2-1.7-2-2.7-.4-6-1.7-9.6-5.5-.4-.4-.4-1,0-1.4.4-.4,1-.4,1.4,0,1.9,2.2,4.5,3.8,7.2,4.6-.6-2.1-.6-4.2-.2-6.3.7-3.2,2.4-5.6,4.6-6.3,1.3-.4,3.3-.4,5.8,1.8,1.7,1.5,2.4,3.9,1.8,6.1-.9,3.3-3.5,5.9-6.8,6.7-.6.2-1.1.3-1.7.3.2.2.3.3.5.5,6.5,5.8,17.9,4.1,18,4.1.6,0,1.1.3,1.2.8,0,.6-.3,1.1-.9,1.2h0c-1.4.2-2.8.2-4.2.2ZM119.5,137.1c.8,0,1.6,0,2.4-.3,2.6-.7,4.7-2.7,5.4-5.3.4-1.5,0-3.1-1.2-4.1-1.4-1.3-2.7-1.7-3.9-1.4-1.5.5-2.7,2.3-3.2,4.8-.4,2.1-.3,4.3.5,6.2Z"/>
    <path class="st1" d="M256.5,113.8s27-19.1,26.2-10.5-6.8,26-6.8,26"/>
    <path class="st2" d="M276,130.2c-.1,0-.2,0-.3,0-.5-.2-.8-.7-.6-1.3,0-.2,6-17.5,6.7-25.8,0-.8-.2-.9-.3-1-2.4-1.4-14.2,5.2-24.4,12.4-.5.2-1.1,0-1.3-.6-.1-.3,0-.7.1-1,3.6-2.6,21.9-15.2,26.5-12.5,1,.6,1.5,1.7,1.2,2.9-.8,8.6-6.6,25.5-6.8,26.2-.2.4-.5.6-.9.6Z"/>
    <path class="st1" d="M237.8,228.4h8.8c3.5,0,6.4-2.6,6.9-6l3.5-25.8h-29.6l3.5,25.8c.5,3.4,3.4,6,6.9,6Z"/>
    <path class="st2" d="M246.6,229.4h-8.8c-4,0-7.3-2.9-7.8-6.8l-3.5-25.8c0-.3,0-.6.2-.8.2-.2.5-.3.8-.4h29.6c.3,0,.6.1.8.4.2.2.3.5.2.8l-3.5,25.8c-.6,3.9-3.9,6.8-7.9,6.8ZM228.5,197.7l3.4,24.7c.4,2.9,2.9,5.1,5.9,5.1h8.8c3,0,5.5-2.2,5.9-5.1l3.4-24.7h-27.3Z"/>
    <path class="st1" d="M167.8,228.4h8.8c3.5,0,6.4-2.6,6.9-6l3.5-25.8h-29.6l3.5,25.8c.5,3.4,3.4,6,6.9,6Z"/>
    <path class="st2" d="M176.6,229.4h-8.8c-3.9,0-7.2-3-7.8-6.8l-3.5-25.8c0-.3,0-.6.2-.8.2-.2.5-.3.8-.4h29.5c.3,0,.6.1.8.4.2.2.3.5.2.8l-3.5,25.8c-.6,3.9-3.9,6.8-7.8,6.8ZM158.6,197.7l3.4,24.7c.4,2.9,2.9,5.1,5.9,5.1h8.8c3,0,5.5-2.2,5.9-5.1l3.4-24.7h-27.4Z"/>
    <path class="st1" d="M183.1,102h46.6c29.5,0,53.5,23.9,53.5,53.5h0v3.6c0,23.2-14.9,43.7-37,50.9l-1.7,12.5c-.5,3.4-3.4,6-6.9,6h-8.8c-3.5,0-6.4-2.6-6.9-6l-1.4-9.9h-37.4c-2.4,0-4.9-.2-7.3-.5l-1.4,10.4c-.5,3.4-3.4,6-6.9,6h-8.8c-3.5,0-6.4-2.6-6.9-6l-3.1-22.4c-12.1-10.2-19.1-25.2-19.1-41v-3.6c0-29.5,24-53.4,53.5-53.4Z"/>
    <path class="st2" d="M237.7,229.4h-8.8c-3.9,0-7.2-2.9-7.8-6.8l-1.2-9h-36.6c-2.2,0-4.3-.1-6.5-.4l-1.3,9.4c-.5,3.9-3.9,6.8-7.8,6.8h-8.8c-3.9,0-7.3-2.9-7.9-6.8l-3-22c-12.2-10.3-19.2-25.5-19.2-41.5v-3.6c0-30.1,24.4-54.5,54.5-54.6h46.6c30.1,0,54.4,24.4,54.5,54.5v3.6c0,23.4-14.9,44.2-37.1,51.6l-1.6,11.9c-.6,3.9-3.9,6.8-7.9,6.8ZM175.8,211h.2c2.4.3,4.8.5,7.2.5h37.5c.5,0,.9.4,1,.9l1.4,9.9c.4,2.9,2.9,5.1,5.9,5.1h8.8c3,0,5.5-2.2,5.9-5.1l1.7-12.5c0-.4.3-.7.7-.8,21.7-7,36.3-27.2,36.3-49.9v-3.6c0-29-23.6-52.4-52.5-52.4h-46.6c-29,0-52.4,23.5-52.5,52.5v3.6c0,15.5,6.9,30.2,18.8,40.2.2.2.3.4.4.6l3.1,22.4c.4,2.9,2.9,5.1,5.9,5.1h8.8c3,0,5.5-2.2,5.9-5.1l1.4-10.4c0-.3.2-.5.4-.7.2-.1.4-.2.6-.2Z"/>
    <rect class="st1" x="241.1" y="154.1" width="49.7" height="28.9" rx="13.6" ry="13.6"/>
    <path class="st2" d="M277.2,183.9h-22.5c-8,0-14.6-6.5-14.6-14.6v-1.7c0-8,6.5-14.6,14.6-14.6h22.5c8,0,14.6,6.5,14.6,14.6v1.7c0,8-6.5,14.6-14.6,14.6ZM254.6,155.1c-6.9,0-12.6,5.6-12.6,12.6v1.7c0,6.9,5.6,12.6,12.6,12.6h22.5c6.9,0,12.6-5.6,12.6-12.6v-1.7c0-6.9-5.6-12.6-12.6-12.6h-22.5Z"/>
    <path class="st1" d="M246.3,115.7s-9-23.6-13.6-23.6-11.7,30.1-11.7,30.1"/>
    <path class="st2" d="M221,123.2h-.2c-.5-.1-.9-.6-.8-1.2,0,0,0,0,0,0,0,0,1.8-7.6,4.1-15.1,4.3-14,6.9-15.8,8.6-15.8,5,0,12.4,18.6,14.6,24.2.2.5,0,1.1-.6,1.3h0c-.5.2-1.1,0-1.3-.6h0c-4.2-11-10.3-22.9-12.7-22.9s-6.6,11.8-10.7,29.3c-.1.4-.5.7-.9.8Z"/>
    <circle class="st1" cx="273.8" cy="168.5" r="4.2"/>
    <path d="M273.8,173.7c-2.9,0-5.2-2.3-5.2-5.2,0-2.9,2.3-5.2,5.2-5.2,2.9,0,5.2,2.3,5.2,5.2h0c0,2.9-2.3,5.2-5.2,5.2ZM273.8,165.3c-1.8,0-3.2,1.4-3.2,3.2s1.4,3.2,3.2,3.2c1.8,0,3.2-1.4,3.2-3.2s-1.4-3.2-3.2-3.2h0Z"/>
    <circle class="st1" cx="258" cy="168.5" r="4.2"/>
    <path d="M258,173.7c-2.9,0-5.2-2.3-5.2-5.2s2.3-5.2,5.2-5.2c2.9,0,5.2,2.3,5.2,5.2h0c0,2.9-2.3,5.2-5.2,5.2ZM258,165.3c-1.8,0-3.2,1.4-3.2,3.2s1.4,3.2,3.2,3.2,3.2-1.4,3.2-3.2c0,0,0,0,0,0,0-1.7-1.4-3.2-3.2-3.2Z"/>
    <path class="st2" d="M170.8,109.8c0,1.4,1.2,2.6,2.6,2.6h39.6c1.4,0,2.6-1.2,2.6-2.6,0,0,0,0,0,0,0-.7-.3-1.3-.8-1.8-.4-.4-1-.7-1.7-.8h-40c-1.4.1-2.4,1.2-2.4,2.6Z"/>
    <path class="st2" d="M213.1,113.4h-39.6c-2,0-3.7-1.5-3.7-3.5,0-2,1.5-3.7,3.5-3.7h40.2c.8,0,1.6.4,2.2,1,.7.7,1.1,1.6,1.1,2.5,0,2-1.6,3.6-3.6,3.7,0,0,0,0,0,0ZM173.4,108.2h-.1c-.9,0-1.6.8-1.5,1.7,0,.9.8,1.6,1.7,1.5h39.6c.9,0,1.6-.7,1.7-1.5s-.7-1.6-1.5-1.7h-39.7Z"/>
    <ellipse class="st2" cx="271.7" cy="142.5" rx="2.1" ry="4.4"/>
    <ellipse class="st2" cx="253.8" cy="142.5" rx="2.1" ry="4.4"/>
    <path class="st0" d="M136.9,166.2c-.5,0-.9-.3-1-.8-5.4-28.6,16.6-43.9,16.8-44,.5-.3,1.1-.2,1.4.3.3.5.2,1.1-.3,1.4-.2.1-21.1,14.7-16,42,0,.5-.3,1.1-.8,1.2h-.1Z"/>
    <circle class="st3" cx="217.9" cy="71.8" r="18"/>
    <path class="st2" d="M217.9,90.8c-10.5,0-19.1-8.5-19.1-19,0-10.5,8.5-19.1,19-19.1,10.5,0,19.1,8.5,19.1,19,0,7.8-4.7,14.7-11.8,17.7-2.3.9-4.7,1.4-7.2,1.4ZM217.9,54.8c-6.8,0-13,4.1-15.7,10.4h0c-3.6,8.7.5,18.6,9.1,22.2,8.7,3.6,18.6-.5,22.2-9.1,3.6-8.7-.5-18.6-9.1-22.2-2.1-.9-4.3-1.3-6.6-1.3h0ZM201.3,64.8h0Z"/>
    <g id="lUQdTl">
      <path class="st0" d="M213.9,58.2c.4.9.7,1.7,1.1,2.6,0,.2.1.2.3.2,1.4-.3,2.8-.2,4.1.2,1.4.4,2.6,1.3,3.4,2.6.2.3.4.7.6,1.1l-4,1.7c-.3-.6-.7-1.1-1.3-1.4-.5-.2-1-.4-1.5-.5h0c0,0,2.1,5.1,2.1,5.1h.5c1.2-.3,2.4-.4,3.6-.4,1.8,0,3.4,1.1,4.3,2.7,1.6,2.7,1.1,6.2-1.3,8.3-.6.6-1.3,1.1-2,1.6l.8,2-3.7,1.6-.8-2c-.8.1-1.6.3-2.4.3-1.5.1-3.1-.2-4.3-1.1-1.1-.7-1.9-1.8-2.4-3l4-1.7c.6,1.4,2.1,2.2,3.6,1.9-.7-1.8-1.5-3.6-2.2-5.4-.8,0-1.7.2-2.5.3-1,.1-2,0-3-.3-1-.4-1.8-1.1-2.3-2-.7-1-1.1-2.3-1.2-3.5,0-1.8.6-3.6,2-4.9.6-.5,1.2-.9,1.8-1.3,0,0,.1-.1.2-.2l-1.1-2.7,3.7-1.6ZM222.3,78.2c.6-.3,1.1-.8,1.4-1.4.5-1.1.2-2.4-.8-3-.8-.3-1.6-.4-2.4-.2l1.9,4.6ZM212.7,65.9c-.4.4-.8.9-1.1,1.3-.6,1-.3,2.3.7,2.9,0,0,.2.1.3.2.7.2,1.3.2,2,0l-1.9-4.5Z"/>
    </g>
    <path class="st3" d="M209.8,110.3c.3-.7.6-1.3.8-2,.3-.9.5-1.7.6-2.6.1-.9.2-1.9.2-2.8,0-9.9-8.1-18-18-18s-18,8.1-18,18c0,.9,0,1.9.2,2.8.1.9.4,1.8.6,2.6.2.7.5,1.4.8,2"/>
    <path class="st2" d="M209.8,111.3c-.1,0-.3,0-.4,0-.5-.2-.7-.8-.5-1.3,0,0,0,0,0,0,.3-.6.5-1.2.7-1.9.3-.8.5-1.7.6-2.5.1-.9.2-1.8.2-2.7,0-9.4-7.8-16.9-17.1-16.9-9.4,0-16.9,7.8-16.9,17.1,0,.8,0,1.6.2,2.4.1.8.3,1.7.6,2.5.2.6.4,1.3.7,1.9.3.5,0,1.1-.4,1.4-.5.3-1.1,0-1.4-.4,0,0,0-.1,0-.2-.3-.7-.6-1.4-.8-2.1-.3-.9-.5-1.8-.7-2.8-.2-1-.2-2-.2-3,0-10.5,8.5-19,19-19s19,8.5,19,19c0,1,0,2-.2,3-.1.9-.4,1.9-.7,2.8-.2.7-.5,1.4-.8,2.1-.2.4-.5.6-.9.6Z"/>
    <g id="lUQdTl-2">
      <path class="st0" d="M202.2,106.8c0-.4-.1-.8-.2-1.1-.4-1.3-1.4-2.4-2.7-3-1.1-.5-2.2-.9-3.4-1.1h-.5v-5.6h0c.4.2.8.6,1.2.9.4.5.6,1.1.6,1.8h4.4c0-.4,0-.8-.1-1.2-.2-1.5-1-2.8-2.1-3.7-1.1-.9-2.4-1.5-3.8-1.8-.2,0-.2,0-.2-.3v-2.8h-4v2.9h-.3c-.7.1-1.5.3-2.2.6-1.7.6-3.1,2-3.8,3.7-.4,1.2-.5,2.5-.3,3.7.2,1,.7,2,1.4,2.7.7.7,1.6,1.2,2.6,1.5.8.2,1.6.5,2.4.7v5.4h4v-4.6c.8.2,1.6.6,2.2,1.2.3.4.5.9.4,1.4,0,.6-.3,1.2-.8,1.6-.2.1-.3.2-.5.3h5.1c.3-.6.4-1.3.5-2,0-.5,0-1,0-1.5ZM189.6,99.7c-.8-.8-.9-2.2,0-3,0,0,.2-.2.3-.2.5-.3,1-.6,1.5-.8v4.8c-.6-.1-1.2-.4-1.8-.8ZM188.9,108.3c0-.3-.1-.5-.2-.8h-4.3c0,.3,0,.5,0,.8,0,.7.2,1.4.5,2h5.4c-.7-.4-1.3-1.2-1.5-2Z"/>
    </g>
    <rect class="st3" x="265.9" y="218.4" width="38.7" height="10" rx="2.1" ry="2.1"/>
    <path class="st2" d="M302.5,229.4h-34.5c-1.7,0-3.1-1.4-3.1-3.1v-5.8c0-1.7,1.4-3.1,3.1-3.1h34.5c1.7,0,3.1,1.4,3.1,3.1v5.8c0,1.7-1.4,3.1-3.1,3.1ZM268,219.4c-.6,0-1.1.5-1.1,1.1v5.8c0,.6.5,1.1,1.1,1.1h34.5c.6,0,1.1-.5,1.1-1.1v-5.8c0-.6-.5-1.1-1.1-1.1h-34.5Z"/>
    <rect class="st3" x="271.3" y="208.4" width="38.7" height="10" rx="2.1" ry="2.1"/>
    <path class="st2" d="M307.9,219.4h-34.5c-1.7,0-3.1-1.4-3.1-3.1v-5.8c0-1.7,1.4-3.1,3.1-3.1h34.5c1.7,0,3.1,1.4,3.1,3.1v5.8c0,1.7-1.4,3.1-3.1,3.1ZM273.4,209.4c-.6,0-1.1.5-1.1,1.1v5.8c0,.6.5,1.1,1.1,1.1h34.5c.6,0,1.1-.5,1.1-1.1v-5.8c0-.6-.5-1.1-1.1-1.1h-34.5Z"/>
    <path class="st2" d="M318.4,229.4H81.6c-.6,0-1-.4-1-1s.4-1,1-1h236.9c.6,0,1,.4,1,1s-.4,1-1,1Z"/>
  </g>
</svg>