<?xml version="1.0" encoding="UTF-8"?>
<svg id="Layer_1" xmlns="http://www.w3.org/2000/svg" xmlns:xlink="http://www.w3.org/1999/xlink" version="1.1" viewBox="0 0 1183 459">
  <!-- Generator: Adobe Illustrator 29.2.1, SVG Export Plug-In . SVG Version: 2.1.0 Build 116)  -->
  <defs>
    <style>
      .st0 {
        fill: #213133;
        stroke: #000;
        stroke-miterlimit: 10;
      }

      .st1 {
        isolation: isolate;
      }

      .st2 {
        fill: #0896a6;
      }
    </style>
  </defs>
  <path class="st2" d="M224,137c2.3,0,4.2-1.9,4.2-4.2v-10.3c0-2.3-1.9-4.2-4.2-4.2h-5.8c0-1.5,0-2.9.3-4.4.3-1.6.7-2.9,1.3-4.2.6-1.2,1.4-2.2,2.4-2.9.9-.8,2.2-1.2,3.6-1.2v-6.5c-2.4,0-4.6.5-6.4,1.6-1.8,1-3.4,2.5-4.6,4.2-1.2,1.9-2.1,4-2.6,6.1-.5,2.4-.8,4.8-.8,7.3v14.5c0,2.3,1.9,4.2,4.2,4.2h8.4ZM198.8,137c2.3,0,4.2-1.9,4.2-4.2v-10.3c0-2.3-1.9-4.2-4.2-4.2h-5.8c0-1.5,0-2.9.3-4.4.3-1.6.7-2.9,1.3-4.2.6-1.2,1.4-2.2,2.4-2.9.9-.8,2.2-1.2,3.6-1.2v-6.5c-2.4,0-4.6.5-6.4,1.6-1.8,1-3.4,2.5-4.6,4.2-1.2,1.9-2.1,4-2.6,6.1-.5,2.4-.8,4.8-.8,7.3v14.5c0,2.3,1.9,4.2,4.2,4.2h8.4Z"/>
  <path class="st2" d="M958.6,94c-2.3,0-4.2,1.9-4.2,4.2v10.3c0,2.3,1.9,4.2,4.2,4.2h5.8c0,1.5,0,2.9-.3,4.4-.3,1.6-.7,2.9-1.3,4.2-.6,1.2-1.4,2.2-2.3,2.9-1,.8-2.2,1.2-3.7,1.2v6.5c2.4,0,4.6-.5,6.4-1.6,1.8-1,3.4-2.5,4.6-4.2,1.2-1.9,2.1-4,2.6-6.1.5-2.4.8-4.8.8-7.3v-14.5c0-2.3-1.9-4.2-4.2-4.2h-8.4,0ZM983.8,94c-2.3,0-4.2,1.9-4.2,4.2v10.3c0,2.3,1.9,4.2,4.2,4.2h5.8c0,1.5,0,2.9-.3,4.4-.3,1.6-.7,2.9-1.3,4.2-.6,1.2-1.4,2.2-2.3,2.9-1,.8-2.2,1.2-3.7,1.2v6.5c2.4,0,4.6-.5,6.4-1.6,1.8-1,3.4-2.5,4.6-4.2,1.2-1.9,2.1-4,2.6-6.1.5-2.4.8-4.8.8-7.3v-14.5c0-2.3-1.9-4.2-4.2-4.2h-8.4,0Z"/>
  <g>
    <g class="st1">
      <g class="st1">
        <g class="st1">
          <path d="M257.4,111.4l2.9,14.4v3.5h-2.2l-4-17.9h3.3ZM259.6,125.8l3.6-14.4h1.9v3c.1,0-3.7,14.8-3.7,14.8h-2l.2-3.4ZM266,111.4l3.6,14.5.2,3.4h-2l-3.8-14.8v-3h2.1ZM268.9,125.7l2.9-14.3h3.4l-4,17.9h-2.2v-3.5Z"/>
          <path d="M291.8,119.8v.9c0,1.4-.2,2.6-.5,3.6-.4,1.1-.9,2-1.5,2.7s-1.5,1.3-2.4,1.7c-.9.4-1.9.6-3.1.6s-2.1-.2-3-.6c-.9-.4-1.7-1-2.4-1.7-.7-.8-1.2-1.7-1.6-2.7-.4-1.1-.6-2.3-.6-3.6v-.9c0-1.4.2-2.6.6-3.6.4-1.1.9-2,1.5-2.7.7-.8,1.5-1.3,2.4-1.7.9-.4,1.9-.6,3-.6s2.1.2,3.1.6c.9.4,1.7,1,2.4,1.7.7.8,1.2,1.7,1.5,2.7.4,1.1.5,2.3.5,3.6ZM288.4,120.8v-.9c0-1,0-1.8-.3-2.6-.2-.7-.4-1.4-.8-1.9s-.8-.9-1.3-1.1c-.5-.3-1.1-.4-1.7-.4s-1.2.1-1.7.4-.9.6-1.3,1.1c-.4.5-.6,1.1-.8,1.9s-.3,1.6-.3,2.6v.9c0,1,0,1.8.3,2.6.2.7.5,1.4.8,1.9.4.5.8.9,1.3,1.2.5.3,1.1.4,1.7.4s1.2-.1,1.7-.4c.5-.3.9-.6,1.3-1.2.3-.5.6-1.1.8-1.9.2-.7.3-1.6.3-2.6Z"/>
          <path d="M296.8,111.4l2.9,14.4v3.5h-2.2l-4-17.9h3.3ZM299,125.8l3.6-14.4h1.9v3c.1,0-3.7,14.8-3.7,14.8h-2l.2-3.4ZM305.4,111.4l3.6,14.5.2,3.4h-2l-3.8-14.8v-3h2.1ZM308.3,125.7l2.9-14.3h3.4l-4,17.9h-2.2v-3.5Z"/>
          <path d="M316.6,127.7c0-.5.2-.9.5-1.2.3-.3.8-.5,1.3-.5s1,.2,1.3.5c.3.3.5.7.5,1.2s-.2.9-.5,1.2c-.3.3-.8.5-1.3.5s-1-.2-1.3-.5c-.3-.3-.5-.7-.5-1.2ZM320.1,111.4l-.4,12.5h-2.7l-.4-12.5h3.4Z"/>
          <path d="M336.8,114.1l-5.1,15.2h-3.6l6.7-17.9h2.3l-.3,2.7ZM340.8,122.6v2.7h-9.6v-2.7h9.6ZM341,129.2l-5.1-15.2-.3-2.7h2.3l6.7,17.9h-3.6Z"/>
          <path d="M346.2,110.4h3.3v15.9l-.3,2.9h-2.9v-18.8ZM358,122.4v.3c0,1-.1,1.9-.3,2.7-.2.8-.5,1.5-1,2.1s-1,1.1-1.6,1.4-1.4.5-2.3.5-1.5-.2-2.1-.5c-.6-.3-1.1-.8-1.5-1.4s-.7-1.3-1-2.1c-.2-.8-.4-1.7-.6-2.6v-.7c.1-1,.3-1.8.6-2.6.2-.8.6-1.5,1-2.1s.9-1,1.5-1.4,1.3-.5,2.1-.5,1.6.2,2.3.5c.7.3,1.2.8,1.6,1.4.4.6.8,1.3,1,2.1.2.8.3,1.7.3,2.7ZM354.7,122.7v-.3c0-.6,0-1.1-.1-1.6,0-.5-.2-.9-.4-1.3-.2-.4-.5-.7-.8-.9-.4-.2-.8-.3-1.3-.3s-.9,0-1.3.3-.7.4-.9.7c-.2.3-.4.7-.5,1.1-.1.4-.2.9-.3,1.3v1.9c0,.6.2,1.2.4,1.7.2.5.5.9,1,1.2.4.3,1,.4,1.6.4s1-.1,1.3-.3c.4-.2.6-.5.8-.9.2-.4.3-.8.4-1.3,0-.5.1-1.1.1-1.7Z"/>
          <path d="M359.7,122.7v-.3c0-1,.1-1.9.4-2.7.3-.8.7-1.5,1.2-2.1s1.2-1.1,2-1.4c.8-.3,1.6-.5,2.6-.5s1.9.2,2.7.5c.8.3,1.4.8,2,1.4s.9,1.3,1.2,2.1c.3.8.4,1.7.4,2.7v.3c0,1-.1,1.9-.4,2.7-.3.8-.7,1.5-1.2,2.1s-1.2,1.1-2,1.4c-.8.3-1.6.5-2.6.5s-1.9-.2-2.6-.5c-.8-.3-1.4-.8-2-1.4s-.9-1.3-1.2-2.1c-.3-.8-.4-1.7-.4-2.7ZM363,122.5v.3c0,.6,0,1.1.2,1.6.1.5.3,1,.5,1.3.2.4.5.7.9.9s.8.3,1.4.3,1-.1,1.4-.3c.4-.2.7-.5.9-.9.2-.4.4-.8.5-1.3.1-.5.2-1.1.2-1.6v-.3c0-.6,0-1.1-.2-1.6-.1-.5-.3-.9-.5-1.3-.2-.4-.6-.7-.9-.9s-.8-.3-1.4-.3-1,.1-1.3.3c-.4.2-.7.5-.9.9s-.4.8-.5,1.3c-.1.5-.2,1-.2,1.6Z"/>
          <path d="M376.5,115.9l3.1,10.8v2.4c.1,0-2,0-2,0l-4.6-13.3h3.4ZM378.8,126.8l3.1-10.8h3.4l-4.6,13.3h-2.1v-2.5Z"/>
          <path d="M392.8,129.5c-1,0-1.9-.2-2.7-.5-.8-.3-1.5-.8-2-1.4-.6-.6-1-1.3-1.3-2-.3-.8-.4-1.6-.4-2.5v-.5c0-1,.1-2,.4-2.8.3-.8.7-1.6,1.3-2.2.5-.6,1.2-1.1,1.9-1.4.8-.3,1.6-.5,2.5-.5s1.8.2,2.5.5c.7.3,1.3.8,1.8,1.3.5.6.8,1.3,1.1,2.1.2.8.4,1.7.4,2.6v1.4h-10.4v-2.2h7.2v-.2c0-.5-.1-1-.3-1.4-.2-.4-.5-.8-.8-1-.4-.3-.9-.4-1.5-.4s-.9.1-1.3.3c-.4.2-.7.5-.9.9-.2.4-.4.8-.5,1.4-.1.5-.2,1.1-.2,1.7v.5c0,.6,0,1.1.2,1.5.2.5.4.9.7,1.2.3.3.7.6,1.1.8.4.2.9.3,1.4.3s1.3-.1,1.8-.4c.6-.3,1-.7,1.4-1.2l1.6,1.7c-.3.4-.7.8-1.1,1.2-.5.4-1,.7-1.7.9s-1.4.3-2.3.3Z"/>
          <path d="M414.3,121.1v1.9s-2,0-2,0c-.5,0-1,0-1.3.2-.4.1-.7.2-.9.4-.2.2-.4.4-.6.7-.1.3-.2.6-.2.9s0,.6.2.9c.2.3.4.5.7.6.3.2.6.2,1,.2.6,0,1.1-.1,1.5-.4.4-.2.8-.5,1-.9.2-.3.4-.7.4-1l.9,1.4c-.1.3-.3.7-.5,1.1-.2.4-.5.7-.9,1.1s-.8.6-1.3.8c-.5.2-1.1.3-1.8.3s-1.6-.2-2.3-.5c-.7-.3-1.2-.8-1.6-1.4-.4-.6-.6-1.3-.6-2s.1-1.3.4-1.9.7-1,1.2-1.4,1.2-.7,1.9-.8c.8-.2,1.6-.3,2.6-.3h2.2ZM413.9,126.4v-6.1c0-.4,0-.8-.2-1.2s-.4-.6-.7-.8-.7-.3-1.2-.3-.8,0-1.1.2c-.3.1-.6.4-.7.6-.2.3-.3.6-.3.9h-3.3c0-.5.1-1.1.4-1.6.3-.5.6-.9,1.1-1.3.5-.4,1.1-.7,1.8-.9.7-.2,1.4-.3,2.3-.3s1.9.2,2.7.5c.8.3,1.4.8,1.9,1.5.5.7.7,1.5.7,2.6v5.8c0,.7,0,1.2.1,1.7s.2.9.4,1.2v.2h-3.3c-.2-.3-.3-.8-.4-1.3,0-.5-.1-1-.1-1.5Z"/>
          <path d="M423.2,118.8v10.4h-3.2v-13.3h3l.2,2.8ZM422.7,122.1h-1c0-1,.1-1.8.4-2.6s.6-1.5,1.1-2c.5-.6,1-1,1.7-1.3.6-.3,1.3-.5,2.1-.5s1.2,0,1.7.3c.5.2,1,.5,1.3.9.4.4.7.9.9,1.5.2.6.3,1.4.3,2.3v8.5h-3.3v-8.5c0-.6,0-1.1-.3-1.4-.2-.4-.4-.6-.8-.7-.3-.1-.7-.2-1.2-.2s-.9,0-1.3.3c-.4.2-.7.5-.9.8-.2.4-.4.8-.6,1.2s-.2,1-.2,1.5Z"/>
          <path d="M433.5,122.7v-.3c0-1,.1-1.9.4-2.8.2-.8.6-1.5,1-2.1.4-.6,1-1.1,1.6-1.4s1.4-.5,2.2-.5,1.5.2,2.1.5c.6.3,1.1.8,1.5,1.4s.8,1.3,1,2.1.4,1.7.6,2.7v.7c-.1.9-.3,1.8-.6,2.6s-.6,1.5-1,2.1-.9,1-1.5,1.4-1.3.5-2.1.5-1.5-.2-2.2-.5-1.2-.8-1.6-1.4-.8-1.3-1-2.1c-.2-.8-.4-1.7-.4-2.7ZM436.8,122.5v.3c0,.6,0,1.1.1,1.6s.3.9.5,1.3c.2.4.5.7.9.9.3.2.8.3,1.3.3s1.2-.1,1.6-.4.7-.7,1-1.2c.2-.5.4-1.1.4-1.7v-1.9c0-.5-.1-.9-.3-1.4-.1-.4-.3-.8-.6-1.1s-.5-.5-.9-.7c-.4-.2-.8-.3-1.3-.3s-.9.1-1.3.3c-.4.2-.6.5-.9.9s-.4.8-.5,1.3c-.1.5-.2,1.1-.2,1.6ZM442.1,126.4v-16h3.3v18.8h-2.9l-.3-2.8Z"/>
          <path d="M454.5,110.4h3.3v15.9l-.3,2.9h-2.9v-18.8ZM466.3,122.4v.3c0,1-.1,1.9-.3,2.7-.2.8-.5,1.5-1,2.1s-1,1.1-1.6,1.4-1.4.5-2.3.5-1.5-.2-2.1-.5c-.6-.3-1.1-.8-1.5-1.4s-.7-1.3-1-2.1c-.2-.8-.4-1.7-.6-2.6v-.7c.1-1,.3-1.8.6-2.6.2-.8.6-1.5,1-2.1s.9-1,1.5-1.4,1.3-.5,2.1-.5,1.6.2,2.3.5c.7.3,1.2.8,1.6,1.4.4.6.8,1.3,1,2.1.2.8.3,1.7.3,2.7ZM463,122.7v-.3c0-.6,0-1.1-.1-1.6,0-.5-.2-.9-.4-1.3-.2-.4-.5-.7-.8-.9-.4-.2-.8-.3-1.3-.3s-.9,0-1.3.3-.7.4-.9.7c-.2.3-.4.7-.5,1.1-.1.4-.2.9-.3,1.3v1.9c0,.6.2,1.2.4,1.7.2.5.5.9,1,1.2.4.3,1,.4,1.6.4s1-.1,1.3-.3c.4-.2.6-.5.8-.9.2-.4.3-.8.4-1.3,0-.5.1-1.1.1-1.7Z"/>
          <path d="M474.6,129.5c-1,0-1.9-.2-2.7-.5-.8-.3-1.5-.8-2-1.4-.6-.6-1-1.3-1.3-2-.3-.8-.4-1.6-.4-2.5v-.5c0-1,.1-2,.4-2.8.3-.8.7-1.6,1.3-2.2.5-.6,1.2-1.1,1.9-1.4.8-.3,1.6-.5,2.5-.5s1.8.2,2.5.5c.7.3,1.3.8,1.8,1.3.5.6.8,1.3,1.1,2.1.2.8.4,1.7.4,2.6v1.4h-10.4v-2.2h7.2v-.2c0-.5-.1-1-.3-1.4-.2-.4-.5-.8-.8-1-.4-.3-.9-.4-1.5-.4s-.9.1-1.3.3c-.4.2-.7.5-.9.9-.2.4-.4.8-.5,1.4-.1.5-.2,1.1-.2,1.7v.5c0,.6,0,1.1.2,1.5.2.5.4.9.7,1.2.3.3.7.6,1.1.8.4.2.9.3,1.4.3s1.3-.1,1.8-.4c.6-.3,1-.7,1.4-1.2l1.6,1.7c-.3.4-.7.8-1.1,1.2-.5.4-1,.7-1.7.9s-1.4.3-2.3.3Z"/>
          <path d="M484.1,115.9l3,9.8.5,3.4-2.2.4-4.8-13.6h3.5ZM485.9,127.7l3.6-11.8h3.5l-5.3,15.3c-.1.3-.3.7-.5,1.1-.2.4-.4.8-.8,1.1-.3.3-.7.6-1.2.9s-1.1.3-1.7.3-.6,0-.8,0-.5,0-.7-.2v-2.4c0,0,.2,0,.3,0s.2,0,.3,0c.5,0,.9,0,1.2-.2.3-.1.6-.3.8-.5s.4-.6.5-.9l1-2.6Z"/>
          <path d="M493.7,122.7v-.3c0-1,.1-1.9.4-2.7.3-.8.7-1.5,1.2-2.1s1.2-1.1,2-1.4c.8-.3,1.6-.5,2.6-.5s1.9.2,2.7.5c.8.3,1.4.8,2,1.4s.9,1.3,1.2,2.1c.3.8.4,1.7.4,2.7v.3c0,1-.1,1.9-.4,2.7-.3.8-.7,1.5-1.2,2.1s-1.2,1.1-2,1.4c-.8.3-1.6.5-2.6.5s-1.9-.2-2.6-.5c-.8-.3-1.4-.8-2-1.4s-.9-1.3-1.2-2.1c-.3-.8-.4-1.7-.4-2.7ZM496.9,122.5v.3c0,.6,0,1.1.2,1.6.1.5.3,1,.5,1.3.2.4.5.7.9.9s.8.3,1.4.3,1-.1,1.4-.3c.4-.2.7-.5.9-.9.2-.4.4-.8.5-1.3.1-.5.2-1.1.2-1.6v-.3c0-.6,0-1.1-.2-1.6-.1-.5-.3-.9-.5-1.3-.2-.4-.6-.7-.9-.9s-.8-.3-1.4-.3-1,.1-1.3.3c-.4.2-.7.5-.9.9s-.4.8-.5,1.3c-.1.5-.2,1-.2,1.6Z"/>
          <path d="M511.7,118.8v10.4h-3.2v-13.3h3l.2,2.8ZM511.2,122.1h-1c0-1,.1-1.8.4-2.6s.6-1.5,1.1-2c.5-.6,1-1,1.7-1.3.6-.3,1.3-.5,2.1-.5s1.2,0,1.7.3c.5.2,1,.5,1.3.9.4.4.7.9.9,1.5.2.6.3,1.4.3,2.3v8.5h-3.3v-8.5c0-.6,0-1.1-.3-1.4-.2-.4-.4-.6-.8-.7-.3-.1-.7-.2-1.2-.2s-.9,0-1.3.3c-.4.2-.7.5-.9.8-.2.4-.4.8-.6,1.2s-.2,1-.2,1.5Z"/>
          <path d="M522,122.7v-.3c0-1,.1-1.9.4-2.8.2-.8.6-1.5,1-2.1.4-.6,1-1.1,1.6-1.4s1.4-.5,2.2-.5,1.5.2,2.1.5c.6.3,1.1.8,1.5,1.4s.8,1.3,1,2.1.4,1.7.6,2.7v.7c-.1.9-.3,1.8-.6,2.6s-.6,1.5-1,2.1-.9,1-1.5,1.4-1.3.5-2.1.5-1.5-.2-2.2-.5-1.2-.8-1.6-1.4-.8-1.3-1-2.1c-.2-.8-.4-1.7-.4-2.7ZM525.2,122.5v.3c0,.6,0,1.1.1,1.6s.3.9.5,1.3c.2.4.5.7.9.9.3.2.8.3,1.3.3s1.2-.1,1.6-.4.7-.7,1-1.2c.2-.5.4-1.1.4-1.7v-1.9c0-.5-.1-.9-.3-1.4-.1-.4-.3-.8-.6-1.1s-.5-.5-.9-.7c-.4-.2-.8-.3-1.3-.3s-.9.1-1.3.3c-.4.2-.6.5-.9.9s-.4.8-.5,1.3c-.1.5-.2,1.1-.2,1.6ZM530.5,126.4v-16h3.3v18.8h-2.9l-.3-2.8Z"/>
          <path d="M550.2,125.6c0-.3,0-.5-.2-.7-.1-.2-.4-.4-.8-.6-.4-.2-1-.4-1.8-.5-.7-.1-1.3-.3-1.9-.6s-1.1-.5-1.5-.8c-.4-.3-.7-.7-1-1.1-.2-.4-.3-.9-.3-1.5s.1-1.1.4-1.6.6-.9,1-1.3,1-.7,1.6-.9c.6-.2,1.4-.3,2.2-.3s2.1.2,2.9.6c.8.4,1.4.9,1.9,1.5.4.6.7,1.4.7,2.2h-3.2c0-.4,0-.7-.2-1-.2-.3-.4-.5-.7-.7s-.7-.3-1.2-.3-.8,0-1.1.2-.5.3-.7.6c-.2.2-.2.5-.2.8s0,.4.1.6c0,.2.2.3.4.5s.5.3.8.4c.3.1.8.2,1.3.3,1,.2,1.9.5,2.6.8.7.3,1.3.8,1.7,1.3.4.5.6,1.2.6,2s-.1,1.1-.4,1.6c-.3.5-.6.9-1.1,1.3-.5.4-1.1.6-1.7.8s-1.4.3-2.3.3c-1.2,0-2.2-.2-3.1-.7-.8-.4-1.5-1-1.9-1.7s-.7-1.4-.7-2.1h3.1c0,.5.2.9.4,1.2.3.3.6.5,1,.7.4.1.8.2,1.2.2s.9,0,1.2-.2.6-.3.8-.6c.2-.2.3-.5.3-.8Z"/>
          <path d="M561.8,129.5c-1,0-1.9-.2-2.7-.5-.8-.3-1.5-.8-2-1.4-.6-.6-1-1.3-1.3-2-.3-.8-.4-1.6-.4-2.5v-.5c0-1,.1-2,.4-2.8.3-.8.7-1.6,1.3-2.2.5-.6,1.2-1.1,1.9-1.4.8-.3,1.6-.5,2.5-.5s1.8.2,2.5.5c.7.3,1.3.8,1.8,1.3.5.6.8,1.3,1.1,2.1.2.8.4,1.7.4,2.6v1.4h-10.4v-2.2h7.2v-.2c0-.5-.1-1-.3-1.4-.2-.4-.5-.8-.8-1-.4-.3-.9-.4-1.5-.4s-.9.1-1.3.3c-.4.2-.7.5-.9.9-.2.4-.4.8-.5,1.4-.1.5-.2,1.1-.2,1.7v.5c0,.6,0,1.1.2,1.5.2.5.4.9.7,1.2.3.3.7.6,1.1.8.4.2.9.3,1.4.3s1.3-.1,1.8-.4c.6-.3,1-.7,1.4-1.2l1.6,1.7c-.3.4-.7.8-1.1,1.2-.5.4-1,.7-1.7.9s-1.4.3-2.3.3Z"/>
          <path d="M572.6,118.7v10.6h-3.2v-13.3h3.1l.2,2.7ZM576.6,115.9v3c-.2,0-.4,0-.7,0s-.4,0-.6,0c-.5,0-.9,0-1.3.2-.4.1-.7.3-.9.6-.2.3-.4.6-.6.9-.1.4-.2.8-.2,1.2h-.7c0-.9,0-1.7.3-2.4.2-.7.4-1.3.7-1.9.3-.5.7-1,1.2-1.3.5-.3,1.1-.4,1.7-.4s.4,0,.6,0c.2,0,.4,0,.5.1Z"/>
          <path d="M580.8,115.9l3.1,10.8v2.4c.1,0-2,0-2,0l-4.6-13.3h3.4ZM583,126.8l3.1-10.8h3.4l-4.6,13.3h-2.1v-2.5Z"/>
          <path d="M591.2,112.5c0-.5.2-.9.5-1.2.3-.3.8-.5,1.3-.5s1,.2,1.3.5c.3.3.5.7.5,1.2s-.2.9-.5,1.2c-.3.3-.8.5-1.3.5s-1-.2-1.3-.5c-.3-.3-.5-.7-.5-1.2ZM594.7,115.9v13.3h-3.3v-13.3h3.3Z"/>
          <path d="M603.2,126.9c.5,0,.9,0,1.2-.3.4-.2.6-.4.9-.8s.3-.7.3-1.1h3.1c0,.9-.3,1.7-.8,2.4-.5.7-1.1,1.3-2,1.7-.8.4-1.7.6-2.7.6s-1.9-.2-2.7-.5c-.8-.3-1.4-.8-1.9-1.4-.5-.6-.9-1.3-1.1-2.1-.2-.8-.4-1.7-.4-2.6v-.4c0-.9.1-1.8.4-2.6.2-.8.6-1.5,1.1-2.1s1.1-1.1,1.9-1.4,1.6-.5,2.7-.5,2,.2,2.8.6c.8.4,1.5,1,1.9,1.8s.7,1.7.7,2.7h-3.1c0-.5-.1-.9-.3-1.3s-.5-.7-.8-.9c-.4-.2-.8-.3-1.3-.3s-1,.1-1.4.3c-.4.2-.6.5-.8.9-.2.4-.3.8-.4,1.3,0,.5-.1,1-.1,1.5v.4c0,.5,0,1.1.1,1.5,0,.5.2.9.4,1.3.2.4.5.7.8.9.4.2.8.3,1.4.3Z"/>
          <path d="M616.8,129.5c-1,0-1.9-.2-2.7-.5-.8-.3-1.5-.8-2-1.4-.6-.6-1-1.3-1.3-2-.3-.8-.4-1.6-.4-2.5v-.5c0-1,.1-2,.4-2.8.3-.8.7-1.6,1.3-2.2s1.2-1.1,1.9-1.4c.8-.3,1.6-.5,2.5-.5s1.8.2,2.5.5c.7.3,1.3.8,1.8,1.3s.8,1.3,1.1,2.1c.2.8.4,1.7.4,2.6v1.4h-10.4v-2.2h7.2v-.2c0-.5-.1-1-.3-1.4-.2-.4-.5-.8-.8-1-.4-.3-.9-.4-1.5-.4s-.9.1-1.3.3c-.4.2-.6.5-.9.9-.2.4-.4.8-.5,1.4-.1.5-.2,1.1-.2,1.7v.5c0,.6,0,1.1.2,1.5.2.5.4.9.7,1.2.3.3.7.6,1.1.8.4.2.9.3,1.4.3s1.3-.1,1.8-.4c.6-.3,1-.7,1.4-1.2l1.6,1.7c-.3.4-.7.8-1.1,1.2s-1,.7-1.7.9c-.7.2-1.4.3-2.3.3Z"/>
          <path d="M633.9,118.5v15.8h-3.3v-18.4h3l.2,2.6ZM642.4,122.4v.3c0,1-.1,1.9-.3,2.7-.2.8-.6,1.5-1,2.1s-1,1.1-1.6,1.4c-.6.3-1.4.5-2.2.5s-1.5-.2-2.1-.5c-.6-.3-1.1-.8-1.5-1.3-.4-.6-.8-1.3-1-2-.2-.8-.4-1.6-.6-2.5v-.8c.1-1,.3-1.9.6-2.7.2-.8.6-1.5,1-2.1.4-.6.9-1,1.5-1.4.6-.3,1.3-.5,2.1-.5s1.6.2,2.2.5c.6.3,1.2.8,1.6,1.4.4.6.8,1.3,1,2.1.2.8.3,1.7.3,2.8ZM639.1,122.7v-.3c0-.6,0-1.1-.2-1.6s-.3-.9-.5-1.3c-.2-.4-.5-.7-.9-.9s-.8-.3-1.3-.3-.9,0-1.3.2c-.4.2-.7.4-.9.7-.2.3-.4.7-.5,1.1s-.2.9-.3,1.4v2c0,.6.2,1.1.4,1.6s.5.9.9,1.2c.4.3,1,.4,1.6.4s.9-.1,1.3-.3c.4-.2.6-.5.9-.9.2-.4.4-.8.5-1.3,0-.5.1-1,.1-1.6Z"/>
          <path d="M648,118.7v10.6h-3.2v-13.3h3.1l.2,2.7ZM652,115.9v3c-.2,0-.4,0-.7,0-.2,0-.4,0-.6,0-.5,0-.9,0-1.3.2s-.7.3-.9.6c-.2.3-.4.6-.6.9-.1.4-.2.8-.2,1.2h-.7c0-.9,0-1.7.3-2.4.2-.7.4-1.3.7-1.9.3-.5.7-1,1.2-1.3s1.1-.4,1.7-.4.4,0,.6,0c.2,0,.4,0,.5.1Z"/>
          <path d="M652.9,122.7v-.3c0-1,.1-1.9.4-2.7.3-.8.7-1.5,1.2-2.1.5-.6,1.2-1.1,2-1.4.8-.3,1.6-.5,2.6-.5s1.9.2,2.7.5c.8.3,1.4.8,2,1.4.5.6.9,1.3,1.2,2.1s.4,1.7.4,2.7v.3c0,1-.1,1.9-.4,2.7s-.7,1.5-1.2,2.1c-.5.6-1.2,1.1-2,1.4-.8.3-1.6.5-2.6.5s-1.9-.2-2.6-.5-1.4-.8-2-1.4c-.5-.6-.9-1.3-1.2-2.1-.3-.8-.4-1.7-.4-2.7ZM656.1,122.5v.3c0,.6,0,1.1.2,1.6.1.5.3,1,.5,1.3.2.4.5.7.9.9.4.2.8.3,1.4.3s1-.1,1.3-.3.7-.5.9-.9c.2-.4.4-.8.5-1.3.1-.5.2-1.1.2-1.6v-.3c0-.6,0-1.1-.2-1.6-.1-.5-.3-.9-.5-1.3s-.6-.7-.9-.9c-.4-.2-.8-.3-1.4-.3s-1,.1-1.3.3-.7.5-.9.9-.4.8-.5,1.3c-.1.5-.2,1-.2,1.6Z"/>
          <path d="M669.6,115.9l3.1,10.8v2.4c.1,0-2,0-2,0l-4.6-13.3h3.4ZM671.9,126.8l3.1-10.8h3.4l-4.6,13.3h-2.1v-2.5Z"/>
          <path d="M680,112.5c0-.5.2-.9.5-1.2.3-.3.8-.5,1.3-.5s1,.2,1.3.5c.3.3.5.7.5,1.2s-.2.9-.5,1.2c-.3.3-.8.5-1.3.5s-1-.2-1.3-.5c-.3-.3-.5-.7-.5-1.2ZM683.5,115.9v13.3h-3.3v-13.3h3.3Z"/>
          <path d="M686,122.7v-.3c0-1,.1-1.9.3-2.8.2-.8.6-1.5,1-2.1.5-.6,1-1.1,1.6-1.4.6-.3,1.4-.5,2.2-.5s1.5.2,2.1.5,1.1.8,1.5,1.4c.4.6.8,1.3,1,2.1.3.8.4,1.7.6,2.7v.7c-.1.9-.3,1.8-.6,2.6-.3.8-.6,1.5-1,2.1-.4.6-.9,1-1.5,1.4-.6.3-1.3.5-2.1.5s-1.5-.2-2.2-.5-1.2-.8-1.6-1.4-.8-1.3-1-2.1c-.2-.8-.3-1.7-.3-2.7ZM689.3,122.5v.3c0,.6,0,1.1.1,1.6,0,.5.3.9.5,1.3.2.4.5.7.9.9.3.2.8.3,1.3.3s1.2-.1,1.6-.4c.4-.3.7-.7,1-1.2.2-.5.4-1.1.4-1.7v-1.9c0-.5-.1-.9-.3-1.4-.1-.4-.3-.8-.6-1.1-.2-.3-.5-.5-.9-.7-.4-.2-.8-.3-1.3-.3s-.9.1-1.3.3c-.4.2-.6.5-.9.9s-.4.8-.5,1.3c-.1.5-.2,1.1-.2,1.6ZM694.6,126.4v-16h3.3v18.8h-2.9l-.3-2.8Z"/>
          <path d="M706.7,129.5c-1,0-1.9-.2-2.7-.5-.8-.3-1.5-.8-2-1.4-.6-.6-1-1.3-1.3-2-.3-.8-.4-1.6-.4-2.5v-.5c0-1,.1-2,.4-2.8.3-.8.7-1.6,1.3-2.2s1.2-1.1,1.9-1.4c.8-.3,1.6-.5,2.5-.5s1.8.2,2.5.5c.7.3,1.3.8,1.8,1.3s.8,1.3,1.1,2.1c.2.8.4,1.7.4,2.6v1.4h-10.4v-2.2h7.2v-.2c0-.5-.1-1-.3-1.4-.2-.4-.5-.8-.8-1-.4-.3-.9-.4-1.5-.4s-.9.1-1.3.3c-.4.2-.6.5-.9.9-.2.4-.4.8-.5,1.4-.1.5-.2,1.1-.2,1.7v.5c0,.6,0,1.1.2,1.5.2.5.4.9.7,1.2.3.3.7.6,1.1.8.4.2.9.3,1.4.3s1.3-.1,1.8-.4c.6-.3,1-.7,1.4-1.2l1.6,1.7c-.3.4-.7.8-1.1,1.2s-1,.7-1.7.9c-.7.2-1.4.3-2.3.3Z"/>
          <path d="M713.7,122.7v-.3c0-1,.1-1.9.3-2.8.2-.8.6-1.5,1-2.1.5-.6,1-1.1,1.6-1.4.6-.3,1.4-.5,2.2-.5s1.5.2,2.1.5,1.1.8,1.5,1.4c.4.6.8,1.3,1,2.1.3.8.4,1.7.6,2.7v.7c-.1.9-.3,1.8-.6,2.6-.3.8-.6,1.5-1,2.1-.4.6-.9,1-1.5,1.4-.6.3-1.3.5-2.1.5s-1.5-.2-2.2-.5-1.2-.8-1.6-1.4-.8-1.3-1-2.1c-.2-.8-.3-1.7-.3-2.7ZM717,122.5v.3c0,.6,0,1.1.1,1.6,0,.5.3.9.5,1.3.2.4.5.7.9.9.3.2.8.3,1.3.3s1.2-.1,1.6-.4c.4-.3.7-.7,1-1.2.2-.5.4-1.1.4-1.7v-1.9c0-.5-.1-.9-.3-1.4-.1-.4-.3-.8-.6-1.1-.2-.3-.5-.5-.9-.7-.4-.2-.8-.3-1.3-.3s-.9.1-1.3.3c-.4.2-.6.5-.9.9s-.4.8-.5,1.3c-.1.5-.2,1.1-.2,1.6ZM722.2,126.4v-16h3.3v18.8h-2.9l-.3-2.8Z"/>
          <path d="M734.6,110.4h3.3v15.9l-.3,2.9h-2.9v-18.8ZM746.4,122.4v.3c0,1-.1,1.9-.3,2.7-.2.8-.5,1.5-1,2.1s-1,1.1-1.6,1.4c-.6.3-1.4.5-2.3.5s-1.5-.2-2.1-.5c-.6-.3-1.1-.8-1.5-1.4-.4-.6-.7-1.3-1-2.1-.2-.8-.4-1.7-.6-2.6v-.7c.1-1,.3-1.8.6-2.6.2-.8.6-1.5,1-2.1.4-.6.9-1,1.5-1.4s1.3-.5,2.1-.5,1.6.2,2.3.5,1.2.8,1.6,1.4c.4.6.8,1.3,1,2.1.2.8.3,1.7.3,2.7ZM743.2,122.7v-.3c0-.6,0-1.1-.1-1.6s-.2-.9-.4-1.3c-.2-.4-.5-.7-.8-.9s-.8-.3-1.3-.3-.9,0-1.3.3-.7.4-.9.7c-.2.3-.4.7-.5,1.1s-.2.9-.3,1.3v1.9c0,.6.2,1.2.4,1.7.2.5.5.9,1,1.2.4.3,1,.4,1.6.4s1-.1,1.3-.3c.4-.2.6-.5.8-.9.2-.4.3-.8.4-1.3,0-.5.1-1.1.1-1.7Z"/>
          <path d="M750.8,115.9l3,9.8.5,3.4-2.2.4-4.8-13.6h3.5ZM752.5,127.7l3.6-11.8h3.5l-5.3,15.3c-.1.3-.3.7-.5,1.1-.2.4-.4.8-.8,1.1-.3.3-.7.6-1.2.9s-1.1.3-1.7.3-.6,0-.8,0c-.2,0-.5,0-.7-.2v-2.4c0,0,.2,0,.3,0,.1,0,.2,0,.3,0,.5,0,.9,0,1.2-.2.3-.1.6-.3.8-.5.2-.2.4-.6.5-.9l1-2.6Z"/>
          <path d="M778.1,123.3h3.4c0,1.2-.4,2.3-1,3.2-.6.9-1.4,1.6-2.4,2.2-1,.5-2.3.8-3.7.8s-2.1-.2-3-.6c-.9-.4-1.7-1-2.3-1.7s-1.1-1.6-1.5-2.7c-.3-1-.5-2.2-.5-3.5v-1.4c0-1.3.2-2.5.5-3.5s.8-1.9,1.5-2.7c.6-.7,1.4-1.3,2.3-1.7.9-.4,1.9-.6,3-.6s2.7.3,3.7.8c1,.5,1.8,1.3,2.3,2.2.6.9.9,2,1,3.2h-3.4c0-.8-.2-1.4-.5-1.9-.3-.5-.6-.9-1.2-1.2-.5-.3-1.2-.4-2-.4s-1.2.1-1.7.4c-.5.2-.9.6-1.2,1.1s-.6,1.1-.7,1.8c-.2.7-.2,1.6-.2,2.5v1.4c0,.9,0,1.7.2,2.4s.4,1.3.7,1.8c.3.5.7.9,1.2,1.1.5.3,1.1.4,1.8.4s1.5-.1,2-.4c.5-.3.9-.6,1.2-1.2.3-.5.4-1.1.5-1.9Z"/>
          <path d="M791.6,121.1v1.9s-2,0-2,0c-.5,0-1,0-1.3.2-.4.1-.7.2-.9.4-.2.2-.4.4-.6.7-.1.3-.2.6-.2.9s0,.6.2.9.4.5.7.6.6.2,1,.2c.6,0,1.1-.1,1.5-.4.4-.2.8-.5,1-.9.2-.3.4-.7.4-1l.9,1.4c-.1.3-.3.7-.5,1.1-.2.4-.5.7-.9,1.1-.4.3-.8.6-1.3.8-.5.2-1.1.3-1.8.3s-1.6-.2-2.3-.5c-.7-.3-1.2-.8-1.6-1.4-.4-.6-.6-1.3-.6-2s.1-1.3.4-1.9.7-1,1.2-1.4c.5-.4,1.2-.7,1.9-.8.8-.2,1.6-.3,2.6-.3h2.2ZM791.1,126.4v-6.1c0-.4,0-.8-.2-1.2-.2-.3-.4-.6-.7-.8s-.7-.3-1.2-.3-.8,0-1.1.2c-.3.1-.6.4-.7.6s-.3.6-.3.9h-3.3c0-.5.1-1.1.4-1.6.3-.5.6-.9,1.1-1.3.5-.4,1.1-.7,1.8-.9.7-.2,1.4-.3,2.3-.3s1.9.2,2.7.5c.8.3,1.4.8,1.9,1.5s.7,1.5.7,2.6v5.8c0,.7,0,1.2.1,1.7s.2.9.4,1.2v.2h-3.3c-.2-.3-.3-.8-.4-1.3s-.1-1-.1-1.5Z"/>
          <path d="M800.5,118.7v10.6h-3.2v-13.3h3.1l.2,2.7ZM804.6,115.9v3c-.2,0-.4,0-.7,0-.2,0-.4,0-.6,0-.5,0-.9,0-1.3.2s-.7.3-.9.6c-.2.3-.4.6-.6.9-.1.4-.2.8-.2,1.2h-.7c0-.9,0-1.7.3-2.4.2-.7.4-1.3.7-1.9.3-.5.7-1,1.2-1.3s1.1-.4,1.7-.4.4,0,.6,0c.2,0,.4,0,.5.1Z"/>
          <path d="M805.6,122.7v-.3c0-1,.1-1.9.3-2.8.2-.8.6-1.5,1-2.1.5-.6,1-1.1,1.6-1.4.6-.3,1.4-.5,2.2-.5s1.5.2,2.1.5,1.1.8,1.5,1.4c.4.6.8,1.3,1,2.1.3.8.4,1.7.6,2.7v.7c-.1.9-.3,1.8-.6,2.6-.3.8-.6,1.5-1,2.1-.4.6-.9,1-1.5,1.4-.6.3-1.3.5-2.1.5s-1.5-.2-2.2-.5-1.2-.8-1.6-1.4-.8-1.3-1-2.1c-.2-.8-.3-1.7-.3-2.7ZM808.8,122.5v.3c0,.6,0,1.1.1,1.6,0,.5.3.9.5,1.3.2.4.5.7.9.9.3.2.8.3,1.3.3s1.2-.1,1.6-.4c.4-.3.7-.7,1-1.2.2-.5.4-1.1.4-1.7v-1.9c0-.5-.1-.9-.3-1.4-.1-.4-.3-.8-.6-1.1-.2-.3-.5-.5-.9-.7-.4-.2-.8-.3-1.3-.3s-.9.1-1.3.3c-.4.2-.6.5-.9.9s-.4.8-.5,1.3c-.1.5-.2,1.1-.2,1.6ZM814.1,126.4v-16h3.3v18.8h-2.9l-.3-2.8Z"/>
          <path d="M826.2,129.5c-1,0-1.9-.2-2.7-.5-.8-.3-1.5-.8-2-1.4-.6-.6-1-1.3-1.3-2-.3-.8-.4-1.6-.4-2.5v-.5c0-1,.1-2,.4-2.8.3-.8.7-1.6,1.3-2.2s1.2-1.1,1.9-1.4c.8-.3,1.6-.5,2.5-.5s1.8.2,2.5.5c.7.3,1.3.8,1.8,1.3s.8,1.3,1.1,2.1c.2.8.4,1.7.4,2.6v1.4h-10.4v-2.2h7.2v-.2c0-.5-.1-1-.3-1.4-.2-.4-.5-.8-.8-1-.4-.3-.9-.4-1.5-.4s-.9.1-1.3.3c-.4.2-.6.5-.9.9-.2.4-.4.8-.5,1.4-.1.5-.2,1.1-.2,1.7v.5c0,.6,0,1.1.2,1.5.2.5.4.9.7,1.2.3.3.7.6,1.1.8.4.2.9.3,1.4.3s1.3-.1,1.8-.4c.6-.3,1-.7,1.4-1.2l1.6,1.7c-.3.4-.7.8-1.1,1.2s-1,.7-1.7.9c-.7.2-1.4.3-2.3.3Z"/>
          <path d="M841.6,121.1v1.9s-2,0-2,0c-.5,0-1,0-1.3.2-.4.1-.7.2-.9.4-.2.2-.4.4-.6.7-.1.3-.2.6-.2.9s0,.6.2.9.4.5.7.6.6.2,1,.2c.6,0,1.1-.1,1.5-.4.4-.2.8-.5,1-.9.2-.3.4-.7.4-1l.9,1.4c-.1.3-.3.7-.5,1.1-.2.4-.5.7-.9,1.1-.4.3-.8.6-1.3.8-.5.2-1.1.3-1.8.3s-1.6-.2-2.3-.5c-.7-.3-1.2-.8-1.6-1.4-.4-.6-.6-1.3-.6-2s.1-1.3.4-1.9.7-1,1.2-1.4c.5-.4,1.2-.7,1.9-.8.8-.2,1.6-.3,2.6-.3h2.2ZM841.1,126.4v-6.1c0-.4,0-.8-.2-1.2-.2-.3-.4-.6-.7-.8s-.7-.3-1.2-.3-.8,0-1.1.2c-.3.1-.6.4-.7.6s-.3.6-.3.9h-3.3c0-.5.1-1.1.4-1.6.3-.5.6-.9,1.1-1.3.5-.4,1.1-.7,1.8-.9.7-.2,1.4-.3,2.3-.3s1.9.2,2.7.5c.8.3,1.4.8,1.9,1.5s.7,1.5.7,2.6v5.8c0,.7,0,1.2.1,1.7s.2.9.4,1.2v.2h-3.3c-.2-.3-.3-.8-.4-1.3s-.1-1-.1-1.5Z"/>
          <path d="M850.7,110.4v18.8h-3.3v-18.8h3.3Z"/>
          <path d="M853.9,127.6c0-.5.2-.9.5-1.2.3-.3.8-.5,1.4-.5s1,.2,1.4.5c.3.3.5.7.5,1.2s-.2.9-.5,1.2c-.3.3-.8.5-1.4.5s-1-.2-1.4-.5c-.3-.3-.5-.7-.5-1.2Z"/>
          <path d="M880,111.4v2.7h-14.4v-2.7h14.4ZM874.5,111.4v17.9h-3.4v-17.9h3.4Z"/>
          <path d="M885.2,110.4v18.8h-3.3v-18.8h3.3ZM884.7,122.1h-1c0-.9.1-1.8.4-2.6.2-.8.6-1.5,1-2,.5-.6,1-1,1.6-1.3.6-.3,1.3-.5,2.1-.5s1.2,0,1.8.3c.5.2,1,.5,1.4.9.4.4.7.9.9,1.6.2.6.3,1.4.3,2.3v8.5h-3.3v-8.5c0-.6,0-1.1-.3-1.5-.2-.4-.4-.6-.8-.8-.3-.2-.7-.2-1.2-.2s-1,0-1.3.3c-.4.2-.7.5-.9.8-.2.4-.4.8-.5,1.2-.1.5-.2,1-.2,1.5Z"/>
          <path d="M902,129.5c-1,0-1.9-.2-2.7-.5-.8-.3-1.5-.8-2-1.4-.6-.6-1-1.3-1.3-2-.3-.8-.4-1.6-.4-2.5v-.5c0-1,.1-2,.4-2.8.3-.8.7-1.6,1.3-2.2s1.2-1.1,1.9-1.4c.8-.3,1.6-.5,2.5-.5s1.8.2,2.5.5c.7.3,1.3.8,1.8,1.3s.8,1.3,1.1,2.1c.2.8.4,1.7.4,2.6v1.4h-10.4v-2.2h7.2v-.2c0-.5-.1-1-.3-1.4-.2-.4-.5-.8-.8-1-.4-.3-.9-.4-1.5-.4s-.9.1-1.3.3c-.4.2-.6.5-.9.9-.2.4-.4.8-.5,1.4-.1.5-.2,1.1-.2,1.7v.5c0,.6,0,1.1.2,1.5.2.5.4.9.7,1.2.3.3.7.6,1.1.8.4.2.9.3,1.4.3s1.3-.1,1.8-.4c.6-.3,1-.7,1.4-1.2l1.6,1.7c-.3.4-.7.8-1.1,1.2s-1,.7-1.7.9c-.7.2-1.4.3-2.3.3Z"/>
          <path d="M911.6,115.9l3,9.8.5,3.4-2.2.4-4.8-13.6h3.5ZM913.3,127.7l3.6-11.8h3.5l-5.3,15.3c-.1.3-.3.7-.5,1.1-.2.4-.4.8-.8,1.1-.3.3-.7.6-1.2.9s-1.1.3-1.7.3-.6,0-.8,0c-.2,0-.5,0-.7-.2v-2.4c0,0,.2,0,.3,0,.1,0,.2,0,.3,0,.5,0,.9,0,1.2-.2.3-.1.6-.3.8-.5.2-.2.4-.6.5-.9l1-2.6Z"/>
        </g>
      </g>
      <g class="st1">
        <g class="st1">
          <path d="M222.1,148.6v15.8h-3.3v-18.4h3l.2,2.6ZM230.6,152.6v.3c0,1-.1,1.9-.3,2.7s-.6,1.5-1,2.1-1,1.1-1.6,1.4c-.6.3-1.4.5-2.2.5s-1.5-.2-2.1-.5c-.6-.3-1.1-.8-1.5-1.3s-.8-1.3-1-2c-.2-.8-.4-1.6-.6-2.5v-.8c.1-1,.3-1.9.6-2.7.2-.8.6-1.5,1-2.1s.9-1,1.5-1.4c.6-.3,1.3-.5,2.1-.5s1.6.2,2.2.5c.6.3,1.2.8,1.6,1.4.4.6.8,1.3,1,2.1s.3,1.7.3,2.8ZM227.3,152.8v-.3c0-.6,0-1.1-.2-1.6-.1-.5-.3-.9-.5-1.3-.2-.4-.5-.7-.9-.9-.4-.2-.8-.3-1.3-.3s-.9,0-1.3.2c-.4.2-.7.4-.9.7-.2.3-.4.7-.5,1.1s-.2.9-.3,1.4v2c0,.6.2,1.1.4,1.6.2.5.5.9.9,1.2.4.3,1,.4,1.6.4s.9-.1,1.3-.3c.4-.2.6-.5.9-.9.2-.4.4-.8.5-1.3,0-.5.1-1,.1-1.6Z"/>
          <path d="M236.2,148.8v10.6h-3.2v-13.3h3.1l.2,2.7ZM240.2,146v3c-.2,0-.4,0-.7,0-.2,0-.4,0-.6,0-.5,0-.9,0-1.3.2-.4.1-.7.3-.9.6-.2.3-.4.6-.6.9s-.2.8-.2,1.2h-.7c0-.9,0-1.7.3-2.4.2-.7.4-1.3.7-1.9s.7-1,1.2-1.3c.5-.3,1.1-.4,1.7-.4s.4,0,.6,0c.2,0,.4,0,.5.1Z"/>
          <path d="M241.1,152.8v-.3c0-1,.1-1.9.4-2.7.3-.8.7-1.5,1.2-2.1s1.2-1.1,2-1.4c.8-.3,1.6-.5,2.6-.5s1.9.2,2.7.5c.8.3,1.4.8,2,1.4s.9,1.3,1.2,2.1c.3.8.4,1.7.4,2.7v.3c0,1-.1,1.9-.4,2.7-.3.8-.7,1.5-1.2,2.1s-1.2,1.1-2,1.4c-.8.3-1.6.5-2.6.5s-1.9-.2-2.6-.5c-.8-.3-1.4-.8-2-1.4s-.9-1.3-1.2-2.1c-.3-.8-.4-1.7-.4-2.7ZM244.3,152.6v.3c0,.6,0,1.1.2,1.6.1.5.3,1,.5,1.3s.5.7.9.9.8.3,1.4.3,1-.1,1.4-.3c.4-.2.7-.5.9-.9.2-.4.4-.8.5-1.3.1-.5.2-1.1.2-1.6v-.3c0-.6,0-1.1-.2-1.6-.1-.5-.3-.9-.5-1.3-.2-.4-.6-.7-.9-.9-.4-.2-.8-.3-1.4-.3s-1,.1-1.3.3c-.4.2-.7.5-.9.9s-.4.8-.5,1.3c-.1.5-.2,1-.2,1.6Z"/>
          <path d="M257.8,146.1l3.1,10.8v2.4c.1,0-2,0-2,0l-4.6-13.3h3.4ZM260.1,156.9l3.1-10.8h3.4l-4.6,13.3h-2.1v-2.5Z"/>
          <path d="M268.2,142.6c0-.5.2-.9.5-1.2.3-.3.8-.5,1.3-.5s1,.2,1.3.5c.3.3.5.7.5,1.2s-.2.9-.5,1.2c-.3.3-.8.5-1.3.5s-1-.2-1.3-.5c-.3-.3-.5-.7-.5-1.2ZM271.7,146.1v13.3h-3.3v-13.3h3.3Z"/>
          <path d="M274.2,152.9v-.3c0-1,.1-1.9.4-2.8.2-.8.6-1.5,1-2.1.4-.6,1-1.1,1.6-1.4s1.4-.5,2.2-.5,1.5.2,2.1.5c.6.3,1.1.8,1.5,1.4s.8,1.3,1,2.1.4,1.7.6,2.7v.7c-.1.9-.3,1.8-.6,2.6s-.6,1.5-1,2.1-.9,1-1.5,1.4c-.6.3-1.3.5-2.1.5s-1.5-.2-2.2-.5c-.6-.3-1.2-.8-1.6-1.4-.4-.6-.8-1.3-1-2.1-.2-.8-.4-1.7-.4-2.7ZM277.5,152.6v.3c0,.6,0,1.1.1,1.6s.3.9.5,1.3c.2.4.5.7.9.9s.8.3,1.3.3,1.2-.1,1.6-.4.7-.7,1-1.2c.2-.5.4-1.1.4-1.7v-1.9c0-.5-.1-.9-.3-1.4-.1-.4-.3-.8-.6-1.1s-.5-.5-.9-.7c-.4-.2-.8-.3-1.3-.3s-.9.1-1.3.3-.6.5-.9.9c-.2.4-.4.8-.5,1.3-.1.5-.2,1.1-.2,1.6ZM282.8,156.5v-16h3.3v18.8h-2.9l-.3-2.8Z"/>
          <path d="M294.9,159.6c-1,0-1.9-.2-2.7-.5s-1.5-.8-2-1.4c-.6-.6-1-1.3-1.3-2-.3-.8-.4-1.6-.4-2.5v-.5c0-1,.1-2,.4-2.8.3-.8.7-1.6,1.3-2.2.5-.6,1.2-1.1,1.9-1.4.8-.3,1.6-.5,2.5-.5s1.8.2,2.5.5c.7.3,1.3.8,1.8,1.3.5.6.8,1.3,1.1,2.1.2.8.4,1.7.4,2.6v1.4h-10.4v-2.2h7.2v-.2c0-.5-.1-1-.3-1.4-.2-.4-.5-.8-.8-1-.4-.3-.9-.4-1.5-.4s-.9.1-1.3.3c-.4.2-.7.5-.9.9-.2.4-.4.8-.5,1.4-.1.5-.2,1.1-.2,1.7v.5c0,.6,0,1.1.2,1.5s.4.9.7,1.2c.3.3.7.6,1.1.8s.9.3,1.4.3,1.3-.1,1.8-.4c.6-.3,1-.7,1.4-1.2l1.6,1.7c-.3.4-.7.8-1.1,1.2-.5.4-1,.7-1.7.9-.7.2-1.4.4-2.3.4Z"/>
          <path d="M301.9,152.9v-.3c0-1,.1-1.9.4-2.8.2-.8.6-1.5,1-2.1.4-.6,1-1.1,1.6-1.4s1.4-.5,2.2-.5,1.5.2,2.1.5c.6.3,1.1.8,1.5,1.4s.8,1.3,1,2.1.4,1.7.6,2.7v.7c-.1.9-.3,1.8-.6,2.6s-.6,1.5-1,2.1-.9,1-1.5,1.4c-.6.3-1.3.5-2.1.5s-1.5-.2-2.2-.5c-.6-.3-1.2-.8-1.6-1.4-.4-.6-.8-1.3-1-2.1-.2-.8-.4-1.7-.4-2.7ZM305.2,152.6v.3c0,.6,0,1.1.1,1.6s.3.9.5,1.3c.2.4.5.7.9.9s.8.3,1.3.3,1.2-.1,1.6-.4.7-.7,1-1.2c.2-.5.4-1.1.4-1.7v-1.9c0-.5-.1-.9-.3-1.4-.1-.4-.3-.8-.6-1.1s-.5-.5-.9-.7c-.4-.2-.8-.3-1.3-.3s-.9.1-1.3.3-.6.5-.9.9c-.2.4-.4.8-.5,1.3-.1.5-.2,1.1-.2,1.6ZM310.4,156.5v-16h3.3v18.8h-2.9l-.3-2.8Z"/>
          <path d="M326.1,148.8v10.6h-3.2v-13.3h3.1l.2,2.7ZM325.6,152.2h-1c0-.9.1-1.8.3-2.6.2-.8.6-1.5,1-2,.4-.6,1-1,1.6-1.3.7-.3,1.4-.5,2.3-.5s1.1,0,1.6.3c.5.2.9.4,1.3.8.4.4.6.9.8,1.4s.3,1.3.3,2.1v8.9h-3.2v-8.5c0-.6,0-1.1-.3-1.5-.2-.4-.4-.6-.8-.7s-.7-.2-1.2-.2-.9.1-1.3.3c-.4.2-.7.5-.9.8-.2.4-.4.8-.5,1.2s-.2,1-.2,1.5ZM333.7,151.6l-1.3.2c0-.8.1-1.6.3-2.3.2-.7.5-1.4,1-1.9.4-.6,1-1,1.6-1.3.6-.3,1.4-.5,2.2-.5s1.2,0,1.8.3c.5.2,1,.5,1.4.9.4.4.7.9.9,1.5.2.6.3,1.4.3,2.3v8.5h-3.3v-8.5c0-.6,0-1.1-.3-1.5-.2-.3-.4-.6-.8-.7-.3-.1-.7-.2-1.2-.2s-.8,0-1.2.3c-.3.2-.6.4-.8.7-.2.3-.4.6-.5,1s-.2.8-.2,1.3Z"/>
          <path d="M346.8,146.1l3,9.8.5,3.4-2.2.4-4.8-13.6h3.5ZM348.6,157.9l3.6-11.8h3.5l-5.3,15.3c-.1.3-.3.7-.5,1.1s-.4.8-.8,1.1c-.3.3-.7.6-1.2.9-.5.2-1.1.3-1.7.3s-.6,0-.8,0-.5,0-.7-.2v-2.4c0,0,.2,0,.3,0,.1,0,.2,0,.3,0,.5,0,.9,0,1.2-.2.3-.1.6-.3.8-.5s.4-.6.5-.9l1-2.6Z"/>
          <path d="M364.5,155.7c0-.3,0-.5-.2-.7-.1-.2-.4-.4-.8-.6-.4-.2-1-.4-1.8-.5-.7-.1-1.3-.3-1.9-.6-.6-.2-1.1-.5-1.5-.8-.4-.3-.7-.7-1-1.1-.2-.4-.3-.9-.3-1.5s.1-1.1.4-1.6c.2-.5.6-.9,1-1.3s1-.7,1.6-.9c.6-.2,1.4-.3,2.2-.3s2.1.2,2.9.6,1.4.9,1.9,1.5c.4.6.7,1.4.7,2.2h-3.2c0-.4,0-.7-.2-1-.2-.3-.4-.5-.7-.7-.3-.2-.7-.3-1.2-.3s-.8,0-1.1.2c-.3.1-.5.3-.7.6s-.2.5-.2.8,0,.4.1.6c0,.2.2.3.4.5.2.1.5.3.8.4s.8.2,1.3.3c1,.2,1.9.5,2.6.8.7.3,1.3.8,1.7,1.3.4.5.6,1.2.6,2s-.1,1.1-.4,1.6c-.3.5-.6.9-1.1,1.3-.5.4-1.1.6-1.7.8s-1.4.3-2.3.3c-1.2,0-2.2-.2-3.1-.7-.8-.4-1.5-1-1.9-1.7s-.7-1.4-.7-2.1h3.1c0,.5.2.9.4,1.2s.6.5,1,.7c.4.1.8.2,1.2.2s.9,0,1.2-.2c.3-.1.6-.3.8-.6s.3-.5.3-.8Z"/>
          <path d="M376.1,159.6c-1,0-1.9-.2-2.7-.5s-1.5-.8-2-1.4c-.6-.6-1-1.3-1.3-2-.3-.8-.4-1.6-.4-2.5v-.5c0-1,.1-2,.4-2.8.3-.8.7-1.6,1.3-2.2.5-.6,1.2-1.1,1.9-1.4.8-.3,1.6-.5,2.5-.5s1.8.2,2.5.5c.7.3,1.3.8,1.8,1.3.5.6.8,1.3,1.1,2.1.2.8.4,1.7.4,2.6v1.4h-10.4v-2.2h7.2v-.2c0-.5-.1-1-.3-1.4-.2-.4-.5-.8-.8-1-.4-.3-.9-.4-1.5-.4s-.9.1-1.3.3c-.4.2-.7.5-.9.9-.2.4-.4.8-.5,1.4-.1.5-.2,1.1-.2,1.7v.5c0,.6,0,1.1.2,1.5s.4.9.7,1.2c.3.3.7.6,1.1.8s.9.3,1.4.3,1.3-.1,1.8-.4c.6-.3,1-.7,1.4-1.2l1.6,1.7c-.3.4-.7.8-1.1,1.2-.5.4-1,.7-1.7.9-.7.2-1.4.4-2.3.4Z"/>
          <path d="M387.1,140.5v18.8h-3.3v-18.8h3.3Z"/>
          <path d="M397.1,146.1v2.3h-8v-2.3h8ZM394.4,159.3h-3.3v-14.5c0-1,.2-1.8.6-2.5.4-.7.9-1.2,1.6-1.6.7-.4,1.5-.5,2.5-.5s.6,0,.9,0,.6,0,.9.2v2.5c-.2,0-.4,0-.6,0s-.4,0-.6,0c-.4,0-.8,0-1.1.2-.3.2-.5.4-.7.7-.2.3-.2.7-.2,1.1v14.5Z"/>
          <path d="M413.1,151.3v1.9s-2,0-2,0c-.5,0-1,0-1.3.2-.4.1-.7.2-.9.4-.2.2-.4.4-.6.7-.1.3-.2.6-.2.9s0,.6.2.9c.2.3.4.5.7.6.3.2.6.2,1,.2.6,0,1.1-.1,1.5-.3s.8-.5,1-.9c.2-.3.4-.7.4-1l.9,1.4c-.1.3-.3.7-.5,1.1s-.5.7-.9,1.1-.8.6-1.3.8-1.1.3-1.8.3-1.6-.2-2.3-.5c-.7-.3-1.2-.8-1.6-1.4s-.6-1.3-.6-2,.1-1.3.4-1.9c.3-.5.7-1,1.2-1.4s1.2-.7,1.9-.8c.8-.2,1.6-.3,2.6-.3h2.2ZM412.6,156.5v-6.1c0-.5,0-.8-.2-1.2s-.4-.6-.7-.8c-.3-.2-.7-.3-1.2-.3s-.8,0-1.1.2c-.3.1-.6.4-.7.6-.2.3-.3.6-.3.9h-3.3c0-.5.1-1.1.4-1.6s.6-.9,1.1-1.3,1.1-.7,1.8-.9c.7-.2,1.4-.3,2.3-.3s1.9.2,2.7.5c.8.3,1.4.8,1.9,1.5.5.7.7,1.5.7,2.6v5.8c0,.7,0,1.2.1,1.7,0,.5.2.9.4,1.2v.2h-3.3c-.2-.3-.3-.8-.4-1.3,0-.5-.1-1-.1-1.5Z"/>
          <path d="M422,148.9v10.4h-3.2v-13.3h3l.2,2.8ZM421.5,152.2h-1c0-1,.1-1.8.4-2.6s.6-1.5,1.1-2c.5-.6,1-1,1.7-1.3.6-.3,1.3-.5,2.1-.5s1.2,0,1.7.3,1,.5,1.3.9c.4.4.7.9.9,1.5.2.6.3,1.4.3,2.3v8.5h-3.3v-8.5c0-.6,0-1.1-.3-1.4-.2-.4-.4-.6-.8-.7-.3-.1-.7-.2-1.2-.2s-.9.1-1.3.3-.7.5-.9.8c-.2.4-.4.8-.6,1.2s-.2,1-.2,1.5Z"/>
          <path d="M432.3,152.9v-.3c0-1,.1-1.9.4-2.8.2-.8.6-1.5,1-2.1.4-.6,1-1.1,1.6-1.4s1.4-.5,2.2-.5,1.5.2,2.1.5c.6.3,1.1.8,1.5,1.4s.8,1.3,1,2.1.4,1.7.6,2.7v.7c-.1.9-.3,1.8-.6,2.6s-.6,1.5-1,2.1-.9,1-1.5,1.4c-.6.3-1.3.5-2.1.5s-1.5-.2-2.2-.5c-.6-.3-1.2-.8-1.6-1.4-.4-.6-.8-1.3-1-2.1-.2-.8-.4-1.7-.4-2.7ZM435.5,152.6v.3c0,.6,0,1.1.1,1.6s.3.9.5,1.3c.2.4.5.7.9.9s.8.3,1.3.3,1.2-.1,1.6-.4.7-.7,1-1.2c.2-.5.4-1.1.4-1.7v-1.9c0-.5-.1-.9-.3-1.4-.1-.4-.3-.8-.6-1.1s-.5-.5-.9-.7c-.4-.2-.8-.3-1.3-.3s-.9.1-1.3.3-.6.5-.9.9c-.2.4-.4.8-.5,1.3-.1.5-.2,1.1-.2,1.6ZM440.8,156.5v-16h3.3v18.8h-2.9l-.3-2.8Z"/>
          <path d="M456.5,148.8v10.6h-3.2v-13.3h3.1l.2,2.7ZM456,152.2h-1c0-.9.1-1.8.3-2.6.2-.8.6-1.5,1-2,.4-.6,1-1,1.6-1.3.7-.3,1.4-.5,2.3-.5s1.1,0,1.6.3c.5.2.9.4,1.3.8.4.4.6.9.8,1.4s.3,1.3.3,2.1v8.9h-3.2v-8.5c0-.6,0-1.1-.3-1.5-.2-.4-.4-.6-.8-.7s-.7-.2-1.2-.2-.9.1-1.3.3c-.4.2-.7.5-.9.8-.2.4-.4.8-.5,1.2s-.2,1-.2,1.5ZM464.1,151.6l-1.3.2c0-.8.1-1.6.3-2.3.2-.7.5-1.4,1-1.9.4-.6,1-1,1.6-1.3.6-.3,1.4-.5,2.2-.5s1.2,0,1.8.3c.5.2,1,.5,1.4.9.4.4.7.9.9,1.5.2.6.3,1.4.3,2.3v8.5h-3.3v-8.5c0-.6,0-1.1-.3-1.5-.2-.3-.4-.6-.8-.7-.3-.1-.7-.2-1.2-.2s-.8,0-1.2.3c-.3.2-.6.4-.8.7-.2.3-.4.6-.5,1s-.2.8-.2,1.3Z"/>
          <path d="M477.2,146.1l3,9.8.5,3.4-2.2.4-4.8-13.6h3.5ZM479,157.9l3.6-11.8h3.5l-5.3,15.3c-.1.3-.3.7-.5,1.1s-.4.8-.8,1.1c-.3.3-.7.6-1.2.9-.5.2-1.1.3-1.7.3s-.6,0-.8,0-.5,0-.7-.2v-2.4c0,0,.2,0,.3,0,.1,0,.2,0,.3,0,.5,0,.9,0,1.2-.2.3-.1.6-.3.8-.5s.4-.6.5-.9l1-2.6Z"/>
          <path d="M495.9,146.1l2.2,10.1.2,3.2h-2l-3.5-13.3h3.2ZM497.5,156.2l2.9-10.1h2.1l-.6,3.5-2.9,9.8h-1.8l.4-3.2ZM502.8,146.1l2.9,10,.4,3.3h-1.8l-3-9.8-.6-3.5h2.1ZM505.2,156l2.1-10h3.1l-3.5,13.3h-2l.2-3.3Z"/>
          <path d="M512.3,142.6c0-.5.2-.9.5-1.2.3-.3.8-.5,1.3-.5s1,.2,1.3.5c.3.3.5.7.5,1.2s-.2.9-.5,1.2c-.3.3-.8.5-1.3.5s-1-.2-1.3-.5c-.3-.3-.5-.7-.5-1.2ZM515.8,146.1v13.3h-3.3v-13.3h3.3Z"/>
          <path d="M525.8,146.1v2.3h-8v-2.3h8ZM523.1,159.3h-3.3v-14.5c0-1,.2-1.8.6-2.5.4-.7.9-1.2,1.6-1.6.7-.4,1.5-.5,2.5-.5s.6,0,.9,0,.6,0,.9.2v2.5c-.2,0-.4,0-.6,0s-.4,0-.6,0c-.4,0-.8,0-1.1.2-.3.2-.5.4-.7.7-.2.3-.2.7-.2,1.1v14.5Z"/>
          <path d="M533.5,159.6c-1,0-1.9-.2-2.7-.5s-1.5-.8-2-1.4c-.6-.6-1-1.3-1.3-2-.3-.8-.4-1.6-.4-2.5v-.5c0-1,.1-2,.4-2.8.3-.8.7-1.6,1.3-2.2.5-.6,1.2-1.1,1.9-1.4.8-.3,1.6-.5,2.5-.5s1.8.2,2.5.5c.7.3,1.3.8,1.8,1.3.5.6.8,1.3,1.1,2.1.2.8.4,1.7.4,2.6v1.4h-10.4v-2.2h7.2v-.2c0-.5-.1-1-.3-1.4-.2-.4-.5-.8-.8-1-.4-.3-.9-.4-1.5-.4s-.9.1-1.3.3c-.4.2-.7.5-.9.9-.2.4-.4.8-.5,1.4-.1.5-.2,1.1-.2,1.7v.5c0,.6,0,1.1.2,1.5s.4.9.7,1.2c.3.3.7.6,1.1.8s.9.3,1.4.3,1.3-.1,1.8-.4c.6-.3,1-.7,1.4-1.2l1.6,1.7c-.3.4-.7.8-1.1,1.2-.5.4-1,.7-1.7.9-.7.2-1.4.4-2.3.4Z"/>
          <path d="M553.2,159.6c-1,0-1.9-.2-2.7-.5s-1.5-.8-2-1.4c-.6-.6-1-1.3-1.3-2-.3-.8-.4-1.6-.4-2.5v-.5c0-1,.1-2,.4-2.8.3-.8.7-1.6,1.3-2.2.5-.6,1.2-1.1,1.9-1.4.8-.3,1.6-.5,2.5-.5s1.8.2,2.5.5c.7.3,1.3.8,1.8,1.3.5.6.8,1.3,1.1,2.1.2.8.4,1.7.4,2.6v1.4h-10.4v-2.2h7.2v-.2c0-.5-.1-1-.3-1.4-.2-.4-.5-.8-.8-1-.4-.3-.9-.4-1.5-.4s-.9.1-1.3.3c-.4.2-.7.5-.9.9-.2.4-.4.8-.5,1.4-.1.5-.2,1.1-.2,1.7v.5c0,.6,0,1.1.2,1.5s.4.9.7,1.2c.3.3.7.6,1.1.8s.9.3,1.4.3,1.3-.1,1.8-.4c.6-.3,1-.7,1.4-1.2l1.6,1.7c-.3.4-.7.8-1.1,1.2-.5.4-1,.7-1.7.9-.7.2-1.4.4-2.3.4Z"/>
          <path d="M563.3,146.1l2.4,4.2,2.4-4.2h3.5l-3.9,6.5,4.1,6.8h-3.5l-2.5-4.4-2.6,4.4h-3.5l4-6.8-3.9-6.5h3.5Z"/>
          <path d="M578.7,157c.5,0,.9,0,1.2-.3.4-.2.6-.4.9-.8s.3-.7.3-1.1h3.1c0,.9-.3,1.7-.8,2.4-.5.7-1.1,1.3-2,1.7-.8.4-1.7.6-2.7.6s-1.9-.2-2.7-.5-1.4-.8-1.9-1.4c-.5-.6-.9-1.3-1.1-2.1-.2-.8-.4-1.7-.4-2.6v-.4c0-.9.1-1.8.4-2.6.2-.8.6-1.5,1.1-2.1.5-.6,1.1-1.1,1.9-1.4s1.6-.5,2.7-.5,2,.2,2.8.6c.8.4,1.5,1,1.9,1.8.5.8.7,1.7.7,2.7h-3.1c0-.5-.1-.9-.3-1.3-.2-.4-.5-.7-.8-.9-.4-.2-.8-.3-1.3-.3s-1,.1-1.4.3c-.4.2-.6.5-.8.9-.2.4-.3.8-.4,1.3s-.1,1-.1,1.5v.4c0,.5,0,1.1.1,1.5,0,.5.2.9.4,1.3.2.4.5.7.8.9.4.2.8.3,1.4.3Z"/>
          <path d="M592.3,159.6c-1,0-1.9-.2-2.7-.5-.8-.3-1.5-.8-2-1.4-.6-.6-1-1.3-1.3-2-.3-.8-.4-1.6-.4-2.5v-.5c0-1,.1-2,.4-2.8.3-.8.7-1.6,1.3-2.2.5-.6,1.2-1.1,1.9-1.4.8-.3,1.6-.5,2.5-.5s1.8.2,2.5.5c.7.3,1.3.8,1.8,1.3.5.6.8,1.3,1.1,2.1s.4,1.7.4,2.6v1.4h-10.4v-2.2h7.2v-.2c0-.5-.1-1-.3-1.4-.2-.4-.5-.8-.8-1-.4-.3-.9-.4-1.5-.4s-.9.1-1.3.3c-.4.2-.6.5-.9.9-.2.4-.4.8-.5,1.4-.1.5-.2,1.1-.2,1.7v.5c0,.6,0,1.1.2,1.5s.4.9.7,1.2c.3.3.7.6,1.1.8s.9.3,1.4.3,1.3-.1,1.8-.4c.6-.3,1-.7,1.4-1.2l1.6,1.7c-.3.4-.7.8-1.1,1.2-.5.4-1,.7-1.7.9-.7.2-1.4.4-2.3.4Z"/>
          <path d="M603.1,148.6v15.8h-3.3v-18.4h3l.2,2.6ZM611.7,152.6v.3c0,1-.1,1.9-.3,2.7-.2.8-.6,1.5-1,2.1s-1,1.1-1.6,1.4c-.6.3-1.4.5-2.2.5s-1.5-.2-2.1-.5c-.6-.3-1.1-.8-1.5-1.3-.4-.6-.8-1.3-1-2-.2-.8-.4-1.6-.6-2.5v-.8c.1-1,.3-1.9.6-2.7.2-.8.6-1.5,1-2.1.4-.6.9-1,1.5-1.4.6-.3,1.3-.5,2.1-.5s1.6.2,2.2.5c.6.3,1.2.8,1.6,1.4.4.6.8,1.3,1,2.1s.3,1.7.3,2.8ZM608.4,152.8v-.3c0-.6,0-1.1-.2-1.6-.1-.5-.3-.9-.5-1.3-.2-.4-.5-.7-.9-.9s-.8-.3-1.3-.3-.9,0-1.3.2c-.4.2-.7.4-.9.7-.2.3-.4.7-.5,1.1s-.2.9-.3,1.4v2c0,.6.2,1.1.4,1.6.2.5.5.9.9,1.2.4.3,1,.4,1.6.4s.9-.1,1.3-.3.6-.5.9-.9.4-.8.5-1.3c0-.5.1-1,.1-1.6Z"/>
          <path d="M620.3,146.1v2.3h-7.6v-2.3h7.6ZM614.7,142.8h3.3v12.7c0,.4,0,.7.2.9.1.2.3.4.5.4.2,0,.5.1.8.1s.4,0,.6,0c.2,0,.3,0,.5,0v2.4c-.3,0-.6.2-.9.2-.3,0-.7,0-1.1,0-.7,0-1.4-.1-1.9-.4-.5-.2-1-.7-1.3-1.2-.3-.6-.5-1.3-.5-2.2v-13Z"/>
          <path d="M622.4,142.6c0-.5.2-.9.5-1.2.3-.3.8-.5,1.3-.5s1,.2,1.3.5.5.7.5,1.2-.2.9-.5,1.2-.8.5-1.3.5-1-.2-1.3-.5c-.3-.3-.5-.7-.5-1.2ZM625.9,146.1v13.3h-3.3v-13.3h3.3Z"/>
          <path d="M628.4,152.8v-.3c0-1,.1-1.9.4-2.7.3-.8.7-1.5,1.2-2.1.5-.6,1.2-1.1,2-1.4.8-.3,1.6-.5,2.6-.5s1.9.2,2.7.5c.8.3,1.4.8,2,1.4.5.6.9,1.3,1.2,2.1.3.8.4,1.7.4,2.7v.3c0,1-.1,1.9-.4,2.7-.3.8-.7,1.5-1.2,2.1-.5.6-1.2,1.1-2,1.4-.8.3-1.6.5-2.6.5s-1.9-.2-2.6-.5c-.8-.3-1.4-.8-2-1.4-.5-.6-.9-1.3-1.2-2.1-.3-.8-.4-1.7-.4-2.7ZM631.7,152.6v.3c0,.6,0,1.1.2,1.6.1.5.3,1,.5,1.3s.5.7.9.9c.4.2.8.3,1.4.3s1-.1,1.3-.3.7-.5.9-.9.4-.8.5-1.3c.1-.5.2-1.1.2-1.6v-.3c0-.6,0-1.1-.2-1.6-.1-.5-.3-.9-.5-1.3s-.6-.7-.9-.9c-.4-.2-.8-.3-1.4-.3s-1,.1-1.3.3c-.4.2-.7.5-.9.9s-.4.8-.5,1.3c-.1.5-.2,1-.2,1.6Z"/>
          <path d="M646.4,148.9v10.4h-3.2v-13.3h3l.2,2.8ZM645.9,152.2h-1c0-1,.1-1.8.4-2.6.3-.8.6-1.5,1.1-2s1-1,1.7-1.3c.6-.3,1.3-.5,2.1-.5s1.2,0,1.7.3c.5.2,1,.5,1.3.9.4.4.7.9.9,1.5s.3,1.4.3,2.3v8.5h-3.3v-8.5c0-.6,0-1.1-.3-1.4s-.4-.6-.8-.7-.7-.2-1.2-.2-.9.1-1.3.3c-.4.2-.7.5-.9.8-.2.4-.4.8-.6,1.2-.1.5-.2,1-.2,1.5Z"/>
          <path d="M665,151.3v1.9s-2,0-2,0c-.5,0-1,0-1.3.2-.4.1-.7.2-.9.4-.2.2-.4.4-.6.7-.1.3-.2.6-.2.9s0,.6.2.9.4.5.7.6.6.2,1,.2c.6,0,1.1-.1,1.5-.3.4-.2.8-.5,1-.9.2-.3.4-.7.4-1l.9,1.4c-.1.3-.3.7-.5,1.1-.2.4-.5.7-.9,1.1-.4.3-.8.6-1.3.8s-1.1.3-1.8.3-1.6-.2-2.3-.5-1.2-.8-1.6-1.4-.6-1.3-.6-2,.1-1.3.4-1.9c.3-.5.7-1,1.2-1.4.5-.4,1.2-.7,1.9-.8s1.6-.3,2.6-.3h2.2ZM664.6,156.5v-6.1c0-.5,0-.8-.2-1.2-.2-.3-.4-.6-.7-.8-.3-.2-.7-.3-1.2-.3s-.8,0-1.1.2-.6.4-.7.6-.3.6-.3.9h-3.3c0-.5.1-1.1.4-1.6s.6-.9,1.1-1.3,1.1-.7,1.8-.9c.7-.2,1.4-.3,2.3-.3s1.9.2,2.7.5c.8.3,1.4.8,1.9,1.5.5.7.7,1.5.7,2.6v5.8c0,.7,0,1.2.1,1.7,0,.5.2.9.4,1.2v.2h-3.3c-.2-.3-.3-.8-.4-1.3s-.1-1-.1-1.5Z"/>
          <path d="M674.2,140.5v18.8h-3.3v-18.8h3.3Z"/>
          <path d="M690.8,155.7c0-.3,0-.5-.2-.7-.1-.2-.4-.4-.8-.6-.4-.2-1-.4-1.8-.5-.7-.1-1.3-.3-1.9-.6-.6-.2-1.1-.5-1.5-.8-.4-.3-.7-.7-1-1.1-.2-.4-.3-.9-.3-1.5s.1-1.1.4-1.6c.2-.5.6-.9,1-1.3.4-.4,1-.7,1.6-.9s1.4-.3,2.2-.3,2.1.2,2.9.6c.8.4,1.4.9,1.9,1.5.4.6.7,1.4.7,2.2h-3.2c0-.4,0-.7-.2-1-.2-.3-.4-.5-.7-.7-.3-.2-.7-.3-1.2-.3s-.8,0-1.1.2c-.3.1-.5.3-.7.6s-.2.5-.2.8,0,.4.1.6c0,.2.2.3.4.5.2.1.5.3.8.4.3.1.8.2,1.3.3,1,.2,1.9.5,2.6.8s1.3.8,1.7,1.3c.4.5.6,1.2.6,2s-.1,1.1-.4,1.6c-.3.5-.6.9-1.1,1.3-.5.4-1.1.6-1.7.8-.7.2-1.4.3-2.3.3-1.2,0-2.2-.2-3.1-.7s-1.5-1-1.9-1.7-.7-1.4-.7-2.1h3.1c0,.5.2.9.4,1.2s.6.5,1,.7c.4.1.8.2,1.2.2s.9,0,1.2-.2c.3-.1.6-.3.8-.6s.3-.5.3-.8Z"/>
          <path d="M702.4,159.6c-1,0-1.9-.2-2.7-.5-.8-.3-1.5-.8-2-1.4-.6-.6-1-1.3-1.3-2-.3-.8-.4-1.6-.4-2.5v-.5c0-1,.1-2,.4-2.8.3-.8.7-1.6,1.3-2.2.5-.6,1.2-1.1,1.9-1.4.8-.3,1.6-.5,2.5-.5s1.8.2,2.5.5c.7.3,1.3.8,1.8,1.3.5.6.8,1.3,1.1,2.1s.4,1.7.4,2.6v1.4h-10.4v-2.2h7.2v-.2c0-.5-.1-1-.3-1.4-.2-.4-.5-.8-.8-1-.4-.3-.9-.4-1.5-.4s-.9.1-1.3.3c-.4.2-.6.5-.9.9-.2.4-.4.8-.5,1.4-.1.5-.2,1.1-.2,1.7v.5c0,.6,0,1.1.2,1.5s.4.9.7,1.2c.3.3.7.6,1.1.8s.9.3,1.4.3,1.3-.1,1.8-.4c.6-.3,1-.7,1.4-1.2l1.6,1.7c-.3.4-.7.8-1.1,1.2-.5.4-1,.7-1.7.9-.7.2-1.4.4-2.3.4Z"/>
          <path d="M713.2,148.8v10.6h-3.2v-13.3h3.1l.2,2.7ZM717.2,146v3c-.2,0-.4,0-.7,0-.2,0-.4,0-.6,0-.5,0-.9,0-1.3.2-.4.1-.7.3-.9.6-.2.3-.4.6-.6.9s-.2.8-.2,1.2h-.7c0-.9,0-1.7.3-2.4s.4-1.3.7-1.9.7-1,1.2-1.3,1.1-.4,1.7-.4.4,0,.6,0c.2,0,.4,0,.5.1Z"/>
          <path d="M721.4,146.1l3.1,10.8v2.4c.1,0-2,0-2,0l-4.6-13.3h3.4ZM723.6,156.9l3.1-10.8h3.4l-4.6,13.3h-2.1v-2.5Z"/>
          <path d="M731.8,142.6c0-.5.2-.9.5-1.2.3-.3.8-.5,1.3-.5s1,.2,1.3.5.5.7.5,1.2-.2.9-.5,1.2-.8.5-1.3.5-1-.2-1.3-.5c-.3-.3-.5-.7-.5-1.2ZM735.3,146.1v13.3h-3.3v-13.3h3.3Z"/>
          <path d="M743.8,157c.5,0,.9,0,1.2-.3s.6-.4.9-.8.3-.7.3-1.1h3.1c0,.9-.3,1.7-.8,2.4-.5.7-1.1,1.3-2,1.7-.8.4-1.7.6-2.7.6s-1.9-.2-2.7-.5-1.4-.8-1.9-1.4-.9-1.3-1.1-2.1c-.2-.8-.4-1.7-.4-2.6v-.4c0-.9.1-1.8.4-2.6.2-.8.6-1.5,1.1-2.1s1.1-1.1,1.9-1.4,1.6-.5,2.7-.5,2,.2,2.8.6c.8.4,1.5,1,1.9,1.8s.7,1.7.7,2.7h-3.1c0-.5-.1-.9-.3-1.3-.2-.4-.5-.7-.8-.9-.4-.2-.8-.3-1.3-.3s-1,.1-1.4.3c-.4.2-.6.5-.8.9-.2.4-.3.8-.4,1.3,0,.5-.1,1-.1,1.5v.4c0,.5,0,1.1.1,1.5,0,.5.2.9.4,1.3.2.4.5.7.8.9.4.2.8.3,1.4.3Z"/>
          <path d="M757.4,159.6c-1,0-1.9-.2-2.7-.5-.8-.3-1.5-.8-2-1.4-.6-.6-1-1.3-1.3-2-.3-.8-.4-1.6-.4-2.5v-.5c0-1,.1-2,.4-2.8.3-.8.7-1.6,1.3-2.2.5-.6,1.2-1.1,1.9-1.4.8-.3,1.6-.5,2.5-.5s1.8.2,2.5.5c.7.3,1.3.8,1.8,1.3.5.6.8,1.3,1.1,2.1s.4,1.7.4,2.6v1.4h-10.4v-2.2h7.2v-.2c0-.5-.1-1-.3-1.4-.2-.4-.5-.8-.8-1-.4-.3-.9-.4-1.5-.4s-.9.1-1.3.3c-.4.2-.6.5-.9.9-.2.4-.4.8-.5,1.4-.1.5-.2,1.1-.2,1.7v.5c0,.6,0,1.1.2,1.5s.4.9.7,1.2c.3.3.7.6,1.1.8s.9.3,1.4.3,1.3-.1,1.8-.4c.6-.3,1-.7,1.4-1.2l1.6,1.7c-.3.4-.7.8-1.1,1.2-.5.4-1,.7-1.7.9-.7.2-1.4.4-2.3.4Z"/>
          <path d="M779,151.3v1.9s-2,0-2,0c-.5,0-1,0-1.3.2-.4.1-.7.2-.9.4-.2.2-.4.4-.6.7-.1.3-.2.6-.2.9s0,.6.2.9.4.5.7.6.6.2,1,.2c.6,0,1.1-.1,1.5-.3.4-.2.8-.5,1-.9.2-.3.4-.7.4-1l.9,1.4c-.1.3-.3.7-.5,1.1-.2.4-.5.7-.9,1.1-.4.3-.8.6-1.3.8s-1.1.3-1.8.3-1.6-.2-2.3-.5-1.2-.8-1.6-1.4-.6-1.3-.6-2,.1-1.3.4-1.9c.3-.5.7-1,1.2-1.4.5-.4,1.2-.7,1.9-.8s1.6-.3,2.6-.3h2.2ZM778.5,156.5v-6.1c0-.5,0-.8-.2-1.2-.2-.3-.4-.6-.7-.8-.3-.2-.7-.3-1.2-.3s-.8,0-1.1.2-.6.4-.7.6-.3.6-.3.9h-3.3c0-.5.1-1.1.4-1.6s.6-.9,1.1-1.3,1.1-.7,1.8-.9c.7-.2,1.4-.3,2.3-.3s1.9.2,2.7.5c.8.3,1.4.8,1.9,1.5.5.7.7,1.5.7,2.6v5.8c0,.7,0,1.2.1,1.7,0,.5.2.9.4,1.2v.2h-3.3c-.2-.3-.3-.8-.4-1.3s-.1-1-.1-1.5Z"/>
          <path d="M787.9,148.9v10.4h-3.2v-13.3h3l.2,2.8ZM787.4,152.2h-1c0-1,.1-1.8.4-2.6.3-.8.6-1.5,1.1-2s1-1,1.7-1.3c.6-.3,1.3-.5,2.1-.5s1.2,0,1.7.3c.5.2,1,.5,1.3.9.4.4.7.9.9,1.5s.3,1.4.3,2.3v8.5h-3.3v-8.5c0-.6,0-1.1-.3-1.4s-.4-.6-.8-.7-.7-.2-1.2-.2-.9.1-1.3.3c-.4.2-.7.5-.9.8-.2.4-.4.8-.6,1.2-.1.5-.2,1-.2,1.5Z"/>
          <path d="M798.2,152.9v-.3c0-1,.1-1.9.3-2.8.2-.8.6-1.5,1-2.1.5-.6,1-1.1,1.6-1.4.6-.3,1.4-.5,2.2-.5s1.5.2,2.1.5c.6.3,1.1.8,1.5,1.4.4.6.8,1.3,1,2.1.3.8.4,1.7.6,2.7v.7c-.1.9-.3,1.8-.6,2.6-.3.8-.6,1.5-1,2.1-.4.6-.9,1-1.5,1.4-.6.3-1.3.5-2.1.5s-1.5-.2-2.2-.5c-.6-.3-1.2-.8-1.6-1.4-.4-.6-.8-1.3-1-2.1-.2-.8-.3-1.7-.3-2.7ZM801.4,152.6v.3c0,.6,0,1.1.1,1.6,0,.5.3.9.5,1.3.2.4.5.7.9.9s.8.3,1.3.3,1.2-.1,1.6-.4c.4-.3.7-.7,1-1.2.2-.5.4-1.1.4-1.7v-1.9c0-.5-.1-.9-.3-1.4-.1-.4-.3-.8-.6-1.1-.2-.3-.5-.5-.9-.7-.4-.2-.8-.3-1.3-.3s-.9.1-1.3.3c-.4.2-.6.5-.9.9-.2.4-.4.8-.5,1.3-.1.5-.2,1.1-.2,1.6ZM806.7,156.5v-16h3.3v18.8h-2.9l-.3-2.8Z"/>
          <path d="M826.9,151.3v1.9s-2,0-2,0c-.5,0-1,0-1.3.2-.4.1-.7.2-.9.4-.2.2-.4.4-.6.7-.1.3-.2.6-.2.9s0,.6.2.9.4.5.7.6.6.2,1,.2c.6,0,1.1-.1,1.5-.3.4-.2.8-.5,1-.9.2-.3.4-.7.4-1l.9,1.4c-.1.3-.3.7-.5,1.1-.2.4-.5.7-.9,1.1-.4.3-.8.6-1.3.8s-1.1.3-1.8.3-1.6-.2-2.3-.5-1.2-.8-1.6-1.4-.6-1.3-.6-2,.1-1.3.4-1.9c.3-.5.7-1,1.2-1.4.5-.4,1.2-.7,1.9-.8s1.6-.3,2.6-.3h2.2ZM826.5,156.5v-6.1c0-.5,0-.8-.2-1.2-.2-.3-.4-.6-.7-.8-.3-.2-.7-.3-1.2-.3s-.8,0-1.1.2-.6.4-.7.6-.3.6-.3.9h-3.3c0-.5.1-1.1.4-1.6s.6-.9,1.1-1.3,1.1-.7,1.8-.9c.7-.2,1.4-.3,2.3-.3s1.9.2,2.7.5c.8.3,1.4.8,1.9,1.5.5.7.7,1.5.7,2.6v5.8c0,.7,0,1.2.1,1.7,0,.5.2.9.4,1.2v.2h-3.3c-.2-.3-.3-.8-.4-1.3s-.1-1-.1-1.5Z"/>
          <path d="M842.1,148.8v10.6h-3.2v-13.3h3.1l.2,2.7ZM846.2,146v3c-.2,0-.4,0-.7,0-.2,0-.4,0-.6,0-.5,0-.9,0-1.3.2-.4.1-.7.3-.9.6-.2.3-.4.6-.6.9s-.2.8-.2,1.2h-.7c0-.9,0-1.7.3-2.4s.4-1.3.7-1.9.7-1,1.2-1.3,1.1-.4,1.7-.4.4,0,.6,0c.2,0,.4,0,.5.1Z"/>
          <path d="M853.7,159.6c-1,0-1.9-.2-2.7-.5-.8-.3-1.5-.8-2-1.4-.6-.6-1-1.3-1.3-2-.3-.8-.4-1.6-.4-2.5v-.5c0-1,.1-2,.4-2.8.3-.8.7-1.6,1.3-2.2.5-.6,1.2-1.1,1.9-1.4.8-.3,1.6-.5,2.5-.5s1.8.2,2.5.5c.7.3,1.3.8,1.8,1.3.5.6.8,1.3,1.1,2.1s.4,1.7.4,2.6v1.4h-10.4v-2.2h7.2v-.2c0-.5-.1-1-.3-1.4-.2-.4-.5-.8-.8-1-.4-.3-.9-.4-1.5-.4s-.9.1-1.3.3c-.4.2-.6.5-.9.9-.2.4-.4.8-.5,1.4-.1.5-.2,1.1-.2,1.7v.5c0,.6,0,1.1.2,1.5s.4.9.7,1.2c.3.3.7.6,1.1.8s.9.3,1.4.3,1.3-.1,1.8-.4c.6-.3,1-.7,1.4-1.2l1.6,1.7c-.3.4-.7.8-1.1,1.2-.5.4-1,.7-1.7.9-.7.2-1.4.4-2.3.4Z"/>
          <path d="M869,151.3v1.9s-2,0-2,0c-.5,0-1,0-1.3.2-.4.1-.7.2-.9.4-.2.2-.4.4-.6.7-.1.3-.2.6-.2.9s0,.6.2.9.4.5.7.6.6.2,1,.2c.6,0,1.1-.1,1.5-.3.4-.2.8-.5,1-.9.2-.3.4-.7.4-1l.9,1.4c-.1.3-.3.7-.5,1.1-.2.4-.5.7-.9,1.1-.4.3-.8.6-1.3.8s-1.1.3-1.8.3-1.6-.2-2.3-.5-1.2-.8-1.6-1.4-.6-1.3-.6-2,.1-1.3.4-1.9c.3-.5.7-1,1.2-1.4.5-.4,1.2-.7,1.9-.8s1.6-.3,2.6-.3h2.2ZM868.5,156.5v-6.1c0-.5,0-.8-.2-1.2-.2-.3-.4-.6-.7-.8-.3-.2-.7-.3-1.2-.3s-.8,0-1.1.2-.6.4-.7.6-.3.6-.3.9h-3.3c0-.5.1-1.1.4-1.6s.6-.9,1.1-1.3,1.1-.7,1.8-.9c.7-.2,1.4-.3,2.3-.3s1.9.2,2.7.5c.8.3,1.4.8,1.9,1.5.5.7.7,1.5.7,2.6v5.8c0,.7,0,1.2.1,1.7,0,.5.2.9.4,1.2v.2h-3.3c-.2-.3-.3-.8-.4-1.3s-.1-1-.1-1.5Z"/>
          <path d="M882,155.7c0-.3,0-.5-.2-.7-.1-.2-.4-.4-.8-.6-.4-.2-1-.4-1.8-.5-.7-.1-1.3-.3-1.9-.6-.6-.2-1.1-.5-1.5-.8-.4-.3-.7-.7-1-1.1-.2-.4-.3-.9-.3-1.5s.1-1.1.4-1.6c.2-.5.6-.9,1-1.3.4-.4,1-.7,1.6-.9s1.4-.3,2.2-.3,2.1.2,2.9.6c.8.4,1.4.9,1.9,1.5.4.6.7,1.4.7,2.2h-3.2c0-.4,0-.7-.2-1-.2-.3-.4-.5-.7-.7-.3-.2-.7-.3-1.2-.3s-.8,0-1.1.2c-.3.1-.5.3-.7.6s-.2.5-.2.8,0,.4.1.6c0,.2.2.3.4.5.2.1.5.3.8.4.3.1.8.2,1.3.3,1,.2,1.9.5,2.6.8s1.3.8,1.7,1.3c.4.5.6,1.2.6,2s-.1,1.1-.4,1.6c-.3.5-.6.9-1.1,1.3-.5.4-1.1.6-1.7.8-.7.2-1.4.3-2.3.3-1.2,0-2.2-.2-3.1-.7s-1.5-1-1.9-1.7-.7-1.4-.7-2.1h3.1c0,.5.2.9.4,1.2s.6.5,1,.7c.4.1.8.2,1.2.2s.9,0,1.2-.2c.3-.1.6-.3.8-.6s.3-.5.3-.8Z"/>
          <path d="M887.1,152.8v-.3c0-1,.1-1.9.4-2.7.3-.8.7-1.5,1.2-2.1.5-.6,1.2-1.1,2-1.4.8-.3,1.6-.5,2.6-.5s1.9.2,2.7.5c.8.3,1.4.8,2,1.4.5.6.9,1.3,1.2,2.1.3.8.4,1.7.4,2.7v.3c0,1-.1,1.9-.4,2.7-.3.8-.7,1.5-1.2,2.1-.5.6-1.2,1.1-2,1.4-.8.3-1.6.5-2.6.5s-1.9-.2-2.6-.5c-.8-.3-1.4-.8-2-1.4-.5-.6-.9-1.3-1.2-2.1-.3-.8-.4-1.7-.4-2.7ZM890.3,152.6v.3c0,.6,0,1.1.2,1.6.1.5.3,1,.5,1.3s.5.7.9.9c.4.2.8.3,1.4.3s1-.1,1.3-.3.7-.5.9-.9.4-.8.5-1.3c.1-.5.2-1.1.2-1.6v-.3c0-.6,0-1.1-.2-1.6-.1-.5-.3-.9-.5-1.3s-.6-.7-.9-.9c-.4-.2-.8-.3-1.4-.3s-1,.1-1.3.3c-.4.2-.7.5-.9.9s-.4.8-.5,1.3c-.1.5-.2,1-.2,1.6Z"/>
          <path d="M905,148.9v10.4h-3.2v-13.3h3l.2,2.8ZM904.5,152.2h-1c0-1,.1-1.8.4-2.6.3-.8.6-1.5,1.1-2s1-1,1.7-1.3c.6-.3,1.3-.5,2.1-.5s1.2,0,1.7.3c.5.2,1,.5,1.3.9.4.4.7.9.9,1.5s.3,1.4.3,2.3v8.5h-3.3v-8.5c0-.6,0-1.1-.3-1.4s-.4-.6-.8-.7-.7-.2-1.2-.2-.9.1-1.3.3c-.4.2-.7.5-.9.8-.2.4-.4.8-.6,1.2-.1.5-.2,1-.2,1.5Z"/>
          <path d="M923.7,151.3v1.9s-2,0-2,0c-.5,0-1,0-1.3.2-.4.1-.7.2-.9.4-.2.2-.4.4-.6.7-.1.3-.2.6-.2.9s0,.6.2.9.4.5.7.6.6.2,1,.2c.6,0,1.1-.1,1.5-.3.4-.2.8-.5,1-.9.2-.3.4-.7.4-1l.9,1.4c-.1.3-.3.7-.5,1.1-.2.4-.5.7-.9,1.1-.4.3-.8.6-1.3.8s-1.1.3-1.8.3-1.6-.2-2.3-.5-1.2-.8-1.6-1.4-.6-1.3-.6-2,.1-1.3.4-1.9c.3-.5.7-1,1.2-1.4.5-.4,1.2-.7,1.9-.8s1.6-.3,2.6-.3h2.2ZM923.2,156.5v-6.1c0-.5,0-.8-.2-1.2-.2-.3-.4-.6-.7-.8-.3-.2-.7-.3-1.2-.3s-.8,0-1.1.2-.6.4-.7.6-.3.6-.3.9h-3.3c0-.5.1-1.1.4-1.6s.6-.9,1.1-1.3,1.1-.7,1.8-.9c.7-.2,1.4-.3,2.3-.3s1.9.2,2.7.5c.8.3,1.4.8,1.9,1.5.5.7.7,1.5.7,2.6v5.8c0,.7,0,1.2.1,1.7,0,.5.2.9.4,1.2v.2h-3.3c-.2-.3-.3-.8-.4-1.3s-.1-1-.1-1.5Z"/>
          <path d="M929.4,140.5h3.3v15.9l-.3,2.9h-2.9v-18.8ZM941.2,152.6v.3c0,1-.1,1.9-.3,2.7s-.5,1.5-1,2.1c-.4.6-1,1.1-1.6,1.4-.6.3-1.4.5-2.3.5s-1.5-.2-2.1-.5c-.6-.3-1.1-.8-1.5-1.4-.4-.6-.7-1.3-1-2.1-.2-.8-.4-1.7-.6-2.6v-.7c.1-1,.3-1.8.6-2.6.2-.8.6-1.5,1-2.1.4-.6.9-1,1.5-1.4.6-.3,1.3-.5,2.1-.5s1.6.2,2.3.5c.7.3,1.2.8,1.6,1.4.4.6.8,1.3,1,2.1s.3,1.7.3,2.7ZM937.9,152.8v-.3c0-.6,0-1.1-.1-1.6s-.2-.9-.4-1.3c-.2-.4-.5-.7-.8-.9s-.8-.3-1.3-.3-.9,0-1.3.3-.7.4-.9.7c-.2.3-.4.7-.5,1.1s-.2.9-.3,1.3v1.9c0,.6.2,1.2.4,1.7.2.5.5.9,1,1.2.4.3,1,.4,1.6.4s1-.1,1.3-.3c.4-.2.6-.5.8-.9.2-.4.3-.8.4-1.3s.1-1.1.1-1.7Z"/>
          <path d="M947,140.5v18.8h-3.3v-18.8h3.3Z"/>
          <path d="M956,159.6c-1,0-1.9-.2-2.7-.5-.8-.3-1.5-.8-2-1.4-.6-.6-1-1.3-1.3-2-.3-.8-.4-1.6-.4-2.5v-.5c0-1,.1-2,.4-2.8.3-.8.7-1.6,1.3-2.2.5-.6,1.2-1.1,1.9-1.4.8-.3,1.6-.5,2.5-.5s1.8.2,2.5.5c.7.3,1.3.8,1.8,1.3.5.6.8,1.3,1.1,2.1s.4,1.7.4,2.6v1.4h-10.4v-2.2h7.2v-.2c0-.5-.1-1-.3-1.4-.2-.4-.5-.8-.8-1-.4-.3-.9-.4-1.5-.4s-.9.1-1.3.3c-.4.2-.6.5-.9.9-.2.4-.4.8-.5,1.4-.1.5-.2,1.1-.2,1.7v.5c0,.6,0,1.1.2,1.5s.4.9.7,1.2c.3.3.7.6,1.1.8s.9.3,1.4.3,1.3-.1,1.8-.4c.6-.3,1-.7,1.4-1.2l1.6,1.7c-.3.4-.7.8-1.1,1.2-.5.4-1,.7-1.7.9-.7.2-1.4.4-2.3.4Z"/>
        </g>
      </g>
      <g class="st1">
        <g class="st1">
          <path d="M212.6,178.7v15.8h-3.3v-18.4h3l.2,2.6ZM221.2,182.7v.3c0,1-.1,1.9-.3,2.7s-.6,1.5-1,2.1-1,1.1-1.6,1.4c-.6.3-1.4.5-2.2.5s-1.5-.2-2.1-.5c-.6-.3-1.1-.8-1.5-1.3s-.8-1.3-1-2c-.2-.8-.4-1.6-.6-2.5v-.8c.1-1,.3-1.9.6-2.7.2-.8.6-1.5,1-2.1s.9-1,1.5-1.4c.6-.3,1.3-.5,2.1-.5s1.6.2,2.2.5c.6.3,1.2.8,1.6,1.4.4.6.8,1.3,1,2.1s.3,1.7.3,2.8ZM217.9,182.9v-.3c0-.6,0-1.1-.2-1.6-.1-.5-.3-.9-.5-1.3-.2-.4-.5-.7-.9-.9-.4-.2-.8-.3-1.3-.3s-.9,0-1.3.2c-.4.2-.7.4-.9.7-.2.3-.4.7-.5,1.1s-.2.9-.3,1.4v2c0,.6.2,1.1.4,1.6.2.5.5.9.9,1.2.4.3,1,.4,1.6.4s.9-.1,1.3-.3c.4-.2.6-.5.9-.9.2-.4.4-.8.5-1.3,0-.5.1-1,.1-1.6Z"/>
          <path d="M226.8,178.9v10.6h-3.2v-13.3h3.1l.2,2.7ZM230.8,176.1v3c-.2,0-.4,0-.7,0-.2,0-.4,0-.6,0-.5,0-.9,0-1.3.2-.4.1-.7.3-.9.6-.2.3-.4.6-.6.9s-.2.8-.2,1.2h-.7c0-.9,0-1.7.3-2.4.2-.7.4-1.3.7-1.9s.7-1,1.2-1.3c.5-.3,1.1-.4,1.7-.4s.4,0,.6,0c.2,0,.4,0,.5.1Z"/>
          <path d="M232.6,172.7c0-.5.2-.9.5-1.2.3-.3.8-.5,1.3-.5s1,.2,1.3.5c.3.3.5.7.5,1.2s-.2.9-.5,1.2c-.3.3-.8.5-1.3.5s-1-.2-1.3-.5c-.3-.3-.5-.7-.5-1.2ZM236,176.2v13.3h-3.3v-13.3h3.3Z"/>
          <path d="M244.6,187.2c.5,0,.9,0,1.2-.3s.6-.4.9-.8c.2-.3.3-.7.3-1.1h3.1c0,.9-.3,1.7-.8,2.4-.5.7-1.1,1.3-2,1.7s-1.7.6-2.7.6-1.9-.2-2.7-.5-1.4-.8-1.9-1.4c-.5-.6-.9-1.3-1.1-2.1-.2-.8-.4-1.7-.4-2.6v-.4c0-.9.1-1.8.4-2.6.2-.8.6-1.5,1.1-2.1.5-.6,1.1-1.1,1.9-1.4s1.6-.5,2.7-.5,2,.2,2.8.6c.8.4,1.5,1,1.9,1.8.5.8.7,1.7.7,2.7h-3.1c0-.5-.1-.9-.3-1.3-.2-.4-.5-.7-.8-.9-.4-.2-.8-.3-1.3-.3s-1,.1-1.4.3c-.4.2-.6.5-.8.9-.2.4-.3.8-.4,1.3s-.1,1-.1,1.5v.4c0,.5,0,1.1.1,1.5,0,.5.2.9.4,1.3.2.4.5.7.8.9.4.2.8.3,1.4.3Z"/>
          <path d="M258.2,189.7c-1,0-1.9-.2-2.7-.5s-1.5-.8-2-1.4c-.6-.6-1-1.3-1.3-2-.3-.8-.4-1.6-.4-2.5v-.5c0-1,.1-2,.4-2.8.3-.8.7-1.6,1.3-2.2.5-.6,1.2-1.1,1.9-1.4.8-.3,1.6-.5,2.5-.5s1.8.2,2.5.5c.7.3,1.3.8,1.8,1.3.5.6.8,1.3,1.1,2.1.2.8.4,1.7.4,2.6v1.4h-10.4v-2.2h7.2v-.2c0-.5-.1-1-.3-1.4-.2-.4-.5-.8-.8-1-.4-.3-.9-.4-1.5-.4s-.9.1-1.3.3c-.4.2-.7.5-.9.9-.2.4-.4.8-.5,1.4-.1.5-.2,1.1-.2,1.7v.5c0,.6,0,1.1.2,1.5s.4.9.7,1.2c.3.3.7.6,1.1.8s.9.3,1.4.3,1.3-.1,1.8-.4c.6-.3,1-.7,1.4-1.2l1.6,1.7c-.3.4-.7.8-1.1,1.2-.5.4-1,.7-1.7.9-.7.2-1.4.4-2.3.4Z"/>
          <path d="M278.9,176.2v2.3h-8v-2.3h8ZM276.2,189.5h-3.3v-14.5c0-1,.2-1.8.6-2.5.4-.7.9-1.2,1.6-1.6.7-.4,1.5-.5,2.5-.5s.6,0,.9,0,.6,0,.9.2v2.5c-.2,0-.4,0-.6,0s-.4,0-.6,0c-.4,0-.8,0-1.1.2-.3.2-.5.4-.7.7-.2.3-.2.7-.2,1.1v14.5Z"/>
          <path d="M280.3,183v-.3c0-1,.1-1.9.4-2.7.3-.8.7-1.5,1.2-2.1s1.2-1.1,2-1.4c.8-.3,1.6-.5,2.6-.5s1.9.2,2.7.5c.8.3,1.4.8,2,1.4s.9,1.3,1.2,2.1c.3.8.4,1.7.4,2.7v.3c0,1-.1,1.9-.4,2.7-.3.8-.7,1.5-1.2,2.1s-1.2,1.1-2,1.4c-.8.3-1.6.5-2.6.5s-1.9-.2-2.6-.5c-.8-.3-1.4-.8-2-1.4s-.9-1.3-1.2-2.1c-.3-.8-.4-1.7-.4-2.7ZM283.6,182.7v.3c0,.6,0,1.1.2,1.6.1.5.3,1,.5,1.3s.5.7.9.9.8.3,1.4.3,1-.1,1.4-.3c.4-.2.7-.5.9-.9.2-.4.4-.8.5-1.3.1-.5.2-1.1.2-1.6v-.3c0-.6,0-1.1-.2-1.6-.1-.5-.3-.9-.5-1.3-.2-.4-.6-.7-.9-.9-.4-.2-.8-.3-1.4-.3s-1,.1-1.3.3c-.4.2-.7.5-.9.9s-.4.8-.5,1.3c-.1.5-.2,1-.2,1.6Z"/>
          <path d="M298.4,178.9v10.6h-3.2v-13.3h3.1l.2,2.7ZM302.4,176.1v3c-.2,0-.4,0-.7,0-.2,0-.4,0-.6,0-.5,0-.9,0-1.3.2-.4.1-.7.3-.9.6-.2.3-.4.6-.6.9s-.2.8-.2,1.2h-.7c0-.9,0-1.7.3-2.4.2-.7.4-1.3.7-1.9s.7-1,1.2-1.3c.5-.3,1.1-.4,1.7-.4s.4,0,.6,0c.2,0,.4,0,.5.1Z"/>
          <path d="M313.7,178.9v10.6h-3.2v-13.3h3.1l.2,2.7ZM313.2,182.3h-1c0-.9.1-1.8.3-2.6.2-.8.6-1.5,1-2,.4-.6,1-1,1.6-1.3.7-.3,1.4-.5,2.3-.5s1.1,0,1.6.3c.5.2.9.4,1.3.8.4.4.6.9.8,1.4s.3,1.3.3,2.1v8.9h-3.2v-8.5c0-.6,0-1.1-.3-1.5-.2-.4-.4-.6-.8-.7s-.7-.2-1.2-.2-.9.1-1.3.3c-.4.2-.7.5-.9.8-.2.4-.4.8-.5,1.2s-.2,1-.2,1.5ZM321.2,181.7l-1.3.2c0-.8.1-1.6.3-2.3.2-.7.5-1.4,1-1.9.4-.6,1-1,1.6-1.3.6-.3,1.4-.5,2.2-.5s1.2,0,1.8.3c.5.2,1,.5,1.4.9.4.4.7.9.9,1.5.2.6.3,1.4.3,2.3v8.5h-3.3v-8.5c0-.6,0-1.1-.3-1.5-.2-.3-.4-.6-.8-.7-.3-.1-.7-.2-1.2-.2s-.8,0-1.2.3c-.3.2-.6.4-.8.7-.2.3-.4.6-.5,1s-.2.8-.2,1.3Z"/>
          <path d="M334.4,176.2l3,9.8.5,3.4-2.2.4-4.8-13.6h3.5ZM336.1,188l3.6-11.8h3.5l-5.3,15.3c-.1.3-.3.7-.5,1.1s-.4.8-.8,1.1c-.3.3-.7.6-1.2.9-.5.2-1.1.3-1.7.3s-.6,0-.8,0-.5,0-.7-.2v-2.4c0,0,.2,0,.3,0,.1,0,.2,0,.3,0,.5,0,.9,0,1.2-.2.3-.1.6-.3.8-.5s.4-.6.5-.9l1-2.6Z"/>
          <path d="M362.9,186.9v2.6h-12.1v-2.2l5.8-6.3c.6-.7,1.1-1.3,1.4-1.8.4-.5.6-1,.8-1.4.2-.4.2-.8.2-1.2,0-.5,0-1-.3-1.4s-.5-.7-.9-1c-.4-.2-.8-.3-1.4-.3s-1.1.1-1.5.4c-.4.3-.7.7-1,1.1-.2.5-.3,1-.3,1.7h-3.3c0-1.1.2-2,.7-2.9.5-.9,1.2-1.6,2.1-2.1.9-.5,2-.8,3.3-.8s2.3.2,3.1.6,1.5,1,1.9,1.7c.4.7.7,1.6.7,2.7s0,1.1-.3,1.7c-.2.6-.5,1.1-.8,1.7-.3.5-.7,1.1-1.2,1.7-.5.6-1,1.1-1.6,1.7l-3.5,3.9h8Z"/>
          <path d="M377,179v3c0,1.4-.1,2.5-.4,3.5-.3,1-.7,1.8-1.2,2.4s-1.1,1.1-1.9,1.4c-.7.3-1.5.4-2.4.4s-1.4,0-2-.3c-.6-.2-1.2-.5-1.6-.9-.5-.4-.9-.9-1.3-1.5-.3-.6-.6-1.3-.8-2.2s-.3-1.8-.3-2.9v-3c0-1.4.1-2.5.4-3.5.3-1,.7-1.8,1.2-2.4s1.1-1.1,1.9-1.3c.7-.3,1.5-.4,2.4-.4s1.4,0,2,.3,1.2.5,1.6.8c.5.4.9.9,1.2,1.5.3.6.6,1.3.8,2.2.2.8.3,1.8.3,2.9ZM373.8,182.4v-3.9c0-.7,0-1.3-.1-1.8,0-.5-.2-.9-.3-1.3-.1-.4-.3-.7-.6-.9-.2-.2-.5-.4-.8-.5-.3-.1-.6-.2-.9-.2s-.8,0-1.1.3c-.3.2-.6.4-.8.8s-.4.8-.5,1.4c-.1.6-.2,1.3-.2,2.2v3.9c0,.7,0,1.3.1,1.8,0,.5.2,1,.3,1.3s.3.7.6.9.5.4.8.5c.3.1.6.2.9.2s.8,0,1.1-.3c.3-.2.6-.4.8-.8s.4-.9.5-1.5c.1-.6.2-1.3.2-2.2Z"/>
          <path d="M391.3,179v3c0,1.4-.1,2.5-.4,3.5-.3,1-.7,1.8-1.2,2.4s-1.1,1.1-1.9,1.4c-.7.3-1.5.4-2.4.4s-1.4,0-2-.3c-.6-.2-1.2-.5-1.6-.9-.5-.4-.9-.9-1.3-1.5-.3-.6-.6-1.3-.8-2.2s-.3-1.8-.3-2.9v-3c0-1.4.1-2.5.4-3.5.3-1,.7-1.8,1.2-2.4s1.1-1.1,1.9-1.3c.7-.3,1.5-.4,2.4-.4s1.4,0,2,.3,1.2.5,1.6.8c.5.4.9.9,1.2,1.5.3.6.6,1.3.8,2.2.2.8.3,1.8.3,2.9ZM388.1,182.4v-3.9c0-.7,0-1.3-.1-1.8,0-.5-.2-.9-.3-1.3-.1-.4-.3-.7-.6-.9-.2-.2-.5-.4-.8-.5-.3-.1-.6-.2-.9-.2s-.8,0-1.1.3c-.3.2-.6.4-.8.8s-.4.8-.5,1.4c-.1.6-.2,1.3-.2,2.2v3.9c0,.7,0,1.3.1,1.8,0,.5.2,1,.3,1.3s.3.7.6.9.5.4.8.5c.3.1.6.2.9.2s.8,0,1.1-.3c.3-.2.6-.4.8-.8s.4-.9.5-1.5c.1-.6.2-1.3.2-2.2Z"/>
          <path d="M406.3,182.9v2.6h-12.9v-2c-.1,0,7.4-11.9,7.4-11.9h2.6l-2.8,4.7-4.1,6.6h9.7ZM404.2,171.6v17.9h-3.3v-17.9h3.3Z"/>
          <path d="M422.2,184v-12.4h3.4v12.4c0,1.2-.3,2.2-.8,3-.5.8-1.2,1.5-2.1,1.9-.9.4-1.9.7-3,.7s-2.2-.2-3.1-.6c-.9-.4-1.6-1-2.1-1.8s-.8-1.8-.8-3.1h3.4c0,.7.1,1.2.3,1.6s.5.7.9.9c.4.2.8.3,1.3.3s.9-.1,1.3-.3c.4-.2.7-.6.9-1,.2-.4.3-1,.3-1.6Z"/>
          <path d="M434.6,189.7c-1,0-1.9-.2-2.7-.5s-1.5-.8-2-1.4c-.6-.6-1-1.3-1.3-2-.3-.8-.4-1.6-.4-2.5v-.5c0-1,.1-2,.4-2.8.3-.8.7-1.6,1.3-2.2.5-.6,1.2-1.1,1.9-1.4.8-.3,1.6-.5,2.5-.5s1.8.2,2.5.5c.7.3,1.3.8,1.8,1.3.5.6.8,1.3,1.1,2.1.2.8.4,1.7.4,2.6v1.4h-10.4v-2.2h7.2v-.2c0-.5-.1-1-.3-1.4-.2-.4-.5-.8-.8-1-.4-.3-.9-.4-1.5-.4s-.9.1-1.3.3c-.4.2-.7.5-.9.9-.2.4-.4.8-.5,1.4-.1.5-.2,1.1-.2,1.7v.5c0,.6,0,1.1.2,1.5s.4.9.7,1.2c.3.3.7.6,1.1.8s.9.3,1.4.3,1.3-.1,1.8-.4c.6-.3,1-.7,1.4-1.2l1.6,1.7c-.3.4-.7.8-1.1,1.2-.5.4-1,.7-1.7.9-.7.2-1.4.4-2.3.4Z"/>
          <path d="M448.1,189.7c-1,0-1.9-.2-2.7-.5s-1.5-.8-2-1.4c-.6-.6-1-1.3-1.3-2-.3-.8-.4-1.6-.4-2.5v-.5c0-1,.1-2,.4-2.8.3-.8.7-1.6,1.3-2.2.5-.6,1.2-1.1,1.9-1.4.8-.3,1.6-.5,2.5-.5s1.8.2,2.5.5c.7.3,1.3.8,1.8,1.3.5.6.8,1.3,1.1,2.1.2.8.4,1.7.4,2.6v1.4h-10.4v-2.2h7.2v-.2c0-.5-.1-1-.3-1.4-.2-.4-.5-.8-.8-1-.4-.3-.9-.4-1.5-.4s-.9.1-1.3.3c-.4.2-.7.5-.9.9-.2.4-.4.8-.5,1.4-.1.5-.2,1.1-.2,1.7v.5c0,.6,0,1.1.2,1.5s.4.9.7,1.2c.3.3.7.6,1.1.8s.9.3,1.4.3,1.3-.1,1.8-.4c.6-.3,1-.7,1.4-1.2l1.6,1.7c-.3.4-.7.8-1.1,1.2-.5.4-1,.7-1.7.9-.7.2-1.4.4-2.3.4Z"/>
          <path d="M458.9,178.7v15.8h-3.3v-18.4h3l.2,2.6ZM467.5,182.7v.3c0,1-.1,1.9-.3,2.7s-.6,1.5-1,2.1-1,1.1-1.6,1.4c-.6.3-1.4.5-2.2.5s-1.5-.2-2.1-.5c-.6-.3-1.1-.8-1.5-1.3s-.8-1.3-1-2c-.2-.8-.4-1.6-.6-2.5v-.8c.1-1,.3-1.9.6-2.7.2-.8.6-1.5,1-2.1s.9-1,1.5-1.4c.6-.3,1.3-.5,2.1-.5s1.6.2,2.2.5c.6.3,1.2.8,1.6,1.4.4.6.8,1.3,1,2.1s.3,1.7.3,2.8ZM464.2,182.9v-.3c0-.6,0-1.1-.2-1.6-.1-.5-.3-.9-.5-1.3-.2-.4-.5-.7-.9-.9-.4-.2-.8-.3-1.3-.3s-.9,0-1.3.2c-.4.2-.7.4-.9.7-.2.3-.4.7-.5,1.1s-.2.9-.3,1.4v2c0,.6.2,1.1.4,1.6.2.5.5.9.9,1.2.4.3,1,.4,1.6.4s.9-.1,1.3-.3c.4-.2.6-.5.9-.9.2-.4.4-.8.5-1.3,0-.5.1-1,.1-1.6Z"/>
          <path d="M486.8,183.6h3.4c0,1.2-.4,2.3-1,3.2-.6.9-1.4,1.6-2.4,2.2-1,.5-2.3.8-3.7.8s-2.1-.2-3-.6-1.7-1-2.3-1.7-1.1-1.6-1.5-2.7-.5-2.2-.5-3.5v-1.4c0-1.3.2-2.5.5-3.5.3-1,.8-1.9,1.5-2.7.6-.7,1.4-1.3,2.3-1.7.9-.4,1.9-.6,3-.6s2.7.3,3.7.8c1,.5,1.8,1.3,2.3,2.2s.9,2,1,3.2h-3.4c0-.8-.2-1.4-.5-1.9-.3-.5-.6-.9-1.2-1.2-.5-.3-1.2-.4-2-.4s-1.2.1-1.7.4c-.5.2-.9.6-1.2,1.1-.3.5-.6,1.1-.7,1.8s-.2,1.6-.2,2.5v1.4c0,.9,0,1.7.2,2.4.1.7.4,1.3.7,1.8.3.5.7.9,1.2,1.1s1.1.4,1.8.4,1.5-.1,2-.4c.5-.3.9-.6,1.2-1.2s.4-1.1.5-1.9Z"/>
          <path d="M495.7,170.6v18.8h-3.3v-18.8h3.3ZM495.2,182.3h-1c0-.9.1-1.8.4-2.6s.6-1.5,1-2c.4-.6,1-1,1.6-1.3.6-.3,1.3-.5,2.1-.5s1.2,0,1.8.3c.5.2,1,.5,1.4.9.4.4.7.9.9,1.6.2.6.3,1.4.3,2.3v8.5h-3.3v-8.5c0-.6,0-1.1-.3-1.5s-.4-.6-.8-.8c-.3-.2-.7-.2-1.2-.2s-1,.1-1.3.3c-.4.2-.7.5-.9.8s-.4.8-.5,1.2-.2,1-.2,1.5Z"/>
          <path d="M512.5,189.7c-1,0-1.9-.2-2.7-.5s-1.5-.8-2-1.4c-.6-.6-1-1.3-1.3-2-.3-.8-.4-1.6-.4-2.5v-.5c0-1,.1-2,.4-2.8.3-.8.7-1.6,1.3-2.2.5-.6,1.2-1.1,1.9-1.4.8-.3,1.6-.5,2.5-.5s1.8.2,2.5.5c.7.3,1.3.8,1.8,1.3.5.6.8,1.3,1.1,2.1.2.8.4,1.7.4,2.6v1.4h-10.4v-2.2h7.2v-.2c0-.5-.1-1-.3-1.4-.2-.4-.5-.8-.8-1-.4-.3-.9-.4-1.5-.4s-.9.1-1.3.3c-.4.2-.7.5-.9.9-.2.4-.4.8-.5,1.4-.1.5-.2,1.1-.2,1.7v.5c0,.6,0,1.1.2,1.5s.4.9.7,1.2c.3.3.7.6,1.1.8s.9.3,1.4.3,1.3-.1,1.8-.4c.6-.3,1-.7,1.4-1.2l1.6,1.7c-.3.4-.7.8-1.1,1.2-.5.4-1,.7-1.7.9-.7.2-1.4.4-2.3.4Z"/>
          <path d="M523.3,178.9v10.6h-3.2v-13.3h3.1l.2,2.7ZM527.3,176.1v3c-.2,0-.4,0-.7,0-.2,0-.4,0-.6,0-.5,0-.9,0-1.3.2-.4.1-.7.3-.9.6-.2.3-.4.6-.6.9s-.2.8-.2,1.2h-.7c0-.9,0-1.7.3-2.4.2-.7.4-1.3.7-1.9s.7-1,1.2-1.3c.5-.3,1.1-.4,1.7-.4s.4,0,.6,0c.2,0,.4,0,.5.1Z"/>
          <path d="M528.2,183v-.3c0-1,.1-1.9.4-2.7.3-.8.7-1.5,1.2-2.1s1.2-1.1,2-1.4c.8-.3,1.6-.5,2.6-.5s1.9.2,2.7.5c.8.3,1.4.8,2,1.4s.9,1.3,1.2,2.1c.3.8.4,1.7.4,2.7v.3c0,1-.1,1.9-.4,2.7-.3.8-.7,1.5-1.2,2.1s-1.2,1.1-2,1.4c-.8.3-1.6.5-2.6.5s-1.9-.2-2.6-.5c-.8-.3-1.4-.8-2-1.4s-.9-1.3-1.2-2.1c-.3-.8-.4-1.7-.4-2.7ZM531.4,182.7v.3c0,.6,0,1.1.2,1.6.1.5.3,1,.5,1.3s.5.7.9.9.8.3,1.4.3,1-.1,1.4-.3c.4-.2.7-.5.9-.9.2-.4.4-.8.5-1.3.1-.5.2-1.1.2-1.6v-.3c0-.6,0-1.1-.2-1.6-.1-.5-.3-.9-.5-1.3-.2-.4-.6-.7-.9-.9-.4-.2-.8-.3-1.4-.3s-1,.1-1.3.3c-.4.2-.7.5-.9.9s-.4.8-.5,1.3c-.1.5-.2,1-.2,1.6Z"/>
          <path d="M546.2,170.6v18.9h-3.2v-18.9h3.2ZM554.5,176.2l-5.8,6.5-3.1,3.2-1-2.5,2.4-3,3.6-4.1h3.9ZM551.2,189.5l-4.1-6.2,2.2-2.1,5.7,8.3h-3.8Z"/>
          <path d="M561.9,189.7c-1,0-1.9-.2-2.7-.5s-1.5-.8-2-1.4c-.6-.6-1-1.3-1.3-2-.3-.8-.4-1.6-.4-2.5v-.5c0-1,.1-2,.4-2.8.3-.8.7-1.6,1.3-2.2.5-.6,1.2-1.1,1.9-1.4.8-.3,1.6-.5,2.5-.5s1.8.2,2.5.5c.7.3,1.3.8,1.8,1.3.5.6.8,1.3,1.1,2.1.2.8.4,1.7.4,2.6v1.4h-10.4v-2.2h7.2v-.2c0-.5-.1-1-.3-1.4-.2-.4-.5-.8-.8-1-.4-.3-.9-.4-1.5-.4s-.9.1-1.3.3c-.4.2-.7.5-.9.9-.2.4-.4.8-.5,1.4-.1.5-.2,1.1-.2,1.7v.5c0,.6,0,1.1.2,1.5s.4.9.7,1.2c.3.3.7.6,1.1.8s.9.3,1.4.3,1.3-.1,1.8-.4c.6-.3,1-.7,1.4-1.2l1.6,1.7c-.3.4-.7.8-1.1,1.2-.5.4-1,.7-1.7.9-.7.2-1.4.4-2.3.4Z"/>
          <path d="M575.5,189.7c-1,0-1.9-.2-2.7-.5s-1.5-.8-2-1.4c-.6-.6-1-1.3-1.3-2-.3-.8-.4-1.6-.4-2.5v-.5c0-1,.1-2,.4-2.8.3-.8.7-1.6,1.3-2.2.5-.6,1.2-1.1,1.9-1.4.8-.3,1.6-.5,2.5-.5s1.8.2,2.5.5c.7.3,1.3.8,1.8,1.3.5.6.8,1.3,1.1,2.1.2.8.4,1.7.4,2.6v1.4h-10.4v-2.2h7.2v-.2c0-.5-.1-1-.3-1.4-.2-.4-.5-.8-.8-1-.4-.3-.9-.4-1.5-.4s-.9.1-1.3.3c-.4.2-.7.5-.9.9-.2.4-.4.8-.5,1.4-.1.5-.2,1.1-.2,1.7v.5c0,.6,0,1.1.2,1.5s.4.9.7,1.2c.3.3.7.6,1.1.8s.9.3,1.4.3,1.3-.1,1.8-.4c.6-.3,1-.7,1.4-1.2l1.6,1.7c-.3.4-.7.8-1.1,1.2-.5.4-1,.7-1.7.9-.7.2-1.4.4-2.3.4Z"/>
          <path d="M583.2,187.9c0-.5.2-.9.5-1.2.3-.3.8-.5,1.4-.5s1,.2,1.4.5c.3.3.5.7.5,1.2s-.2.9-.5,1.2c-.3.3-.8.5-1.4.5s-1-.2-1.4-.5c-.3-.3-.5-.7-.5-1.2Z"/>
          <path d="M598.8,171.6l2.9,14.4v3.5h-2.2l-4-17.9h3.3ZM601,186l3.6-14.4h1.9v3c.1,0-3.7,14.8-3.7,14.8h-2l.2-3.4ZM607.5,171.6l3.6,14.5.2,3.4h-2l-3.8-14.8v-3h2.1ZM610.3,185.9l2.9-14.3h3.4l-4,17.9h-2.2v-3.5Z"/>
          <path d="M621.6,170.6v18.8h-3.3v-18.8h3.3ZM621.1,182.3h-1c0-.9.1-1.8.4-2.6.2-.8.6-1.5,1-2,.5-.6,1-1,1.6-1.3.6-.3,1.3-.5,2.1-.5s1.2,0,1.8.3c.5.2,1,.5,1.4.9.4.4.7.9.9,1.6.2.6.3,1.4.3,2.3v8.5h-3.3v-8.5c0-.6,0-1.1-.3-1.5-.2-.4-.4-.6-.8-.8-.3-.2-.7-.2-1.2-.2s-1,.1-1.3.3-.7.5-.9.8c-.2.4-.4.8-.5,1.2-.1.5-.2,1-.2,1.5Z"/>
          <path d="M638.5,189.7c-1,0-1.9-.2-2.7-.5-.8-.3-1.5-.8-2-1.4-.6-.6-1-1.3-1.3-2-.3-.8-.4-1.6-.4-2.5v-.5c0-1,.1-2,.4-2.8.3-.8.7-1.6,1.3-2.2.5-.6,1.2-1.1,1.9-1.4.8-.3,1.6-.5,2.5-.5s1.8.2,2.5.5c.7.3,1.3.8,1.8,1.3.5.6.8,1.3,1.1,2.1s.4,1.7.4,2.6v1.4h-10.4v-2.2h7.2v-.2c0-.5-.1-1-.3-1.4-.2-.4-.5-.8-.8-1-.4-.3-.9-.4-1.5-.4s-.9.1-1.3.3c-.4.2-.6.5-.9.9-.2.4-.4.8-.5,1.4-.1.5-.2,1.1-.2,1.7v.5c0,.6,0,1.1.2,1.5s.4.9.7,1.2c.3.3.7.6,1.1.8s.9.3,1.4.3,1.3-.1,1.8-.4c.6-.3,1-.7,1.4-1.2l1.6,1.7c-.3.4-.7.8-1.1,1.2-.5.4-1,.7-1.7.9-.7.2-1.4.4-2.3.4Z"/>
          <path d="M649.2,179v10.4h-3.2v-13.3h3l.2,2.8ZM648.7,182.3h-1c0-1,.1-1.8.4-2.6.3-.8.6-1.5,1.1-2s1-1,1.7-1.3c.6-.3,1.3-.5,2.1-.5s1.2,0,1.7.3c.5.2,1,.5,1.3.9.4.4.7.9.9,1.5s.3,1.4.3,2.3v8.5h-3.3v-8.5c0-.6,0-1.1-.3-1.4s-.4-.6-.8-.7-.7-.2-1.2-.2-.9.1-1.3.3c-.4.2-.7.5-.9.8-.2.4-.4.8-.6,1.2-.1.5-.2,1-.2,1.5Z"/>
          <path d="M668.4,176.2l2.2,10.1.2,3.2h-2l-3.5-13.3h3.2ZM670,186.3l2.9-10.1h2.1l-.6,3.5-2.9,9.8h-1.8l.4-3.2ZM675.3,176.2l2.9,10,.4,3.3h-1.8l-3-9.8-.6-3.5h2.1ZM677.7,186.1l2.1-10h3.1l-3.5,13.3h-2l.2-3.3Z"/>
          <path d="M690.8,189.7c-1,0-1.9-.2-2.7-.5-.8-.3-1.5-.8-2-1.4-.6-.6-1-1.3-1.3-2-.3-.8-.4-1.6-.4-2.5v-.5c0-1,.1-2,.4-2.8.3-.8.7-1.6,1.3-2.2.5-.6,1.2-1.1,1.9-1.4.8-.3,1.6-.5,2.5-.5s1.8.2,2.5.5c.7.3,1.3.8,1.8,1.3.5.6.8,1.3,1.1,2.1s.4,1.7.4,2.6v1.4h-10.4v-2.2h7.2v-.2c0-.5-.1-1-.3-1.4-.2-.4-.5-.8-.8-1-.4-.3-.9-.4-1.5-.4s-.9.1-1.3.3c-.4.2-.6.5-.9.9-.2.4-.4.8-.5,1.4-.1.5-.2,1.1-.2,1.7v.5c0,.6,0,1.1.2,1.5s.4.9.7,1.2c.3.3.7.6,1.1.8s.9.3,1.4.3,1.3-.1,1.8-.4c.6-.3,1-.7,1.4-1.2l1.6,1.7c-.3.4-.7.8-1.1,1.2-.5.4-1,.7-1.7.9-.7.2-1.4.4-2.3.4Z"/>
          <path d="M712.4,181.4v1.9s-2,0-2,0c-.5,0-1,0-1.3.2-.4.1-.7.2-.9.4-.2.2-.4.4-.6.7-.1.3-.2.6-.2.9s0,.6.2.9.4.5.7.6.6.2,1,.2c.6,0,1.1-.1,1.5-.3.4-.2.8-.5,1-.9.2-.3.4-.7.4-1l.9,1.4c-.1.3-.3.7-.5,1.1-.2.4-.5.7-.9,1.1-.4.3-.8.6-1.3.8s-1.1.3-1.8.3-1.6-.2-2.3-.5-1.2-.8-1.6-1.4-.6-1.3-.6-2,.1-1.3.4-1.9c.3-.5.7-1,1.2-1.4.5-.4,1.2-.7,1.9-.8s1.6-.3,2.6-.3h2.2ZM711.9,186.6v-6.1c0-.5,0-.8-.2-1.2-.2-.3-.4-.6-.7-.8-.3-.2-.7-.3-1.2-.3s-.8,0-1.1.2-.6.4-.7.6-.3.6-.3.9h-3.3c0-.5.1-1.1.4-1.6s.6-.9,1.1-1.3,1.1-.7,1.8-.9c.7-.2,1.4-.3,2.3-.3s1.9.2,2.7.5c.8.3,1.4.8,1.9,1.5.5.7.7,1.5.7,2.6v5.8c0,.7,0,1.2.1,1.7,0,.5.2.9.4,1.2v.2h-3.3c-.2-.3-.3-.8-.4-1.3s-.1-1-.1-1.5Z"/>
          <path d="M721.4,178.9v10.6h-3.2v-13.3h3.1l.2,2.7ZM725.4,176.1v3c-.2,0-.4,0-.7,0-.2,0-.4,0-.6,0-.5,0-.9,0-1.3.2-.4.1-.7.3-.9.6-.2.3-.4.6-.6.9s-.2.8-.2,1.2h-.7c0-.9,0-1.7.3-2.4s.4-1.3.7-1.9.7-1,1.2-1.3,1.1-.4,1.7-.4.4,0,.6,0c.2,0,.4,0,.5.1Z"/>
          <path d="M732.9,189.7c-1,0-1.9-.2-2.7-.5-.8-.3-1.5-.8-2-1.4-.6-.6-1-1.3-1.3-2-.3-.8-.4-1.6-.4-2.5v-.5c0-1,.1-2,.4-2.8.3-.8.7-1.6,1.3-2.2.5-.6,1.2-1.1,1.9-1.4.8-.3,1.6-.5,2.5-.5s1.8.2,2.5.5c.7.3,1.3.8,1.8,1.3.5.6.8,1.3,1.1,2.1s.4,1.7.4,2.6v1.4h-10.4v-2.2h7.2v-.2c0-.5-.1-1-.3-1.4-.2-.4-.5-.8-.8-1-.4-.3-.9-.4-1.5-.4s-.9.1-1.3.3c-.4.2-.6.5-.9.9-.2.4-.4.8-.5,1.4-.1.5-.2,1.1-.2,1.7v.5c0,.6,0,1.1.2,1.5s.4.9.7,1.2c.3.3.7.6,1.1.8s.9.3,1.4.3,1.3-.1,1.8-.4c.6-.3,1-.7,1.4-1.2l1.6,1.7c-.3.4-.7.8-1.1,1.2-.5.4-1,.7-1.7.9-.7.2-1.4.4-2.3.4Z"/>
          <path d="M749.9,178.9v10.6h-3.2v-13.3h3.1l.2,2.7ZM754,176.1v3c-.2,0-.4,0-.7,0-.2,0-.4,0-.6,0-.5,0-.9,0-1.3.2-.4.1-.7.3-.9.6-.2.3-.4.6-.6.9s-.2.8-.2,1.2h-.7c0-.9,0-1.7.3-2.4s.4-1.3.7-1.9.7-1,1.2-1.3,1.1-.4,1.7-.4.4,0,.6,0c.2,0,.4,0,.5.1Z"/>
          <path d="M761.5,189.7c-1,0-1.9-.2-2.7-.5-.8-.3-1.5-.8-2-1.4-.6-.6-1-1.3-1.3-2-.3-.8-.4-1.6-.4-2.5v-.5c0-1,.1-2,.4-2.8.3-.8.7-1.6,1.3-2.2.5-.6,1.2-1.1,1.9-1.4.8-.3,1.6-.5,2.5-.5s1.8.2,2.5.5c.7.3,1.3.8,1.8,1.3.5.6.8,1.3,1.1,2.1s.4,1.7.4,2.6v1.4h-10.4v-2.2h7.2v-.2c0-.5-.1-1-.3-1.4-.2-.4-.5-.8-.8-1-.4-.3-.9-.4-1.5-.4s-.9.1-1.3.3c-.4.2-.6.5-.9.9-.2.4-.4.8-.5,1.4-.1.5-.2,1.1-.2,1.7v.5c0,.6,0,1.1.2,1.5s.4.9.7,1.2c.3.3.7.6,1.1.8s.9.3,1.4.3,1.3-.1,1.8-.4c.6-.3,1-.7,1.4-1.2l1.6,1.7c-.3.4-.7.8-1.1,1.2-.5.4-1,.7-1.7.9-.7.2-1.4.4-2.3.4Z"/>
          <path d="M776.8,181.4v1.9s-2,0-2,0c-.5,0-1,0-1.3.2-.4.1-.7.2-.9.4-.2.2-.4.4-.6.7-.1.3-.2.6-.2.9s0,.6.2.9.4.5.7.6.6.2,1,.2c.6,0,1.1-.1,1.5-.3.4-.2.8-.5,1-.9.2-.3.4-.7.4-1l.9,1.4c-.1.3-.3.7-.5,1.1-.2.4-.5.7-.9,1.1-.4.3-.8.6-1.3.8s-1.1.3-1.8.3-1.6-.2-2.3-.5-1.2-.8-1.6-1.4-.6-1.3-.6-2,.1-1.3.4-1.9c.3-.5.7-1,1.2-1.4.5-.4,1.2-.7,1.9-.8s1.6-.3,2.6-.3h2.2ZM776.3,186.6v-6.1c0-.5,0-.8-.2-1.2-.2-.3-.4-.6-.7-.8-.3-.2-.7-.3-1.2-.3s-.8,0-1.1.2-.6.4-.7.6-.3.6-.3.9h-3.3c0-.5.1-1.1.4-1.6s.6-.9,1.1-1.3,1.1-.7,1.8-.9c.7-.2,1.4-.3,2.3-.3s1.9.2,2.7.5c.8.3,1.4.8,1.9,1.5.5.7.7,1.5.7,2.6v5.8c0,.7,0,1.2.1,1.7,0,.5.2.9.4,1.2v.2h-3.3c-.2-.3-.3-.8-.4-1.3s-.1-1-.1-1.5Z"/>
          <path d="M782,183v-.3c0-1,.1-1.9.3-2.8.2-.8.6-1.5,1-2.1.5-.6,1-1.1,1.6-1.4.6-.3,1.4-.5,2.2-.5s1.5.2,2.1.5c.6.3,1.1.8,1.5,1.4.4.6.8,1.3,1,2.1.3.8.4,1.7.6,2.7v.7c-.1.9-.3,1.8-.6,2.6-.3.8-.6,1.5-1,2.1-.4.6-.9,1-1.5,1.4-.6.3-1.3.5-2.1.5s-1.5-.2-2.2-.5c-.6-.3-1.2-.8-1.6-1.4-.4-.6-.8-1.3-1-2.1-.2-.8-.3-1.7-.3-2.7ZM785.2,182.7v.3c0,.6,0,1.1.1,1.6,0,.5.3.9.5,1.3.2.4.5.7.9.9s.8.3,1.3.3,1.2-.1,1.6-.4c.4-.3.7-.7,1-1.2.2-.5.4-1.1.4-1.7v-1.9c0-.5-.1-.9-.3-1.4-.1-.4-.3-.8-.6-1.1-.2-.3-.5-.5-.9-.7-.4-.2-.8-.3-1.3-.3s-.9.1-1.3.3c-.4.2-.6.5-.9.9-.2.4-.4.8-.5,1.3-.1.5-.2,1.1-.2,1.6ZM790.5,186.6v-16h3.3v18.8h-2.9l-.3-2.8Z"/>
          <path d="M798.8,176.2l3,9.8.5,3.4-2.2.4-4.8-13.6h3.5ZM800.6,188l3.6-11.8h3.5l-5.3,15.3c-.1.3-.3.7-.5,1.1-.2.4-.4.8-.8,1.1-.3.3-.7.6-1.2.9-.5.2-1.1.3-1.7.3s-.6,0-.8,0c-.2,0-.5,0-.7-.2v-2.4c0,0,.2,0,.3,0,.1,0,.2,0,.3,0,.5,0,.9,0,1.2-.2.3-.1.6-.3.8-.5.2-.2.4-.6.5-.9l1-2.6Z"/>
          <path d="M821.7,176.2v2.3h-7.6v-2.3h7.6ZM816.1,172.9h3.3v12.7c0,.4,0,.7.2.9.1.2.3.4.5.4.2,0,.5.1.8.1s.4,0,.6,0c.2,0,.3,0,.5,0v2.4c-.3,0-.6.2-.9.2-.3,0-.7,0-1.1,0-.7,0-1.4-.1-1.9-.4-.5-.2-1-.7-1.3-1.2-.3-.6-.5-1.3-.5-2.2v-13Z"/>
          <path d="M822.9,183v-.3c0-1,.1-1.9.4-2.7.3-.8.7-1.5,1.2-2.1.5-.6,1.2-1.1,2-1.4.8-.3,1.6-.5,2.6-.5s1.9.2,2.7.5c.8.3,1.4.8,2,1.4.5.6.9,1.3,1.2,2.1.3.8.4,1.7.4,2.7v.3c0,1-.1,1.9-.4,2.7-.3.8-.7,1.5-1.2,2.1-.5.6-1.2,1.1-2,1.4-.8.3-1.6.5-2.6.5s-1.9-.2-2.6-.5c-.8-.3-1.4-.8-2-1.4-.5-.6-.9-1.3-1.2-2.1-.3-.8-.4-1.7-.4-2.7ZM826.2,182.7v.3c0,.6,0,1.1.2,1.6.1.5.3,1,.5,1.3s.5.7.9.9c.4.2.8.3,1.4.3s1-.1,1.3-.3.7-.5.9-.9.4-.8.5-1.3c.1-.5.2-1.1.2-1.6v-.3c0-.6,0-1.1-.2-1.6-.1-.5-.3-.9-.5-1.3s-.6-.7-.9-.9c-.4-.2-.8-.3-1.4-.3s-1,.1-1.3.3c-.4.2-.7.5-.9.9s-.4.8-.5,1.3c-.1.5-.2,1-.2,1.6Z"/>
          <path d="M851.3,185.8c0-.3,0-.5-.2-.7-.1-.2-.4-.4-.8-.6-.4-.2-1-.4-1.8-.5-.7-.1-1.3-.3-1.9-.6-.6-.2-1.1-.5-1.5-.8-.4-.3-.7-.7-1-1.1-.2-.4-.3-.9-.3-1.5s.1-1.1.4-1.6c.2-.5.6-.9,1-1.3.4-.4,1-.7,1.6-.9s1.4-.3,2.2-.3,2.1.2,2.9.6c.8.4,1.4.9,1.9,1.5.4.6.7,1.4.7,2.2h-3.2c0-.4,0-.7-.2-1-.2-.3-.4-.5-.7-.7-.3-.2-.7-.3-1.2-.3s-.8,0-1.1.2c-.3.1-.5.3-.7.6s-.2.5-.2.8,0,.4.1.6c0,.2.2.3.4.5.2.1.5.3.8.4.3.1.8.2,1.3.3,1,.2,1.9.5,2.6.8s1.3.8,1.7,1.3c.4.5.6,1.2.6,2s-.1,1.1-.4,1.6c-.3.5-.6.9-1.1,1.3-.5.4-1.1.6-1.7.8-.7.2-1.4.3-2.3.3-1.2,0-2.2-.2-3.1-.7s-1.5-1-1.9-1.7-.7-1.4-.7-2.1h3.1c0,.5.2.9.4,1.2s.6.5,1,.7c.4.1.8.2,1.2.2s.9,0,1.2-.2c.3-.1.6-.3.8-.6s.3-.5.3-.8Z"/>
          <path d="M862.9,189.7c-1,0-1.9-.2-2.7-.5-.8-.3-1.5-.8-2-1.4-.6-.6-1-1.3-1.3-2-.3-.8-.4-1.6-.4-2.5v-.5c0-1,.1-2,.4-2.8.3-.8.7-1.6,1.3-2.2.5-.6,1.2-1.1,1.9-1.4.8-.3,1.6-.5,2.5-.5s1.8.2,2.5.5c.7.3,1.3.8,1.8,1.3.5.6.8,1.3,1.1,2.1s.4,1.7.4,2.6v1.4h-10.4v-2.2h7.2v-.2c0-.5-.1-1-.3-1.4-.2-.4-.5-.8-.8-1-.4-.3-.9-.4-1.5-.4s-.9.1-1.3.3c-.4.2-.6.5-.9.9-.2.4-.4.8-.5,1.4-.1.5-.2,1.1-.2,1.7v.5c0,.6,0,1.1.2,1.5s.4.9.7,1.2c.3.3.7.6,1.1.8s.9.3,1.4.3,1.3-.1,1.8-.4c.6-.3,1-.7,1.4-1.2l1.6,1.7c-.3.4-.7.8-1.1,1.2-.5.4-1,.7-1.7.9-.7.2-1.4.4-2.3.4Z"/>
          <path d="M873.9,170.6v18.8h-3.3v-18.8h3.3Z"/>
          <path d="M880.4,170.6v18.8h-3.3v-18.8h3.3Z"/>
          <path d="M897.5,181.4v1.9s-2,0-2,0c-.5,0-1,0-1.3.2-.4.1-.7.2-.9.4-.2.2-.4.4-.6.7-.1.3-.2.6-.2.9s0,.6.2.9.4.5.7.6.6.2,1,.2c.6,0,1.1-.1,1.5-.3.4-.2.8-.5,1-.9.2-.3.4-.7.4-1l.9,1.4c-.1.3-.3.7-.5,1.1-.2.4-.5.7-.9,1.1-.4.3-.8.6-1.3.8s-1.1.3-1.8.3-1.6-.2-2.3-.5-1.2-.8-1.6-1.4-.6-1.3-.6-2,.1-1.3.4-1.9c.3-.5.7-1,1.2-1.4.5-.4,1.2-.7,1.9-.8s1.6-.3,2.6-.3h2.2ZM897,186.6v-6.1c0-.5,0-.8-.2-1.2-.2-.3-.4-.6-.7-.8-.3-.2-.7-.3-1.2-.3s-.8,0-1.1.2-.6.4-.7.6-.3.6-.3.9h-3.3c0-.5.1-1.1.4-1.6s.6-.9,1.1-1.3,1.1-.7,1.8-.9c.7-.2,1.4-.3,2.3-.3s1.9.2,2.7.5c.8.3,1.4.8,1.9,1.5.5.7.7,1.5.7,2.6v5.8c0,.7,0,1.2.1,1.7,0,.5.2.9.4,1.2v.2h-3.3c-.2-.3-.3-.8-.4-1.3s-.1-1-.1-1.5Z"/>
          <path d="M906.4,179v10.4h-3.2v-13.3h3l.2,2.8ZM905.9,182.3h-1c0-1,.1-1.8.4-2.6.3-.8.6-1.5,1.1-2s1-1,1.7-1.3c.6-.3,1.3-.5,2.1-.5s1.2,0,1.7.3c.5.2,1,.5,1.3.9.4.4.7.9.9,1.5s.3,1.4.3,2.3v8.5h-3.3v-8.5c0-.6,0-1.1-.3-1.4s-.4-.6-.8-.7-.7-.2-1.2-.2-.9.1-1.3.3c-.4.2-.7.5-.9.8-.2.4-.4.8-.6,1.2-.1.5-.2,1-.2,1.5Z"/>
          <path d="M916.7,183v-.3c0-1,.1-1.9.4-2.7.3-.8.7-1.5,1.2-2.1.5-.6,1.2-1.1,2-1.4.8-.3,1.6-.5,2.6-.5s1.9.2,2.7.5c.8.3,1.4.8,2,1.4.5.6.9,1.3,1.2,2.1.3.8.4,1.7.4,2.7v.3c0,1-.1,1.9-.4,2.7-.3.8-.7,1.5-1.2,2.1-.5.6-1.2,1.1-2,1.4-.8.3-1.6.5-2.6.5s-1.9-.2-2.6-.5c-.8-.3-1.4-.8-2-1.4-.5-.6-.9-1.3-1.2-2.1-.3-.8-.4-1.7-.4-2.7ZM919.9,182.7v.3c0,.6,0,1.1.2,1.6.1.5.3,1,.5,1.3s.5.7.9.9c.4.2.8.3,1.4.3s1-.1,1.3-.3.7-.5.9-.9.4-.8.5-1.3c.1-.5.2-1.1.2-1.6v-.3c0-.6,0-1.1-.2-1.6-.1-.5-.3-.9-.5-1.3s-.6-.7-.9-.9c-.4-.2-.8-.3-1.4-.3s-1,.1-1.3.3c-.4.2-.7.5-.9.9s-.4.8-.5,1.3c-.1.5-.2,1-.2,1.6Z"/>
          <path d="M937.8,176.2v2.3h-7.6v-2.3h7.6ZM932.2,172.9h3.3v12.7c0,.4,0,.7.2.9.1.2.3.4.5.4.2,0,.5.1.8.1s.4,0,.6,0c.2,0,.3,0,.5,0v2.4c-.3,0-.6.2-.9.2-.3,0-.7,0-1.1,0-.7,0-1.4-.1-1.9-.4-.5-.2-1-.7-1.3-1.2-.3-.6-.5-1.3-.5-2.2v-13Z"/>
          <path d="M943.1,170.6v18.8h-3.3v-18.8h3.3ZM942.6,182.3h-1c0-.9.1-1.8.4-2.6.2-.8.6-1.5,1-2,.5-.6,1-1,1.6-1.3.6-.3,1.3-.5,2.1-.5s1.2,0,1.8.3c.5.2,1,.5,1.4.9.4.4.7.9.9,1.6.2.6.3,1.4.3,2.3v8.5h-3.3v-8.5c0-.6,0-1.1-.3-1.5-.2-.4-.4-.6-.8-.8-.3-.2-.7-.2-1.2-.2s-1,.1-1.3.3-.7.5-.9.8c-.2.4-.4.8-.5,1.2-.1.5-.2,1-.2,1.5Z"/>
          <path d="M959.9,189.7c-1,0-1.9-.2-2.7-.5-.8-.3-1.5-.8-2-1.4-.6-.6-1-1.3-1.3-2-.3-.8-.4-1.6-.4-2.5v-.5c0-1,.1-2,.4-2.8.3-.8.7-1.6,1.3-2.2.5-.6,1.2-1.1,1.9-1.4.8-.3,1.6-.5,2.5-.5s1.8.2,2.5.5c.7.3,1.3.8,1.8,1.3.5.6.8,1.3,1.1,2.1s.4,1.7.4,2.6v1.4h-10.4v-2.2h7.2v-.2c0-.5-.1-1-.3-1.4-.2-.4-.5-.8-.8-1-.4-.3-.9-.4-1.5-.4s-.9.1-1.3.3c-.4.2-.6.5-.9.9-.2.4-.4.8-.5,1.4-.1.5-.2,1.1-.2,1.7v.5c0,.6,0,1.1.2,1.5s.4.9.7,1.2c.3.3.7.6,1.1.8s.9.3,1.4.3,1.3-.1,1.8-.4c.6-.3,1-.7,1.4-1.2l1.6,1.7c-.3.4-.7.8-1.1,1.2-.5.4-1,.7-1.7.9-.7.2-1.4.4-2.3.4Z"/>
          <path d="M970.7,178.9v10.6h-3.2v-13.3h3.1l.2,2.7ZM974.7,176.1v3c-.2,0-.4,0-.7,0-.2,0-.4,0-.6,0-.5,0-.9,0-1.3.2-.4.1-.7.3-.9.6-.2.3-.4.6-.6.9s-.2.8-.2,1.2h-.7c0-.9,0-1.7.3-2.4s.4-1.3.7-1.9.7-1,1.2-1.3,1.1-.4,1.7-.4.4,0,.6,0c.2,0,.4,0,.5.1Z"/>
        </g>
      </g>
      <g class="st1">
        <g class="st1">
          <path d="M286.9,217.3c.5,0,.9,0,1.2-.3.4-.2.6-.4.9-.8.2-.3.3-.7.3-1.1h3.1c0,.9-.3,1.7-.8,2.4-.5.7-1.1,1.3-2,1.7s-1.7.6-2.7.6-1.9-.2-2.7-.5c-.8-.3-1.4-.8-1.9-1.4-.5-.6-.9-1.3-1.1-2.1-.2-.8-.4-1.7-.4-2.6v-.4c0-.9.1-1.8.4-2.6.2-.8.6-1.5,1.1-2.1.5-.6,1.1-1.1,1.9-1.4s1.6-.5,2.7-.5,2,.2,2.8.6c.8.4,1.5,1,1.9,1.8.5.8.7,1.7.7,2.7h-3.1c0-.5-.1-.9-.3-1.3-.2-.4-.5-.7-.8-.9-.4-.2-.8-.3-1.3-.3s-1,.1-1.4.3c-.4.2-.6.5-.8.9-.2.4-.3.8-.4,1.3,0,.5-.1,1-.1,1.5v.4c0,.5,0,1.1.1,1.5,0,.5.2.9.4,1.3.2.4.5.7.8.9.4.2.8.3,1.4.3Z"/>
          <path d="M302.3,211.5v1.9s-2,0-2,0c-.5,0-1,0-1.3.2-.4.1-.7.2-.9.4-.2.2-.4.4-.6.7-.1.3-.2.6-.2.9s0,.6.2.9c.2.3.4.5.7.6.3.2.6.2,1,.2.6,0,1.1-.1,1.5-.3.4-.2.8-.5,1-.9.2-.3.4-.7.4-1l.9,1.4c-.1.3-.3.7-.5,1.1s-.5.7-.9,1.1-.8.6-1.3.8c-.5.2-1.1.3-1.8.3s-1.6-.2-2.3-.5c-.7-.3-1.2-.8-1.6-1.4-.4-.6-.6-1.3-.6-2s.1-1.3.4-1.9.7-1,1.2-1.4c.5-.4,1.2-.7,1.9-.8.8-.2,1.6-.3,2.6-.3h2.2ZM301.9,216.8v-6.1c0-.5,0-.8-.2-1.2s-.4-.6-.7-.8-.7-.3-1.2-.3-.8,0-1.1.2c-.3.1-.6.4-.7.6-.2.3-.3.6-.3.9h-3.3c0-.5.1-1.1.4-1.6.3-.5.6-.9,1.1-1.3.5-.4,1.1-.7,1.8-.9.7-.2,1.4-.3,2.3-.3s1.9.2,2.7.5c.8.3,1.4.8,1.9,1.5.5.7.7,1.5.7,2.6v5.8c0,.7,0,1.2.1,1.7,0,.5.2.9.4,1.2v.2h-3.3c-.2-.3-.3-.8-.4-1.3,0-.5-.1-1-.1-1.5Z"/>
          <path d="M311.3,209v10.6h-3.2v-13.3h3.1l.2,2.7ZM315.3,206.2v3c-.2,0-.4,0-.7,0s-.4,0-.6,0c-.5,0-.9,0-1.3.2-.4.1-.7.3-.9.6s-.4.6-.6.9c-.1.4-.2.8-.2,1.2h-.7c0-.9,0-1.7.3-2.4.2-.7.4-1.3.7-1.9s.7-1,1.2-1.3c.5-.3,1.1-.4,1.7-.4s.4,0,.6,0c.2,0,.4,0,.5.1Z"/>
          <path d="M334,213.7h3.4c0,1.2-.4,2.3-1,3.2-.6.9-1.4,1.6-2.4,2.2s-2.3.8-3.7.8-2.1-.2-3-.6-1.7-1-2.3-1.7-1.1-1.6-1.5-2.7c-.3-1-.5-2.2-.5-3.5v-1.4c0-1.3.2-2.5.5-3.5.3-1,.8-1.9,1.5-2.7s1.4-1.3,2.3-1.7c.9-.4,1.9-.6,3-.6s2.7.3,3.7.8c1,.5,1.8,1.3,2.3,2.2s.9,2,1,3.2h-3.4c0-.8-.2-1.4-.5-1.9-.3-.5-.6-.9-1.2-1.2-.5-.3-1.2-.4-2-.4s-1.2.1-1.7.4c-.5.2-.9.6-1.2,1.1-.3.5-.6,1.1-.7,1.8-.2.7-.2,1.6-.2,2.5v1.4c0,.9,0,1.7.2,2.4.1.7.4,1.3.7,1.8s.7.9,1.2,1.1,1.1.4,1.8.4,1.5-.1,2-.4c.5-.3.9-.6,1.2-1.2.3-.5.4-1.1.5-1.9Z"/>
          <path d="M347.5,211.5v1.9s-2,0-2,0c-.5,0-1,0-1.3.2-.4.1-.7.2-.9.4-.2.2-.4.4-.6.7-.1.3-.2.6-.2.9s0,.6.2.9c.2.3.4.5.7.6.3.2.6.2,1,.2.6,0,1.1-.1,1.5-.3.4-.2.8-.5,1-.9.2-.3.4-.7.4-1l.9,1.4c-.1.3-.3.7-.5,1.1s-.5.7-.9,1.1-.8.6-1.3.8c-.5.2-1.1.3-1.8.3s-1.6-.2-2.3-.5c-.7-.3-1.2-.8-1.6-1.4-.4-.6-.6-1.3-.6-2s.1-1.3.4-1.9.7-1,1.2-1.4c.5-.4,1.2-.7,1.9-.8.8-.2,1.6-.3,2.6-.3h2.2ZM347.1,216.8v-6.1c0-.5,0-.8-.2-1.2s-.4-.6-.7-.8-.7-.3-1.2-.3-.8,0-1.1.2c-.3.1-.6.4-.7.6-.2.3-.3.6-.3.9h-3.3c0-.5.1-1.1.4-1.6.3-.5.6-.9,1.1-1.3.5-.4,1.1-.7,1.8-.9.7-.2,1.4-.3,2.3-.3s1.9.2,2.7.5c.8.3,1.4.8,1.9,1.5.5.7.7,1.5.7,2.6v5.8c0,.7,0,1.2.1,1.7,0,.5.2.9.4,1.2v.2h-3.3c-.2-.3-.3-.8-.4-1.3,0-.5-.1-1-.1-1.5Z"/>
          <path d="M356.5,209v10.6h-3.2v-13.3h3.1l.2,2.7ZM360.5,206.2v3c-.2,0-.4,0-.7,0s-.4,0-.6,0c-.5,0-.9,0-1.3.2-.4.1-.7.3-.9.6s-.4.6-.6.9c-.1.4-.2.8-.2,1.2h-.7c0-.9,0-1.7.3-2.4.2-.7.4-1.3.7-1.9s.7-1,1.2-1.3c.5-.3,1.1-.4,1.7-.4s.4,0,.6,0c.2,0,.4,0,.5.1Z"/>
          <path d="M361.5,213.1v-.3c0-1,.1-1.9.4-2.8.2-.8.6-1.5,1-2.1.4-.6,1-1.1,1.6-1.4s1.4-.5,2.2-.5,1.5.2,2.1.5c.6.3,1.1.8,1.5,1.4s.8,1.3,1,2.1.4,1.7.6,2.7v.7c-.1.9-.3,1.8-.6,2.6-.3.8-.6,1.5-1,2.1s-.9,1-1.5,1.4c-.6.3-1.3.5-2.1.5s-1.5-.2-2.2-.5c-.6-.3-1.2-.8-1.6-1.4-.4-.6-.8-1.3-1-2.1-.2-.8-.4-1.7-.4-2.7ZM364.8,212.8v.3c0,.6,0,1.1.1,1.6s.3.9.5,1.3c.2.4.5.7.9.9.3.2.8.3,1.3.3s1.2-.1,1.6-.4.7-.7,1-1.2c.2-.5.4-1.1.4-1.7v-1.9c0-.5-.1-.9-.3-1.4-.1-.4-.3-.8-.6-1.1-.2-.3-.5-.5-.9-.7-.4-.2-.8-.3-1.3-.3s-.9.1-1.3.3-.6.5-.9.9c-.2.4-.4.8-.5,1.3-.1.5-.2,1.1-.2,1.6ZM370,216.8v-16h3.3v18.8h-2.9l-.3-2.8Z"/>
          <path d="M382.2,219.8c-1,0-1.9-.2-2.7-.5s-1.5-.8-2-1.4c-.6-.6-1-1.3-1.3-2-.3-.8-.4-1.6-.4-2.5v-.5c0-1,.1-2,.4-2.8.3-.8.7-1.6,1.3-2.2.5-.6,1.2-1.1,1.9-1.4.8-.3,1.6-.5,2.5-.5s1.8.2,2.5.5c.7.3,1.3.8,1.8,1.3.5.6.8,1.3,1.1,2.1.2.8.4,1.7.4,2.6v1.4h-10.4v-2.2h7.2v-.2c0-.5-.1-1-.3-1.4-.2-.4-.5-.8-.8-1-.4-.3-.9-.4-1.5-.4s-.9.1-1.3.3-.7.5-.9.9c-.2.4-.4.8-.5,1.4-.1.5-.2,1.1-.2,1.7v.5c0,.6,0,1.1.2,1.5s.4.9.7,1.2c.3.3.7.6,1.1.8s.9.3,1.4.3,1.3-.1,1.8-.4c.6-.3,1-.7,1.4-1.2l1.6,1.7c-.3.4-.7.8-1.1,1.2-.5.4-1,.7-1.7.9s-1.4.3-2.3.3Z"/>
          <path d="M397.5,211.5v1.9s-2,0-2,0c-.5,0-1,0-1.3.2-.4.1-.7.2-.9.4-.2.2-.4.4-.6.7-.1.3-.2.6-.2.9s0,.6.2.9c.2.3.4.5.7.6.3.2.6.2,1,.2.6,0,1.1-.1,1.5-.3.4-.2.8-.5,1-.9.2-.3.4-.7.4-1l.9,1.4c-.1.3-.3.7-.5,1.1s-.5.7-.9,1.1-.8.6-1.3.8c-.5.2-1.1.3-1.8.3s-1.6-.2-2.3-.5c-.7-.3-1.2-.8-1.6-1.4-.4-.6-.6-1.3-.6-2s.1-1.3.4-1.9.7-1,1.2-1.4c.5-.4,1.2-.7,1.9-.8.8-.2,1.6-.3,2.6-.3h2.2ZM397,216.8v-6.1c0-.5,0-.8-.2-1.2s-.4-.6-.7-.8-.7-.3-1.2-.3-.8,0-1.1.2c-.3.1-.6.4-.7.6-.2.3-.3.6-.3.9h-3.3c0-.5.1-1.1.4-1.6.3-.5.6-.9,1.1-1.3.5-.4,1.1-.7,1.8-.9.7-.2,1.4-.3,2.3-.3s1.9.2,2.7.5c.8.3,1.4.8,1.9,1.5.5.7.7,1.5.7,2.6v5.8c0,.7,0,1.2.1,1.7,0,.5.2.9.4,1.2v.2h-3.3c-.2-.3-.3-.8-.4-1.3,0-.5-.1-1-.1-1.5Z"/>
          <path d="M406.7,200.7v18.8h-3.3v-18.8h3.3Z"/>
          <path d="M418.1,206.3l2.2,10.1.2,3.2h-2l-3.5-13.3h3.2ZM419.7,216.4l2.9-10.1h2.1l-.6,3.5-2.9,9.8h-1.8l.4-3.2ZM425,206.3l2.9,10,.4,3.3h-1.8l-3-9.8-.6-3.5h2.1ZM427.4,216.3l2.1-10h3.1l-3.5,13.3h-2l.2-3.3Z"/>
          <path d="M434.5,202.8c0-.5.2-.9.5-1.2.3-.3.8-.5,1.3-.5s1,.2,1.3.5c.3.3.5.7.5,1.2s-.2.9-.5,1.2c-.3.3-.8.5-1.3.5s-1-.2-1.3-.5c-.3-.3-.5-.7-.5-1.2ZM438,206.3v13.3h-3.3v-13.3h3.3Z"/>
          <path d="M444.5,200.7v18.8h-3.3v-18.8h3.3Z"/>
          <path d="M451,200.7v18.8h-3.3v-18.8h3.3Z"/>
          <path d="M460.4,200.7h3.3v15.9l-.3,2.9h-2.9v-18.8ZM472.2,212.8v.3c0,1-.1,1.9-.3,2.7-.2.8-.5,1.5-1,2.1s-1,1.1-1.6,1.4c-.6.3-1.4.5-2.3.5s-1.5-.2-2.1-.5c-.6-.3-1.1-.8-1.5-1.4s-.7-1.3-1-2.1c-.2-.8-.4-1.7-.6-2.6v-.7c.1-1,.3-1.8.6-2.6.2-.8.6-1.5,1-2.1s.9-1,1.5-1.4c.6-.3,1.3-.5,2.1-.5s1.6.2,2.3.5c.7.3,1.2.8,1.6,1.4.4.6.8,1.3,1,2.1.2.8.3,1.7.3,2.7ZM468.9,213.1v-.3c0-.6,0-1.1-.1-1.6,0-.5-.2-.9-.4-1.3s-.5-.7-.8-.9c-.4-.2-.8-.3-1.3-.3s-.9,0-1.3.3-.7.4-.9.7c-.2.3-.4.7-.5,1.1-.1.4-.2.9-.3,1.3v1.9c0,.6.2,1.2.4,1.7.2.5.5.9,1,1.2.4.3,1,.4,1.6.4s1-.1,1.3-.3c.4-.2.6-.5.8-.9.2-.4.3-.8.4-1.3,0-.5.1-1.1.1-1.7Z"/>
          <path d="M480.5,219.8c-1,0-1.9-.2-2.7-.5s-1.5-.8-2-1.4c-.6-.6-1-1.3-1.3-2-.3-.8-.4-1.6-.4-2.5v-.5c0-1,.1-2,.4-2.8.3-.8.7-1.6,1.3-2.2.5-.6,1.2-1.1,1.9-1.4.8-.3,1.6-.5,2.5-.5s1.8.2,2.5.5c.7.3,1.3.8,1.8,1.3.5.6.8,1.3,1.1,2.1.2.8.4,1.7.4,2.6v1.4h-10.4v-2.2h7.2v-.2c0-.5-.1-1-.3-1.4-.2-.4-.5-.8-.8-1-.4-.3-.9-.4-1.5-.4s-.9.1-1.3.3-.7.5-.9.9c-.2.4-.4.8-.5,1.4-.1.5-.2,1.1-.2,1.7v.5c0,.6,0,1.1.2,1.5s.4.9.7,1.2c.3.3.7.6,1.1.8s.9.3,1.4.3,1.3-.1,1.8-.4c.6-.3,1-.7,1.4-1.2l1.6,1.7c-.3.4-.7.8-1.1,1.2-.5.4-1,.7-1.7.9s-1.4.3-2.3.3Z"/>
          <path d="M493.7,213.1v-.3c0-1,.1-1.9.4-2.7.3-.8.7-1.5,1.2-2.1s1.2-1.1,2-1.4c.8-.3,1.6-.5,2.6-.5s1.9.2,2.7.5c.8.3,1.4.8,2,1.4s.9,1.3,1.2,2.1c.3.8.4,1.7.4,2.7v.3c0,1-.1,1.9-.4,2.7-.3.8-.7,1.5-1.2,2.1s-1.2,1.1-2,1.4c-.8.3-1.6.5-2.6.5s-1.9-.2-2.6-.5c-.8-.3-1.4-.8-2-1.4s-.9-1.3-1.2-2.1c-.3-.8-.4-1.7-.4-2.7ZM496.9,212.8v.3c0,.6,0,1.1.2,1.6.1.5.3,1,.5,1.3.2.4.5.7.9.9s.8.3,1.4.3,1-.1,1.4-.3c.4-.2.7-.5.9-.9.2-.4.4-.8.5-1.3.1-.5.2-1.1.2-1.6v-.3c0-.6,0-1.1-.2-1.6-.1-.5-.3-.9-.5-1.3-.2-.4-.6-.7-.9-.9-.4-.2-.8-.3-1.4-.3s-1,.1-1.3.3c-.4.2-.7.5-.9.9-.2.4-.4.8-.5,1.3-.1.5-.2,1-.2,1.6Z"/>
          <path d="M516.8,213.7h1c0,.9,0,1.7-.3,2.4s-.5,1.4-.9,2c-.4.6-.9,1-1.6,1.3s-1.4.5-2.2.5-1.3,0-1.8-.3c-.5-.2-1-.5-1.4-.9-.4-.4-.7-.9-.9-1.5-.2-.6-.3-1.4-.3-2.3v-8.6h3.2v8.6c0,.4,0,.8.2,1.1.1.3.2.5.4.7.2.2.4.3.7.4.2,0,.5.1.8.1.8,0,1.4-.2,1.9-.5.5-.3.8-.7,1-1.3s.3-1.1.3-1.8ZM516.4,216.4v-10.1h3.3v13.3h-3.1l-.2-3.2Z"/>
          <path d="M525.8,209v10.6h-3.2v-13.3h3.1l.2,2.7ZM529.8,206.2v3c-.2,0-.4,0-.7,0s-.4,0-.6,0c-.5,0-.9,0-1.3.2-.4.1-.7.3-.9.6s-.4.6-.6.9c-.1.4-.2.8-.2,1.2h-.7c0-.9,0-1.7.3-2.4.2-.7.4-1.3.7-1.9s.7-1,1.2-1.3c.5-.3,1.1-.4,1.7-.4s.4,0,.6,0c.2,0,.4,0,.5.1Z"/>
          <path d="M544.7,206.3v2.3h-8v-2.3h8ZM542.1,219.6h-3.3v-14.5c0-1,.2-1.8.6-2.5.4-.7.9-1.2,1.6-1.6.7-.4,1.5-.5,2.5-.5s.6,0,.9,0,.6,0,.9.2v2.5c-.2,0-.4,0-.6,0s-.4,0-.6,0c-.4,0-.8,0-1.1.2-.3.2-.5.4-.7.7-.2.3-.2.7-.2,1.1v14.5Z"/>
          <path d="M546.7,202.8c0-.5.2-.9.5-1.2.3-.3.8-.5,1.3-.5s1,.2,1.3.5c.3.3.5.7.5,1.2s-.2.9-.5,1.2c-.3.3-.8.5-1.3.5s-1-.2-1.3-.5c-.3-.3-.5-.7-.5-1.2ZM550.2,206.3v13.3h-3.3v-13.3h3.3Z"/>
          <path d="M556.5,209v10.6h-3.2v-13.3h3.1l.2,2.7ZM560.5,206.2v3c-.2,0-.4,0-.7,0s-.4,0-.6,0c-.5,0-.9,0-1.3.2-.4.1-.7.3-.9.6s-.4.6-.6.9c-.1.4-.2.8-.2,1.2h-.7c0-.9,0-1.7.3-2.4.2-.7.4-1.3.7-1.9s.7-1,1.2-1.3c.5-.3,1.1-.4,1.7-.4s.4,0,.6,0c.2,0,.4,0,.5.1Z"/>
          <path d="M569.6,216c0-.3,0-.5-.2-.7-.1-.2-.4-.4-.8-.6-.4-.2-1-.4-1.8-.5-.7-.1-1.3-.3-1.9-.6s-1.1-.5-1.5-.8c-.4-.3-.7-.7-1-1.1-.2-.4-.3-.9-.3-1.5s.1-1.1.4-1.6c.2-.5.6-.9,1-1.3s1-.7,1.6-.9c.6-.2,1.4-.3,2.2-.3s2.1.2,2.9.6,1.4.9,1.9,1.5c.4.6.7,1.4.7,2.2h-3.2c0-.4,0-.7-.2-1-.2-.3-.4-.5-.7-.7s-.7-.3-1.2-.3-.8,0-1.1.2-.5.3-.7.6-.2.5-.2.8,0,.4.1.6.2.3.4.5c.2.1.5.3.8.4.3.1.8.2,1.3.3,1,.2,1.9.5,2.6.8.7.3,1.3.8,1.7,1.3.4.5.6,1.2.6,2s-.1,1.1-.4,1.6c-.3.5-.6.9-1.1,1.3-.5.4-1.1.6-1.7.8-.7.2-1.4.3-2.3.3-1.2,0-2.2-.2-3.1-.7-.8-.4-1.5-1-1.9-1.7s-.7-1.4-.7-2.1h3.1c0,.5.2.9.4,1.2.3.3.6.5,1,.7.4.1.8.2,1.2.2s.9,0,1.2-.2c.3-.1.6-.3.8-.6s.3-.5.3-.8Z"/>
          <path d="M581.5,206.3v2.3h-7.6v-2.3h7.6ZM575.9,203h3.3v12.7c0,.4,0,.7.2.9.1.2.3.4.5.4.2,0,.5.1.8.1s.4,0,.6,0c.2,0,.3,0,.5,0v2.4c-.3,0-.6.2-.9.2-.3,0-.7,0-1.1,0-.7,0-1.4-.1-1.9-.4-.5-.2-1-.7-1.3-1.2-.3-.6-.5-1.3-.5-2.2v-13Z"/>
          <path d="M582.8,213.1v-.3c0-1,.1-1.9.4-2.7.3-.8.7-1.5,1.2-2.1.5-.6,1.2-1.1,2-1.4.8-.3,1.6-.5,2.6-.5s1.9.2,2.7.5c.8.3,1.4.8,2,1.4.5.6.9,1.3,1.2,2.1.3.8.4,1.7.4,2.7v.3c0,1-.1,1.9-.4,2.7s-.7,1.5-1.2,2.1c-.5.6-1.2,1.1-2,1.4-.8.3-1.6.5-2.6.5s-1.9-.2-2.6-.5c-.8-.3-1.4-.8-2-1.4-.5-.6-.9-1.3-1.2-2.1-.3-.8-.4-1.7-.4-2.7ZM586,212.8v.3c0,.6,0,1.1.2,1.6.1.5.3,1,.5,1.3.2.4.5.7.9.9.4.2.8.3,1.4.3s1-.1,1.3-.3.7-.5.9-.9c.2-.4.4-.8.5-1.3.1-.5.2-1.1.2-1.6v-.3c0-.6,0-1.1-.2-1.6-.1-.5-.3-.9-.5-1.3-.2-.4-.6-.7-.9-.9-.4-.2-.8-.3-1.4-.3s-1,.1-1.3.3c-.4.2-.7.5-.9.9-.2.4-.4.8-.5,1.3-.1.5-.2,1-.2,1.6Z"/>
          <path d="M600.8,208.9v15.8h-3.3v-18.4h3l.2,2.6ZM609.4,212.8v.3c0,1-.1,1.9-.3,2.7-.2.8-.6,1.5-1,2.1-.4.6-1,1.1-1.6,1.4-.6.3-1.4.5-2.2.5s-1.5-.2-2.1-.5c-.6-.3-1.1-.8-1.5-1.3-.4-.6-.8-1.3-1-2-.2-.8-.4-1.6-.6-2.5v-.8c.1-1,.3-1.9.6-2.7.2-.8.6-1.5,1-2.1.4-.6.9-1,1.5-1.4.6-.3,1.3-.5,2.1-.5s1.6.2,2.2.5c.6.3,1.2.8,1.6,1.4.4.6.8,1.3,1,2.1s.3,1.7.3,2.8ZM606.1,213.1v-.3c0-.6,0-1.1-.2-1.6s-.3-.9-.5-1.3c-.2-.4-.5-.7-.9-.9-.4-.2-.8-.3-1.3-.3s-.9,0-1.3.2c-.4.2-.7.4-.9.7-.2.3-.4.7-.5,1.1s-.2.9-.3,1.4v2c0,.6.2,1.1.4,1.6s.5.9.9,1.2c.4.3,1,.4,1.6.4s.9-.1,1.3-.3.6-.5.9-.9.4-.8.5-1.3c0-.5.1-1,.1-1.6Z"/>
          <path d="M618,206.3v2.3h-7.6v-2.3h7.6ZM612.4,203h3.3v12.7c0,.4,0,.7.2.9.1.2.3.4.5.4.2,0,.5.1.8.1s.4,0,.6,0c.2,0,.3,0,.5,0v2.4c-.3,0-.6.2-.9.2-.3,0-.7,0-1.1,0-.7,0-1.4-.1-1.9-.4s-1-.7-1.3-1.2c-.3-.6-.5-1.3-.5-2.2v-13Z"/>
          <path d="M620.1,202.8c0-.5.2-.9.5-1.2.3-.3.8-.5,1.3-.5s1,.2,1.3.5.5.7.5,1.2-.2.9-.5,1.2c-.3.3-.8.5-1.3.5s-1-.2-1.3-.5c-.3-.3-.5-.7-.5-1.2ZM623.6,206.3v13.3h-3.3v-13.3h3.3Z"/>
          <path d="M626.1,213.1v-.3c0-1,.1-1.9.4-2.7.3-.8.7-1.5,1.2-2.1.5-.6,1.2-1.1,2-1.4.8-.3,1.6-.5,2.6-.5s1.9.2,2.7.5c.8.3,1.4.8,2,1.4.5.6.9,1.3,1.2,2.1.3.8.4,1.7.4,2.7v.3c0,1-.1,1.9-.4,2.7s-.7,1.5-1.2,2.1c-.5.6-1.2,1.1-2,1.4-.8.3-1.6.5-2.6.5s-1.9-.2-2.6-.5c-.8-.3-1.4-.8-2-1.4-.5-.6-.9-1.3-1.2-2.1-.3-.8-.4-1.7-.4-2.7ZM629.4,212.8v.3c0,.6,0,1.1.2,1.6.1.5.3,1,.5,1.3.2.4.5.7.9.9.4.2.8.3,1.4.3s1-.1,1.3-.3.7-.5.9-.9c.2-.4.4-.8.5-1.3.1-.5.2-1.1.2-1.6v-.3c0-.6,0-1.1-.2-1.6-.1-.5-.3-.9-.5-1.3-.2-.4-.6-.7-.9-.9-.4-.2-.8-.3-1.4-.3s-1,.1-1.3.3c-.4.2-.7.5-.9.9-.2.4-.4.8-.5,1.3-.1.5-.2,1-.2,1.6Z"/>
          <path d="M644.1,209.1v10.4h-3.2v-13.3h3l.2,2.8ZM643.6,212.5h-1c0-1,.1-1.8.4-2.6.3-.8.6-1.5,1.1-2s1-1,1.7-1.3,1.3-.5,2.1-.5,1.2,0,1.7.3c.5.2,1,.5,1.3.9s.7.9.9,1.5.3,1.4.3,2.3v8.5h-3.3v-8.5c0-.6,0-1.1-.3-1.4-.2-.4-.4-.6-.8-.7s-.7-.2-1.2-.2-.9,0-1.3.3c-.4.2-.7.5-.9.8-.2.4-.4.8-.6,1.2-.1.5-.2,1-.2,1.5Z"/>
          <path d="M655.1,218c0-.5.2-.9.5-1.2.3-.3.8-.5,1.4-.5s1,.2,1.4.5c.3.3.5.7.5,1.2s-.2.9-.5,1.2c-.3.3-.8.5-1.4.5s-1-.2-1.4-.5c-.3-.3-.5-.7-.5-1.2Z"/>
          <path d="M681.2,201.7v2.7h-14.4v-2.7h14.4ZM675.6,201.7v17.9h-3.4v-17.9h3.4Z"/>
          <path d="M686.4,200.7v18.8h-3.3v-18.8h3.3ZM685.8,212.5h-1c0-.9.1-1.8.4-2.6.2-.8.6-1.5,1-2,.5-.6,1-1,1.6-1.3.6-.3,1.3-.5,2.1-.5s1.2,0,1.8.3c.5.2,1,.5,1.4.9.4.4.7.9.9,1.6.2.6.3,1.4.3,2.3v8.5h-3.3v-8.5c0-.6,0-1.1-.3-1.5-.2-.4-.4-.6-.8-.8-.3-.2-.7-.2-1.2-.2s-1,0-1.3.3c-.4.2-.7.5-.9.8-.2.4-.4.8-.5,1.2-.1.5-.2,1-.2,1.5Z"/>
          <path d="M705,211.5v1.9s-2,0-2,0c-.5,0-1,0-1.3.2-.4.1-.7.2-.9.4-.2.2-.4.4-.6.7-.1.3-.2.6-.2.9s0,.6.2.9.4.5.7.6.6.2,1,.2c.6,0,1.1-.1,1.5-.3.4-.2.8-.5,1-.9.2-.3.4-.7.4-1l.9,1.4c-.1.3-.3.7-.5,1.1-.2.4-.5.7-.9,1.1-.4.3-.8.6-1.3.8-.5.2-1.1.3-1.8.3s-1.6-.2-2.3-.5c-.7-.3-1.2-.8-1.6-1.4-.4-.6-.6-1.3-.6-2s.1-1.3.4-1.9.7-1,1.2-1.4c.5-.4,1.2-.7,1.9-.8.8-.2,1.6-.3,2.6-.3h2.2ZM704.5,216.8v-6.1c0-.5,0-.8-.2-1.2-.2-.3-.4-.6-.7-.8s-.7-.3-1.2-.3-.8,0-1.1.2-.6.4-.7.6c-.2.3-.3.6-.3.9h-3.3c0-.5.1-1.1.4-1.6.3-.5.6-.9,1.1-1.3.5-.4,1.1-.7,1.8-.9.7-.2,1.4-.3,2.3-.3s1.9.2,2.7.5c.8.3,1.4.8,1.9,1.5s.7,1.5.7,2.6v5.8c0,.7,0,1.2.1,1.7,0,.5.2.9.4,1.2v.2h-3.3c-.2-.3-.3-.8-.4-1.3s-.1-1-.1-1.5Z"/>
          <path d="M713.9,209.1v10.4h-3.2v-13.3h3l.2,2.8ZM713.4,212.5h-1c0-1,.1-1.8.4-2.6.3-.8.6-1.5,1.1-2s1-1,1.7-1.3,1.3-.5,2.1-.5,1.2,0,1.7.3c.5.2,1,.5,1.3.9s.7.9.9,1.5.3,1.4.3,2.3v8.5h-3.3v-8.5c0-.6,0-1.1-.3-1.4-.2-.4-.4-.6-.8-.7s-.7-.2-1.2-.2-.9,0-1.3.3c-.4.2-.7.5-.9.8-.2.4-.4.8-.6,1.2-.1.5-.2,1-.2,1.5Z"/>
          <path d="M728,200.7v18.9h-3.2v-18.9h3.2ZM736.3,206.3l-5.8,6.5-3.1,3.2-1-2.5,2.4-3,3.6-4.1h3.9ZM733,219.6l-4.1-6.2,2.2-2.1,5.7,8.3h-3.8Z"/>
          <path d="M746.4,206.3l3,9.8.5,3.4-2.2.4-4.8-13.6h3.5ZM748.1,218.1l3.6-11.8h3.5l-5.3,15.3c-.1.3-.3.7-.5,1.1-.2.4-.4.8-.8,1.1-.3.3-.7.6-1.2.9s-1.1.3-1.7.3-.6,0-.8,0c-.2,0-.5,0-.7-.2v-2.4c0,0,.2,0,.3,0,.1,0,.2,0,.3,0,.5,0,.9,0,1.2-.2.3-.1.6-.3.8-.5.2-.2.4-.6.5-.9l1-2.6Z"/>
          <path d="M756,213.1v-.3c0-1,.1-1.9.4-2.7.3-.8.7-1.5,1.2-2.1.5-.6,1.2-1.1,2-1.4.8-.3,1.6-.5,2.6-.5s1.9.2,2.7.5c.8.3,1.4.8,2,1.4.5.6.9,1.3,1.2,2.1.3.8.4,1.7.4,2.7v.3c0,1-.1,1.9-.4,2.7s-.7,1.5-1.2,2.1c-.5.6-1.2,1.1-2,1.4-.8.3-1.6.5-2.6.5s-1.9-.2-2.6-.5c-.8-.3-1.4-.8-2-1.4-.5-.6-.9-1.3-1.2-2.1-.3-.8-.4-1.7-.4-2.7ZM759.2,212.8v.3c0,.6,0,1.1.2,1.6.1.5.3,1,.5,1.3.2.4.5.7.9.9.4.2.8.3,1.4.3s1-.1,1.3-.3.7-.5.9-.9c.2-.4.4-.8.5-1.3.1-.5.2-1.1.2-1.6v-.3c0-.6,0-1.1-.2-1.6-.1-.5-.3-.9-.5-1.3-.2-.4-.6-.7-.9-.9-.4-.2-.8-.3-1.4-.3s-1,.1-1.3.3c-.4.2-.7.5-.9.9-.2.4-.4.8-.5,1.3-.1.5-.2,1-.2,1.6Z"/>
          <path d="M779.1,213.7h1c0,.9,0,1.7-.3,2.4s-.5,1.4-.9,2-.9,1-1.6,1.3-1.4.5-2.2.5-1.3,0-1.8-.3c-.5-.2-1-.5-1.4-.9-.4-.4-.7-.9-.9-1.5s-.3-1.4-.3-2.3v-8.6h3.2v8.6c0,.4,0,.8.2,1.1.1.3.2.5.4.7s.4.3.7.4c.2,0,.5.1.8.1.8,0,1.4-.2,1.9-.5.5-.3.8-.7,1-1.3s.3-1.1.3-1.8ZM778.7,216.4v-10.1h3.3v13.3h-3.1l-.2-3.2Z"/>
          <path d="M801.7,213.7h3.4c0,1.2-.4,2.3-1,3.2-.6.9-1.4,1.6-2.4,2.2-1,.5-2.3.8-3.7.8s-2.1-.2-3-.6c-.9-.4-1.7-1-2.3-1.7s-1.1-1.6-1.5-2.7c-.3-1-.5-2.2-.5-3.5v-1.4c0-1.3.2-2.5.5-3.5.3-1,.8-1.9,1.5-2.7.6-.7,1.4-1.3,2.3-1.7.9-.4,1.9-.6,3-.6s2.7.3,3.7.8c1,.5,1.8,1.3,2.3,2.2.6.9.9,2,1,3.2h-3.4c0-.8-.2-1.4-.5-1.9-.3-.5-.6-.9-1.2-1.2-.5-.3-1.2-.4-2-.4s-1.2.1-1.7.4c-.5.2-.9.6-1.2,1.1-.3.5-.6,1.1-.7,1.8-.2.7-.2,1.6-.2,2.5v1.4c0,.9,0,1.7.2,2.4s.4,1.3.7,1.8c.3.5.7.9,1.2,1.1.5.3,1.1.4,1.8.4s1.5-.1,2-.4.9-.6,1.2-1.2c.3-.5.4-1.1.5-1.9Z"/>
          <path d="M815.2,211.5v1.9s-2,0-2,0c-.5,0-1,0-1.3.2-.4.1-.7.2-.9.4-.2.2-.4.4-.6.7-.1.3-.2.6-.2.9s0,.6.2.9.4.5.7.6.6.2,1,.2c.6,0,1.1-.1,1.5-.3.4-.2.8-.5,1-.9.2-.3.4-.7.4-1l.9,1.4c-.1.3-.3.7-.5,1.1-.2.4-.5.7-.9,1.1-.4.3-.8.6-1.3.8-.5.2-1.1.3-1.8.3s-1.6-.2-2.3-.5c-.7-.3-1.2-.8-1.6-1.4-.4-.6-.6-1.3-.6-2s.1-1.3.4-1.9.7-1,1.2-1.4c.5-.4,1.2-.7,1.9-.8.8-.2,1.6-.3,2.6-.3h2.2ZM814.8,216.8v-6.1c0-.5,0-.8-.2-1.2-.2-.3-.4-.6-.7-.8s-.7-.3-1.2-.3-.8,0-1.1.2-.6.4-.7.6c-.2.3-.3.6-.3.9h-3.3c0-.5.1-1.1.4-1.6.3-.5.6-.9,1.1-1.3.5-.4,1.1-.7,1.8-.9.7-.2,1.4-.3,2.3-.3s1.9.2,2.7.5c.8.3,1.4.8,1.9,1.5s.7,1.5.7,2.6v5.8c0,.7,0,1.2.1,1.7,0,.5.2.9.4,1.2v.2h-3.3c-.2-.3-.3-.8-.4-1.3s-.1-1-.1-1.5Z"/>
          <path d="M824.2,209v10.6h-3.2v-13.3h3.1l.2,2.7ZM828.2,206.2v3c-.2,0-.4,0-.7,0-.2,0-.4,0-.6,0-.5,0-.9,0-1.3.2s-.7.3-.9.6c-.2.3-.4.6-.6.9-.1.4-.2.8-.2,1.2h-.7c0-.9,0-1.7.3-2.4s.4-1.3.7-1.9.7-1,1.2-1.3,1.1-.4,1.7-.4.4,0,.6,0c.2,0,.4,0,.5.1Z"/>
          <path d="M829.2,213.1v-.3c0-1,.1-1.9.3-2.8.2-.8.6-1.5,1-2.1.5-.6,1-1.1,1.6-1.4.6-.3,1.4-.5,2.2-.5s1.5.2,2.1.5c.6.3,1.1.8,1.5,1.4.4.6.8,1.3,1,2.1.3.8.4,1.7.6,2.7v.7c-.1.9-.3,1.8-.6,2.6-.3.8-.6,1.5-1,2.1-.4.6-.9,1-1.5,1.4-.6.3-1.3.5-2.1.5s-1.5-.2-2.2-.5c-.6-.3-1.2-.8-1.6-1.4-.4-.6-.8-1.3-1-2.1-.2-.8-.3-1.7-.3-2.7ZM832.4,212.8v.3c0,.6,0,1.1.1,1.6,0,.5.3.9.5,1.3.2.4.5.7.9.9.3.2.8.3,1.3.3s1.2-.1,1.6-.4c.4-.3.7-.7,1-1.2.2-.5.4-1.1.4-1.7v-1.9c0-.5-.1-.9-.3-1.4-.1-.4-.3-.8-.6-1.1-.2-.3-.5-.5-.9-.7-.4-.2-.8-.3-1.3-.3s-.9.1-1.3.3c-.4.2-.6.5-.9.9-.2.4-.4.8-.5,1.3-.1.5-.2,1.1-.2,1.6ZM837.7,216.8v-16h3.3v18.8h-2.9l-.3-2.8Z"/>
          <path d="M849.9,219.8c-1,0-1.9-.2-2.7-.5-.8-.3-1.5-.8-2-1.4-.6-.6-1-1.3-1.3-2-.3-.8-.4-1.6-.4-2.5v-.5c0-1,.1-2,.4-2.8.3-.8.7-1.6,1.3-2.2s1.2-1.1,1.9-1.4c.8-.3,1.6-.5,2.5-.5s1.8.2,2.5.5c.7.3,1.3.8,1.8,1.3.5.6.8,1.3,1.1,2.1.2.8.4,1.7.4,2.6v1.4h-10.4v-2.2h7.2v-.2c0-.5-.1-1-.3-1.4-.2-.4-.5-.8-.8-1-.4-.3-.9-.4-1.5-.4s-.9.1-1.3.3c-.4.2-.6.5-.9.9-.2.4-.4.8-.5,1.4-.1.5-.2,1.1-.2,1.7v.5c0,.6,0,1.1.2,1.5s.4.9.7,1.2c.3.3.7.6,1.1.8s.9.3,1.4.3,1.3-.1,1.8-.4c.6-.3,1-.7,1.4-1.2l1.6,1.7c-.3.4-.7.8-1.1,1.2-.5.4-1,.7-1.7.9-.7.2-1.4.3-2.3.3Z"/>
          <path d="M865.2,211.5v1.9s-2,0-2,0c-.5,0-1,0-1.3.2-.4.1-.7.2-.9.4-.2.2-.4.4-.6.7-.1.3-.2.6-.2.9s0,.6.2.9.4.5.7.6.6.2,1,.2c.6,0,1.1-.1,1.5-.3.4-.2.8-.5,1-.9.2-.3.4-.7.4-1l.9,1.4c-.1.3-.3.7-.5,1.1-.2.4-.5.7-.9,1.1-.4.3-.8.6-1.3.8-.5.2-1.1.3-1.8.3s-1.6-.2-2.3-.5c-.7-.3-1.2-.8-1.6-1.4-.4-.6-.6-1.3-.6-2s.1-1.3.4-1.9.7-1,1.2-1.4c.5-.4,1.2-.7,1.9-.8.8-.2,1.6-.3,2.6-.3h2.2ZM864.7,216.8v-6.1c0-.5,0-.8-.2-1.2-.2-.3-.4-.6-.7-.8s-.7-.3-1.2-.3-.8,0-1.1.2-.6.4-.7.6c-.2.3-.3.6-.3.9h-3.3c0-.5.1-1.1.4-1.6.3-.5.6-.9,1.1-1.3.5-.4,1.1-.7,1.8-.9.7-.2,1.4-.3,2.3-.3s1.9.2,2.7.5c.8.3,1.4.8,1.9,1.5s.7,1.5.7,2.6v5.8c0,.7,0,1.2.1,1.7,0,.5.2.9.4,1.2v.2h-3.3c-.2-.3-.3-.8-.4-1.3s-.1-1-.1-1.5Z"/>
          <path d="M874.4,200.7v18.8h-3.3v-18.8h3.3Z"/>
          <path d="M877.6,218c0-.5.2-.9.5-1.2.3-.3.8-.5,1.4-.5s1,.2,1.4.5c.3.3.5.7.5,1.2s-.2.9-.5,1.2c-.3.3-.8.5-1.4.5s-1-.2-1.4-.5c-.3-.3-.5-.7-.5-1.2Z"/>
        </g>
      </g>
    </g>
    <g class="st1">
      <g class="st1">
        <path class="st2" d="M460.6,285.2v2.1h-15.2v-2.1h15.2ZM454.3,285.2v19.7h-2.6v-19.7h2.6Z"/>
        <path class="st2" d="M460.3,303.6c0-.4.1-.8.4-1.1.3-.3.7-.4,1.2-.4s.9.1,1.2.4c.3.3.4.7.4,1.1s-.1.8-.4,1.1c-.3.3-.7.4-1.2.4s-.9-.1-1.2-.4c-.3-.3-.4-.6-.4-1.1Z"/>
        <path class="st2" d="M477.4,285.2v19.7h-2.6v-19.7h2.6ZM487.6,293.7v2.1h-10.7v-2.1h10.7ZM489.9,285.2v19.7h-2.6v-19.7h2.6Z"/>
        <path class="st2" d="M493.5,297.7v-.3c0-1.1.2-2,.5-2.9s.7-1.7,1.3-2.4c.6-.7,1.3-1.2,2.1-1.6s1.7-.6,2.8-.6,2,.2,2.8.6c.8.4,1.5.9,2.1,1.6s1,1.5,1.3,2.4.5,1.9.5,2.9v.3c0,1.1-.2,2-.5,2.9s-.8,1.7-1.3,2.4-1.3,1.2-2.1,1.6-1.7.6-2.8.6-2-.2-2.8-.6c-.8-.4-1.5-.9-2.1-1.6s-1-1.5-1.3-2.4-.5-1.9-.5-2.9ZM496,297.4v.3c0,.7,0,1.4.3,2.1.2.6.4,1.2.8,1.7.3.5.8.9,1.3,1.2.5.3,1.1.4,1.8.4s1.3-.1,1.8-.4c.5-.3.9-.7,1.3-1.2.3-.5.6-1.1.8-1.7.2-.6.3-1.3.3-2.1v-.3c0-.7,0-1.4-.3-2-.2-.6-.4-1.2-.8-1.7-.3-.5-.8-.9-1.3-1.2-.5-.3-1.1-.4-1.8-.4s-1.3.1-1.8.4c-.5.3-1,.7-1.3,1.2-.3.5-.6,1.1-.8,1.7-.2.6-.3,1.3-.3,2Z"/>
        <path class="st2" d="M509.4,297.7v-.3c0-1.1.1-2.1.4-3,.3-.9.6-1.7,1.1-2.4.5-.7,1.1-1.2,1.8-1.5.7-.4,1.5-.5,2.4-.5s1.7.2,2.4.5c.7.3,1.3.8,1.8,1.4.5.6.9,1.3,1.1,2.2.3.9.5,1.8.6,2.9v1.2c0,1.1-.3,2-.6,2.9-.3.9-.7,1.6-1.1,2.2-.5.6-1.1,1.1-1.8,1.4-.7.3-1.5.5-2.4.5s-1.7-.2-2.4-.6c-.7-.4-1.3-.9-1.8-1.6-.5-.7-.9-1.5-1.2-2.4s-.4-1.9-.4-3ZM519.4,290.3h2.3v14.3c0,1.3-.3,2.4-.8,3.3-.5.9-1.3,1.6-2.2,2.1s-2,.7-3.2.7-1.1,0-1.8-.2c-.7-.2-1.3-.4-2-.8s-1.2-.9-1.6-1.5l1.3-1.5c.6.7,1.3,1.3,1.9,1.5.7.3,1.3.4,2,.4s1.5-.1,2.1-.4c.6-.3,1-.7,1.3-1.3.3-.6.5-1.3.5-2.1v-11.2l.2-3.2ZM511.9,297.5v.3c0,.7,0,1.4.2,2.1.1.6.4,1.2.7,1.7.3.5.7.9,1.2,1.1.5.3,1.1.4,1.7.4s1.5-.2,2.1-.5,1-.8,1.3-1.4c.3-.6.6-1.2.8-1.9v-3.3c0-.5-.2-1-.5-1.4-.2-.5-.5-.9-.8-1.2-.3-.4-.7-.7-1.2-.9-.5-.2-1-.3-1.7-.3s-1.3.1-1.8.4c-.5.3-.9.7-1.2,1.2-.3.5-.5,1.1-.7,1.7-.1.6-.2,1.3-.2,2.1Z"/>
        <path class="st2" d="M534.6,296v1.8s-2.5,0-2.5,0c-.7,0-1.3,0-1.9.2-.6.1-1,.3-1.4.5-.4.2-.7.5-.9.8-.2.3-.3.7-.3,1.2s.1.9.3,1.3c.2.4.5.7.9.9.4.2.9.3,1.5.3s1.4-.2,2-.5c.6-.3,1.1-.7,1.4-1.2s.5-.9.6-1.4l1.1,1.2c0,.4-.2.8-.5,1.3-.3.5-.7.9-1.1,1.3s-1,.8-1.6,1c-.6.3-1.4.4-2.1.4s-1.9-.2-2.6-.6c-.7-.4-1.3-.9-1.7-1.6-.4-.7-.6-1.4-.6-2.2s.2-1.5.5-2.1.7-1.1,1.3-1.5c.6-.4,1.3-.7,2.1-.9s1.7-.3,2.7-.3h2.9ZM534.1,302.4v-7.5c0-.6-.1-1.1-.3-1.5-.2-.4-.6-.8-1-1s-1-.4-1.7-.4-1.2.1-1.7.3c-.5.2-.8.5-1.1.9s-.4.7-.4,1.1h-2.5c0-.5.1-1,.4-1.6.3-.5.7-1,1.2-1.4.5-.4,1.1-.8,1.8-1s1.5-.4,2.4-.4,2,.2,2.8.5c.8.4,1.5.9,1.9,1.6.5.7.7,1.6.7,2.7v6.8c0,.5,0,1,.1,1.6,0,.5.2,1,.4,1.4v.2h-2.6c-.1-.3-.2-.7-.3-1.2,0-.5-.1-.9-.1-1.3Z"/>
        <path class="st2" d="M543.1,293.4v11.5h-2.5v-14.6h2.4v3.1ZM542.5,297h-1c0-1,.2-2,.4-2.8.3-.9.7-1.6,1.2-2.2.5-.6,1.1-1.1,1.9-1.5.7-.3,1.5-.5,2.4-.5s1.4,0,1.9.3c.6.2,1.1.5,1.5.9.4.4.7,1,.9,1.6.2.7.3,1.5.3,2.5v9.6h-2.5v-9.6c0-.8-.1-1.4-.3-1.8-.2-.5-.6-.8-1-1-.4-.2-1-.3-1.6-.3s-1.2.1-1.7.4c-.5.3-.9.6-1.3,1.1-.4.5-.6,1-.9,1.6-.2.6-.3,1.2-.3,1.9Z"/>
        <path class="st2" d="M558.1,301.9v2c0,.8-.2,1.7-.6,2.6-.4.9-1,1.7-1.7,2.3l-1.4-1c.3-.4.5-.8.7-1.2.2-.4.3-.8.5-1.3s.2-.9.2-1.4v-2.1h2.4Z"/>
        <path class="st2" d="M575.9,287l-6.5,17.9h-2.7l7.5-19.7h1.7v1.7ZM581,297.6v2.1h-11.1v-2.1h11.1ZM581.3,304.9l-6.5-17.9v-1.7s1.7,0,1.7,0l7.5,19.7h-2.7Z"/>
        <path class="st2" d="M589,284.1v20.8h-2.5v-20.8h2.5Z"/>
        <path class="st2" d="M599.1,305.2c-1,0-1.9-.2-2.8-.5-.8-.3-1.5-.8-2.1-1.5-.6-.6-1-1.4-1.4-2.2-.3-.9-.5-1.8-.5-2.8v-.6c0-1.2.2-2.3.5-3.2s.8-1.7,1.4-2.4c.6-.6,1.3-1.1,2.1-1.5.8-.3,1.6-.5,2.4-.5s1.9.2,2.7.5c.8.4,1.4.9,1.9,1.5s.8,1.4,1.1,2.3c.2.9.4,1.8.4,2.8v1.1h-10.9v-2h8.4v-.2c0-.6-.2-1.3-.4-1.9-.2-.6-.6-1.1-1.1-1.5s-1.2-.6-2-.6-1.1.1-1.6.4c-.5.2-.9.6-1.2,1.1s-.6,1-.8,1.7c-.2.7-.3,1.5-.3,2.3v.6c0,.7,0,1.3.3,2,.2.6.5,1.1.9,1.6s.8.8,1.4,1.1,1.1.4,1.8.4,1.6-.2,2.2-.5c.6-.4,1.1-.8,1.6-1.4l1.5,1.2c-.3.5-.7.9-1.2,1.4-.5.4-1.1.8-1.8,1.1-.7.3-1.5.4-2.5.4Z"/>
        <path class="st2" d="M609.4,290.3l3.2,5.3,3.2-5.3h2.9l-4.8,7.2,4.9,7.4h-2.9l-3.4-5.5-3.4,5.5h-2.9l4.9-7.4-4.8-7.2h2.9Z"/>
        <path class="st2" d="M630.5,296v1.8s-2.5,0-2.5,0c-.7,0-1.3,0-1.9.2-.6.1-1,.3-1.4.5-.4.2-.7.5-.9.8-.2.3-.3.7-.3,1.2s.1.9.3,1.3c.2.4.5.7.9.9s.9.3,1.5.3,1.4-.2,2-.5c.6-.3,1.1-.7,1.4-1.2.3-.5.5-.9.6-1.4l1.1,1.2c0,.4-.2.8-.5,1.3-.3.5-.7.9-1.1,1.3-.5.4-1,.8-1.7,1-.6.3-1.4.4-2.1.4s-1.9-.2-2.6-.6c-.7-.4-1.3-.9-1.7-1.6-.4-.7-.6-1.4-.6-2.2s.2-1.5.5-2.1.7-1.1,1.3-1.5,1.3-.7,2.1-.9,1.7-.3,2.7-.3h2.9ZM630.1,302.4v-7.5c0-.6-.1-1.1-.3-1.5-.2-.4-.6-.8-1-1s-1-.4-1.7-.4-1.2.1-1.7.3c-.5.2-.8.5-1.1.9-.3.4-.4.7-.4,1.1h-2.5c0-.5.1-1,.4-1.6.3-.5.7-1,1.2-1.4s1.1-.8,1.8-1,1.5-.4,2.4-.4,2,.2,2.8.5c.8.4,1.5.9,1.9,1.6.5.7.7,1.6.7,2.7v6.8c0,.5,0,1,.1,1.6s.2,1,.4,1.4v.2h-2.6c-.1-.3-.2-.7-.3-1.2s-.1-.9-.1-1.3Z"/>
        <path class="st2" d="M639,293.4v11.5h-2.5v-14.6h2.4v3.1ZM638.4,297h-1c0-1,.2-2,.4-2.8.3-.9.7-1.6,1.2-2.2.5-.6,1.1-1.1,1.9-1.5.7-.3,1.5-.5,2.4-.5s1.4,0,1.9.3c.6.2,1.1.5,1.5.9.4.4.7,1,.9,1.6s.3,1.5.3,2.5v9.6h-2.5v-9.6c0-.8-.1-1.4-.3-1.8-.2-.5-.6-.8-1-1-.4-.2-1-.3-1.6-.3s-1.2.1-1.7.4c-.5.3-.9.6-1.3,1.1-.4.5-.6,1-.9,1.6-.2.6-.3,1.2-.3,1.9Z"/>
        <path class="st2" d="M651.2,297.7v-.3c0-1.1.1-2.1.4-3,.3-.9.7-1.7,1.2-2.4.5-.7,1.1-1.2,1.8-1.5.7-.4,1.5-.5,2.4-.5s1.7.2,2.4.5,1.3.8,1.8,1.4c.5.6.9,1.3,1.1,2.2s.5,1.8.6,2.9v1.2c0,1.1-.3,2-.6,2.9s-.7,1.6-1.1,2.2c-.5.6-1.1,1.1-1.8,1.4-.7.3-1.5.5-2.4.5s-1.6-.2-2.3-.6c-.7-.4-1.3-.9-1.8-1.6-.5-.7-.9-1.5-1.2-2.4-.3-.9-.4-1.9-.4-3ZM653.7,297.5v.3c0,.7,0,1.4.2,2.1.1.6.4,1.2.7,1.7.3.5.7.9,1.2,1.1.5.3,1.1.4,1.7.4s1.5-.2,2-.5c.5-.4,1-.8,1.3-1.4.3-.6.6-1.2.8-1.9v-3.3c-.1-.5-.3-1-.5-1.4-.2-.5-.5-.9-.8-1.2-.3-.4-.7-.7-1.2-.9-.5-.2-1-.3-1.6-.3s-1.3.1-1.8.4c-.5.3-.9.7-1.2,1.2-.3.5-.5,1.1-.7,1.7-.1.6-.2,1.3-.2,2.1ZM661,302.1v-17.9h2.5v20.8h-2.3l-.2-2.8Z"/>
        <path class="st2" d="M669.9,292.6v12.3h-2.5v-14.6h2.4v2.3ZM674.5,290.2v2.3c-.2,0-.4,0-.6,0-.2,0-.4,0-.6,0-.6,0-1.1,0-1.5.3-.4.2-.8.4-1.1.8-.3.3-.5.7-.7,1.2s-.3.9-.3,1.5l-.7.4c0-.9,0-1.7.3-2.5s.4-1.5.8-2.1c.4-.6.8-1.1,1.4-1.4.6-.3,1.3-.5,2-.5s.4,0,.6,0c.2,0,.4,0,.5.1Z"/>
        <path class="st2" d="M676.8,286.4c0-.4.1-.7.4-1s.6-.4,1.1-.4.8.1,1.1.4c.3.3.4.6.4,1s-.1.7-.4,1c-.3.3-.6.4-1.1.4s-.9-.1-1.1-.4c-.2-.3-.4-.6-.4-1ZM679.5,290.3v14.6h-2.5v-14.6h2.5Z"/>
        <path class="st2" d="M692.6,296v1.8s-2.5,0-2.5,0c-.7,0-1.3,0-1.9.2-.6.1-1,.3-1.4.5-.4.2-.7.5-.9.8-.2.3-.3.7-.3,1.2s.1.9.3,1.3c.2.4.5.7.9.9s.9.3,1.5.3,1.4-.2,2-.5c.6-.3,1.1-.7,1.4-1.2.3-.5.5-.9.6-1.4l1.1,1.2c0,.4-.2.8-.5,1.3-.3.5-.7.9-1.1,1.3-.5.4-1,.8-1.7,1-.6.3-1.4.4-2.1.4s-1.9-.2-2.6-.6c-.7-.4-1.3-.9-1.7-1.6-.4-.7-.6-1.4-.6-2.2s.2-1.5.5-2.1.7-1.1,1.3-1.5,1.3-.7,2.1-.9,1.7-.3,2.7-.3h2.9ZM692.2,302.4v-7.5c0-.6-.1-1.1-.3-1.5-.2-.4-.6-.8-1-1s-1-.4-1.7-.4-1.2.1-1.7.3c-.5.2-.8.5-1.1.9-.3.4-.4.7-.4,1.1h-2.5c0-.5.1-1,.4-1.6.3-.5.7-1,1.2-1.4s1.1-.8,1.8-1,1.5-.4,2.4-.4,2,.2,2.8.5c.8.4,1.5.9,1.9,1.6.5.7.7,1.6.7,2.7v6.8c0,.5,0,1,.1,1.6s.2,1,.4,1.4v.2h-2.6c-.1-.3-.2-.7-.3-1.2s-.1-.9-.1-1.3Z"/>
        <path class="st2" d="M706.8,285.2l5.7,16.7.7,3h-2l-7.3-19.7h2.8ZM712.2,301.9l5.8-16.7h2.8l-7.3,19.7h-2l.7-3Z"/>
        <path class="st2" d="M729.8,287l-6.5,17.9h-2.7l7.5-19.7h1.7v1.7ZM734.9,297.6v2.1h-11.1v-2.1h11.1ZM735.2,304.9l-6.5-17.9v-1.7s1.7,0,1.7,0l7.5,19.7h-2.7Z"/>
      </g>
    </g>
    <g class="st1">
      <g class="st1">
        <path class="st2" d="M538.2,326.2l-5.1,13.9h-2.1l5.8-15.3h1.3v1.4ZM542.2,334.4v1.7h-8.6v-1.7h8.6ZM542.4,340.1l-5.1-13.9v-1.4s1.3,0,1.3,0l5.8,15.3h-2.1Z"/>
        <path class="st2" d="M553.5,335.1h.8c0,.7,0,1.4-.2,2.1-.2.6-.4,1.2-.8,1.7-.4.5-.8.8-1.4,1.1-.6.3-1.3.4-2.1.4s-1.1,0-1.5-.2-.9-.4-1.2-.7c-.3-.3-.6-.8-.8-1.3-.2-.5-.3-1.2-.3-1.9v-7.3h1.9v7.3c0,.5,0,.9.2,1.3.1.3.3.6.5.8.2.2.4.3.7.4s.5.1.8.1c.8,0,1.5-.2,2-.5s.8-.7,1-1.3.3-1.1.3-1.8ZM553.1,337.5v-8.7h2v11.4h-1.9v-2.6Z"/>
        <path class="st2" d="M557.5,334.5v-.2c0-.9.1-1.7.3-2.4.2-.7.5-1.3.9-1.8.4-.5.9-.9,1.4-1.2s1.2-.4,1.9-.4,1.3.1,1.9.4c.5.2,1,.6,1.4,1.1.4.5.7,1,.9,1.7.2.7.4,1.4.5,2.3v1c0,.8-.2,1.6-.4,2.2-.2.7-.5,1.2-.9,1.7-.4.5-.8.8-1.4,1.1-.5.2-1.2.4-1.9.4s-1.3-.1-1.8-.4c-.5-.3-1-.7-1.4-1.2s-.7-1.1-.9-1.8c-.2-.7-.3-1.5-.3-2.3ZM565.4,328.7h1.8v11.1c0,1-.2,1.9-.6,2.6s-1,1.2-1.7,1.6c-.7.4-1.6.6-2.5.6s-.9,0-1.4-.2c-.5-.1-1-.3-1.6-.6-.5-.3-.9-.7-1.3-1.2l1-1.2c.5.6,1,1,1.5,1.2.5.2,1,.3,1.5.3s1.1-.1,1.6-.3c.4-.2.8-.6,1-1,.2-.5.4-1,.4-1.7v-8.7l.2-2.5ZM559.5,334.3v.2c0,.6,0,1.1.2,1.6.1.5.3.9.5,1.3.2.4.6.7.9.9.4.2.8.3,1.4.3s1.2-.1,1.6-.4.8-.6,1-1.1c.2-.4.4-.9.6-1.5v-2.5c0-.4-.2-.8-.4-1.1-.2-.4-.4-.7-.6-1-.2-.3-.6-.5-.9-.7-.4-.2-.8-.3-1.3-.3s-1,.1-1.4.3c-.4.2-.7.5-.9.9-.2.4-.4.8-.5,1.3-.1.5-.2,1-.2,1.6Z"/>
        <path class="st2" d="M577.4,335.1h.8c0,.7,0,1.4-.2,2.1-.2.6-.4,1.2-.8,1.7-.4.5-.8.8-1.4,1.1-.6.3-1.3.4-2.1.4s-1.1,0-1.5-.2-.9-.4-1.2-.7c-.3-.3-.6-.8-.8-1.3-.2-.5-.3-1.2-.3-1.9v-7.3h1.9v7.3c0,.5,0,.9.2,1.3.1.3.3.6.5.8.2.2.4.3.7.4s.5.1.8.1c.8,0,1.5-.2,2-.5s.8-.7,1-1.3.3-1.1.3-1.8ZM577,337.5v-8.7h2v11.4h-1.9v-2.6Z"/>
        <path class="st2" d="M588.5,337.1c0-.3,0-.5-.2-.8s-.4-.5-.7-.7c-.4-.2-.9-.4-1.7-.5-.6-.1-1.2-.3-1.7-.5-.5-.2-.9-.4-1.3-.7-.4-.3-.6-.6-.8-.9-.2-.3-.3-.8-.3-1.2s0-.9.3-1.3c.2-.4.5-.8.9-1.1.4-.3.8-.5,1.3-.7s1.1-.3,1.7-.3c.9,0,1.7.2,2.3.5.6.3,1.1.8,1.5,1.3s.5,1.1.5,1.8h-1.9c0-.3,0-.6-.3-.9-.2-.3-.5-.5-.8-.7-.4-.2-.8-.3-1.3-.3s-1,0-1.3.2c-.3.2-.6.4-.7.6s-.2.5-.2.8,0,.4.1.6c0,.2.2.3.4.5s.5.3.8.4c.3.1.8.2,1.3.4.9.2,1.7.5,2.3.8s1,.7,1.3,1.1.4.9.4,1.6-.1,1-.3,1.4c-.2.4-.5.8-.9,1.1-.4.3-.9.5-1.4.7-.5.2-1.1.2-1.8.2-1,0-1.8-.2-2.5-.5-.7-.4-1.2-.8-1.6-1.4-.4-.6-.5-1.2-.5-1.8h2c0,.5.2,1,.5,1.3.3.3.6.5,1,.7.4.1.8.2,1.2.2s1,0,1.3-.2.6-.3.8-.6.3-.5.3-.8Z"/>
        <path class="st2" d="M597.8,328.7v1.5h-6.1v-1.5h6.1ZM593.7,326h1.9v11.3c0,.4,0,.7.2.9.1.2.3.3.5.4.2,0,.4,0,.6,0s.3,0,.5,0c.2,0,.3,0,.4,0v1.6c-.1,0-.3,0-.6.1-.2,0-.5,0-.9,0s-.9,0-1.3-.3c-.4-.2-.7-.5-1-1s-.4-1-.4-1.8v-11.3Z"/>
        <path class="st2" d="M615.2,338.5v1.6h-10v-1.4l5-5.6c.6-.7,1.1-1.3,1.4-1.7.3-.5.6-.9.7-1.3s.2-.8.2-1.2-.1-1-.3-1.4c-.2-.4-.5-.7-.9-1-.4-.2-.9-.4-1.4-.4s-1.2.1-1.7.4-.8.6-1,1.1c-.2.5-.3,1-.3,1.6h-1.9c0-.9.2-1.6.6-2.4s.9-1.3,1.7-1.7c.7-.4,1.7-.6,2.7-.6s1.8.2,2.5.5c.7.3,1.2.8,1.6,1.4.4.6.6,1.3.6,2.1s0,.9-.2,1.4-.4.9-.6,1.4-.6.9-.9,1.3c-.3.4-.7.9-1.1,1.3l-4.1,4.4h7.7Z"/>
        <path class="st2" d="M626.9,331.2v2.3c0,1.3-.1,2.3-.3,3.2-.2.9-.5,1.6-1,2.1-.4.5-.9.9-1.5,1.1s-1.3.4-2,.4-1.1,0-1.6-.2c-.5-.1-.9-.4-1.3-.7-.4-.3-.7-.8-1-1.3-.3-.5-.5-1.2-.6-1.9-.1-.7-.2-1.6-.2-2.6v-2.3c0-1.3.1-2.3.3-3.1s.6-1.5,1-2,.9-.9,1.5-1.1c.6-.2,1.3-.3,2-.3s1.1,0,1.6.2c.5.1.9.4,1.3.7.4.3.7.7,1,1.2.3.5.5,1.1.6,1.9.1.7.2,1.6.2,2.6ZM624.9,333.9v-3c0-.7,0-1.3-.1-1.8,0-.5-.2-1-.4-1.3-.2-.4-.3-.7-.6-.9-.2-.2-.5-.4-.8-.5s-.6-.2-1-.2-.9,0-1.2.3c-.4.2-.7.4-.9.8s-.4.9-.6,1.5-.2,1.3-.2,2.2v3c0,.7,0,1.3.1,1.8,0,.5.2,1,.4,1.4.2.4.4.7.6.9.2.2.5.4.8.5.3.1.6.2,1,.2s.9,0,1.2-.3c.4-.2.7-.5.9-.9.2-.4.4-.9.5-1.5s.2-1.3.2-2.2Z"/>
        <path class="st2" d="M639.4,338.5v1.6h-10v-1.4l5-5.6c.6-.7,1.1-1.3,1.4-1.7.3-.5.6-.9.7-1.3.1-.4.2-.8.2-1.2s-.1-1-.3-1.4c-.2-.4-.5-.7-.9-1-.4-.2-.9-.4-1.4-.4s-1.2.1-1.7.4c-.5.3-.8.6-1,1.1-.2.5-.3,1-.3,1.6h-1.9c0-.9.2-1.6.6-2.4s.9-1.3,1.7-1.7c.7-.4,1.7-.6,2.7-.6s1.8.2,2.5.5c.7.3,1.2.8,1.6,1.4.4.6.6,1.3.6,2.1s0,.9-.2,1.4c-.2.5-.4.9-.6,1.4-.3.5-.6.9-.9,1.3-.3.4-.7.9-1.1,1.3l-4.1,4.4h7.7Z"/>
        <path class="st2" d="M647.8,324.7v15.4h-1.9v-12.9l-3.9,1.4v-1.8l5.6-2.1h.3Z"/>
      </g>
    </g>
  </g>
  <g>
    <path class="st0" d="M509.1,383.8c-.6.3-1.2-.2-1.1-.9l1.2-7.1-5.3-5c-.5-.5-.2-1.3.4-1.4l7.3-1,3.3-6.5c.3-.6,1.1-.6,1.4,0l3.3,6.5,7.3,1c.7,0,.9,1,.4,1.4l-5.3,5,1.2,7.1c0,.7-.5,1.2-1.1.9l-6.6-3.4-6.6,3.4h.2Z"/>
    <path class="st0" d="M547.4,384.1c-.6.3-1.2-.2-1.1-.9l1.2-7.1-5.3-5c-.5-.5-.2-1.3.4-1.4l7.3-1,3.3-6.5c.3-.6,1.1-.6,1.4,0l3.3,6.5,7.3,1c.7,0,.9,1,.4,1.4l-5.3,5,1.2,7.1c0,.7-.5,1.2-1.1.9l-6.6-3.4-6.6,3.4h.2Z"/>
    <path class="st0" d="M585.8,384.1c-.6.3-1.2-.2-1.1-.9l1.2-7.1-5.3-5c-.5-.5-.2-1.3.4-1.4l7.3-1,3.3-6.5c.3-.6,1.1-.6,1.4,0l3.3,6.5,7.3,1c.7,0,.9,1,.4,1.4l-5.3,5,1.2,7.1c0,.7-.5,1.2-1.1.9l-6.6-3.4-6.6,3.4h.2Z"/>
    <path class="st0" d="M624.2,384.1c-.6.3-1.2-.2-1.1-.9l1.2-7.1-5.3-5c-.5-.5-.2-1.3.4-1.4l7.3-1,3.3-6.5c.3-.6,1.1-.6,1.4,0l3.3,6.5,7.3,1c.7,0,.9,1,.4,1.4l-5.3,5,1.2,7.1c0,.7-.5,1.2-1.1.9l-6.6-3.4-6.6,3.4h.2Z"/>
    <path class="st0" d="M660.8,384.1c-.6.3-1.2-.2-1.1-.9l1.2-7.1-5.3-5c-.5-.5-.2-1.3.4-1.4l7.3-1,3.3-6.5c.3-.6,1.1-.6,1.4,0l3.3,6.5,7.3,1c.7,0,.9,1,.4,1.4l-5.3,5,1.2,7.1c0,.7-.5,1.2-1.1.9l-6.6-3.4-6.6,3.4h.2Z"/>
  </g>
</svg>