<?xml version="1.0" encoding="UTF-8"?>
<svg id="Layer_1" xmlns="http://www.w3.org/2000/svg" xmlns:xlink="http://www.w3.org/1999/xlink" version="1.1" viewBox="0 0 1183 459">
  <!-- Generator: Adobe Illustrator 29.2.1, SVG Export Plug-In . SVG Version: 2.1.0 Build 116)  -->
  <defs>
    <style>
      .st0 {
        fill: #213133;
        stroke: #000;
        stroke-miterlimit: 10;
      }

      .st1 {
        isolation: isolate;
      }

      .st2 {
        fill: #0896a6;
      }
    </style>
  </defs>
  <path class="st2" d="M224,137c2.3,0,4.2-1.9,4.2-4.2v-10.3c0-2.3-1.9-4.2-4.2-4.2h-5.8c0-1.5,0-2.9.3-4.4.3-1.6.7-2.9,1.3-4.2.6-1.2,1.4-2.2,2.4-2.9.9-.8,2.2-1.2,3.6-1.2v-6.5c-2.4,0-4.6.5-6.4,1.6-1.8,1-3.4,2.5-4.6,4.2-1.2,1.9-2.1,4-2.6,6.1-.5,2.4-.8,4.8-.8,7.3v14.5c0,2.3,1.9,4.2,4.2,4.2h8.4ZM198.8,137c2.3,0,4.2-1.9,4.2-4.2v-10.3c0-2.3-1.9-4.2-4.2-4.2h-5.8c0-1.5,0-2.9.3-4.4.3-1.6.7-2.9,1.3-4.2.6-1.2,1.4-2.2,2.4-2.9.9-.8,2.2-1.2,3.6-1.2v-6.5c-2.4,0-4.6.5-6.4,1.6-1.8,1-3.4,2.5-4.6,4.2-1.2,1.9-2.1,4-2.6,6.1-.5,2.4-.8,4.8-.8,7.3v14.5c0,2.3,1.9,4.2,4.2,4.2h8.4Z"/>
  <path class="st2" d="M958.6,94c-2.3,0-4.2,1.9-4.2,4.2v10.3c0,2.3,1.9,4.2,4.2,4.2h5.8c0,1.5,0,2.9-.3,4.4-.3,1.6-.7,2.9-1.3,4.2-.6,1.2-1.4,2.2-2.3,2.9-1,.8-2.2,1.2-3.7,1.2v6.5c2.4,0,4.6-.5,6.4-1.6,1.8-1,3.4-2.5,4.6-4.2,1.2-1.9,2.1-4,2.6-6.1.5-2.4.8-4.8.8-7.3v-14.5c0-2.3-1.9-4.2-4.2-4.2h-8.4,0ZM983.8,94c-2.3,0-4.2,1.9-4.2,4.2v10.3c0,2.3,1.9,4.2,4.2,4.2h5.8c0,1.5,0,2.9-.3,4.4-.3,1.6-.7,2.9-1.3,4.2-.6,1.2-1.4,2.2-2.3,2.9-1,.8-2.2,1.2-3.7,1.2v6.5c2.4,0,4.6-.5,6.4-1.6,1.8-1,3.4-2.5,4.6-4.2,1.2-1.9,2.1-4,2.6-6.1.5-2.4.8-4.8.8-7.3v-14.5c0-2.3-1.9-4.2-4.2-4.2h-8.4,0Z"/>
  <path class="st0" d="M529.2,380.2c-.6.3-1.2-.2-1.1-.9l1.2-7.1-5.3-5c-.5-.5-.2-1.3.4-1.4l7.3-1,3.3-6.5c.3-.6,1.1-.6,1.4,0l3.3,6.5,7.3,1c.7,0,.9,1,.4,1.4l-5.3,5,1.2,7.1c0,.7-.5,1.2-1.1.9l-6.6-3.4-6.6,3.4h.2Z"/>
  <path class="st0" d="M567.5,380.5c-.6.3-1.2-.2-1.1-.9l1.2-7.1-5.3-5c-.5-.5-.2-1.3.4-1.4l7.3-1,3.3-6.5c.3-.6,1.1-.6,1.4,0l3.3,6.5,7.3,1c.7,0,.9,1,.4,1.4l-5.3,5,1.2,7.1c0,.7-.5,1.2-1.1.9l-6.6-3.4-6.6,3.4h.2Z"/>
  <path class="st0" d="M605.9,380.5c-.6.3-1.2-.2-1.1-.9l1.2-7.1-5.3-5c-.5-.5-.2-1.3.4-1.4l7.3-1,3.3-6.5c.3-.6,1.1-.6,1.4,0l3.3,6.5,7.3,1c.7,0,.9,1,.4,1.4l-5.3,5,1.2,7.1c0,.7-.5,1.2-1.1.9l-6.6-3.4-6.6,3.4h.2Z"/>
  <path class="st0" d="M644.3,380.5c-.6.3-1.2-.2-1.1-.9l1.2-7.1-5.3-5c-.5-.5-.2-1.3.4-1.4l7.3-1,3.3-6.5c.3-.6,1.1-.6,1.4,0l3.3,6.5,7.3,1c.7,0,.9,1,.4,1.4l-5.3,5,1.2,7.1c0,.7-.5,1.2-1.1.9l-6.6-3.4-6.6,3.4h.2Z"/>
  <g>
    <g class="st1">
      <g class="st1">
        <g class="st1">
          <path d="M263.4,114h2.9l.5,12.4v5.5h-3.4v-18ZM264.9,114h2.9l4.9,13.5,4.9-13.5h3l-6.7,18h-2.4l-6.7-18ZM279.2,114h2.9v18h-3.4v-5.5l.5-12.4Z"/>
          <path d="M287.5,118.6l3,9.8.5,3.4-2.2.4-4.8-13.7h3.5ZM289.2,130.5l3.6-11.9h3.5l-5.4,15.4c-.1.3-.3.7-.5,1.1-.2.4-.5.8-.8,1.1-.3.3-.7.6-1.2.9-.5.2-1.1.3-1.7.3s-.6,0-.8,0c-.2,0-.5,0-.7-.2v-2.4c0,0,.2,0,.3,0,.1,0,.2,0,.3,0,.5,0,.9,0,1.2-.2.3-.1.6-.3.8-.5.2-.2.4-.6.5-.9l1-2.6Z"/>
          <path d="M310.2,132.2c-1,0-1.9-.2-2.7-.5s-1.5-.8-2.1-1.4c-.6-.6-1-1.3-1.3-2.1-.3-.8-.5-1.6-.5-2.5v-.5c0-1,.1-2,.4-2.8.3-.8.7-1.6,1.3-2.2.5-.6,1.2-1.1,2-1.4.8-.3,1.6-.5,2.5-.5s1.8.2,2.5.5,1.3.8,1.8,1.3c.5.6.9,1.3,1.1,2.1.2.8.4,1.7.4,2.7v1.4h-10.5v-2.2h7.3v-.2c0-.5-.1-1-.3-1.4-.2-.4-.5-.8-.8-1-.4-.3-.9-.4-1.5-.4s-.9.1-1.3.3c-.4.2-.7.5-.9.9-.2.4-.4.8-.5,1.4-.1.5-.2,1.1-.2,1.8v.5c0,.6,0,1.1.2,1.6.2.5.4.9.7,1.2.3.4.7.6,1.1.8.4.2.9.3,1.5.3s1.3-.1,1.9-.4c.6-.3,1-.7,1.5-1.2l1.6,1.7c-.3.4-.7.8-1.1,1.2-.5.4-1,.7-1.7.9s-1.4.4-2.3.4Z"/>
          <path d="M320.3,118.6l2.4,4.2,2.4-4.2h3.5l-3.9,6.5,4.1,6.8h-3.5l-2.6-4.5-2.6,4.5h-3.5l4.1-6.8-3.9-6.5h3.5Z"/>
          <path d="M333.8,121.2v15.9h-3.3v-18.5h3l.2,2.6ZM342.4,125.2v.3c0,1-.1,1.9-.3,2.7s-.6,1.5-1,2.2-1,1.1-1.6,1.4-1.4.5-2.2.5-1.5-.2-2.1-.5c-.6-.3-1.1-.8-1.5-1.4-.4-.6-.8-1.3-1-2-.3-.8-.4-1.6-.6-2.6v-.8c.1-1,.3-1.9.6-2.7.3-.8.6-1.5,1-2.1.4-.6.9-1,1.5-1.4.6-.3,1.3-.5,2.1-.5s1.6.2,2.2.5c.6.3,1.2.8,1.6,1.4s.8,1.3,1,2.1c.2.8.3,1.8.3,2.8ZM339.1,125.4v-.3c0-.6,0-1.1-.2-1.6-.1-.5-.3-1-.5-1.3-.2-.4-.5-.7-.9-.9-.4-.2-.8-.3-1.3-.3s-.9,0-1.3.2c-.4.2-.7.4-.9.7s-.4.7-.5,1.1c-.1.4-.2.9-.3,1.4v2.1c0,.6.2,1.2.4,1.6.2.5.5.9.9,1.2.4.3,1,.4,1.6.4s.9-.1,1.3-.3c.4-.2.6-.5.9-.9.2-.4.4-.8.5-1.4,0-.5.1-1.1.1-1.6Z"/>
          <path d="M350.8,132.2c-1,0-1.9-.2-2.7-.5s-1.5-.8-2.1-1.4c-.6-.6-1-1.3-1.3-2.1-.3-.8-.5-1.6-.5-2.5v-.5c0-1,.1-2,.4-2.8.3-.8.7-1.6,1.3-2.2.5-.6,1.2-1.1,2-1.4.8-.3,1.6-.5,2.5-.5s1.8.2,2.5.5,1.3.8,1.8,1.3c.5.6.9,1.3,1.1,2.1.2.8.4,1.7.4,2.7v1.4h-10.5v-2.2h7.3v-.2c0-.5-.1-1-.3-1.4-.2-.4-.5-.8-.8-1-.4-.3-.9-.4-1.5-.4s-.9.1-1.3.3c-.4.2-.7.5-.9.9-.2.4-.4.8-.5,1.4-.1.5-.2,1.1-.2,1.8v.5c0,.6,0,1.1.2,1.6.2.5.4.9.7,1.2.3.4.7.6,1.1.8.4.2.9.3,1.5.3s1.3-.1,1.9-.4c.6-.3,1-.7,1.5-1.2l1.6,1.7c-.3.4-.7.8-1.1,1.2-.5.4-1,.7-1.7.9s-1.4.4-2.3.4Z"/>
          <path d="M361.7,121.3v10.6h-3.3v-13.4h3.1l.2,2.7ZM365.7,118.5v3c-.2,0-.4,0-.7,0s-.4,0-.6,0c-.5,0-.9,0-1.3.2-.4.1-.7.3-.9.6-.3.3-.4.6-.6.9-.1.4-.2.8-.2,1.2h-.7c0-.9,0-1.7.3-2.4s.4-1.4.8-1.9c.3-.5.7-1,1.2-1.3.5-.3,1.1-.5,1.7-.5s.4,0,.6,0c.2,0,.4,0,.5.1Z"/>
          <path d="M367.5,115.1c0-.5.2-.9.5-1.2.3-.3.8-.5,1.4-.5s1,.2,1.4.5c.3.3.5.7.5,1.2s-.2.9-.5,1.2c-.3.3-.8.5-1.4.5s-1-.2-1.4-.5c-.3-.3-.5-.7-.5-1.2ZM371,118.6v13.4h-3.3v-13.4h3.3Z"/>
          <path d="M380.1,132.2c-1,0-1.9-.2-2.7-.5s-1.5-.8-2.1-1.4c-.6-.6-1-1.3-1.3-2.1-.3-.8-.5-1.6-.5-2.5v-.5c0-1,.1-2,.4-2.8.3-.8.7-1.6,1.3-2.2.5-.6,1.2-1.1,2-1.4.8-.3,1.6-.5,2.5-.5s1.8.2,2.5.5,1.3.8,1.8,1.3c.5.6.9,1.3,1.1,2.1.2.8.4,1.7.4,2.7v1.4h-10.5v-2.2h7.3v-.2c0-.5-.1-1-.3-1.4-.2-.4-.5-.8-.8-1-.4-.3-.9-.4-1.5-.4s-.9.1-1.3.3c-.4.2-.7.5-.9.9-.2.4-.4.8-.5,1.4-.1.5-.2,1.1-.2,1.8v.5c0,.6,0,1.1.2,1.6.2.5.4.9.7,1.2.3.4.7.6,1.1.8.4.2.9.3,1.5.3s1.3-.1,1.9-.4c.6-.3,1-.7,1.5-1.2l1.6,1.7c-.3.4-.7.8-1.1,1.2-.5.4-1,.7-1.7.9s-1.4.4-2.3.4Z"/>
          <path d="M390.9,121.5v10.5h-3.3v-13.4h3.1l.2,2.9ZM390.4,124.8h-1c0-1,.1-1.9.4-2.6s.6-1.5,1.1-2c.5-.6,1-1,1.7-1.3s1.4-.5,2.1-.5,1.2,0,1.7.3c.5.2,1,.5,1.3.9.4.4.7.9.9,1.6s.3,1.4.3,2.4v8.6h-3.3v-8.6c0-.6,0-1.1-.3-1.4-.2-.4-.4-.6-.8-.8-.3-.1-.7-.2-1.2-.2s-.9.1-1.3.3c-.4.2-.7.5-.9.8-.3.4-.4.8-.6,1.2-.1.5-.2,1-.2,1.5Z"/>
          <path d="M407.3,129.7c.5,0,.9,0,1.2-.3s.7-.4.9-.8c.2-.3.3-.7.4-1.1h3.1c0,.9-.3,1.7-.8,2.4s-1.2,1.3-2,1.7c-.8.4-1.7.6-2.7.6s-1.9-.2-2.7-.5c-.8-.3-1.4-.8-1.9-1.4s-.9-1.3-1.1-2.1c-.3-.8-.4-1.7-.4-2.6v-.4c0-.9.1-1.8.4-2.6.3-.8.6-1.5,1.1-2.1s1.1-1.1,1.9-1.4c.8-.3,1.7-.5,2.7-.5s2,.2,2.8.6,1.5,1,1.9,1.8c.5.8.7,1.7.7,2.7h-3.1c0-.5-.1-.9-.3-1.3-.2-.4-.5-.7-.8-.9s-.8-.3-1.3-.3-1,.1-1.4.3c-.4.2-.7.5-.9.9-.2.4-.3.8-.4,1.3,0,.5-.1,1-.1,1.5v.4c0,.5,0,1.1.1,1.6,0,.5.2.9.4,1.3.2.4.5.7.9.9.4.2.8.3,1.4.3Z"/>
          <path d="M421,132.2c-1,0-1.9-.2-2.7-.5s-1.5-.8-2.1-1.4c-.6-.6-1-1.3-1.3-2.1-.3-.8-.5-1.6-.5-2.5v-.5c0-1,.1-2,.4-2.8.3-.8.7-1.6,1.3-2.2.5-.6,1.2-1.1,2-1.4.8-.3,1.6-.5,2.5-.5s1.8.2,2.5.5,1.3.8,1.8,1.3c.5.6.9,1.3,1.1,2.1.2.8.4,1.7.4,2.7v1.4h-10.5v-2.2h7.3v-.2c0-.5-.1-1-.3-1.4-.2-.4-.5-.8-.8-1-.4-.3-.9-.4-1.5-.4s-.9.1-1.3.3c-.4.2-.7.5-.9.9-.2.4-.4.8-.5,1.4-.1.5-.2,1.1-.2,1.8v.5c0,.6,0,1.1.2,1.6.2.5.4.9.7,1.2.3.4.7.6,1.1.8.4.2.9.3,1.5.3s1.3-.1,1.9-.4c.6-.3,1-.7,1.5-1.2l1.6,1.7c-.3.4-.7.8-1.1,1.2-.5.4-1,.7-1.7.9s-1.4.4-2.3.4Z"/>
          <path d="M442.7,123.8v1.9s-2,0-2,0c-.5,0-1,0-1.3.2-.4.1-.7.3-1,.4s-.4.4-.6.7c-.1.3-.2.6-.2.9s0,.6.2.9c.2.3.4.5.7.6s.6.2,1,.2c.6,0,1.1-.1,1.5-.4.4-.2.8-.5,1-.9.2-.3.4-.7.4-1l.9,1.4c-.1.3-.3.7-.5,1.1-.2.4-.5.7-.9,1.1-.4.3-.8.6-1.3.8-.5.2-1.1.3-1.8.3s-1.6-.2-2.3-.5c-.7-.3-1.2-.8-1.6-1.4-.4-.6-.6-1.3-.6-2.1s.1-1.3.4-1.9.7-1,1.2-1.4c.5-.4,1.2-.7,1.9-.9s1.7-.3,2.6-.3h2.2ZM442.3,129.1v-6.2c0-.5,0-.8-.2-1.2-.2-.3-.4-.6-.7-.8-.3-.2-.7-.3-1.2-.3s-.8,0-1.1.2c-.3.1-.6.4-.7.6-.2.3-.3.6-.3.9h-3.3c0-.6.1-1.1.4-1.6.3-.5.6-.9,1.1-1.3.5-.4,1.1-.7,1.8-.9.7-.2,1.5-.3,2.3-.3s1.9.2,2.7.5c.8.3,1.4.9,1.9,1.5s.7,1.5.7,2.6v5.8c0,.7,0,1.2.1,1.7s.2.9.4,1.2v.2h-3.3c-.2-.3-.3-.8-.4-1.3,0-.5-.1-1-.1-1.5Z"/>
          <path d="M454.8,118.6v2.3h-7.7v-2.3h7.7ZM449.2,115.3h3.3v12.8c0,.4,0,.7.2.9.1.2.3.4.5.4.2,0,.5.1.8.1s.4,0,.6,0c.2,0,.3,0,.5,0v2.4c-.3,0-.6.2-.9.2s-.7,0-1.2,0c-.7,0-1.4-.1-1.9-.4-.6-.3-1-.7-1.3-1.2-.3-.6-.5-1.3-.5-2.2v-13.1Z"/>
          <path d="M474.1,126.1h3.4c0,1.2-.4,2.3-1,3.2-.6.9-1.4,1.7-2.4,2.2s-2.3.8-3.7.8-2.1-.2-3-.6c-.9-.4-1.7-1-2.3-1.7s-1.1-1.6-1.5-2.7c-.3-1-.5-2.2-.5-3.5v-1.4c0-1.3.2-2.5.5-3.5.3-1.1.8-2,1.5-2.7.6-.7,1.4-1.3,2.3-1.7.9-.4,1.9-.6,3.1-.6s2.7.3,3.7.8c1,.5,1.8,1.3,2.4,2.2.6.9.9,2,1,3.2h-3.4c0-.8-.2-1.4-.5-1.9-.3-.5-.6-.9-1.2-1.2s-1.2-.4-2-.4-1.2.1-1.7.4c-.5.2-.9.6-1.2,1.1s-.6,1.1-.7,1.8c-.2.7-.2,1.6-.2,2.5v1.4c0,.9,0,1.7.2,2.5.1.7.4,1.3.7,1.8s.7.9,1.2,1.1c.5.3,1.1.4,1.8.4s1.5-.1,2-.4c.5-.3.9-.7,1.2-1.2.3-.5.5-1.1.5-1.9Z"/>
          <path d="M487.7,123.8v1.9s-2,0-2,0c-.5,0-1,0-1.3.2-.4.1-.7.3-1,.4s-.4.4-.6.7c-.1.3-.2.6-.2.9s0,.6.2.9c.2.3.4.5.7.6s.6.2,1,.2c.6,0,1.1-.1,1.5-.4.4-.2.8-.5,1-.9.2-.3.4-.7.4-1l.9,1.4c-.1.3-.3.7-.5,1.1-.2.4-.5.7-.9,1.1-.4.3-.8.6-1.3.8-.5.2-1.1.3-1.8.3s-1.6-.2-2.3-.5c-.7-.3-1.2-.8-1.6-1.4-.4-.6-.6-1.3-.6-2.1s.1-1.3.4-1.9.7-1,1.2-1.4c.5-.4,1.2-.7,1.9-.9s1.7-.3,2.6-.3h2.2ZM487.2,129.1v-6.2c0-.5,0-.8-.2-1.2-.2-.3-.4-.6-.7-.8-.3-.2-.7-.3-1.2-.3s-.8,0-1.1.2c-.3.1-.6.4-.7.6-.2.3-.3.6-.3.9h-3.3c0-.6.1-1.1.4-1.6.3-.5.6-.9,1.1-1.3.5-.4,1.1-.7,1.8-.9.7-.2,1.5-.3,2.3-.3s1.9.2,2.7.5c.8.3,1.4.9,1.9,1.5s.7,1.5.7,2.6v5.8c0,.7,0,1.2.1,1.7s.2.9.4,1.2v.2h-3.3c-.2-.3-.3-.8-.4-1.3,0-.5-.1-1-.1-1.5Z"/>
          <path d="M496.7,121.3v10.6h-3.3v-13.4h3.1l.2,2.7ZM500.7,118.5v3c-.2,0-.4,0-.7,0s-.4,0-.6,0c-.5,0-.9,0-1.3.2-.4.1-.7.3-.9.6-.3.3-.4.6-.6.9-.1.4-.2.8-.2,1.2h-.7c0-.9,0-1.7.3-2.4s.4-1.4.8-1.9c.3-.5.7-1,1.2-1.3.5-.3,1.1-.5,1.7-.5s.4,0,.6,0c.2,0,.4,0,.5.1Z"/>
          <path d="M501.7,125.5v-.3c0-1,.1-1.9.4-2.8.2-.8.6-1.6,1-2.2.5-.6,1-1.1,1.6-1.4.6-.3,1.4-.5,2.2-.5s1.5.2,2.1.5c.6.3,1.1.8,1.5,1.4.4.6.8,1.3,1,2.1.3.8.4,1.7.6,2.7v.7c-.1.9-.3,1.8-.6,2.6s-.6,1.5-1,2.1-.9,1-1.5,1.4c-.6.3-1.3.5-2.1.5s-1.5-.2-2.2-.5c-.6-.3-1.2-.8-1.6-1.4s-.8-1.3-1-2.1c-.2-.8-.4-1.7-.4-2.7ZM505,125.2v.3c0,.6,0,1.1.1,1.6,0,.5.3.9.5,1.3.2.4.5.7.9.9.3.2.8.3,1.3.3s1.2-.1,1.6-.4c.4-.3.7-.7,1-1.2.2-.5.4-1.1.4-1.7v-1.9c0-.5-.1-1-.3-1.4-.1-.4-.3-.8-.6-1.1-.2-.3-.5-.5-.9-.7-.4-.2-.8-.3-1.3-.3s-.9.1-1.3.3c-.4.2-.6.5-.9.9-.2.4-.4.8-.5,1.3-.1.5-.2,1.1-.2,1.7ZM510.3,129.1v-16.1h3.3v19h-3l-.3-2.8Z"/>
          <path d="M522.5,132.2c-1,0-1.9-.2-2.7-.5s-1.5-.8-2.1-1.4c-.6-.6-1-1.3-1.3-2.1-.3-.8-.5-1.6-.5-2.5v-.5c0-1,.1-2,.4-2.8.3-.8.7-1.6,1.3-2.2.5-.6,1.2-1.1,2-1.4.8-.3,1.6-.5,2.5-.5s1.8.2,2.5.5,1.3.8,1.8,1.3c.5.6.9,1.3,1.1,2.1.2.8.4,1.7.4,2.7v1.4h-10.5v-2.2h7.3v-.2c0-.5-.1-1-.3-1.4-.2-.4-.5-.8-.8-1-.4-.3-.9-.4-1.5-.4s-.9.1-1.3.3c-.4.2-.7.5-.9.9-.2.4-.4.8-.5,1.4-.1.5-.2,1.1-.2,1.8v.5c0,.6,0,1.1.2,1.6.2.5.4.9.7,1.2.3.4.7.6,1.1.8.4.2.9.3,1.5.3s1.3-.1,1.9-.4c.6-.3,1-.7,1.5-1.2l1.6,1.7c-.3.4-.7.8-1.1,1.2-.5.4-1,.7-1.7.9s-1.4.4-2.3.4Z"/>
          <path d="M538,123.8v1.9s-2,0-2,0c-.5,0-1,0-1.3.2-.4.1-.7.3-1,.4s-.4.4-.6.7c-.1.3-.2.6-.2.9s0,.6.2.9c.2.3.4.5.7.6s.6.2,1,.2c.6,0,1.1-.1,1.5-.4.4-.2.8-.5,1-.9.2-.3.4-.7.4-1l.9,1.4c-.1.3-.3.7-.5,1.1-.2.4-.5.7-.9,1.1-.4.3-.8.6-1.3.8-.5.2-1.1.3-1.8.3s-1.6-.2-2.3-.5c-.7-.3-1.2-.8-1.6-1.4-.4-.6-.6-1.3-.6-2.1s.1-1.3.4-1.9.7-1,1.2-1.4c.5-.4,1.2-.7,1.9-.9s1.7-.3,2.6-.3h2.2ZM537.5,129.1v-6.2c0-.5,0-.8-.2-1.2-.2-.3-.4-.6-.7-.8-.3-.2-.7-.3-1.2-.3s-.8,0-1.1.2c-.3.1-.6.4-.7.6-.2.3-.3.6-.3.9h-3.3c0-.6.1-1.1.4-1.6.3-.5.6-.9,1.1-1.3.5-.4,1.1-.7,1.8-.9.7-.2,1.5-.3,2.3-.3s1.9.2,2.7.5c.8.3,1.4.9,1.9,1.5s.7,1.5.7,2.6v5.8c0,.7,0,1.2.1,1.7s.2.9.4,1.2v.2h-3.3c-.2-.3-.3-.8-.4-1.3,0-.5-.1-1-.1-1.5Z"/>
          <path d="M547.2,113v19h-3.3v-19h3.3Z"/>
          <path d="M558.7,118.6l2.2,10.2.2,3.2h-2.1l-3.5-13.4h3.2ZM560.3,128.8l2.9-10.2h2.1l-.6,3.5-3,9.9h-1.8l.4-3.2ZM565.6,118.6l2.9,10.1.4,3.3h-1.8l-3-9.9-.6-3.5h2.1ZM568,128.6l2.1-10h3.2l-3.5,13.4h-2.1l.2-3.3Z"/>
          <path d="M581.3,132.2c-1,0-1.9-.2-2.7-.5s-1.5-.8-2.1-1.4c-.6-.6-1-1.3-1.3-2.1-.3-.8-.5-1.6-.5-2.5v-.5c0-1,.1-2,.4-2.8.3-.8.7-1.6,1.3-2.2.5-.6,1.2-1.1,2-1.4.8-.3,1.6-.5,2.5-.5s1.8.2,2.5.5,1.3.8,1.8,1.3c.5.6.9,1.3,1.1,2.1.2.8.4,1.7.4,2.7v1.4h-10.5v-2.2h7.3v-.2c0-.5-.1-1-.3-1.4-.2-.4-.5-.8-.8-1-.4-.3-.9-.4-1.5-.4s-.9.1-1.3.3c-.4.2-.7.5-.9.9-.2.4-.4.8-.5,1.4-.1.5-.2,1.1-.2,1.8v.5c0,.6,0,1.1.2,1.6.2.5.4.9.7,1.2.3.4.7.6,1.1.8.4.2.9.3,1.5.3s1.3-.1,1.9-.4c.6-.3,1-.7,1.5-1.2l1.6,1.7c-.3.4-.7.8-1.1,1.2-.5.4-1,.7-1.7.9s-1.4.4-2.3.4Z"/>
          <path d="M592.1,121.5v10.5h-3.3v-13.4h3.1l.2,2.9ZM591.6,124.8h-1c0-1,.1-1.9.4-2.6.3-.8.6-1.5,1.1-2,.5-.6,1-1,1.7-1.3s1.4-.5,2.1-.5,1.2,0,1.7.3c.5.2,1,.5,1.3.9.4.4.7.9.9,1.6.2.6.3,1.4.3,2.4v8.6h-3.3v-8.6c0-.6,0-1.1-.3-1.4-.2-.4-.4-.6-.8-.8-.3-.1-.7-.2-1.2-.2s-.9.1-1.3.3c-.4.2-.7.5-.9.8-.3.4-.4.8-.6,1.2-.1.5-.2,1-.2,1.5Z"/>
          <path d="M609.3,118.6v2.3h-7.7v-2.3h7.7ZM603.7,115.3h3.3v12.8c0,.4,0,.7.2.9.1.2.3.4.5.4.2,0,.5.1.8.1s.4,0,.6,0c.2,0,.3,0,.5,0v2.4c-.3,0-.6.2-.9.2s-.7,0-1.2,0c-.7,0-1.4-.1-1.9-.4-.6-.3-1-.7-1.3-1.2s-.5-1.3-.5-2.2v-13.1Z"/>
          <path d="M620,118.6l3.1,10.9v2.4c.1,0-2,0-2,0l-4.6-13.4h3.4ZM622.2,129.5l3.1-10.9h3.4l-4.6,13.4h-2.1v-2.5Z"/>
          <path d="M636.3,132.2c-1,0-1.9-.2-2.7-.5s-1.5-.8-2.1-1.4c-.6-.6-1-1.3-1.3-2.1-.3-.8-.5-1.6-.5-2.5v-.5c0-1,.1-2,.4-2.8.3-.8.7-1.6,1.3-2.2.5-.6,1.2-1.1,2-1.4.8-.3,1.6-.5,2.5-.5s1.8.2,2.5.5,1.3.8,1.8,1.3c.5.6.9,1.3,1.1,2.1.2.8.4,1.7.4,2.7v1.4h-10.5v-2.2h7.3v-.2c0-.5-.1-1-.3-1.4-.2-.4-.5-.8-.8-1-.4-.3-.9-.4-1.5-.4s-.9.1-1.3.3-.7.5-.9.9c-.2.4-.4.8-.5,1.4-.1.5-.2,1.1-.2,1.8v.5c0,.6,0,1.1.2,1.6s.4.9.7,1.2c.3.4.7.6,1.1.8.4.2.9.3,1.5.3s1.3-.1,1.9-.4,1-.7,1.5-1.2l1.6,1.7c-.3.4-.7.8-1.1,1.2-.5.4-1,.7-1.7.9s-1.4.4-2.3.4Z"/>
          <path d="M647.2,121.3v10.6h-3.3v-13.4h3.1l.2,2.7ZM651.2,118.5v3c-.2,0-.4,0-.7,0s-.4,0-.6,0c-.5,0-.9,0-1.3.2-.4.1-.7.3-.9.6-.3.3-.4.6-.6.9-.1.4-.2.8-.2,1.2h-.7c0-.9,0-1.7.3-2.4.2-.7.4-1.4.8-1.9s.7-1,1.2-1.3c.5-.3,1.1-.5,1.7-.5s.4,0,.6,0c.2,0,.4,0,.5.1Z"/>
          <path d="M655.4,118.6l3,9.8.5,3.4-2.2.4-4.8-13.7h3.5ZM657.2,130.5l3.6-11.9h3.5l-5.4,15.4c-.1.3-.3.7-.5,1.1-.2.4-.5.8-.8,1.1-.3.3-.7.6-1.2.9-.5.2-1.1.3-1.7.3s-.6,0-.8,0-.5,0-.7-.2v-2.4c0,0,.2,0,.3,0,.1,0,.2,0,.3,0,.5,0,.9,0,1.2-.2.3-.1.6-.3.8-.5.2-.2.4-.6.5-.9l1-2.6Z"/>
          <path d="M674.2,118.6l2.2,10.2.2,3.2h-2.1l-3.5-13.4h3.2ZM675.8,128.8l2.9-10.2h2.1l-.6,3.5-3,9.9h-1.8l.4-3.2ZM681.1,118.6l2.9,10.1.4,3.3h-1.8l-3-9.9-.6-3.5h2.1ZM683.5,128.6l2.1-10h3.2l-3.5,13.4h-2.1l.2-3.3Z"/>
          <path d="M696.8,132.2c-1,0-1.9-.2-2.7-.5s-1.5-.8-2.1-1.4c-.6-.6-1-1.3-1.3-2.1-.3-.8-.5-1.6-.5-2.5v-.5c0-1,.1-2,.4-2.8.3-.8.7-1.6,1.3-2.2.5-.6,1.2-1.1,2-1.4.8-.3,1.6-.5,2.5-.5s1.8.2,2.5.5,1.3.8,1.8,1.3c.5.6.9,1.3,1.1,2.1.2.8.4,1.7.4,2.7v1.4h-10.5v-2.2h7.3v-.2c0-.5-.1-1-.3-1.4-.2-.4-.5-.8-.8-1-.4-.3-.9-.4-1.5-.4s-.9.1-1.3.3-.7.5-.9.9c-.2.4-.4.8-.5,1.4-.1.5-.2,1.1-.2,1.8v.5c0,.6,0,1.1.2,1.6s.4.9.7,1.2c.3.4.7.6,1.1.8.4.2.9.3,1.5.3s1.3-.1,1.9-.4,1-.7,1.5-1.2l1.6,1.7c-.3.4-.7.8-1.1,1.2-.5.4-1,.7-1.7.9s-1.4.4-2.3.4Z"/>
          <path d="M707.8,113v19h-3.3v-19h3.3Z"/>
          <path d="M714.4,113v19h-3.3v-19h3.3Z"/>
          <path d="M717.7,130.4c0-.5.2-.9.5-1.2.3-.3.8-.5,1.4-.5s1,.2,1.4.5c.3.3.5.8.5,1.2s-.2.9-.5,1.2c-.3.3-.8.5-1.4.5s-1-.2-1.4-.5-.5-.7-.5-1.2Z"/>
          <path d="M743.9,114v2.7h-14.5v-2.7h14.5ZM738.3,114v18h-3.4v-18h3.4Z"/>
          <path d="M749.1,113v19h-3.3v-19h3.3ZM748.6,124.8h-1c0-.9.1-1.8.4-2.6s.6-1.5,1-2,1-1,1.6-1.4c.6-.3,1.3-.5,2.1-.5s1.3,0,1.8.3c.5.2,1,.5,1.4.9.4.4.7.9.9,1.6s.3,1.4.3,2.4v8.5h-3.3v-8.5c0-.6,0-1.1-.3-1.5-.2-.4-.4-.6-.8-.8-.3-.2-.7-.2-1.2-.2s-1,.1-1.4.3-.7.5-.9.8c-.2.4-.4.8-.5,1.2-.1.5-.2,1-.2,1.5Z"/>
          <path d="M766.1,132.2c-1,0-1.9-.2-2.7-.5s-1.5-.8-2.1-1.4c-.6-.6-1-1.3-1.3-2.1-.3-.8-.5-1.6-.5-2.5v-.5c0-1,.1-2,.4-2.8.3-.8.7-1.6,1.3-2.2.5-.6,1.2-1.1,2-1.4.8-.3,1.6-.5,2.5-.5s1.8.2,2.5.5,1.3.8,1.8,1.3c.5.6.9,1.3,1.1,2.1.2.8.4,1.7.4,2.7v1.4h-10.5v-2.2h7.3v-.2c0-.5-.1-1-.3-1.4-.2-.4-.5-.8-.8-1-.4-.3-.9-.4-1.5-.4s-.9.1-1.3.3-.7.5-.9.9c-.2.4-.4.8-.5,1.4-.1.5-.2,1.1-.2,1.8v.5c0,.6,0,1.1.2,1.6s.4.9.7,1.2c.3.4.7.6,1.1.8.4.2.9.3,1.5.3s1.3-.1,1.9-.4,1-.7,1.5-1.2l1.6,1.7c-.3.4-.7.8-1.1,1.2-.5.4-1,.7-1.7.9s-1.4.4-2.3.4Z"/>
          <path d="M783.2,121.4v10.6h-3.3v-13.4h3.1l.2,2.7ZM782.7,124.8h-1c0-.9.1-1.8.3-2.6s.6-1.5,1-2c.4-.6,1-1,1.6-1.4.7-.3,1.4-.5,2.3-.5s1.2,0,1.7.3c.5.2.9.5,1.3.8.4.4.6.9.8,1.5.2.6.3,1.3.3,2.1v8.9h-3.3v-8.6c0-.6,0-1.1-.3-1.5-.2-.4-.4-.6-.8-.7s-.7-.2-1.2-.2-.9.1-1.3.3c-.4.2-.7.5-.9.8-.2.4-.4.8-.5,1.2-.1.5-.2,1-.2,1.5ZM790.8,124.2l-1.3.2c0-.8.1-1.6.3-2.4.2-.7.5-1.4,1-1.9.4-.6,1-1,1.6-1.3s1.4-.5,2.2-.5,1.3,0,1.8.3c.5.2,1,.5,1.4.9s.7.9.9,1.6c.2.6.3,1.4.3,2.3v8.6h-3.3v-8.6c0-.7,0-1.1-.3-1.5-.2-.3-.4-.6-.8-.7-.3-.1-.7-.2-1.2-.2s-.8,0-1.2.3c-.3.2-.6.4-.8.7s-.4.6-.5,1c-.1.4-.2.8-.2,1.3Z"/>
          <path d="M809.7,123.8v1.9s-2,0-2,0c-.5,0-1,0-1.3.2s-.7.3-1,.4-.4.4-.6.7c-.1.3-.2.6-.2.9s0,.6.2.9c.2.3.4.5.7.6s.6.2,1,.2c.6,0,1.1-.1,1.5-.4.4-.2.8-.5,1-.9.2-.3.4-.7.4-1l.9,1.4c-.1.3-.3.7-.5,1.1-.2.4-.5.7-.9,1.1-.4.3-.8.6-1.3.8-.5.2-1.1.3-1.8.3s-1.6-.2-2.3-.5c-.7-.3-1.2-.8-1.6-1.4-.4-.6-.6-1.3-.6-2.1s.1-1.3.4-1.9.7-1,1.2-1.4c.5-.4,1.2-.7,1.9-.9s1.7-.3,2.6-.3h2.2ZM809.3,129.1v-6.2c0-.5,0-.8-.2-1.2-.2-.3-.4-.6-.7-.8s-.7-.3-1.2-.3-.8,0-1.1.2c-.3.1-.6.4-.7.6s-.3.6-.3.9h-3.3c0-.6.1-1.1.4-1.6.3-.5.6-.9,1.1-1.3.5-.4,1.1-.7,1.8-.9.7-.2,1.5-.3,2.3-.3s1.9.2,2.7.5c.8.3,1.4.9,1.9,1.5s.7,1.5.7,2.6v5.8c0,.7,0,1.2.1,1.7,0,.5.2.9.4,1.2v.2h-3.3c-.2-.3-.3-.8-.4-1.3,0-.5-.1-1-.1-1.5Z"/>
          <path d="M818.7,121.5v10.5h-3.3v-13.4h3.1l.2,2.9ZM818.2,124.8h-1c0-1,.1-1.9.4-2.6s.6-1.5,1.1-2c.5-.6,1-1,1.7-1.3s1.4-.5,2.1-.5,1.2,0,1.7.3c.5.2,1,.5,1.3.9.4.4.7.9.9,1.6s.3,1.4.3,2.4v8.6h-3.3v-8.6c0-.6,0-1.1-.3-1.4-.2-.4-.4-.6-.8-.8-.3-.1-.7-.2-1.2-.2s-.9.1-1.3.3c-.4.2-.7.5-.9.8-.3.4-.4.8-.6,1.2-.1.5-.2,1-.2,1.5Z"/>
          <path d="M837.5,123.8v1.9s-2,0-2,0c-.5,0-1,0-1.3.2s-.7.3-1,.4-.4.4-.6.7c-.1.3-.2.6-.2.9s0,.6.2.9c.2.3.4.5.7.6s.6.2,1,.2c.6,0,1.1-.1,1.5-.4.4-.2.8-.5,1-.9.2-.3.4-.7.4-1l.9,1.4c-.1.3-.3.7-.5,1.1-.2.4-.5.7-.9,1.1-.4.3-.8.6-1.3.8-.5.2-1.1.3-1.8.3s-1.6-.2-2.3-.5c-.7-.3-1.2-.8-1.6-1.4-.4-.6-.6-1.3-.6-2.1s.1-1.3.4-1.9.7-1,1.2-1.4c.5-.4,1.2-.7,1.9-.9s1.7-.3,2.6-.3h2.2ZM837,129.1v-6.2c0-.5,0-.8-.2-1.2-.2-.3-.4-.6-.7-.8s-.7-.3-1.2-.3-.8,0-1.1.2c-.3.1-.6.4-.7.6s-.3.6-.3.9h-3.3c0-.6.1-1.1.4-1.6.3-.5.6-.9,1.1-1.3.5-.4,1.1-.7,1.8-.9.7-.2,1.5-.3,2.3-.3s1.9.2,2.7.5c.8.3,1.4.9,1.9,1.5s.7,1.5.7,2.6v5.8c0,.7,0,1.2.1,1.7,0,.5.2.9.4,1.2v.2h-3.3c-.2-.3-.3-.8-.4-1.3,0-.5-.1-1-.1-1.5Z"/>
          <path d="M842.7,125.5v-.3c0-1,.1-1.9.4-2.8.2-.8.6-1.6,1.1-2.2.5-.6,1-1.1,1.7-1.4.7-.3,1.4-.5,2.2-.5s1.6.2,2.2.5c.6.3,1.1.8,1.5,1.4.4.6.7,1.3.9,2.1.2.8.4,1.7.5,2.7v.7c-.1.9-.3,1.8-.5,2.6-.3.8-.6,1.5-1,2.1-.4.6-.9,1-1.5,1.4-.6.3-1.3.5-2.1.5s-1.6-.2-2.2-.5c-.7-.3-1.2-.8-1.7-1.4-.5-.6-.8-1.3-1.1-2.1-.2-.8-.4-1.7-.4-2.7ZM851.7,118.6h3v13c0,1.2-.3,2.2-.8,3.1-.5.8-1.3,1.5-2.2,1.9-.9.4-2,.7-3.3.7s-1.1,0-1.7-.2c-.6-.1-1.2-.4-1.8-.7-.6-.3-1-.7-1.4-1.2l1.5-1.9c.4.5.9.9,1.5,1.2s1.2.4,1.8.4,1.2-.1,1.7-.4c.5-.2.8-.6,1.1-1.1.3-.5.4-1,.4-1.7v-9.9l.3-3.1ZM846,125.2v.3c0,.6,0,1.1.2,1.6.1.5.3.9.5,1.3.2.4.5.7.9.9.4.2.8.3,1.3.3s1.2-.1,1.7-.4c.4-.3.8-.7,1-1.2.2-.5.4-1.1.4-1.7v-1.9c0-.5-.1-1-.3-1.4s-.3-.8-.6-1.1c-.2-.3-.5-.5-.9-.7-.4-.2-.8-.3-1.3-.3s-.9.1-1.3.3c-.4.2-.7.5-.9.9s-.4.8-.5,1.3c-.1.5-.2,1.1-.2,1.7Z"/>
          <path d="M863.6,132.2c-1,0-1.9-.2-2.7-.5s-1.5-.8-2.1-1.4c-.6-.6-1-1.3-1.3-2.1-.3-.8-.5-1.6-.5-2.5v-.5c0-1,.1-2,.4-2.8.3-.8.7-1.6,1.3-2.2.5-.6,1.2-1.1,2-1.4.8-.3,1.6-.5,2.5-.5s1.8.2,2.5.5,1.3.8,1.8,1.3c.5.6.9,1.3,1.1,2.1.2.8.4,1.7.4,2.7v1.4h-10.5v-2.2h7.3v-.2c0-.5-.1-1-.3-1.4-.2-.4-.5-.8-.8-1-.4-.3-.9-.4-1.5-.4s-.9.1-1.3.3-.7.5-.9.9c-.2.4-.4.8-.5,1.4-.1.5-.2,1.1-.2,1.8v.5c0,.6,0,1.1.2,1.6s.4.9.7,1.2c.3.4.7.6,1.1.8.4.2.9.3,1.5.3s1.3-.1,1.9-.4,1-.7,1.5-1.2l1.6,1.7c-.3.4-.7.8-1.1,1.2-.5.4-1,.7-1.7.9s-1.4.4-2.3.4Z"/>
          <path d="M874.5,121.3v10.6h-3.3v-13.4h3.1l.2,2.7ZM878.6,118.5v3c-.2,0-.4,0-.7,0s-.4,0-.6,0c-.5,0-.9,0-1.3.2-.4.1-.7.3-.9.6-.3.3-.4.6-.6.9-.1.4-.2.8-.2,1.2h-.7c0-.9,0-1.7.3-2.4.2-.7.4-1.4.8-1.9s.7-1,1.2-1.3c.5-.3,1.1-.5,1.7-.5s.4,0,.6,0c.2,0,.4,0,.5.1Z"/>
          <path d="M888.7,118.6l2.2,10.2.2,3.2h-2.1l-3.5-13.4h3.2ZM890.3,128.8l2.9-10.2h2.1l-.6,3.5-3,9.9h-1.8l.4-3.2ZM895.7,118.6l2.9,10.1.4,3.3h-1.8l-3-9.9-.6-3.5h2.1ZM898.1,128.6l2.1-10h3.2l-3.5,13.4h-2.1l.2-3.3Z"/>
          <path d="M913.1,123.8v1.9s-2,0-2,0c-.5,0-1,0-1.3.2s-.7.3-1,.4-.4.4-.6.7c-.1.3-.2.6-.2.9s0,.6.2.9c.2.3.4.5.7.6s.6.2,1,.2c.6,0,1.1-.1,1.5-.4.4-.2.8-.5,1-.9.2-.3.4-.7.4-1l.9,1.4c-.1.3-.3.7-.5,1.1-.2.4-.5.7-.9,1.1-.4.3-.8.6-1.3.8-.5.2-1.1.3-1.8.3s-1.6-.2-2.3-.5c-.7-.3-1.2-.8-1.6-1.4-.4-.6-.6-1.3-.6-2.1s.1-1.3.4-1.9.7-1,1.2-1.4c.5-.4,1.2-.7,1.9-.9s1.7-.3,2.6-.3h2.2ZM912.7,129.1v-6.2c0-.5,0-.8-.2-1.2-.2-.3-.4-.6-.7-.8s-.7-.3-1.2-.3-.8,0-1.1.2c-.3.1-.6.4-.7.6s-.3.6-.3.9h-3.3c0-.6.1-1.1.4-1.6.3-.5.6-.9,1.1-1.3.5-.4,1.1-.7,1.8-.9.7-.2,1.5-.3,2.3-.3s1.9.2,2.7.5c.8.3,1.4.9,1.9,1.5s.7,1.5.7,2.6v5.8c0,.7,0,1.2.1,1.7,0,.5.2.9.4,1.2v.2h-3.3c-.2-.3-.3-.8-.4-1.3,0-.5-.1-1-.1-1.5Z"/>
          <path d="M926.2,128.3c0-.3,0-.5-.2-.8-.1-.2-.4-.4-.8-.6-.4-.2-1-.4-1.8-.5-.7-.1-1.3-.3-1.9-.6-.6-.2-1.1-.5-1.5-.8-.4-.3-.7-.7-1-1.1-.2-.4-.4-.9-.4-1.5s.1-1.1.4-1.6c.2-.5.6-.9,1-1.3.5-.4,1-.7,1.7-.9.7-.2,1.4-.3,2.2-.3s2.1.2,2.9.6,1.4.9,1.9,1.5c.4.6.7,1.4.7,2.2h-3.3c0-.4,0-.7-.2-1-.2-.3-.4-.5-.7-.7-.3-.2-.7-.3-1.2-.3s-.8,0-1.1.2c-.3.1-.5.3-.7.6-.2.2-.2.5-.2.8s0,.4.1.6c0,.2.2.3.4.5.2.1.5.3.8.4.3.1.8.2,1.3.3,1,.2,1.9.5,2.6.8.7.3,1.3.8,1.7,1.3.4.5.6,1.2.6,2.1s-.1,1.1-.4,1.6c-.3.5-.6.9-1.1,1.3-.5.4-1.1.6-1.7.8-.7.2-1.4.3-2.3.3-1.2,0-2.3-.2-3.1-.7-.8-.4-1.5-1-1.9-1.7-.4-.7-.7-1.4-.7-2.1h3.1c0,.5.2.9.4,1.2.3.3.6.5,1,.7.4.1.8.2,1.2.2s.9,0,1.2-.2c.3-.1.6-.3.8-.6s.3-.5.3-.8Z"/>
        </g>
      </g>
      <g class="st1">
        <g class="st1">
          <path d="M227.9,148.9l3.1,10.9v2.4c.1,0-2,0-2,0l-4.6-13.4h3.4ZM230.2,159.8l3.1-10.9h3.4l-4.6,13.4h-2.1v-2.5Z"/>
          <path d="M244.3,162.5c-1,0-1.9-.2-2.7-.5s-1.5-.8-2.1-1.4c-.6-.6-1-1.3-1.3-2.1-.3-.8-.5-1.6-.5-2.5v-.5c0-1,.1-2,.4-2.8.3-.8.7-1.6,1.3-2.2.5-.6,1.2-1.1,2-1.4.8-.3,1.6-.5,2.5-.5s1.8.2,2.5.5,1.3.8,1.8,1.3c.5.6.9,1.3,1.1,2.1.2.8.4,1.7.4,2.7v1.4h-10.5v-2.2h7.3v-.2c0-.5-.1-1-.3-1.4-.2-.4-.5-.8-.8-1-.4-.3-.9-.4-1.5-.4s-.9.1-1.3.3c-.4.2-.7.5-.9.9-.2.4-.4.8-.5,1.4-.1.5-.2,1.1-.2,1.8v.5c0,.6,0,1.1.2,1.6.2.5.4.9.7,1.2.3.4.7.6,1.1.8.4.2.9.3,1.5.3s1.3-.1,1.9-.4c.6-.3,1-.7,1.5-1.2l1.6,1.7c-.3.4-.7.8-1.1,1.2-.5.4-1,.7-1.7.9s-1.4.4-2.3.4Z"/>
          <path d="M255.2,151.7v10.6h-3.3v-13.4h3.1l.2,2.7ZM259.2,148.8v3c-.2,0-.4,0-.7,0s-.4,0-.6,0c-.5,0-.9,0-1.3.2-.4.1-.7.3-.9.6-.3.3-.4.6-.6.9-.1.4-.2.8-.2,1.2h-.7c0-.9,0-1.7.3-2.4s.4-1.4.8-1.9c.3-.5.7-1,1.2-1.3.5-.3,1.1-.5,1.7-.5s.4,0,.6,0c.2,0,.4,0,.5.1Z"/>
          <path d="M263.4,148.9l3,9.8.5,3.4-2.2.4-4.8-13.7h3.5ZM265.1,160.8l3.6-11.9h3.5l-5.4,15.4c-.1.3-.3.7-.5,1.1-.2.4-.5.8-.8,1.1-.3.3-.7.6-1.2.9-.5.2-1.1.3-1.7.3s-.6,0-.8,0c-.2,0-.5,0-.7-.2v-2.4c0,0,.2,0,.3,0,.1,0,.2,0,.3,0,.5,0,.9,0,1.2-.2.3-.1.6-.3.8-.5.2-.2.4-.6.5-.9l1-2.6Z"/>
          <path d="M283.3,151.5v15.9h-3.3v-18.5h3l.2,2.6ZM291.9,155.5v.3c0,1-.1,1.9-.3,2.7s-.6,1.5-1,2.2-1,1.1-1.6,1.4-1.4.5-2.2.5-1.5-.2-2.1-.5c-.6-.3-1.1-.8-1.5-1.4-.4-.6-.8-1.3-1-2-.3-.8-.4-1.6-.6-2.6v-.8c.1-1,.3-1.9.6-2.7.3-.8.6-1.5,1-2.1.4-.6.9-1,1.5-1.4.6-.3,1.3-.5,2.1-.5s1.6.2,2.2.5c.6.3,1.2.8,1.6,1.4s.8,1.3,1,2.1c.2.8.3,1.8.3,2.8ZM288.6,155.7v-.3c0-.6,0-1.1-.2-1.6-.1-.5-.3-1-.5-1.3-.2-.4-.5-.7-.9-.9-.4-.2-.8-.3-1.3-.3s-.9,0-1.3.2c-.4.2-.7.4-.9.7s-.4.7-.5,1.1c-.1.4-.2.9-.3,1.4v2.1c0,.6.2,1.2.4,1.6.2.5.5.9.9,1.2.4.3,1,.4,1.6.4s.9-.1,1.3-.3c.4-.2.6-.5.9-.9.2-.4.4-.8.5-1.4,0-.5.1-1.1.1-1.6Z"/>
          <path d="M297.6,151.7v10.6h-3.3v-13.4h3.1l.2,2.7ZM301.6,148.8v3c-.2,0-.4,0-.7,0s-.4,0-.6,0c-.5,0-.9,0-1.3.2-.4.1-.7.3-.9.6-.3.3-.4.6-.6.9-.1.4-.2.8-.2,1.2h-.7c0-.9,0-1.7.3-2.4s.4-1.4.8-1.9c.3-.5.7-1,1.2-1.3.5-.3,1.1-.5,1.7-.5s.4,0,.6,0c.2,0,.4,0,.5.1Z"/>
          <path d="M302.5,155.8v-.3c0-1,.1-1.9.4-2.7.3-.8.7-1.5,1.2-2.2.5-.6,1.2-1.1,2-1.4s1.7-.5,2.6-.5,1.9.2,2.7.5c.8.3,1.4.8,2,1.4.5.6.9,1.3,1.2,2.2.3.8.4,1.7.4,2.7v.3c0,1-.1,1.9-.4,2.7-.3.8-.7,1.5-1.2,2.2-.5.6-1.2,1.1-2,1.4-.8.3-1.7.5-2.7.5s-1.9-.2-2.7-.5c-.8-.3-1.4-.8-2-1.4-.5-.6-.9-1.3-1.2-2.2-.3-.8-.4-1.7-.4-2.7ZM305.7,155.5v.3c0,.6,0,1.1.2,1.6.1.5.3,1,.5,1.3.2.4.5.7.9.9.4.2.8.3,1.4.3s1-.1,1.4-.3c.4-.2.7-.5.9-.9.2-.4.4-.8.5-1.3.1-.5.2-1.1.2-1.6v-.3c0-.6,0-1.1-.2-1.6s-.3-1-.5-1.3c-.2-.4-.6-.7-.9-.9-.4-.2-.8-.3-1.4-.3s-1,.1-1.4.3c-.4.2-.7.5-.9.9-.2.4-.4.8-.5,1.3s-.2,1-.2,1.6Z"/>
          <path d="M324.4,148.9v2.3h-8v-2.3h8ZM321.6,162.3h-3.3v-14.6c0-1,.2-1.9.6-2.5s.9-1.2,1.7-1.6c.7-.4,1.6-.5,2.5-.5s.6,0,.9,0c.3,0,.6,0,.9.2v2.5c-.2,0-.4,0-.6,0-.2,0-.4,0-.6,0-.4,0-.8,0-1.1.2-.3.2-.5.4-.7.7-.2.3-.2.7-.2,1.1v14.6Z"/>
          <path d="M332.1,162.5c-1,0-1.9-.2-2.7-.5s-1.5-.8-2.1-1.4c-.6-.6-1-1.3-1.3-2.1-.3-.8-.5-1.6-.5-2.5v-.5c0-1,.1-2,.4-2.8.3-.8.7-1.6,1.3-2.2.5-.6,1.2-1.1,2-1.4.8-.3,1.6-.5,2.5-.5s1.8.2,2.5.5,1.3.8,1.8,1.3c.5.6.9,1.3,1.1,2.1.2.8.4,1.7.4,2.7v1.4h-10.5v-2.2h7.3v-.2c0-.5-.1-1-.3-1.4-.2-.4-.5-.8-.8-1-.4-.3-.9-.4-1.5-.4s-.9.1-1.3.3c-.4.2-.7.5-.9.9-.2.4-.4.8-.5,1.4-.1.5-.2,1.1-.2,1.8v.5c0,.6,0,1.1.2,1.6.2.5.4.9.7,1.2.3.4.7.6,1.1.8.4.2.9.3,1.5.3s1.3-.1,1.9-.4c.6-.3,1-.7,1.5-1.2l1.6,1.7c-.3.4-.7.8-1.1,1.2-.5.4-1,.7-1.7.9s-1.4.4-2.3.4Z"/>
          <path d="M347,158.6c0-.3,0-.5-.2-.8-.1-.2-.4-.4-.8-.6-.4-.2-1-.4-1.8-.5-.7-.1-1.3-.3-1.9-.6-.6-.2-1.1-.5-1.5-.8-.4-.3-.7-.7-1-1.1-.2-.4-.4-.9-.4-1.5s.1-1.1.4-1.6.6-.9,1-1.3c.5-.4,1-.7,1.7-.9.7-.2,1.4-.3,2.2-.3s2.1.2,2.9.6c.8.4,1.4.9,1.9,1.5.4.6.7,1.4.7,2.2h-3.3c0-.4,0-.7-.2-1-.2-.3-.4-.5-.7-.7-.3-.2-.7-.3-1.2-.3s-.8,0-1.1.2c-.3.1-.5.3-.7.6-.2.2-.2.5-.2.8s0,.4.1.6c0,.2.2.3.4.5.2.1.5.3.8.4.3.1.8.2,1.3.3,1,.2,1.9.5,2.6.8.7.3,1.3.8,1.7,1.3.4.5.6,1.2.6,2.1s-.1,1.1-.4,1.6c-.3.5-.6.9-1.1,1.3-.5.4-1.1.6-1.7.8-.7.2-1.4.3-2.3.3-1.2,0-2.3-.2-3.1-.7s-1.5-1-1.9-1.7c-.4-.7-.7-1.4-.7-2.1h3.1c0,.5.2.9.4,1.2s.6.5,1,.7c.4.1.8.2,1.2.2s.9,0,1.2-.2c.3-.1.6-.3.8-.6s.3-.5.3-.8Z"/>
          <path d="M360,158.6c0-.3,0-.5-.2-.8-.1-.2-.4-.4-.8-.6-.4-.2-1-.4-1.8-.5-.7-.1-1.3-.3-1.9-.6-.6-.2-1.1-.5-1.5-.8-.4-.3-.7-.7-1-1.1-.2-.4-.4-.9-.4-1.5s.1-1.1.4-1.6.6-.9,1-1.3c.5-.4,1-.7,1.7-.9.7-.2,1.4-.3,2.2-.3s2.1.2,2.9.6c.8.4,1.4.9,1.9,1.5.4.6.7,1.4.7,2.2h-3.3c0-.4,0-.7-.2-1-.2-.3-.4-.5-.7-.7-.3-.2-.7-.3-1.2-.3s-.8,0-1.1.2c-.3.1-.5.3-.7.6-.2.2-.2.5-.2.8s0,.4.1.6c0,.2.2.3.4.5.2.1.5.3.8.4.3.1.8.2,1.3.3,1,.2,1.9.5,2.6.8.7.3,1.3.8,1.7,1.3.4.5.6,1.2.6,2.1s-.1,1.1-.4,1.6c-.3.5-.6.9-1.1,1.3-.5.4-1.1.6-1.7.8-.7.2-1.4.3-2.3.3-1.2,0-2.3-.2-3.1-.7s-1.5-1-1.9-1.7c-.4-.7-.7-1.4-.7-2.1h3.1c0,.5.2.9.4,1.2s.6.5,1,.7c.4.1.8.2,1.2.2s.9,0,1.2-.2c.3-.1.6-.3.8-.6s.3-.5.3-.8Z"/>
          <path d="M365.7,145.4c0-.5.2-.9.5-1.2.3-.3.8-.5,1.4-.5s1,.2,1.4.5c.3.3.5.7.5,1.2s-.2.9-.5,1.2c-.3.3-.8.5-1.4.5s-1-.2-1.4-.5c-.3-.3-.5-.7-.5-1.2ZM369.2,148.9v13.4h-3.3v-13.4h3.3Z"/>
          <path d="M371.7,155.8v-.3c0-1,.1-1.9.4-2.7.3-.8.7-1.5,1.2-2.2.5-.6,1.2-1.1,2-1.4s1.7-.5,2.6-.5,1.9.2,2.7.5c.8.3,1.4.8,2,1.4.5.6.9,1.3,1.2,2.2.3.8.4,1.7.4,2.7v.3c0,1-.1,1.9-.4,2.7-.3.8-.7,1.5-1.2,2.2-.5.6-1.2,1.1-2,1.4-.8.3-1.7.5-2.7.5s-1.9-.2-2.7-.5c-.8-.3-1.4-.8-2-1.4-.5-.6-.9-1.3-1.2-2.2-.3-.8-.4-1.7-.4-2.7ZM374.9,155.5v.3c0,.6,0,1.1.2,1.6.1.5.3,1,.5,1.3.2.4.5.7.9.9.4.2.8.3,1.4.3s1-.1,1.4-.3c.4-.2.7-.5.9-.9.2-.4.4-.8.5-1.3.1-.5.2-1.1.2-1.6v-.3c0-.6,0-1.1-.2-1.6s-.3-1-.5-1.3c-.2-.4-.6-.7-.9-.9-.4-.2-.8-.3-1.4-.3s-1,.1-1.4.3c-.4.2-.7.5-.9.9-.2.4-.4.8-.5,1.3s-.2,1-.2,1.6Z"/>
          <path d="M389.8,151.8v10.5h-3.3v-13.4h3.1l.2,2.9ZM389.3,155.1h-1c0-1,.1-1.9.4-2.6s.6-1.5,1.1-2c.5-.6,1-1,1.7-1.3s1.4-.5,2.1-.5,1.2,0,1.7.3c.5.2,1,.5,1.3.9.4.4.7.9.9,1.6s.3,1.4.3,2.4v8.6h-3.3v-8.6c0-.6,0-1.1-.3-1.4-.2-.4-.4-.6-.8-.8-.3-.1-.7-.2-1.2-.2s-.9.1-1.3.3c-.4.2-.7.5-.9.8-.3.4-.4.8-.6,1.2-.1.5-.2,1-.2,1.5Z"/>
          <path d="M408.5,154.2v1.9s-2,0-2,0c-.5,0-1,0-1.3.2-.4.1-.7.3-1,.4s-.4.4-.6.7c-.1.3-.2.6-.2.9s0,.6.2.9c.2.3.4.5.7.6s.6.2,1,.2c.6,0,1.1-.1,1.5-.4.4-.2.8-.5,1-.9.2-.3.4-.7.4-1l.9,1.4c-.1.3-.3.7-.5,1.1-.2.4-.5.7-.9,1.1-.4.3-.8.6-1.3.8-.5.2-1.1.3-1.8.3s-1.6-.2-2.3-.5c-.7-.3-1.2-.8-1.6-1.4-.4-.6-.6-1.3-.6-2.1s.1-1.3.4-1.9.7-1,1.2-1.4c.5-.4,1.2-.7,1.9-.9s1.7-.3,2.6-.3h2.2ZM408.1,159.5v-6.2c0-.5,0-.8-.2-1.2-.2-.3-.4-.6-.7-.8-.3-.2-.7-.3-1.2-.3s-.8,0-1.1.2c-.3.1-.6.4-.7.6-.2.3-.3.6-.3.9h-3.3c0-.6.1-1.1.4-1.6.3-.5.6-.9,1.1-1.3.5-.4,1.1-.7,1.8-.9.7-.2,1.5-.3,2.3-.3s1.9.2,2.7.5c.8.3,1.4.9,1.9,1.5s.7,1.5.7,2.6v5.8c0,.7,0,1.2.1,1.7s.2.9.4,1.2v.2h-3.3c-.2-.3-.3-.8-.4-1.3,0-.5-.1-1-.1-1.5Z"/>
          <path d="M417.8,143.3v19h-3.3v-19h3.3Z"/>
          <path d="M423.9,159.4v2.3c0,.9-.2,1.8-.7,2.7s-1,1.7-1.7,2.2l-1.7-1c.2-.4.4-.7.6-1.1s.4-.8.5-1.2c.1-.4.2-.9.2-1.5v-2.4h2.8Z"/>
          <path d="M436.4,143.3v19h-3.3v-19h3.3ZM444.7,148.9l-5.8,6.5-3.1,3.2-1-2.5,2.4-3.1,3.6-4.1h3.9ZM441.4,162.3l-4.1-6.2,2.2-2.1,5.7,8.3h-3.8Z"/>
          <path d="M446.4,145.4c0-.5.2-.9.5-1.2.3-.3.8-.5,1.4-.5s1,.2,1.4.5c.3.3.5.7.5,1.2s-.2.9-.5,1.2c-.3.3-.8.5-1.4.5s-1-.2-1.4-.5c-.3-.3-.5-.7-.5-1.2ZM449.9,148.9v13.4h-3.3v-13.4h3.3Z"/>
          <path d="M456.2,151.8v10.5h-3.3v-13.4h3.1l.2,2.9ZM455.7,155.1h-1c0-1,.1-1.9.4-2.6s.6-1.5,1.1-2c.5-.6,1-1,1.7-1.3s1.4-.5,2.1-.5,1.2,0,1.7.3c.5.2,1,.5,1.3.9.4.4.7.9.9,1.6s.3,1.4.3,2.4v8.6h-3.3v-8.6c0-.6,0-1.1-.3-1.4-.2-.4-.4-.6-.8-.8-.3-.1-.7-.2-1.2-.2s-.9.1-1.3.3c-.4.2-.7.5-.9.8-.3.4-.4.8-.6,1.2-.1.5-.2,1-.2,1.5Z"/>
          <path d="M466.6,155.8v-.3c0-1,.1-1.9.4-2.8.2-.8.6-1.6,1-2.2.5-.6,1-1.1,1.6-1.4.6-.3,1.4-.5,2.2-.5s1.5.2,2.1.5c.6.3,1.1.8,1.5,1.4.4.6.8,1.3,1,2.1.3.8.4,1.7.6,2.7v.7c-.1.9-.3,1.8-.6,2.6s-.6,1.5-1,2.1-.9,1-1.5,1.4c-.6.3-1.3.5-2.1.5s-1.5-.2-2.2-.5c-.6-.3-1.2-.8-1.6-1.4s-.8-1.3-1-2.1c-.2-.8-.4-1.7-.4-2.7ZM469.9,155.5v.3c0,.6,0,1.1.1,1.6,0,.5.3.9.5,1.3.2.4.5.7.9.9.3.2.8.3,1.3.3s1.2-.1,1.6-.4c.4-.3.7-.7,1-1.2.2-.5.4-1.1.4-1.7v-1.9c0-.5-.1-1-.3-1.4-.1-.4-.3-.8-.6-1.1-.2-.3-.5-.5-.9-.7-.4-.2-.8-.3-1.3-.3s-.9.1-1.3.3c-.4.2-.6.5-.9.9-.2.4-.4.8-.5,1.3-.1.5-.2,1.1-.2,1.7ZM475.2,159.5v-16.1h3.3v19h-3l-.3-2.8Z"/>
          <path d="M484.5,159.4v2.3c0,.9-.2,1.8-.7,2.7s-1,1.7-1.7,2.2l-1.7-1c.2-.4.4-.7.6-1.1s.4-.8.5-1.2c.1-.4.2-.9.2-1.5v-2.4h2.8Z"/>
          <path d="M501.4,154.2v1.9s-2,0-2,0c-.5,0-1,0-1.3.2-.4.1-.7.3-1,.4s-.4.4-.6.7c-.1.3-.2.6-.2.9s0,.6.2.9c.2.3.4.5.7.6s.6.2,1,.2c.6,0,1.1-.1,1.5-.4.4-.2.8-.5,1-.9.2-.3.4-.7.4-1l.9,1.4c-.1.3-.3.7-.5,1.1-.2.4-.5.7-.9,1.1-.4.3-.8.6-1.3.8-.5.2-1.1.3-1.8.3s-1.6-.2-2.3-.5c-.7-.3-1.2-.8-1.6-1.4-.4-.6-.6-1.3-.6-2.1s.1-1.3.4-1.9.7-1,1.2-1.4c.5-.4,1.2-.7,1.9-.9s1.7-.3,2.6-.3h2.2ZM501,159.5v-6.2c0-.5,0-.8-.2-1.2-.2-.3-.4-.6-.7-.8-.3-.2-.7-.3-1.2-.3s-.8,0-1.1.2c-.3.1-.6.4-.7.6-.2.3-.3.6-.3.9h-3.3c0-.6.1-1.1.4-1.6.3-.5.6-.9,1.1-1.3.5-.4,1.1-.7,1.8-.9.7-.2,1.5-.3,2.3-.3s1.9.2,2.7.5c.8.3,1.4.9,1.9,1.5s.7,1.5.7,2.6v5.8c0,.7,0,1.2.1,1.7s.2.9.4,1.2v.2h-3.3c-.2-.3-.3-.8-.4-1.3,0-.5-.1-1-.1-1.5Z"/>
          <path d="M510.4,151.8v10.5h-3.3v-13.4h3.1l.2,2.9ZM509.9,155.1h-1c0-1,.1-1.9.4-2.6s.6-1.5,1.1-2c.5-.6,1-1,1.7-1.3s1.4-.5,2.1-.5,1.2,0,1.7.3c.5.2,1,.5,1.3.9.4.4.7.9.9,1.6s.3,1.4.3,2.4v8.6h-3.3v-8.6c0-.6,0-1.1-.3-1.4-.2-.4-.4-.6-.8-.8-.3-.1-.7-.2-1.2-.2s-.9.1-1.3.3c-.4.2-.7.5-.9.8-.3.4-.4.8-.6,1.2-.1.5-.2,1-.2,1.5Z"/>
          <path d="M520.8,155.8v-.3c0-1,.1-1.9.4-2.8.2-.8.6-1.6,1-2.2.5-.6,1-1.1,1.6-1.4.6-.3,1.4-.5,2.2-.5s1.5.2,2.1.5c.6.3,1.1.8,1.5,1.4.4.6.8,1.3,1,2.1.3.8.4,1.7.6,2.7v.7c-.1.9-.3,1.8-.6,2.6s-.6,1.5-1,2.1-.9,1-1.5,1.4c-.6.3-1.3.5-2.1.5s-1.5-.2-2.2-.5c-.6-.3-1.2-.8-1.6-1.4s-.8-1.3-1-2.1c-.2-.8-.4-1.7-.4-2.7ZM524,155.5v.3c0,.6,0,1.1.1,1.6,0,.5.3.9.5,1.3.2.4.5.7.9.9.3.2.8.3,1.3.3s1.2-.1,1.6-.4c.4-.3.7-.7,1-1.2.2-.5.4-1.1.4-1.7v-1.9c0-.5-.1-1-.3-1.4-.1-.4-.3-.8-.6-1.1-.2-.3-.5-.5-.9-.7-.4-.2-.8-.3-1.3-.3s-.9.1-1.3.3c-.4.2-.6.5-.9.9-.2.4-.4.8-.5,1.3-.1.5-.2,1.1-.2,1.7ZM529.4,159.5v-16.1h3.3v19h-3l-.3-2.8Z"/>
          <path d="M547.4,160c.5,0,.9,0,1.2-.3s.7-.4.9-.8c.2-.3.3-.7.4-1.1h3.1c0,.9-.3,1.7-.8,2.4s-1.2,1.3-2,1.7c-.8.4-1.7.6-2.7.6s-1.9-.2-2.7-.5c-.8-.3-1.4-.8-1.9-1.4s-.9-1.3-1.1-2.1c-.3-.8-.4-1.7-.4-2.6v-.4c0-.9.1-1.8.4-2.6.3-.8.6-1.5,1.1-2.1s1.1-1.1,1.9-1.4c.8-.3,1.7-.5,2.7-.5s2,.2,2.8.6,1.5,1,1.9,1.8c.5.8.7,1.7.7,2.7h-3.1c0-.5-.1-.9-.3-1.3-.2-.4-.5-.7-.8-.9s-.8-.3-1.3-.3-1,.1-1.4.3c-.4.2-.7.5-.9.9-.2.4-.3.8-.4,1.3,0,.5-.1,1-.1,1.5v.4c0,.5,0,1.1.1,1.6,0,.5.2.9.4,1.3.2.4.5.7.9.9.4.2.8.3,1.4.3Z"/>
          <path d="M554.5,155.8v-.3c0-1,.1-1.9.4-2.7.3-.8.7-1.5,1.2-2.2.5-.6,1.2-1.1,2-1.4s1.7-.5,2.6-.5,1.9.2,2.7.5c.8.3,1.4.8,2,1.4.5.6.9,1.3,1.2,2.2.3.8.4,1.7.4,2.7v.3c0,1-.1,1.9-.4,2.7-.3.8-.7,1.5-1.2,2.2-.5.6-1.2,1.1-2,1.4-.8.3-1.7.5-2.7.5s-1.9-.2-2.7-.5c-.8-.3-1.4-.8-2-1.4-.5-.6-.9-1.3-1.2-2.2-.3-.8-.4-1.7-.4-2.7ZM557.7,155.5v.3c0,.6,0,1.1.2,1.6.1.5.3,1,.5,1.3.2.4.5.7.9.9.4.2.8.3,1.4.3s1-.1,1.4-.3c.4-.2.7-.5.9-.9.2-.4.4-.8.5-1.3.1-.5.2-1.1.2-1.6v-.3c0-.6,0-1.1-.2-1.6s-.3-1-.5-1.3c-.2-.4-.6-.7-.9-.9-.4-.2-.8-.3-1.4-.3s-1,.1-1.4.3c-.4.2-.7.5-.9.9-.2.4-.4.8-.5,1.3s-.2,1-.2,1.6Z"/>
          <path d="M572.6,151.7v10.6h-3.3v-13.4h3.1l.2,2.7ZM572.1,155.1h-1c0-.9.1-1.8.3-2.6s.6-1.5,1-2,1-1,1.6-1.4c.7-.3,1.4-.5,2.3-.5s1.2,0,1.7.3.9.5,1.3.8c.4.4.6.9.8,1.5s.3,1.3.3,2.1v8.9h-3.3v-8.6c0-.6,0-1.1-.3-1.5-.2-.4-.4-.6-.8-.7-.3-.1-.7-.2-1.2-.2s-.9.1-1.3.3c-.4.2-.7.5-.9.8-.2.4-.4.8-.5,1.2-.1.5-.2,1-.2,1.5ZM580.3,154.5l-1.3.2c0-.8.1-1.6.3-2.4s.5-1.4,1-1.9c.4-.6,1-1,1.6-1.3s1.4-.5,2.2-.5,1.3,0,1.8.3,1,.5,1.4.9c.4.4.7.9.9,1.6.2.6.3,1.4.3,2.3v8.6h-3.3v-8.6c0-.7,0-1.1-.3-1.5-.2-.3-.4-.6-.8-.7-.3-.1-.7-.2-1.2-.2s-.8,0-1.2.3-.6.4-.8.7-.4.6-.5,1c-.1.4-.2.8-.2,1.3Z"/>
          <path d="M594.6,151.5v15.9h-3.3v-18.5h3l.2,2.6ZM603.2,155.5v.3c0,1-.1,1.9-.3,2.7s-.6,1.5-1,2.2-1,1.1-1.6,1.4-1.4.5-2.2.5-1.5-.2-2.1-.5-1.1-.8-1.5-1.4c-.4-.6-.8-1.3-1-2-.3-.8-.4-1.6-.6-2.6v-.8c.1-1,.3-1.9.6-2.7s.6-1.5,1-2.1.9-1,1.5-1.4c.6-.3,1.3-.5,2.1-.5s1.6.2,2.2.5c.6.3,1.2.8,1.6,1.4s.8,1.3,1,2.1c.2.8.3,1.8.3,2.8ZM599.9,155.7v-.3c0-.6,0-1.1-.2-1.6-.1-.5-.3-1-.5-1.3-.2-.4-.5-.7-.9-.9-.4-.2-.8-.3-1.3-.3s-.9,0-1.3.2c-.4.2-.7.4-.9.7s-.4.7-.5,1.1c-.1.4-.2.9-.3,1.4v2.1c0,.6.2,1.2.4,1.6.2.5.5.9.9,1.2s1,.4,1.6.4.9-.1,1.3-.3c.4-.2.6-.5.9-.9s.4-.8.5-1.4c0-.5.1-1.1.1-1.6Z"/>
          <path d="M609,143.3v19h-3.3v-19h3.3Z"/>
          <path d="M618.2,162.5c-1,0-1.9-.2-2.7-.5s-1.5-.8-2.1-1.4c-.6-.6-1-1.3-1.3-2.1-.3-.8-.5-1.6-.5-2.5v-.5c0-1,.1-2,.4-2.8.3-.8.7-1.6,1.3-2.2.5-.6,1.2-1.1,2-1.4.8-.3,1.6-.5,2.5-.5s1.8.2,2.5.5,1.3.8,1.8,1.3c.5.6.9,1.3,1.1,2.1.2.8.4,1.7.4,2.7v1.4h-10.5v-2.2h7.3v-.2c0-.5-.1-1-.3-1.4-.2-.4-.5-.8-.8-1-.4-.3-.9-.4-1.5-.4s-.9.1-1.3.3-.7.5-.9.9c-.2.4-.4.8-.5,1.4-.1.5-.2,1.1-.2,1.8v.5c0,.6,0,1.1.2,1.6s.4.9.7,1.2c.3.4.7.6,1.1.8.4.2.9.3,1.5.3s1.3-.1,1.9-.4,1-.7,1.5-1.2l1.6,1.7c-.3.4-.7.8-1.1,1.2-.5.4-1,.7-1.7.9s-1.4.4-2.3.4Z"/>
          <path d="M632.1,148.9v2.3h-7.7v-2.3h7.7ZM626.5,145.6h3.3v12.8c0,.4,0,.7.2.9.1.2.3.4.5.4.2,0,.5.1.8.1s.4,0,.6,0c.2,0,.3,0,.5,0v2.4c-.3,0-.6.2-.9.2s-.7,0-1.2,0c-.7,0-1.4-.1-1.9-.4-.6-.3-1-.7-1.3-1.2s-.5-1.3-.5-2.2v-13.1Z"/>
          <path d="M640.3,162.5c-1,0-1.9-.2-2.7-.5s-1.5-.8-2.1-1.4c-.6-.6-1-1.3-1.3-2.1-.3-.8-.5-1.6-.5-2.5v-.5c0-1,.1-2,.4-2.8.3-.8.7-1.6,1.3-2.2.5-.6,1.2-1.1,2-1.4.8-.3,1.6-.5,2.5-.5s1.8.2,2.5.5,1.3.8,1.8,1.3c.5.6.9,1.3,1.1,2.1.2.8.4,1.7.4,2.7v1.4h-10.5v-2.2h7.3v-.2c0-.5-.1-1-.3-1.4-.2-.4-.5-.8-.8-1-.4-.3-.9-.4-1.5-.4s-.9.1-1.3.3-.7.5-.9.9c-.2.4-.4.8-.5,1.4-.1.5-.2,1.1-.2,1.8v.5c0,.6,0,1.1.2,1.6s.4.9.7,1.2c.3.4.7.6,1.1.8.4.2.9.3,1.5.3s1.3-.1,1.9-.4,1-.7,1.5-1.2l1.6,1.7c-.3.4-.7.8-1.1,1.2-.5.4-1,.7-1.7.9s-1.4.4-2.3.4Z"/>
          <path d="M651.3,143.3v19h-3.3v-19h3.3Z"/>
          <path d="M656.6,148.9l3,9.8.5,3.4-2.2.4-4.8-13.7h3.5ZM658.4,160.8l3.6-11.9h3.5l-5.4,15.4c-.1.3-.3.7-.5,1.1-.2.4-.5.8-.8,1.1-.3.3-.7.6-1.2.9-.5.2-1.1.3-1.7.3s-.6,0-.8,0-.5,0-.7-.2v-2.4c0,0,.2,0,.3,0,.1,0,.2,0,.3,0,.5,0,.9,0,1.2-.2.3-.1.6-.3.8-.5.2-.2.4-.6.5-.9l1-2.6Z"/>
          <path d="M676.5,143.3v19h-3.3v-19h3.3ZM676,155.1h-1c0-.9.1-1.8.4-2.6s.6-1.5,1-2,1-1,1.6-1.4c.6-.3,1.3-.5,2.1-.5s1.3,0,1.8.3c.5.2,1,.5,1.4.9.4.4.7.9.9,1.6s.3,1.4.3,2.4v8.5h-3.3v-8.5c0-.6,0-1.1-.3-1.5-.2-.4-.4-.6-.8-.8-.3-.2-.7-.2-1.2-.2s-1,.1-1.4.3-.7.5-.9.8c-.2.4-.4.8-.5,1.2-.1.5-.2,1-.2,1.5Z"/>
          <path d="M686.8,155.8v-.3c0-1,.1-1.9.4-2.7.3-.8.7-1.5,1.2-2.2.5-.6,1.2-1.1,2-1.4s1.7-.5,2.6-.5,1.9.2,2.7.5,1.4.8,2,1.4c.5.6.9,1.3,1.2,2.2.3.8.4,1.7.4,2.7v.3c0,1-.1,1.9-.4,2.7-.3.8-.7,1.5-1.2,2.2-.5.6-1.2,1.1-2,1.4-.8.3-1.7.5-2.7.5s-1.9-.2-2.7-.5c-.8-.3-1.4-.8-2-1.4-.5-.6-.9-1.3-1.2-2.2-.3-.8-.4-1.7-.4-2.7ZM690.1,155.5v.3c0,.6,0,1.1.2,1.6.1.5.3,1,.5,1.3.2.4.5.7.9.9s.8.3,1.4.3,1-.1,1.4-.3.7-.5.9-.9c.2-.4.4-.8.5-1.3.1-.5.2-1.1.2-1.6v-.3c0-.6,0-1.1-.2-1.6-.1-.5-.3-1-.5-1.3-.2-.4-.6-.7-.9-.9-.4-.2-.8-.3-1.4-.3s-1,.1-1.4.3c-.4.2-.7.5-.9.9-.2.4-.4.8-.5,1.3s-.2,1-.2,1.6Z"/>
          <path d="M704.9,151.8v10.5h-3.3v-13.4h3.1l.2,2.9ZM704.4,155.1h-1c0-1,.1-1.9.4-2.6s.6-1.5,1.1-2c.5-.6,1-1,1.7-1.3s1.4-.5,2.1-.5,1.2,0,1.7.3c.5.2,1,.5,1.3.9.4.4.7.9.9,1.6s.3,1.4.3,2.4v8.6h-3.3v-8.6c0-.6,0-1.1-.3-1.4-.2-.4-.4-.6-.8-.8-.3-.1-.7-.2-1.2-.2s-.9.1-1.3.3c-.4.2-.7.5-.9.8-.3.4-.4.8-.6,1.2-.1.5-.2,1-.2,1.5Z"/>
          <path d="M721.9,162.5c-1,0-1.9-.2-2.7-.5s-1.5-.8-2.1-1.4c-.6-.6-1-1.3-1.3-2.1-.3-.8-.5-1.6-.5-2.5v-.5c0-1,.1-2,.4-2.8.3-.8.7-1.6,1.3-2.2.5-.6,1.2-1.1,2-1.4.8-.3,1.6-.5,2.5-.5s1.8.2,2.5.5,1.3.8,1.8,1.3c.5.6.9,1.3,1.1,2.1.2.8.4,1.7.4,2.7v1.4h-10.5v-2.2h7.3v-.2c0-.5-.1-1-.3-1.4-.2-.4-.5-.8-.8-1-.4-.3-.9-.4-1.5-.4s-.9.1-1.3.3-.7.5-.9.9c-.2.4-.4.8-.5,1.4-.1.5-.2,1.1-.2,1.8v.5c0,.6,0,1.1.2,1.6s.4.9.7,1.2c.3.4.7.6,1.1.8.4.2.9.3,1.5.3s1.3-.1,1.9-.4,1-.7,1.5-1.2l1.6,1.7c-.3.4-.7.8-1.1,1.2-.5.4-1,.7-1.7.9s-1.4.4-2.3.4Z"/>
          <path d="M736.8,158.6c0-.3,0-.5-.2-.8-.1-.2-.4-.4-.8-.6-.4-.2-1-.4-1.8-.5-.7-.1-1.3-.3-1.9-.6-.6-.2-1.1-.5-1.5-.8-.4-.3-.7-.7-1-1.1-.2-.4-.4-.9-.4-1.5s.1-1.1.4-1.6c.2-.5.6-.9,1-1.3.5-.4,1-.7,1.7-.9.7-.2,1.4-.3,2.2-.3s2.1.2,2.9.6,1.4.9,1.9,1.5c.4.6.7,1.4.7,2.2h-3.3c0-.4,0-.7-.2-1-.2-.3-.4-.5-.7-.7-.3-.2-.7-.3-1.2-.3s-.8,0-1.1.2c-.3.1-.5.3-.7.6-.2.2-.2.5-.2.8s0,.4.1.6c0,.2.2.3.4.5.2.1.5.3.8.4.3.1.8.2,1.3.3,1,.2,1.9.5,2.6.8.7.3,1.3.8,1.7,1.3.4.5.6,1.2.6,2.1s-.1,1.1-.4,1.6c-.3.5-.6.9-1.1,1.3-.5.4-1.1.6-1.7.8-.7.2-1.4.3-2.3.3-1.2,0-2.3-.2-3.1-.7-.8-.4-1.5-1-1.9-1.7-.4-.7-.7-1.4-.7-2.1h3.1c0,.5.2.9.4,1.2.3.3.6.5,1,.7.4.1.8.2,1.2.2s.9,0,1.2-.2c.3-.1.6-.3.8-.6s.3-.5.3-.8Z"/>
          <path d="M748.8,148.9v2.3h-7.7v-2.3h7.7ZM743.2,145.6h3.3v12.8c0,.4,0,.7.2.9.1.2.3.4.5.4.2,0,.5.1.8.1s.4,0,.6,0c.2,0,.3,0,.5,0v2.4c-.3,0-.6.2-.9.2s-.7,0-1.2,0c-.7,0-1.4-.1-1.9-.4-.6-.3-1-.7-1.3-1.2s-.5-1.3-.5-2.2v-13.1Z"/>
          <path d="M757.2,145.4c0-.5.2-.9.5-1.2.3-.3.8-.5,1.4-.5s1,.2,1.4.5c.3.3.5.7.5,1.2s-.2.9-.5,1.2c-.3.3-.8.5-1.4.5s-1-.2-1.4-.5c-.3-.3-.5-.7-.5-1.2ZM760.7,148.9v13.4h-3.3v-13.4h3.3Z"/>
          <path d="M767,151.8v10.5h-3.3v-13.4h3.1l.2,2.9ZM766.5,155.1h-1c0-1,.1-1.9.4-2.6s.6-1.5,1.1-2c.5-.6,1-1,1.7-1.3s1.4-.5,2.1-.5,1.2,0,1.7.3c.5.2,1,.5,1.3.9.4.4.7.9.9,1.6s.3,1.4.3,2.4v8.6h-3.3v-8.6c0-.6,0-1.1-.3-1.4-.2-.4-.4-.6-.8-.8-.3-.1-.7-.2-1.2-.2s-.9.1-1.3.3c-.4.2-.7.5-.9.8-.3.4-.4.8-.6,1.2-.1.5-.2,1-.2,1.5Z"/>
          <path d="M787.5,151.7v10.6h-3.3v-13.4h3.1l.2,2.7ZM787,155.1h-1c0-.9.1-1.8.3-2.6s.6-1.5,1-2c.4-.6,1-1,1.6-1.4.7-.3,1.4-.5,2.3-.5s1.2,0,1.7.3c.5.2.9.5,1.3.8.4.4.6.9.8,1.5.2.6.3,1.3.3,2.1v8.9h-3.3v-8.6c0-.6,0-1.1-.3-1.5-.2-.4-.4-.6-.8-.7s-.7-.2-1.2-.2-.9.1-1.3.3c-.4.2-.7.5-.9.8-.2.4-.4.8-.5,1.2-.1.5-.2,1-.2,1.5ZM795.1,154.5l-1.3.2c0-.8.1-1.6.3-2.4.2-.7.5-1.4,1-1.9.4-.6,1-1,1.6-1.3s1.4-.5,2.2-.5,1.3,0,1.8.3c.5.2,1,.5,1.4.9s.7.9.9,1.6c.2.6.3,1.4.3,2.3v8.6h-3.3v-8.6c0-.7,0-1.1-.3-1.5-.2-.3-.4-.6-.8-.7-.3-.1-.7-.2-1.2-.2s-.8,0-1.2.3c-.3.2-.6.4-.8.7s-.4.6-.5,1c-.1.4-.2.8-.2,1.3Z"/>
          <path d="M814,154.2v1.9s-2,0-2,0c-.5,0-1,0-1.3.2s-.7.3-1,.4-.4.4-.6.7c-.1.3-.2.6-.2.9s0,.6.2.9c.2.3.4.5.7.6s.6.2,1,.2c.6,0,1.1-.1,1.5-.4.4-.2.8-.5,1-.9.2-.3.4-.7.4-1l.9,1.4c-.1.3-.3.7-.5,1.1-.2.4-.5.7-.9,1.1-.4.3-.8.6-1.3.8-.5.2-1.1.3-1.8.3s-1.6-.2-2.3-.5c-.7-.3-1.2-.8-1.6-1.4-.4-.6-.6-1.3-.6-2.1s.1-1.3.4-1.9.7-1,1.2-1.4c.5-.4,1.2-.7,1.9-.9s1.7-.3,2.6-.3h2.2ZM813.6,159.5v-6.2c0-.5,0-.8-.2-1.2-.2-.3-.4-.6-.7-.8s-.7-.3-1.2-.3-.8,0-1.1.2c-.3.1-.6.4-.7.6s-.3.6-.3.9h-3.3c0-.6.1-1.1.4-1.6.3-.5.6-.9,1.1-1.3.5-.4,1.1-.7,1.8-.9.7-.2,1.5-.3,2.3-.3s1.9.2,2.7.5c.8.3,1.4.9,1.9,1.5s.7,1.5.7,2.6v5.8c0,.7,0,1.2.1,1.7,0,.5.2.9.4,1.2v.2h-3.3c-.2-.3-.3-.8-.4-1.3,0-.5-.1-1-.1-1.5Z"/>
          <path d="M823.1,143.3v19h-3.3v-19h3.3ZM831.5,148.9l-5.8,6.5-3.2,3.2-1-2.5,2.4-3.1,3.6-4.1h3.9ZM828.1,162.3l-4.1-6.2,2.2-2.1,5.7,8.3h-3.8Z"/>
          <path d="M833.1,145.4c0-.5.2-.9.5-1.2.3-.3.8-.5,1.4-.5s1,.2,1.4.5c.3.3.5.7.5,1.2s-.2.9-.5,1.2c-.3.3-.8.5-1.4.5s-1-.2-1.4-.5c-.3-.3-.5-.7-.5-1.2ZM836.6,148.9v13.4h-3.3v-13.4h3.3Z"/>
          <path d="M842.9,151.8v10.5h-3.3v-13.4h3.1l.2,2.9ZM842.4,155.1h-1c0-1,.1-1.9.4-2.6s.6-1.5,1.1-2c.5-.6,1-1,1.7-1.3s1.4-.5,2.1-.5,1.2,0,1.7.3c.5.2,1,.5,1.3.9.4.4.7.9.9,1.6s.3,1.4.3,2.4v8.6h-3.3v-8.6c0-.6,0-1.1-.3-1.4-.2-.4-.4-.6-.8-.8-.3-.1-.7-.2-1.2-.2s-.9.1-1.3.3c-.4.2-.7.5-.9.8-.3.4-.4.8-.6,1.2-.1.5-.2,1-.2,1.5Z"/>
          <path d="M853.3,155.8v-.3c0-1,.1-1.9.4-2.8.2-.8.6-1.6,1.1-2.2.5-.6,1-1.1,1.7-1.4.7-.3,1.4-.5,2.2-.5s1.6.2,2.2.5c.6.3,1.1.8,1.5,1.4.4.6.7,1.3.9,2.1.2.8.4,1.7.5,2.7v.7c-.1.9-.3,1.8-.5,2.6-.3.8-.6,1.5-1,2.1-.4.6-.9,1-1.5,1.4-.6.3-1.3.5-2.1.5s-1.6-.2-2.2-.5c-.7-.3-1.2-.8-1.7-1.4-.5-.6-.8-1.3-1.1-2.1-.2-.8-.4-1.7-.4-2.7ZM862.4,148.9h3v13c0,1.2-.3,2.2-.8,3.1-.5.8-1.3,1.5-2.2,1.9-.9.4-2,.7-3.3.7s-1.1,0-1.7-.2c-.6-.1-1.2-.4-1.8-.7-.6-.3-1-.7-1.4-1.2l1.5-1.9c.4.5.9.9,1.5,1.2s1.2.4,1.8.4,1.2-.1,1.7-.4c.5-.2.8-.6,1.1-1.1.3-.5.4-1,.4-1.7v-9.9l.3-3.1ZM856.6,155.5v.3c0,.6,0,1.1.2,1.6.1.5.3.9.5,1.3.2.4.5.7.9.9.4.2.8.3,1.3.3s1.2-.1,1.7-.4c.4-.3.8-.7,1-1.2.2-.5.4-1.1.4-1.7v-1.9c0-.5-.1-1-.3-1.4s-.3-.8-.6-1.1c-.2-.3-.5-.5-.9-.7-.4-.2-.8-.3-1.3-.3s-.9.1-1.3.3c-.4.2-.7.5-.9.9s-.4.8-.5,1.3c-.1.5-.2,1.1-.2,1.7Z"/>
          <path d="M880.9,148.9v2.3h-7.7v-2.3h7.7ZM875.3,145.6h3.3v12.8c0,.4,0,.7.2.9.1.2.3.4.5.4.2,0,.5.1.8.1s.4,0,.6,0c.2,0,.3,0,.5,0v2.4c-.3,0-.6.2-.9.2s-.7,0-1.2,0c-.7,0-1.4-.1-1.9-.4-.6-.3-1-.7-1.3-1.2s-.5-1.3-.5-2.2v-13.1Z"/>
          <path d="M886.2,143.3v19h-3.3v-19h3.3ZM885.7,155.1h-1c0-.9.1-1.8.4-2.6s.6-1.5,1-2,1-1,1.6-1.4c.6-.3,1.3-.5,2.1-.5s1.3,0,1.8.3c.5.2,1,.5,1.4.9.4.4.7.9.9,1.6s.3,1.4.3,2.4v8.5h-3.3v-8.5c0-.6,0-1.1-.3-1.5-.2-.4-.4-.6-.8-.8-.3-.2-.7-.2-1.2-.2s-1,.1-1.4.3-.7.5-.9.8c-.2.4-.4.8-.5,1.2-.1.5-.2,1-.2,1.5Z"/>
          <path d="M903.2,162.5c-1,0-1.9-.2-2.7-.5s-1.5-.8-2.1-1.4c-.6-.6-1-1.3-1.3-2.1-.3-.8-.5-1.6-.5-2.5v-.5c0-1,.1-2,.4-2.8.3-.8.7-1.6,1.3-2.2.5-.6,1.2-1.1,2-1.4.8-.3,1.6-.5,2.5-.5s1.8.2,2.5.5,1.3.8,1.8,1.3c.5.6.9,1.3,1.1,2.1.2.8.4,1.7.4,2.7v1.4h-10.5v-2.2h7.3v-.2c0-.5-.1-1-.3-1.4-.2-.4-.5-.8-.8-1-.4-.3-.9-.4-1.5-.4s-.9.1-1.3.3-.7.5-.9.9c-.2.4-.4.8-.5,1.4-.1.5-.2,1.1-.2,1.8v.5c0,.6,0,1.1.2,1.6s.4.9.7,1.2c.3.4.7.6,1.1.8.4.2.9.3,1.5.3s1.3-.1,1.9-.4,1-.7,1.5-1.2l1.6,1.7c-.3.4-.7.8-1.1,1.2-.5.4-1,.7-1.7.9s-1.4.4-2.3.4Z"/>
          <path d="M916.5,155.8v-.3c0-1,.1-1.9.4-2.7.3-.8.7-1.5,1.2-2.2.5-.6,1.2-1.1,2-1.4s1.7-.5,2.6-.5,1.9.2,2.7.5,1.4.8,2,1.4c.5.6.9,1.3,1.2,2.2.3.8.4,1.7.4,2.7v.3c0,1-.1,1.9-.4,2.7-.3.8-.7,1.5-1.2,2.2-.5.6-1.2,1.1-2,1.4-.8.3-1.7.5-2.7.5s-1.9-.2-2.7-.5c-.8-.3-1.4-.8-2-1.4-.5-.6-.9-1.3-1.2-2.2-.3-.8-.4-1.7-.4-2.7ZM919.7,155.5v.3c0,.6,0,1.1.2,1.6.1.5.3,1,.5,1.3.2.4.5.7.9.9s.8.3,1.4.3,1-.1,1.4-.3.7-.5.9-.9c.2-.4.4-.8.5-1.3.1-.5.2-1.1.2-1.6v-.3c0-.6,0-1.1-.2-1.6-.1-.5-.3-1-.5-1.3-.2-.4-.6-.7-.9-.9-.4-.2-.8-.3-1.4-.3s-1,.1-1.4.3c-.4.2-.7.5-.9.9-.2.4-.4.8-.5,1.3s-.2,1-.2,1.6Z"/>
          <path d="M938.4,148.9v2.3h-8v-2.3h8ZM935.7,162.3h-3.3v-14.6c0-1,.2-1.9.6-2.5.4-.7.9-1.2,1.7-1.6.7-.4,1.6-.5,2.5-.5s.6,0,.9,0c.3,0,.6,0,.9.2v2.5c-.2,0-.4,0-.6,0s-.4,0-.6,0c-.4,0-.8,0-1.1.2-.3.2-.5.4-.7.7-.2.3-.2.7-.2,1.1v14.6Z"/>
          <path d="M947.3,148.9v2.3h-8v-2.3h8ZM944.6,162.3h-3.3v-14.6c0-1,.2-1.9.6-2.5.4-.7.9-1.2,1.7-1.6.7-.4,1.6-.5,2.5-.5s.6,0,.9,0c.3,0,.6,0,.9.2v2.5c-.2,0-.4,0-.6,0s-.4,0-.6,0c-.4,0-.8,0-1.1.2-.3.2-.5.4-.7.7-.2.3-.2.7-.2,1.1v14.6Z"/>
          <path d="M955.1,162.5c-1,0-1.9-.2-2.7-.5s-1.5-.8-2.1-1.4c-.6-.6-1-1.3-1.3-2.1-.3-.8-.5-1.6-.5-2.5v-.5c0-1,.1-2,.4-2.8.3-.8.7-1.6,1.3-2.2.5-.6,1.2-1.1,2-1.4.8-.3,1.6-.5,2.5-.5s1.8.2,2.5.5,1.3.8,1.8,1.3c.5.6.9,1.3,1.1,2.1.2.8.4,1.7.4,2.7v1.4h-10.5v-2.2h7.3v-.2c0-.5-.1-1-.3-1.4-.2-.4-.5-.8-.8-1-.4-.3-.9-.4-1.5-.4s-.9.1-1.3.3-.7.5-.9.9c-.2.4-.4.8-.5,1.4-.1.5-.2,1.1-.2,1.8v.5c0,.6,0,1.1.2,1.6s.4.9.7,1.2c.3.4.7.6,1.1.8.4.2.9.3,1.5.3s1.3-.1,1.9-.4,1-.7,1.5-1.2l1.6,1.7c-.3.4-.7.8-1.1,1.2-.5.4-1,.7-1.7.9s-1.4.4-2.3.4Z"/>
          <path d="M965.9,151.7v10.6h-3.3v-13.4h3.1l.2,2.7ZM970,148.8v3c-.2,0-.4,0-.7,0s-.4,0-.6,0c-.5,0-.9,0-1.3.2-.4.1-.7.3-.9.6-.3.3-.4.6-.6.9-.1.4-.2.8-.2,1.2h-.7c0-.9,0-1.7.3-2.4.2-.7.4-1.4.8-1.9s.7-1,1.2-1.3c.5-.3,1.1-.5,1.7-.5s.4,0,.6,0c.2,0,.4,0,.5.1Z"/>
        </g>
      </g>
      <g class="st1">
        <g class="st1">
          <path d="M255.8,179.3v2.3h-8v-2.3h8ZM253.1,192.6h-3.3v-14.6c0-1,.2-1.9.6-2.5s.9-1.2,1.7-1.6c.7-.4,1.6-.5,2.5-.5s.6,0,.9,0c.3,0,.6,0,.9.2v2.5c-.2,0-.4,0-.6,0-.2,0-.4,0-.6,0-.4,0-.8,0-1.1.2-.3.2-.5.4-.7.7-.2.3-.2.7-.2,1.1v14.6Z"/>
          <path d="M257.3,186.1v-.3c0-1,.1-1.9.4-2.7.3-.8.7-1.5,1.2-2.2.5-.6,1.2-1.1,2-1.4s1.7-.5,2.6-.5,1.9.2,2.7.5c.8.3,1.4.8,2,1.4.5.6.9,1.3,1.2,2.2.3.8.4,1.7.4,2.7v.3c0,1-.1,1.9-.4,2.7-.3.8-.7,1.5-1.2,2.2-.5.6-1.2,1.1-2,1.4-.8.3-1.7.5-2.7.5s-1.9-.2-2.7-.5c-.8-.3-1.4-.8-2-1.4-.5-.6-.9-1.3-1.2-2.2-.3-.8-.4-1.7-.4-2.7ZM260.5,185.8v.3c0,.6,0,1.1.2,1.6.1.5.3,1,.5,1.3.2.4.5.7.9.9.4.2.8.3,1.4.3s1-.1,1.4-.3c.4-.2.7-.5.9-.9.2-.4.4-.8.5-1.3.1-.5.2-1.1.2-1.6v-.3c0-.6,0-1.1-.2-1.6s-.3-1-.5-1.3c-.2-.4-.6-.7-.9-.9-.4-.2-.8-.3-1.4-.3s-1,.1-1.4.3c-.4.2-.7.5-.9.9-.2.4-.4.8-.5,1.3s-.2,1-.2,1.6Z"/>
          <path d="M275.4,182v10.6h-3.3v-13.4h3.1l.2,2.7ZM279.5,179.2v3c-.2,0-.4,0-.7,0s-.4,0-.6,0c-.5,0-.9,0-1.3.2-.4.1-.7.3-.9.6-.3.3-.4.6-.6.9-.1.4-.2.8-.2,1.2h-.7c0-.9,0-1.7.3-2.4s.4-1.4.8-1.9c.3-.5.7-1,1.2-1.3.5-.3,1.1-.5,1.7-.5s.4,0,.6,0c.2,0,.4,0,.5.1Z"/>
          <path d="M290.8,182v10.6h-3.3v-13.4h3.1l.2,2.7ZM290.3,185.5h-1c0-.9.1-1.8.3-2.6s.6-1.5,1-2,1-1,1.6-1.4c.7-.3,1.4-.5,2.3-.5s1.2,0,1.7.3.9.5,1.3.8c.4.4.6.9.8,1.5s.3,1.3.3,2.1v8.9h-3.3v-8.6c0-.6,0-1.1-.3-1.5-.2-.4-.4-.6-.8-.7-.3-.1-.7-.2-1.2-.2s-.9.1-1.3.3c-.4.2-.7.5-.9.8-.2.4-.4.8-.5,1.2-.1.5-.2,1-.2,1.5ZM298.4,184.9l-1.3.2c0-.8.1-1.6.3-2.4s.5-1.4,1-1.9c.4-.6,1-1,1.6-1.3s1.4-.5,2.2-.5,1.3,0,1.8.3,1,.5,1.4.9.7.9.9,1.6c.2.6.3,1.4.3,2.3v8.6h-3.3v-8.6c0-.7,0-1.1-.3-1.5-.2-.3-.4-.6-.8-.7-.3-.1-.7-.2-1.2-.2s-.8,0-1.2.3-.6.4-.8.7-.4.6-.5,1c-.1.4-.2.8-.2,1.3Z"/>
          <path d="M311.7,179.3l3,9.8.5,3.4-2.2.4-4.8-13.7h3.5ZM313.4,191.1l3.6-11.9h3.5l-5.4,15.4c-.1.3-.3.7-.5,1.1-.2.4-.5.8-.8,1.1-.3.3-.7.6-1.2.9-.5.2-1.1.3-1.7.3s-.6,0-.8,0c-.2,0-.5,0-.7-.2v-2.4c0,0,.2,0,.3,0,.1,0,.2,0,.3,0,.5,0,.9,0,1.2-.2.3-.1.6-.3.8-.5.2-.2.4-.6.5-.9l1-2.6Z"/>
          <path d="M330.5,179.3l3.1,10.9v2.4c.1,0-2,0-2,0l-4.6-13.4h3.4ZM332.8,190.2l3.1-10.9h3.4l-4.6,13.4h-2.1v-2.5Z"/>
          <path d="M346.9,192.9c-1,0-1.9-.2-2.7-.5s-1.5-.8-2.1-1.4c-.6-.6-1-1.3-1.3-2.1-.3-.8-.5-1.6-.5-2.5v-.5c0-1,.1-2,.4-2.8.3-.8.7-1.6,1.3-2.2.5-.6,1.2-1.1,2-1.4.8-.3,1.6-.5,2.5-.5s1.8.2,2.5.5,1.3.8,1.8,1.3c.5.6.9,1.3,1.1,2.1.2.8.4,1.7.4,2.7v1.4h-10.5v-2.2h7.3v-.2c0-.5-.1-1-.3-1.4-.2-.4-.5-.8-.8-1-.4-.3-.9-.4-1.5-.4s-.9.1-1.3.3c-.4.2-.7.5-.9.9-.2.4-.4.8-.5,1.4-.1.5-.2,1.1-.2,1.8v.5c0,.6,0,1.1.2,1.6.2.5.4.9.7,1.2.3.4.7.6,1.1.8.4.2.9.3,1.5.3s1.3-.1,1.9-.4c.6-.3,1-.7,1.5-1.2l1.6,1.7c-.3.4-.7.8-1.1,1.2-.5.4-1,.7-1.7.9s-1.4.4-2.3.4Z"/>
          <path d="M357.7,173.6v19h-3.3v-19h3.3ZM357.2,185.5h-1c0-.9.1-1.8.4-2.6.2-.8.6-1.5,1-2,.5-.6,1-1,1.6-1.4.6-.3,1.3-.5,2.1-.5s1.3,0,1.8.3c.5.2,1,.5,1.4.9.4.4.7.9.9,1.6s.3,1.4.3,2.4v8.5h-3.3v-8.5c0-.6,0-1.1-.3-1.5-.2-.4-.4-.6-.8-.8s-.7-.2-1.2-.2-1,.1-1.4.3c-.4.2-.7.5-.9.8-.2.4-.4.8-.5,1.2-.1.5-.2,1-.2,1.5Z"/>
          <path d="M368.6,175.8c0-.5.2-.9.5-1.2.3-.3.8-.5,1.4-.5s1,.2,1.4.5c.3.3.5.7.5,1.2s-.2.9-.5,1.2c-.3.3-.8.5-1.4.5s-1-.2-1.4-.5c-.3-.3-.5-.7-.5-1.2ZM372.1,179.3v13.4h-3.3v-13.4h3.3Z"/>
          <path d="M380.7,190.3c.5,0,.9,0,1.2-.3s.7-.4.9-.8c.2-.3.3-.7.4-1.1h3.1c0,.9-.3,1.7-.8,2.4s-1.2,1.3-2,1.7c-.8.4-1.7.6-2.7.6s-1.9-.2-2.7-.5c-.8-.3-1.4-.8-1.9-1.4s-.9-1.3-1.1-2.1c-.3-.8-.4-1.7-.4-2.6v-.4c0-.9.1-1.8.4-2.6.3-.8.6-1.5,1.1-2.1s1.1-1.1,1.9-1.4c.8-.3,1.7-.5,2.7-.5s2,.2,2.8.6,1.5,1,1.9,1.8c.5.8.7,1.7.7,2.7h-3.1c0-.5-.1-.9-.3-1.3-.2-.4-.5-.7-.8-.9s-.8-.3-1.3-.3-1,.1-1.4.3c-.4.2-.7.5-.9.9-.2.4-.3.8-.4,1.3,0,.5-.1,1-.1,1.5v.4c0,.5,0,1.1.1,1.6,0,.5.2.9.4,1.3.2.4.5.7.9.9.4.2.8.3,1.4.3Z"/>
          <path d="M391.8,173.6v19h-3.3v-19h3.3Z"/>
          <path d="M400.9,192.9c-1,0-1.9-.2-2.7-.5s-1.5-.8-2.1-1.4c-.6-.6-1-1.3-1.3-2.1-.3-.8-.5-1.6-.5-2.5v-.5c0-1,.1-2,.4-2.8.3-.8.7-1.6,1.3-2.2.5-.6,1.2-1.1,2-1.4.8-.3,1.6-.5,2.5-.5s1.8.2,2.5.5,1.3.8,1.8,1.3c.5.6.9,1.3,1.1,2.1.2.8.4,1.7.4,2.7v1.4h-10.5v-2.2h7.3v-.2c0-.5-.1-1-.3-1.4-.2-.4-.5-.8-.8-1-.4-.3-.9-.4-1.5-.4s-.9.1-1.3.3c-.4.2-.7.5-.9.9-.2.4-.4.8-.5,1.4-.1.5-.2,1.1-.2,1.8v.5c0,.6,0,1.1.2,1.6.2.5.4.9.7,1.2.3.4.7.6,1.1.8.4.2.9.3,1.5.3s1.3-.1,1.9-.4c.6-.3,1-.7,1.5-1.2l1.6,1.7c-.3.4-.7.8-1.1,1.2-.5.4-1,.7-1.7.9s-1.4.4-2.3.4Z"/>
          <path d="M408.7,191c0-.5.2-.9.5-1.2.3-.3.8-.5,1.4-.5s1,.2,1.4.5.5.8.5,1.2-.2.9-.5,1.2c-.3.3-.8.5-1.4.5s-1-.2-1.4-.5c-.3-.3-.5-.7-.5-1.2Z"/>
          <path d="M425.9,174.6v18h-3.4v-18h3.4Z"/>
          <path d="M437.7,179.3l2.2,10.2.2,3.2h-2.1l-3.5-13.4h3.2ZM439.3,189.4l2.9-10.2h2.1l-.6,3.5-3,9.9h-1.8l.4-3.2ZM444.6,179.3l2.9,10.1.4,3.3h-1.8l-3-9.9-.6-3.5h2.1ZM447,189.3l2.1-10h3.2l-3.5,13.4h-2.1l.2-3.3Z"/>
          <path d="M453.7,186.1v-.3c0-1,.1-1.9.4-2.7.3-.8.7-1.5,1.2-2.2.5-.6,1.2-1.1,2-1.4s1.7-.5,2.6-.5,1.9.2,2.7.5c.8.3,1.4.8,2,1.4.5.6.9,1.3,1.2,2.2.3.8.4,1.7.4,2.7v.3c0,1-.1,1.9-.4,2.7-.3.8-.7,1.5-1.2,2.2-.5.6-1.2,1.1-2,1.4-.8.3-1.7.5-2.7.5s-1.9-.2-2.7-.5c-.8-.3-1.4-.8-2-1.4-.5-.6-.9-1.3-1.2-2.2-.3-.8-.4-1.7-.4-2.7ZM456.9,185.8v.3c0,.6,0,1.1.2,1.6.1.5.3,1,.5,1.3.2.4.5.7.9.9.4.2.8.3,1.4.3s1-.1,1.4-.3c.4-.2.7-.5.9-.9.2-.4.4-.8.5-1.3.1-.5.2-1.1.2-1.6v-.3c0-.6,0-1.1-.2-1.6s-.3-1-.5-1.3c-.2-.4-.6-.7-.9-.9-.4-.2-.8-.3-1.4-.3s-1,.1-1.4.3c-.4.2-.7.5-.9.9-.2.4-.4.8-.5,1.3s-.2,1-.2,1.6Z"/>
          <path d="M477,186.7h1c0,.9,0,1.7-.3,2.5-.2.8-.5,1.4-.9,2s-.9,1-1.6,1.3c-.6.3-1.4.5-2.2.5s-1.3,0-1.8-.3c-.5-.2-1-.5-1.4-.9s-.7-.9-.9-1.5c-.2-.6-.3-1.4-.3-2.3v-8.6h3.3v8.7c0,.4,0,.8.2,1.1.1.3.2.5.4.7s.4.3.7.4c.3,0,.5.1.8.1.8,0,1.4-.2,1.9-.5.5-.3.8-.7,1-1.3.2-.5.3-1.1.3-1.8ZM476.5,189.4v-10.2h3.3v13.4h-3.1l-.2-3.2Z"/>
          <path d="M486.2,173.6v19h-3.3v-19h3.3Z"/>
          <path d="M488.7,186.1v-.3c0-1,.1-1.9.4-2.8.2-.8.6-1.6,1-2.2.5-.6,1-1.1,1.6-1.4.6-.3,1.4-.5,2.2-.5s1.5.2,2.1.5c.6.3,1.1.8,1.5,1.4.4.6.8,1.3,1,2.1.3.8.4,1.7.6,2.7v.7c-.1.9-.3,1.8-.6,2.6s-.6,1.5-1,2.1-.9,1-1.5,1.4c-.6.3-1.3.5-2.1.5s-1.5-.2-2.2-.5c-.6-.3-1.2-.8-1.6-1.4s-.8-1.3-1-2.1c-.2-.8-.4-1.7-.4-2.7ZM492,185.8v.3c0,.6,0,1.1.1,1.6,0,.5.3.9.5,1.3.2.4.5.7.9.9.3.2.8.3,1.3.3s1.2-.1,1.6-.4c.4-.3.7-.7,1-1.2.2-.5.4-1.1.4-1.7v-1.9c0-.5-.1-1-.3-1.4-.1-.4-.3-.8-.6-1.1-.2-.3-.5-.5-.9-.7-.4-.2-.8-.3-1.3-.3s-.9.1-1.3.3c-.4.2-.6.5-.9.9-.2.4-.4.8-.5,1.3-.1.5-.2,1.1-.2,1.7ZM497.3,189.8v-16.1h3.3v19h-3l-.3-2.8Z"/>
          <path d="M513,173.6v19h-3.3v-19h3.3ZM512.5,185.5h-1c0-.9.1-1.8.4-2.6.2-.8.6-1.5,1-2,.5-.6,1-1,1.6-1.4.6-.3,1.3-.5,2.1-.5s1.3,0,1.8.3c.5.2,1,.5,1.4.9.4.4.7.9.9,1.6s.3,1.4.3,2.4v8.5h-3.3v-8.5c0-.6,0-1.1-.3-1.5-.2-.4-.4-.6-.8-.8s-.7-.2-1.2-.2-1,.1-1.4.3c-.4.2-.7.5-.9.8-.2.4-.4.8-.5,1.2-.1.5-.2,1-.2,1.5Z"/>
          <path d="M523.9,175.8c0-.5.2-.9.5-1.2.3-.3.8-.5,1.4-.5s1,.2,1.4.5c.3.3.5.7.5,1.2s-.2.9-.5,1.2c-.3.3-.8.5-1.4.5s-1-.2-1.4-.5c-.3-.3-.5-.7-.5-1.2ZM527.4,179.3v13.4h-3.3v-13.4h3.3Z"/>
          <path d="M530,186.1v-.3c0-1,.1-1.9.4-2.8.2-.8.6-1.6,1.1-2.2.5-.6,1-1.1,1.7-1.4.7-.3,1.4-.5,2.2-.5s1.6.2,2.2.5c.6.3,1.1.8,1.5,1.4.4.6.7,1.3.9,2.1.2.8.4,1.7.5,2.7v.7c-.1.9-.3,1.8-.5,2.6-.3.8-.6,1.5-1,2.1-.4.6-.9,1-1.5,1.4-.6.3-1.3.5-2.1.5s-1.6-.2-2.2-.5c-.7-.3-1.2-.8-1.7-1.4-.5-.6-.8-1.3-1.1-2.1-.2-.8-.4-1.7-.4-2.7ZM539,179.3h3v13c0,1.2-.3,2.2-.8,3.1-.5.8-1.3,1.5-2.2,1.9-.9.4-2,.7-3.3.7s-1.1,0-1.7-.2c-.6-.1-1.2-.4-1.8-.7-.6-.3-1-.7-1.4-1.2l1.5-1.9c.4.5.9.9,1.5,1.2s1.2.4,1.8.4,1.2-.1,1.7-.4c.5-.2.8-.6,1.1-1.1.3-.5.4-1,.4-1.7v-9.9l.3-3.1ZM533.2,185.8v.3c0,.6,0,1.1.2,1.6.1.5.3.9.5,1.3.2.4.5.7.9.9.4.2.8.3,1.3.3s1.2-.1,1.7-.4c.4-.3.8-.7,1-1.2.2-.5.4-1.1.4-1.7v-1.9c0-.5-.1-1-.3-1.4s-.3-.8-.6-1.1-.5-.5-.9-.7c-.4-.2-.8-.3-1.3-.3s-.9.1-1.3.3-.7.5-.9.9-.4.8-.5,1.3c-.1.5-.2,1.1-.2,1.7Z"/>
          <path d="M548.1,173.6v19h-3.3v-19h3.3ZM547.6,185.5h-1c0-.9.1-1.8.4-2.6.2-.8.6-1.5,1-2,.5-.6,1-1,1.6-1.4.6-.3,1.3-.5,2.1-.5s1.3,0,1.8.3c.5.2,1,.5,1.4.9.4.4.7.9.9,1.6s.3,1.4.3,2.4v8.5h-3.3v-8.5c0-.6,0-1.1-.3-1.5-.2-.4-.4-.6-.8-.8s-.7-.2-1.2-.2-1,.1-1.4.3c-.4.2-.7.5-.9.8-.2.4-.4.8-.5,1.2-.1.5-.2,1-.2,1.5Z"/>
          <path d="M562.5,173.6v19h-3.3v-19h3.3Z"/>
          <path d="M567.7,179.3l3,9.8.5,3.4-2.2.4-4.8-13.7h3.5ZM569.5,191.1l3.6-11.9h3.5l-5.4,15.4c-.1.3-.3.7-.5,1.1-.2.4-.5.8-.8,1.1-.3.3-.7.6-1.2.9-.5.2-1.1.3-1.7.3s-.6,0-.8,0c-.2,0-.5,0-.7-.2v-2.4c0,0,.2,0,.3,0,.1,0,.2,0,.3,0,.5,0,.9,0,1.2-.2.3-.1.6-.3.8-.5.2-.2.4-.6.5-.9l1-2.6Z"/>
          <path d="M587.7,182v10.6h-3.3v-13.4h3.1l.2,2.7ZM591.7,179.2v3c-.2,0-.4,0-.7,0s-.4,0-.6,0c-.5,0-.9,0-1.3.2-.4.1-.7.3-.9.6-.3.3-.4.6-.6.9-.1.4-.2.8-.2,1.2h-.7c0-.9,0-1.7.3-2.4s.4-1.4.8-1.9c.3-.5.7-1,1.2-1.3.5-.3,1.1-.5,1.7-.5s.4,0,.6,0c.2,0,.4,0,.5.1Z"/>
          <path d="M599.3,192.9c-1,0-1.9-.2-2.7-.5s-1.5-.8-2.1-1.4c-.6-.6-1-1.3-1.3-2.1-.3-.8-.5-1.6-.5-2.5v-.5c0-1,.1-2,.4-2.8.3-.8.7-1.6,1.3-2.2.5-.6,1.2-1.1,2-1.4.8-.3,1.6-.5,2.5-.5s1.8.2,2.5.5,1.3.8,1.8,1.3c.5.6.9,1.3,1.1,2.1.2.8.4,1.7.4,2.7v1.4h-10.5v-2.2h7.3v-.2c0-.5-.1-1-.3-1.4-.2-.4-.5-.8-.8-1-.4-.3-.9-.4-1.5-.4s-.9.1-1.3.3-.7.5-.9.9c-.2.4-.4.8-.5,1.4-.1.5-.2,1.1-.2,1.8v.5c0,.6,0,1.1.2,1.6s.4.9.7,1.2c.3.4.7.6,1.1.8.4.2.9.3,1.5.3s1.3-.1,1.9-.4,1-.7,1.5-1.2l1.6,1.7c-.3.4-.7.8-1.1,1.2-.5.4-1,.7-1.7.9s-1.4.4-2.3.4Z"/>
          <path d="M612.4,190.3c.5,0,.9,0,1.2-.3s.7-.4.9-.8c.2-.3.3-.7.4-1.1h3.1c0,.9-.3,1.7-.8,2.4s-1.2,1.3-2,1.7c-.8.4-1.7.6-2.7.6s-1.9-.2-2.7-.5c-.8-.3-1.4-.8-1.9-1.4-.5-.6-.9-1.3-1.1-2.1-.3-.8-.4-1.7-.4-2.6v-.4c0-.9.1-1.8.4-2.6.3-.8.6-1.5,1.1-2.1.5-.6,1.1-1.1,1.9-1.4.8-.3,1.7-.5,2.7-.5s2,.2,2.8.6,1.5,1,1.9,1.8c.5.8.7,1.7.7,2.7h-3.1c0-.5-.1-.9-.3-1.3-.2-.4-.5-.7-.8-.9s-.8-.3-1.3-.3-1,.1-1.4.3c-.4.2-.7.5-.9.9-.2.4-.3.8-.4,1.3,0,.5-.1,1-.1,1.5v.4c0,.5,0,1.1.1,1.6,0,.5.2.9.4,1.3.2.4.5.7.9.9.4.2.8.3,1.4.3Z"/>
          <path d="M619.5,186.1v-.3c0-1,.1-1.9.4-2.7.3-.8.7-1.5,1.2-2.2.5-.6,1.2-1.1,2-1.4s1.7-.5,2.6-.5,1.9.2,2.7.5,1.4.8,2,1.4c.5.6.9,1.3,1.2,2.2.3.8.4,1.7.4,2.7v.3c0,1-.1,1.9-.4,2.7-.3.8-.7,1.5-1.2,2.2-.5.6-1.2,1.1-2,1.4-.8.3-1.7.5-2.7.5s-1.9-.2-2.7-.5c-.8-.3-1.4-.8-2-1.4-.5-.6-.9-1.3-1.2-2.2-.3-.8-.4-1.7-.4-2.7ZM622.8,185.8v.3c0,.6,0,1.1.2,1.6.1.5.3,1,.5,1.3.2.4.5.7.9.9s.8.3,1.4.3,1-.1,1.4-.3.7-.5.9-.9c.2-.4.4-.8.5-1.3.1-.5.2-1.1.2-1.6v-.3c0-.6,0-1.1-.2-1.6-.1-.5-.3-1-.5-1.3-.2-.4-.6-.7-.9-.9-.4-.2-.8-.3-1.4-.3s-1,.1-1.4.3c-.4.2-.7.5-.9.9-.2.4-.4.8-.5,1.3s-.2,1-.2,1.6Z"/>
          <path d="M637.7,182v10.6h-3.3v-13.4h3.1l.2,2.7ZM637.2,185.5h-1c0-.9.1-1.8.3-2.6s.6-1.5,1-2c.4-.6,1-1,1.6-1.4.7-.3,1.4-.5,2.3-.5s1.2,0,1.7.3c.5.2.9.5,1.3.8.4.4.6.9.8,1.5.2.6.3,1.3.3,2.1v8.9h-3.3v-8.6c0-.6,0-1.1-.3-1.5-.2-.4-.4-.6-.8-.7s-.7-.2-1.2-.2-.9.1-1.3.3c-.4.2-.7.5-.9.8-.2.4-.4.8-.5,1.2-.1.5-.2,1-.2,1.5ZM645.3,184.9l-1.3.2c0-.8.1-1.6.3-2.4.2-.7.5-1.4,1-1.9.4-.6,1-1,1.6-1.3s1.4-.5,2.2-.5,1.3,0,1.8.3c.5.2,1,.5,1.4.9s.7.9.9,1.6c.2.6.3,1.4.3,2.3v8.6h-3.3v-8.6c0-.7,0-1.1-.3-1.5-.2-.3-.4-.6-.8-.7-.3-.1-.7-.2-1.2-.2s-.8,0-1.2.3c-.3.2-.6.4-.8.7s-.4.6-.5,1c-.1.4-.2.8-.2,1.3Z"/>
          <path d="M659.6,182v10.6h-3.3v-13.4h3.1l.2,2.7ZM659.2,185.5h-1c0-.9.1-1.8.3-2.6s.6-1.5,1-2c.4-.6,1-1,1.6-1.4.7-.3,1.4-.5,2.3-.5s1.2,0,1.7.3c.5.2.9.5,1.3.8.4.4.6.9.8,1.5.2.6.3,1.3.3,2.1v8.9h-3.3v-8.6c0-.6,0-1.1-.3-1.5-.2-.4-.4-.6-.8-.7s-.7-.2-1.2-.2-.9.1-1.3.3c-.4.2-.7.5-.9.8-.2.4-.4.8-.5,1.2-.1.5-.2,1-.2,1.5ZM667.3,184.9l-1.3.2c0-.8.1-1.6.3-2.4.2-.7.5-1.4,1-1.9.4-.6,1-1,1.6-1.3s1.4-.5,2.2-.5,1.3,0,1.8.3c.5.2,1,.5,1.4.9s.7.9.9,1.6c.2.6.3,1.4.3,2.3v8.6h-3.3v-8.6c0-.7,0-1.1-.3-1.5-.2-.3-.4-.6-.8-.7-.3-.1-.7-.2-1.2-.2s-.8,0-1.2.3c-.3.2-.6.4-.8.7s-.4.6-.5,1c-.1.4-.2.8-.2,1.3Z"/>
          <path d="M684.4,192.9c-1,0-1.9-.2-2.7-.5s-1.5-.8-2.1-1.4c-.6-.6-1-1.3-1.3-2.1-.3-.8-.5-1.6-.5-2.5v-.5c0-1,.1-2,.4-2.8.3-.8.7-1.6,1.3-2.2.5-.6,1.2-1.1,2-1.4.8-.3,1.6-.5,2.5-.5s1.8.2,2.5.5,1.3.8,1.8,1.3c.5.6.9,1.3,1.1,2.1.2.8.4,1.7.4,2.7v1.4h-10.5v-2.2h7.3v-.2c0-.5-.1-1-.3-1.4-.2-.4-.5-.8-.8-1-.4-.3-.9-.4-1.5-.4s-.9.1-1.3.3-.7.5-.9.9c-.2.4-.4.8-.5,1.4-.1.5-.2,1.1-.2,1.8v.5c0,.6,0,1.1.2,1.6s.4.9.7,1.2c.3.4.7.6,1.1.8.4.2.9.3,1.5.3s1.3-.1,1.9-.4,1-.7,1.5-1.2l1.6,1.7c-.3.4-.7.8-1.1,1.2-.5.4-1,.7-1.7.9s-1.4.4-2.3.4Z"/>
          <path d="M695.2,182.1v10.5h-3.3v-13.4h3.1l.2,2.9ZM694.7,185.5h-1c0-1,.1-1.9.4-2.6s.6-1.5,1.1-2c.5-.6,1-1,1.7-1.3s1.4-.5,2.1-.5,1.2,0,1.7.3c.5.2,1,.5,1.3.9.4.4.7.9.9,1.6s.3,1.4.3,2.4v8.6h-3.3v-8.6c0-.6,0-1.1-.3-1.4-.2-.4-.4-.6-.8-.8-.3-.1-.7-.2-1.2-.2s-.9.1-1.3.3c-.4.2-.7.5-.9.8-.3.4-.4.8-.6,1.2-.1.5-.2,1-.2,1.5Z"/>
          <path d="M705.5,186.1v-.3c0-1,.1-1.9.4-2.8.2-.8.6-1.6,1-2.2s1-1.1,1.6-1.4c.6-.3,1.4-.5,2.2-.5s1.5.2,2.1.5c.6.3,1.1.8,1.5,1.4.4.6.8,1.3,1,2.1.3.8.4,1.7.6,2.7v.7c-.1.9-.3,1.8-.6,2.6s-.6,1.5-1,2.1c-.4.6-.9,1-1.5,1.4-.6.3-1.3.5-2.1.5s-1.5-.2-2.2-.5c-.6-.3-1.2-.8-1.6-1.4-.4-.6-.8-1.3-1-2.1-.2-.8-.4-1.7-.4-2.7ZM708.8,185.8v.3c0,.6,0,1.1.1,1.6,0,.5.3.9.5,1.3.2.4.5.7.9.9.4.2.8.3,1.3.3s1.2-.1,1.6-.4c.4-.3.7-.7,1-1.2.2-.5.4-1.1.4-1.7v-1.9c0-.5-.1-1-.3-1.4s-.3-.8-.6-1.1-.5-.5-.9-.7c-.4-.2-.8-.3-1.3-.3s-.9.1-1.3.3c-.4.2-.6.5-.9.9s-.4.8-.5,1.3c-.1.5-.2,1.1-.2,1.7ZM714.1,189.8v-16.1h3.3v19h-3l-.3-2.8Z"/>
          <path d="M737.4,186.7h3.4c0,1.2-.4,2.3-1,3.2-.6.9-1.4,1.7-2.4,2.2s-2.3.8-3.7.8-2.1-.2-3-.6c-.9-.4-1.7-1-2.3-1.7-.6-.7-1.1-1.6-1.5-2.7-.3-1-.5-2.2-.5-3.5v-1.4c0-1.3.2-2.5.5-3.5.3-1.1.8-2,1.5-2.7s1.4-1.3,2.3-1.7c.9-.4,1.9-.6,3.1-.6s2.7.3,3.7.8c1,.5,1.8,1.3,2.4,2.2.6.9.9,2,1,3.2h-3.4c0-.8-.2-1.4-.5-1.9-.3-.5-.6-.9-1.2-1.2s-1.2-.4-2-.4-1.2.1-1.7.4-.9.6-1.2,1.1-.6,1.1-.7,1.8c-.2.7-.2,1.6-.2,2.5v1.4c0,.9,0,1.7.2,2.5s.4,1.3.7,1.8c.3.5.7.9,1.2,1.1.5.3,1.1.4,1.8.4s1.5-.1,2-.4c.5-.3.9-.7,1.2-1.2.3-.5.5-1.1.5-1.9Z"/>
          <path d="M751,184.5v1.9s-2,0-2,0c-.5,0-1,0-1.3.2s-.7.3-1,.4-.4.4-.6.7c-.1.3-.2.6-.2.9s0,.6.2.9c.2.3.4.5.7.6s.6.2,1,.2c.6,0,1.1-.1,1.5-.4.4-.2.8-.5,1-.9.2-.3.4-.7.4-1l.9,1.4c-.1.3-.3.7-.5,1.1-.2.4-.5.7-.9,1.1-.4.3-.8.6-1.3.8-.5.2-1.1.3-1.8.3s-1.6-.2-2.3-.5c-.7-.3-1.2-.8-1.6-1.4-.4-.6-.6-1.3-.6-2.1s.1-1.3.4-1.9.7-1,1.2-1.4c.5-.4,1.2-.7,1.9-.9s1.7-.3,2.6-.3h2.2ZM750.5,189.8v-6.2c0-.5,0-.8-.2-1.2-.2-.3-.4-.6-.7-.8s-.7-.3-1.2-.3-.8,0-1.1.2c-.3.1-.6.4-.7.6s-.3.6-.3.9h-3.3c0-.6.1-1.1.4-1.6.3-.5.6-.9,1.1-1.3.5-.4,1.1-.7,1.8-.9.7-.2,1.5-.3,2.3-.3s1.9.2,2.7.5c.8.3,1.4.9,1.9,1.5s.7,1.5.7,2.6v5.8c0,.7,0,1.2.1,1.7,0,.5.2.9.4,1.2v.2h-3.3c-.2-.3-.3-.8-.4-1.3,0-.5-.1-1-.1-1.5Z"/>
          <path d="M760,182v10.6h-3.3v-13.4h3.1l.2,2.7ZM764.1,179.2v3c-.2,0-.4,0-.7,0s-.4,0-.6,0c-.5,0-.9,0-1.3.2-.4.1-.7.3-.9.6-.3.3-.4.6-.6.9-.1.4-.2.8-.2,1.2h-.7c0-.9,0-1.7.3-2.4.2-.7.4-1.4.8-1.9s.7-1,1.2-1.3c.5-.3,1.1-.5,1.7-.5s.4,0,.6,0c.2,0,.4,0,.5.1Z"/>
          <path d="M765.1,186.1v-.3c0-1,.1-1.9.4-2.8.2-.8.6-1.6,1-2.2s1-1.1,1.6-1.4c.6-.3,1.4-.5,2.2-.5s1.5.2,2.1.5c.6.3,1.1.8,1.5,1.4.4.6.8,1.3,1,2.1.3.8.4,1.7.6,2.7v.7c-.1.9-.3,1.8-.6,2.6s-.6,1.5-1,2.1c-.4.6-.9,1-1.5,1.4-.6.3-1.3.5-2.1.5s-1.5-.2-2.2-.5c-.6-.3-1.2-.8-1.6-1.4-.4-.6-.8-1.3-1-2.1-.2-.8-.4-1.7-.4-2.7ZM768.3,185.8v.3c0,.6,0,1.1.1,1.6,0,.5.3.9.5,1.3.2.4.5.7.9.9.4.2.8.3,1.3.3s1.2-.1,1.6-.4c.4-.3.7-.7,1-1.2.2-.5.4-1.1.4-1.7v-1.9c0-.5-.1-1-.3-1.4s-.3-.8-.6-1.1-.5-.5-.9-.7c-.4-.2-.8-.3-1.3-.3s-.9.1-1.3.3c-.4.2-.6.5-.9.9s-.4.8-.5,1.3c-.1.5-.2,1.1-.2,1.7ZM773.6,189.8v-16.1h3.3v19h-3l-.3-2.8Z"/>
          <path d="M785.9,192.9c-1,0-1.9-.2-2.7-.5s-1.5-.8-2.1-1.4c-.6-.6-1-1.3-1.3-2.1-.3-.8-.5-1.6-.5-2.5v-.5c0-1,.1-2,.4-2.8.3-.8.7-1.6,1.3-2.2.5-.6,1.2-1.1,2-1.4.8-.3,1.6-.5,2.5-.5s1.8.2,2.5.5,1.3.8,1.8,1.3c.5.6.9,1.3,1.1,2.1.2.8.4,1.7.4,2.7v1.4h-10.5v-2.2h7.3v-.2c0-.5-.1-1-.3-1.4-.2-.4-.5-.8-.8-1-.4-.3-.9-.4-1.5-.4s-.9.1-1.3.3-.7.5-.9.9c-.2.4-.4.8-.5,1.4-.1.5-.2,1.1-.2,1.8v.5c0,.6,0,1.1.2,1.6s.4.9.7,1.2c.3.4.7.6,1.1.8.4.2.9.3,1.5.3s1.3-.1,1.9-.4,1-.7,1.5-1.2l1.6,1.7c-.3.4-.7.8-1.1,1.2-.5.4-1,.7-1.7.9s-1.4.4-2.3.4Z"/>
          <path d="M801.3,184.5v1.9s-2,0-2,0c-.5,0-1,0-1.3.2s-.7.3-1,.4-.4.4-.6.7c-.1.3-.2.6-.2.9s0,.6.2.9c.2.3.4.5.7.6s.6.2,1,.2c.6,0,1.1-.1,1.5-.4.4-.2.8-.5,1-.9.2-.3.4-.7.4-1l.9,1.4c-.1.3-.3.7-.5,1.1-.2.4-.5.7-.9,1.1-.4.3-.8.6-1.3.8-.5.2-1.1.3-1.8.3s-1.6-.2-2.3-.5c-.7-.3-1.2-.8-1.6-1.4-.4-.6-.6-1.3-.6-2.1s.1-1.3.4-1.9.7-1,1.2-1.4c.5-.4,1.2-.7,1.9-.9s1.7-.3,2.6-.3h2.2ZM800.8,189.8v-6.2c0-.5,0-.8-.2-1.2-.2-.3-.4-.6-.7-.8s-.7-.3-1.2-.3-.8,0-1.1.2c-.3.1-.6.4-.7.6s-.3.6-.3.9h-3.3c0-.6.1-1.1.4-1.6.3-.5.6-.9,1.1-1.3.5-.4,1.1-.7,1.8-.9.7-.2,1.5-.3,2.3-.3s1.9.2,2.7.5c.8.3,1.4.9,1.9,1.5s.7,1.5.7,2.6v5.8c0,.7,0,1.2.1,1.7,0,.5.2.9.4,1.2v.2h-3.3c-.2-.3-.3-.8-.4-1.3,0-.5-.1-1-.1-1.5Z"/>
          <path d="M810.5,173.6v19h-3.3v-19h3.3Z"/>
          <path d="M826.9,179.3v2.3h-8v-2.3h8ZM824.2,192.6h-3.3v-14.6c0-1,.2-1.9.6-2.5.4-.7.9-1.2,1.7-1.6.7-.4,1.6-.5,2.5-.5s.6,0,.9,0c.3,0,.6,0,.9.2v2.5c-.2,0-.4,0-.6,0s-.4,0-.6,0c-.4,0-.8,0-1.1.2-.3.2-.5.4-.7.7-.2.3-.2.7-.2,1.1v14.6Z"/>
          <path d="M828.3,186.1v-.3c0-1,.1-1.9.4-2.7.3-.8.7-1.5,1.2-2.2.5-.6,1.2-1.1,2-1.4s1.7-.5,2.6-.5,1.9.2,2.7.5,1.4.8,2,1.4c.5.6.9,1.3,1.2,2.2.3.8.4,1.7.4,2.7v.3c0,1-.1,1.9-.4,2.7-.3.8-.7,1.5-1.2,2.2-.5.6-1.2,1.1-2,1.4-.8.3-1.7.5-2.7.5s-1.9-.2-2.7-.5c-.8-.3-1.4-.8-2-1.4-.5-.6-.9-1.3-1.2-2.2-.3-.8-.4-1.7-.4-2.7ZM831.6,185.8v.3c0,.6,0,1.1.2,1.6.1.5.3,1,.5,1.3.2.4.5.7.9.9s.8.3,1.4.3,1-.1,1.4-.3.7-.5.9-.9c.2-.4.4-.8.5-1.3.1-.5.2-1.1.2-1.6v-.3c0-.6,0-1.1-.2-1.6-.1-.5-.3-1-.5-1.3-.2-.4-.6-.7-.9-.9-.4-.2-.8-.3-1.4-.3s-1,.1-1.4.3c-.4.2-.7.5-.9.9-.2.4-.4.8-.5,1.3s-.2,1-.2,1.6Z"/>
          <path d="M846.5,182v10.6h-3.3v-13.4h3.1l.2,2.7ZM850.6,179.2v3c-.2,0-.4,0-.7,0s-.4,0-.6,0c-.5,0-.9,0-1.3.2-.4.1-.7.3-.9.6-.3.3-.4.6-.6.9-.1.4-.2.8-.2,1.2h-.7c0-.9,0-1.7.3-2.4.2-.7.4-1.4.8-1.9s.7-1,1.2-1.3c.5-.3,1.1-.5,1.7-.5s.4,0,.6,0c.2,0,.4,0,.5.1Z"/>
          <path d="M866.4,184.5v1.9s-2,0-2,0c-.5,0-1,0-1.3.2s-.7.3-1,.4-.4.4-.6.7c-.1.3-.2.6-.2.9s0,.6.2.9c.2.3.4.5.7.6s.6.2,1,.2c.6,0,1.1-.1,1.5-.4.4-.2.8-.5,1-.9.2-.3.4-.7.4-1l.9,1.4c-.1.3-.3.7-.5,1.1-.2.4-.5.7-.9,1.1-.4.3-.8.6-1.3.8-.5.2-1.1.3-1.8.3s-1.6-.2-2.3-.5c-.7-.3-1.2-.8-1.6-1.4-.4-.6-.6-1.3-.6-2.1s.1-1.3.4-1.9.7-1,1.2-1.4c.5-.4,1.2-.7,1.9-.9s1.7-.3,2.6-.3h2.2ZM866,189.8v-6.2c0-.5,0-.8-.2-1.2-.2-.3-.4-.6-.7-.8s-.7-.3-1.2-.3-.8,0-1.1.2c-.3.1-.6.4-.7.6s-.3.6-.3.9h-3.3c0-.6.1-1.1.4-1.6.3-.5.6-.9,1.1-1.3.5-.4,1.1-.7,1.8-.9.7-.2,1.5-.3,2.3-.3s1.9.2,2.7.5c.8.3,1.4.9,1.9,1.5s.7,1.5.7,2.6v5.8c0,.7,0,1.2.1,1.7,0,.5.2.9.4,1.2v.2h-3.3c-.2-.3-.3-.8-.4-1.3,0-.5-.1-1-.1-1.5Z"/>
          <path d="M875.4,182.1v10.5h-3.3v-13.4h3.1l.2,2.9ZM874.9,185.5h-1c0-1,.1-1.9.4-2.6s.6-1.5,1.1-2c.5-.6,1-1,1.7-1.3s1.4-.5,2.1-.5,1.2,0,1.7.3c.5.2,1,.5,1.3.9.4.4.7.9.9,1.6s.3,1.4.3,2.4v8.6h-3.3v-8.6c0-.6,0-1.1-.3-1.4-.2-.4-.4-.6-.8-.8-.3-.1-.7-.2-1.2-.2s-.9.1-1.3.3c-.4.2-.7.5-.9.8-.3.4-.4.8-.6,1.2-.1.5-.2,1-.2,1.5Z"/>
          <path d="M888.5,179.3l3,9.8.5,3.4-2.2.4-4.8-13.7h3.5ZM890.3,191.1l3.6-11.9h3.5l-5.4,15.4c-.1.3-.3.7-.5,1.1-.2.4-.5.8-.8,1.1-.3.3-.7.6-1.2.9-.5.2-1.1.3-1.7.3s-.6,0-.8,0-.5,0-.7-.2v-2.4c0,0,.2,0,.3,0,.1,0,.2,0,.3,0,.5,0,.9,0,1.2-.2.3-.1.6-.3.8-.5.2-.2.4-.6.5-.9l1-2.6Z"/>
          <path d="M898.1,186.1v-.3c0-1,.1-1.9.4-2.7.3-.8.7-1.5,1.2-2.2.5-.6,1.2-1.1,2-1.4s1.7-.5,2.6-.5,1.9.2,2.7.5,1.4.8,2,1.4c.5.6.9,1.3,1.2,2.2.3.8.4,1.7.4,2.7v.3c0,1-.1,1.9-.4,2.7-.3.8-.7,1.5-1.2,2.2-.5.6-1.2,1.1-2,1.4-.8.3-1.7.5-2.7.5s-1.9-.2-2.7-.5c-.8-.3-1.4-.8-2-1.4-.5-.6-.9-1.3-1.2-2.2-.3-.8-.4-1.7-.4-2.7ZM901.4,185.8v.3c0,.6,0,1.1.2,1.6.1.5.3,1,.5,1.3.2.4.5.7.9.9s.8.3,1.4.3,1-.1,1.4-.3.7-.5.9-.9c.2-.4.4-.8.5-1.3.1-.5.2-1.1.2-1.6v-.3c0-.6,0-1.1-.2-1.6-.1-.5-.3-1-.5-1.3-.2-.4-.6-.7-.9-.9-.4-.2-.8-.3-1.4-.3s-1,.1-1.4.3c-.4.2-.7.5-.9.9-.2.4-.4.8-.5,1.3s-.2,1-.2,1.6Z"/>
          <path d="M916.2,182.1v10.5h-3.3v-13.4h3.1l.2,2.9ZM915.7,185.5h-1c0-1,.1-1.9.4-2.6s.6-1.5,1.1-2c.5-.6,1-1,1.7-1.3s1.4-.5,2.1-.5,1.2,0,1.7.3c.5.2,1,.5,1.3.9.4.4.7.9.9,1.6s.3,1.4.3,2.4v8.6h-3.3v-8.6c0-.6,0-1.1-.3-1.4-.2-.4-.4-.6-.8-.8-.3-.1-.7-.2-1.2-.2s-.9.1-1.3.3c-.4.2-.7.5-.9.8-.3.4-.4.8-.6,1.2-.1.5-.2,1-.2,1.5Z"/>
          <path d="M933.2,192.9c-1,0-1.9-.2-2.7-.5s-1.5-.8-2.1-1.4c-.6-.6-1-1.3-1.3-2.1-.3-.8-.5-1.6-.5-2.5v-.5c0-1,.1-2,.4-2.8.3-.8.7-1.6,1.3-2.2.5-.6,1.2-1.1,2-1.4.8-.3,1.6-.5,2.5-.5s1.8.2,2.5.5,1.3.8,1.8,1.3c.5.6.9,1.3,1.1,2.1.2.8.4,1.7.4,2.7v1.4h-10.5v-2.2h7.3v-.2c0-.5-.1-1-.3-1.4-.2-.4-.5-.8-.8-1-.4-.3-.9-.4-1.5-.4s-.9.1-1.3.3-.7.5-.9.9c-.2.4-.4.8-.5,1.4-.1.5-.2,1.1-.2,1.8v.5c0,.6,0,1.1.2,1.6s.4.9.7,1.2c.3.4.7.6,1.1.8.4.2.9.3,1.5.3s1.3-.1,1.9-.4,1-.7,1.5-1.2l1.6,1.7c-.3.4-.7.8-1.1,1.2-.5.4-1,.7-1.7.9s-1.4.4-2.3.4Z"/>
        </g>
      </g>
      <g class="st1">
        <g class="st1">
          <path d="M443.5,219.3c0-.3,0-.5-.2-.8-.1-.2-.4-.4-.8-.6-.4-.2-1-.4-1.8-.5-.7-.1-1.3-.3-1.9-.6-.6-.2-1.1-.5-1.5-.8-.4-.3-.7-.7-1-1.1-.2-.4-.4-.9-.4-1.5s.1-1.1.4-1.6c.2-.5.6-.9,1-1.3.5-.4,1-.7,1.7-.9.7-.2,1.4-.3,2.2-.3s2.1.2,2.9.6c.8.4,1.4.9,1.9,1.5s.7,1.4.7,2.2h-3.3c0-.4,0-.7-.2-1-.2-.3-.4-.5-.7-.7-.3-.2-.7-.3-1.2-.3s-.8,0-1.1.2c-.3.1-.5.3-.7.6-.2.2-.2.5-.2.8s0,.4.1.6.2.3.4.5c.2.1.5.3.8.4.3.1.8.2,1.3.3,1,.2,1.9.5,2.6.8.7.3,1.3.8,1.7,1.3.4.5.6,1.2.6,2s-.1,1.1-.4,1.6c-.3.5-.6.9-1.1,1.3-.5.4-1.1.6-1.7.8-.7.2-1.4.3-2.3.3-1.2,0-2.3-.2-3.1-.7s-1.5-1-1.9-1.7c-.4-.7-.7-1.4-.7-2.1h3.1c0,.5.2.9.4,1.2.3.3.6.5,1,.7s.8.2,1.2.2.9,0,1.2-.2c.3-.1.6-.3.8-.6.2-.2.3-.5.3-.8Z"/>
          <path d="M455.1,223.2c-1,0-1.9-.2-2.7-.5s-1.5-.8-2.1-1.4-1-1.3-1.3-2.1c-.3-.8-.5-1.6-.5-2.5v-.5c0-1,.1-2,.4-2.8.3-.8.7-1.6,1.3-2.2.5-.6,1.2-1.1,2-1.4.8-.3,1.6-.5,2.5-.5s1.8.2,2.5.5c.7.3,1.3.8,1.8,1.3.5.6.9,1.3,1.1,2.1s.4,1.7.4,2.7v1.4h-10.5v-2.2h7.3v-.2c0-.5-.1-1-.3-1.4-.2-.4-.5-.8-.8-1-.4-.3-.9-.4-1.5-.4s-.9.1-1.3.3c-.4.2-.7.5-.9.9-.2.4-.4.8-.5,1.4-.1.5-.2,1.1-.2,1.8v.5c0,.6,0,1.1.2,1.6.2.5.4.9.7,1.2.3.4.7.6,1.1.8.4.2.9.3,1.5.3s1.3-.1,1.9-.4c.6-.3,1-.7,1.5-1.2l1.6,1.7c-.3.4-.7.8-1.1,1.2-.5.4-1,.7-1.7.9-.7.2-1.4.4-2.3.4Z"/>
          <path d="M466.2,204v19h-3.3v-19h3.3Z"/>
          <path d="M472.8,204v19h-3.3v-19h3.3Z"/>
          <path d="M475.9,206.1c0-.5.2-.9.5-1.2.3-.3.8-.5,1.4-.5s1,.2,1.4.5c.3.3.5.7.5,1.2s-.2.9-.5,1.2c-.3.3-.8.5-1.4.5s-1-.2-1.4-.5c-.3-.3-.5-.7-.5-1.2ZM479.4,209.6v13.4h-3.3v-13.4h3.3Z"/>
          <path d="M485.7,212.4v10.5h-3.3v-13.4h3.1l.2,2.9ZM485.2,215.8h-1c0-1,.1-1.9.4-2.6.3-.8.6-1.5,1.1-2,.5-.6,1-1,1.7-1.3s1.4-.5,2.1-.5,1.2,0,1.7.3c.5.2,1,.5,1.3.9s.7.9.9,1.5c.2.6.3,1.4.3,2.4v8.6h-3.3v-8.6c0-.6,0-1.1-.3-1.4s-.4-.6-.8-.8-.7-.2-1.2-.2-.9.1-1.3.3c-.4.2-.7.5-.9.8-.3.4-.4.8-.6,1.2-.1.5-.2,1-.2,1.5Z"/>
          <path d="M496.1,216.4v-.3c0-1,.1-1.9.4-2.8.2-.8.6-1.6,1.1-2.2.5-.6,1-1.1,1.7-1.4.7-.3,1.4-.5,2.2-.5s1.6.2,2.2.5c.6.3,1.1.8,1.5,1.4s.7,1.3.9,2.1c.2.8.4,1.7.5,2.7v.7c-.1.9-.3,1.8-.5,2.6-.3.8-.6,1.5-1,2.1-.4.6-.9,1-1.5,1.4s-1.3.5-2.1.5-1.6-.2-2.2-.5c-.7-.3-1.2-.8-1.7-1.4-.5-.6-.8-1.3-1.1-2.1-.2-.8-.4-1.7-.4-2.7ZM505.1,209.6h3v13c0,1.2-.3,2.2-.8,3.1-.5.8-1.3,1.5-2.2,1.9-.9.4-2,.7-3.3.7s-1.1,0-1.7-.2c-.6-.1-1.2-.4-1.8-.7-.6-.3-1-.7-1.4-1.2l1.5-1.9c.4.5.9.9,1.5,1.2s1.2.4,1.8.4,1.2-.1,1.7-.4c.5-.2.8-.6,1.1-1.1.3-.5.4-1,.4-1.7v-9.9l.3-3.1ZM499.3,216.2v.3c0,.6,0,1.1.2,1.6.1.5.3.9.5,1.3s.5.7.9.9c.4.2.8.3,1.3.3s1.2-.1,1.7-.4c.4-.3.8-.7,1-1.2s.4-1.1.4-1.7v-1.9c0-.5-.1-1-.3-1.4s-.3-.8-.6-1.1-.5-.5-.9-.7-.8-.3-1.3-.3-.9.1-1.3.3c-.4.2-.7.5-.9.9-.2.4-.4.8-.5,1.3-.1.5-.2,1.1-.2,1.7Z"/>
          <path d="M523.6,209.6v2.3h-7.7v-2.3h7.7ZM518,206.3h3.3v12.8c0,.4,0,.7.2.9.1.2.3.4.5.4.2,0,.5.1.8.1s.4,0,.6,0c.2,0,.3,0,.5,0v2.4c-.3,0-.6.2-.9.2s-.7,0-1.2,0c-.7,0-1.4-.1-1.9-.4s-1-.7-1.3-1.2c-.3-.6-.5-1.3-.5-2.2v-13.1Z"/>
          <path d="M529,204v19h-3.3v-19h3.3ZM528.5,215.8h-1c0-.9.1-1.8.4-2.6.2-.8.6-1.5,1-2,.5-.6,1-1,1.6-1.4s1.3-.5,2.1-.5,1.3,0,1.8.3c.5.2,1,.5,1.4.9.4.4.7.9.9,1.6s.3,1.4.3,2.4v8.5h-3.3v-8.5c0-.6,0-1.1-.3-1.5-.2-.4-.4-.6-.8-.8s-.7-.2-1.2-.2-1,.1-1.4.3c-.4.2-.7.5-.9.8-.2.4-.4.8-.5,1.2-.1.5-.2,1-.2,1.5Z"/>
          <path d="M545.9,223.2c-1,0-1.9-.2-2.7-.5s-1.5-.8-2.1-1.4-1-1.3-1.3-2.1c-.3-.8-.5-1.6-.5-2.5v-.5c0-1,.1-2,.4-2.8.3-.8.7-1.6,1.3-2.2.5-.6,1.2-1.1,2-1.4.8-.3,1.6-.5,2.5-.5s1.8.2,2.5.5c.7.3,1.3.8,1.8,1.3.5.6.9,1.3,1.1,2.1s.4,1.7.4,2.7v1.4h-10.5v-2.2h7.3v-.2c0-.5-.1-1-.3-1.4-.2-.4-.5-.8-.8-1-.4-.3-.9-.4-1.5-.4s-.9.1-1.3.3c-.4.2-.7.5-.9.9-.2.4-.4.8-.5,1.4-.1.5-.2,1.1-.2,1.8v.5c0,.6,0,1.1.2,1.6.2.5.4.9.7,1.2.3.4.7.6,1.1.8.4.2.9.3,1.5.3s1.3-.1,1.9-.4c.6-.3,1-.7,1.5-1.2l1.6,1.7c-.3.4-.7.8-1.1,1.2-.5.4-1,.7-1.7.9-.7.2-1.4.4-2.3.4Z"/>
          <path d="M553.5,206.1c0-.5.2-.9.5-1.2.3-.3.8-.5,1.4-.5s1,.2,1.4.5c.3.3.5.7.5,1.2s-.2.9-.5,1.2c-.3.3-.8.5-1.4.5s-1-.2-1.4-.5c-.3-.3-.5-.7-.5-1.2ZM557,209.6v13.4h-3.3v-13.4h3.3Z"/>
          <path d="M563.3,212.3v10.6h-3.3v-13.4h3.1l.2,2.7ZM567.4,209.5v3c-.2,0-.4,0-.7,0-.2,0-.4,0-.6,0-.5,0-.9,0-1.3.2-.4.1-.7.3-.9.6-.3.3-.4.6-.6.9s-.2.8-.2,1.2h-.7c0-.9,0-1.7.3-2.4.2-.7.4-1.4.8-1.9.3-.5.7-1,1.2-1.3.5-.3,1.1-.5,1.7-.5s.4,0,.6,0c.2,0,.4,0,.5.1Z"/>
          <path d="M577.6,209.6l3.1,10.9v2.4c.1,0-2,0-2,0l-4.6-13.4h3.4ZM579.9,220.5l3.1-10.9h3.4l-4.6,13.4h-2.1v-2.5Z"/>
          <path d="M594,223.2c-1,0-1.9-.2-2.7-.5s-1.5-.8-2.1-1.4-1-1.3-1.3-2.1c-.3-.8-.5-1.6-.5-2.5v-.5c0-1,.1-2,.4-2.8.3-.8.7-1.6,1.3-2.2s1.2-1.1,2-1.4c.8-.3,1.6-.5,2.5-.5s1.8.2,2.5.5c.7.3,1.3.8,1.8,1.3.5.6.9,1.3,1.1,2.1.2.8.4,1.7.4,2.7v1.4h-10.5v-2.2h7.3v-.2c0-.5-.1-1-.3-1.4s-.5-.8-.8-1c-.4-.3-.9-.4-1.5-.4s-.9.1-1.3.3c-.4.2-.7.5-.9.9-.2.4-.4.8-.5,1.4-.1.5-.2,1.1-.2,1.8v.5c0,.6,0,1.1.2,1.6s.4.9.7,1.2c.3.4.7.6,1.1.8s.9.3,1.5.3,1.3-.1,1.9-.4c.6-.3,1-.7,1.5-1.2l1.6,1.7c-.3.4-.7.8-1.1,1.2-.5.4-1,.7-1.7.9-.7.2-1.4.4-2.3.4Z"/>
          <path d="M604.8,204v19h-3.3v-19h3.3ZM604.3,215.8h-1c0-.9.1-1.8.4-2.6s.6-1.5,1-2c.5-.6,1-1,1.6-1.4s1.3-.5,2.1-.5,1.3,0,1.8.3c.5.2,1,.5,1.4.9.4.4.7.9.9,1.6s.3,1.4.3,2.4v8.5h-3.3v-8.5c0-.6,0-1.1-.3-1.5-.2-.4-.4-.6-.8-.8-.3-.2-.7-.2-1.2-.2s-1,.1-1.4.3c-.4.2-.7.5-.9.8-.2.4-.4.8-.5,1.2-.1.5-.2,1-.2,1.5Z"/>
          <path d="M615.7,206.1c0-.5.2-.9.5-1.2.3-.3.8-.5,1.4-.5s1,.2,1.4.5c.3.3.5.7.5,1.2s-.2.9-.5,1.2c-.3.3-.8.5-1.4.5s-1-.2-1.4-.5c-.3-.3-.5-.7-.5-1.2ZM619.2,209.6v13.4h-3.3v-13.4h3.3Z"/>
          <path d="M627.8,220.6c.5,0,.9,0,1.2-.3.4-.2.7-.4.9-.8.2-.3.3-.7.4-1.1h3.1c0,.9-.3,1.7-.8,2.4s-1.2,1.3-2,1.7c-.8.4-1.7.6-2.7.6s-1.9-.2-2.7-.5c-.8-.3-1.4-.8-1.9-1.4-.5-.6-.9-1.3-1.1-2.1-.3-.8-.4-1.7-.4-2.6v-.4c0-.9.1-1.8.4-2.6.3-.8.6-1.5,1.1-2.1.5-.6,1.1-1.1,1.9-1.4.8-.3,1.7-.5,2.7-.5s2,.2,2.8.6c.8.4,1.5,1,1.9,1.8.5.8.7,1.7.7,2.7h-3.1c0-.5-.1-.9-.3-1.3-.2-.4-.5-.7-.8-.9-.4-.2-.8-.3-1.3-.3s-1,.1-1.4.3c-.4.2-.7.5-.9.9-.2.4-.3.8-.4,1.3,0,.5-.1,1-.1,1.5v.4c0,.5,0,1.1.1,1.6,0,.5.2.9.4,1.3.2.4.5.7.9.9.4.2.8.3,1.4.3Z"/>
          <path d="M638.9,204v19h-3.3v-19h3.3Z"/>
          <path d="M648,223.2c-1,0-1.9-.2-2.7-.5s-1.5-.8-2.1-1.4-1-1.3-1.3-2.1c-.3-.8-.5-1.6-.5-2.5v-.5c0-1,.1-2,.4-2.8.3-.8.7-1.6,1.3-2.2.5-.6,1.2-1.1,2-1.4.8-.3,1.6-.5,2.5-.5s1.8.2,2.5.5c.7.3,1.3.8,1.8,1.3.5.6.9,1.3,1.1,2.1.2.8.4,1.7.4,2.7v1.4h-10.5v-2.2h7.3v-.2c0-.5-.1-1-.3-1.4-.2-.4-.5-.8-.8-1-.4-.3-.9-.4-1.5-.4s-.9.1-1.3.3-.7.5-.9.9c-.2.4-.4.8-.5,1.4-.1.5-.2,1.1-.2,1.8v.5c0,.6,0,1.1.2,1.6s.4.9.7,1.2c.3.4.7.6,1.1.8.4.2.9.3,1.5.3s1.3-.1,1.9-.4,1-.7,1.5-1.2l1.6,1.7c-.3.4-.7.8-1.1,1.2s-1,.7-1.7.9c-.7.2-1.4.4-2.3.4Z"/>
          <path d="M655.8,221.4c0-.5.2-.9.5-1.2s.8-.5,1.4-.5,1,.2,1.4.5c.3.3.5.8.5,1.2s-.2.9-.5,1.2c-.3.3-.8.5-1.4.5s-1-.2-1.4-.5c-.3-.3-.5-.7-.5-1.2Z"/>
        </g>
      </g>
    </g>
    <g class="st1">
      <g class="st1">
        <path class="st2" d="M445.2,272.2h2.2l.4,12v7.7h-2.6v-19.7ZM446,272.2h2.5l6.5,16.1,6.4-16.1h2.5l-8,19.7h-2l-8-19.7ZM462.6,272.2h2.2v19.7h-2.6v-7.7l.4-12Z"/>
        <path class="st2" d="M469,290.6c0-.4.1-.8.4-1.1.3-.3.7-.4,1.2-.4s.9.1,1.2.4c.3.3.4.7.4,1.1s-.1.8-.4,1.1c-.3.3-.7.4-1.2.4s-.9-.1-1.2-.4c-.3-.3-.4-.6-.4-1.1Z"/>
        <path class="st2" d="M486.2,272.2v19.7h-2.6v-19.7h2.6ZM496.4,280.7v2.1h-10.7v-2.1h10.7ZM498.7,272.2v19.7h-2.6v-19.7h2.6Z"/>
        <path class="st2" d="M512.4,285.4h1c0,.9-.1,1.8-.3,2.7-.2.8-.5,1.5-1,2.1-.5.6-1,1.1-1.8,1.4-.7.3-1.6.5-2.7.5s-1.4-.1-2-.3c-.6-.2-1.1-.5-1.5-1-.4-.4-.8-1-1-1.7s-.3-1.5-.3-2.5v-9.4h2.5v9.5c0,.7,0,1.2.2,1.6.1.4.4.8.6,1s.5.4.9.5c.3,0,.7.1,1,.1,1.1,0,1.9-.2,2.5-.6.6-.4,1.1-1,1.3-1.7.3-.7.4-1.5.4-2.3ZM511.9,288.5v-11.3h2.5v14.6h-2.4v-3.4Z"/>
        <path class="st2" d="M518.2,271.1h2.5v17.9l-.2,2.8h-2.3v-20.8ZM530.6,284.5v.3c0,1.1-.1,2-.4,3s-.6,1.7-1.1,2.4c-.5.7-1.1,1.2-1.8,1.6-.7.4-1.5.6-2.4.6s-1.7-.2-2.4-.5c-.7-.3-1.3-.8-1.8-1.4-.5-.6-.9-1.3-1.1-2.2s-.5-1.8-.6-2.9v-1.2c.1-1.1.3-2.1.6-2.9s.7-1.6,1.1-2.2c.5-.6,1.1-1.1,1.8-1.4.7-.3,1.5-.5,2.4-.5s1.7.2,2.4.5c.7.4,1.3.9,1.8,1.5.5.7.8,1.4,1.1,2.4.3.9.4,1.9.4,3ZM528.1,284.7v-.3c0-.7,0-1.4-.2-2.1-.1-.6-.4-1.2-.6-1.7-.3-.5-.7-.9-1.2-1.2-.5-.3-1.1-.4-1.8-.4s-1.2.1-1.6.3c-.5.2-.9.5-1.2.9-.3.4-.6.8-.8,1.2-.2.5-.4.9-.5,1.4v3.3c.1.6.4,1.2.7,1.8.3.6.8,1.1,1.3,1.4.6.4,1.2.6,2.1.6s1.3-.1,1.7-.4c.5-.3.9-.7,1.2-1.1.3-.5.5-1.1.7-1.7.1-.6.2-1.3.2-2.1Z"/>
        <path class="st2" d="M533.8,271.1h2.5v17.9l-.2,2.8h-2.3v-20.8ZM546.2,284.5v.3c0,1.1-.1,2-.4,3s-.6,1.7-1.1,2.4c-.5.7-1.1,1.2-1.8,1.6-.7.4-1.5.6-2.4.6s-1.7-.2-2.4-.5c-.7-.3-1.3-.8-1.8-1.4-.5-.6-.9-1.3-1.1-2.2s-.5-1.8-.6-2.9v-1.2c.1-1.1.3-2.1.6-2.9s.7-1.6,1.1-2.2c.5-.6,1.1-1.1,1.8-1.4.7-.3,1.5-.5,2.4-.5s1.7.2,2.4.5c.7.4,1.3.9,1.8,1.5.5.7.8,1.4,1.1,2.4.3.9.4,1.9.4,3ZM543.6,284.7v-.3c0-.7,0-1.4-.2-2.1-.1-.6-.4-1.2-.6-1.7-.3-.5-.7-.9-1.2-1.2-.5-.3-1.1-.4-1.8-.4s-1.2.1-1.6.3c-.5.2-.9.5-1.2.9-.3.4-.6.8-.8,1.2-.2.5-.4.9-.5,1.4v3.3c.1.6.4,1.2.7,1.8.3.6.8,1.1,1.3,1.4.6.4,1.2.6,2.1.6s1.3-.1,1.7-.4c.5-.3.9-.7,1.2-1.1.3-.5.5-1.1.7-1.7.1-.6.2-1.3.2-2.1Z"/>
        <path class="st2" d="M558.4,283v1.8s-2.5,0-2.5,0c-.7,0-1.3,0-1.9.2-.6.1-1,.3-1.4.5-.4.2-.7.5-.9.8-.2.3-.3.7-.3,1.2s.1.9.3,1.3c.2.4.5.7.9.9.4.2.9.3,1.5.3s1.4-.2,2-.5c.6-.3,1.1-.7,1.4-1.2s.5-.9.6-1.4l1.1,1.2c0,.4-.2.8-.5,1.3-.3.5-.7.9-1.1,1.3s-1,.8-1.6,1c-.6.3-1.4.4-2.1.4s-1.9-.2-2.6-.6c-.7-.4-1.3-.9-1.7-1.6-.4-.7-.6-1.4-.6-2.2s.2-1.5.5-2.1.7-1.1,1.3-1.5c.6-.4,1.3-.7,2.1-.9s1.7-.3,2.7-.3h2.9ZM558,289.4v-7.5c0-.6-.1-1.1-.3-1.5-.2-.4-.6-.8-1-1s-1-.4-1.7-.4-1.2.1-1.7.3c-.5.2-.8.5-1.1.9s-.4.7-.4,1.1h-2.5c0-.5.1-1,.4-1.6.3-.5.7-1,1.2-1.4.5-.4,1.1-.8,1.8-1s1.5-.4,2.4-.4,2,.2,2.8.5c.8.4,1.5.9,1.9,1.6.5.7.7,1.6.7,2.7v6.8c0,.5,0,1,.1,1.6,0,.5.2,1,.4,1.4v.2h-2.6c-.1-.3-.2-.7-.3-1.2,0-.5-.1-.9-.1-1.3Z"/>
        <path class="st2" d="M566.9,279.6v12.3h-2.5v-14.6h2.4v2.3ZM571.5,277.2v2.3c-.2,0-.4,0-.6,0-.2,0-.4,0-.6,0-.6,0-1.1,0-1.5.3-.4.2-.8.4-1.1.8-.3.3-.5.7-.7,1.2s-.3.9-.3,1.5l-.7.4c0-.9,0-1.7.3-2.5s.4-1.5.8-2.1.8-1.1,1.4-1.4c.6-.3,1.3-.5,2-.5s.4,0,.6,0c.2,0,.4,0,.5.1Z"/>
        <path class="st2" d="M572.9,284.7v-.3c0-1.1.1-2.1.4-3,.3-.9.7-1.7,1.2-2.4.5-.7,1.1-1.2,1.8-1.5.7-.4,1.5-.5,2.4-.5s1.7.2,2.4.5c.7.3,1.3.8,1.8,1.4.5.6.9,1.3,1.1,2.2s.5,1.8.6,2.9v1.2c0,1.1-.3,2-.6,2.9s-.7,1.6-1.1,2.2c-.5.6-1.1,1.1-1.8,1.4-.7.3-1.5.5-2.4.5s-1.6-.2-2.3-.6c-.7-.4-1.3-.9-1.8-1.6-.5-.7-.9-1.5-1.2-2.4s-.4-1.9-.4-3ZM575.4,284.5v.3c0,.7,0,1.4.2,2.1.1.6.4,1.2.7,1.7.3.5.7.9,1.2,1.1.5.3,1.1.4,1.7.4s1.5-.2,2-.5c.5-.4,1-.8,1.3-1.4s.6-1.2.8-1.9v-3.3c-.1-.5-.3-1-.5-1.4-.2-.5-.5-.9-.8-1.2-.3-.4-.7-.7-1.2-.9-.5-.2-1-.3-1.6-.3s-1.3.1-1.8.4c-.5.3-.9.7-1.2,1.2-.3.5-.5,1.1-.7,1.7-.1.6-.2,1.3-.2,2.1ZM582.7,289.1v-17.9h2.5v20.8h-2.3l-.2-2.8Z"/>
        <path class="st2" d="M591.4,288.9v2c0,.8-.2,1.7-.6,2.6-.4.9-1,1.7-1.7,2.3l-1.4-1c.3-.4.5-.8.7-1.2.2-.4.3-.8.5-1.3s.2-.9.2-1.4v-2.1h2.4Z"/>
        <path class="st2" d="M609.1,284.2h-5.3v-2.1h5.3c1,0,1.8-.2,2.5-.5.6-.3,1.1-.8,1.4-1.4s.4-1.2.4-2-.1-1.3-.4-1.9c-.3-.6-.8-1.1-1.4-1.4-.6-.4-1.5-.5-2.5-.5h-4.7v17.6h-2.6v-19.7h7.3c1.5,0,2.7.3,3.8.8s1.8,1.2,2.3,2.1.8,1.9.8,3.1-.3,2.3-.8,3.2-1.3,1.6-2.3,2c-1,.5-2.3.7-3.8.7Z"/>
        <path class="st2" d="M621.4,271.1v20.8h-2.5v-20.8h2.5ZM620.8,284h-1c0-1,.2-2,.4-2.8.3-.9.7-1.6,1.2-2.2.5-.6,1.1-1.1,1.9-1.5.7-.3,1.5-.5,2.4-.5s1.4,0,1.9.3c.6.2,1.1.5,1.5.9s.7,1,.9,1.6c.2.7.3,1.5.3,2.5v9.6h-2.5v-9.6c0-.8-.1-1.4-.3-1.8-.2-.5-.6-.8-1-1-.4-.2-1-.3-1.6-.3s-1.2.1-1.7.4c-.5.3-.9.6-1.3,1.1-.4.5-.6,1-.9,1.6s-.3,1.2-.3,1.9Z"/>
        <path class="st2" d="M633.5,284.7v-.3c0-1.1.2-2,.5-2.9s.7-1.7,1.3-2.4c.6-.7,1.3-1.2,2.1-1.6s1.7-.6,2.8-.6,2,.2,2.8.6,1.5.9,2.1,1.6c.6.7,1,1.5,1.3,2.4s.5,1.9.5,2.9v.3c0,1.1-.2,2-.5,2.9s-.8,1.7-1.3,2.4c-.6.7-1.3,1.2-2.1,1.6-.8.4-1.7.6-2.8.6s-2-.2-2.8-.6-1.5-.9-2.1-1.6c-.6-.7-1-1.5-1.3-2.4s-.5-1.9-.5-2.9ZM636,284.4v.3c0,.7,0,1.4.3,2.1.2.6.4,1.2.8,1.7.3.5.8.9,1.3,1.2.5.3,1.1.4,1.8.4s1.3-.1,1.8-.4c.5-.3.9-.7,1.3-1.2.3-.5.6-1.1.8-1.7.2-.6.3-1.3.3-2.1v-.3c0-.7,0-1.4-.3-2-.2-.6-.4-1.2-.8-1.7-.3-.5-.8-.9-1.3-1.2-.5-.3-1.1-.4-1.8-.4s-1.3.1-1.8.4c-.5.3-1,.7-1.3,1.2-.3.5-.6,1.1-.8,1.7-.2.6-.3,1.3-.3,2Z"/>
        <path class="st2" d="M656.1,292.2c-1,0-1.9-.2-2.8-.5-.8-.3-1.5-.8-2.1-1.5s-1-1.4-1.4-2.2-.5-1.8-.5-2.8v-.6c0-1.2.2-2.3.5-3.2.4-.9.8-1.7,1.4-2.4.6-.6,1.3-1.1,2.1-1.5.8-.3,1.6-.5,2.4-.5s2,.2,2.7.5c.8.4,1.4.9,1.9,1.5.5.6.8,1.4,1.1,2.3.2.9.4,1.8.4,2.8v1.1h-10.9v-2h8.4v-.2c0-.6-.2-1.3-.4-1.9-.2-.6-.6-1.1-1.1-1.5s-1.2-.6-2-.6-1.1.1-1.6.4c-.5.2-.9.6-1.2,1.1s-.6,1-.8,1.7c-.2.7-.3,1.5-.3,2.3v.6c0,.7,0,1.3.3,2,.2.6.5,1.1.9,1.6.4.5.8.8,1.4,1.1.5.3,1.1.4,1.8.4s1.6-.2,2.2-.5c.6-.4,1.2-.8,1.6-1.4l1.5,1.2c-.3.5-.7.9-1.2,1.4s-1.1.8-1.8,1.1c-.7.3-1.5.4-2.5.4Z"/>
        <path class="st2" d="M667.2,280.4v11.5h-2.5v-14.6h2.4v3.1ZM666.6,284h-1c0-1,.2-2,.4-2.8.3-.9.7-1.6,1.2-2.2.5-.6,1.1-1.1,1.9-1.5.7-.3,1.5-.5,2.4-.5s1.4,0,1.9.3c.6.2,1.1.5,1.5.9.4.4.7,1,.9,1.6s.3,1.5.3,2.5v9.6h-2.5v-9.6c0-.8-.1-1.4-.3-1.8-.2-.5-.6-.8-1-1-.4-.2-1-.3-1.6-.3s-1.2.1-1.7.4c-.5.3-.9.6-1.3,1.1-.4.5-.6,1-.9,1.6-.2.6-.3,1.2-.3,1.9Z"/>
        <path class="st2" d="M680,273.4c0-.4.1-.7.4-1s.6-.4,1.1-.4.8.1,1.1.4.4.6.4,1-.1.7-.4,1c-.3.3-.6.4-1.1.4s-.9-.1-1.1-.4c-.2-.3-.4-.6-.4-1ZM682.7,277.3v14.6h-2.5v-14.6h2.5Z"/>
        <path class="st2" d="M688.4,277.3l3.2,5.3,3.2-5.3h2.9l-4.8,7.2,4.9,7.4h-2.9l-3.4-5.5-3.4,5.5h-2.9l4.9-7.4-4.8-7.2h2.9Z"/>
        <path class="st2" d="M715,274l-6.5,17.9h-2.7l7.5-19.7h1.7v1.7ZM720.1,284.6v2.1h-11.1v-2.1h11.1ZM720.5,291.9l-6.5-17.9v-1.7s1.7,0,1.7,0l7.5,19.7h-2.7Z"/>
        <path class="st2" d="M738.6,274.1l-12.3,17.8h-1.6v-1.9l12.3-17.7h1.6v1.9ZM737.4,272.2v2.1h-12.6v-2.1h12.6ZM739,289.8v2.1h-13.3v-2.1h13.3Z"/>
      </g>
    </g>
    <g class="st1">
      <g class="st1">
        <path class="st2" d="M546.2,324.8h1.7l.3,9.3v6h-2v-15.3ZM546.8,324.8h2l5,12.5,5-12.5h2l-6.2,15.3h-1.5l-6.2-15.3ZM559.7,324.8h1.7v15.3h-2v-6l.3-9.3Z"/>
        <path class="st2" d="M571.7,333.2v1.4s-1.9,0-1.9,0c-.6,0-1,0-1.5.1-.4,0-.8.2-1.1.4s-.5.4-.7.7c-.2.3-.2.6-.2.9s0,.7.2,1,.4.5.7.7c.3.2.7.3,1.2.3s1.1-.1,1.6-.4.8-.6,1.1-.9c.3-.4.4-.7.4-1.1l.8.9c0,.3-.2.6-.4,1-.2.4-.5.7-.9,1-.4.3-.8.6-1.3.8-.5.2-1,.3-1.7.3s-1.4-.2-2-.5c-.6-.3-1-.7-1.3-1.2-.3-.5-.5-1.1-.5-1.7s.1-1.1.4-1.6c.2-.5.6-.9,1-1.2.4-.3,1-.5,1.6-.7s1.3-.2,2.1-.2h2.3ZM571.4,338.2v-5.8c0-.4,0-.8-.3-1.2-.2-.3-.4-.6-.8-.8-.4-.2-.8-.3-1.3-.3s-.9,0-1.3.3c-.4.2-.7.4-.9.7-.2.3-.3.6-.3.9h-1.9c0-.4.1-.8.3-1.2.2-.4.5-.8.9-1.1.4-.3.9-.6,1.4-.8.6-.2,1.2-.3,1.9-.3s1.6.1,2.2.4c.6.3,1.1.7,1.5,1.3.4.6.5,1.3.5,2.1v5.3c0,.4,0,.8,0,1.2s.2.8.3,1.1v.2h-2c0-.2-.2-.5-.2-.9,0-.4,0-.7,0-1Z"/>
        <path class="st2" d="M577.1,328.7l3,8.8.5,2-1.4.7-4.2-11.6h2.1ZM579.4,338.9l3.2-10.2h2.1l-4.6,13.1c-.1.3-.2.6-.4.9-.2.3-.4.6-.7.9-.3.3-.6.5-1,.7-.4.2-.8.3-1.3.3s-.4,0-.6,0c-.2,0-.4,0-.5-.1v-1.6s.1,0,.3,0,.2,0,.3,0c.4,0,.8,0,1.1-.2.3-.1.6-.3.8-.6.2-.3.4-.6.6-1.1l.8-2.2Z"/>
        <path class="st2" d="M601.5,338.5v1.6h-10v-1.4l5-5.6c.6-.7,1.1-1.3,1.4-1.7.3-.5.6-.9.7-1.3.1-.4.2-.8.2-1.2s-.1-1-.3-1.4c-.2-.4-.5-.7-.9-1-.4-.2-.9-.4-1.4-.4s-1.2.1-1.7.4c-.5.3-.8.6-1,1.1-.2.5-.3,1-.3,1.6h-1.9c0-.9.2-1.6.6-2.4s.9-1.3,1.7-1.7c.7-.4,1.7-.6,2.7-.6s1.8.2,2.5.5c.7.3,1.2.8,1.6,1.4.4.6.6,1.3.6,2.1s0,.9-.2,1.4c-.2.5-.4.9-.6,1.4-.3.5-.6.9-.9,1.3-.3.4-.7.9-1.1,1.3l-4.1,4.4h7.7Z"/>
        <path class="st2" d="M613.2,331.2v2.3c0,1.3-.1,2.3-.3,3.2s-.5,1.6-1,2.1c-.4.5-.9.9-1.5,1.1-.6.2-1.3.4-2,.4s-1.1,0-1.6-.2c-.5-.1-.9-.4-1.3-.7-.4-.3-.7-.8-1-1.3-.3-.5-.5-1.2-.6-1.9-.1-.7-.2-1.6-.2-2.6v-2.3c0-1.3.1-2.3.3-3.1s.6-1.5,1-2,.9-.9,1.5-1.1,1.3-.3,2-.3,1.1,0,1.6.2c.5.1.9.4,1.3.7.4.3.7.7,1,1.2.3.5.5,1.1.6,1.9.1.7.2,1.6.2,2.6ZM611.2,333.9v-3c0-.7,0-1.3-.1-1.8,0-.5-.2-1-.4-1.3-.2-.4-.3-.7-.6-.9-.2-.2-.5-.4-.8-.5-.3-.1-.6-.2-1-.2s-.9,0-1.2.3c-.4.2-.7.4-.9.8-.2.4-.4.9-.6,1.5s-.2,1.3-.2,2.2v3c0,.7,0,1.3.1,1.8,0,.5.2,1,.4,1.4s.4.7.6.9c.2.2.5.4.8.5.3.1.6.2,1,.2s.9,0,1.2-.3c.4-.2.7-.5.9-.9.2-.4.4-.9.5-1.5s.2-1.3.2-2.2Z"/>
        <path class="st2" d="M625.7,338.5v1.6h-10v-1.4l5-5.6c.6-.7,1.1-1.3,1.4-1.7.3-.5.6-.9.7-1.3s.2-.8.2-1.2-.1-1-.3-1.4c-.2-.4-.5-.7-.9-1-.4-.2-.9-.4-1.4-.4s-1.2.1-1.7.4-.8.6-1,1.1c-.2.5-.3,1-.3,1.6h-1.9c0-.9.2-1.6.6-2.4s.9-1.3,1.7-1.7c.7-.4,1.7-.6,2.7-.6s1.8.2,2.5.5c.7.3,1.2.8,1.6,1.4.4.6.6,1.3.6,2.1s0,.9-.2,1.4-.4.9-.6,1.4-.6.9-.9,1.3c-.3.4-.7.9-1.1,1.3l-4.1,4.4h7.7Z"/>
        <path class="st2" d="M634.1,324.7v15.4h-1.9v-12.9l-3.9,1.4v-1.8l5.6-2.1h.3Z"/>
      </g>
    </g>
  </g>
</svg>