<?xml version="1.0" encoding="UTF-8"?>
<svg id="Layer_1" xmlns="http://www.w3.org/2000/svg" xmlns:xlink="http://www.w3.org/1999/xlink" version="1.1" viewBox="0 0 1183 459">
  <!-- Generator: Adobe Illustrator 29.2.1, SVG Export Plug-In . SVG Version: 2.1.0 Build 116)  -->
  <defs>
    <style>
      .st0 {
        fill: #213133;
        stroke: #000;
        stroke-miterlimit: 10;
      }

      .st1 {
        isolation: isolate;
      }

      .st2 {
        fill: #0896a6;
      }
    </style>
  </defs>
  <path class="st2" d="M224,137c2.3,0,4.2-1.9,4.2-4.2v-10.3c0-2.3-1.9-4.2-4.2-4.2h-5.8c0-1.5,0-2.9.3-4.4.3-1.6.7-2.9,1.3-4.2.6-1.2,1.4-2.2,2.4-2.9.9-.8,2.2-1.2,3.6-1.2v-6.5c-2.4,0-4.6.5-6.4,1.6-1.8,1-3.4,2.5-4.6,4.2-1.2,1.9-2.1,4-2.6,6.1-.5,2.4-.8,4.8-.8,7.3v14.5c0,2.3,1.9,4.2,4.2,4.2h8.4ZM198.8,137c2.3,0,4.2-1.9,4.2-4.2v-10.3c0-2.3-1.9-4.2-4.2-4.2h-5.8c0-1.5,0-2.9.3-4.4.3-1.6.7-2.9,1.3-4.2.6-1.2,1.4-2.2,2.4-2.9.9-.8,2.2-1.2,3.6-1.2v-6.5c-2.4,0-4.6.5-6.4,1.6-1.8,1-3.4,2.5-4.6,4.2-1.2,1.9-2.1,4-2.6,6.1-.5,2.4-.8,4.8-.8,7.3v14.5c0,2.3,1.9,4.2,4.2,4.2h8.4Z"/>
  <path class="st2" d="M958.6,94c-2.3,0-4.2,1.9-4.2,4.2v10.3c0,2.3,1.9,4.2,4.2,4.2h5.8c0,1.5,0,2.9-.3,4.4-.3,1.6-.7,2.9-1.3,4.2-.6,1.2-1.4,2.2-2.3,2.9-1,.8-2.2,1.2-3.7,1.2v6.5c2.4,0,4.6-.5,6.4-1.6,1.8-1,3.4-2.5,4.6-4.2,1.2-1.9,2.1-4,2.6-6.1.5-2.4.8-4.8.8-7.3v-14.5c0-2.3-1.9-4.2-4.2-4.2h-8.4,0ZM983.8,94c-2.3,0-4.2,1.9-4.2,4.2v10.3c0,2.3,1.9,4.2,4.2,4.2h5.8c0,1.5,0,2.9-.3,4.4-.3,1.6-.7,2.9-1.3,4.2-.6,1.2-1.4,2.2-2.3,2.9-1,.8-2.2,1.2-3.7,1.2v6.5c2.4,0,4.6-.5,6.4-1.6,1.8-1,3.4-2.5,4.6-4.2,1.2-1.9,2.1-4,2.6-6.1.5-2.4.8-4.8.8-7.3v-14.5c0-2.3-1.9-4.2-4.2-4.2h-8.4,0Z"/>
  <g>
    <g class="st1">
      <g class="st1">
        <g class="st1">
          <path d="M246.5,111.4l4.5,14.6.6,3.5h-2.6l-6.4-18.1h3.8ZM250.7,126l4.5-14.6h3.8l-6.4,18.1h-2.5l.6-3.5Z"/>
          <path d="M266.1,129.8c-1,0-1.9-.2-2.8-.5s-1.5-.8-2.1-1.4c-.6-.6-1-1.3-1.3-2.1s-.5-1.6-.5-2.6v-.5c0-1,.1-2,.4-2.8s.7-1.6,1.3-2.2c.5-.6,1.2-1.1,2-1.4s1.6-.5,2.5-.5,1.8.2,2.5.5c.7.3,1.3.8,1.8,1.4.5.6.9,1.3,1.1,2.1s.4,1.7.4,2.7v1.4h-10.6v-2.3h7.3v-.2c0-.5-.1-1-.3-1.4-.2-.4-.5-.8-.8-1-.4-.3-.9-.4-1.5-.4s-.9.1-1.3.3c-.4.2-.7.5-.9.9-.2.4-.4.8-.5,1.4s-.2,1.1-.2,1.8v.5c0,.6,0,1.1.2,1.6.2.5.4.9.7,1.3.3.4.7.6,1.1.8.4.2.9.3,1.5.3s1.3-.1,1.9-.4c.6-.3,1-.7,1.5-1.2l1.7,1.7c-.3.4-.7.8-1.1,1.2s-1.1.7-1.7.9c-.7.2-1.4.4-2.3.4Z"/>
          <path d="M277.1,118.9v10.7h-3.3v-13.5h3.1l.2,2.8ZM281.2,116v3.1c-.2,0-.4,0-.7,0-.2,0-.4,0-.6,0-.5,0-1,0-1.3.2-.4.1-.7.3-1,.6-.3.3-.4.6-.6.9-.1.4-.2.8-.2,1.3h-.7c0-.9,0-1.7.3-2.5s.4-1.4.8-1.9.7-1,1.3-1.3c.5-.3,1.1-.5,1.7-.5s.4,0,.6,0c.2,0,.4,0,.5.1Z"/>
          <path d="M285.3,116.1l3.1,9.9.5,3.5-2.3.4-4.9-13.8h3.5ZM287.1,128.1l3.6-12h3.5l-5.4,15.5c-.1.3-.3.7-.5,1.1-.2.4-.5.8-.8,1.1-.3.4-.7.6-1.2.9-.5.2-1.1.3-1.8.3s-.6,0-.8,0c-.2,0-.5,0-.7-.2v-2.5c0,0,.2,0,.3,0,.1,0,.2,0,.3,0,.5,0,.9,0,1.2-.2.3-.1.6-.3.8-.5.2-.2.4-.6.5-1l1-2.6Z"/>
          <path d="M305.5,118.7v16.1h-3.3v-18.7h3.1l.2,2.6ZM314.1,122.7v.3c0,1-.1,1.9-.3,2.7-.2.8-.6,1.6-1,2.2-.4.6-1,1.1-1.6,1.4-.7.3-1.4.5-2.2.5s-1.6-.2-2.2-.5c-.6-.3-1.1-.8-1.6-1.4-.4-.6-.8-1.3-1-2.1-.3-.8-.4-1.6-.6-2.6v-.8c.1-1,.3-1.9.6-2.7.3-.8.6-1.5,1-2.1.4-.6.9-1.1,1.6-1.4s1.3-.5,2.1-.5,1.6.2,2.3.5,1.2.8,1.7,1.4c.4.6.8,1.3,1,2.2.2.8.3,1.8.3,2.8ZM310.8,123v-.3c0-.6,0-1.2-.2-1.7-.1-.5-.3-1-.5-1.3-.2-.4-.5-.7-.9-.9s-.8-.3-1.3-.3-.9,0-1.3.2-.7.4-.9.7-.4.7-.5,1.1c-.1.4-.2.9-.3,1.4v2.1c0,.6.2,1.2.4,1.7s.5.9,1,1.2c.4.3,1,.4,1.6.4s.9-.1,1.3-.3.6-.5.9-.9c.2-.4.4-.8.5-1.4,0-.5.1-1.1.1-1.6Z"/>
          <path d="M320,110.4v19.1h-3.3v-19.1h3.3Z"/>
          <path d="M329.2,129.8c-1,0-1.9-.2-2.8-.5s-1.5-.8-2.1-1.4c-.6-.6-1-1.3-1.3-2.1s-.5-1.6-.5-2.6v-.5c0-1,.1-2,.4-2.8s.7-1.6,1.3-2.2c.5-.6,1.2-1.1,2-1.4s1.6-.5,2.5-.5,1.8.2,2.5.5c.7.3,1.3.8,1.8,1.4.5.6.9,1.3,1.1,2.1s.4,1.7.4,2.7v1.4h-10.6v-2.3h7.3v-.2c0-.5-.1-1-.3-1.4-.2-.4-.5-.8-.8-1-.4-.3-.9-.4-1.5-.4s-.9.1-1.3.3c-.4.2-.7.5-.9.9-.2.4-.4.8-.5,1.4s-.2,1.1-.2,1.8v.5c0,.6,0,1.1.2,1.6.2.5.4.9.7,1.3.3.4.7.6,1.1.8.4.2.9.3,1.5.3s1.3-.1,1.9-.4c.6-.3,1-.7,1.5-1.2l1.7,1.7c-.3.4-.7.8-1.1,1.2s-1.1.7-1.7.9c-.7.2-1.4.4-2.3.4Z"/>
          <path d="M344.8,121.4v2s-2.1,0-2.1,0c-.5,0-1,0-1.4.2-.4.1-.7.3-1,.4-.2.2-.4.4-.6.7-.1.3-.2.6-.2.9s0,.6.2.9c.2.3.4.5.7.6.3.2.6.2,1,.2.6,0,1.1-.1,1.5-.4.4-.2.8-.5,1-.9s.4-.7.4-1l.9,1.4c-.1.3-.3.7-.5,1.1s-.5.7-.9,1.1c-.4.3-.8.6-1.3.8-.5.2-1.1.3-1.8.3s-1.7-.2-2.3-.5c-.7-.3-1.2-.8-1.6-1.4s-.6-1.3-.6-2.1.1-1.3.4-1.9c.3-.5.7-1,1.2-1.4.5-.4,1.2-.7,1.9-.9.8-.2,1.7-.3,2.7-.3h2.2ZM344.3,126.7v-6.2c0-.5,0-.9-.2-1.2s-.4-.6-.7-.8-.7-.3-1.2-.3-.8,0-1.2.2-.6.4-.8.6-.3.6-.3.9h-3.3c0-.6.1-1.1.4-1.6.3-.5.6-1,1.1-1.3.5-.4,1.1-.7,1.8-.9.7-.2,1.5-.3,2.3-.3s1.9.2,2.7.5c.8.3,1.4.9,1.9,1.6.5.7.7,1.6.7,2.6v5.9c0,.7,0,1.2.1,1.7,0,.5.2.9.4,1.2v.2h-3.4c-.2-.3-.3-.8-.4-1.3s-.1-1-.1-1.6Z"/>
          <path d="M358,125.9c0-.3,0-.5-.2-.8-.1-.2-.4-.4-.8-.6-.4-.2-1-.4-1.8-.5-.7-.1-1.3-.3-1.9-.6-.6-.2-1.1-.5-1.5-.8-.4-.3-.8-.7-1-1.1-.2-.4-.4-.9-.4-1.5s.1-1.1.4-1.6c.2-.5.6-.9,1-1.3s1-.7,1.7-.9c.7-.2,1.4-.3,2.2-.3s2.1.2,3,.6c.8.4,1.5.9,1.9,1.5.4.7.7,1.4.7,2.2h-3.3c0-.4,0-.7-.2-1-.2-.3-.4-.5-.7-.7-.3-.2-.8-.3-1.3-.3s-.8,0-1.2.2c-.3.1-.5.3-.7.6s-.2.5-.2.8,0,.4.1.6c0,.2.2.3.4.5s.5.3.8.4c.3.1.8.2,1.3.3,1,.2,1.9.5,2.6.8s1.3.8,1.8,1.3c.4.5.6,1.2.6,2.1s-.1,1.1-.4,1.6c-.3.5-.6.9-1.1,1.3-.5.4-1.1.6-1.8.9-.7.2-1.4.3-2.3.3-1.2,0-2.3-.2-3.1-.7-.9-.4-1.5-1-1.9-1.7s-.7-1.4-.7-2.1h3.2c0,.5.2.9.4,1.3.3.3.6.5,1,.7.4.1.8.2,1.3.2s.9,0,1.3-.2c.3-.1.6-.3.8-.6.2-.2.3-.5.3-.8Z"/>
          <path d="M369.7,129.8c-1,0-1.9-.2-2.8-.5s-1.5-.8-2.1-1.4c-.6-.6-1-1.3-1.3-2.1s-.5-1.6-.5-2.6v-.5c0-1,.1-2,.4-2.8s.7-1.6,1.3-2.2c.5-.6,1.2-1.1,2-1.4s1.6-.5,2.5-.5,1.8.2,2.5.5c.7.3,1.3.8,1.8,1.4.5.6.9,1.3,1.1,2.1s.4,1.7.4,2.7v1.4h-10.6v-2.3h7.3v-.2c0-.5-.1-1-.3-1.4-.2-.4-.5-.8-.8-1-.4-.3-.9-.4-1.5-.4s-.9.1-1.3.3c-.4.2-.7.5-.9.9-.2.4-.4.8-.5,1.4s-.2,1.1-.2,1.8v.5c0,.6,0,1.1.2,1.6.2.5.4.9.7,1.3.3.4.7.6,1.1.8.4.2.9.3,1.5.3s1.3-.1,1.9-.4c.6-.3,1-.7,1.5-1.2l1.7,1.7c-.3.4-.7.8-1.1,1.2s-1.1.7-1.7.9c-.7.2-1.4.4-2.3.4Z"/>
          <path d="M376.8,123v-.3c0-1,.1-2,.4-2.8.2-.8.6-1.6,1-2.2.5-.6,1-1.1,1.7-1.4.7-.3,1.4-.5,2.2-.5s1.5.2,2.1.5c.6.3,1.1.8,1.5,1.4.4.6.8,1.3,1,2.1.3.8.4,1.7.6,2.7v.7c-.1,1-.3,1.8-.6,2.6-.3.8-.6,1.5-1,2.1s-.9,1.1-1.6,1.4c-.6.3-1.3.5-2.1.5s-1.6-.2-2.2-.5-1.2-.8-1.7-1.4c-.5-.6-.8-1.3-1-2.2-.2-.8-.4-1.7-.4-2.7ZM380.1,122.7v.3c0,.6,0,1.1.1,1.6,0,.5.3,1,.5,1.3s.5.7.9.9c.4.2.8.3,1.3.3s1.2-.1,1.6-.4c.4-.3.7-.7,1-1.2.2-.5.4-1.1.4-1.7v-2c0-.5-.1-1-.3-1.4-.1-.4-.3-.8-.6-1.1-.2-.3-.5-.5-.9-.7s-.8-.3-1.3-.3-.9.1-1.3.3c-.4.2-.6.5-.9.9-.2.4-.4.8-.5,1.4-.1.5-.2,1.1-.2,1.7ZM385.5,126.7v-16.3h3.3v19.1h-3l-.3-2.9Z"/>
          <path d="M391.9,128c0-.5.2-.9.5-1.3.3-.3.8-.5,1.4-.5s1,.2,1.4.5c.3.3.5.8.5,1.3s-.2.9-.5,1.2c-.3.3-.8.5-1.4.5s-1-.2-1.4-.5c-.3-.3-.5-.7-.5-1.2Z"/>
          <path d="M409.3,111.4v18.1h-3.4v-18.1h3.4Z"/>
          <path d="M415.9,119v10.6h-3.3v-13.5h3.1l.2,2.9ZM415.4,122.4h-1c0-1,.1-1.9.4-2.7.3-.8.6-1.5,1.1-2.1.5-.6,1-1,1.7-1.3.6-.3,1.4-.5,2.2-.5s1.2,0,1.8.3c.5.2,1,.5,1.4.9.4.4.7.9.9,1.6.2.6.3,1.4.3,2.4v8.6h-3.3v-8.7c0-.6,0-1.1-.3-1.5s-.4-.6-.8-.8c-.3-.1-.7-.2-1.2-.2s-.9.1-1.3.3c-.4.2-.7.5-.9.8-.3.4-.4.8-.6,1.2-.1.5-.2,1-.2,1.5Z"/>
          <path d="M441.2,121.4v2s-2.1,0-2.1,0c-.5,0-1,0-1.4.2-.4.1-.7.3-1,.4-.2.2-.4.4-.6.7-.1.3-.2.6-.2.9s0,.6.2.9c.2.3.4.5.7.6.3.2.6.2,1,.2.6,0,1.1-.1,1.5-.4.4-.2.8-.5,1-.9s.4-.7.4-1l.9,1.4c-.1.3-.3.7-.5,1.1s-.5.7-.9,1.1c-.4.3-.8.6-1.3.8-.5.2-1.1.3-1.8.3s-1.7-.2-2.3-.5c-.7-.3-1.2-.8-1.6-1.4s-.6-1.3-.6-2.1.1-1.3.4-1.9c.3-.5.7-1,1.2-1.4.5-.4,1.2-.7,1.9-.9.8-.2,1.7-.3,2.7-.3h2.2ZM440.7,126.7v-6.2c0-.5,0-.9-.2-1.2s-.4-.6-.7-.8-.7-.3-1.2-.3-.8,0-1.2.2-.6.4-.8.6-.3.6-.3.9h-3.3c0-.6.1-1.1.4-1.6.3-.5.6-1,1.1-1.3.5-.4,1.1-.7,1.8-.9.7-.2,1.5-.3,2.3-.3s1.9.2,2.7.5c.8.3,1.4.9,1.9,1.6.5.7.7,1.6.7,2.6v5.9c0,.7,0,1.2.1,1.7,0,.5.2.9.4,1.2v.2h-3.4c-.2-.3-.3-.8-.4-1.3s-.1-1-.1-1.6Z"/>
          <path d="M450.5,110.4v19.1h-3.3v-19.1h3.3Z"/>
          <path d="M457.1,110.4v19.1h-3.3v-19.1h3.3Z"/>
          <path d="M469.8,110.4v19.1h-3.3v-19.1h3.3ZM469.3,122.4h-1c0-.9.1-1.8.4-2.6.2-.8.6-1.5,1.1-2.1.5-.6,1-1,1.6-1.4.6-.3,1.3-.5,2.1-.5s1.3,0,1.8.3c.5.2,1,.5,1.4.9.4.4.7.9.9,1.6.2.7.3,1.4.3,2.4v8.6h-3.3v-8.6c0-.6,0-1.1-.3-1.5-.2-.4-.4-.6-.8-.8-.3-.2-.7-.2-1.2-.2s-1,.1-1.4.3c-.4.2-.7.5-.9.8-.2.4-.4.8-.5,1.2-.1.5-.2,1-.2,1.5Z"/>
          <path d="M480.2,123v-.3c0-1,.1-1.9.4-2.7.3-.8.7-1.6,1.2-2.2.5-.6,1.2-1.1,2-1.4.8-.3,1.7-.5,2.7-.5s1.9.2,2.7.5c.8.3,1.4.8,2,1.4.5.6,1,1.3,1.2,2.2.3.8.4,1.7.4,2.7v.3c0,1-.1,1.9-.4,2.7-.3.8-.7,1.6-1.2,2.2-.5.6-1.2,1.1-2,1.4s-1.7.5-2.7.5-1.9-.2-2.7-.5c-.8-.3-1.5-.8-2-1.4-.5-.6-1-1.3-1.2-2.2-.3-.8-.4-1.7-.4-2.7ZM483.5,122.7v.3c0,.6,0,1.1.2,1.7.1.5.3,1,.5,1.4.2.4.6.7.9.9.4.2.8.3,1.4.3s1-.1,1.4-.3c.4-.2.7-.5.9-.9.2-.4.4-.8.5-1.4.1-.5.2-1.1.2-1.7v-.3c0-.6,0-1.1-.2-1.6-.1-.5-.3-1-.5-1.4-.2-.4-.6-.7-.9-.9-.4-.2-.8-.3-1.4-.3s-1,.1-1.4.3c-.4.2-.7.5-.9.9-.2.4-.4.8-.5,1.4-.1.5-.2,1.1-.2,1.6Z"/>
          <path d="M498.5,119v10.6h-3.3v-13.5h3.1l.2,2.9ZM497.9,122.4h-1c0-1,.1-1.9.4-2.7.3-.8.6-1.5,1.1-2.1.5-.6,1-1,1.7-1.3.6-.3,1.4-.5,2.2-.5s1.2,0,1.8.3c.5.2,1,.5,1.4.9.4.4.7.9.9,1.6.2.6.3,1.4.3,2.4v8.6h-3.3v-8.7c0-.6,0-1.1-.3-1.5s-.4-.6-.8-.8c-.3-.1-.7-.2-1.2-.2s-.9.1-1.3.3c-.4.2-.7.5-.9.8-.3.4-.4.8-.6,1.2-.1.5-.2,1-.2,1.5Z"/>
          <path d="M515.5,129.8c-1,0-1.9-.2-2.8-.5s-1.5-.8-2.1-1.4c-.6-.6-1-1.3-1.3-2.1s-.5-1.6-.5-2.6v-.5c0-1,.1-2,.4-2.8s.7-1.6,1.3-2.2c.5-.6,1.2-1.1,2-1.4s1.6-.5,2.5-.5,1.8.2,2.5.5c.7.3,1.3.8,1.8,1.4.5.6.9,1.3,1.1,2.1s.4,1.7.4,2.7v1.4h-10.6v-2.3h7.3v-.2c0-.5-.1-1-.3-1.4-.2-.4-.5-.8-.8-1-.4-.3-.9-.4-1.5-.4s-.9.1-1.3.3c-.4.2-.7.5-.9.9-.2.4-.4.8-.5,1.4s-.2,1.1-.2,1.8v.5c0,.6,0,1.1.2,1.6.2.5.4.9.7,1.3.3.4.7.6,1.1.8.4.2.9.3,1.5.3s1.3-.1,1.9-.4c.6-.3,1-.7,1.5-1.2l1.7,1.7c-.3.4-.7.8-1.1,1.2s-1.1.7-1.7.9c-.7.2-1.4.4-2.3.4Z"/>
          <path d="M530.6,125.9c0-.3,0-.5-.2-.8-.1-.2-.4-.4-.8-.6-.4-.2-1-.4-1.8-.5-.7-.1-1.3-.3-1.9-.6-.6-.2-1.1-.5-1.5-.8-.4-.3-.8-.7-1-1.1-.2-.4-.4-.9-.4-1.5s.1-1.1.4-1.6c.2-.5.6-.9,1-1.3s1-.7,1.7-.9c.7-.2,1.4-.3,2.2-.3s2.1.2,3,.6c.8.4,1.5.9,1.9,1.5.4.7.7,1.4.7,2.2h-3.3c0-.4,0-.7-.2-1-.2-.3-.4-.5-.7-.7-.3-.2-.8-.3-1.3-.3s-.8,0-1.2.2c-.3.1-.5.3-.7.6s-.2.5-.2.8,0,.4.1.6c0,.2.2.3.4.5s.5.3.8.4c.3.1.8.2,1.3.3,1,.2,1.9.5,2.6.8s1.3.8,1.8,1.3c.4.5.6,1.2.6,2.1s-.1,1.1-.4,1.6c-.3.5-.6.9-1.1,1.3-.5.4-1.1.6-1.8.9-.7.2-1.4.3-2.3.3-1.2,0-2.3-.2-3.1-.7-.9-.4-1.5-1-1.9-1.7s-.7-1.4-.7-2.1h3.2c0,.5.2.9.4,1.3.3.3.6.5,1,.7.4.1.8.2,1.3.2s.9,0,1.3-.2c.3-.1.6-.3.8-.6.2-.2.3-.5.3-.8Z"/>
          <path d="M542.7,116.1v2.4h-7.7v-2.4h7.7ZM537,112.8h3.3v12.9c0,.4,0,.7.2.9s.3.4.5.4.5.1.8.1.4,0,.6,0c.2,0,.3,0,.5,0v2.5c-.3,0-.6.2-.9.2-.3,0-.7,0-1.2,0-.7,0-1.4-.1-1.9-.4-.6-.3-1-.7-1.3-1.2-.3-.6-.5-1.3-.5-2.3v-13.2Z"/>
          <path d="M547.1,116.1l3.1,9.9.5,3.5-2.3.4-4.9-13.8h3.5ZM548.8,128.1l3.6-12h3.5l-5.4,15.5c-.1.3-.3.7-.5,1.1-.2.4-.5.8-.8,1.1-.3.4-.7.6-1.2.9-.5.2-1.1.3-1.8.3s-.6,0-.8,0c-.2,0-.5,0-.7-.2v-2.5c0,0,.2,0,.3,0,.1,0,.2,0,.3,0,.5,0,.9,0,1.2-.2.3-.1.6-.3.8-.5.2-.2.4-.6.5-1l1-2.6Z"/>
          <path d="M567.8,111.4v18.1h-3.4v-18.1h3.4Z"/>
          <path d="M580.8,110.4v19.1h-3.3v-19.1h3.3ZM580.3,122.4h-1c0-.9.1-1.8.4-2.6.2-.8.6-1.5,1.1-2.1.5-.6,1-1,1.6-1.4s1.3-.5,2.1-.5,1.3,0,1.8.3c.5.2,1,.5,1.4.9.4.4.7.9.9,1.6s.3,1.4.3,2.4v8.6h-3.3v-8.6c0-.6,0-1.1-.3-1.5-.2-.4-.4-.6-.8-.8-.3-.2-.8-.2-1.2-.2s-1,.1-1.4.3c-.4.2-.7.5-.9.8-.2.4-.4.8-.5,1.2-.1.5-.2,1-.2,1.5Z"/>
          <path d="M599.7,121.4v2s-2.1,0-2.1,0c-.5,0-1,0-1.4.2-.4.1-.7.3-1,.4-.2.2-.4.4-.6.7-.1.3-.2.6-.2.9s0,.6.2.9c.2.3.4.5.7.6.3.2.6.2,1,.2.6,0,1.1-.1,1.5-.4.4-.2.8-.5,1-.9s.4-.7.4-1l.9,1.4c-.1.3-.3.7-.5,1.1s-.5.7-.9,1.1-.8.6-1.3.8-1.1.3-1.8.3-1.7-.2-2.3-.5-1.2-.8-1.6-1.4c-.4-.6-.6-1.3-.6-2.1s.1-1.3.4-1.9.7-1,1.2-1.4c.5-.4,1.2-.7,1.9-.9.8-.2,1.7-.3,2.7-.3h2.2ZM599.2,126.7v-6.2c0-.5,0-.9-.2-1.2-.2-.3-.4-.6-.7-.8-.3-.2-.7-.3-1.2-.3s-.8,0-1.2.2-.6.4-.8.6c-.2.3-.3.6-.3.9h-3.3c0-.6.1-1.1.4-1.6.3-.5.6-1,1.1-1.3.5-.4,1.1-.7,1.8-.9s1.5-.3,2.3-.3,1.9.2,2.7.5c.8.3,1.4.9,1.9,1.6.5.7.7,1.6.7,2.6v5.9c0,.7,0,1.2.1,1.7,0,.5.2.9.4,1.2v.2h-3.3c-.2-.3-.3-.8-.4-1.3s-.1-1-.1-1.6Z"/>
          <path d="M604.9,123v-.3c0-1,.1-2,.4-2.8.2-.8.6-1.6,1-2.2.5-.6,1-1.1,1.7-1.4.7-.3,1.4-.5,2.2-.5s1.5.2,2.1.5c.6.3,1.1.8,1.5,1.4.4.6.8,1.3,1,2.1.3.8.4,1.7.6,2.7v.7c-.1,1-.3,1.8-.6,2.6-.3.8-.6,1.5-1,2.1s-.9,1.1-1.6,1.4c-.6.3-1.3.5-2.1.5s-1.6-.2-2.2-.5-1.2-.8-1.7-1.4c-.5-.6-.8-1.3-1-2.2-.2-.8-.4-1.7-.4-2.7ZM608.2,122.7v.3c0,.6,0,1.1.2,1.6,0,.5.3,1,.5,1.3.2.4.5.7.9.9.4.2.8.3,1.3.3s1.2-.1,1.6-.4c.4-.3.7-.7,1-1.2.2-.5.4-1.1.4-1.7v-2c0-.5-.1-1-.3-1.4-.1-.4-.3-.8-.6-1.1s-.5-.5-.9-.7c-.4-.2-.8-.3-1.3-.3s-.9.1-1.3.3c-.4.2-.6.5-.9.9-.2.4-.4.8-.5,1.4-.1.5-.2,1.1-.2,1.7ZM613.6,126.7v-16.3h3.3v19.1h-3l-.3-2.9Z"/>
          <path d="M629.5,118.9v10.7h-3.3v-13.5h3.1l.2,2.8ZM629,122.4h-1c0-.9.1-1.8.3-2.6.2-.8.6-1.5,1-2.1s1-1,1.7-1.4,1.4-.5,2.3-.5,1.2,0,1.7.3c.5.2.9.5,1.3.8s.7.9.9,1.5.3,1.3.3,2.2v9h-3.3v-8.7c0-.6,0-1.1-.3-1.5-.2-.4-.4-.6-.8-.8-.3-.1-.7-.2-1.2-.2s-1,.1-1.3.3-.7.5-.9.8c-.2.4-.4.8-.5,1.2-.1.5-.2,1-.2,1.5ZM637.2,121.7l-1.4.2c0-.8.1-1.6.3-2.4.2-.7.6-1.4,1-2,.4-.6,1-1,1.6-1.3.7-.3,1.4-.5,2.3-.5s1.3,0,1.8.3c.5.2,1,.5,1.4.9.4.4.7.9.9,1.6.2.6.3,1.4.3,2.3v8.7h-3.3v-8.7c0-.7,0-1.2-.3-1.5s-.4-.6-.8-.7c-.3-.1-.7-.2-1.2-.2s-.9,0-1.2.3c-.3.2-.6.4-.8.7-.2.3-.4.6-.5,1-.1.4-.2.8-.2,1.3Z"/>
          <path d="M650.5,116.1l3.1,9.9.5,3.5-2.3.4-4.9-13.8h3.5ZM652.3,128.1l3.6-12h3.5l-5.4,15.5c-.1.3-.3.7-.5,1.1s-.5.8-.8,1.1c-.3.4-.7.6-1.2.9-.5.2-1.1.3-1.8.3s-.6,0-.8,0c-.2,0-.5,0-.7-.2v-2.5c0,0,.2,0,.3,0,.1,0,.2,0,.3,0,.5,0,.9,0,1.2-.2.3-.1.6-.3.8-.5.2-.2.4-.6.5-1l1-2.6Z"/>
          <path d="M666.8,123v-.3c0-1,.1-2,.4-2.8.2-.8.6-1.6,1-2.2.5-.6,1-1.1,1.7-1.4.7-.3,1.4-.5,2.2-.5s1.5.2,2.1.5c.6.3,1.1.8,1.5,1.4.4.6.8,1.3,1,2.1.3.8.4,1.7.6,2.7v.7c-.1,1-.3,1.8-.6,2.6-.3.8-.6,1.5-1,2.1s-.9,1.1-1.6,1.4c-.6.3-1.3.5-2.1.5s-1.6-.2-2.2-.5-1.2-.8-1.7-1.4c-.5-.6-.8-1.3-1-2.2-.2-.8-.4-1.7-.4-2.7ZM670.1,122.7v.3c0,.6,0,1.1.2,1.6,0,.5.3,1,.5,1.3.2.4.5.7.9.9.4.2.8.3,1.3.3s1.2-.1,1.6-.4c.4-.3.7-.7,1-1.2.2-.5.4-1.1.4-1.7v-2c0-.5-.1-1-.3-1.4-.1-.4-.3-.8-.6-1.1s-.5-.5-.9-.7c-.4-.2-.8-.3-1.3-.3s-.9.1-1.3.3c-.4.2-.6.5-.9.9-.2.4-.4.8-.5,1.4-.1.5-.2,1.1-.2,1.7ZM675.4,126.7v-16.3h3.3v19.1h-3l-.3-2.9Z"/>
          <path d="M681.1,123v-.3c0-1,.1-1.9.4-2.7s.7-1.6,1.2-2.2c.5-.6,1.2-1.1,2-1.4.8-.3,1.7-.5,2.7-.5s1.9.2,2.7.5c.8.3,1.4.8,2,1.4.5.6,1,1.3,1.2,2.2s.4,1.7.4,2.7v.3c0,1-.1,1.9-.4,2.7s-.7,1.6-1.2,2.2c-.5.6-1.2,1.1-2,1.4-.8.3-1.7.5-2.7.5s-1.9-.2-2.7-.5c-.8-.3-1.5-.8-2-1.4-.5-.6-1-1.3-1.2-2.2s-.4-1.7-.4-2.7ZM684.4,122.7v.3c0,.6,0,1.1.2,1.7.1.5.3,1,.5,1.4.2.4.6.7.9.9.4.2.8.3,1.4.3s1-.1,1.4-.3c.4-.2.7-.5.9-.9.2-.4.4-.8.5-1.4.1-.5.2-1.1.2-1.7v-.3c0-.6,0-1.1-.2-1.6-.1-.5-.3-1-.5-1.4-.2-.4-.6-.7-.9-.9-.4-.2-.8-.3-1.4-.3s-1,.1-1.4.3c-.4.2-.7.5-.9.9-.2.4-.4.8-.5,1.4-.1.5-.2,1.1-.2,1.6Z"/>
          <path d="M704.6,123.6h1c0,.9,0,1.7-.3,2.5-.2.8-.5,1.4-.9,2-.4.6-.9,1-1.6,1.3-.6.3-1.4.5-2.3.5s-1.3,0-1.8-.3c-.5-.2-1-.5-1.4-.9-.4-.4-.7-.9-.9-1.6s-.3-1.4-.3-2.3v-8.7h3.3v8.7c0,.4,0,.8.2,1.1.1.3.2.5.4.7.2.2.4.3.7.4.3,0,.5.1.8.1.8,0,1.4-.2,1.9-.5.5-.3.8-.8,1-1.3s.3-1.2.3-1.8ZM704.2,126.4v-10.3h3.3v13.5h-3.1l-.2-3.2Z"/>
          <path d="M710.4,110.4h3.3v16.2l-.3,3h-3v-19.1ZM722.3,122.7v.3c0,1-.1,1.9-.3,2.8-.2.8-.5,1.6-1,2.2-.4.6-1,1.1-1.6,1.4-.7.3-1.4.5-2.3.5s-1.5-.2-2.2-.5c-.6-.3-1.1-.8-1.5-1.4s-.7-1.3-1-2.1c-.2-.8-.4-1.7-.6-2.7v-.7c.1-1,.3-1.9.6-2.7s.6-1.5,1-2.1c.4-.6.9-1.1,1.5-1.4.6-.3,1.3-.5,2.1-.5s1.7.2,2.3.5c.7.3,1.2.8,1.6,1.4s.8,1.3,1,2.2c.2.8.3,1.8.3,2.8ZM719,123v-.3c0-.6,0-1.1-.1-1.6,0-.5-.2-1-.4-1.4-.2-.4-.5-.7-.8-.9-.4-.2-.8-.3-1.3-.3s-1,0-1.3.3c-.4.2-.7.4-.9.7-.2.3-.4.7-.5,1.1s-.2.9-.3,1.3v1.9c0,.6.2,1.2.4,1.7.2.5.5.9,1,1.2s1,.4,1.7.4,1-.1,1.3-.3c.4-.2.6-.5.8-.9.2-.4.4-.8.4-1.4s.1-1.1.1-1.7Z"/>
          <path d="M731.1,116.1v2.4h-7.7v-2.4h7.7ZM725.5,112.8h3.3v12.9c0,.4,0,.7.2.9.1.2.3.4.5.4s.5.1.8.1.4,0,.6,0,.3,0,.5,0v2.5c-.3,0-.6.2-.9.2-.3,0-.7,0-1.2,0-.7,0-1.4-.1-1.9-.4-.6-.3-1-.7-1.3-1.2-.3-.6-.5-1.3-.5-2.3v-13.2Z"/>
          <path d="M740.7,125.9c0-.3,0-.5-.2-.8-.1-.2-.4-.4-.8-.6-.4-.2-1-.4-1.8-.5-.7-.1-1.3-.3-1.9-.6-.6-.2-1.1-.5-1.5-.8-.4-.3-.8-.7-1-1.1-.2-.4-.4-.9-.4-1.5s.1-1.1.4-1.6c.2-.5.6-.9,1-1.3.5-.4,1-.7,1.7-.9.7-.2,1.4-.3,2.2-.3s2.1.2,3,.6,1.5.9,1.9,1.5c.4.7.7,1.4.7,2.2h-3.3c0-.4,0-.7-.2-1-.2-.3-.4-.5-.7-.7-.3-.2-.8-.3-1.3-.3s-.8,0-1.2.2-.5.3-.7.6c-.2.2-.2.5-.2.8s0,.4.1.6c0,.2.2.3.4.5s.5.3.8.4c.3.1.8.2,1.3.3,1,.2,1.9.5,2.6.8.8.3,1.3.8,1.8,1.3.4.5.6,1.2.6,2.1s-.1,1.1-.4,1.6c-.3.5-.6.9-1.1,1.3-.5.4-1.1.6-1.8.9-.7.2-1.4.3-2.3.3-1.2,0-2.3-.2-3.1-.7-.9-.4-1.5-1-1.9-1.7s-.7-1.4-.7-2.1h3.2c0,.5.2.9.4,1.3.3.3.6.5,1,.7.4.1.8.2,1.3.2s.9,0,1.3-.2c.3-.1.6-.3.8-.6.2-.2.3-.5.3-.8Z"/>
          <path d="M752.7,112.6c0-.5.2-.9.5-1.2s.8-.5,1.4-.5,1,.2,1.4.5c.3.3.5.7.5,1.2s-.2.9-.5,1.2c-.3.3-.8.5-1.4.5s-1-.2-1.4-.5c-.3-.3-.5-.7-.5-1.2ZM756.2,116.1v13.5h-3.3v-13.5h3.3Z"/>
          <path d="M765.8,116.1v2.4h-7.7v-2.4h7.7ZM760.1,112.8h3.3v12.9c0,.4,0,.7.2.9.1.2.3.4.5.4s.5.1.8.1.4,0,.6,0,.3,0,.5,0v2.5c-.3,0-.6.2-.9.2-.3,0-.7,0-1.2,0-.7,0-1.4-.1-1.9-.4-.6-.3-1-.7-1.3-1.2-.3-.6-.5-1.3-.5-2.3v-13.2Z"/>
          <path d="M776.4,116.1l2.2,10.3.2,3.2h-2.1l-3.5-13.5h3.2ZM778,126.3l3-10.2h2.1l-.6,3.5-3,9.9h-1.8l.4-3.2ZM783.4,116.1l2.9,10.1.4,3.3h-1.8l-3-9.9-.6-3.5h2.1ZM785.8,126.2l2.2-10.1h3.2l-3.5,13.5h-2.1l.2-3.4Z"/>
          <path d="M792.5,123v-.3c0-1,.1-1.9.4-2.7s.7-1.6,1.2-2.2c.5-.6,1.2-1.1,2-1.4.8-.3,1.7-.5,2.7-.5s1.9.2,2.7.5c.8.3,1.4.8,2,1.4.5.6,1,1.3,1.2,2.2s.4,1.7.4,2.7v.3c0,1-.1,1.9-.4,2.7s-.7,1.6-1.2,2.2c-.5.6-1.2,1.1-2,1.4-.8.3-1.7.5-2.7.5s-1.9-.2-2.7-.5c-.8-.3-1.5-.8-2-1.4-.5-.6-1-1.3-1.2-2.2s-.4-1.7-.4-2.7ZM795.8,122.7v.3c0,.6,0,1.1.2,1.7.1.5.3,1,.5,1.4.2.4.6.7.9.9.4.2.8.3,1.4.3s1-.1,1.4-.3c.4-.2.7-.5.9-.9.2-.4.4-.8.5-1.4.1-.5.2-1.1.2-1.7v-.3c0-.6,0-1.1-.2-1.6-.1-.5-.3-1-.5-1.4-.2-.4-.6-.7-.9-.9-.4-.2-.8-.3-1.4-.3s-1,.1-1.4.3c-.4.2-.7.5-.9.9-.2.4-.4.8-.5,1.4-.1.5-.2,1.1-.2,1.6Z"/>
          <path d="M816,123.6h1c0,.9,0,1.7-.3,2.5-.2.8-.5,1.4-.9,2-.4.6-.9,1-1.6,1.3-.6.3-1.4.5-2.3.5s-1.3,0-1.8-.3c-.5-.2-1-.5-1.4-.9-.4-.4-.7-.9-.9-1.6s-.3-1.4-.3-2.3v-8.7h3.3v8.7c0,.4,0,.8.2,1.1.1.3.2.5.4.7.2.2.4.3.7.4.3,0,.5.1.8.1.8,0,1.4-.2,1.9-.5.5-.3.8-.8,1-1.3s.3-1.2.3-1.8ZM815.6,126.4v-10.3h3.3v13.5h-3.1l-.2-3.2Z"/>
          <path d="M825.3,110.4v19.1h-3.3v-19.1h3.3Z"/>
          <path d="M827.8,123v-.3c0-1,.1-2,.4-2.8.2-.8.6-1.6,1-2.2.5-.6,1-1.1,1.7-1.4.7-.3,1.4-.5,2.2-.5s1.5.2,2.1.5c.6.3,1.1.8,1.5,1.4.4.6.8,1.3,1,2.1.3.8.4,1.7.6,2.7v.7c-.1,1-.3,1.8-.6,2.6-.3.8-.6,1.5-1,2.1s-.9,1.1-1.6,1.4c-.6.3-1.3.5-2.1.5s-1.6-.2-2.2-.5-1.2-.8-1.7-1.4c-.5-.6-.8-1.3-1-2.2-.2-.8-.4-1.7-.4-2.7ZM831.1,122.7v.3c0,.6,0,1.1.2,1.6,0,.5.3,1,.5,1.3.2.4.5.7.9.9.4.2.8.3,1.3.3s1.2-.1,1.6-.4c.4-.3.7-.7,1-1.2.2-.5.4-1.1.4-1.7v-2c0-.5-.1-1-.3-1.4-.1-.4-.3-.8-.6-1.1s-.5-.5-.9-.7c-.4-.2-.8-.3-1.3-.3s-.9.1-1.3.3c-.4.2-.6.5-.9.9-.2.4-.4.8-.5,1.4-.1.5-.2,1.1-.2,1.7ZM836.5,126.7v-16.3h3.3v19.1h-3l-.3-2.9Z"/>
          <path d="M849.1,110.4h3.3v16.2l-.3,3h-3v-19.1ZM861.1,122.7v.3c0,1-.1,1.9-.3,2.8-.2.8-.5,1.6-1,2.2-.4.6-1,1.1-1.6,1.4-.7.3-1.4.5-2.3.5s-1.5-.2-2.2-.5c-.6-.3-1.1-.8-1.5-1.4s-.7-1.3-1-2.1c-.2-.8-.4-1.7-.6-2.7v-.7c.1-1,.3-1.9.6-2.7s.6-1.5,1-2.1c.4-.6.9-1.1,1.5-1.4.6-.3,1.3-.5,2.1-.5s1.7.2,2.3.5c.7.3,1.2.8,1.6,1.4s.8,1.3,1,2.2c.2.8.3,1.8.3,2.8ZM857.8,123v-.3c0-.6,0-1.1-.1-1.6,0-.5-.2-1-.4-1.4-.2-.4-.5-.7-.8-.9-.4-.2-.8-.3-1.3-.3s-1,0-1.3.3c-.4.2-.7.4-.9.7-.2.3-.4.7-.5,1.1s-.2.9-.3,1.3v1.9c0,.6.2,1.2.4,1.7.2.5.5.9,1,1.2s1,.4,1.7.4,1-.1,1.3-.3c.4-.2.6-.5.8-.9.2-.4.4-.8.4-1.4s.1-1.1.1-1.7Z"/>
          <path d="M869.5,129.8c-1,0-1.9-.2-2.8-.5s-1.5-.8-2.1-1.4c-.6-.6-1-1.3-1.3-2.1-.3-.8-.5-1.6-.5-2.6v-.5c0-1,.1-2,.4-2.8s.7-1.6,1.3-2.2c.5-.6,1.2-1.1,2-1.4s1.6-.5,2.5-.5,1.8.2,2.5.5c.7.3,1.3.8,1.8,1.4.5.6.9,1.3,1.1,2.1.2.8.4,1.7.4,2.7v1.4h-10.6v-2.3h7.3v-.2c0-.5-.1-1-.3-1.4-.2-.4-.5-.8-.8-1-.4-.3-.9-.4-1.5-.4s-.9.1-1.3.3c-.4.2-.7.5-.9.9-.2.4-.4.8-.5,1.4s-.2,1.1-.2,1.8v.5c0,.6,0,1.1.2,1.6.2.5.4.9.7,1.3.3.4.7.6,1.1.8.4.2.9.3,1.5.3s1.3-.1,1.9-.4c.6-.3,1-.7,1.5-1.2l1.7,1.7c-.3.4-.7.8-1.1,1.2-.5.4-1.1.7-1.7.9-.7.2-1.4.4-2.3.4Z"/>
          <path d="M889.9,116.1v2.4h-7.7v-2.4h7.7ZM884.3,112.8h3.3v12.9c0,.4,0,.7.2.9.1.2.3.4.5.4s.5.1.8.1.4,0,.6,0,.3,0,.5,0v2.5c-.3,0-.6.2-.9.2-.3,0-.7,0-1.2,0-.7,0-1.4-.1-1.9-.4-.6-.3-1-.7-1.3-1.2-.3-.6-.5-1.3-.5-2.3v-13.2Z"/>
          <path d="M895.3,110.4v19.1h-3.3v-19.1h3.3ZM894.8,122.4h-1c0-.9.1-1.8.4-2.6.2-.8.6-1.5,1.1-2.1.5-.6,1-1,1.6-1.4.6-.3,1.3-.5,2.1-.5s1.3,0,1.8.3c.5.2,1,.5,1.4.9.4.4.7.9.9,1.6.2.7.3,1.4.3,2.4v8.6h-3.3v-8.6c0-.6,0-1.1-.3-1.5-.2-.4-.4-.6-.8-.8-.3-.2-.8-.2-1.2-.2s-1,.1-1.4.3-.7.5-.9.8c-.2.4-.4.8-.5,1.2-.1.5-.2,1-.2,1.5Z"/>
          <path d="M906.3,112.6c0-.5.2-.9.5-1.2s.8-.5,1.4-.5,1,.2,1.4.5c.3.3.5.7.5,1.2s-.2.9-.5,1.2c-.3.3-.8.5-1.4.5s-1-.2-1.4-.5c-.3-.3-.5-.7-.5-1.2ZM909.8,116.1v13.5h-3.3v-13.5h3.3Z"/>
          <path d="M920.4,125.9c0-.3,0-.5-.2-.8-.1-.2-.4-.4-.8-.6-.4-.2-1-.4-1.8-.5-.7-.1-1.3-.3-1.9-.6-.6-.2-1.1-.5-1.5-.8-.4-.3-.8-.7-1-1.1-.2-.4-.4-.9-.4-1.5s.1-1.1.4-1.6c.2-.5.6-.9,1-1.3.5-.4,1-.7,1.7-.9.7-.2,1.4-.3,2.2-.3s2.1.2,3,.6,1.5.9,1.9,1.5c.4.7.7,1.4.7,2.2h-3.3c0-.4,0-.7-.2-1-.2-.3-.4-.5-.7-.7-.3-.2-.8-.3-1.3-.3s-.8,0-1.2.2-.5.3-.7.6c-.2.2-.2.5-.2.8s0,.4.1.6c0,.2.2.3.4.5s.5.3.8.4c.3.1.8.2,1.3.3,1,.2,1.9.5,2.6.8.8.3,1.3.8,1.8,1.3.4.5.6,1.2.6,2.1s-.1,1.1-.4,1.6c-.3.5-.6.9-1.1,1.3-.5.4-1.1.6-1.8.9-.7.2-1.4.3-2.3.3-1.2,0-2.3-.2-3.1-.7-.9-.4-1.5-1-1.9-1.7s-.7-1.4-.7-2.1h3.2c0,.5.2.9.4,1.3.3.3.6.5,1,.7.4.1.8.2,1.3.2s.9,0,1.3-.2c.3-.1.6-.3.8-.6.2-.2.3-.5.3-.8Z"/>
        </g>
      </g>
      <g class="st1">
        <g class="st1">
          <path d="M225.5,160.4c-1,0-1.9-.2-2.8-.5s-1.5-.8-2.1-1.4c-.6-.6-1-1.3-1.3-2.1s-.5-1.6-.5-2.6v-.5c0-1,.1-2,.4-2.8s.7-1.6,1.3-2.2c.5-.6,1.2-1.1,2-1.4s1.6-.5,2.5-.5,1.8.2,2.5.5c.7.3,1.3.8,1.8,1.4.5.6.9,1.3,1.1,2.1s.4,1.7.4,2.7v1.4h-10.6v-2.3h7.3v-.2c0-.5-.1-1-.3-1.4-.2-.4-.5-.8-.8-1-.4-.3-.9-.4-1.5-.4s-.9.1-1.3.3c-.4.2-.7.5-.9.9-.2.4-.4.8-.5,1.4s-.2,1.1-.2,1.8v.5c0,.6,0,1.1.2,1.6.2.5.4.9.7,1.3.3.4.7.6,1.1.8.4.2.9.3,1.5.3s1.3-.1,1.9-.4c.6-.3,1-.7,1.5-1.2l1.7,1.7c-.3.4-.7.8-1.1,1.2s-1.1.7-1.7.9c-.7.2-1.4.4-2.3.4Z"/>
          <path d="M241,151.9v2s-2.1,0-2.1,0c-.5,0-1,0-1.4.2-.4.1-.7.3-1,.4-.2.2-.4.4-.6.7-.1.3-.2.6-.2.9s0,.6.2.9c.2.3.4.5.7.6.3.2.6.2,1,.2.6,0,1.1-.1,1.5-.4.4-.2.8-.5,1-.9s.4-.7.4-1l.9,1.4c-.1.3-.3.7-.5,1.1s-.5.7-.9,1.1c-.4.3-.8.6-1.3.8-.5.2-1.1.3-1.8.3s-1.7-.2-2.3-.5c-.7-.3-1.2-.8-1.6-1.4s-.6-1.3-.6-2.1.1-1.3.4-1.9c.3-.5.7-1,1.2-1.4.5-.4,1.2-.7,1.9-.9.8-.2,1.7-.3,2.7-.3h2.2ZM240.6,157.3v-6.2c0-.5,0-.9-.2-1.2s-.4-.6-.7-.8-.7-.3-1.2-.3-.8,0-1.2.2-.6.4-.8.6-.3.6-.3.9h-3.3c0-.6.1-1.1.4-1.6.3-.5.6-1,1.1-1.3.5-.4,1.1-.7,1.8-.9.7-.2,1.5-.3,2.3-.3s1.9.2,2.7.5c.8.3,1.4.9,1.9,1.6.5.7.7,1.6.7,2.6v5.9c0,.7,0,1.2.1,1.7,0,.5.2.9.4,1.2v.2h-3.4c-.2-.3-.3-.8-.4-1.3s-.1-1-.1-1.6Z"/>
          <path d="M254.3,156.5c0-.3,0-.5-.2-.8-.1-.2-.4-.4-.8-.6-.4-.2-1-.4-1.8-.5-.7-.1-1.3-.3-1.9-.6-.6-.2-1.1-.5-1.5-.8-.4-.3-.8-.7-1-1.1-.2-.4-.4-.9-.4-1.5s.1-1.1.4-1.6c.2-.5.6-.9,1-1.3s1-.7,1.7-.9c.7-.2,1.4-.3,2.2-.3s2.1.2,3,.6c.8.4,1.5.9,1.9,1.5.4.7.7,1.4.7,2.2h-3.3c0-.4,0-.7-.2-1-.2-.3-.4-.5-.7-.7-.3-.2-.8-.3-1.3-.3s-.8,0-1.2.2c-.3.1-.5.3-.7.6s-.2.5-.2.8,0,.4.1.6c0,.2.2.3.4.5s.5.3.8.4c.3.1.8.2,1.3.3,1,.2,1.9.5,2.6.8s1.3.8,1.8,1.3c.4.5.6,1.2.6,2.1s-.1,1.1-.4,1.6c-.3.5-.6.9-1.1,1.3-.5.4-1.1.6-1.8.9-.7.2-1.4.3-2.3.3-1.2,0-2.3-.2-3.1-.7-.9-.4-1.5-1-1.9-1.7s-.7-1.4-.7-2.1h3.2c0,.5.2.9.4,1.3.3.3.6.5,1,.7.4.1.8.2,1.3.2s.9,0,1.3-.2c.3-.1.6-.3.8-.6.2-.2.3-.5.3-.8Z"/>
          <path d="M262.1,146.7l3.1,9.9.5,3.5-2.3.4-4.9-13.8h3.5ZM263.9,158.7l3.6-12h3.5l-5.4,15.5c-.1.3-.3.7-.5,1.1-.2.4-.5.8-.8,1.1-.3.4-.7.6-1.2.9-.5.2-1.1.3-1.8.3s-.6,0-.8,0c-.2,0-.5,0-.7-.2v-2.5c0,0,.2,0,.3,0,.1,0,.2,0,.3,0,.5,0,.9,0,1.2-.2.3-.1.6-.3.8-.5.2-.2.4-.6.5-1l1-2.6Z"/>
          <path d="M285.4,146.7v2.4h-7.7v-2.4h7.7ZM279.7,143.4h3.3v12.9c0,.4,0,.7.2.9s.3.4.5.4.5.1.8.1.4,0,.6,0c.2,0,.3,0,.5,0v2.5c-.3,0-.6.2-.9.2-.3,0-.7,0-1.2,0-.7,0-1.4-.1-1.9-.4-.6-.3-1-.7-1.3-1.2-.3-.6-.5-1.3-.5-2.3v-13.2Z"/>
          <path d="M286.6,153.5v-.3c0-1,.1-1.9.4-2.7.3-.8.7-1.6,1.2-2.2.5-.6,1.2-1.1,2-1.4.8-.3,1.7-.5,2.7-.5s1.9.2,2.7.5c.8.3,1.4.8,2,1.4.5.6,1,1.3,1.2,2.2.3.8.4,1.7.4,2.7v.3c0,1-.1,1.9-.4,2.7-.3.8-.7,1.6-1.2,2.2-.5.6-1.2,1.1-2,1.4s-1.7.5-2.7.5-1.9-.2-2.7-.5c-.8-.3-1.5-.8-2-1.4-.5-.6-1-1.3-1.2-2.2-.3-.8-.4-1.7-.4-2.7ZM289.9,153.3v.3c0,.6,0,1.1.2,1.7.1.5.3,1,.5,1.4.2.4.6.7.9.9.4.2.8.3,1.4.3s1-.1,1.4-.3c.4-.2.7-.5.9-.9.2-.4.4-.8.5-1.4.1-.5.2-1.1.2-1.7v-.3c0-.6,0-1.1-.2-1.6-.1-.5-.3-1-.5-1.4-.2-.4-.6-.7-.9-.9-.4-.2-.8-.3-1.4-.3s-1,.1-1.4.3c-.4.2-.7.5-.9.9-.2.4-.4.8-.5,1.4-.1.5-.2,1.1-.2,1.6Z"/>
          <path d="M315.4,156.5c0-.3,0-.5-.2-.8-.1-.2-.4-.4-.8-.6-.4-.2-1-.4-1.8-.5-.7-.1-1.3-.3-1.9-.6-.6-.2-1.1-.5-1.5-.8-.4-.3-.8-.7-1-1.1-.2-.4-.4-.9-.4-1.5s.1-1.1.4-1.6c.2-.5.6-.9,1-1.3s1-.7,1.7-.9c.7-.2,1.4-.3,2.2-.3s2.1.2,3,.6c.8.4,1.5.9,1.9,1.5.4.7.7,1.4.7,2.2h-3.3c0-.4,0-.7-.2-1-.2-.3-.4-.5-.7-.7-.3-.2-.8-.3-1.3-.3s-.8,0-1.2.2c-.3.1-.5.3-.7.6s-.2.5-.2.8,0,.4.1.6c0,.2.2.3.4.5s.5.3.8.4c.3.1.8.2,1.3.3,1,.2,1.9.5,2.6.8s1.3.8,1.8,1.3c.4.5.6,1.2.6,2.1s-.1,1.1-.4,1.6c-.3.5-.6.9-1.1,1.3-.5.4-1.1.6-1.8.9-.7.2-1.4.3-2.3.3-1.2,0-2.3-.2-3.1-.7-.9-.4-1.5-1-1.9-1.7s-.7-1.4-.7-2.1h3.2c0,.5.2.9.4,1.3.3.3.6.5,1,.7.4.1.8.2,1.3.2s.9,0,1.3-.2c.3-.1.6-.3.8-.6.2-.2.3-.5.3-.8Z"/>
          <path d="M327.2,160.4c-1,0-1.9-.2-2.8-.5s-1.5-.8-2.1-1.4c-.6-.6-1-1.3-1.3-2.1s-.5-1.6-.5-2.6v-.5c0-1,.1-2,.4-2.8s.7-1.6,1.3-2.2c.5-.6,1.2-1.1,2-1.4s1.6-.5,2.5-.5,1.8.2,2.5.5c.7.3,1.3.8,1.8,1.4.5.6.9,1.3,1.1,2.1s.4,1.7.4,2.7v1.4h-10.6v-2.3h7.3v-.2c0-.5-.1-1-.3-1.4-.2-.4-.5-.8-.8-1-.4-.3-.9-.4-1.5-.4s-.9.1-1.3.3c-.4.2-.7.5-.9.9-.2.4-.4.8-.5,1.4s-.2,1.1-.2,1.8v.5c0,.6,0,1.1.2,1.6.2.5.4.9.7,1.3.3.4.7.6,1.1.8.4.2.9.3,1.5.3s1.3-.1,1.9-.4c.6-.3,1-.7,1.5-1.2l1.7,1.7c-.3.4-.7.8-1.1,1.2s-1.1.7-1.7.9c-.7.2-1.4.4-2.3.4Z"/>
          <path d="M338.3,141v19.1h-3.3v-19.1h3.3Z"/>
          <path d="M345,141v19.1h-3.3v-19.1h3.3Z"/>
          <path d="M357.7,149.4v10.7h-3.3v-13.5h3.1l.2,2.8ZM357.2,152.9h-1c0-.9.1-1.8.3-2.6.2-.8.6-1.5,1-2.1.4-.6,1-1,1.7-1.4s1.4-.5,2.3-.5,1.2,0,1.7.3.9.5,1.3.8.7.9.9,1.5.3,1.3.3,2.2v9h-3.3v-8.7c0-.6,0-1.1-.3-1.5-.2-.4-.4-.6-.8-.8-.3-.1-.7-.2-1.2-.2s-1,.1-1.3.3c-.4.2-.7.5-.9.8-.2.4-.4.8-.5,1.2-.1.5-.2,1-.2,1.5ZM365.4,152.3l-1.4.2c0-.8.1-1.6.3-2.4s.6-1.4,1-2,1-1,1.6-1.3c.7-.3,1.4-.5,2.3-.5s1.3,0,1.8.3c.5.2,1,.5,1.4.9.4.4.7.9.9,1.6.2.6.3,1.4.3,2.3v8.7h-3.3v-8.7c0-.7,0-1.2-.3-1.5-.2-.3-.4-.6-.8-.7-.3-.1-.7-.2-1.2-.2s-.9,0-1.2.3c-.3.2-.6.4-.8.7-.2.3-.4.6-.5,1-.1.4-.2.8-.2,1.3Z"/>
          <path d="M378.8,146.7l3.1,9.9.5,3.5-2.3.4-4.9-13.8h3.5ZM380.5,158.7l3.6-12h3.5l-5.4,15.5c-.1.3-.3.7-.5,1.1-.2.4-.5.8-.8,1.1-.3.4-.7.6-1.2.9-.5.2-1.1.3-1.8.3s-.6,0-.8,0c-.2,0-.5,0-.7-.2v-2.5c0,0,.2,0,.3,0,.1,0,.2,0,.3,0,.5,0,.9,0,1.2-.2.3-.1.6-.3.8-.5.2-.2.4-.6.5-1l1-2.6Z"/>
          <path d="M401.1,157.8c.5,0,.9,0,1.2-.3s.7-.4.9-.8c.2-.3.3-.7.4-1.2h3.1c0,.9-.3,1.7-.8,2.5s-1.2,1.3-2,1.7c-.8.4-1.8.6-2.8.6s-1.9-.2-2.7-.5c-.8-.3-1.4-.8-1.9-1.5-.5-.6-.9-1.3-1.1-2.2-.3-.8-.4-1.7-.4-2.6v-.4c0-.9.1-1.8.4-2.6s.6-1.5,1.1-2.2,1.2-1.1,1.9-1.5c.8-.3,1.7-.5,2.7-.5s2,.2,2.9.6c.8.4,1.5,1,1.9,1.8.5.8.7,1.7.7,2.7h-3.1c0-.5-.1-.9-.3-1.3-.2-.4-.5-.7-.8-.9-.4-.2-.8-.3-1.3-.3s-1,.1-1.4.3c-.4.2-.7.6-.9,1-.2.4-.3.9-.4,1.3,0,.5-.1,1-.1,1.6v.4c0,.5,0,1.1.1,1.6,0,.5.2.9.4,1.3.2.4.5.7.9.9.4.2.8.3,1.4.3Z"/>
          <path d="M416.8,151.9v2s-2.1,0-2.1,0c-.5,0-1,0-1.4.2-.4.1-.7.3-1,.4-.2.2-.4.4-.6.7-.1.3-.2.6-.2.9s0,.6.2.9c.2.3.4.5.7.6.3.2.6.2,1,.2.6,0,1.1-.1,1.5-.4.4-.2.8-.5,1-.9s.4-.7.4-1l.9,1.4c-.1.3-.3.7-.5,1.1s-.5.7-.9,1.1c-.4.3-.8.6-1.3.8-.5.2-1.1.3-1.8.3s-1.7-.2-2.3-.5c-.7-.3-1.2-.8-1.6-1.4s-.6-1.3-.6-2.1.1-1.3.4-1.9c.3-.5.7-1,1.2-1.4.5-.4,1.2-.7,1.9-.9.8-.2,1.7-.3,2.7-.3h2.2ZM416.3,157.3v-6.2c0-.5,0-.9-.2-1.2s-.4-.6-.7-.8-.7-.3-1.2-.3-.8,0-1.2.2-.6.4-.8.6-.3.6-.3.9h-3.3c0-.6.1-1.1.4-1.6.3-.5.6-1,1.1-1.3.5-.4,1.1-.7,1.8-.9.7-.2,1.5-.3,2.3-.3s1.9.2,2.7.5c.8.3,1.4.9,1.9,1.6.5.7.7,1.6.7,2.6v5.9c0,.7,0,1.2.1,1.7,0,.5.2.9.4,1.2v.2h-3.4c-.2-.3-.3-.8-.4-1.3s-.1-1-.1-1.6Z"/>
          <path d="M425.9,149.4v10.7h-3.3v-13.5h3.1l.2,2.8ZM430,146.6v3.1c-.2,0-.4,0-.7,0-.2,0-.4,0-.6,0-.5,0-1,0-1.3.2-.4.1-.7.3-1,.6-.3.3-.4.6-.6.9-.1.4-.2.8-.2,1.3h-.7c0-.9,0-1.7.3-2.5s.4-1.4.8-1.9.7-1,1.3-1.3c.5-.3,1.1-.5,1.7-.5s.4,0,.6,0c.2,0,.4,0,.5.1Z"/>
          <path d="M444.5,146.7v2.4h-7.7v-2.4h7.7ZM438.8,143.4h3.3v12.9c0,.4,0,.7.2.9s.3.4.5.4.5.1.8.1.4,0,.6,0c.2,0,.3,0,.5,0v2.5c-.3,0-.6.2-.9.2-.3,0-.7,0-1.2,0-.7,0-1.4-.1-1.9-.4-.6-.3-1-.7-1.3-1.2-.3-.6-.5-1.3-.5-2.3v-13.2Z"/>
          <path d="M445.8,153.5v-.3c0-1,.1-1.9.4-2.7.3-.8.7-1.6,1.2-2.2.5-.6,1.2-1.1,2-1.4.8-.3,1.7-.5,2.7-.5s1.9.2,2.7.5c.8.3,1.4.8,2,1.4.5.6,1,1.3,1.2,2.2.3.8.4,1.7.4,2.7v.3c0,1-.1,1.9-.4,2.7-.3.8-.7,1.6-1.2,2.2-.5.6-1.2,1.1-2,1.4s-1.7.5-2.7.5-1.9-.2-2.7-.5c-.8-.3-1.5-.8-2-1.4-.5-.6-1-1.3-1.2-2.2-.3-.8-.4-1.7-.4-2.7ZM449.1,153.3v.3c0,.6,0,1.1.2,1.7.1.5.3,1,.5,1.4.2.4.6.7.9.9.4.2.8.3,1.4.3s1-.1,1.4-.3c.4-.2.7-.5.9-.9.2-.4.4-.8.5-1.4.1-.5.2-1.1.2-1.7v-.3c0-.6,0-1.1-.2-1.6-.1-.5-.3-1-.5-1.4-.2-.4-.6-.7-.9-.9-.4-.2-.8-.3-1.4-.3s-1,.1-1.4.3c-.4.2-.7.5-.9.9-.2.4-.4.8-.5,1.4-.1.5-.2,1.1-.2,1.6Z"/>
          <path d="M475,151.9v2s-2.1,0-2.1,0c-.5,0-1,0-1.4.2-.4.1-.7.3-1,.4-.2.2-.4.4-.6.7-.1.3-.2.6-.2.9s0,.6.2.9c.2.3.4.5.7.6.3.2.6.2,1,.2.6,0,1.1-.1,1.5-.4.4-.2.8-.5,1-.9s.4-.7.4-1l.9,1.4c-.1.3-.3.7-.5,1.1s-.5.7-.9,1.1c-.4.3-.8.6-1.3.8-.5.2-1.1.3-1.8.3s-1.7-.2-2.3-.5c-.7-.3-1.2-.8-1.6-1.4s-.6-1.3-.6-2.1.1-1.3.4-1.9c.3-.5.7-1,1.2-1.4.5-.4,1.2-.7,1.9-.9.8-.2,1.7-.3,2.7-.3h2.2ZM474.6,157.3v-6.2c0-.5,0-.9-.2-1.2s-.4-.6-.7-.8-.7-.3-1.2-.3-.8,0-1.2.2-.6.4-.8.6-.3.6-.3.9h-3.3c0-.6.1-1.1.4-1.6.3-.5.6-1,1.1-1.3.5-.4,1.1-.7,1.8-.9.7-.2,1.5-.3,2.3-.3s1.9.2,2.7.5c.8.3,1.4.9,1.9,1.6.5.7.7,1.6.7,2.6v5.9c0,.7,0,1.2.1,1.7,0,.5.2.9.4,1.2v.2h-3.4c-.2-.3-.3-.8-.4-1.3s-.1-1-.1-1.6Z"/>
          <path d="M484.1,149.6v10.6h-3.3v-13.5h3.1l.2,2.9ZM483.5,152.9h-1c0-1,.1-1.9.4-2.7.3-.8.6-1.5,1.1-2.1.5-.6,1-1,1.7-1.3.6-.3,1.4-.5,2.2-.5s1.2,0,1.8.3c.5.2,1,.5,1.4.9.4.4.7.9.9,1.6.2.6.3,1.4.3,2.4v8.6h-3.3v-8.7c0-.6,0-1.1-.3-1.5s-.4-.6-.8-.8c-.3-.1-.7-.2-1.2-.2s-.9.1-1.3.3c-.4.2-.7.5-.9.8-.3.4-.4.8-.6,1.2-.1.5-.2,1-.2,1.5Z"/>
          <path d="M497.3,146.7l3.1,9.9.5,3.5-2.3.4-4.9-13.8h3.5ZM499,158.7l3.6-12h3.5l-5.4,15.5c-.1.3-.3.7-.5,1.1-.2.4-.5.8-.8,1.1-.3.4-.7.6-1.2.9-.5.2-1.1.3-1.8.3s-.6,0-.8,0c-.2,0-.5,0-.7-.2v-2.5c0,0,.2,0,.3,0,.1,0,.2,0,.3,0,.5,0,.9,0,1.2-.2.3-.1.6-.3.8-.5.2-.2.4-.6.5-1l1-2.6Z"/>
          <path d="M507,153.5v-.3c0-1,.1-1.9.4-2.7.3-.8.7-1.6,1.2-2.2.5-.6,1.2-1.1,2-1.4.8-.3,1.7-.5,2.7-.5s1.9.2,2.7.5c.8.3,1.4.8,2,1.4.5.6,1,1.3,1.2,2.2.3.8.4,1.7.4,2.7v.3c0,1-.1,1.9-.4,2.7-.3.8-.7,1.6-1.2,2.2-.5.6-1.2,1.1-2,1.4s-1.7.5-2.7.5-1.9-.2-2.7-.5c-.8-.3-1.5-.8-2-1.4-.5-.6-1-1.3-1.2-2.2-.3-.8-.4-1.7-.4-2.7ZM510.3,153.3v.3c0,.6,0,1.1.2,1.7.1.5.3,1,.5,1.4.2.4.6.7.9.9.4.2.8.3,1.4.3s1-.1,1.4-.3c.4-.2.7-.5.9-.9.2-.4.4-.8.5-1.4.1-.5.2-1.1.2-1.7v-.3c0-.6,0-1.1-.2-1.6-.1-.5-.3-1-.5-1.4-.2-.4-.6-.7-.9-.9-.4-.2-.8-.3-1.4-.3s-1,.1-1.4.3c-.4.2-.7.5-.9.9-.2.4-.4.8-.5,1.4-.1.5-.2,1.1-.2,1.6Z"/>
          <path d="M525.2,149.6v10.6h-3.3v-13.5h3.1l.2,2.9ZM524.7,152.9h-1c0-1,.1-1.9.4-2.7.3-.8.6-1.5,1.1-2.1.5-.6,1-1,1.7-1.3.6-.3,1.4-.5,2.2-.5s1.2,0,1.8.3c.5.2,1,.5,1.4.9.4.4.7.9.9,1.6.2.6.3,1.4.3,2.4v8.6h-3.3v-8.7c0-.6,0-1.1-.3-1.5s-.4-.6-.8-.8c-.3-.1-.7-.2-1.2-.2s-.9.1-1.3.3c-.4.2-.7.5-.9.8-.3.4-.4.8-.6,1.2-.1.5-.2,1-.2,1.5Z"/>
          <path d="M542.3,160.4c-1,0-1.9-.2-2.8-.5s-1.5-.8-2.1-1.4c-.6-.6-1-1.3-1.3-2.1s-.5-1.6-.5-2.6v-.5c0-1,.1-2,.4-2.8s.7-1.6,1.3-2.2c.5-.6,1.2-1.1,2-1.4s1.6-.5,2.5-.5,1.8.2,2.5.5c.7.3,1.3.8,1.8,1.4.5.6.9,1.3,1.1,2.1s.4,1.7.4,2.7v1.4h-10.6v-2.3h7.3v-.2c0-.5-.1-1-.3-1.4-.2-.4-.5-.8-.8-1-.4-.3-.9-.4-1.5-.4s-.9.1-1.3.3c-.4.2-.7.5-.9.9-.2.4-.4.8-.5,1.4s-.2,1.1-.2,1.8v.5c0,.6,0,1.1.2,1.6.2.5.4.9.7,1.3.3.4.7.6,1.1.8.4.2.9.3,1.5.3s1.3-.1,1.9-.4c.6-.3,1-.7,1.5-1.2l1.7,1.7c-.3.4-.7.8-1.1,1.2s-1.1.7-1.7.9c-.7.2-1.4.4-2.3.4Z"/>
          <path d="M559.8,141v19.1h-3.3v-19.1h3.3Z"/>
          <path d="M569,160.4c-1,0-1.9-.2-2.8-.5s-1.5-.8-2.1-1.4c-.6-.6-1-1.3-1.3-2.1s-.5-1.6-.5-2.6v-.5c0-1,.1-2,.4-2.8s.7-1.6,1.3-2.2c.5-.6,1.2-1.1,2-1.4s1.6-.5,2.5-.5,1.8.2,2.5.5c.7.3,1.3.8,1.8,1.4.5.6.9,1.3,1.1,2.1s.4,1.7.4,2.7v1.4h-10.6v-2.3h7.3v-.2c0-.5-.1-1-.3-1.4-.2-.4-.5-.8-.8-1-.4-.3-.9-.4-1.5-.4s-.9.1-1.3.3c-.4.2-.7.5-.9.9-.2.4-.4.8-.5,1.4s-.2,1.1-.2,1.8v.5c0,.6,0,1.1.2,1.6.2.5.4.9.7,1.3.3.4.7.6,1.1.8.4.2.9.3,1.5.3s1.3-.1,1.9-.4c.6-.3,1-.7,1.5-1.2l1.7,1.7c-.3.4-.7.8-1.1,1.2s-1.1.7-1.7.9c-.7.2-1.4.4-2.3.4Z"/>
          <path d="M583,146.7v2.4h-7.7v-2.4h7.7ZM577.4,143.4h3.3v12.9c0,.4,0,.7.2.9s.3.4.5.4.5.1.8.1.4,0,.6,0,.3,0,.5,0v2.5c-.3,0-.6.2-.9.2-.3,0-.7,0-1.2,0-.7,0-1.4-.1-1.9-.4-.6-.3-1-.7-1.3-1.2-.3-.6-.5-1.3-.5-2.3v-13.2Z"/>
          <path d="M599.5,151.9v2s-2.1,0-2.1,0c-.5,0-1,0-1.4.2-.4.1-.7.3-1,.4-.2.2-.4.4-.6.7-.1.3-.2.6-.2.9s0,.6.2.9c.2.3.4.5.7.6.3.2.6.2,1,.2.6,0,1.1-.1,1.5-.4.4-.2.8-.5,1-.9s.4-.7.4-1l.9,1.4c-.1.3-.3.7-.5,1.1s-.5.7-.9,1.1-.8.6-1.3.8-1.1.3-1.8.3-1.7-.2-2.3-.5-1.2-.8-1.6-1.4c-.4-.6-.6-1.3-.6-2.1s.1-1.3.4-1.9.7-1,1.2-1.4c.5-.4,1.2-.7,1.9-.9.8-.2,1.7-.3,2.7-.3h2.2ZM599,157.3v-6.2c0-.5,0-.9-.2-1.2-.2-.3-.4-.6-.7-.8-.3-.2-.7-.3-1.2-.3s-.8,0-1.2.2-.6.4-.8.6c-.2.3-.3.6-.3.9h-3.3c0-.6.1-1.1.4-1.6.3-.5.6-1,1.1-1.3.5-.4,1.1-.7,1.8-.9s1.5-.3,2.3-.3,1.9.2,2.7.5c.8.3,1.4.9,1.9,1.6.5.7.7,1.6.7,2.6v5.9c0,.7,0,1.2.1,1.7,0,.5.2.9.4,1.2v.2h-3.3c-.2-.3-.3-.8-.4-1.3s-.1-1-.1-1.6Z"/>
          <path d="M608.8,141v19.1h-3.3v-19.1h3.3Z"/>
          <path d="M611.3,153.5v-.3c0-1,.1-1.9.4-2.7s.7-1.6,1.2-2.2c.5-.6,1.2-1.1,2-1.4.8-.3,1.7-.5,2.7-.5s1.9.2,2.7.5c.8.3,1.4.8,2,1.4.5.6,1,1.3,1.2,2.2s.4,1.7.4,2.7v.3c0,1-.1,1.9-.4,2.7s-.7,1.6-1.2,2.2c-.5.6-1.2,1.1-2,1.4-.8.3-1.7.5-2.7.5s-1.9-.2-2.7-.5c-.8-.3-1.5-.8-2-1.4-.5-.6-1-1.3-1.2-2.2s-.4-1.7-.4-2.7ZM614.6,153.3v.3c0,.6,0,1.1.2,1.7.1.5.3,1,.5,1.4.2.4.6.7.9.9.4.2.8.3,1.4.3s1-.1,1.4-.3c.4-.2.7-.5.9-.9.2-.4.4-.8.5-1.4.1-.5.2-1.1.2-1.7v-.3c0-.6,0-1.1-.2-1.6-.1-.5-.3-1-.5-1.4-.2-.4-.6-.7-.9-.9-.4-.2-.8-.3-1.4-.3s-1,.1-1.4.3c-.4.2-.7.5-.9.9-.2.4-.4.8-.5,1.4-.1.5-.2,1.1-.2,1.6Z"/>
          <path d="M629.6,149.6v10.6h-3.3v-13.5h3.1l.2,2.9ZM629,152.9h-1c0-1,.1-1.9.4-2.7.3-.8.6-1.5,1.1-2.1s1-1,1.7-1.3c.6-.3,1.4-.5,2.2-.5s1.2,0,1.8.3c.5.2,1,.5,1.4.9s.7.9.9,1.6c.2.6.3,1.4.3,2.4v8.6h-3.3v-8.7c0-.6,0-1.1-.3-1.5s-.4-.6-.8-.8c-.3-.1-.7-.2-1.2-.2s-.9.1-1.3.3-.7.5-.9.8c-.3.4-.4.8-.6,1.2-.1.5-.2,1-.2,1.5Z"/>
          <path d="M646.6,160.4c-1,0-1.9-.2-2.8-.5s-1.5-.8-2.1-1.4c-.6-.6-1-1.3-1.3-2.1-.3-.8-.5-1.6-.5-2.6v-.5c0-1,.1-2,.4-2.8s.7-1.6,1.3-2.2c.5-.6,1.2-1.1,2-1.4s1.6-.5,2.5-.5,1.8.2,2.5.5c.7.3,1.3.8,1.8,1.4.5.6.9,1.3,1.1,2.1.2.8.4,1.7.4,2.7v1.4h-10.6v-2.3h7.3v-.2c0-.5-.1-1-.3-1.4-.2-.4-.5-.8-.8-1-.4-.3-.9-.4-1.5-.4s-.9.1-1.3.3c-.4.2-.7.5-.9.9-.2.4-.4.8-.5,1.4s-.2,1.1-.2,1.8v.5c0,.6,0,1.1.2,1.6.2.5.4.9.7,1.3.3.4.7.6,1.1.8.4.2.9.3,1.5.3s1.3-.1,1.9-.4c.6-.3,1-.7,1.5-1.2l1.7,1.7c-.3.4-.7.8-1.1,1.2-.5.4-1.1.7-1.7.9-.7.2-1.4.4-2.3.4Z"/>
          <path d="M671.5,154.2h3.4c0,1.2-.4,2.3-1,3.2s-1.4,1.7-2.4,2.2c-1,.5-2.3.8-3.8.8s-2.2-.2-3.1-.6c-.9-.4-1.7-1-2.3-1.7s-1.1-1.7-1.5-2.7c-.3-1.1-.5-2.2-.5-3.6v-1.4c0-1.3.2-2.5.5-3.6s.8-2,1.5-2.7,1.4-1.3,2.4-1.7c.9-.4,1.9-.6,3.1-.6s2.7.3,3.7.8c1,.5,1.8,1.3,2.4,2.2.6.9.9,2,1,3.3h-3.4c0-.8-.2-1.4-.5-1.9-.3-.5-.7-.9-1.2-1.2-.5-.3-1.2-.4-2.1-.4s-1.2.1-1.8.4c-.5.2-.9.6-1.3,1.1-.3.5-.6,1.1-.7,1.8s-.2,1.6-.2,2.5v1.4c0,.9,0,1.7.2,2.5s.4,1.3.7,1.9.7.9,1.2,1.2c.5.3,1.1.4,1.8.4s1.5-.1,2-.4c.5-.3.9-.7,1.2-1.2.3-.5.5-1.2.5-1.9Z"/>
          <path d="M685.2,151.9v2s-2.1,0-2.1,0c-.5,0-1,0-1.4.2-.4.1-.7.3-1,.4-.2.2-.4.4-.6.7-.1.3-.2.6-.2.9s0,.6.2.9c.2.3.4.5.7.6.3.2.6.2,1,.2.6,0,1.1-.1,1.5-.4.4-.2.8-.5,1-.9s.4-.7.4-1l.9,1.4c-.1.3-.3.7-.5,1.1s-.5.7-.9,1.1-.8.6-1.3.8-1.1.3-1.8.3-1.7-.2-2.3-.5-1.2-.8-1.6-1.4-.6-1.3-.6-2.1.1-1.3.4-1.9.7-1,1.2-1.4c.5-.4,1.2-.7,1.9-.9.8-.2,1.7-.3,2.7-.3h2.2ZM684.7,157.3v-6.2c0-.5,0-.9-.2-1.2-.2-.3-.4-.6-.7-.8-.3-.2-.7-.3-1.2-.3s-.8,0-1.2.2-.6.4-.8.6c-.2.3-.3.6-.3.9h-3.3c0-.6.1-1.1.4-1.6s.6-1,1.1-1.3c.5-.4,1.1-.7,1.8-.9s1.5-.3,2.3-.3,1.9.2,2.7.5c.8.3,1.4.9,1.9,1.6.5.7.7,1.6.7,2.6v5.9c0,.7,0,1.2.1,1.7,0,.5.2.9.4,1.2v.2h-3.3c-.2-.3-.3-.8-.4-1.3s-.1-1-.1-1.6Z"/>
          <path d="M694.3,149.4v10.7h-3.3v-13.5h3.1l.2,2.8ZM698.4,146.6v3.1c-.2,0-.4,0-.7,0s-.4,0-.6,0c-.5,0-1,0-1.3.2-.4.1-.7.3-1,.6-.3.3-.4.6-.6.9-.1.4-.2.8-.2,1.3h-.7c0-.9,0-1.7.3-2.5.2-.7.4-1.4.8-1.9s.7-1,1.3-1.3c.5-.3,1.1-.5,1.7-.5s.4,0,.6,0c.2,0,.4,0,.5.1Z"/>
          <path d="M699.4,153.6v-.3c0-1,.1-2,.4-2.8.2-.8.6-1.6,1-2.2.5-.6,1-1.1,1.7-1.4.7-.3,1.4-.5,2.2-.5s1.5.2,2.1.5c.6.3,1.1.8,1.5,1.4.4.6.8,1.3,1,2.1.3.8.4,1.7.6,2.7v.7c-.1,1-.3,1.8-.6,2.6-.3.8-.6,1.5-1,2.1s-.9,1.1-1.6,1.4c-.6.3-1.3.5-2.1.5s-1.6-.2-2.2-.5-1.2-.8-1.7-1.4c-.5-.6-.8-1.3-1-2.2-.2-.8-.4-1.7-.4-2.7ZM702.7,153.3v.3c0,.6,0,1.1.2,1.6,0,.5.3,1,.5,1.3.2.4.5.7.9.9.4.2.8.3,1.3.3s1.2-.1,1.6-.4c.4-.3.7-.7,1-1.2.2-.5.4-1.1.4-1.7v-2c0-.5-.1-1-.3-1.4-.1-.4-.3-.8-.6-1.1s-.5-.5-.9-.7c-.4-.2-.8-.3-1.3-.3s-.9.1-1.3.3c-.4.2-.6.5-.9.9-.2.4-.4.8-.5,1.4-.1.5-.2,1.1-.2,1.7ZM708,157.3v-16.3h3.3v19.1h-3l-.3-2.9Z"/>
          <path d="M720.4,160.4c-1,0-1.9-.2-2.8-.5s-1.5-.8-2.1-1.4c-.6-.6-1-1.3-1.3-2.1-.3-.8-.5-1.6-.5-2.6v-.5c0-1,.1-2,.4-2.8s.7-1.6,1.3-2.2c.5-.6,1.2-1.1,2-1.4s1.6-.5,2.5-.5,1.8.2,2.5.5c.7.3,1.3.8,1.8,1.4.5.6.9,1.3,1.1,2.1.2.8.4,1.7.4,2.7v1.4h-10.6v-2.3h7.3v-.2c0-.5-.1-1-.3-1.4-.2-.4-.5-.8-.8-1-.4-.3-.9-.4-1.5-.4s-.9.1-1.3.3c-.4.2-.7.5-.9.9-.2.4-.4.8-.5,1.4s-.2,1.1-.2,1.8v.5c0,.6,0,1.1.2,1.6.2.5.4.9.7,1.3.3.4.7.6,1.1.8.4.2.9.3,1.5.3s1.3-.1,1.9-.4c.6-.3,1-.7,1.5-1.2l1.7,1.7c-.3.4-.7.8-1.1,1.2-.5.4-1.1.7-1.7.9-.7.2-1.4.4-2.3.4Z"/>
          <path d="M735.9,151.9v2s-2.1,0-2.1,0c-.5,0-1,0-1.4.2-.4.1-.7.3-1,.4-.2.2-.4.4-.6.7-.1.3-.2.6-.2.9s0,.6.2.9c.2.3.4.5.7.6.3.2.6.2,1,.2.6,0,1.1-.1,1.5-.4.4-.2.8-.5,1-.9s.4-.7.4-1l.9,1.4c-.1.3-.3.7-.5,1.1s-.5.7-.9,1.1-.8.6-1.3.8-1.1.3-1.8.3-1.7-.2-2.3-.5-1.2-.8-1.6-1.4-.6-1.3-.6-2.1.1-1.3.4-1.9.7-1,1.2-1.4c.5-.4,1.2-.7,1.9-.9.8-.2,1.7-.3,2.7-.3h2.2ZM735.5,157.3v-6.2c0-.5,0-.9-.2-1.2-.2-.3-.4-.6-.7-.8-.3-.2-.7-.3-1.2-.3s-.8,0-1.2.2-.6.4-.8.6c-.2.3-.3.6-.3.9h-3.3c0-.6.1-1.1.4-1.6s.6-1,1.1-1.3c.5-.4,1.1-.7,1.8-.9s1.5-.3,2.3-.3,1.9.2,2.7.5c.8.3,1.4.9,1.9,1.6.5.7.7,1.6.7,2.6v5.9c0,.7,0,1.2.1,1.7,0,.5.2.9.4,1.2v.2h-3.3c-.2-.3-.3-.8-.4-1.3s-.1-1-.1-1.6Z"/>
          <path d="M745.2,141v19.1h-3.3v-19.1h3.3Z"/>
          <path d="M754.1,153.5v-.3c0-1,.1-1.9.4-2.7s.7-1.6,1.2-2.2c.5-.6,1.2-1.1,2-1.4.8-.3,1.7-.5,2.7-.5s1.9.2,2.7.5c.8.3,1.4.8,2,1.4.5.6,1,1.3,1.2,2.2s.4,1.7.4,2.7v.3c0,1-.1,1.9-.4,2.7s-.7,1.6-1.2,2.2c-.5.6-1.2,1.1-2,1.4-.8.3-1.7.5-2.7.5s-1.9-.2-2.7-.5c-.8-.3-1.5-.8-2-1.4-.5-.6-1-1.3-1.2-2.2s-.4-1.7-.4-2.7ZM757.4,153.3v.3c0,.6,0,1.1.2,1.7.1.5.3,1,.5,1.4.2.4.6.7.9.9.4.2.8.3,1.4.3s1-.1,1.4-.3c.4-.2.7-.5.9-.9.2-.4.4-.8.5-1.4.1-.5.2-1.1.2-1.7v-.3c0-.6,0-1.1-.2-1.6-.1-.5-.3-1-.5-1.4-.2-.4-.6-.7-.9-.9-.4-.2-.8-.3-1.4-.3s-1,.1-1.4.3c-.4.2-.7.5-.9.9-.2.4-.4.8-.5,1.4-.1.5-.2,1.1-.2,1.6Z"/>
          <path d="M772.4,149.4v10.7h-3.3v-13.5h3.1l.2,2.8ZM776.5,146.6v3.1c-.2,0-.4,0-.7,0s-.4,0-.6,0c-.5,0-1,0-1.3.2-.4.1-.7.3-1,.6-.3.3-.4.6-.6.9-.1.4-.2.8-.2,1.3h-.7c0-.9,0-1.7.3-2.5.2-.7.4-1.4.8-1.9s.7-1,1.3-1.3c.5-.3,1.1-.5,1.7-.5s.4,0,.6,0c.2,0,.4,0,.5.1Z"/>
          <path d="M792.5,151.9v2s-2.1,0-2.1,0c-.5,0-1,0-1.4.2-.4.1-.7.3-1,.4-.2.2-.4.4-.6.7-.1.3-.2.6-.2.9s0,.6.2.9c.2.3.4.5.7.6.3.2.6.2,1,.2.6,0,1.1-.1,1.5-.4.4-.2.8-.5,1-.9s.4-.7.4-1l.9,1.4c-.1.3-.3.7-.5,1.1s-.5.7-.9,1.1-.8.6-1.3.8-1.1.3-1.8.3-1.7-.2-2.3-.5-1.2-.8-1.6-1.4-.6-1.3-.6-2.1.1-1.3.4-1.9.7-1,1.2-1.4c.5-.4,1.2-.7,1.9-.9.8-.2,1.7-.3,2.7-.3h2.2ZM792.1,157.3v-6.2c0-.5,0-.9-.2-1.2-.2-.3-.4-.6-.7-.8-.3-.2-.7-.3-1.2-.3s-.8,0-1.2.2-.6.4-.8.6c-.2.3-.3.6-.3.9h-3.3c0-.6.1-1.1.4-1.6s.6-1,1.1-1.3c.5-.4,1.1-.7,1.8-.9s1.5-.3,2.3-.3,1.9.2,2.7.5c.8.3,1.4.9,1.9,1.6.5.7.7,1.6.7,2.6v5.9c0,.7,0,1.2.1,1.7,0,.5.2.9.4,1.2v.2h-3.3c-.2-.3-.3-.8-.4-1.3s-.1-1-.1-1.6Z"/>
          <path d="M801.6,149.6v10.6h-3.3v-13.5h3.1l.2,2.9ZM801.1,152.9h-1c0-1,.1-1.9.4-2.7.3-.8.6-1.5,1.1-2.1s1-1,1.7-1.3c.6-.3,1.4-.5,2.2-.5s1.2,0,1.8.3c.5.2,1,.5,1.4.9s.7.9.9,1.6c.2.6.3,1.4.3,2.4v8.6h-3.3v-8.7c0-.6,0-1.1-.3-1.5s-.4-.6-.8-.8c-.3-.1-.7-.2-1.2-.2s-.9.1-1.3.3-.7.5-.9.8c-.3.4-.4.8-.6,1.2-.1.5-.2,1-.2,1.5Z"/>
          <path d="M814.8,146.7l3.1,9.9.5,3.5-2.3.4-4.9-13.8h3.5ZM816.6,158.7l3.6-12h3.5l-5.4,15.5c-.1.3-.3.7-.5,1.1s-.5.8-.8,1.1c-.3.4-.7.6-1.2.9-.5.2-1.1.3-1.8.3s-.6,0-.8,0c-.2,0-.5,0-.7-.2v-2.5c0,0,.2,0,.3,0,.1,0,.2,0,.3,0,.5,0,.9,0,1.2-.2.3-.1.6-.3.8-.5.2-.2.4-.6.5-1l1-2.6Z"/>
          <path d="M831,153.5v-.3c0-1,.1-1.9.4-2.7s.7-1.6,1.2-2.2c.5-.6,1.2-1.1,2-1.4.8-.3,1.7-.5,2.7-.5s1.9.2,2.7.5c.8.3,1.4.8,2,1.4.5.6,1,1.3,1.2,2.2s.4,1.7.4,2.7v.3c0,1-.1,1.9-.4,2.7s-.7,1.6-1.2,2.2c-.5.6-1.2,1.1-2,1.4-.8.3-1.7.5-2.7.5s-1.9-.2-2.7-.5c-.8-.3-1.5-.8-2-1.4-.5-.6-1-1.3-1.2-2.2s-.4-1.7-.4-2.7ZM834.3,153.3v.3c0,.6,0,1.1.2,1.7.1.5.3,1,.5,1.4.2.4.6.7.9.9.4.2.8.3,1.4.3s1-.1,1.4-.3c.4-.2.7-.5.9-.9.2-.4.4-.8.5-1.4.1-.5.2-1.1.2-1.7v-.3c0-.6,0-1.1-.2-1.6-.1-.5-.3-1-.5-1.4-.2-.4-.6-.7-.9-.9-.4-.2-.8-.3-1.4-.3s-1,.1-1.4.3c-.4.2-.7.5-.9.9-.2.4-.4.8-.5,1.4-.1.5-.2,1.1-.2,1.6Z"/>
          <path d="M852.4,146.7v2.4h-7.7v-2.4h7.7ZM846.8,143.4h3.3v12.9c0,.4,0,.7.2.9.1.2.3.4.5.4s.5.1.8.1.4,0,.6,0,.3,0,.5,0v2.5c-.3,0-.6.2-.9.2-.3,0-.7,0-1.2,0-.7,0-1.4-.1-1.9-.4-.6-.3-1-.7-1.3-1.2-.3-.6-.5-1.3-.5-2.3v-13.2Z"/>
          <path d="M857.8,141v19.1h-3.3v-19.1h3.3ZM857.3,152.9h-1c0-.9.1-1.8.4-2.6.2-.8.6-1.5,1.1-2.1.5-.6,1-1,1.6-1.4.6-.3,1.3-.5,2.1-.5s1.3,0,1.8.3c.5.2,1,.5,1.4.9.4.4.7.9.9,1.6.2.7.3,1.4.3,2.4v8.6h-3.3v-8.6c0-.6,0-1.1-.3-1.5-.2-.4-.4-.6-.8-.8-.3-.2-.8-.2-1.2-.2s-1,.1-1.4.3-.7.5-.9.8c-.2.4-.4.8-.5,1.2-.1.5-.2,1-.2,1.5Z"/>
          <path d="M874.9,160.4c-1,0-1.9-.2-2.8-.5s-1.5-.8-2.1-1.4c-.6-.6-1-1.3-1.3-2.1-.3-.8-.5-1.6-.5-2.6v-.5c0-1,.1-2,.4-2.8s.7-1.6,1.3-2.2c.5-.6,1.2-1.1,2-1.4s1.6-.5,2.5-.5,1.8.2,2.5.5c.7.3,1.3.8,1.8,1.4.5.6.9,1.3,1.1,2.1.2.8.4,1.7.4,2.7v1.4h-10.6v-2.3h7.3v-.2c0-.5-.1-1-.3-1.4-.2-.4-.5-.8-.8-1-.4-.3-.9-.4-1.5-.4s-.9.1-1.3.3c-.4.2-.7.5-.9.9-.2.4-.4.8-.5,1.4s-.2,1.1-.2,1.8v.5c0,.6,0,1.1.2,1.6.2.5.4.9.7,1.3.3.4.7.6,1.1.8.4.2.9.3,1.5.3s1.3-.1,1.9-.4c.6-.3,1-.7,1.5-1.2l1.7,1.7c-.3.4-.7.8-1.1,1.2-.5.4-1.1.7-1.7.9-.7.2-1.4.4-2.3.4Z"/>
          <path d="M885.9,149.4v10.7h-3.3v-13.5h3.1l.2,2.8ZM890,146.6v3.1c-.2,0-.4,0-.7,0s-.4,0-.6,0c-.5,0-1,0-1.3.2-.4.1-.7.3-1,.6-.3.3-.4.6-.6.9-.1.4-.2.8-.2,1.3h-.7c0-.9,0-1.7.3-2.5.2-.7.4-1.4.8-1.9s.7-1,1.3-1.3c.5-.3,1.1-.5,1.7-.5s.4,0,.6,0c.2,0,.4,0,.5.1Z"/>
          <path d="M897.5,153.5v-.3c0-1,.1-1.9.4-2.7s.7-1.6,1.2-2.2c.5-.6,1.2-1.1,2-1.4.8-.3,1.7-.5,2.7-.5s1.9.2,2.7.5c.8.3,1.4.8,2,1.4.5.6,1,1.3,1.2,2.2s.4,1.7.4,2.7v.3c0,1-.1,1.9-.4,2.7s-.7,1.6-1.2,2.2c-.5.6-1.2,1.1-2,1.4-.8.3-1.7.5-2.7.5s-1.9-.2-2.7-.5c-.8-.3-1.5-.8-2-1.4-.5-.6-1-1.3-1.2-2.2s-.4-1.7-.4-2.7ZM900.8,153.3v.3c0,.6,0,1.1.2,1.7.1.5.3,1,.5,1.4.2.4.6.7.9.9.4.2.8.3,1.4.3s1-.1,1.4-.3c.4-.2.7-.5.9-.9.2-.4.4-.8.5-1.4.1-.5.2-1.1.2-1.7v-.3c0-.6,0-1.1-.2-1.6-.1-.5-.3-1-.5-1.4-.2-.4-.6-.7-.9-.9-.4-.2-.8-.3-1.4-.3s-1,.1-1.4.3c-.4.2-.7.5-.9.9-.2.4-.4.8-.5,1.4-.1.5-.2,1.1-.2,1.6Z"/>
          <path d="M915.8,149.6v10.6h-3.3v-13.5h3.1l.2,2.9ZM915.2,152.9h-1c0-1,.1-1.9.4-2.7.3-.8.6-1.5,1.1-2.1s1-1,1.7-1.3c.6-.3,1.4-.5,2.2-.5s1.2,0,1.8.3c.5.2,1,.5,1.4.9s.7.9.9,1.6c.2.6.3,1.4.3,2.4v8.6h-3.3v-8.7c0-.6,0-1.1-.3-1.5s-.4-.6-.8-.8c-.3-.1-.7-.2-1.2-.2s-.9.1-1.3.3-.7.5-.9.8c-.3.4-.4.8-.6,1.2-.1.5-.2,1-.2,1.5Z"/>
          <path d="M930.3,141v19.1h-3.3v-19.1h3.3Z"/>
          <path d="M933.4,143.1c0-.5.2-.9.5-1.2s.8-.5,1.4-.5,1,.2,1.4.5c.3.3.5.7.5,1.2s-.2.9-.5,1.2c-.3.3-.8.5-1.4.5s-1-.2-1.4-.5c-.3-.3-.5-.7-.5-1.2ZM936.9,146.7v13.5h-3.3v-13.5h3.3Z"/>
          <path d="M943.3,149.6v10.6h-3.3v-13.5h3.1l.2,2.9ZM942.7,152.9h-1c0-1,.1-1.9.4-2.7.3-.8.6-1.5,1.1-2.1s1-1,1.7-1.3c.6-.3,1.4-.5,2.2-.5s1.2,0,1.8.3c.5.2,1,.5,1.4.9s.7.9.9,1.6c.2.6.3,1.4.3,2.4v8.6h-3.3v-8.7c0-.6,0-1.1-.3-1.5s-.4-.6-.8-.8c-.3-.1-.7-.2-1.2-.2s-.9.1-1.3.3-.7.5-.9.8c-.3.4-.4.8-.6,1.2-.1.5-.2,1-.2,1.5Z"/>
          <path d="M960.3,160.4c-1,0-1.9-.2-2.8-.5s-1.5-.8-2.1-1.4c-.6-.6-1-1.3-1.3-2.1-.3-.8-.5-1.6-.5-2.6v-.5c0-1,.1-2,.4-2.8s.7-1.6,1.3-2.2c.5-.6,1.2-1.1,2-1.4s1.6-.5,2.5-.5,1.8.2,2.5.5c.7.3,1.3.8,1.8,1.4.5.6.9,1.3,1.1,2.1.2.8.4,1.7.4,2.7v1.4h-10.6v-2.3h7.3v-.2c0-.5-.1-1-.3-1.4-.2-.4-.5-.8-.8-1-.4-.3-.9-.4-1.5-.4s-.9.1-1.3.3c-.4.2-.7.5-.9.9-.2.4-.4.8-.5,1.4s-.2,1.1-.2,1.8v.5c0,.6,0,1.1.2,1.6.2.5.4.9.7,1.3.3.4.7.6,1.1.8.4.2.9.3,1.5.3s1.3-.1,1.9-.4c.6-.3,1-.7,1.5-1.2l1.7,1.7c-.3.4-.7.8-1.1,1.2-.5.4-1.1.7-1.7.9-.7.2-1.4.4-2.3.4Z"/>
        </g>
      </g>
      <g class="st1">
        <g class="st1">
          <path d="M202.8,187c0-.3,0-.5-.2-.8-.1-.2-.4-.4-.8-.6-.4-.2-1-.4-1.8-.5-.7-.1-1.3-.3-1.9-.6-.6-.2-1.1-.5-1.5-.8-.4-.3-.8-.7-1-1.1-.2-.4-.4-.9-.4-1.5s.1-1.1.4-1.6c.2-.5.6-.9,1-1.3s1-.7,1.7-.9c.7-.2,1.4-.3,2.2-.3s2.1.2,3,.6c.8.4,1.5.9,1.9,1.5.4.7.7,1.4.7,2.2h-3.3c0-.4,0-.7-.2-1-.2-.3-.4-.5-.7-.7-.3-.2-.8-.3-1.3-.3s-.8,0-1.2.2c-.3.1-.5.3-.7.6s-.2.5-.2.8,0,.4.1.6c0,.2.2.3.4.5s.5.3.8.4c.3.1.8.2,1.3.3,1,.2,1.9.5,2.6.8s1.3.8,1.8,1.3c.4.5.6,1.2.6,2.1s-.1,1.1-.4,1.6c-.3.5-.6.9-1.1,1.3-.5.4-1.1.6-1.8.9-.7.2-1.4.3-2.3.3-1.2,0-2.3-.2-3.1-.7-.9-.4-1.5-1-1.9-1.7s-.7-1.4-.7-2.1h3.2c0,.5.2.9.4,1.3.3.3.6.5,1,.7.4.1.8.2,1.3.2s.9,0,1.3-.2c.3-.1.6-.3.8-.6.2-.2.3-.5.3-.8Z"/>
          <path d="M214.6,191c-1,0-1.9-.2-2.8-.5s-1.5-.8-2.1-1.4c-.6-.6-1-1.3-1.3-2.1s-.5-1.6-.5-2.6v-.5c0-1,.1-2,.4-2.8s.7-1.6,1.3-2.2c.5-.6,1.2-1.1,2-1.4s1.6-.5,2.5-.5,1.8.2,2.5.5c.7.3,1.3.8,1.8,1.4.5.6.9,1.3,1.1,2.1s.4,1.7.4,2.7v1.4h-10.6v-2.3h7.3v-.2c0-.5-.1-1-.3-1.4-.2-.4-.5-.8-.8-1-.4-.3-.9-.4-1.5-.4s-.9.1-1.3.3c-.4.2-.7.5-.9.9-.2.4-.4.8-.5,1.4s-.2,1.1-.2,1.8v.5c0,.6,0,1.1.2,1.6.2.5.4.9.7,1.3.3.4.7.6,1.1.8.4.2.9.3,1.5.3s1.3-.1,1.9-.4c.6-.3,1-.7,1.5-1.2l1.7,1.7c-.3.4-.7.8-1.1,1.2s-1.1.7-1.7.9c-.7.2-1.4.4-2.3.4Z"/>
          <path d="M225.6,180v10.7h-3.3v-13.5h3.1l.2,2.8ZM229.6,177.2v3.1c-.2,0-.4,0-.7,0-.2,0-.4,0-.6,0-.5,0-1,0-1.3.2-.4.1-.7.3-1,.6-.3.3-.4.6-.6.9-.1.4-.2.8-.2,1.3h-.7c0-.9,0-1.7.3-2.5s.4-1.4.8-1.9.7-1,1.3-1.3c.5-.3,1.1-.5,1.7-.5s.4,0,.6,0c.2,0,.4,0,.5.1Z"/>
          <path d="M233.8,177.2l3.2,11v2.5c.1,0-2,0-2,0l-4.6-13.5h3.4ZM236.1,188.2l3.1-11h3.4l-4.6,13.5h-2.1v-2.5Z"/>
          <path d="M244.4,173.7c0-.5.2-.9.5-1.2.3-.3.8-.5,1.4-.5s1,.2,1.4.5c.3.3.5.7.5,1.2s-.2.9-.5,1.2c-.3.3-.8.5-1.4.5s-1-.2-1.4-.5c-.3-.3-.5-.7-.5-1.2ZM247.9,177.2v13.5h-3.3v-13.5h3.3Z"/>
          <path d="M256.6,188.4c.5,0,.9,0,1.2-.3s.7-.4.9-.8c.2-.3.3-.7.4-1.2h3.1c0,.9-.3,1.7-.8,2.5s-1.2,1.3-2,1.7c-.8.4-1.8.6-2.8.6s-1.9-.2-2.7-.5c-.8-.3-1.4-.8-1.9-1.5-.5-.6-.9-1.3-1.1-2.2-.3-.8-.4-1.7-.4-2.6v-.4c0-.9.1-1.8.4-2.6s.6-1.5,1.1-2.2,1.2-1.1,1.9-1.5c.8-.3,1.7-.5,2.7-.5s2,.2,2.9.6c.8.4,1.5,1,1.9,1.8.5.8.7,1.7.7,2.7h-3.1c0-.5-.1-.9-.3-1.3-.2-.4-.5-.7-.8-.9-.4-.2-.8-.3-1.3-.3s-1,.1-1.4.3c-.4.2-.7.6-.9,1-.2.4-.3.9-.4,1.3,0,.5-.1,1-.1,1.6v.4c0,.5,0,1.1.1,1.6,0,.5.2.9.4,1.3.2.4.5.7.9.9.4.2.8.3,1.4.3Z"/>
          <path d="M270.4,191c-1,0-1.9-.2-2.8-.5s-1.5-.8-2.1-1.4c-.6-.6-1-1.3-1.3-2.1s-.5-1.6-.5-2.6v-.5c0-1,.1-2,.4-2.8s.7-1.6,1.3-2.2c.5-.6,1.2-1.1,2-1.4s1.6-.5,2.5-.5,1.8.2,2.5.5c.7.3,1.3.8,1.8,1.4.5.6.9,1.3,1.1,2.1s.4,1.7.4,2.7v1.4h-10.6v-2.3h7.3v-.2c0-.5-.1-1-.3-1.4-.2-.4-.5-.8-.8-1-.4-.3-.9-.4-1.5-.4s-.9.1-1.3.3c-.4.2-.7.5-.9.9-.2.4-.4.8-.5,1.4s-.2,1.1-.2,1.8v.5c0,.6,0,1.1.2,1.6.2.5.4.9.7,1.3.3.4.7.6,1.1.8.4.2.9.3,1.5.3s1.3-.1,1.9-.4c.6-.3,1-.7,1.5-1.2l1.7,1.7c-.3.4-.7.8-1.1,1.2s-1.1.7-1.7.9c-.7.2-1.4.4-2.3.4Z"/>
          <path d="M278.2,189.1c0-.5.2-.9.5-1.3.3-.3.8-.5,1.4-.5s1,.2,1.4.5c.3.3.5.8.5,1.3s-.2.9-.5,1.2c-.3.3-.8.5-1.4.5s-1-.2-1.4-.5c-.3-.3-.5-.7-.5-1.2Z"/>
          <path d="M298.9,182.6h-4.6v-2.4s3.9,0,3.9,0c.7,0,1.2,0,1.7-.3s.8-.5,1-.8c.2-.4.4-.8.4-1.3s-.1-1.1-.3-1.4c-.2-.4-.6-.6-1-.8-.5-.2-1.1-.3-1.8-.3h-2.8v15.4h-3.4v-18.1h6.2c1,0,1.9,0,2.8.3.8.2,1.5.5,2.1.9.6.4,1,.9,1.3,1.5.3.6.4,1.3.4,2.2s-.2,1.4-.5,2.1c-.3.6-.9,1.1-1.6,1.5s-1.6.6-2.7.7l-1,.9ZM298.7,190.7h-5.5l1.4-2.7h4.1c.7,0,1.2-.1,1.7-.3.4-.2.8-.5,1-.9.2-.4.3-.8.3-1.4s0-1.1-.3-1.5c-.2-.4-.5-.7-.9-1s-1-.3-1.6-.3h-3.6v-2.4h4.6l.8.9c1,0,1.9.2,2.6.6.7.4,1.1.9,1.5,1.6.3.6.5,1.3.5,2.1,0,1.2-.3,2.1-.8,2.9-.5.8-1.2,1.4-2.2,1.8s-2.1.6-3.5.6Z"/>
          <path d="M316.3,184.7h1c0,.9,0,1.7-.3,2.5-.2.8-.5,1.4-.9,2-.4.6-.9,1-1.6,1.3-.6.3-1.4.5-2.3.5s-1.3,0-1.8-.3c-.5-.2-1-.5-1.4-.9-.4-.4-.7-.9-.9-1.6-.2-.6-.3-1.4-.3-2.3v-8.7h3.3v8.7c0,.4,0,.8.2,1.1.1.3.2.5.4.7s.4.3.7.4c.3,0,.5.1.8.1.8,0,1.4-.2,1.9-.5.5-.3.8-.8,1-1.3s.3-1.2.3-1.8ZM315.9,187.5v-10.3h3.3v13.5h-3.1l-.2-3.2Z"/>
          <path d="M328.5,177.2v2.4h-7.7v-2.4h7.7ZM322.8,173.9h3.3v12.9c0,.4,0,.7.2.9s.3.4.5.4.5.1.8.1.4,0,.6,0c.2,0,.3,0,.5,0v2.5c-.3,0-.6.2-.9.2-.3,0-.7,0-1.2,0-.7,0-1.4-.1-1.9-.4-.6-.3-1-.7-1.3-1.2-.3-.6-.5-1.3-.5-2.3v-13.2Z"/>
          <path d="M343.4,177.2v2.4h-7.7v-2.4h7.7ZM337.7,173.9h3.3v12.9c0,.4,0,.7.2.9s.3.4.5.4.5.1.8.1.4,0,.6,0c.2,0,.3,0,.5,0v2.5c-.3,0-.6.2-.9.2-.3,0-.7,0-1.2,0-.7,0-1.4-.1-1.9-.4-.6-.3-1-.7-1.3-1.2-.3-.6-.5-1.3-.5-2.3v-13.2Z"/>
          <path d="M348.8,171.6v19.1h-3.3v-19.1h3.3ZM348.3,183.5h-1c0-.9.1-1.8.4-2.6.2-.8.6-1.5,1.1-2.1.5-.6,1-1,1.6-1.4.6-.3,1.3-.5,2.1-.5s1.3,0,1.8.3c.5.2,1,.5,1.4.9.4.4.7.9.9,1.6.2.7.3,1.4.3,2.4v8.6h-3.3v-8.6c0-.6,0-1.1-.3-1.5-.2-.4-.4-.6-.8-.8-.3-.2-.7-.2-1.2-.2s-1,.1-1.4.3c-.4.2-.7.5-.9.8-.2.4-.4.8-.5,1.2-.1.5-.2,1-.2,1.5Z"/>
          <path d="M365.9,191c-1,0-1.9-.2-2.8-.5s-1.5-.8-2.1-1.4c-.6-.6-1-1.3-1.3-2.1s-.5-1.6-.5-2.6v-.5c0-1,.1-2,.4-2.8s.7-1.6,1.3-2.2c.5-.6,1.2-1.1,2-1.4s1.6-.5,2.5-.5,1.8.2,2.5.5c.7.3,1.3.8,1.8,1.4.5.6.9,1.3,1.1,2.1s.4,1.7.4,2.7v1.4h-10.6v-2.3h7.3v-.2c0-.5-.1-1-.3-1.4-.2-.4-.5-.8-.8-1-.4-.3-.9-.4-1.5-.4s-.9.1-1.3.3c-.4.2-.7.5-.9.9-.2.4-.4.8-.5,1.4s-.2,1.1-.2,1.8v.5c0,.6,0,1.1.2,1.6.2.5.4.9.7,1.3.3.4.7.6,1.1.8.4.2.9.3,1.5.3s1.3-.1,1.9-.4c.6-.3,1-.7,1.5-1.2l1.7,1.7c-.3.4-.7.8-1.1,1.2s-1.1.7-1.7.9c-.7.2-1.4.4-2.3.4Z"/>
          <path d="M375.5,177.2l3.1,9.9.5,3.5-2.3.4-4.9-13.8h3.5ZM377.3,189.2l3.6-12h3.5l-5.4,15.5c-.1.3-.3.7-.5,1.1-.2.4-.5.8-.8,1.1-.3.4-.7.6-1.2.9-.5.2-1.1.3-1.8.3s-.6,0-.8,0c-.2,0-.5,0-.7-.2v-2.5c0,0,.2,0,.3,0,.1,0,.2,0,.3,0,.5,0,.9,0,1.2-.2.3-.1.6-.3.8-.5.2-.2.4-.6.5-1l1-2.6Z"/>
          <path d="M400.3,182.5v2s-2.1,0-2.1,0c-.5,0-1,0-1.4.2-.4.1-.7.3-1,.4-.2.2-.4.4-.6.7-.1.3-.2.6-.2.9s0,.6.2.9c.2.3.4.5.7.6.3.2.6.2,1,.2.6,0,1.1-.1,1.5-.4.4-.2.8-.5,1-.9s.4-.7.4-1l.9,1.4c-.1.3-.3.7-.5,1.1s-.5.7-.9,1.1c-.4.3-.8.6-1.3.8-.5.2-1.1.3-1.8.3s-1.7-.2-2.3-.5c-.7-.3-1.2-.8-1.6-1.4s-.6-1.3-.6-2.1.1-1.3.4-1.9c.3-.5.7-1,1.2-1.4.5-.4,1.2-.7,1.9-.9.8-.2,1.7-.3,2.7-.3h2.2ZM399.8,187.9v-6.2c0-.5,0-.9-.2-1.2s-.4-.6-.7-.8-.7-.3-1.2-.3-.8,0-1.2.2-.6.4-.8.6-.3.6-.3.9h-3.3c0-.6.1-1.1.4-1.6.3-.5.6-1,1.1-1.3.5-.4,1.1-.7,1.8-.9.7-.2,1.5-.3,2.3-.3s1.9.2,2.7.5c.8.3,1.4.9,1.9,1.6.5.7.7,1.6.7,2.6v5.9c0,.7,0,1.2.1,1.7,0,.5.2.9.4,1.2v.2h-3.4c-.2-.3-.3-.8-.4-1.3s-.1-1-.1-1.6Z"/>
          <path d="M409.4,180v10.7h-3.3v-13.5h3.1l.2,2.8ZM413.5,177.2v3.1c-.2,0-.4,0-.7,0-.2,0-.4,0-.6,0-.5,0-1,0-1.3.2-.4.1-.7.3-1,.6-.3.3-.4.6-.6.9-.1.4-.2.8-.2,1.3h-.7c0-.9,0-1.7.3-2.5s.4-1.4.8-1.9.7-1,1.3-1.3c.5-.3,1.1-.5,1.7-.5s.4,0,.6,0c.2,0,.4,0,.5.1Z"/>
          <path d="M421.1,191c-1,0-1.9-.2-2.8-.5s-1.5-.8-2.1-1.4c-.6-.6-1-1.3-1.3-2.1s-.5-1.6-.5-2.6v-.5c0-1,.1-2,.4-2.8s.7-1.6,1.3-2.2c.5-.6,1.2-1.1,2-1.4s1.6-.5,2.5-.5,1.8.2,2.5.5c.7.3,1.3.8,1.8,1.4.5.6.9,1.3,1.1,2.1s.4,1.7.4,2.7v1.4h-10.6v-2.3h7.3v-.2c0-.5-.1-1-.3-1.4-.2-.4-.5-.8-.8-1-.4-.3-.9-.4-1.5-.4s-.9.1-1.3.3c-.4.2-.7.5-.9.9-.2.4-.4.8-.5,1.4s-.2,1.1-.2,1.8v.5c0,.6,0,1.1.2,1.6.2.5.4.9.7,1.3.3.4.7.6,1.1.8.4.2.9.3,1.5.3s1.3-.1,1.9-.4c.6-.3,1-.7,1.5-1.2l1.7,1.7c-.3.4-.7.8-1.1,1.2s-1.1.7-1.7.9c-.7.2-1.4.4-2.3.4Z"/>
          <path d="M434.5,184.1v-.3c0-1,.1-1.9.4-2.7.3-.8.7-1.6,1.2-2.2.5-.6,1.2-1.1,2-1.4.8-.3,1.7-.5,2.7-.5s1.9.2,2.7.5c.8.3,1.4.8,2,1.4.5.6,1,1.3,1.2,2.2.3.8.4,1.7.4,2.7v.3c0,1-.1,1.9-.4,2.7-.3.8-.7,1.6-1.2,2.2-.5.6-1.2,1.1-2,1.4s-1.7.5-2.7.5-1.9-.2-2.7-.5c-.8-.3-1.5-.8-2-1.4-.5-.6-1-1.3-1.2-2.2-.3-.8-.4-1.7-.4-2.7ZM437.8,183.9v.3c0,.6,0,1.1.2,1.7.1.5.3,1,.5,1.4.2.4.6.7.9.9.4.2.8.3,1.4.3s1-.1,1.4-.3c.4-.2.7-.5.9-.9.2-.4.4-.8.5-1.4.1-.5.2-1.1.2-1.7v-.3c0-.6,0-1.1-.2-1.6-.1-.5-.3-1-.5-1.4-.2-.4-.6-.7-.9-.9-.4-.2-.8-.3-1.4-.3s-1,.1-1.4.3c-.4.2-.7.5-.9.9-.2.4-.4.8-.5,1.4-.1.5-.2,1.1-.2,1.6Z"/>
          <path d="M452.7,180.1v10.6h-3.3v-13.5h3.1l.2,2.9ZM452.2,183.5h-1c0-1,.1-1.9.4-2.7.3-.8.6-1.5,1.1-2.1.5-.6,1-1,1.7-1.3.6-.3,1.4-.5,2.2-.5s1.2,0,1.8.3c.5.2,1,.5,1.4.9.4.4.7.9.9,1.6.2.6.3,1.4.3,2.4v8.6h-3.3v-8.7c0-.6,0-1.1-.3-1.5s-.4-.6-.8-.8c-.3-.1-.7-.2-1.2-.2s-.9.1-1.3.3c-.4.2-.7.5-.9.8-.3.4-.4.8-.6,1.2-.1.5-.2,1-.2,1.5Z"/>
          <path d="M476.5,177.2v2.4h-7.7v-2.4h7.7ZM470.8,173.9h3.3v12.9c0,.4,0,.7.2.9s.3.4.5.4.5.1.8.1.4,0,.6,0c.2,0,.3,0,.5,0v2.5c-.3,0-.6.2-.9.2-.3,0-.7,0-1.2,0-.7,0-1.4-.1-1.9-.4-.6-.3-1-.7-1.3-1.2-.3-.6-.5-1.3-.5-2.3v-13.2Z"/>
          <path d="M481.9,171.6v19.1h-3.3v-19.1h3.3ZM481.4,183.5h-1c0-.9.1-1.8.4-2.6.2-.8.6-1.5,1.1-2.1.5-.6,1-1,1.6-1.4.6-.3,1.3-.5,2.1-.5s1.3,0,1.8.3c.5.2,1,.5,1.4.9.4.4.7.9.9,1.6.2.7.3,1.4.3,2.4v8.6h-3.3v-8.6c0-.6,0-1.1-.3-1.5-.2-.4-.4-.6-.8-.8-.3-.2-.7-.2-1.2-.2s-1,.1-1.4.3c-.4.2-.7.5-.9.8-.2.4-.4.8-.5,1.2-.1.5-.2,1-.2,1.5Z"/>
          <path d="M499,191c-1,0-1.9-.2-2.8-.5s-1.5-.8-2.1-1.4c-.6-.6-1-1.3-1.3-2.1s-.5-1.6-.5-2.6v-.5c0-1,.1-2,.4-2.8s.7-1.6,1.3-2.2c.5-.6,1.2-1.1,2-1.4s1.6-.5,2.5-.5,1.8.2,2.5.5c.7.3,1.3.8,1.8,1.4.5.6.9,1.3,1.1,2.1s.4,1.7.4,2.7v1.4h-10.6v-2.3h7.3v-.2c0-.5-.1-1-.3-1.4-.2-.4-.5-.8-.8-1-.4-.3-.9-.4-1.5-.4s-.9.1-1.3.3c-.4.2-.7.5-.9.9-.2.4-.4.8-.5,1.4s-.2,1.1-.2,1.8v.5c0,.6,0,1.1.2,1.6.2.5.4.9.7,1.3.3.4.7.6,1.1.8.4.2.9.3,1.5.3s1.3-.1,1.9-.4c.6-.3,1-.7,1.5-1.2l1.7,1.7c-.3.4-.7.8-1.1,1.2s-1.1.7-1.7.9c-.7.2-1.4.4-2.3.4Z"/>
          <path d="M521.4,184.7h1c0,.9,0,1.7-.3,2.5-.2.8-.5,1.4-.9,2-.4.6-.9,1-1.6,1.3-.6.3-1.4.5-2.3.5s-1.3,0-1.8-.3c-.5-.2-1-.5-1.4-.9-.4-.4-.7-.9-.9-1.6-.2-.6-.3-1.4-.3-2.3v-8.7h3.3v8.7c0,.4,0,.8.2,1.1.1.3.2.5.4.7s.4.3.7.4c.3,0,.5.1.8.1.8,0,1.4-.2,1.9-.5.5-.3.8-.8,1-1.3s.3-1.2.3-1.8ZM521,187.5v-10.3h3.3v13.5h-3.1l-.2-3.2Z"/>
          <path d="M530.5,179.8v16.1h-3.3v-18.7h3.1l.2,2.6ZM539.2,183.8v.3c0,1-.1,1.9-.3,2.7-.2.8-.6,1.6-1,2.2-.4.6-1,1.1-1.6,1.4-.7.3-1.4.5-2.2.5s-1.6-.2-2.2-.5c-.6-.3-1.1-.8-1.6-1.4-.4-.6-.8-1.3-1-2.1-.3-.8-.4-1.6-.6-2.6v-.8c.1-1,.3-1.9.6-2.7.3-.8.6-1.5,1-2.1.4-.6.9-1.1,1.6-1.4s1.3-.5,2.1-.5,1.6.2,2.3.5,1.2.8,1.7,1.4c.4.6.8,1.3,1,2.2.2.8.3,1.8.3,2.8ZM535.9,184.1v-.3c0-.6,0-1.2-.2-1.7-.1-.5-.3-1-.5-1.3-.2-.4-.5-.7-.9-.9s-.8-.3-1.3-.3-.9,0-1.3.2-.7.4-.9.7-.4.7-.5,1.1c-.1.4-.2.9-.3,1.4v2.1c0,.6.2,1.2.4,1.7s.5.9,1,1.2c.4.3,1,.4,1.6.4s.9-.1,1.3-.3.6-.5.9-.9c.2-.4.4-.8.5-1.4,0-.5.1-1.1.1-1.6Z"/>
          <path d="M555.8,182.5v2s-2.1,0-2.1,0c-.5,0-1,0-1.4.2-.4.1-.7.3-1,.4-.2.2-.4.4-.6.7-.1.3-.2.6-.2.9s0,.6.2.9c.2.3.4.5.7.6.3.2.6.2,1,.2.6,0,1.1-.1,1.5-.4.4-.2.8-.5,1-.9s.4-.7.4-1l.9,1.4c-.1.3-.3.7-.5,1.1s-.5.7-.9,1.1c-.4.3-.8.6-1.3.8-.5.2-1.1.3-1.8.3s-1.7-.2-2.3-.5c-.7-.3-1.2-.8-1.6-1.4s-.6-1.3-.6-2.1.1-1.3.4-1.9c.3-.5.7-1,1.2-1.4.5-.4,1.2-.7,1.9-.9.8-.2,1.7-.3,2.7-.3h2.2ZM555.3,187.9v-6.2c0-.5,0-.9-.2-1.2s-.4-.6-.7-.8-.7-.3-1.2-.3-.8,0-1.2.2-.6.4-.8.6-.3.6-.3.9h-3.3c0-.6.1-1.1.4-1.6.3-.5.6-1,1.1-1.3.5-.4,1.1-.7,1.8-.9.7-.2,1.5-.3,2.3-.3s1.9.2,2.7.5c.8.3,1.4.9,1.9,1.6.5.7.7,1.6.7,2.6v5.9c0,.7,0,1.2.1,1.7,0,.5.2.9.4,1.2v.2h-3.4c-.2-.3-.3-.8-.4-1.3s-.1-1-.1-1.6Z"/>
          <path d="M564.8,180.1v10.6h-3.3v-13.5h3.1l.2,2.9ZM564.3,183.5h-1c0-1,.1-1.9.4-2.7.3-.8.6-1.5,1.1-2.1.5-.6,1-1,1.7-1.3.6-.3,1.4-.5,2.2-.5s1.2,0,1.8.3c.5.2,1,.5,1.4.9.4.4.7.9.9,1.6.2.6.3,1.4.3,2.4v8.6h-3.3v-8.7c0-.6,0-1.1-.3-1.5s-.4-.6-.8-.8c-.3-.1-.7-.2-1.2-.2s-.9.1-1.3.3c-.4.2-.7.5-.9.8-.3.4-.4.8-.6,1.2-.1.5-.2,1-.2,1.5Z"/>
          <path d="M575.3,184.1v-.3c0-1,.1-2,.4-2.8.2-.8.6-1.6,1-2.2.5-.6,1-1.1,1.7-1.4.7-.3,1.4-.5,2.2-.5s1.5.2,2.1.5,1.1.8,1.5,1.4c.4.6.8,1.3,1,2.1.3.8.4,1.7.6,2.7v.7c-.1,1-.3,1.8-.6,2.6-.3.8-.6,1.5-1,2.1s-.9,1.1-1.6,1.4c-.6.3-1.3.5-2.1.5s-1.6-.2-2.2-.5-1.2-.8-1.7-1.4c-.5-.6-.8-1.3-1-2.2-.2-.8-.4-1.7-.4-2.7ZM578.6,183.9v.3c0,.6,0,1.1.1,1.6,0,.5.3,1,.5,1.3s.5.7.9.9c.4.2.8.3,1.3.3s1.2-.1,1.6-.4c.4-.3.7-.7,1-1.2.2-.5.4-1.1.4-1.7v-2c0-.5-.1-1-.3-1.4-.1-.4-.3-.8-.6-1.1-.2-.3-.5-.5-.9-.7-.4-.2-.8-.3-1.3-.3s-.9.1-1.3.3c-.4.2-.6.5-.9.9-.2.4-.4.8-.5,1.4-.1.5-.2,1.1-.2,1.7ZM583.9,187.9v-16.3h3.3v19.1h-3l-.3-2.9Z"/>
          <path d="M605,184.7h1c0,.9,0,1.7-.3,2.5-.2.8-.5,1.4-.9,2-.4.6-.9,1-1.6,1.3-.6.3-1.4.5-2.3.5s-1.3,0-1.8-.3c-.5-.2-1-.5-1.4-.9-.4-.4-.7-.9-.9-1.6s-.3-1.4-.3-2.3v-8.7h3.3v8.7c0,.4,0,.8.2,1.1.1.3.2.5.4.7.2.2.4.3.7.4.3,0,.5.1.8.1.8,0,1.4-.2,1.9-.5.5-.3.8-.8,1-1.3s.3-1.2.3-1.8ZM604.6,187.5v-10.3h3.3v13.5h-3.1l-.2-3.2Z"/>
          <path d="M614.1,179.8v16.1h-3.3v-18.7h3.1l.2,2.6ZM622.7,183.8v.3c0,1-.1,1.9-.3,2.7-.2.8-.6,1.6-1,2.2-.4.6-1,1.1-1.6,1.4-.7.3-1.4.5-2.2.5s-1.6-.2-2.2-.5c-.6-.3-1.1-.8-1.6-1.4-.4-.6-.8-1.3-1-2.1-.3-.8-.4-1.6-.6-2.6v-.8c.1-1,.3-1.9.6-2.7.3-.8.6-1.5,1-2.1.4-.6.9-1.1,1.6-1.4s1.3-.5,2.1-.5,1.6.2,2.3.5c.7.3,1.2.8,1.6,1.4s.8,1.3,1,2.2c.2.8.3,1.8.3,2.8ZM619.4,184.1v-.3c0-.6,0-1.2-.2-1.7-.1-.5-.3-1-.5-1.3-.2-.4-.5-.7-.9-.9-.4-.2-.8-.3-1.3-.3s-.9,0-1.3.2-.7.4-.9.7-.4.7-.5,1.1c-.1.4-.2.9-.3,1.4v2.1c0,.6.2,1.2.4,1.7s.5.9,1,1.2c.4.3,1,.4,1.6.4s.9-.1,1.3-.3c.4-.2.6-.5.9-.9.2-.4.4-.8.5-1.4,0-.5.1-1.1.1-1.6Z"/>
          <path d="M625.3,189.1c0-.5.2-.9.5-1.3.3-.3.8-.5,1.4-.5s1,.2,1.4.5c.3.3.5.8.5,1.3s-.2.9-.5,1.2c-.3.3-.8.5-1.4.5s-1-.2-1.4-.5c-.3-.3-.5-.7-.5-1.2Z"/>
          <path d="M642.6,172.6v18.1h-3.4v-18.1h3.4Z"/>
          <path d="M654.5,177.2l2.2,10.3.2,3.2h-2.1l-3.5-13.5h3.2ZM656.1,187.5l3-10.2h2.1l-.6,3.5-3,9.9h-1.8l.4-3.2ZM661.5,177.2l2.9,10.1.4,3.3h-1.8l-3-9.9-.6-3.5h2.1ZM663.9,187.4l2.2-10.1h3.2l-3.5,13.5h-2.1l.2-3.4Z"/>
          <path d="M670.6,184.1v-.3c0-1,.1-1.9.4-2.7s.7-1.6,1.2-2.2c.5-.6,1.2-1.1,2-1.4.8-.3,1.7-.5,2.7-.5s1.9.2,2.7.5c.8.3,1.4.8,2,1.4.5.6,1,1.3,1.2,2.2s.4,1.7.4,2.7v.3c0,1-.1,1.9-.4,2.7s-.7,1.6-1.2,2.2c-.5.6-1.2,1.1-2,1.4-.8.3-1.7.5-2.7.5s-1.9-.2-2.7-.5c-.8-.3-1.5-.8-2-1.4-.5-.6-1-1.3-1.2-2.2s-.4-1.7-.4-2.7ZM673.9,183.9v.3c0,.6,0,1.1.2,1.7.1.5.3,1,.5,1.4.2.4.6.7.9.9.4.2.8.3,1.4.3s1-.1,1.4-.3c.4-.2.7-.5.9-.9.2-.4.4-.8.5-1.4.1-.5.2-1.1.2-1.7v-.3c0-.6,0-1.1-.2-1.6-.1-.5-.3-1-.5-1.4-.2-.4-.6-.7-.9-.9-.4-.2-.8-.3-1.4-.3s-1,.1-1.4.3c-.4.2-.7.5-.9.9-.2.4-.4.8-.5,1.4-.1.5-.2,1.1-.2,1.6Z"/>
          <path d="M694.1,184.7h1c0,.9,0,1.7-.3,2.5-.2.8-.5,1.4-.9,2-.4.6-.9,1-1.6,1.3-.6.3-1.4.5-2.3.5s-1.3,0-1.8-.3c-.5-.2-1-.5-1.4-.9-.4-.4-.7-.9-.9-1.6s-.3-1.4-.3-2.3v-8.7h3.3v8.7c0,.4,0,.8.2,1.1.1.3.2.5.4.7.2.2.4.3.7.4.3,0,.5.1.8.1.8,0,1.4-.2,1.9-.5.5-.3.8-.8,1-1.3s.3-1.2.3-1.8ZM693.7,187.5v-10.3h3.3v13.5h-3.1l-.2-3.2Z"/>
          <path d="M703.4,171.6v19.1h-3.3v-19.1h3.3Z"/>
          <path d="M705.9,184.1v-.3c0-1,.1-2,.4-2.8.2-.8.6-1.6,1-2.2.5-.6,1-1.1,1.7-1.4.7-.3,1.4-.5,2.2-.5s1.5.2,2.1.5c.6.3,1.1.8,1.5,1.4.4.6.8,1.3,1,2.1.3.8.4,1.7.6,2.7v.7c-.1,1-.3,1.8-.6,2.6-.3.8-.6,1.5-1,2.1s-.9,1.1-1.6,1.4c-.6.3-1.3.5-2.1.5s-1.6-.2-2.2-.5-1.2-.8-1.7-1.4c-.5-.6-.8-1.3-1-2.2-.2-.8-.4-1.7-.4-2.7ZM709.2,183.9v.3c0,.6,0,1.1.2,1.6,0,.5.3,1,.5,1.3.2.4.5.7.9.9.4.2.8.3,1.3.3s1.2-.1,1.6-.4c.4-.3.7-.7,1-1.2.2-.5.4-1.1.4-1.7v-2c0-.5-.1-1-.3-1.4-.1-.4-.3-.8-.6-1.1s-.5-.5-.9-.7c-.4-.2-.8-.3-1.3-.3s-.9.1-1.3.3c-.4.2-.6.5-.9.9-.2.4-.4.8-.5,1.4-.1.5-.2,1.1-.2,1.7ZM714.6,187.9v-16.3h3.3v19.1h-3l-.3-2.9Z"/>
          <path d="M730.5,180v10.7h-3.3v-13.5h3.1l.2,2.8ZM734.6,177.2v3.1c-.2,0-.4,0-.7,0s-.4,0-.6,0c-.5,0-1,0-1.3.2-.4.1-.7.3-1,.6-.3.3-.4.6-.6.9-.1.4-.2.8-.2,1.3h-.7c0-.9,0-1.7.3-2.5.2-.7.4-1.4.8-1.9s.7-1,1.3-1.3c.5-.3,1.1-.5,1.7-.5s.4,0,.6,0c.2,0,.4,0,.5.1Z"/>
          <path d="M742.2,191c-1,0-1.9-.2-2.8-.5s-1.5-.8-2.1-1.4c-.6-.6-1-1.3-1.3-2.1-.3-.8-.5-1.6-.5-2.6v-.5c0-1,.1-2,.4-2.8s.7-1.6,1.3-2.2c.5-.6,1.2-1.1,2-1.4s1.6-.5,2.5-.5,1.8.2,2.5.5c.7.3,1.3.8,1.8,1.4.5.6.9,1.3,1.1,2.1.2.8.4,1.7.4,2.7v1.4h-10.6v-2.3h7.3v-.2c0-.5-.1-1-.3-1.4-.2-.4-.5-.8-.8-1-.4-.3-.9-.4-1.5-.4s-.9.1-1.3.3c-.4.2-.7.5-.9.9-.2.4-.4.8-.5,1.4s-.2,1.1-.2,1.8v.5c0,.6,0,1.1.2,1.6.2.5.4.9.7,1.3.3.4.7.6,1.1.8.4.2.9.3,1.5.3s1.3-.1,1.9-.4c.6-.3,1-.7,1.5-1.2l1.7,1.7c-.3.4-.7.8-1.1,1.2-.5.4-1.1.7-1.7.9-.7.2-1.4.4-2.3.4Z"/>
          <path d="M755.4,188.4c.5,0,.9,0,1.2-.3s.7-.4.9-.8c.2-.3.3-.7.4-1.2h3.1c0,.9-.3,1.7-.8,2.5-.5.7-1.2,1.3-2,1.7-.8.4-1.7.6-2.8.6s-1.9-.2-2.7-.5c-.8-.3-1.4-.8-1.9-1.5-.5-.6-.9-1.3-1.1-2.2-.3-.8-.4-1.7-.4-2.6v-.4c0-.9.1-1.8.4-2.6s.6-1.5,1.1-2.2c.5-.6,1.2-1.1,1.9-1.5.8-.3,1.7-.5,2.7-.5s2,.2,2.9.6c.8.4,1.5,1,1.9,1.8.5.8.7,1.7.7,2.7h-3.1c0-.5-.1-.9-.3-1.3-.2-.4-.5-.7-.8-.9s-.8-.3-1.3-.3-1,.1-1.4.3c-.4.2-.7.6-.9,1-.2.4-.3.9-.4,1.3s-.1,1-.1,1.6v.4c0,.5,0,1.1.1,1.6s.2.9.4,1.3c.2.4.5.7.9.9.4.2.8.3,1.4.3Z"/>
          <path d="M762.6,184.1v-.3c0-1,.1-1.9.4-2.7s.7-1.6,1.2-2.2c.5-.6,1.2-1.1,2-1.4.8-.3,1.7-.5,2.7-.5s1.9.2,2.7.5c.8.3,1.4.8,2,1.4.5.6,1,1.3,1.2,2.2s.4,1.7.4,2.7v.3c0,1-.1,1.9-.4,2.7s-.7,1.6-1.2,2.2c-.5.6-1.2,1.1-2,1.4-.8.3-1.7.5-2.7.5s-1.9-.2-2.7-.5c-.8-.3-1.5-.8-2-1.4-.5-.6-1-1.3-1.2-2.2s-.4-1.7-.4-2.7ZM765.9,183.9v.3c0,.6,0,1.1.2,1.7.1.5.3,1,.5,1.4.2.4.6.7.9.9.4.2.8.3,1.4.3s1-.1,1.4-.3c.4-.2.7-.5.9-.9.2-.4.4-.8.5-1.4.1-.5.2-1.1.2-1.7v-.3c0-.6,0-1.1-.2-1.6-.1-.5-.3-1-.5-1.4-.2-.4-.6-.7-.9-.9-.4-.2-.8-.3-1.4-.3s-1,.1-1.4.3c-.4.2-.7.5-.9.9-.2.4-.4.8-.5,1.4-.1.5-.2,1.1-.2,1.6Z"/>
          <path d="M780.9,180v10.7h-3.3v-13.5h3.1l.2,2.8ZM780.4,183.5h-1c0-.9.1-1.8.3-2.6.2-.8.6-1.5,1-2.1s1-1,1.7-1.4,1.4-.5,2.3-.5,1.2,0,1.7.3c.5.2.9.5,1.3.8s.7.9.9,1.5.3,1.3.3,2.2v9h-3.3v-8.7c0-.6,0-1.1-.3-1.5-.2-.4-.4-.6-.8-.8-.3-.1-.7-.2-1.2-.2s-1,.1-1.3.3-.7.5-.9.8c-.2.4-.4.8-.5,1.2-.1.5-.2,1-.2,1.5ZM788.6,182.9l-1.4.2c0-.8.1-1.6.3-2.4.2-.7.6-1.4,1-2,.4-.6,1-1,1.6-1.3.7-.3,1.4-.5,2.3-.5s1.3,0,1.8.3c.5.2,1,.5,1.4.9.4.4.7.9.9,1.6.2.6.3,1.4.3,2.3v8.7h-3.3v-8.7c0-.7,0-1.2-.3-1.5s-.4-.6-.8-.7c-.3-.1-.7-.2-1.2-.2s-.9,0-1.2.3c-.3.2-.6.4-.8.7-.2.3-.4.6-.5,1-.1.4-.2.8-.2,1.3Z"/>
          <path d="M803,180v10.7h-3.3v-13.5h3.1l.2,2.8ZM802.6,183.5h-1c0-.9.1-1.8.3-2.6.2-.8.6-1.5,1-2.1s1-1,1.7-1.4,1.4-.5,2.3-.5,1.2,0,1.7.3c.5.2.9.5,1.3.8s.7.9.9,1.5.3,1.3.3,2.2v9h-3.3v-8.7c0-.6,0-1.1-.3-1.5-.2-.4-.4-.6-.8-.8-.3-.1-.7-.2-1.2-.2s-1,.1-1.3.3-.7.5-.9.8c-.2.4-.4.8-.5,1.2-.1.5-.2,1-.2,1.5ZM810.8,182.9l-1.4.2c0-.8.1-1.6.3-2.4.2-.7.6-1.4,1-2,.4-.6,1-1,1.6-1.3.7-.3,1.4-.5,2.3-.5s1.3,0,1.8.3c.5.2,1,.5,1.4.9.4.4.7.9.9,1.6.2.6.3,1.4.3,2.3v8.7h-3.3v-8.7c0-.7,0-1.2-.3-1.5s-.4-.6-.8-.7c-.3-.1-.7-.2-1.2-.2s-.9,0-1.2.3c-.3.2-.6.4-.8.7-.2.3-.4.6-.5,1-.1.4-.2.8-.2,1.3Z"/>
          <path d="M828,191c-1,0-1.9-.2-2.8-.5s-1.5-.8-2.1-1.4c-.6-.6-1-1.3-1.3-2.1-.3-.8-.5-1.6-.5-2.6v-.5c0-1,.1-2,.4-2.8s.7-1.6,1.3-2.2c.5-.6,1.2-1.1,2-1.4s1.6-.5,2.5-.5,1.8.2,2.5.5c.7.3,1.3.8,1.8,1.4.5.6.9,1.3,1.1,2.1.2.8.4,1.7.4,2.7v1.4h-10.6v-2.3h7.3v-.2c0-.5-.1-1-.3-1.4-.2-.4-.5-.8-.8-1-.4-.3-.9-.4-1.5-.4s-.9.1-1.3.3c-.4.2-.7.5-.9.9-.2.4-.4.8-.5,1.4s-.2,1.1-.2,1.8v.5c0,.6,0,1.1.2,1.6.2.5.4.9.7,1.3.3.4.7.6,1.1.8.4.2.9.3,1.5.3s1.3-.1,1.9-.4c.6-.3,1-.7,1.5-1.2l1.7,1.7c-.3.4-.7.8-1.1,1.2-.5.4-1.1.7-1.7.9-.7.2-1.4.4-2.3.4Z"/>
          <path d="M838.9,180.1v10.6h-3.3v-13.5h3.1l.2,2.9ZM838.4,183.5h-1c0-1,.1-1.9.4-2.7.3-.8.6-1.5,1.1-2.1s1-1,1.7-1.3c.6-.3,1.4-.5,2.2-.5s1.2,0,1.8.3c.5.2,1,.5,1.4.9s.7.9.9,1.6c.2.6.3,1.4.3,2.4v8.6h-3.3v-8.7c0-.6,0-1.1-.3-1.5s-.4-.6-.8-.8c-.3-.1-.7-.2-1.2-.2s-.9.1-1.3.3-.7.5-.9.8c-.3.4-.4.8-.6,1.2-.1.5-.2,1-.2,1.5Z"/>
          <path d="M849.3,184.1v-.3c0-1,.1-2,.4-2.8.2-.8.6-1.6,1-2.2.5-.6,1-1.1,1.7-1.4.7-.3,1.4-.5,2.2-.5s1.5.2,2.1.5c.6.3,1.1.8,1.5,1.4.4.6.8,1.3,1,2.1.3.8.4,1.7.6,2.7v.7c-.1,1-.3,1.8-.6,2.6-.3.8-.6,1.5-1,2.1s-.9,1.1-1.6,1.4c-.6.3-1.3.5-2.1.5s-1.6-.2-2.2-.5-1.2-.8-1.7-1.4c-.5-.6-.8-1.3-1-2.2-.2-.8-.4-1.7-.4-2.7ZM852.6,183.9v.3c0,.6,0,1.1.2,1.6,0,.5.3,1,.5,1.3.2.4.5.7.9.9.4.2.8.3,1.3.3s1.2-.1,1.6-.4c.4-.3.7-.7,1-1.2.2-.5.4-1.1.4-1.7v-2c0-.5-.1-1-.3-1.4-.1-.4-.3-.8-.6-1.1s-.5-.5-.9-.7c-.4-.2-.8-.3-1.3-.3s-.9.1-1.3.3c-.4.2-.6.5-.9.9-.2.4-.4.8-.5,1.4-.1.5-.2,1.1-.2,1.7ZM858,187.9v-16.3h3.3v19.1h-3l-.3-2.9Z"/>
          <path d="M877,177.2v2.4h-7.7v-2.4h7.7ZM871.3,173.9h3.3v12.9c0,.4,0,.7.2.9.1.2.3.4.5.4s.5.1.8.1.4,0,.6,0,.3,0,.5,0v2.5c-.3,0-.6.2-.9.2-.3,0-.7,0-1.2,0-.7,0-1.4-.1-1.9-.4-.6-.3-1-.7-1.3-1.2-.3-.6-.5-1.3-.5-2.3v-13.2Z"/>
          <path d="M882.4,171.6v19.1h-3.3v-19.1h3.3ZM881.9,183.5h-1c0-.9.1-1.8.4-2.6.2-.8.6-1.5,1.1-2.1.5-.6,1-1,1.6-1.4.6-.3,1.3-.5,2.1-.5s1.3,0,1.8.3c.5.2,1,.5,1.4.9.4.4.7.9.9,1.6.2.7.3,1.4.3,2.4v8.6h-3.3v-8.6c0-.6,0-1.1-.3-1.5-.2-.4-.4-.6-.8-.8-.3-.2-.8-.2-1.2-.2s-1,.1-1.4.3-.7.5-.9.8c-.2.4-.4.8-.5,1.2-.1.5-.2,1-.2,1.5Z"/>
          <path d="M893.4,173.7c0-.5.2-.9.5-1.2s.8-.5,1.4-.5,1,.2,1.4.5c.3.3.5.7.5,1.2s-.2.9-.5,1.2c-.3.3-.8.5-1.4.5s-1-.2-1.4-.5c-.3-.3-.5-.7-.5-1.2ZM896.9,177.2v13.5h-3.3v-13.5h3.3Z"/>
          <path d="M907.4,187c0-.3,0-.5-.2-.8-.1-.2-.4-.4-.8-.6-.4-.2-1-.4-1.8-.5-.7-.1-1.3-.3-1.9-.6-.6-.2-1.1-.5-1.5-.8-.4-.3-.8-.7-1-1.1-.2-.4-.4-.9-.4-1.5s.1-1.1.4-1.6c.2-.5.6-.9,1-1.3.5-.4,1-.7,1.7-.9.7-.2,1.4-.3,2.2-.3s2.1.2,3,.6,1.5.9,1.9,1.5c.4.7.7,1.4.7,2.2h-3.3c0-.4,0-.7-.2-1-.2-.3-.4-.5-.7-.7-.3-.2-.8-.3-1.3-.3s-.8,0-1.2.2-.5.3-.7.6c-.2.2-.2.5-.2.8s0,.4.1.6c0,.2.2.3.4.5s.5.3.8.4c.3.1.8.2,1.3.3,1,.2,1.9.5,2.6.8.8.3,1.3.8,1.8,1.3.4.5.6,1.2.6,2.1s-.1,1.1-.4,1.6c-.3.5-.6.9-1.1,1.3-.5.4-1.1.6-1.8.9-.7.2-1.4.3-2.3.3-1.2,0-2.3-.2-3.1-.7-.9-.4-1.5-1-1.9-1.7s-.7-1.4-.7-2.1h3.2c0,.5.2.9.4,1.3.3.3.6.5,1,.7.4.1.8.2,1.3.2s.9,0,1.3-.2c.3-.1.6-.3.8-.6.2-.2.3-.5.3-.8Z"/>
          <path d="M926.9,187c0-.3,0-.5-.2-.8-.1-.2-.4-.4-.8-.6-.4-.2-1-.4-1.8-.5-.7-.1-1.3-.3-1.9-.6-.6-.2-1.1-.5-1.5-.8-.4-.3-.8-.7-1-1.1-.2-.4-.4-.9-.4-1.5s.1-1.1.4-1.6c.2-.5.6-.9,1-1.3.5-.4,1-.7,1.7-.9.7-.2,1.4-.3,2.2-.3s2.1.2,3,.6,1.5.9,1.9,1.5c.4.7.7,1.4.7,2.2h-3.3c0-.4,0-.7-.2-1-.2-.3-.4-.5-.7-.7-.3-.2-.8-.3-1.3-.3s-.8,0-1.2.2-.5.3-.7.6c-.2.2-.2.5-.2.8s0,.4.1.6c0,.2.2.3.4.5s.5.3.8.4c.3.1.8.2,1.3.3,1,.2,1.9.5,2.6.8.8.3,1.3.8,1.8,1.3.4.5.6,1.2.6,2.1s-.1,1.1-.4,1.6c-.3.5-.6.9-1.1,1.3-.5.4-1.1.6-1.8.9-.7.2-1.4.3-2.3.3-1.2,0-2.3-.2-3.1-.7-.9-.4-1.5-1-1.9-1.7s-.7-1.4-.7-2.1h3.2c0,.5.2.9.4,1.3.3.3.6.5,1,.7.4.1.8.2,1.3.2s.9,0,1.3-.2c.3-.1.6-.3.8-.6.2-.2.3-.5.3-.8Z"/>
          <path d="M932.6,173.7c0-.5.2-.9.5-1.2s.8-.5,1.4-.5,1,.2,1.4.5c.3.3.5.7.5,1.2s-.2.9-.5,1.2c-.3.3-.8.5-1.4.5s-1-.2-1.4-.5c-.3-.3-.5-.7-.5-1.2ZM936.1,177.2v13.5h-3.3v-13.5h3.3Z"/>
          <path d="M945.6,177.2v2.4h-7.7v-2.4h7.7ZM939.9,173.9h3.3v12.9c0,.4,0,.7.2.9.1.2.3.4.5.4s.5.1.8.1.4,0,.6,0,.3,0,.5,0v2.5c-.3,0-.6.2-.9.2-.3,0-.7,0-1.2,0-.7,0-1.4-.1-1.9-.4-.6-.3-1-.7-1.3-1.2-.3-.6-.5-1.3-.5-2.3v-13.2Z"/>
          <path d="M953.8,191c-1,0-1.9-.2-2.8-.5s-1.5-.8-2.1-1.4c-.6-.6-1-1.3-1.3-2.1-.3-.8-.5-1.6-.5-2.6v-.5c0-1,.1-2,.4-2.8s.7-1.6,1.3-2.2c.5-.6,1.2-1.1,2-1.4s1.6-.5,2.5-.5,1.8.2,2.5.5c.7.3,1.3.8,1.8,1.4.5.6.9,1.3,1.1,2.1.2.8.4,1.7.4,2.7v1.4h-10.6v-2.3h7.3v-.2c0-.5-.1-1-.3-1.4-.2-.4-.5-.8-.8-1-.4-.3-.9-.4-1.5-.4s-.9.1-1.3.3c-.4.2-.7.5-.9.9-.2.4-.4.8-.5,1.4s-.2,1.1-.2,1.8v.5c0,.6,0,1.1.2,1.6.2.5.4.9.7,1.3.3.4.7.6,1.1.8.4.2.9.3,1.5.3s1.3-.1,1.9-.4c.6-.3,1-.7,1.5-1.2l1.7,1.7c-.3.4-.7.8-1.1,1.2-.5.4-1.1.7-1.7.9-.7.2-1.4.4-2.3.4Z"/>
          <path d="M974.2,177.2v2.4h-7.7v-2.4h7.7ZM968.6,173.9h3.3v12.9c0,.4,0,.7.2.9.1.2.3.4.5.4s.5.1.8.1.4,0,.6,0,.3,0,.5,0v2.5c-.3,0-.6.2-.9.2-.3,0-.7,0-1.2,0-.7,0-1.4-.1-1.9-.4-.6-.3-1-.7-1.3-1.2-.3-.6-.5-1.3-.5-2.3v-13.2Z"/>
          <path d="M975.5,184.1v-.3c0-1,.1-1.9.4-2.7s.7-1.6,1.2-2.2c.5-.6,1.2-1.1,2-1.4.8-.3,1.7-.5,2.7-.5s1.9.2,2.7.5c.8.3,1.4.8,2,1.4.5.6,1,1.3,1.2,2.2s.4,1.7.4,2.7v.3c0,1-.1,1.9-.4,2.7s-.7,1.6-1.2,2.2c-.5.6-1.2,1.1-2,1.4-.8.3-1.7.5-2.7.5s-1.9-.2-2.7-.5c-.8-.3-1.5-.8-2-1.4-.5-.6-1-1.3-1.2-2.2s-.4-1.7-.4-2.7ZM978.8,183.9v.3c0,.6,0,1.1.2,1.7.1.5.3,1,.5,1.4.2.4.6.7.9.9.4.2.8.3,1.4.3s1-.1,1.4-.3c.4-.2.7-.5.9-.9.2-.4.4-.8.5-1.4.1-.5.2-1.1.2-1.7v-.3c0-.6,0-1.1-.2-1.6-.1-.5-.3-1-.5-1.4-.2-.4-.6-.7-.9-.9-.4-.2-.8-.3-1.4-.3s-1,.1-1.4.3c-.4.2-.7.5-.9.9-.2.4-.4.8-.5,1.4-.1.5-.2,1.1-.2,1.6Z"/>
        </g>
      </g>
      <g class="st1">
        <g class="st1">
          <path d="M248.1,213.1v2s-2.1,0-2.1,0c-.5,0-1,0-1.4.2-.4.1-.7.3-1,.4-.2.2-.4.4-.6.7-.1.3-.2.6-.2.9s0,.6.2.9c.2.3.4.5.7.6.3.2.6.2,1,.2.6,0,1.1-.1,1.5-.4.4-.2.8-.5,1-.9s.4-.7.4-1l.9,1.4c-.1.3-.3.7-.5,1.1s-.5.7-.9,1.1c-.4.3-.8.6-1.3.8-.5.2-1.1.3-1.8.3s-1.7-.2-2.3-.5c-.7-.3-1.2-.8-1.6-1.4s-.6-1.3-.6-2.1.1-1.3.4-1.9c.3-.5.7-1,1.2-1.4.5-.4,1.2-.7,1.9-.9.8-.2,1.7-.3,2.7-.3h2.2ZM247.6,218.4v-6.2c0-.5,0-.9-.2-1.2s-.4-.6-.7-.8-.7-.3-1.2-.3-.8,0-1.2.2-.6.4-.8.6-.3.6-.3.9h-3.3c0-.6.1-1.1.4-1.6.3-.5.6-1,1.1-1.3.5-.4,1.1-.7,1.8-.9.7-.2,1.5-.3,2.3-.3s1.9.2,2.7.5c.8.3,1.4.9,1.9,1.6.5.7.7,1.6.7,2.6v5.9c0,.7,0,1.2.1,1.7,0,.5.2.9.4,1.2v.2h-3.4c-.2-.3-.3-.8-.4-1.3s-.1-1-.1-1.6Z"/>
          <path d="M257.1,210.7v10.6h-3.3v-13.5h3.1l.2,2.9ZM256.6,214.1h-1c0-1,.1-1.9.4-2.7.3-.8.6-1.5,1.1-2.1.5-.6,1-1,1.7-1.3.6-.3,1.4-.5,2.2-.5s1.2,0,1.8.3c.5.2,1,.5,1.4.9.4.4.7.9.9,1.6.2.6.3,1.4.3,2.4v8.6h-3.3v-8.7c0-.6,0-1.1-.3-1.5s-.4-.6-.8-.8c-.3-.1-.7-.2-1.2-.2s-.9.1-1.3.3c-.4.2-.7.5-.9.8-.3.4-.4.8-.6,1.2-.1.5-.2,1-.2,1.5Z"/>
          <path d="M270.3,207.8l3.1,9.9.5,3.5-2.3.4-4.9-13.8h3.5ZM272.1,219.8l3.6-12h3.5l-5.4,15.5c-.1.3-.3.7-.5,1.1-.2.4-.5.8-.8,1.1-.3.4-.7.6-1.2.9-.5.2-1.1.3-1.8.3s-.6,0-.8,0c-.2,0-.5,0-.7-.2v-2.5c0,0,.2,0,.3,0,.1,0,.2,0,.3,0,.5,0,.9,0,1.2-.2.3-.1.6-.3.8-.5.2-.2.4-.6.5-1l1-2.6Z"/>
          <path d="M280,214.7v-.3c0-1,.1-1.9.4-2.7.3-.8.7-1.6,1.2-2.2.5-.6,1.2-1.1,2-1.4.8-.3,1.7-.5,2.7-.5s1.9.2,2.7.5c.8.3,1.4.8,2,1.4.5.6,1,1.3,1.2,2.2.3.8.4,1.7.4,2.7v.3c0,1-.1,1.9-.4,2.7-.3.8-.7,1.6-1.2,2.2-.5.6-1.2,1.1-2,1.4s-1.7.5-2.7.5-1.9-.2-2.7-.5c-.8-.3-1.5-.8-2-1.4-.5-.6-1-1.3-1.2-2.2-.3-.8-.4-1.7-.4-2.7ZM283.3,214.4v.3c0,.6,0,1.1.2,1.7.1.5.3,1,.5,1.4.2.4.6.7.9.9.4.2.8.3,1.4.3s1-.1,1.4-.3c.4-.2.7-.5.9-.9.2-.4.4-.8.5-1.4.1-.5.2-1.1.2-1.7v-.3c0-.6,0-1.1-.2-1.6-.1-.5-.3-1-.5-1.4-.2-.4-.6-.7-.9-.9-.4-.2-.8-.3-1.4-.3s-1,.1-1.4.3c-.4.2-.7.5-.9.9-.2.4-.4.8-.5,1.4-.1.5-.2,1.1-.2,1.6Z"/>
          <path d="M298.3,210.7v10.6h-3.3v-13.5h3.1l.2,2.9ZM297.8,214.1h-1c0-1,.1-1.9.4-2.7.3-.8.6-1.5,1.1-2.1.5-.6,1-1,1.7-1.3.6-.3,1.4-.5,2.2-.5s1.2,0,1.8.3c.5.2,1,.5,1.4.9.4.4.7.9.9,1.6.2.6.3,1.4.3,2.4v8.6h-3.3v-8.7c0-.6,0-1.1-.3-1.5s-.4-.6-.8-.8c-.3-.1-.7-.2-1.2-.2s-.9.1-1.3.3c-.4.2-.7.5-.9.8-.3.4-.4.8-.6,1.2-.1.5-.2,1-.2,1.5Z"/>
          <path d="M315.4,221.5c-1,0-1.9-.2-2.8-.5s-1.5-.8-2.1-1.4c-.6-.6-1-1.3-1.3-2.1s-.5-1.6-.5-2.6v-.5c0-1,.1-2,.4-2.8s.7-1.6,1.3-2.2c.5-.6,1.2-1.1,2-1.4s1.6-.5,2.5-.5,1.8.2,2.5.5c.7.3,1.3.8,1.8,1.4.5.6.9,1.3,1.1,2.1s.4,1.7.4,2.7v1.4h-10.6v-2.3h7.3v-.2c0-.5-.1-1-.3-1.4-.2-.4-.5-.8-.8-1-.4-.3-.9-.4-1.5-.4s-.9.1-1.3.3c-.4.2-.7.5-.9.9-.2.4-.4.8-.5,1.4s-.2,1.1-.2,1.8v.5c0,.6,0,1.1.2,1.6.2.5.4.9.7,1.3.3.4.7.6,1.1.8.4.2.9.3,1.5.3s1.3-.1,1.9-.4c.6-.3,1-.7,1.5-1.2l1.7,1.7c-.3.4-.7.8-1.1,1.2s-1.1.7-1.7.9c-.7.2-1.4.4-2.3.4Z"/>
          <path d="M331.5,207.8l2.2,10.3.2,3.2h-2.1l-3.5-13.5h3.2ZM333.1,218.1l3-10.2h2.1l-.6,3.5-3,9.9h-1.8l.4-3.2ZM338.5,207.8l2.9,10.1.4,3.3h-1.8l-3-9.9-.6-3.5h2.1ZM340.9,217.9l2.2-10.1h3.2l-3.5,13.5h-2.1l.2-3.4Z"/>
          <path d="M351.4,202.2v19.1h-3.3v-19.1h3.3ZM350.9,214.1h-1c0-.9.1-1.8.4-2.6.2-.8.6-1.5,1.1-2.1.5-.6,1-1,1.6-1.4.6-.3,1.3-.5,2.1-.5s1.3,0,1.8.3c.5.2,1,.5,1.4.9.4.4.7.9.9,1.6.2.7.3,1.4.3,2.4v8.6h-3.3v-8.6c0-.6,0-1.1-.3-1.5-.2-.4-.4-.6-.8-.8-.3-.2-.7-.2-1.2-.2s-1,.1-1.4.3c-.4.2-.7.5-.9.8-.2.4-.4.8-.5,1.2-.1.5-.2,1-.2,1.5Z"/>
          <path d="M361.9,214.7v-.3c0-1,.1-1.9.4-2.7.3-.8.7-1.6,1.2-2.2.5-.6,1.2-1.1,2-1.4.8-.3,1.7-.5,2.7-.5s1.9.2,2.7.5c.8.3,1.4.8,2,1.4.5.6,1,1.3,1.2,2.2.3.8.4,1.7.4,2.7v.3c0,1-.1,1.9-.4,2.7-.3.8-.7,1.6-1.2,2.2-.5.6-1.2,1.1-2,1.4s-1.7.5-2.7.5-1.9-.2-2.7-.5c-.8-.3-1.5-.8-2-1.4-.5-.6-1-1.3-1.2-2.2-.3-.8-.4-1.7-.4-2.7ZM365.1,214.4v.3c0,.6,0,1.1.2,1.7.1.5.3,1,.5,1.4.2.4.6.7.9.9.4.2.8.3,1.4.3s1-.1,1.4-.3c.4-.2.7-.5.9-.9.2-.4.4-.8.5-1.4.1-.5.2-1.1.2-1.7v-.3c0-.6,0-1.1-.2-1.6-.1-.5-.3-1-.5-1.4-.2-.4-.6-.7-.9-.9-.4-.2-.8-.3-1.4-.3s-1,.1-1.4.3c-.4.2-.7.5-.9.9-.2.4-.4.8-.5,1.4-.1.5-.2,1.1-.2,1.6Z"/>
          <path d="M385.3,207.8l2.2,10.3.2,3.2h-2.1l-3.5-13.5h3.2ZM387,218.1l3-10.2h2.1l-.6,3.5-3,9.9h-1.8l.4-3.2ZM392.3,207.8l2.9,10.1.4,3.3h-1.8l-3-9.9-.6-3.5h2.1ZM394.7,217.9l2.2-10.1h3.2l-3.5,13.5h-2.1l.2-3.4Z"/>
          <path d="M402,204.3c0-.5.2-.9.5-1.2.3-.3.8-.5,1.4-.5s1,.2,1.4.5c.3.3.5.7.5,1.2s-.2.9-.5,1.2c-.3.3-.8.5-1.4.5s-1-.2-1.4-.5c-.3-.3-.5-.7-.5-1.2ZM405.5,207.8v13.5h-3.3v-13.5h3.3Z"/>
          <path d="M416.1,217.6c0-.3,0-.5-.2-.8-.1-.2-.4-.4-.8-.6-.4-.2-1-.4-1.8-.5-.7-.1-1.3-.3-1.9-.6-.6-.2-1.1-.5-1.5-.8-.4-.3-.8-.7-1-1.1-.2-.4-.4-.9-.4-1.5s.1-1.1.4-1.6c.2-.5.6-.9,1-1.3s1-.7,1.7-.9c.7-.2,1.4-.3,2.2-.3s2.1.2,3,.6c.8.4,1.5.9,1.9,1.5.4.7.7,1.4.7,2.2h-3.3c0-.4,0-.7-.2-1-.2-.3-.4-.5-.7-.7-.3-.2-.8-.3-1.3-.3s-.8,0-1.2.2c-.3.1-.5.3-.7.6s-.2.5-.2.8,0,.4.1.6c0,.2.2.3.4.5s.5.3.8.4c.3.1.8.2,1.3.3,1,.2,1.9.5,2.6.8s1.3.8,1.8,1.3c.4.5.6,1.2.6,2.1s-.1,1.1-.4,1.6c-.3.5-.6.9-1.1,1.3-.5.4-1.1.6-1.8.9-.7.2-1.4.3-2.3.3-1.2,0-2.3-.2-3.1-.7-.9-.4-1.5-1-1.9-1.7s-.7-1.4-.7-2.1h3.2c0,.5.2.9.4,1.3.3.3.6.5,1,.7.4.1.8.2,1.3.2s.9,0,1.3-.2c.3-.1.6-.3.8-.6.2-.2.3-.5.3-.8Z"/>
          <path d="M425,202.2v19.1h-3.3v-19.1h3.3ZM424.5,214.1h-1c0-.9.1-1.8.4-2.6.2-.8.6-1.5,1.1-2.1.5-.6,1-1,1.6-1.4.6-.3,1.3-.5,2.1-.5s1.3,0,1.8.3c.5.2,1,.5,1.4.9.4.4.7.9.9,1.6.2.7.3,1.4.3,2.4v8.6h-3.3v-8.6c0-.6,0-1.1-.3-1.5-.2-.4-.4-.6-.8-.8-.3-.2-.7-.2-1.2-.2s-1,.1-1.4.3c-.4.2-.7.5-.9.8-.2.4-.4.8-.5,1.2-.1.5-.2,1-.2,1.5Z"/>
          <path d="M442.1,221.5c-1,0-1.9-.2-2.8-.5s-1.5-.8-2.1-1.4c-.6-.6-1-1.3-1.3-2.1s-.5-1.6-.5-2.6v-.5c0-1,.1-2,.4-2.8s.7-1.6,1.3-2.2c.5-.6,1.2-1.1,2-1.4s1.6-.5,2.5-.5,1.8.2,2.5.5c.7.3,1.3.8,1.8,1.4.5.6.9,1.3,1.1,2.1s.4,1.7.4,2.7v1.4h-10.6v-2.3h7.3v-.2c0-.5-.1-1-.3-1.4-.2-.4-.5-.8-.8-1-.4-.3-.9-.4-1.5-.4s-.9.1-1.3.3c-.4.2-.7.5-.9.9-.2.4-.4.8-.5,1.4s-.2,1.1-.2,1.8v.5c0,.6,0,1.1.2,1.6.2.5.4.9.7,1.3.3.4.7.6,1.1.8.4.2.9.3,1.5.3s1.3-.1,1.9-.4c.6-.3,1-.7,1.5-1.2l1.7,1.7c-.3.4-.7.8-1.1,1.2s-1.1.7-1.7.9c-.7.2-1.4.4-2.3.4Z"/>
          <path d="M457.2,217.6c0-.3,0-.5-.2-.8-.1-.2-.4-.4-.8-.6-.4-.2-1-.4-1.8-.5-.7-.1-1.3-.3-1.9-.6-.6-.2-1.1-.5-1.5-.8-.4-.3-.8-.7-1-1.1-.2-.4-.4-.9-.4-1.5s.1-1.1.4-1.6c.2-.5.6-.9,1-1.3s1-.7,1.7-.9c.7-.2,1.4-.3,2.2-.3s2.1.2,3,.6c.8.4,1.5.9,1.9,1.5.4.7.7,1.4.7,2.2h-3.3c0-.4,0-.7-.2-1-.2-.3-.4-.5-.7-.7-.3-.2-.8-.3-1.3-.3s-.8,0-1.2.2c-.3.1-.5.3-.7.6s-.2.5-.2.8,0,.4.1.6c0,.2.2.3.4.5s.5.3.8.4c.3.1.8.2,1.3.3,1,.2,1.9.5,2.6.8s1.3.8,1.8,1.3c.4.5.6,1.2.6,2.1s-.1,1.1-.4,1.6c-.3.5-.6.9-1.1,1.3-.5.4-1.1.6-1.8.9-.7.2-1.4.3-2.3.3-1.2,0-2.3-.2-3.1-.7-.9-.4-1.5-1-1.9-1.7s-.7-1.4-.7-2.1h3.2c0,.5.2.9.4,1.3.3.3.6.5,1,.7.4.1.8.2,1.3.2s.9,0,1.3-.2c.3-.1.6-.3.8-.6.2-.2.3-.5.3-.8Z"/>
          <path d="M469.2,207.8v2.4h-7.7v-2.4h7.7ZM463.6,204.5h3.3v12.9c0,.4,0,.7.2.9s.3.4.5.4.5.1.8.1.4,0,.6,0c.2,0,.3,0,.5,0v2.5c-.3,0-.6.2-.9.2-.3,0-.7,0-1.2,0-.7,0-1.4-.1-1.9-.4-.6-.3-1-.7-1.3-1.2-.3-.6-.5-1.3-.5-2.3v-13.2Z"/>
          <path d="M470.5,214.7v-.3c0-1,.1-1.9.4-2.7.3-.8.7-1.6,1.2-2.2.5-.6,1.2-1.1,2-1.4.8-.3,1.7-.5,2.7-.5s1.9.2,2.7.5c.8.3,1.4.8,2,1.4.5.6,1,1.3,1.2,2.2.3.8.4,1.7.4,2.7v.3c0,1-.1,1.9-.4,2.7-.3.8-.7,1.6-1.2,2.2-.5.6-1.2,1.1-2,1.4s-1.7.5-2.7.5-1.9-.2-2.7-.5c-.8-.3-1.5-.8-2-1.4-.5-.6-1-1.3-1.2-2.2-.3-.8-.4-1.7-.4-2.7ZM473.8,214.4v.3c0,.6,0,1.1.2,1.7.1.5.3,1,.5,1.4.2.4.6.7.9.9.4.2.8.3,1.4.3s1-.1,1.4-.3c.4-.2.7-.5.9-.9.2-.4.4-.8.5-1.4.1-.5.2-1.1.2-1.7v-.3c0-.6,0-1.1-.2-1.6-.1-.5-.3-1-.5-1.4-.2-.4-.6-.7-.9-.9-.4-.2-.8-.3-1.4-.3s-1,.1-1.4.3c-.4.2-.7.5-.9.9-.2.4-.4.8-.5,1.4-.1.5-.2,1.1-.2,1.6Z"/>
          <path d="M499.3,217.6c0-.3,0-.5-.2-.8-.1-.2-.4-.4-.8-.6-.4-.2-1-.4-1.8-.5-.7-.1-1.3-.3-1.9-.6-.6-.2-1.1-.5-1.5-.8-.4-.3-.8-.7-1-1.1-.2-.4-.4-.9-.4-1.5s.1-1.1.4-1.6c.2-.5.6-.9,1-1.3s1-.7,1.7-.9c.7-.2,1.4-.3,2.2-.3s2.1.2,3,.6c.8.4,1.5.9,1.9,1.5.4.7.7,1.4.7,2.2h-3.3c0-.4,0-.7-.2-1-.2-.3-.4-.5-.7-.7-.3-.2-.8-.3-1.3-.3s-.8,0-1.2.2c-.3.1-.5.3-.7.6s-.2.5-.2.8,0,.4.1.6c0,.2.2.3.4.5s.5.3.8.4c.3.1.8.2,1.3.3,1,.2,1.9.5,2.6.8s1.3.8,1.8,1.3c.4.5.6,1.2.6,2.1s-.1,1.1-.4,1.6c-.3.5-.6.9-1.1,1.3-.5.4-1.1.6-1.8.9-.7.2-1.4.3-2.3.3-1.2,0-2.3-.2-3.1-.7-.9-.4-1.5-1-1.9-1.7s-.7-1.4-.7-2.1h3.2c0,.5.2.9.4,1.3.3.3.6.5,1,.7.4.1.8.2,1.3.2s.9,0,1.3-.2c.3-.1.6-.3.8-.6.2-.2.3-.5.3-.8Z"/>
          <path d="M511.1,221.5c-1,0-1.9-.2-2.8-.5s-1.5-.8-2.1-1.4c-.6-.6-1-1.3-1.3-2.1s-.5-1.6-.5-2.6v-.5c0-1,.1-2,.4-2.8s.7-1.6,1.3-2.2c.5-.6,1.2-1.1,2-1.4s1.6-.5,2.5-.5,1.8.2,2.5.5c.7.3,1.3.8,1.8,1.4.5.6.9,1.3,1.1,2.1s.4,1.7.4,2.7v1.4h-10.6v-2.3h7.3v-.2c0-.5-.1-1-.3-1.4-.2-.4-.5-.8-.8-1-.4-.3-.9-.4-1.5-.4s-.9.1-1.3.3c-.4.2-.7.5-.9.9-.2.4-.4.8-.5,1.4s-.2,1.1-.2,1.8v.5c0,.6,0,1.1.2,1.6.2.5.4.9.7,1.3.3.4.7.6,1.1.8.4.2.9.3,1.5.3s1.3-.1,1.9-.4c.6-.3,1-.7,1.5-1.2l1.7,1.7c-.3.4-.7.8-1.1,1.2s-1.1.7-1.7.9c-.7.2-1.4.4-2.3.4Z"/>
          <path d="M522.2,202.2v19.1h-3.3v-19.1h3.3Z"/>
          <path d="M528.8,202.2v19.1h-3.3v-19.1h3.3Z"/>
          <path d="M544.7,207.8v2.4h-7.7v-2.4h7.7ZM539,204.5h3.3v12.9c0,.4,0,.7.2.9s.3.4.5.4.5.1.8.1.4,0,.6,0c.2,0,.3,0,.5,0v2.5c-.3,0-.6.2-.9.2-.3,0-.7,0-1.2,0-.7,0-1.4-.1-1.9-.4-.6-.3-1-.7-1.3-1.2-.3-.6-.5-1.3-.5-2.3v-13.2Z"/>
          <path d="M550.1,202.2v19.1h-3.3v-19.1h3.3ZM549.6,214.1h-1c0-.9.1-1.8.4-2.6.2-.8.6-1.5,1.1-2.1.5-.6,1-1,1.6-1.4.6-.3,1.3-.5,2.1-.5s1.3,0,1.8.3c.5.2,1,.5,1.4.9.4.4.7.9.9,1.6.2.7.3,1.4.3,2.4v8.6h-3.3v-8.6c0-.6,0-1.1-.3-1.5-.2-.4-.4-.6-.8-.8-.3-.2-.7-.2-1.2-.2s-1,.1-1.4.3c-.4.2-.7.5-.9.8-.2.4-.4.8-.5,1.2-.1.5-.2,1-.2,1.5Z"/>
          <path d="M567.2,221.5c-1,0-1.9-.2-2.8-.5s-1.5-.8-2.1-1.4c-.6-.6-1-1.3-1.3-2.1s-.5-1.6-.5-2.6v-.5c0-1,.1-2,.4-2.8s.7-1.6,1.3-2.2c.5-.6,1.2-1.1,2-1.4s1.6-.5,2.5-.5,1.8.2,2.5.5c.7.3,1.3.8,1.8,1.4.5.6.9,1.3,1.1,2.1s.4,1.7.4,2.7v1.4h-10.6v-2.3h7.3v-.2c0-.5-.1-1-.3-1.4-.2-.4-.5-.8-.8-1-.4-.3-.9-.4-1.5-.4s-.9.1-1.3.3c-.4.2-.7.5-.9.9-.2.4-.4.8-.5,1.4s-.2,1.1-.2,1.8v.5c0,.6,0,1.1.2,1.6.2.5.4.9.7,1.3.3.4.7.6,1.1.8.4.2.9.3,1.5.3s1.3-.1,1.9-.4c.6-.3,1-.7,1.5-1.2l1.7,1.7c-.3.4-.7.8-1.1,1.2s-1.1.7-1.7.9c-.7.2-1.4.4-2.3.4Z"/>
          <path d="M574.8,204.3c0-.5.2-.9.5-1.2.3-.3.8-.5,1.4-.5s1,.2,1.4.5c.3.3.5.7.5,1.2s-.2.9-.5,1.2c-.3.3-.8.5-1.4.5s-1-.2-1.4-.5c-.3-.3-.5-.7-.5-1.2ZM578.3,207.8v13.5h-3.3v-13.5h3.3Z"/>
          <path d="M584.8,210.6v10.7h-3.3v-13.5h3.1l.2,2.8ZM588.9,207.7v3.1c-.2,0-.4,0-.7,0s-.4,0-.6,0c-.5,0-1,0-1.3.2-.4.1-.7.3-1,.6-.3.3-.4.6-.6.9-.1.4-.2.8-.2,1.3h-.7c0-.9,0-1.7.3-2.5.2-.7.4-1.4.8-1.9s.7-1,1.3-1.3c.5-.3,1.1-.5,1.7-.5s.4,0,.6,0c.2,0,.4,0,.5.1Z"/>
          <path d="M602.5,219c.5,0,.9,0,1.2-.3s.7-.4.9-.8c.2-.3.3-.7.4-1.2h3.1c0,.9-.3,1.7-.8,2.5-.5.7-1.2,1.3-2,1.7-.8.4-1.7.6-2.8.6s-1.9-.2-2.7-.5c-.8-.3-1.4-.8-1.9-1.5-.5-.6-.9-1.3-1.1-2.2-.3-.8-.4-1.7-.4-2.6v-.4c0-.9.1-1.8.4-2.6s.6-1.5,1.1-2.2c.5-.6,1.2-1.1,1.9-1.5.8-.3,1.7-.5,2.7-.5s2,.2,2.9.6c.8.4,1.5,1,1.9,1.8.5.8.7,1.7.7,2.7h-3.1c0-.5-.1-.9-.3-1.3-.2-.4-.5-.7-.8-.9s-.8-.3-1.3-.3-1,.1-1.4.3c-.4.2-.7.6-.9,1-.2.4-.3.9-.4,1.3s-.1,1-.1,1.6v.4c0,.5,0,1.1.1,1.6s.2.9.4,1.3c.2.4.5.7.9.9.4.2.8.3,1.4.3Z"/>
          <path d="M618.2,213.1v2s-2.1,0-2.1,0c-.5,0-1,0-1.4.2-.4.1-.7.3-1,.4-.2.2-.4.4-.6.7-.1.3-.2.6-.2.9s0,.6.2.9c.2.3.4.5.7.6.3.2.6.2,1,.2.6,0,1.1-.1,1.5-.4.4-.2.8-.5,1-.9s.4-.7.4-1l.9,1.4c-.1.3-.3.7-.5,1.1s-.5.7-.9,1.1-.8.6-1.3.8-1.1.3-1.8.3-1.7-.2-2.3-.5-1.2-.8-1.6-1.4-.6-1.3-.6-2.1.1-1.3.4-1.9.7-1,1.2-1.4c.5-.4,1.2-.7,1.9-.9.8-.2,1.7-.3,2.7-.3h2.2ZM617.7,218.4v-6.2c0-.5,0-.9-.2-1.2-.2-.3-.4-.6-.7-.8-.3-.2-.7-.3-1.2-.3s-.8,0-1.2.2-.6.4-.8.6c-.2.3-.3.6-.3.9h-3.3c0-.6.1-1.1.4-1.6s.6-1,1.1-1.3c.5-.4,1.1-.7,1.8-.9s1.5-.3,2.3-.3,1.9.2,2.7.5c.8.3,1.4.9,1.9,1.6.5.7.7,1.6.7,2.6v5.9c0,.7,0,1.2.1,1.7,0,.5.2.9.4,1.2v.2h-3.3c-.2-.3-.3-.8-.4-1.3s-.1-1-.1-1.6Z"/>
          <path d="M627.3,210.6v10.7h-3.3v-13.5h3.1l.2,2.8ZM631.4,207.7v3.1c-.2,0-.4,0-.7,0s-.4,0-.6,0c-.5,0-1,0-1.3.2-.4.1-.7.3-1,.6-.3.3-.4.6-.6.9-.1.4-.2.8-.2,1.3h-.7c0-.9,0-1.7.3-2.5.2-.7.4-1.4.8-1.9s.7-1,1.3-1.3c.5-.3,1.1-.5,1.7-.5s.4,0,.6,0c.2,0,.4,0,.5.1Z"/>
          <path d="M638.9,214.7v-.3c0-1,.1-2,.3-2.8s.6-1.6,1-2.2,1-1.1,1.7-1.4,1.4-.5,2.3-.5,1.5.2,2.2.5c.6.3,1.1.8,1.5,1.4.4.6.8,1.3,1,2.1.3.8.4,1.7.6,2.7v.7c-.1.9-.3,1.8-.6,2.6-.3.8-.6,1.5-1,2.1-.4.6-.9,1.1-1.6,1.4-.6.3-1.3.5-2.2.5s-1.6-.2-2.2-.5c-.7-.3-1.2-.8-1.7-1.4s-.8-1.3-1-2.2-.3-1.7-.3-2.7ZM642.2,214.4v.3c0,.6,0,1.1.2,1.6.1.5.3,1,.5,1.4.2.4.5.7.9.9s.8.3,1.3.3,1.2-.1,1.7-.4.8-.7,1-1.2.4-1.1.4-1.7v-1.9c0-.5-.1-1-.3-1.4s-.3-.8-.6-1.1c-.2-.3-.5-.5-.9-.7s-.8-.3-1.3-.3-.9.1-1.3.3c-.4.2-.6.5-.9.9-.2.4-.4.8-.5,1.4-.1.5-.2,1.1-.2,1.7ZM647.6,226.5v-15.9l.4-2.7h2.9v18.7h-3.3Z"/>
          <path d="M662.4,215.3h1c0,.9,0,1.7-.3,2.5-.2.8-.5,1.4-.9,2-.4.6-.9,1-1.6,1.3-.6.3-1.4.5-2.3.5s-1.3,0-1.8-.3c-.5-.2-1-.5-1.4-.9-.4-.4-.7-.9-.9-1.6s-.3-1.4-.3-2.3v-8.7h3.3v8.7c0,.4,0,.8.2,1.1.1.3.2.5.4.7.2.2.4.3.7.4.3,0,.5.1.8.1.8,0,1.4-.2,1.9-.5.5-.3.8-.8,1-1.3s.3-1.2.3-1.8ZM661.9,218.1v-10.3h3.3v13.5h-3.1l-.2-3.2Z"/>
          <path d="M668.1,204.3c0-.5.2-.9.5-1.2s.8-.5,1.4-.5,1,.2,1.4.5c.3.3.5.7.5,1.2s-.2.9-.5,1.2c-.3.3-.8.5-1.4.5s-1-.2-1.4-.5c-.3-.3-.5-.7-.5-1.2ZM671.6,207.8v13.5h-3.3v-13.5h3.3Z"/>
          <path d="M680.3,219c.5,0,.9,0,1.2-.3s.7-.4.9-.8c.2-.3.3-.7.4-1.2h3.1c0,.9-.3,1.7-.8,2.5-.5.7-1.2,1.3-2,1.7-.8.4-1.7.6-2.8.6s-1.9-.2-2.7-.5c-.8-.3-1.4-.8-1.9-1.5-.5-.6-.9-1.3-1.1-2.2-.3-.8-.4-1.7-.4-2.6v-.4c0-.9.1-1.8.4-2.6s.6-1.5,1.1-2.2c.5-.6,1.2-1.1,1.9-1.5.8-.3,1.7-.5,2.7-.5s2,.2,2.9.6c.8.4,1.5,1,1.9,1.8.5.8.7,1.7.7,2.7h-3.1c0-.5-.1-.9-.3-1.3-.2-.4-.5-.7-.8-.9s-.8-.3-1.3-.3-1,.1-1.4.3c-.4.2-.7.6-.9,1-.2.4-.3.9-.4,1.3s-.1,1-.1,1.6v.4c0,.5,0,1.1.1,1.6s.2.9.4,1.3c.2.4.5.7.9.9.4.2.8.3,1.4.3Z"/>
          <path d="M691.4,202.2v19.1h-3.3v-19.1h3.3ZM699.8,207.8l-5.9,6.6-3.2,3.2-1-2.6,2.5-3.1,3.7-4.2h4ZM696.4,221.3l-4.2-6.3,2.2-2.1,5.8,8.4h-3.8Z"/>
          <path d="M705,202.2v19.1h-3.3v-19.1h3.3Z"/>
          <path d="M710.3,207.8l3.1,9.9.5,3.5-2.3.4-4.9-13.8h3.5ZM712.1,219.8l3.6-12h3.5l-5.4,15.5c-.1.3-.3.7-.5,1.1s-.5.8-.8,1.1c-.3.4-.7.6-1.2.9-.5.2-1.1.3-1.8.3s-.6,0-.8,0c-.2,0-.5,0-.7-.2v-2.5c0,0,.2,0,.3,0,.1,0,.2,0,.3,0,.5,0,.9,0,1.2-.2.3-.1.6-.3.8-.5.2-.2.4-.6.5-1l1-2.6Z"/>
          <path d="M719.2,219.7c0-.5.2-.9.5-1.3.3-.3.8-.5,1.4-.5s1,.2,1.4.5c.3.3.5.8.5,1.3s-.2.9-.5,1.2c-.3.3-.8.5-1.4.5s-1-.2-1.4-.5c-.3-.3-.5-.7-.5-1.2Z"/>
          <path d="M745.7,203.2v2.7h-14.6v-2.7h14.6ZM740.1,203.2v18.1h-3.4v-18.1h3.4Z"/>
          <path d="M751,202.2v19.1h-3.3v-19.1h3.3ZM750.5,214.1h-1c0-.9.1-1.8.4-2.6.2-.8.6-1.5,1.1-2.1.5-.6,1-1,1.6-1.4.6-.3,1.3-.5,2.1-.5s1.3,0,1.8.3c.5.2,1,.5,1.4.9.4.4.7.9.9,1.6.2.7.3,1.4.3,2.4v8.6h-3.3v-8.6c0-.6,0-1.1-.3-1.5-.2-.4-.4-.6-.8-.8-.3-.2-.8-.2-1.2-.2s-1,.1-1.4.3-.7.5-.9.8c-.2.4-.4.8-.5,1.2-.1.5-.2,1-.2,1.5Z"/>
          <path d="M769.9,213.1v2s-2.1,0-2.1,0c-.5,0-1,0-1.4.2-.4.1-.7.3-1,.4-.2.2-.4.4-.6.7-.1.3-.2.6-.2.9s0,.6.2.9c.2.3.4.5.7.6.3.2.6.2,1,.2.6,0,1.1-.1,1.5-.4.4-.2.8-.5,1-.9s.4-.7.4-1l.9,1.4c-.1.3-.3.7-.5,1.1s-.5.7-.9,1.1-.8.6-1.3.8-1.1.3-1.8.3-1.7-.2-2.3-.5-1.2-.8-1.6-1.4-.6-1.3-.6-2.1.1-1.3.4-1.9.7-1,1.2-1.4c.5-.4,1.2-.7,1.9-.9.8-.2,1.7-.3,2.7-.3h2.2ZM769.4,218.4v-6.2c0-.5,0-.9-.2-1.2-.2-.3-.4-.6-.7-.8-.3-.2-.7-.3-1.2-.3s-.8,0-1.2.2-.6.4-.8.6c-.2.3-.3.6-.3.9h-3.3c0-.6.1-1.1.4-1.6s.6-1,1.1-1.3c.5-.4,1.1-.7,1.8-.9s1.5-.3,2.3-.3,1.9.2,2.7.5c.8.3,1.4.9,1.9,1.6.5.7.7,1.6.7,2.6v5.9c0,.7,0,1.2.1,1.7,0,.5.2.9.4,1.2v.2h-3.3c-.2-.3-.3-.8-.4-1.3s-.1-1-.1-1.6Z"/>
          <path d="M778.9,210.7v10.6h-3.3v-13.5h3.1l.2,2.9ZM778.4,214.1h-1c0-1,.1-1.9.4-2.7.3-.8.6-1.5,1.1-2.1s1-1,1.7-1.3c.6-.3,1.4-.5,2.2-.5s1.2,0,1.8.3c.5.2,1,.5,1.4.9s.7.9.9,1.6c.2.6.3,1.4.3,2.4v8.6h-3.3v-8.7c0-.6,0-1.1-.3-1.5s-.4-.6-.8-.8c-.3-.1-.7-.2-1.2-.2s-.9.1-1.3.3-.7.5-.9.8c-.3.4-.4.8-.6,1.2-.1.5-.2,1-.2,1.5Z"/>
          <path d="M793.2,202.2v19.1h-3.3v-19.1h3.3ZM801.7,207.8l-5.9,6.6-3.2,3.2-1-2.6,2.5-3.1,3.7-4.2h4ZM798.3,221.3l-4.2-6.3,2.2-2.1,5.8,8.4h-3.8Z"/>
          <path d="M811.9,207.8l3.1,9.9.5,3.5-2.3.4-4.9-13.8h3.5ZM813.7,219.8l3.6-12h3.5l-5.4,15.5c-.1.3-.3.7-.5,1.1s-.5.8-.8,1.1c-.3.4-.7.6-1.2.9-.5.2-1.1.3-1.8.3s-.6,0-.8,0c-.2,0-.5,0-.7-.2v-2.5c0,0,.2,0,.3,0,.1,0,.2,0,.3,0,.5,0,.9,0,1.2-.2.3-.1.6-.3.8-.5.2-.2.4-.6.5-1l1-2.6Z"/>
          <path d="M821.6,214.7v-.3c0-1,.1-1.9.4-2.7s.7-1.6,1.2-2.2c.5-.6,1.2-1.1,2-1.4.8-.3,1.7-.5,2.7-.5s1.9.2,2.7.5c.8.3,1.4.8,2,1.4.5.6,1,1.3,1.2,2.2s.4,1.7.4,2.7v.3c0,1-.1,1.9-.4,2.7s-.7,1.6-1.2,2.2c-.5.6-1.2,1.1-2,1.4-.8.3-1.7.5-2.7.5s-1.9-.2-2.7-.5c-.8-.3-1.5-.8-2-1.4-.5-.6-1-1.3-1.2-2.2s-.4-1.7-.4-2.7ZM824.9,214.4v.3c0,.6,0,1.1.2,1.7.1.5.3,1,.5,1.4.2.4.6.7.9.9.4.2.8.3,1.4.3s1-.1,1.4-.3c.4-.2.7-.5.9-.9.2-.4.4-.8.5-1.4.1-.5.2-1.1.2-1.7v-.3c0-.6,0-1.1-.2-1.6-.1-.5-.3-1-.5-1.4-.2-.4-.6-.7-.9-.9-.4-.2-.8-.3-1.4-.3s-1,.1-1.4.3c-.4.2-.7.5-.9.9-.2.4-.4.8-.5,1.4-.1.5-.2,1.1-.2,1.6Z"/>
          <path d="M845.1,215.3h1c0,.9,0,1.7-.3,2.5-.2.8-.5,1.4-.9,2-.4.6-.9,1-1.6,1.3-.6.3-1.4.5-2.3.5s-1.3,0-1.8-.3c-.5-.2-1-.5-1.4-.9-.4-.4-.7-.9-.9-1.6s-.3-1.4-.3-2.3v-8.7h3.3v8.7c0,.4,0,.8.2,1.1.1.3.2.5.4.7.2.2.4.3.7.4.3,0,.5.1.8.1.8,0,1.4-.2,1.9-.5.5-.3.8-.8,1-1.3s.3-1.2.3-1.8ZM844.7,218.1v-10.3h3.3v13.5h-3.1l-.2-3.2Z"/>
          <path d="M868.1,215.3h3.4c0,1.2-.4,2.3-1,3.2s-1.4,1.7-2.4,2.2c-1,.5-2.3.8-3.8.8s-2.2-.2-3.1-.6c-.9-.4-1.7-1-2.3-1.7s-1.1-1.7-1.5-2.7c-.3-1.1-.5-2.2-.5-3.6v-1.4c0-1.3.2-2.5.5-3.6s.8-2,1.5-2.7,1.4-1.3,2.4-1.7c.9-.4,1.9-.6,3.1-.6s2.7.3,3.7.8c1,.5,1.8,1.3,2.4,2.2.6.9.9,2,1,3.3h-3.4c0-.8-.2-1.4-.5-1.9-.3-.5-.7-.9-1.2-1.2-.5-.3-1.2-.4-2.1-.4s-1.2.1-1.8.4c-.5.2-.9.6-1.3,1.1-.3.5-.6,1.1-.7,1.8s-.2,1.6-.2,2.5v1.4c0,.9,0,1.7.2,2.5s.4,1.3.7,1.9.7.9,1.2,1.2c.5.3,1.1.4,1.8.4s1.5-.1,2-.4c.5-.3.9-.7,1.2-1.2.3-.5.5-1.2.5-1.9Z"/>
          <path d="M881.8,213.1v2s-2.1,0-2.1,0c-.5,0-1,0-1.4.2-.4.1-.7.3-1,.4-.2.2-.4.4-.6.7-.1.3-.2.6-.2.9s0,.6.2.9c.2.3.4.5.7.6.3.2.6.2,1,.2.6,0,1.1-.1,1.5-.4.4-.2.8-.5,1-.9s.4-.7.4-1l.9,1.4c-.1.3-.3.7-.5,1.1s-.5.7-.9,1.1-.8.6-1.3.8-1.1.3-1.8.3-1.7-.2-2.3-.5-1.2-.8-1.6-1.4-.6-1.3-.6-2.1.1-1.3.4-1.9.7-1,1.2-1.4c.5-.4,1.2-.7,1.9-.9.8-.2,1.7-.3,2.7-.3h2.2ZM881.3,218.4v-6.2c0-.5,0-.9-.2-1.2-.2-.3-.4-.6-.7-.8-.3-.2-.7-.3-1.2-.3s-.8,0-1.2.2-.6.4-.8.6c-.2.3-.3.6-.3.9h-3.3c0-.6.1-1.1.4-1.6s.6-1,1.1-1.3c.5-.4,1.1-.7,1.8-.9s1.5-.3,2.3-.3,1.9.2,2.7.5c.8.3,1.4.9,1.9,1.6.5.7.7,1.6.7,2.6v5.9c0,.7,0,1.2.1,1.7,0,.5.2.9.4,1.2v.2h-3.3c-.2-.3-.3-.8-.4-1.3s-.1-1-.1-1.6Z"/>
          <path d="M890.9,210.6v10.7h-3.3v-13.5h3.1l.2,2.8ZM895,207.7v3.1c-.2,0-.4,0-.7,0s-.4,0-.6,0c-.5,0-1,0-1.3.2-.4.1-.7.3-1,.6-.3.3-.4.6-.6.9-.1.4-.2.8-.2,1.3h-.7c0-.9,0-1.7.3-2.5.2-.7.4-1.4.8-1.9s.7-1,1.3-1.3c.5-.3,1.1-.5,1.7-.5s.4,0,.6,0c.2,0,.4,0,.5.1Z"/>
          <path d="M896,214.7v-.3c0-1,.1-2,.4-2.8.2-.8.6-1.6,1-2.2.5-.6,1-1.1,1.7-1.4.7-.3,1.4-.5,2.2-.5s1.5.2,2.1.5c.6.3,1.1.8,1.5,1.4.4.6.8,1.3,1,2.1.3.8.4,1.7.6,2.7v.7c-.1,1-.3,1.8-.6,2.6-.3.8-.6,1.5-1,2.1s-.9,1.1-1.6,1.4c-.6.3-1.3.5-2.1.5s-1.6-.2-2.2-.5-1.2-.8-1.7-1.4c-.5-.6-.8-1.3-1-2.2-.2-.8-.4-1.7-.4-2.7ZM899.3,214.5v.3c0,.6,0,1.1.2,1.6,0,.5.3,1,.5,1.3.2.4.5.7.9.9.4.2.8.3,1.3.3s1.2-.1,1.6-.4c.4-.3.7-.7,1-1.2.2-.5.4-1.1.4-1.7v-2c0-.5-.1-1-.3-1.4-.1-.4-.3-.8-.6-1.1s-.5-.5-.9-.7c-.4-.2-.8-.3-1.3-.3s-.9.1-1.3.3c-.4.2-.6.5-.9.9-.2.4-.4.8-.5,1.4-.1.5-.2,1.1-.2,1.7ZM904.6,218.4v-16.3h3.3v19.1h-3l-.3-2.9Z"/>
          <path d="M917,221.5c-1,0-1.9-.2-2.8-.5s-1.5-.8-2.1-1.4c-.6-.6-1-1.3-1.3-2.1-.3-.8-.5-1.6-.5-2.6v-.5c0-1,.1-2,.4-2.8s.7-1.6,1.3-2.2c.5-.6,1.2-1.1,2-1.4s1.6-.5,2.5-.5,1.8.2,2.5.5c.7.3,1.3.8,1.8,1.4.5.6.9,1.3,1.1,2.1.2.8.4,1.7.4,2.7v1.4h-10.6v-2.3h7.3v-.2c0-.5-.1-1-.3-1.4-.2-.4-.5-.8-.8-1-.4-.3-.9-.4-1.5-.4s-.9.1-1.3.3c-.4.2-.7.5-.9.9-.2.4-.4.8-.5,1.4s-.2,1.1-.2,1.8v.5c0,.6,0,1.1.2,1.6.2.5.4.9.7,1.3.3.4.7.6,1.1.8.4.2.9.3,1.5.3s1.3-.1,1.9-.4c.6-.3,1-.7,1.5-1.2l1.7,1.7c-.3.4-.7.8-1.1,1.2-.5.4-1.1.7-1.7.9-.7.2-1.4.4-2.3.4Z"/>
          <path d="M932.5,213.1v2s-2.1,0-2.1,0c-.5,0-1,0-1.4.2-.4.1-.7.3-1,.4-.2.2-.4.4-.6.7-.1.3-.2.6-.2.9s0,.6.2.9c.2.3.4.5.7.6.3.2.6.2,1,.2.6,0,1.1-.1,1.5-.4.4-.2.8-.5,1-.9s.4-.7.4-1l.9,1.4c-.1.3-.3.7-.5,1.1s-.5.7-.9,1.1-.8.6-1.3.8-1.1.3-1.8.3-1.7-.2-2.3-.5-1.2-.8-1.6-1.4-.6-1.3-.6-2.1.1-1.3.4-1.9.7-1,1.2-1.4c.5-.4,1.2-.7,1.9-.9.8-.2,1.7-.3,2.7-.3h2.2ZM932.1,218.4v-6.2c0-.5,0-.9-.2-1.2-.2-.3-.4-.6-.7-.8-.3-.2-.7-.3-1.2-.3s-.8,0-1.2.2-.6.4-.8.6c-.2.3-.3.6-.3.9h-3.3c0-.6.1-1.1.4-1.6s.6-1,1.1-1.3c.5-.4,1.1-.7,1.8-.9s1.5-.3,2.3-.3,1.9.2,2.7.5c.8.3,1.4.9,1.9,1.6.5.7.7,1.6.7,2.6v5.9c0,.7,0,1.2.1,1.7,0,.5.2.9.4,1.2v.2h-3.3c-.2-.3-.3-.8-.4-1.3s-.1-1-.1-1.6Z"/>
          <path d="M941.8,202.2v19.1h-3.3v-19.1h3.3Z"/>
          <path d="M945.1,219.8c0-.5.2-.9.5-1.2s.8-.5,1.4-.5,1,.2,1.4.5.5.7.5,1.2-.2.9-.5,1.2-.8.5-1.4.5-1-.2-1.4-.5-.5-.7-.5-1.2ZM948.7,203.2l-.4,12.7h-2.8l-.4-12.7h3.5Z"/>
        </g>
      </g>
    </g>
    <g class="st1">
      <g class="st1">
        <path class="st2" d="M461,285.2v19.7h-2.6v-19.7h2.6ZM471.3,293.7v2.1h-10.7v-2.1h10.7ZM473.5,285.2v19.7h-2.6v-19.7h2.6Z"/>
        <path class="st2" d="M477.8,303.6c0-.4.1-.8.4-1.1.3-.3.7-.4,1.2-.4s.9.1,1.2.4c.3.3.4.7.4,1.1s-.1.8-.4,1.1c-.3.3-.7.4-1.2.4s-.9-.1-1.2-.4c-.3-.3-.4-.6-.4-1.1Z"/>
        <path class="st2" d="M494.9,285.2v19.7h-2.6v-19.7h2.6ZM504.5,285.2v2.1h-10.2v-2.1h10.2ZM503.2,294.1v2.1h-8.8v-2.1h8.8Z"/>
        <path class="st2" d="M516.4,298.4h1c0,.9-.1,1.8-.3,2.7-.2.8-.5,1.5-1,2.1-.5.6-1,1.1-1.8,1.4-.7.3-1.6.5-2.7.5s-1.4-.1-2-.3c-.6-.2-1.1-.5-1.5-1-.4-.4-.8-1-1-1.7s-.3-1.5-.3-2.5v-9.4h2.5v9.5c0,.7,0,1.2.2,1.6.1.4.4.8.6,1s.5.4.9.5c.3,0,.7.1,1,.1,1.1,0,1.9-.2,2.5-.6.6-.4,1.1-1,1.3-1.7.3-.7.4-1.5.4-2.3ZM515.9,301.5v-11.3h2.5v14.6h-2.4v-3.4Z"/>
        <path class="st2" d="M524.7,292.6v12.3h-2.5v-14.6h2.4v2.3ZM529.3,290.2v2.3c-.2,0-.4,0-.6,0-.2,0-.4,0-.6,0-.6,0-1.1,0-1.5.3-.4.2-.8.4-1.1.8-.3.3-.5.7-.7,1.2s-.3.9-.3,1.5l-.7.4c0-.9,0-1.7.3-2.5s.4-1.5.8-2.1.8-1.1,1.4-1.4c.6-.3,1.3-.5,2-.5s.4,0,.6,0c.2,0,.4,0,.5.1Z"/>
        <path class="st2" d="M534.3,284.1v20.8h-2.5v-20.8h2.5Z"/>
        <path class="st2" d="M547.4,296v1.8s-2.5,0-2.5,0c-.7,0-1.3,0-1.9.2-.6.1-1,.3-1.4.5-.4.2-.7.5-.9.8-.2.3-.3.7-.3,1.2s.1.9.3,1.3c.2.4.5.7.9.9.4.2.9.3,1.5.3s1.4-.2,2-.5c.6-.3,1.1-.7,1.4-1.2s.5-.9.6-1.4l1.1,1.2c0,.4-.2.8-.5,1.3-.3.5-.7.9-1.1,1.3s-1,.8-1.6,1c-.6.3-1.4.4-2.1.4s-1.9-.2-2.6-.6c-.7-.4-1.3-.9-1.7-1.6-.4-.7-.6-1.4-.6-2.2s.2-1.5.5-2.1.7-1.1,1.3-1.5c.6-.4,1.3-.7,2.1-.9s1.7-.3,2.7-.3h2.9ZM547,302.4v-7.5c0-.6-.1-1.1-.3-1.5-.2-.4-.6-.8-1-1s-1-.4-1.7-.4-1.2.1-1.7.3c-.5.2-.8.5-1.1.9s-.4.7-.4,1.1h-2.5c0-.5.1-1,.4-1.6.3-.5.7-1,1.2-1.4.5-.4,1.1-.8,1.8-1s1.5-.4,2.4-.4,2,.2,2.8.5c.8.4,1.5.9,1.9,1.6.5.7.7,1.6.7,2.7v6.8c0,.5,0,1,.1,1.6,0,.5.2,1,.4,1.4v.2h-2.6c-.1-.3-.2-.7-.3-1.2,0-.5-.1-.9-.1-1.3Z"/>
        <path class="st2" d="M555.9,293.4v11.5h-2.5v-14.6h2.4v3.1ZM555.3,297h-1c0-1,.2-2,.4-2.8.3-.9.7-1.6,1.2-2.2.5-.6,1.1-1.1,1.9-1.5.7-.3,1.5-.5,2.4-.5s1.4,0,1.9.3c.6.2,1.1.5,1.5.9.4.4.7,1,.9,1.6.2.7.3,1.5.3,2.5v9.6h-2.5v-9.6c0-.8-.1-1.4-.3-1.8-.2-.5-.6-.8-1-1-.4-.2-1-.3-1.6-.3s-1.2.1-1.7.4c-.5.3-.9.6-1.3,1.1-.4.5-.6,1-.9,1.6-.2.6-.3,1.2-.3,1.9Z"/>
        <path class="st2" d="M568.1,297.7v-.3c0-1.1.2-2,.5-2.9s.7-1.7,1.3-2.4c.6-.7,1.3-1.2,2.1-1.6s1.7-.6,2.8-.6,2,.2,2.8.6c.8.4,1.5.9,2.1,1.6s1,1.5,1.3,2.4.5,1.9.5,2.9v.3c0,1.1-.2,2-.5,2.9s-.8,1.7-1.3,2.4-1.3,1.2-2.1,1.6-1.7.6-2.8.6-2-.2-2.8-.6c-.8-.4-1.5-.9-2.1-1.6s-1-1.5-1.3-2.4-.5-1.9-.5-2.9ZM570.6,297.4v.3c0,.7,0,1.4.3,2.1.2.6.4,1.2.8,1.7.3.5.8.9,1.3,1.2.5.3,1.1.4,1.8.4s1.3-.1,1.8-.4c.5-.3.9-.7,1.3-1.2.3-.5.6-1.1.8-1.7.2-.6.3-1.3.3-2.1v-.3c0-.7,0-1.4-.3-2-.2-.6-.4-1.2-.8-1.7-.3-.5-.8-.9-1.3-1.2-.5-.3-1.1-.4-1.8-.4s-1.3.1-1.8.4c-.5.3-1,.7-1.3,1.2-.3.5-.6,1.1-.8,1.7-.2.6-.3,1.3-.3,2Z"/>
        <path class="st2" d="M586.8,301.9v2c0,.8-.2,1.7-.6,2.6-.4.9-1,1.7-1.7,2.3l-1.4-1c.3-.4.5-.8.7-1.2.2-.4.3-.8.5-1.3s.2-.9.2-1.4v-2.1h2.4Z"/>
        <path class="st2" d="M604.5,287l-6.5,17.9h-2.7l7.5-19.7h1.7v1.7ZM609.6,297.6v2.1h-11.1v-2.1h11.1ZM610,304.9l-6.5-17.9v-1.7s1.7,0,1.7,0l7.5,19.7h-2.7Z"/>
        <path class="st2" d="M620.8,290.3v1.9h-7.9v-1.9h7.9ZM615.6,286.7h2.5v14.6c0,.5,0,.9.2,1.1.2.3.4.4.6.5s.5.1.8.1.4,0,.7,0c.2,0,.4,0,.5-.1v2c-.2,0-.4.1-.8.2-.3,0-.7,0-1.2,0s-1.2-.1-1.7-.4-.9-.7-1.2-1.2c-.3-.6-.5-1.3-.5-2.3v-14.6Z"/>
        <path class="st2" d="M626.5,284.1v20.8h-2.5v-20.8h2.5Z"/>
        <path class="st2" d="M639.5,296v1.8s-2.5,0-2.5,0c-.7,0-1.3,0-1.9.2-.6.1-1,.3-1.4.5-.4.2-.7.5-.9.8s-.3.7-.3,1.2.1.9.3,1.3.5.7.9.9c.4.2.9.3,1.5.3s1.4-.2,2-.5c.6-.3,1.1-.7,1.4-1.2.3-.5.5-.9.6-1.4l1.1,1.2c0,.4-.2.8-.5,1.3s-.7.9-1.1,1.3c-.5.4-1,.8-1.6,1-.6.3-1.4.4-2.1.4s-1.9-.2-2.6-.6c-.7-.4-1.3-.9-1.7-1.6-.4-.7-.6-1.4-.6-2.2s.2-1.5.5-2.1.7-1.1,1.3-1.5c.6-.4,1.3-.7,2.1-.9s1.7-.3,2.7-.3h2.9ZM639.1,302.4v-7.5c0-.6-.1-1.1-.3-1.5-.2-.4-.6-.8-1-1s-1-.4-1.7-.4-1.2.1-1.7.3c-.5.2-.8.5-1.1.9-.3.4-.4.7-.4,1.1h-2.5c0-.5.1-1,.4-1.6.3-.5.7-1,1.2-1.4.5-.4,1.1-.8,1.8-1s1.5-.4,2.4-.4,2,.2,2.8.5c.8.4,1.5.9,1.9,1.6.5.7.7,1.6.7,2.7v6.8c0,.5,0,1,.1,1.6,0,.5.2,1,.4,1.4v.2h-2.6c-.1-.3-.2-.7-.3-1.2,0-.5-.1-.9-.1-1.3Z"/>
        <path class="st2" d="M648.1,293.4v11.5h-2.5v-14.6h2.4v3.1ZM647.5,297h-1c0-1,.2-2,.4-2.8.3-.9.7-1.6,1.2-2.2.5-.6,1.1-1.1,1.9-1.5.7-.3,1.5-.5,2.4-.5s1.4,0,1.9.3c.6.2,1.1.5,1.5.9.4.4.7,1,.9,1.6s.3,1.5.3,2.5v9.6h-2.5v-9.6c0-.8-.1-1.4-.3-1.8-.2-.5-.6-.8-1-1-.4-.2-1-.3-1.6-.3s-1.2.1-1.7.4c-.5.3-.9.6-1.3,1.1-.4.5-.6,1-.9,1.6-.2.6-.3,1.2-.3,1.9Z"/>
        <path class="st2" d="M667,290.3v1.9h-7.9v-1.9h7.9ZM661.7,286.7h2.5v14.6c0,.5,0,.9.2,1.1.2.3.4.4.6.5s.5.1.8.1.4,0,.7,0c.2,0,.4,0,.5-.1v2c-.2,0-.4.1-.8.2-.3,0-.7,0-1.2,0s-1.2-.1-1.7-.4-.9-.7-1.2-1.2c-.3-.6-.5-1.3-.5-2.3v-14.6Z"/>
        <path class="st2" d="M679,296v1.8s-2.5,0-2.5,0c-.7,0-1.3,0-1.9.2-.6.1-1,.3-1.4.5-.4.2-.7.5-.9.8-.2.3-.3.7-.3,1.2s.1.9.3,1.3c.2.4.5.7.9.9s.9.3,1.5.3,1.4-.2,2-.5c.6-.3,1.1-.7,1.4-1.2.3-.5.5-.9.6-1.4l1.1,1.2c0,.4-.2.8-.5,1.3-.3.5-.7.9-1.1,1.3-.5.4-1,.8-1.7,1-.6.3-1.4.4-2.1.4s-1.9-.2-2.6-.6c-.7-.4-1.3-.9-1.7-1.6-.4-.7-.6-1.4-.6-2.2s.2-1.5.5-2.1.7-1.1,1.3-1.5,1.3-.7,2.1-.9,1.7-.3,2.7-.3h2.9ZM678.5,302.4v-7.5c0-.6-.1-1.1-.3-1.5-.2-.4-.6-.8-1-1s-1-.4-1.7-.4-1.2.1-1.7.3c-.5.2-.8.5-1.1.9-.3.4-.4.7-.4,1.1h-2.5c0-.5.1-1,.4-1.6.3-.5.7-1,1.2-1.4s1.1-.8,1.8-1,1.5-.4,2.4-.4,2,.2,2.8.5c.8.4,1.5.9,1.9,1.6.5.7.7,1.6.7,2.7v6.8c0,.5,0,1,.1,1.6s.2,1,.4,1.4v.2h-2.6c-.1-.3-.2-.7-.3-1.2s-.1-.9-.1-1.3Z"/>
        <path class="st2" d="M706.8,295.1v7.2c-.2.4-.6.8-1.2,1.2s-1.3.8-2.2,1.2c-.9.3-2.1.5-3.6.5s-2.3-.2-3.3-.6c-1-.4-1.9-1-2.6-1.8-.7-.8-1.3-1.8-1.7-2.9-.4-1.2-.6-2.5-.6-3.9v-1.5c0-1.5.2-2.8.5-3.9.3-1.2.9-2.1,1.5-2.9.7-.8,1.5-1.4,2.5-1.8,1-.4,2.1-.6,3.4-.6s2.8.3,3.8.8c1,.5,1.8,1.2,2.4,2.1.6.9.9,1.9,1.1,3.1h-2.6c-.1-.7-.3-1.4-.7-1.9-.3-.6-.8-1.1-1.5-1.4s-1.5-.5-2.5-.5-1.7.2-2.4.5c-.7.3-1.2.8-1.7,1.4s-.8,1.4-1,2.3-.3,1.9-.3,3v1.6c0,1.1.1,2.2.4,3,.3.9.6,1.7,1.1,2.3s1.1,1.1,1.8,1.4c.7.3,1.5.5,2.3.5s1.7,0,2.3-.2c.6-.2,1-.3,1.4-.6.3-.2.6-.4.7-.6v-4.4h-4.6v-2.1h7.2Z"/>
        <path class="st2" d="M718.4,287l-6.5,17.9h-2.7l7.5-19.7h1.7v1.7ZM723.5,297.6v2.1h-11.1v-2.1h11.1ZM723.9,304.9l-6.5-17.9v-1.7s1.7,0,1.7,0l7.5,19.7h-2.7Z"/>
      </g>
    </g>
    <g class="st1">
      <g class="st1">
        <path class="st2" d="M540.3,332v1c0,1.1-.1,2.2-.4,3.1-.3.9-.7,1.7-1.2,2.3-.5.6-1.2,1.1-1.9,1.5-.8.3-1.6.5-2.5.5s-1.7-.2-2.5-.5-1.4-.8-2-1.5-1-1.4-1.3-2.3-.5-1.9-.5-3.1v-1c0-1.1.1-2.2.4-3.1.3-.9.7-1.7,1.3-2.3.5-.6,1.2-1.1,1.9-1.5s1.6-.5,2.5-.5,1.8.2,2.5.5c.8.3,1.4.8,1.9,1.5.5.6,1,1.4,1.2,2.3.3.9.4,1.9.4,3.1ZM538.3,332.9v-1c0-.9,0-1.7-.3-2.4-.2-.7-.5-1.3-.8-1.8-.4-.5-.8-.8-1.3-1.1-.5-.2-1.1-.4-1.7-.4s-1.2.1-1.7.4-.9.6-1.3,1.1c-.4.5-.6,1.1-.8,1.8-.2.7-.3,1.5-.3,2.4v1c0,.9,0,1.7.3,2.4s.5,1.3.8,1.8c.4.5.8.8,1.3,1.1.5.2,1.1.4,1.7.4s1.2-.1,1.8-.4c.5-.2.9-.6,1.3-1.1.4-.5.6-1.1.8-1.8.2-.7.3-1.5.3-2.4Z"/>
        <path class="st2" d="M547.5,338.7c.5,0,.9,0,1.3-.3.4-.2.7-.5,1-.8s.4-.7.4-1.1h1.8c0,.7-.3,1.3-.7,1.9-.4.6-1,1-1.6,1.4s-1.4.5-2.2.5-1.6-.2-2.2-.5-1.2-.7-1.6-1.2c-.4-.5-.7-1.1-.9-1.8-.2-.7-.3-1.4-.3-2.2v-.4c0-.8.1-1.5.3-2.2.2-.7.5-1.3.9-1.8.4-.5.9-.9,1.6-1.2s1.4-.5,2.2-.5,1.7.2,2.3.5,1.2.9,1.6,1.5.6,1.3.6,2.1h-1.8c0-.5-.2-.9-.4-1.3s-.5-.7-.9-.9c-.4-.2-.8-.3-1.4-.3s-1.1.1-1.5.4-.7.5-1,.9c-.2.4-.4.8-.5,1.3-.1.5-.2,1-.2,1.5v.4c0,.5,0,1,.1,1.5s.3.9.5,1.3c.2.4.6.7,1,.9.4.2.9.4,1.5.4Z"/>
        <path class="st2" d="M559,328.7v1.5h-6.1v-1.5h6.1ZM554.9,326h1.9v11.3c0,.4,0,.7.2.9.1.2.3.3.5.4.2,0,.4,0,.6,0s.3,0,.5,0c.2,0,.3,0,.4,0v1.6c-.1,0-.3,0-.6.1s-.5,0-.9,0-.9,0-1.3-.3c-.4-.2-.7-.5-.9-1-.2-.4-.4-1-.4-1.8v-11.3Z"/>
        <path class="st2" d="M560.6,334.5v-.2c0-.8.1-1.6.4-2.3s.6-1.3,1-1.8,1-.9,1.6-1.2c.6-.3,1.4-.4,2.1-.4s1.5.1,2.2.4c.6.3,1.2.7,1.6,1.2.5.5.8,1.1,1,1.8.2.7.4,1.5.4,2.3v.2c0,.8-.1,1.6-.4,2.3-.2.7-.6,1.3-1,1.8-.5.5-1,.9-1.6,1.2s-1.3.4-2.1.4-1.5-.1-2.2-.4-1.2-.7-1.6-1.2c-.5-.5-.8-1.1-1-1.8s-.4-1.5-.4-2.3ZM562.5,334.3v.2c0,.6,0,1.1.2,1.6.1.5.3.9.6,1.3.3.4.6.7,1,.9.4.2.9.3,1.4.3s1-.1,1.4-.3c.4-.2.7-.5,1-.9.3-.4.5-.8.6-1.3.1-.5.2-1,.2-1.6v-.2c0-.6,0-1.1-.2-1.6-.1-.5-.3-.9-.6-1.3s-.6-.7-1-.9c-.4-.2-.9-.3-1.4-.3s-1,.1-1.4.3c-.4.2-.7.5-1,.9s-.5.8-.6,1.3c-.1.5-.2,1-.2,1.6Z"/>
        <path class="st2" d="M573.3,324h2v13.9l-.2,2.2h-1.8v-16.1ZM582.9,334.3v.2c0,.8,0,1.6-.3,2.3-.2.7-.5,1.3-.9,1.8s-.8.9-1.4,1.2-1.2.4-1.9.4-1.4-.1-1.9-.4c-.5-.2-1-.6-1.4-1.1-.4-.5-.7-1-.9-1.7-.2-.7-.4-1.4-.5-2.2v-1c0-.8.2-1.6.5-2.3.2-.7.5-1.2.9-1.7.4-.5.8-.8,1.4-1.1.5-.2,1.2-.4,1.9-.4s1.3.1,1.9.4c.6.3,1,.7,1.4,1.2.4.5.7,1.1.9,1.8.2.7.3,1.5.3,2.4ZM581,334.5v-.2c0-.6,0-1.1-.2-1.6-.1-.5-.3-.9-.5-1.3-.2-.4-.5-.7-.9-.9s-.8-.3-1.4-.3-.9,0-1.3.3c-.4.2-.7.4-.9.7s-.5.6-.6,1c-.2.4-.3.7-.4,1.1v2.5c.1.5.3,1,.6,1.4.3.5.6.8,1,1.1.4.3,1,.4,1.6.4s1-.1,1.3-.3c.4-.2.7-.5.9-.9s.4-.8.5-1.3c.1-.5.2-1,.2-1.6Z"/>
        <path class="st2" d="M590.1,340.3c-.8,0-1.5-.1-2.1-.4-.6-.3-1.2-.6-1.6-1.1-.5-.5-.8-1.1-1.1-1.7s-.4-1.4-.4-2.2v-.4c0-.9.1-1.7.4-2.5.3-.7.6-1.3,1.1-1.8s1-.9,1.6-1.1,1.2-.4,1.8-.4,1.5.1,2.1.4c.6.3,1.1.7,1.5,1.2.4.5.7,1.1.8,1.8.2.7.3,1.4.3,2.2v.9h-8.5v-1.6h6.5c0-.7-.1-1.1-.3-1.6-.2-.5-.5-.9-.8-1.2-.4-.3-.9-.5-1.6-.5s-.8,0-1.2.3c-.4.2-.7.5-1,.8-.3.4-.5.8-.6,1.3-.1.5-.2,1.1-.2,1.8v.4c0,.5,0,1,.2,1.5.2.5.4.9.7,1.2s.6.6,1.1.8c.4.2.9.3,1.4.3s1.3-.1,1.7-.4c.5-.3.9-.7,1.2-1.1l1.2.9c-.2.4-.6.7-.9,1.1s-.8.6-1.4.8c-.5.2-1.2.3-1.9.3Z"/>
        <path class="st2" d="M598.7,330.5v9.6h-1.9v-11.4h1.9v1.8ZM602.3,328.7v1.8c-.2,0-.3,0-.5,0s-.3,0-.5,0c-.4,0-.8,0-1.2.2s-.6.3-.9.6c-.2.3-.4.6-.6.9-.1.3-.2.7-.3,1.1l-.5.3c0-.7,0-1.3.2-1.9s.3-1.1.6-1.6c.3-.5.7-.8,1.1-1.1.4-.3,1-.4,1.6-.4s.3,0,.5,0c.2,0,.3,0,.4,0Z"/>
        <path class="st2" d="M619.2,338.5v1.6h-10v-1.4l5-5.6c.6-.7,1.1-1.3,1.4-1.7.3-.5.6-.9.7-1.3.1-.4.2-.8.2-1.2s-.1-1-.3-1.4c-.2-.4-.5-.7-.9-1-.4-.2-.9-.4-1.4-.4s-1.2.1-1.7.4c-.5.3-.8.6-1,1.1-.2.5-.3,1-.3,1.6h-1.9c0-.9.2-1.6.6-2.4s.9-1.3,1.7-1.7c.7-.4,1.7-.6,2.7-.6s1.8.2,2.5.5c.7.3,1.2.8,1.6,1.4.4.6.6,1.3.6,2.1s0,.9-.2,1.4c-.2.5-.4.9-.6,1.4-.3.5-.6.9-.9,1.3-.3.4-.7.9-1.1,1.3l-4.1,4.4h7.7Z"/>
        <path class="st2" d="M630.9,331.2v2.3c0,1.3-.1,2.3-.3,3.2s-.5,1.6-1,2.1c-.4.5-.9.9-1.5,1.1-.6.2-1.3.4-2,.4s-1.1,0-1.6-.2c-.5-.1-.9-.4-1.3-.7-.4-.3-.7-.8-1-1.3-.3-.5-.5-1.2-.6-1.9-.1-.7-.2-1.6-.2-2.6v-2.3c0-1.3.1-2.3.3-3.1s.6-1.5,1-2,.9-.9,1.5-1.1,1.3-.3,2-.3,1.1,0,1.6.2c.5.1.9.4,1.3.7.4.3.7.7,1,1.2.3.5.5,1.1.6,1.9.1.7.2,1.6.2,2.6ZM628.9,333.9v-3c0-.7,0-1.3-.1-1.8,0-.5-.2-1-.4-1.3-.2-.4-.3-.7-.6-.9-.2-.2-.5-.4-.8-.5-.3-.1-.6-.2-1-.2s-.9,0-1.2.3c-.4.2-.7.4-.9.8-.2.4-.4.9-.6,1.5s-.2,1.3-.2,2.2v3c0,.7,0,1.3.1,1.8,0,.5.2,1,.4,1.4s.4.7.6.9c.2.2.5.4.8.5.3.1.6.2,1,.2s.9,0,1.2-.3c.4-.2.7-.5.9-.9.2-.4.4-.9.5-1.5s.2-1.3.2-2.2Z"/>
        <path class="st2" d="M643.4,338.5v1.6h-10v-1.4l5-5.6c.6-.7,1.1-1.3,1.4-1.7.3-.5.6-.9.7-1.3.1-.4.2-.8.2-1.2s-.1-1-.3-1.4c-.2-.4-.5-.7-.9-1-.4-.2-.9-.4-1.4-.4s-1.2.1-1.7.4c-.5.3-.8.6-1,1.1-.2.5-.3,1-.3,1.6h-1.9c0-.9.2-1.6.6-2.4s.9-1.3,1.7-1.7c.7-.4,1.7-.6,2.7-.6s1.8.2,2.5.5c.7.3,1.2.8,1.6,1.4.4.6.6,1.3.6,2.1s0,.9-.2,1.4c-.2.5-.4.9-.6,1.4-.3.5-.6.9-.9,1.3-.3.4-.7.9-1.1,1.3l-4.1,4.4h7.7Z"/>
        <path class="st2" d="M655.1,331.2v2.3c0,1.3-.1,2.3-.3,3.2-.2.9-.5,1.6-1,2.1-.4.5-.9.9-1.5,1.1s-1.3.4-2,.4-1.1,0-1.6-.2c-.5-.1-.9-.4-1.3-.7-.4-.3-.7-.8-1-1.3-.3-.5-.5-1.2-.6-1.9-.1-.7-.2-1.6-.2-2.6v-2.3c0-1.3.1-2.3.3-3.1s.6-1.5,1-2,.9-.9,1.5-1.1c.6-.2,1.3-.3,2-.3s1.1,0,1.6.2c.5.1.9.4,1.3.7.4.3.7.7,1,1.2.3.5.5,1.1.6,1.9.1.7.2,1.6.2,2.6ZM653.1,333.9v-3c0-.7,0-1.3-.1-1.8,0-.5-.2-1-.4-1.3-.2-.4-.3-.7-.6-.9-.2-.2-.5-.4-.8-.5s-.6-.2-1-.2-.9,0-1.2.3c-.4.2-.7.4-.9.8s-.4.9-.6,1.5-.2,1.3-.2,2.2v3c0,.7,0,1.3.1,1.8,0,.5.2,1,.4,1.4.2.4.4.7.6.9.2.2.5.4.8.5.3.1.6.2,1,.2s.9,0,1.2-.3c.4-.2.7-.5.9-.9.2-.4.4-.9.5-1.5s.2-1.3.2-2.2Z"/>
      </g>
    </g>
  </g>
  <g>
    <path class="st0" d="M513.7,383.8c-.6.3-1.2-.2-1.1-.9l1.2-7.1-5.3-5c-.5-.5-.2-1.3.4-1.4l7.3-1,3.3-6.5c.3-.6,1.1-.6,1.4,0l3.3,6.5,7.3,1c.7,0,.9,1,.4,1.4l-5.3,5,1.2,7.1c0,.7-.5,1.2-1.1.9l-6.6-3.4-6.6,3.4h.2Z"/>
    <path class="st0" d="M551.9,384.1c-.6.3-1.2-.2-1.1-.9l1.2-7.1-5.3-5c-.5-.5-.2-1.3.4-1.4l7.3-1,3.3-6.5c.3-.6,1.1-.6,1.4,0l3.3,6.5,7.3,1c.7,0,.9,1,.4,1.4l-5.3,5,1.2,7.1c0,.7-.5,1.2-1.1.9l-6.6-3.4-6.6,3.4h.2Z"/>
    <path class="st0" d="M590.3,384.1c-.6.3-1.2-.2-1.1-.9l1.2-7.1-5.3-5c-.5-.5-.2-1.3.4-1.4l7.3-1,3.3-6.5c.3-.6,1.1-.6,1.4,0l3.3,6.5,7.3,1c.7,0,.9,1,.4,1.4l-5.3,5,1.2,7.1c0,.7-.5,1.2-1.1.9l-6.6-3.4-6.6,3.4h.2Z"/>
    <path class="st0" d="M628.7,384.1c-.6.3-1.2-.2-1.1-.9l1.2-7.1-5.3-5c-.5-.5-.2-1.3.4-1.4l7.3-1,3.3-6.5c.3-.6,1.1-.6,1.4,0l3.3,6.5,7.3,1c.7,0,.9,1,.4,1.4l-5.3,5,1.2,7.1c0,.7-.5,1.2-1.1.9l-6.6-3.4-6.6,3.4h.2Z"/>
    <path class="st0" d="M665.3,384.1c-.6.3-1.2-.2-1.1-.9l1.2-7.1-5.3-5c-.5-.5-.2-1.3.4-1.4l7.3-1,3.3-6.5c.3-.6,1.1-.6,1.4,0l3.3,6.5,7.3,1c.7,0,.9,1,.4,1.4l-5.3,5,1.2,7.1c0,.7-.5,1.2-1.1.9l-6.6-3.4-6.6,3.4h.2Z"/>
  </g>
</svg>