<?xml version="1.0" encoding="UTF-8"?>
<svg id="Layer_1" xmlns="http://www.w3.org/2000/svg" xmlns:xlink="http://www.w3.org/1999/xlink" version="1.1" viewBox="0 0 1183 459">
  <!-- Generator: Adobe Illustrator 29.2.1, SVG Export Plug-In . SVG Version: 2.1.0 Build 116)  -->
  <defs>
    <style>
      .st0 {
        fill: #213133;
        stroke: #000;
        stroke-miterlimit: 10;
      }

      .st1 {
        isolation: isolate;
      }

      .st2 {
        fill: #0896a6;
      }
    </style>
  </defs>
  <path class="st2" d="M224,137c2.3,0,4.2-1.9,4.2-4.2v-10.3c0-2.3-1.9-4.2-4.2-4.2h-5.8c0-1.5,0-2.9.3-4.4.3-1.6.7-2.9,1.3-4.2.6-1.2,1.4-2.2,2.4-2.9.9-.8,2.2-1.2,3.6-1.2v-6.5c-2.4,0-4.6.5-6.4,1.6-1.8,1-3.4,2.5-4.6,4.2-1.2,1.9-2.1,4-2.6,6.1-.5,2.4-.8,4.8-.8,7.3v14.5c0,2.3,1.9,4.2,4.2,4.2h8.4ZM198.8,137c2.3,0,4.2-1.9,4.2-4.2v-10.3c0-2.3-1.9-4.2-4.2-4.2h-5.8c0-1.5,0-2.9.3-4.4.3-1.6.7-2.9,1.3-4.2.6-1.2,1.4-2.2,2.4-2.9.9-.8,2.2-1.2,3.6-1.2v-6.5c-2.4,0-4.6.5-6.4,1.6-1.8,1-3.4,2.5-4.6,4.2-1.2,1.9-2.1,4-2.6,6.1-.5,2.4-.8,4.8-.8,7.3v14.5c0,2.3,1.9,4.2,4.2,4.2h8.4Z"/>
  <path class="st2" d="M958.6,94c-2.3,0-4.2,1.9-4.2,4.2v10.3c0,2.3,1.9,4.2,4.2,4.2h5.8c0,1.5,0,2.9-.3,4.4-.3,1.6-.7,2.9-1.3,4.2-.6,1.2-1.4,2.2-2.3,2.9-1,.8-2.2,1.2-3.7,1.2v6.5c2.4,0,4.6-.5,6.4-1.6,1.8-1,3.4-2.5,4.6-4.2,1.2-1.9,2.1-4,2.6-6.1.5-2.4.8-4.8.8-7.3v-14.5c0-2.3-1.9-4.2-4.2-4.2h-8.4,0ZM983.8,94c-2.3,0-4.2,1.9-4.2,4.2v10.3c0,2.3,1.9,4.2,4.2,4.2h5.8c0,1.5,0,2.9-.3,4.4-.3,1.6-.7,2.9-1.3,4.2-.6,1.2-1.4,2.2-2.3,2.9-1,.8-2.2,1.2-3.7,1.2v6.5c2.4,0,4.6-.5,6.4-1.6,1.8-1,3.4-2.5,4.6-4.2,1.2-1.9,2.1-4,2.6-6.1.5-2.4.8-4.8.8-7.3v-14.5c0-2.3-1.9-4.2-4.2-4.2h-8.4,0Z"/>
  <path class="st0" d="M523.2,380.2c-.6.3-1.2-.2-1.1-.9l1.2-7.1-5.3-5c-.5-.5-.2-1.3.4-1.4l7.3-1,3.3-6.5c.3-.6,1.1-.6,1.4,0l3.3,6.5,7.3,1c.7,0,.9,1,.4,1.4l-5.3,5,1.2,7.1c0,.7-.5,1.2-1.1.9l-6.6-3.4-6.6,3.4h.2Z"/>
  <path class="st0" d="M561.5,380.5c-.6.3-1.2-.2-1.1-.9l1.2-7.1-5.3-5c-.5-.5-.2-1.3.4-1.4l7.3-1,3.3-6.5c.3-.6,1.1-.6,1.4,0l3.3,6.5,7.3,1c.7,0,.9,1,.4,1.4l-5.3,5,1.2,7.1c0,.7-.5,1.2-1.1.9l-6.6-3.4-6.6,3.4h.2Z"/>
  <path class="st0" d="M599.9,380.5c-.6.3-1.2-.2-1.1-.9l1.2-7.1-5.3-5c-.5-.5-.2-1.3.4-1.4l7.3-1,3.3-6.5c.3-.6,1.1-.6,1.4,0l3.3,6.5,7.3,1c.7,0,.9,1,.4,1.4l-5.3,5,1.2,7.1c0,.7-.5,1.2-1.1.9l-6.6-3.4-6.6,3.4h.2Z"/>
  <path class="st0" d="M638.3,380.5c-.6.3-1.2-.2-1.1-.9l1.2-7.1-5.3-5c-.5-.5-.2-1.3.4-1.4l7.3-1,3.3-6.5c.3-.6,1.1-.6,1.4,0l3.3,6.5,7.3,1c.7,0,.9,1,.4,1.4l-5.3,5,1.2,7.1c0,.7-.5,1.2-1.1.9l-6.6-3.4-6.6,3.4h.2Z"/>
  <g>
    <g class="st1">
      <g class="st1">
        <g class="st1">
          <path d="M238.6,117.5v17.6h-3.3v-17.6h3.3ZM247,124.8v2.6h-9.3v-2.6h9.3ZM249.5,117.5v17.6h-3.3v-17.6h3.3Z"/>
          <path d="M252,128.7v-.3c0-1,.1-1.8.4-2.7.3-.8.7-1.5,1.2-2.1s1.2-1.1,1.9-1.4c.8-.3,1.6-.5,2.6-.5s1.9.2,2.6.5,1.4.8,1.9,1.4.9,1.3,1.2,2.1.4,1.7.4,2.7v.3c0,1-.1,1.8-.4,2.6s-.7,1.5-1.2,2.1-1.2,1.1-1.9,1.4c-.8.3-1.6.5-2.6.5s-1.8-.2-2.6-.5c-.8-.3-1.4-.8-1.9-1.4s-.9-1.3-1.2-2.1c-.3-.8-.4-1.7-.4-2.6ZM255.2,128.4v.3c0,.6,0,1.1.2,1.6.1.5.3.9.5,1.3.2.4.5.7.9.9.4.2.8.3,1.3.3s1-.1,1.3-.3c.4-.2.7-.5.9-.9s.4-.8.5-1.3c.1-.5.2-1,.2-1.6v-.3c0-.6,0-1.1-.2-1.6-.1-.5-.3-.9-.5-1.3s-.5-.7-.9-.9-.8-.3-1.3-.3-1,.1-1.3.3-.7.5-.9.9c-.2.4-.4.8-.5,1.3-.1.5-.2,1-.2,1.6Z"/>
          <path d="M269.8,124.8v10.3h-3.2v-13.1h3l.2,2.8ZM269.3,128.1h-.9c0-1,.1-1.8.4-2.6s.6-1.4,1.1-2,1-1,1.6-1.3c.6-.3,1.3-.4,2.1-.4s1.2,0,1.7.3.9.5,1.3.8c.4.4.6.9.8,1.5.2.6.3,1.4.3,2.3v8.4h-3.2v-8.4c0-.6,0-1.1-.3-1.4-.2-.3-.4-.6-.8-.7-.3-.1-.7-.2-1.2-.2s-.9,0-1.3.3c-.4.2-.7.5-.9.8-.2.3-.4.7-.6,1.2-.1.5-.2.9-.2,1.5Z"/>
          <path d="M286.3,135.3c-1,0-1.9-.2-2.7-.5s-1.5-.8-2-1.3-1-1.2-1.3-2c-.3-.8-.4-1.6-.4-2.5v-.5c0-1,.1-1.9.4-2.8.3-.8.7-1.5,1.2-2.1.5-.6,1.2-1.1,1.9-1.4.7-.3,1.6-.5,2.5-.5s1.7.2,2.5.5c.7.3,1.3.7,1.8,1.3.5.6.8,1.2,1.1,2,.2.8.4,1.7.4,2.6v1.3h-10.3v-2.2h7.1v-.2c0-.5-.1-1-.3-1.4s-.5-.8-.8-1c-.4-.3-.9-.4-1.4-.4s-.9.1-1.2.3-.6.5-.9.9c-.2.4-.4.8-.5,1.3-.1.5-.2,1.1-.2,1.7v.5c0,.5,0,1.1.2,1.5.1.5.4.9.7,1.2.3.3.6.6,1.1.8s.9.3,1.4.3,1.3-.1,1.8-.4c.5-.3,1-.7,1.4-1.2l1.6,1.7c-.3.4-.6.8-1.1,1.2-.5.4-1,.7-1.7.9-.7.2-1.4.3-2.3.3Z"/>
          <path d="M301,131.5c0-.3,0-.5-.2-.7-.1-.2-.4-.4-.8-.6-.4-.2-1-.4-1.7-.5-.7-.1-1.3-.3-1.9-.5s-1.1-.5-1.5-.8c-.4-.3-.7-.7-1-1.1-.2-.4-.3-.9-.3-1.5s.1-1,.4-1.5c.2-.5.6-.9,1-1.3.4-.4,1-.7,1.6-.9.6-.2,1.4-.3,2.2-.3s2.1.2,2.9.5c.8.4,1.4.9,1.8,1.5s.6,1.3.6,2.1h-3.2c0-.3,0-.7-.2-.9-.2-.3-.4-.5-.7-.7s-.7-.3-1.2-.3-.8,0-1.1.2c-.3.1-.5.3-.7.6-.2.2-.2.5-.2.8s0,.4.1.6c0,.2.2.3.4.5s.5.3.8.4.7.2,1.2.3c1,.2,1.8.4,2.6.8.7.3,1.3.7,1.7,1.3.4.5.6,1.2.6,2s-.1,1.1-.4,1.6c-.2.5-.6.9-1.1,1.3-.5.4-1,.6-1.7.8-.7.2-1.4.3-2.2.3-1.2,0-2.2-.2-3-.6s-1.5-1-1.9-1.6-.6-1.4-.6-2.1h3.1c0,.5.2.9.4,1.2.2.3.6.5.9.7.4.1.8.2,1.2.2s.9,0,1.2-.2c.3-.1.6-.3.8-.5.2-.2.3-.5.3-.8Z"/>
          <path d="M312.7,122v2.3h-7.5v-2.3h7.5ZM307.2,118.8h3.2v12.5c0,.4,0,.7.2.9.1.2.3.4.5.4.2,0,.5.1.7.1s.4,0,.6,0c.2,0,.3,0,.4,0v2.4c-.3,0-.6.2-.9.2-.3,0-.7,0-1.1,0-.7,0-1.3-.1-1.9-.4-.5-.2-1-.6-1.3-1.2-.3-.6-.4-1.3-.4-2.2v-12.8Z"/>
          <path d="M321,116.5h3.2v15.7l-.3,2.9h-2.9v-18.6ZM332.6,128.4v.3c0,1-.1,1.9-.3,2.7-.2.8-.5,1.5-1,2.1-.4.6-1,1.1-1.6,1.4-.6.3-1.4.5-2.2.5s-1.5-.2-2.1-.5c-.6-.3-1.1-.8-1.5-1.3-.4-.6-.7-1.3-1-2-.2-.8-.4-1.6-.5-2.6v-.7c.1-.9.3-1.8.5-2.6.2-.8.6-1.5,1-2,.4-.6.9-1,1.5-1.3s1.3-.5,2.1-.5,1.6.2,2.2.5,1.2.8,1.6,1.4c.4.6.7,1.3,1,2.1.2.8.3,1.7.3,2.7ZM329.4,128.7v-.3c0-.6,0-1.1-.1-1.6,0-.5-.2-.9-.4-1.3-.2-.4-.5-.7-.8-.9s-.8-.3-1.3-.3-.9,0-1.3.3c-.4.2-.6.4-.9.7-.2.3-.4.6-.5,1.1-.1.4-.2.8-.2,1.3v1.9c0,.6.2,1.2.4,1.7.2.5.5.9.9,1.2.4.3,1,.4,1.6.4s.9-.1,1.3-.3.6-.5.8-.9c.2-.4.3-.8.4-1.3s.1-1,.1-1.6Z"/>
          <path d="M343.1,129.3h1c0,.9,0,1.7-.3,2.4-.2.7-.5,1.4-.9,1.9-.4.5-.9,1-1.5,1.3s-1.4.5-2.2.5-1.2,0-1.8-.3c-.5-.2-1-.5-1.4-.9s-.7-.9-.9-1.5c-.2-.6-.3-1.4-.3-2.2v-8.5h3.2v8.5c0,.4,0,.8.2,1.1.1.3.2.5.4.7.2.2.4.3.6.4.2,0,.5.1.8.1.8,0,1.4-.2,1.8-.5.4-.3.8-.7,1-1.3.2-.5.3-1.1.3-1.8ZM342.7,132v-10h3.2v13.1h-3l-.2-3.1Z"/>
          <path d="M355.9,131.5c0-.3,0-.5-.2-.7-.1-.2-.4-.4-.8-.6-.4-.2-1-.4-1.7-.5-.7-.1-1.3-.3-1.9-.5s-1.1-.5-1.5-.8c-.4-.3-.7-.7-1-1.1-.2-.4-.3-.9-.3-1.5s.1-1,.4-1.5c.2-.5.6-.9,1-1.3.4-.4,1-.7,1.6-.9.6-.2,1.4-.3,2.2-.3s2.1.2,2.9.5c.8.4,1.4.9,1.8,1.5s.6,1.3.6,2.1h-3.2c0-.3,0-.7-.2-.9-.2-.3-.4-.5-.7-.7s-.7-.3-1.2-.3-.8,0-1.1.2c-.3.1-.5.3-.7.6-.2.2-.2.5-.2.8s0,.4.1.6c0,.2.2.3.4.5s.5.3.8.4.7.2,1.2.3c1,.2,1.8.4,2.6.8.7.3,1.3.7,1.7,1.3.4.5.6,1.2.6,2s-.1,1.1-.4,1.6c-.2.5-.6.9-1.1,1.3-.5.4-1,.6-1.7.8-.7.2-1.4.3-2.2.3-1.2,0-2.2-.2-3-.6s-1.5-1-1.9-1.6-.6-1.4-.6-2.1h3.1c0,.5.2.9.4,1.2.2.3.6.5.9.7.4.1.8.2,1.2.2s.9,0,1.2-.2c.3-.1.6-.3.8-.5.2-.2.3-.5.3-.8Z"/>
          <path d="M361.4,118.6c0-.5.2-.9.5-1.2.3-.3.8-.5,1.3-.5s1,.2,1.3.5c.3.3.5.7.5,1.2s-.2.9-.5,1.2c-.3.3-.8.5-1.3.5s-1-.2-1.3-.5c-.3-.3-.5-.7-.5-1.2ZM364.9,122v13.1h-3.2v-13.1h3.2Z"/>
          <path d="M371,124.8v10.3h-3.2v-13.1h3l.2,2.8ZM370.5,128.1h-.9c0-1,.1-1.8.4-2.6s.6-1.4,1.1-2,1-1,1.6-1.3c.6-.3,1.3-.4,2.1-.4s1.2,0,1.7.3.9.5,1.3.8c.4.4.6.9.8,1.5.2.6.3,1.4.3,2.3v8.4h-3.2v-8.4c0-.6,0-1.1-.3-1.4-.2-.3-.4-.6-.8-.7-.3-.1-.7-.2-1.2-.2s-.9,0-1.3.3c-.4.2-.7.5-.9.8-.2.3-.4.7-.6,1.2-.1.5-.2.9-.2,1.5Z"/>
          <path d="M387.6,135.3c-1,0-1.9-.2-2.7-.5s-1.5-.8-2-1.3-1-1.2-1.3-2c-.3-.8-.4-1.6-.4-2.5v-.5c0-1,.1-1.9.4-2.8.3-.8.7-1.5,1.2-2.1.5-.6,1.2-1.1,1.9-1.4.7-.3,1.6-.5,2.5-.5s1.7.2,2.5.5c.7.3,1.3.7,1.8,1.3.5.6.8,1.2,1.1,2,.2.8.4,1.7.4,2.6v1.3h-10.3v-2.2h7.1v-.2c0-.5-.1-1-.3-1.4s-.5-.8-.8-1c-.4-.3-.9-.4-1.4-.4s-.9.1-1.2.3-.6.5-.9.9c-.2.4-.4.8-.5,1.3-.1.5-.2,1.1-.2,1.7v.5c0,.5,0,1.1.2,1.5.1.5.4.9.7,1.2.3.3.6.6,1.1.8s.9.3,1.4.3,1.3-.1,1.8-.4c.5-.3,1-.7,1.4-1.2l1.6,1.7c-.3.4-.6.8-1.1,1.2-.5.4-1,.7-1.7.9-.7.2-1.4.3-2.3.3Z"/>
          <path d="M402.3,131.5c0-.3,0-.5-.2-.7-.1-.2-.4-.4-.8-.6-.4-.2-1-.4-1.7-.5-.7-.1-1.3-.3-1.9-.5s-1.1-.5-1.5-.8c-.4-.3-.7-.7-1-1.1-.2-.4-.3-.9-.3-1.5s.1-1,.4-1.5c.2-.5.6-.9,1-1.3.4-.4,1-.7,1.6-.9.6-.2,1.4-.3,2.2-.3s2.1.2,2.9.5c.8.4,1.4.9,1.8,1.5s.6,1.3.6,2.1h-3.2c0-.3,0-.7-.2-.9-.2-.3-.4-.5-.7-.7s-.7-.3-1.2-.3-.8,0-1.1.2c-.3.1-.5.3-.7.6-.2.2-.2.5-.2.8s0,.4.1.6c0,.2.2.3.4.5s.5.3.8.4.7.2,1.2.3c1,.2,1.8.4,2.6.8.7.3,1.3.7,1.7,1.3.4.5.6,1.2.6,2s-.1,1.1-.4,1.6c-.2.5-.6.9-1.1,1.3-.5.4-1,.6-1.7.8-.7.2-1.4.3-2.2.3-1.2,0-2.2-.2-3-.6s-1.5-1-1.9-1.6-.6-1.4-.6-2.1h3.1c0,.5.2.9.4,1.2.2.3.6.5.9.7.4.1.8.2,1.2.2s.9,0,1.2-.2c.3-.1.6-.3.8-.5.2-.2.3-.5.3-.8Z"/>
          <path d="M415,131.5c0-.3,0-.5-.2-.7-.1-.2-.4-.4-.8-.6-.4-.2-1-.4-1.7-.5-.7-.1-1.3-.3-1.9-.5s-1.1-.5-1.5-.8c-.4-.3-.7-.7-1-1.1-.2-.4-.3-.9-.3-1.5s.1-1,.4-1.5c.2-.5.6-.9,1-1.3.4-.4,1-.7,1.6-.9.6-.2,1.4-.3,2.2-.3s2.1.2,2.9.5c.8.4,1.4.9,1.8,1.5s.6,1.3.6,2.1h-3.2c0-.3,0-.7-.2-.9-.2-.3-.4-.5-.7-.7s-.7-.3-1.2-.3-.8,0-1.1.2c-.3.1-.5.3-.7.6-.2.2-.2.5-.2.8s0,.4.1.6c0,.2.2.3.4.5s.5.3.8.4.7.2,1.2.3c1,.2,1.8.4,2.6.8.7.3,1.3.7,1.7,1.3.4.5.6,1.2.6,2s-.1,1.1-.4,1.6c-.2.5-.6.9-1.1,1.3-.5.4-1,.6-1.7.8-.7.2-1.4.3-2.2.3-1.2,0-2.2-.2-3-.6s-1.5-1-1.9-1.6-.6-1.4-.6-2.1h3.1c0,.5.2.9.4,1.2.2.3.6.5.9.7.4.1.8.2,1.2.2s.9,0,1.2-.2c.3-.1.6-.3.8-.5.2-.2.3-.5.3-.8Z"/>
          <path d="M420.7,133.5c0-.5.2-.9.5-1.2s.8-.5,1.3-.5,1,.2,1.3.5.5.7.5,1.2-.2.9-.5,1.2c-.3.3-.8.5-1.3.5s-1-.2-1.3-.5c-.3-.3-.5-.7-.5-1.2Z"/>
          <path d="M446.4,117.5v2.6h-14.2v-2.6h14.2ZM440.9,117.5v17.6h-3.3v-17.6h3.3Z"/>
          <path d="M451.5,116.5v18.6h-3.2v-18.6h3.2ZM451,128.1h-.9c0-.9.1-1.7.4-2.5.2-.8.6-1.4,1-2,.4-.6,1-1,1.6-1.3s1.3-.5,2-.5,1.2,0,1.8.3c.5.2,1,.5,1.4.9s.7.9.9,1.5.3,1.4.3,2.3v8.3h-3.2v-8.4c0-.6,0-1.1-.3-1.4-.2-.4-.4-.6-.8-.8-.3-.2-.7-.2-1.2-.2s-1,0-1.3.3c-.4.2-.7.5-.9.8s-.4.7-.5,1.2c-.1.5-.2.9-.2,1.5Z"/>
          <path d="M468,135.3c-1,0-1.9-.2-2.7-.5s-1.5-.8-2-1.3-1-1.2-1.3-2c-.3-.8-.4-1.6-.4-2.5v-.5c0-1,.1-1.9.4-2.8.3-.8.7-1.5,1.2-2.1.5-.6,1.2-1.1,1.9-1.4.7-.3,1.6-.5,2.5-.5s1.7.2,2.5.5c.7.3,1.3.7,1.8,1.3.5.6.8,1.2,1.1,2,.2.8.4,1.7.4,2.6v1.3h-10.3v-2.2h7.1v-.2c0-.5-.1-1-.3-1.4s-.5-.8-.8-1c-.4-.3-.9-.4-1.4-.4s-.9.1-1.2.3-.6.5-.9.9c-.2.4-.4.8-.5,1.3-.1.5-.2,1.1-.2,1.7v.5c0,.5,0,1.1.2,1.5.1.5.4.9.7,1.2.3.3.6.6,1.1.8s.9.3,1.4.3,1.3-.1,1.8-.4c.5-.3,1-.7,1.4-1.2l1.6,1.7c-.3.4-.6.8-1.1,1.2-.5.4-1,.7-1.7.9-.7.2-1.4.3-2.3.3Z"/>
          <path d="M477.4,122l3,9.6.5,3.4-2.2.4-4.7-13.4h3.4ZM479.2,133.7l3.5-11.6h3.4l-5.2,15.1c-.1.3-.3.7-.5,1.1-.2.4-.4.7-.8,1.1-.3.3-.7.6-1.2.8-.5.2-1,.3-1.7.3s-.5,0-.8,0c-.2,0-.5,0-.7-.2v-2.4c0,0,.2,0,.3,0,.1,0,.2,0,.3,0,.5,0,.9,0,1.2-.2.3-.1.6-.3.7-.5s.3-.5.5-.9l1-2.5Z"/>
          <path d="M493.3,128.7v-.3c0-1,.1-1.9.4-2.7.2-.8.6-1.5,1-2.1.5-.6,1-1,1.7-1.4s1.4-.5,2.2-.5,1.6.2,2.2.5c.6.3,1.1.8,1.5,1.3.4.6.7,1.3.9,2.1.2.8.4,1.7.5,2.6v.7c-.1.9-.3,1.8-.5,2.6-.2.8-.6,1.4-1,2-.4.6-.9,1-1.5,1.3-.6.3-1.3.5-2.1.5s-1.5-.2-2.2-.5-1.2-.8-1.7-1.4c-.5-.6-.8-1.3-1-2.1-.2-.8-.4-1.7-.4-2.6ZM502.1,122h2.9v12.7c0,1.2-.3,2.2-.8,3-.5.8-1.2,1.5-2.1,1.9s-2,.6-3.2.6-1.1,0-1.7-.2c-.6-.1-1.2-.4-1.8-.7-.6-.3-1-.7-1.4-1.2l1.4-1.9c.4.5.9.9,1.5,1.2.5.3,1.1.4,1.8.4s1.2-.1,1.7-.4c.5-.2.8-.6,1.1-1,.2-.5.4-1,.4-1.7v-9.7l.3-3ZM496.4,128.5v.3c0,.6,0,1.1.2,1.6s.3.9.5,1.3.5.7.9.9c.4.2.8.3,1.3.3s1.2-.1,1.6-.4c.4-.3.7-.7,1-1.1.2-.5.4-1,.4-1.7v-1.9c0-.5-.1-.9-.3-1.3s-.3-.8-.6-1.1-.5-.5-.9-.7c-.4-.2-.8-.3-1.3-.3s-.9.1-1.3.3c-.4.2-.7.5-.9.9-.2.4-.4.8-.5,1.3-.1.5-.2,1-.2,1.6Z"/>
          <path d="M515.5,127.1v1.9s-2,0-2,0c-.5,0-.9,0-1.3.2-.4.1-.7.2-.9.4s-.4.4-.5.7c-.1.3-.2.6-.2.9s0,.6.2.9c.1.3.4.5.7.6.3.1.6.2,1,.2.6,0,1.1-.1,1.5-.3.4-.2.7-.5,1-.8s.4-.6.4-.9l.9,1.4c-.1.3-.3.7-.5,1.1-.2.4-.5.7-.9,1-.4.3-.8.6-1.3.8-.5.2-1.1.3-1.7.3s-1.6-.2-2.3-.5c-.7-.3-1.2-.8-1.6-1.4-.4-.6-.6-1.3-.6-2s.1-1.3.4-1.8c.3-.5.6-1,1.1-1.3s1.1-.6,1.9-.8,1.6-.3,2.6-.3h2.2ZM515.1,132.3v-6c0-.4,0-.8-.2-1.1-.2-.3-.4-.6-.7-.7s-.7-.3-1.2-.3-.8,0-1.1.2c-.3.1-.6.3-.7.6-.2.3-.3.6-.3.9h-3.2c0-.5.1-1.1.4-1.5.3-.5.6-.9,1.1-1.3.5-.4,1.1-.7,1.7-.9.7-.2,1.4-.3,2.3-.3s1.9.2,2.7.5,1.4.8,1.8,1.5.7,1.5.7,2.5v5.7c0,.7,0,1.2.1,1.7,0,.5.2.9.4,1.2v.2h-3.3c-.2-.3-.3-.8-.4-1.3,0-.5-.1-1-.1-1.5Z"/>
          <path d="M523.1,122l3.1,10.7v2.4c.1,0-1.9,0-1.9,0l-4.5-13.1h3.3ZM525.3,132.7l3-10.7h3.3l-4.5,13.1h-2v-2.4Z"/>
          <path d="M539.1,135.3c-1,0-1.9-.2-2.7-.5s-1.5-.8-2-1.3-1-1.2-1.3-2c-.3-.8-.4-1.6-.4-2.5v-.5c0-1,.1-1.9.4-2.8.3-.8.7-1.5,1.2-2.1.5-.6,1.2-1.1,1.9-1.4.7-.3,1.6-.5,2.5-.5s1.7.2,2.5.5c.7.3,1.3.7,1.8,1.3.5.6.8,1.2,1.1,2,.2.8.4,1.7.4,2.6v1.3h-10.3v-2.2h7.1v-.2c0-.5-.1-1-.3-1.4s-.5-.8-.8-1c-.4-.3-.9-.4-1.4-.4s-.9.1-1.2.3-.6.5-.9.9c-.2.4-.4.8-.5,1.3-.1.5-.2,1.1-.2,1.7v.5c0,.5,0,1.1.2,1.5.1.5.4.9.7,1.2.3.3.6.6,1.1.8s.9.3,1.4.3,1.3-.1,1.8-.4c.5-.3,1-.7,1.4-1.2l1.6,1.7c-.3.4-.6.8-1.1,1.2-.5.4-1,.7-1.7.9-.7.2-1.4.3-2.3.3Z"/>
          <path d="M558.1,132.8c.5,0,.9,0,1.2-.3.4-.2.6-.4.9-.8.2-.3.3-.7.3-1.1h3c0,.9-.3,1.7-.7,2.4-.5.7-1.1,1.3-1.9,1.7-.8.4-1.7.6-2.7.6s-1.9-.2-2.6-.5c-.7-.3-1.4-.8-1.9-1.4-.5-.6-.9-1.3-1.1-2.1-.2-.8-.4-1.7-.4-2.6v-.4c0-.9.1-1.8.4-2.6.2-.8.6-1.5,1.1-2.1.5-.6,1.1-1.1,1.9-1.4.8-.3,1.6-.5,2.6-.5s2,.2,2.8.6c.8.4,1.4,1,1.9,1.7.5.7.7,1.6.7,2.6h-3c0-.5-.1-.9-.3-1.3-.2-.4-.5-.7-.8-.9-.4-.2-.8-.3-1.3-.3s-1,.1-1.3.3c-.4.2-.6.5-.8.9-.2.4-.3.8-.4,1.3s-.1,1-.1,1.5v.4c0,.5,0,1,.1,1.5,0,.5.2.9.4,1.3.2.4.5.7.8.9.4.2.8.3,1.4.3Z"/>
          <path d="M569,116.5v18.6h-3.2v-18.6h3.2Z"/>
          <path d="M577.9,135.3c-1,0-1.9-.2-2.7-.5s-1.5-.8-2-1.3-1-1.2-1.3-2c-.3-.8-.4-1.6-.4-2.5v-.5c0-1,.1-1.9.4-2.8.3-.8.7-1.5,1.2-2.1.5-.6,1.2-1.1,1.9-1.4.7-.3,1.6-.5,2.5-.5s1.7.2,2.5.5c.7.3,1.3.7,1.8,1.3.5.6.8,1.2,1.1,2,.2.8.4,1.7.4,2.6v1.3h-10.3v-2.2h7.1v-.2c0-.5-.1-1-.3-1.4s-.5-.8-.8-1c-.4-.3-.9-.4-1.4-.4s-.9.1-1.2.3-.6.5-.9.9c-.2.4-.4.8-.5,1.3-.1.5-.2,1.1-.2,1.7v.5c0,.5,0,1.1.2,1.5.1.5.4.9.7,1.2.3.3.6.6,1.1.8s.9.3,1.4.3,1.3-.1,1.8-.4c.5-.3,1-.7,1.4-1.2l1.6,1.7c-.3.4-.6.8-1.1,1.2-.5.4-1,.7-1.7.9-.7.2-1.4.3-2.3.3Z"/>
          <path d="M593,127.1v1.9s-2,0-2,0c-.5,0-.9,0-1.3.2-.4.1-.7.2-.9.4s-.4.4-.5.7c-.1.3-.2.6-.2.9s0,.6.2.9c.1.3.4.5.7.6.3.1.6.2,1,.2.6,0,1.1-.1,1.5-.3.4-.2.7-.5,1-.8.2-.3.4-.6.4-.9l.9,1.4c-.1.3-.3.7-.5,1.1-.2.4-.5.7-.9,1-.4.3-.8.6-1.3.8-.5.2-1.1.3-1.7.3s-1.6-.2-2.3-.5c-.7-.3-1.2-.8-1.6-1.4-.4-.6-.6-1.3-.6-2s.1-1.3.4-1.8c.3-.5.6-1,1.1-1.3s1.1-.6,1.9-.8,1.6-.3,2.6-.3h2.2ZM592.6,132.3v-6c0-.4,0-.8-.2-1.1-.2-.3-.4-.6-.7-.7s-.7-.3-1.2-.3-.8,0-1.1.2c-.3.1-.6.3-.7.6-.2.3-.3.6-.3.9h-3.2c0-.5.1-1.1.4-1.5.3-.5.6-.9,1.1-1.3.5-.4,1.1-.7,1.7-.9.7-.2,1.4-.3,2.3-.3s1.9.2,2.7.5c.8.3,1.4.8,1.8,1.5s.7,1.5.7,2.5v5.7c0,.7,0,1.2.1,1.7,0,.5.2.9.4,1.2v.2h-3.3c-.2-.3-.3-.8-.4-1.3,0-.5-.1-1-.1-1.5Z"/>
          <path d="M601.9,124.7v10.4h-3.2v-13.1h3l.2,2.7ZM605.8,121.9v3c-.2,0-.4,0-.6,0s-.4,0-.6,0c-.5,0-.9,0-1.3.2-.4.1-.7.3-.9.6-.2.2-.4.6-.6.9-.1.4-.2.8-.2,1.2h-.7c0-.9,0-1.7.3-2.4.2-.7.4-1.3.7-1.9.3-.5.7-.9,1.2-1.2.5-.3,1-.4,1.7-.4s.4,0,.6,0c.2,0,.4,0,.5.1Z"/>
          <path d="M619.6,135.3c-1,0-1.9-.2-2.7-.5s-1.5-.8-2-1.3c-.6-.6-1-1.2-1.3-2-.3-.8-.4-1.6-.4-2.5v-.5c0-1,.1-1.9.4-2.8.3-.8.7-1.5,1.2-2.1.5-.6,1.2-1.1,1.9-1.4.7-.3,1.6-.5,2.5-.5s1.7.2,2.5.5c.7.3,1.3.7,1.8,1.3.5.6.8,1.2,1.1,2,.2.8.4,1.7.4,2.6v1.3h-10.3v-2.2h7.1v-.2c0-.5-.1-1-.3-1.4-.2-.4-.5-.8-.8-1-.4-.3-.9-.4-1.4-.4s-.9.1-1.2.3-.6.5-.9.9c-.2.4-.4.8-.5,1.3-.1.5-.2,1.1-.2,1.7v.5c0,.5,0,1.1.2,1.5.1.5.4.9.7,1.2.3.3.6.6,1.1.8s.9.3,1.4.3,1.3-.1,1.8-.4c.5-.3,1-.7,1.4-1.2l1.6,1.7c-.3.4-.6.8-1.1,1.2-.5.4-1,.7-1.7.9-.7.2-1.4.3-2.3.3Z"/>
          <path d="M629.6,122l2.3,4.2,2.4-4.2h3.5l-3.8,6.4,4,6.7h-3.5l-2.5-4.4-2.5,4.4h-3.5l4-6.7-3.8-6.4h3.5Z"/>
          <path d="M642.8,124.5v15.6h-3.2v-18.1h3l.2,2.5ZM651.2,128.4v.3c0,1-.1,1.8-.3,2.6-.2.8-.5,1.5-1,2.1-.4.6-1,1.1-1.6,1.4-.6.3-1.4.5-2.2.5s-1.5-.2-2.1-.5c-.6-.3-1.1-.8-1.5-1.3-.4-.6-.7-1.2-1-2s-.4-1.6-.5-2.5v-.8c.1-1,.3-1.8.5-2.6.2-.8.6-1.5,1-2,.4-.6.9-1,1.5-1.3.6-.3,1.3-.5,2.1-.5s1.6.2,2.2.5c.6.3,1.2.8,1.6,1.4.4.6.8,1.3,1,2.1.2.8.3,1.7.3,2.7ZM648,128.7v-.3c0-.6,0-1.1-.2-1.6s-.3-.9-.5-1.3c-.2-.4-.5-.7-.8-.9-.3-.2-.8-.3-1.3-.3s-.9,0-1.3.2c-.4.2-.6.4-.9.7-.2.3-.4.7-.5,1.1s-.2.9-.2,1.3v2c0,.6.2,1.1.4,1.6s.5.9.9,1.1.9.4,1.6.4.9-.1,1.3-.3.6-.5.8-.9.4-.8.5-1.3c0-.5.1-1,.1-1.6Z"/>
          <path d="M656.9,116.5v18.6h-3.2v-18.6h3.2Z"/>
          <path d="M667.6,127.1v1.9s-2,0-2,0c-.5,0-.9,0-1.3.2-.4.1-.7.2-.9.4s-.4.4-.5.7c-.1.3-.2.6-.2.9s0,.6.2.9.4.5.7.6c.3.1.6.2,1,.2.6,0,1.1-.1,1.5-.3.4-.2.7-.5,1-.8s.4-.6.4-.9l.9,1.4c-.1.3-.3.7-.5,1.1-.2.4-.5.7-.9,1-.4.3-.8.6-1.3.8-.5.2-1.1.3-1.7.3s-1.6-.2-2.3-.5c-.7-.3-1.2-.8-1.6-1.4-.4-.6-.6-1.3-.6-2s.1-1.3.4-1.8c.3-.5.6-1,1.1-1.3s1.1-.6,1.9-.8,1.6-.3,2.6-.3h2.2ZM667.2,132.3v-6c0-.4,0-.8-.2-1.1-.2-.3-.4-.6-.7-.7s-.7-.3-1.2-.3-.8,0-1.1.2-.6.3-.7.6c-.2.3-.3.6-.3.9h-3.2c0-.5.1-1.1.4-1.5s.6-.9,1.1-1.3,1.1-.7,1.7-.9,1.4-.3,2.3-.3,1.9.2,2.7.5,1.4.8,1.8,1.5.7,1.5.7,2.5v5.7c0,.7,0,1.2.1,1.7,0,.5.2.9.4,1.2v.2h-3.3c-.2-.3-.3-.8-.4-1.3,0-.5-.1-1-.1-1.5Z"/>
          <path d="M676.4,124.8v10.3h-3.2v-13.1h3l.2,2.8ZM675.9,128.1h-.9c0-1,.1-1.8.4-2.6.2-.8.6-1.4,1.1-2s1-1,1.6-1.3c.6-.3,1.3-.4,2.1-.4s1.2,0,1.7.3c.5.2.9.5,1.3.8.4.4.6.9.8,1.5.2.6.3,1.4.3,2.3v8.4h-3.2v-8.4c0-.6,0-1.1-.3-1.4-.2-.3-.4-.6-.7-.7-.3-.1-.7-.2-1.2-.2s-.9,0-1.3.3c-.4.2-.7.5-.9.8s-.4.7-.6,1.2c-.1.5-.2.9-.2,1.5Z"/>
          <path d="M694.7,127.1v1.9s-2,0-2,0c-.5,0-.9,0-1.3.2-.4.1-.7.2-.9.4s-.4.4-.5.7c-.1.3-.2.6-.2.9s0,.6.2.9.4.5.7.6c.3.1.6.2,1,.2.6,0,1.1-.1,1.5-.3.4-.2.7-.5,1-.8s.4-.6.4-.9l.9,1.4c-.1.3-.3.7-.5,1.1-.2.4-.5.7-.9,1-.4.3-.8.6-1.3.8-.5.2-1.1.3-1.7.3s-1.6-.2-2.3-.5c-.7-.3-1.2-.8-1.6-1.4-.4-.6-.6-1.3-.6-2s.1-1.3.4-1.8c.3-.5.6-1,1.1-1.3s1.1-.6,1.9-.8,1.6-.3,2.6-.3h2.2ZM694.3,132.3v-6c0-.4,0-.8-.2-1.1-.2-.3-.4-.6-.7-.7s-.7-.3-1.2-.3-.8,0-1.1.2-.6.3-.7.6c-.2.3-.3.6-.3.9h-3.2c0-.5.1-1.1.4-1.5s.6-.9,1.1-1.3,1.1-.7,1.7-.9,1.4-.3,2.3-.3,1.9.2,2.7.5,1.4.8,1.8,1.5.7,1.5.7,2.5v5.7c0,.7,0,1.2.1,1.7,0,.5.2.9.4,1.2v.2h-3.3c-.2-.3-.3-.8-.4-1.3,0-.5-.1-1-.1-1.5Z"/>
          <path d="M706.6,122v2.3h-7.5v-2.3h7.5ZM701.1,118.8h3.2v12.5c0,.4,0,.7.2.9.1.2.3.4.5.4.2,0,.5.1.8.1s.4,0,.6,0c.2,0,.3,0,.4,0v2.4c-.3,0-.6.2-.9.2-.3,0-.7,0-1.1,0-.7,0-1.3-.1-1.9-.4s-1-.6-1.3-1.2c-.3-.6-.4-1.3-.4-2.2v-12.8Z"/>
          <path d="M708.7,118.6c0-.5.2-.9.5-1.2.3-.3.8-.5,1.3-.5s1,.2,1.3.5c.3.3.5.7.5,1.2s-.2.9-.5,1.2c-.3.3-.8.5-1.3.5s-1-.2-1.3-.5c-.3-.3-.5-.7-.5-1.2ZM712.1,122v13.1h-3.2v-13.1h3.2Z"/>
          <path d="M714.6,128.7v-.3c0-1,.1-1.8.4-2.7.3-.8.7-1.5,1.2-2.1.5-.6,1.2-1.1,1.9-1.4s1.6-.5,2.6-.5,1.9.2,2.6.5,1.4.8,1.9,1.4c.5.6.9,1.3,1.2,2.1.3.8.4,1.7.4,2.7v.3c0,1-.1,1.8-.4,2.6-.3.8-.7,1.5-1.2,2.1-.5.6-1.2,1.1-1.9,1.4s-1.6.5-2.6.5-1.8-.2-2.6-.5-1.4-.8-1.9-1.4c-.5-.6-.9-1.3-1.2-2.1-.3-.8-.4-1.7-.4-2.6ZM717.8,128.4v.3c0,.6,0,1.1.2,1.6.1.5.3.9.5,1.3.2.4.5.7.9.9.4.2.8.3,1.3.3s1-.1,1.3-.3c.4-.2.7-.5.9-.9.2-.4.4-.8.5-1.3.1-.5.2-1,.2-1.6v-.3c0-.6,0-1.1-.2-1.6-.1-.5-.3-.9-.5-1.3-.2-.4-.5-.7-.9-.9s-.8-.3-1.3-.3-1,.1-1.3.3c-.4.2-.7.5-.9.9-.2.4-.4.8-.5,1.3-.1.5-.2,1-.2,1.6Z"/>
          <path d="M732.3,124.8v10.3h-3.2v-13.1h3l.2,2.8ZM731.8,128.1h-.9c0-1,.1-1.8.4-2.6.2-.8.6-1.4,1.1-2s1-1,1.6-1.3c.6-.3,1.3-.4,2.1-.4s1.2,0,1.7.3c.5.2.9.5,1.3.8.4.4.6.9.8,1.5.2.6.3,1.4.3,2.3v8.4h-3.2v-8.4c0-.6,0-1.1-.3-1.4-.2-.3-.4-.6-.7-.7-.3-.1-.7-.2-1.2-.2s-.9,0-1.3.3c-.4.2-.7.5-.9.8s-.4.7-.6,1.2c-.1.5-.2.9-.2,1.5Z"/>
          <path d="M755,135.3c-1,0-1.9-.2-2.7-.5s-1.5-.8-2-1.3c-.6-.6-1-1.2-1.3-2-.3-.8-.4-1.6-.4-2.5v-.5c0-1,.1-1.9.4-2.8.3-.8.7-1.5,1.2-2.1.5-.6,1.2-1.1,1.9-1.4.7-.3,1.6-.5,2.5-.5s1.7.2,2.5.5c.7.3,1.3.7,1.8,1.3.5.6.8,1.2,1.1,2,.2.8.4,1.7.4,2.6v1.3h-10.3v-2.2h7.1v-.2c0-.5-.1-1-.3-1.4-.2-.4-.5-.8-.8-1s-.9-.4-1.4-.4-.9.1-1.2.3c-.4.2-.6.5-.9.9-.2.4-.4.8-.5,1.3-.1.5-.2,1.1-.2,1.7v.5c0,.5,0,1.1.2,1.5.1.5.4.9.7,1.2.3.3.6.6,1.1.8s.9.3,1.4.3,1.3-.1,1.8-.4c.5-.3,1-.7,1.4-1.2l1.6,1.7c-.3.4-.6.8-1.1,1.2s-1,.7-1.7.9c-.7.2-1.4.3-2.3.3Z"/>
          <path d="M764.4,122l3.1,10.7v2.4c.1,0-1.9,0-1.9,0l-4.5-13.1h3.3ZM766.7,132.7l3-10.7h3.3l-4.5,13.1h-2v-2.4Z"/>
          <path d="M780.4,135.3c-1,0-1.9-.2-2.7-.5s-1.5-.8-2-1.3c-.6-.6-1-1.2-1.3-2-.3-.8-.4-1.6-.4-2.5v-.5c0-1,.1-1.9.4-2.8.3-.8.7-1.5,1.2-2.1.5-.6,1.2-1.1,1.9-1.4.7-.3,1.6-.5,2.5-.5s1.7.2,2.5.5c.7.3,1.3.7,1.8,1.3.5.6.8,1.2,1.1,2,.2.8.4,1.7.4,2.6v1.3h-10.3v-2.2h7.1v-.2c0-.5-.1-1-.3-1.4-.2-.4-.5-.8-.8-1s-.9-.4-1.4-.4-.9.1-1.2.3c-.4.2-.6.5-.9.9-.2.4-.4.8-.5,1.3-.1.5-.2,1.1-.2,1.7v.5c0,.5,0,1.1.2,1.5.1.5.4.9.7,1.2.3.3.6.6,1.1.8s.9.3,1.4.3,1.3-.1,1.8-.4c.5-.3,1-.7,1.4-1.2l1.6,1.7c-.3.4-.6.8-1.1,1.2s-1,.7-1.7.9c-.7.2-1.4.3-2.3.3Z"/>
          <path d="M791.1,124.7v10.4h-3.2v-13.1h3l.2,2.7ZM795.1,121.9v3c-.2,0-.4,0-.6,0s-.4,0-.6,0c-.5,0-.9,0-1.3.2-.4.1-.7.3-.9.6-.2.2-.4.6-.6.9-.1.4-.2.8-.2,1.2h-.7c0-.9,0-1.7.3-2.4.2-.7.4-1.3.7-1.9.3-.5.7-.9,1.2-1.2.5-.3,1-.4,1.7-.4s.4,0,.6,0c.2,0,.4,0,.5.1Z"/>
          <path d="M799.1,122l3,9.6.5,3.4-2.2.4-4.7-13.4h3.4ZM800.8,133.7l3.5-11.6h3.4l-5.2,15.1c-.1.3-.3.7-.5,1.1-.2.4-.4.7-.8,1.1-.3.3-.7.6-1.2.8s-1,.3-1.7.3-.5,0-.8,0c-.2,0-.5,0-.7-.2v-2.4c0,0,.2,0,.3,0,.1,0,.2,0,.3,0,.5,0,.9,0,1.2-.2s.6-.3.7-.5.3-.5.5-.9l1-2.5Z"/>
          <path d="M822.7,131.5c0-.3,0-.5-.2-.7-.1-.2-.4-.4-.8-.6-.4-.2-1-.4-1.7-.5-.7-.1-1.3-.3-1.9-.5-.6-.2-1.1-.5-1.5-.8-.4-.3-.7-.7-1-1.1-.2-.4-.3-.9-.3-1.5s.1-1,.4-1.5c.2-.5.6-.9,1-1.3.4-.4,1-.7,1.6-.9.6-.2,1.4-.3,2.2-.3s2.1.2,2.9.5c.8.4,1.4.9,1.8,1.5.4.6.6,1.3.6,2.1h-3.2c0-.3,0-.7-.2-.9s-.4-.5-.7-.7-.7-.3-1.2-.3-.8,0-1.1.2c-.3.1-.5.3-.7.6-.2.2-.2.5-.2.8s0,.4.1.6c0,.2.2.3.4.5.2.1.5.3.8.4.3.1.7.2,1.2.3,1,.2,1.8.4,2.6.8s1.3.7,1.7,1.3c.4.5.6,1.2.6,2s-.1,1.1-.4,1.6c-.2.5-.6.9-1.1,1.3-.5.4-1,.6-1.7.8-.7.2-1.4.3-2.2.3-1.2,0-2.2-.2-3-.6s-1.5-1-1.9-1.6c-.4-.7-.6-1.4-.6-2.1h3.1c0,.5.2.9.4,1.2s.6.5.9.7c.4.1.8.2,1.2.2s.9,0,1.2-.2c.3-.1.6-.3.7-.5.2-.2.3-.5.3-.8Z"/>
          <path d="M834.4,122v2.3h-7.5v-2.3h7.5ZM828.9,118.8h3.2v12.5c0,.4,0,.7.2.9.1.2.3.4.5.4.2,0,.5.1.8.1s.4,0,.6,0c.2,0,.3,0,.4,0v2.4c-.3,0-.6.2-.9.2-.3,0-.7,0-1.1,0-.7,0-1.3-.1-1.9-.4s-1-.6-1.3-1.2c-.3-.6-.4-1.3-.4-2.2v-12.8Z"/>
          <path d="M842.4,135.3c-1,0-1.9-.2-2.7-.5s-1.5-.8-2-1.3c-.6-.6-1-1.2-1.3-2-.3-.8-.4-1.6-.4-2.5v-.5c0-1,.1-1.9.4-2.8.3-.8.7-1.5,1.2-2.1.5-.6,1.2-1.1,1.9-1.4.7-.3,1.6-.5,2.5-.5s1.7.2,2.5.5c.7.3,1.3.7,1.8,1.3.5.6.8,1.2,1.1,2,.2.8.4,1.7.4,2.6v1.3h-10.3v-2.2h7.1v-.2c0-.5-.1-1-.3-1.4-.2-.4-.5-.8-.8-1s-.9-.4-1.4-.4-.9.1-1.2.3c-.4.2-.6.5-.9.9-.2.4-.4.8-.5,1.3-.1.5-.2,1.1-.2,1.7v.5c0,.5,0,1.1.2,1.5.1.5.4.9.7,1.2.3.3.6.6,1.1.8s.9.3,1.4.3,1.3-.1,1.8-.4c.5-.3,1-.7,1.4-1.2l1.6,1.7c-.3.4-.6.8-1.1,1.2s-1,.7-1.7.9c-.7.2-1.4.3-2.3.3Z"/>
          <path d="M853,124.5v15.6h-3.2v-18.1h3l.2,2.5ZM861.4,128.4v.3c0,1-.1,1.8-.3,2.6-.2.8-.5,1.5-1,2.1-.4.6-1,1.1-1.6,1.4-.6.3-1.4.5-2.2.5s-1.5-.2-2.1-.5c-.6-.3-1.1-.8-1.5-1.3-.4-.6-.7-1.2-1-2s-.4-1.6-.5-2.5v-.8c.1-1,.3-1.8.5-2.6.2-.8.6-1.5,1-2,.4-.6.9-1,1.5-1.3.6-.3,1.3-.5,2.1-.5s1.6.2,2.2.5c.6.3,1.2.8,1.6,1.4.4.6.8,1.3,1,2.1.2.8.3,1.7.3,2.7ZM858.2,128.7v-.3c0-.6,0-1.1-.2-1.6s-.3-.9-.5-1.3c-.2-.4-.5-.7-.8-.9-.3-.2-.8-.3-1.3-.3s-.9,0-1.3.2c-.4.2-.6.4-.9.7-.2.3-.4.7-.5,1.1s-.2.9-.2,1.3v2c0,.6.2,1.1.4,1.6s.5.9.9,1.1.9.4,1.6.4.9-.1,1.3-.3.6-.5.8-.9.4-.8.5-1.3c0-.5.1-1,.1-1.6Z"/>
          <path d="M869.4,128.7v-.3c0-1,.1-1.8.4-2.7.3-.8.7-1.5,1.2-2.1.5-.6,1.2-1.1,1.9-1.4s1.6-.5,2.6-.5,1.9.2,2.6.5,1.4.8,1.9,1.4c.5.6.9,1.3,1.2,2.1.3.8.4,1.7.4,2.7v.3c0,1-.1,1.8-.4,2.6-.3.8-.7,1.5-1.2,2.1-.5.6-1.2,1.1-1.9,1.4s-1.6.5-2.6.5-1.8-.2-2.6-.5-1.4-.8-1.9-1.4c-.5-.6-.9-1.3-1.2-2.1-.3-.8-.4-1.7-.4-2.6ZM872.5,128.4v.3c0,.6,0,1.1.2,1.6.1.5.3.9.5,1.3.2.4.5.7.9.9.4.2.8.3,1.3.3s1-.1,1.3-.3c.4-.2.7-.5.9-.9.2-.4.4-.8.5-1.3.1-.5.2-1,.2-1.6v-.3c0-.6,0-1.1-.2-1.6-.1-.5-.3-.9-.5-1.3-.2-.4-.5-.7-.9-.9s-.8-.3-1.3-.3-1,.1-1.3.3c-.4.2-.7.5-.9.9-.2.4-.4.8-.5,1.3-.1.5-.2,1-.2,1.6Z"/>
          <path d="M890.8,122v2.3h-7.8v-2.3h7.8ZM888.1,135.1h-3.2v-14.3c0-1,.2-1.8.6-2.5.4-.7.9-1.2,1.6-1.5s1.5-.5,2.5-.5.6,0,.9,0c.3,0,.6,0,.9.2v2.4c-.2,0-.4,0-.6,0-.2,0-.4,0-.6,0-.4,0-.8,0-1.1.2-.3.2-.5.4-.7.7s-.2.7-.2,1.1v14.3Z"/>
          <path d="M905.1,122v2.3h-7.5v-2.3h7.5ZM899.6,118.8h3.2v12.5c0,.4,0,.7.2.9.1.2.3.4.5.4.2,0,.5.1.8.1s.4,0,.6,0c.2,0,.3,0,.4,0v2.4c-.3,0-.6.2-.9.2-.3,0-.7,0-1.1,0-.7,0-1.3-.1-1.9-.4s-1-.6-1.3-1.2c-.3-.6-.4-1.3-.4-2.2v-12.8Z"/>
          <path d="M910.3,116.5v18.6h-3.2v-18.6h3.2ZM909.8,128.1h-.9c0-.9.1-1.7.4-2.5s.6-1.4,1-2c.4-.6,1-1,1.6-1.3.6-.3,1.3-.5,2-.5s1.2,0,1.8.3c.5.2,1,.5,1.4.9.4.4.7.9.9,1.5.2.6.3,1.4.3,2.3v8.3h-3.2v-8.4c0-.6,0-1.1-.3-1.4-.2-.4-.4-.6-.8-.8-.3-.2-.7-.2-1.2-.2s-1,0-1.3.3c-.4.2-.7.5-.9.8-.2.3-.4.7-.5,1.2-.1.5-.2.9-.2,1.5Z"/>
          <path d="M926.9,135.3c-1,0-1.9-.2-2.7-.5s-1.5-.8-2-1.3c-.6-.6-1-1.2-1.3-2-.3-.8-.4-1.6-.4-2.5v-.5c0-1,.1-1.9.4-2.8.3-.8.7-1.5,1.2-2.1.5-.6,1.2-1.1,1.9-1.4.7-.3,1.6-.5,2.5-.5s1.7.2,2.5.5c.7.3,1.3.7,1.8,1.3.5.6.8,1.2,1.1,2,.2.8.4,1.7.4,2.6v1.3h-10.3v-2.2h7.1v-.2c0-.5-.1-1-.3-1.4-.2-.4-.5-.8-.8-1s-.9-.4-1.4-.4-.9.1-1.2.3c-.4.2-.6.5-.9.9-.2.4-.4.8-.5,1.3-.1.5-.2,1.1-.2,1.7v.5c0,.5,0,1.1.2,1.5.1.5.4.9.7,1.2.3.3.6.6,1.1.8s.9.3,1.4.3,1.3-.1,1.8-.4c.5-.3,1-.7,1.4-1.2l1.6,1.7c-.3.4-.6.8-1.1,1.2s-1,.7-1.7.9c-.7.2-1.4.3-2.3.3Z"/>
          <path d="M934.3,118.6c0-.5.2-.9.5-1.2.3-.3.8-.5,1.3-.5s1,.2,1.3.5c.3.3.5.7.5,1.2s-.2.9-.5,1.2c-.3.3-.8.5-1.3.5s-1-.2-1.3-.5c-.3-.3-.5-.7-.5-1.2ZM937.7,122v13.1h-3.2v-13.1h3.2Z"/>
          <path d="M944,124.7v10.4h-3.2v-13.1h3l.2,2.7ZM948,121.9v3c-.2,0-.4,0-.6,0s-.4,0-.6,0c-.5,0-.9,0-1.3.2-.4.1-.7.3-.9.6-.2.2-.4.6-.6.9-.1.4-.2.8-.2,1.2h-.7c0-.9,0-1.7.3-2.4.2-.7.4-1.3.7-1.9.3-.5.7-.9,1.2-1.2.5-.3,1-.4,1.7-.4s.4,0,.6,0c.2,0,.4,0,.5.1Z"/>
        </g>
      </g>
      <g class="st1">
        <g class="st1">
          <path d="M235.1,154.9v15.6h-3.2v-18.1h3l.2,2.5ZM243.5,158.8v.3c0,1-.1,1.8-.3,2.6-.2.8-.5,1.5-1,2.1s-1,1.1-1.6,1.4c-.6.3-1.4.5-2.2.5s-1.5-.2-2.1-.5-1.1-.8-1.5-1.3c-.4-.6-.7-1.2-1-2-.2-.8-.4-1.6-.6-2.5v-.8c.1-1,.3-1.8.6-2.6.2-.8.6-1.5,1-2,.4-.6.9-1,1.5-1.3s1.3-.5,2.1-.5,1.6.2,2.2.5,1.2.8,1.6,1.4c.4.6.8,1.3,1,2.1.2.8.3,1.7.3,2.7ZM240.3,159.1v-.3c0-.6,0-1.1-.2-1.6-.1-.5-.3-.9-.5-1.3-.2-.4-.5-.7-.8-.9-.3-.2-.8-.3-1.3-.3s-.9,0-1.3.2c-.4.2-.6.4-.9.7-.2.3-.4.7-.5,1.1s-.2.9-.2,1.3v2c0,.6.2,1.1.4,1.6.2.5.5.9.9,1.1s.9.4,1.6.4.9-.1,1.3-.3.6-.5.8-.9c.2-.4.4-.8.5-1.3,0-.5.1-1,.1-1.6Z"/>
          <path d="M249.1,155.1v10.4h-3.2v-13.1h3l.2,2.7ZM253,152.3v3c-.2,0-.4,0-.6,0s-.4,0-.6,0c-.5,0-.9,0-1.3.2-.4.1-.7.3-.9.6-.2.2-.4.6-.6.9-.1.4-.2.8-.2,1.2h-.7c0-.9,0-1.7.3-2.4.2-.7.4-1.3.7-1.9.3-.5.7-.9,1.2-1.2.5-.3,1-.4,1.7-.4s.4,0,.6,0,.4,0,.5.1Z"/>
          <path d="M253.9,159.1v-.3c0-1,.1-1.8.4-2.7.3-.8.7-1.5,1.2-2.1s1.2-1.1,1.9-1.4c.8-.3,1.6-.5,2.6-.5s1.9.2,2.6.5,1.4.8,1.9,1.4.9,1.3,1.2,2.1.4,1.7.4,2.7v.3c0,1-.1,1.8-.4,2.6s-.7,1.5-1.2,2.1-1.2,1.1-1.9,1.4c-.8.3-1.6.5-2.6.5s-1.8-.2-2.6-.5c-.8-.3-1.4-.8-1.9-1.4s-.9-1.3-1.2-2.1c-.3-.8-.4-1.7-.4-2.6ZM257.1,158.8v.3c0,.6,0,1.1.2,1.6.1.5.3.9.5,1.3.2.4.5.7.9.9.4.2.8.3,1.3.3s1-.1,1.3-.3c.4-.2.7-.5.9-.9s.4-.8.5-1.3c.1-.5.2-1,.2-1.6v-.3c0-.6,0-1.1-.2-1.6-.1-.5-.3-.9-.5-1.3s-.5-.7-.9-.9-.8-.3-1.3-.3-1,.1-1.3.3-.7.5-.9.9c-.2.4-.4.8-.5,1.3-.1.5-.2,1-.2,1.6Z"/>
          <path d="M273.8,163.2c.5,0,.9,0,1.2-.3.4-.2.6-.4.9-.8.2-.3.3-.7.3-1.1h3c0,.9-.3,1.7-.7,2.4-.5.7-1.1,1.3-1.9,1.7-.8.4-1.7.6-2.7.6s-1.9-.2-2.6-.5c-.7-.3-1.4-.8-1.9-1.4-.5-.6-.9-1.3-1.1-2.1-.2-.8-.4-1.7-.4-2.6v-.4c0-.9.1-1.8.4-2.6.2-.8.6-1.5,1.1-2.1.5-.6,1.1-1.1,1.9-1.4.8-.3,1.6-.5,2.6-.5s2,.2,2.8.6c.8.4,1.4,1,1.9,1.7.5.7.7,1.6.7,2.6h-3c0-.5-.1-.9-.3-1.3-.2-.4-.5-.7-.8-.9-.4-.2-.8-.3-1.3-.3s-1,.1-1.3.3c-.4.2-.6.5-.8.9-.2.4-.3.8-.4,1.3s-.1,1-.1,1.5v.4c0,.5,0,1,.1,1.5,0,.5.2.9.4,1.3.2.4.5.7.8.9.4.2.8.3,1.4.3Z"/>
          <path d="M287.3,165.7c-1,0-1.9-.2-2.7-.5s-1.5-.8-2-1.3-1-1.2-1.3-2c-.3-.8-.4-1.6-.4-2.5v-.5c0-1,.1-1.9.4-2.8.3-.8.7-1.5,1.2-2.1.5-.6,1.2-1.1,1.9-1.4.7-.3,1.6-.5,2.5-.5s1.7.2,2.5.5c.7.3,1.3.7,1.8,1.3.5.6.8,1.2,1.1,2,.2.8.4,1.7.4,2.6v1.3h-10.3v-2.2h7.1v-.2c0-.5-.1-1-.3-1.4s-.5-.8-.8-1c-.4-.3-.9-.4-1.4-.4s-.9.1-1.2.3-.6.5-.9.9c-.2.4-.4.8-.5,1.3-.1.5-.2,1.1-.2,1.7v.5c0,.5,0,1.1.2,1.5.1.5.4.9.7,1.2.3.3.6.6,1.1.8s.9.3,1.4.3,1.3-.1,1.8-.4c.5-.3,1-.7,1.4-1.2l1.6,1.7c-.3.4-.6.8-1.1,1.2-.5.4-1,.7-1.7.9-.7.2-1.4.3-2.3.3Z"/>
          <path d="M301.9,161.9c0-.3,0-.5-.2-.7-.1-.2-.4-.4-.8-.6-.4-.2-1-.4-1.7-.5-.7-.1-1.3-.3-1.9-.5s-1.1-.5-1.5-.8c-.4-.3-.7-.7-1-1.1-.2-.4-.3-.9-.3-1.5s.1-1,.4-1.5c.2-.5.6-.9,1-1.3.4-.4,1-.7,1.6-.9.6-.2,1.4-.3,2.2-.3s2.1.2,2.9.5c.8.4,1.4.9,1.8,1.5s.6,1.3.6,2.1h-3.2c0-.3,0-.7-.2-.9-.2-.3-.4-.5-.7-.7s-.7-.3-1.2-.3-.8,0-1.1.2c-.3.1-.5.3-.7.6-.2.2-.2.5-.2.8s0,.4.1.6c0,.2.2.3.4.5s.5.3.8.4.7.2,1.2.3c1,.2,1.8.4,2.6.8.7.3,1.3.7,1.7,1.3.4.5.6,1.2.6,2s-.1,1.1-.4,1.6c-.2.5-.6.9-1.1,1.3-.5.4-1,.6-1.7.8-.7.2-1.4.3-2.2.3-1.2,0-2.2-.2-3-.6s-1.5-1-1.9-1.6-.6-1.4-.6-2.1h3.1c0,.5.2.9.4,1.2.2.3.6.5.9.7.4.1.8.2,1.2.2s.9,0,1.2-.2c.3-.1.6-.3.8-.5.2-.2.3-.5.3-.8Z"/>
          <path d="M314.6,161.9c0-.3,0-.5-.2-.7-.1-.2-.4-.4-.8-.6-.4-.2-1-.4-1.7-.5-.7-.1-1.3-.3-1.9-.5s-1.1-.5-1.5-.8c-.4-.3-.7-.7-1-1.1-.2-.4-.3-.9-.3-1.5s.1-1,.4-1.5c.2-.5.6-.9,1-1.3.4-.4,1-.7,1.6-.9.6-.2,1.4-.3,2.2-.3s2.1.2,2.9.5c.8.4,1.4.9,1.8,1.5s.6,1.3.6,2.1h-3.2c0-.3,0-.7-.2-.9-.2-.3-.4-.5-.7-.7s-.7-.3-1.2-.3-.8,0-1.1.2c-.3.1-.5.3-.7.6-.2.2-.2.5-.2.8s0,.4.1.6c0,.2.2.3.4.5s.5.3.8.4.7.2,1.2.3c1,.2,1.8.4,2.6.8.7.3,1.3.7,1.7,1.3.4.5.6,1.2.6,2s-.1,1.1-.4,1.6c-.2.5-.6.9-1.1,1.3-.5.4-1,.6-1.7.8-.7.2-1.4.3-2.2.3-1.2,0-2.2-.2-3-.6s-1.5-1-1.9-1.6-.6-1.4-.6-2.1h3.1c0,.5.2.9.4,1.2.2.3.6.5.9.7.4.1.8.2,1.2.2s.9,0,1.2-.2c.3-.1.6-.3.8-.5.2-.2.3-.5.3-.8Z"/>
          <path d="M323.2,162.6v2.2c0,.9-.2,1.7-.7,2.6-.4.9-1,1.6-1.7,2.2l-1.7-.9c.2-.4.4-.7.6-1.1s.3-.8.5-1.2c.1-.4.2-.9.2-1.4v-2.4h2.8Z"/>
          <path d="M338,165.7c-1,0-1.9-.2-2.7-.5s-1.5-.8-2-1.3-1-1.2-1.3-2c-.3-.8-.4-1.6-.4-2.5v-.5c0-1,.1-1.9.4-2.8.3-.8.7-1.5,1.2-2.1.5-.6,1.2-1.1,1.9-1.4.7-.3,1.6-.5,2.5-.5s1.7.2,2.5.5c.7.3,1.3.7,1.8,1.3.5.6.8,1.2,1.1,2,.2.8.4,1.7.4,2.6v1.3h-10.3v-2.2h7.1v-.2c0-.5-.1-1-.3-1.4s-.5-.8-.8-1c-.4-.3-.9-.4-1.4-.4s-.9.1-1.2.3-.6.5-.9.9c-.2.4-.4.8-.5,1.3-.1.5-.2,1.1-.2,1.7v.5c0,.5,0,1.1.2,1.5.1.5.4.9.7,1.2.3.3.6.6,1.1.8s.9.3,1.4.3,1.3-.1,1.8-.4c.5-.3,1-.7,1.4-1.2l1.6,1.7c-.3.4-.6.8-1.1,1.2-.5.4-1,.7-1.7.9-.7.2-1.4.3-2.3.3Z"/>
          <path d="M347.4,152.4l3.1,10.7v2.4c.1,0-1.9,0-1.9,0l-4.5-13.1h3.3ZM349.6,163.1l3-10.7h3.3l-4.5,13.1h-2v-2.4Z"/>
          <path d="M363.4,165.7c-1,0-1.9-.2-2.7-.5s-1.5-.8-2-1.3-1-1.2-1.3-2c-.3-.8-.4-1.6-.4-2.5v-.5c0-1,.1-1.9.4-2.8.3-.8.7-1.5,1.2-2.1.5-.6,1.2-1.1,1.9-1.4.7-.3,1.6-.5,2.5-.5s1.7.2,2.5.5c.7.3,1.3.7,1.8,1.3.5.6.8,1.2,1.1,2,.2.8.4,1.7.4,2.6v1.3h-10.3v-2.2h7.1v-.2c0-.5-.1-1-.3-1.4s-.5-.8-.8-1c-.4-.3-.9-.4-1.4-.4s-.9.1-1.2.3-.6.5-.9.9c-.2.4-.4.8-.5,1.3-.1.5-.2,1.1-.2,1.7v.5c0,.5,0,1.1.2,1.5.1.5.4.9.7,1.2.3.3.6.6,1.1.8s.9.3,1.4.3,1.3-.1,1.8-.4c.5-.3,1-.7,1.4-1.2l1.6,1.7c-.3.4-.6.8-1.1,1.2-.5.4-1,.7-1.7.9-.7.2-1.4.3-2.3.3Z"/>
          <path d="M374,155.2v10.3h-3.2v-13.1h3l.2,2.8ZM373.5,158.5h-.9c0-1,.1-1.8.4-2.6s.6-1.4,1.1-2,1-1,1.6-1.3c.6-.3,1.3-.4,2.1-.4s1.2,0,1.7.3.9.5,1.3.8c.4.4.6.9.8,1.5.2.6.3,1.4.3,2.3v8.4h-3.2v-8.4c0-.6,0-1.1-.3-1.4-.2-.3-.4-.6-.8-.7-.3-.1-.7-.2-1.2-.2s-.9,0-1.3.3c-.4.2-.7.5-.9.8-.2.3-.4.7-.6,1.2-.1.5-.2.9-.2,1.5Z"/>
          <path d="M398.5,157.5v1.9s-2,0-2,0c-.5,0-.9,0-1.3.2-.4.1-.7.2-.9.4s-.4.4-.5.7c-.1.3-.2.6-.2.9s0,.6.2.9c.1.3.4.5.7.6.3.1.6.2,1,.2.6,0,1.1-.1,1.5-.3.4-.2.7-.5,1-.8s.4-.6.4-.9l.9,1.4c-.1.3-.3.7-.5,1.1-.2.4-.5.7-.9,1-.4.3-.8.6-1.3.8-.5.2-1.1.3-1.7.3s-1.6-.2-2.3-.5c-.7-.3-1.2-.8-1.6-1.4-.4-.6-.6-1.3-.6-2s.1-1.3.4-1.8c.3-.5.6-1,1.1-1.3s1.1-.6,1.9-.8,1.6-.3,2.6-.3h2.2ZM398.1,162.7v-6c0-.4,0-.8-.2-1.1-.2-.3-.4-.6-.7-.7s-.7-.3-1.2-.3-.8,0-1.1.2c-.3.1-.6.3-.7.6-.2.3-.3.6-.3.9h-3.2c0-.5.1-1.1.4-1.5.3-.5.6-.9,1.1-1.3.5-.4,1.1-.7,1.7-.9.7-.2,1.4-.3,2.3-.3s1.9.2,2.7.5,1.4.8,1.8,1.5.7,1.5.7,2.5v5.7c0,.7,0,1.2.1,1.7,0,.5.2.9.4,1.2v.2h-3.3c-.2-.3-.3-.8-.4-1.3,0-.5-.1-1-.1-1.5Z"/>
          <path d="M407.5,146.9v18.6h-3.2v-18.6h3.2Z"/>
          <path d="M414,146.9v18.6h-3.2v-18.6h3.2Z"/>
          <path d="M416.5,159.1v-.3c0-1,.1-1.8.4-2.7.3-.8.7-1.5,1.2-2.1s1.2-1.1,1.9-1.4c.8-.3,1.6-.5,2.6-.5s1.9.2,2.6.5,1.4.8,1.9,1.4.9,1.3,1.2,2.1.4,1.7.4,2.7v.3c0,1-.1,1.8-.4,2.6s-.7,1.5-1.2,2.1-1.2,1.1-1.9,1.4c-.8.3-1.6.5-2.6.5s-1.8-.2-2.6-.5c-.8-.3-1.4-.8-1.9-1.4s-.9-1.3-1.2-2.1c-.3-.8-.4-1.7-.4-2.6ZM419.7,158.8v.3c0,.6,0,1.1.2,1.6.1.5.3.9.5,1.3.2.4.5.7.9.9.4.2.8.3,1.3.3s1-.1,1.3-.3c.4-.2.7-.5.9-.9s.4-.8.5-1.3c.1-.5.2-1,.2-1.6v-.3c0-.6,0-1.1-.2-1.6-.1-.5-.3-.9-.5-1.3s-.5-.7-.9-.9-.8-.3-1.3-.3-1,.1-1.3.3-.7.5-.9.9c-.2.4-.4.8-.5,1.3-.1.5-.2,1-.2,1.6Z"/>
          <path d="M433.1,152.4l2.2,10,.2,3.1h-2l-3.4-13.1h3.1ZM434.7,162.3l2.9-9.9h2l-.6,3.4-2.9,9.6h-1.8l.4-3.1ZM439.9,152.4l2.8,9.8.4,3.2h-1.8l-2.9-9.6-.6-3.4h2ZM442.2,162.2l2.1-9.8h3.1l-3.4,13.1h-2l.2-3.3Z"/>
          <path d="M449.3,149c0-.5.2-.9.5-1.2.3-.3.8-.5,1.3-.5s1,.2,1.3.5c.3.3.5.7.5,1.2s-.2.9-.5,1.2c-.3.3-.8.5-1.3.5s-1-.2-1.3-.5c-.3-.3-.5-.7-.5-1.2ZM452.7,152.4v13.1h-3.2v-13.1h3.2Z"/>
          <path d="M458.9,155.2v10.3h-3.2v-13.1h3l.2,2.8ZM458.4,158.5h-.9c0-1,.1-1.8.4-2.6s.6-1.4,1.1-2,1-1,1.6-1.3c.6-.3,1.3-.4,2.1-.4s1.2,0,1.7.3.9.5,1.3.8c.4.4.6.9.8,1.5.2.6.3,1.4.3,2.3v8.4h-3.2v-8.4c0-.6,0-1.1-.3-1.4-.2-.3-.4-.6-.8-.7-.3-.1-.7-.2-1.2-.2s-.9,0-1.3.3c-.4.2-.7.5-.9.8-.2.3-.4.7-.6,1.2-.1.5-.2.9-.2,1.5Z"/>
          <path d="M469.1,159.1v-.3c0-1,.1-1.9.4-2.7.2-.8.6-1.5,1-2.1.5-.6,1-1,1.7-1.4s1.4-.5,2.2-.5,1.6.2,2.2.5c.6.3,1.1.8,1.5,1.3.4.6.7,1.3.9,2.1.2.8.4,1.7.5,2.6v.7c-.1.9-.3,1.8-.5,2.6-.2.8-.6,1.4-1,2-.4.6-.9,1-1.5,1.3-.6.3-1.3.5-2.1.5s-1.5-.2-2.2-.5-1.2-.8-1.7-1.4c-.5-.6-.8-1.3-1-2.1-.2-.8-.4-1.7-.4-2.6ZM477.9,152.4h2.9v12.7c0,1.2-.3,2.2-.8,3-.5.8-1.2,1.5-2.1,1.9s-2,.6-3.2.6-1.1,0-1.7-.2c-.6-.1-1.2-.4-1.8-.7-.6-.3-1-.7-1.4-1.2l1.4-1.9c.4.5.9.9,1.5,1.2.5.3,1.1.4,1.8.4s1.2-.1,1.7-.4c.5-.2.8-.6,1.1-1,.2-.5.4-1,.4-1.7v-9.7l.3-3ZM472.3,158.8v.3c0,.6,0,1.1.2,1.6s.3.9.5,1.3.5.7.9.9c.4.2.8.3,1.3.3s1.2-.1,1.6-.4c.4-.3.7-.7,1-1.1.2-.5.4-1,.4-1.7v-1.9c0-.5-.1-.9-.3-1.3s-.3-.8-.6-1.1-.5-.5-.9-.7c-.4-.2-.8-.3-1.3-.3s-.9.1-1.3.3c-.4.2-.7.5-.9.9-.2.4-.4.8-.5,1.3-.1.5-.2,1-.2,1.6Z"/>
          <path d="M491.9,152.4l3,9.6.5,3.4-2.2.4-4.7-13.4h3.4ZM493.7,164l3.5-11.6h3.4l-5.2,15.1c-.1.3-.3.7-.5,1.1-.2.4-.4.7-.8,1.1-.3.3-.7.6-1.2.8-.5.2-1,.3-1.7.3s-.5,0-.8,0c-.2,0-.5,0-.7-.2v-2.4c0,0,.2,0,.3,0,.1,0,.2,0,.3,0,.5,0,.9,0,1.2-.2.3-.1.6-.3.7-.5s.3-.5.5-.9l1-2.5Z"/>
          <path d="M501.4,159.1v-.3c0-1,.1-1.8.4-2.7.3-.8.7-1.5,1.2-2.1s1.2-1.1,1.9-1.4c.8-.3,1.6-.5,2.6-.5s1.9.2,2.6.5,1.4.8,1.9,1.4.9,1.3,1.2,2.1.4,1.7.4,2.7v.3c0,1-.1,1.8-.4,2.6s-.7,1.5-1.2,2.1-1.2,1.1-1.9,1.4c-.8.3-1.6.5-2.6.5s-1.8-.2-2.6-.5c-.8-.3-1.4-.8-1.9-1.4s-.9-1.3-1.2-2.1c-.3-.8-.4-1.7-.4-2.6ZM504.6,158.8v.3c0,.6,0,1.1.2,1.6.1.5.3.9.5,1.3.2.4.5.7.9.9.4.2.8.3,1.3.3s1-.1,1.3-.3c.4-.2.7-.5.9-.9s.4-.8.5-1.3c.1-.5.2-1,.2-1.6v-.3c0-.6,0-1.1-.2-1.6-.1-.5-.3-.9-.5-1.3s-.5-.7-.9-.9-.8-.3-1.3-.3-1,.1-1.3.3-.7.5-.9.9c-.2.4-.4.8-.5,1.3-.1.5-.2,1-.2,1.6Z"/>
          <path d="M524.2,159.7h1c0,.9,0,1.7-.3,2.4-.2.7-.5,1.4-.9,1.9-.4.5-.9,1-1.5,1.3s-1.4.5-2.2.5-1.2,0-1.8-.3c-.5-.2-1-.5-1.4-.9s-.7-.9-.9-1.5c-.2-.6-.3-1.4-.3-2.2v-8.5h3.2v8.5c0,.4,0,.8.2,1.1.1.3.2.5.4.7.2.2.4.3.6.4.2,0,.5.1.8.1.8,0,1.4-.2,1.8-.5.4-.3.8-.7,1-1.3.2-.5.3-1.1.3-1.8ZM523.7,162.4v-10h3.2v13.1h-3l-.2-3.1Z"/>
          <path d="M542.1,152.4v2.3h-7.5v-2.3h7.5ZM536.6,149.2h3.2v12.5c0,.4,0,.7.2.9.1.2.3.4.5.4.2,0,.5.1.7.1s.4,0,.6,0c.2,0,.3,0,.4,0v2.4c-.3,0-.6.2-.9.2-.3,0-.7,0-1.1,0-.7,0-1.3-.1-1.9-.4-.5-.2-1-.6-1.3-1.2-.3-.6-.4-1.3-.4-2.2v-12.8Z"/>
          <path d="M543.4,159.1v-.3c0-1,.1-1.8.4-2.7.3-.8.7-1.5,1.2-2.1s1.2-1.1,1.9-1.4c.8-.3,1.6-.5,2.6-.5s1.9.2,2.6.5,1.4.8,1.9,1.4.9,1.3,1.2,2.1.4,1.7.4,2.7v.3c0,1-.1,1.8-.4,2.6s-.7,1.5-1.2,2.1-1.2,1.1-1.9,1.4c-.8.3-1.6.5-2.6.5s-1.8-.2-2.6-.5c-.8-.3-1.4-.8-1.9-1.4s-.9-1.3-1.2-2.1c-.3-.8-.4-1.7-.4-2.6ZM546.6,158.8v.3c0,.6,0,1.1.2,1.6.1.5.3.9.5,1.3.2.4.5.7.9.9.4.2.8.3,1.3.3s1-.1,1.3-.3c.4-.2.7-.5.9-.9s.4-.8.5-1.3c.1-.5.2-1,.2-1.6v-.3c0-.6,0-1.1-.2-1.6-.1-.5-.3-.9-.5-1.3s-.5-.7-.9-.9-.8-.3-1.3-.3-1,.1-1.3.3-.7.5-.9.9c-.2.4-.4.8-.5,1.3-.1.5-.2,1-.2,1.6Z"/>
          <path d="M564.1,146.9h3.2v15.7l-.3,2.9h-2.9v-18.6ZM575.7,158.8v.3c0,1-.1,1.9-.3,2.7-.2.8-.5,1.5-1,2.1-.4.6-1,1.1-1.6,1.4-.6.3-1.4.5-2.2.5s-1.5-.2-2.1-.5c-.6-.3-1.1-.8-1.5-1.3-.4-.6-.7-1.3-1-2-.2-.8-.4-1.6-.5-2.6v-.7c.1-.9.3-1.8.5-2.6.2-.8.6-1.5,1-2,.4-.6.9-1,1.5-1.3s1.3-.5,2.1-.5,1.6.2,2.2.5,1.2.8,1.6,1.4c.4.6.7,1.3,1,2.1.2.8.3,1.7.3,2.7ZM572.5,159.1v-.3c0-.6,0-1.1-.1-1.6,0-.5-.2-.9-.4-1.3-.2-.4-.5-.7-.8-.9s-.8-.3-1.3-.3-.9,0-1.3.3c-.4.2-.6.4-.9.7-.2.3-.4.6-.5,1.1-.1.4-.2.8-.2,1.3v1.9c0,.6.2,1.2.4,1.7.2.5.5.9.9,1.2.4.3,1,.4,1.6.4s.9-.1,1.3-.3.6-.5.8-.9c.2-.4.3-.8.4-1.3s.1-1,.1-1.6Z"/>
          <path d="M583.9,165.7c-1,0-1.9-.2-2.7-.5s-1.5-.8-2-1.3-1-1.2-1.3-2c-.3-.8-.4-1.6-.4-2.5v-.5c0-1,.1-1.9.4-2.8.3-.8.7-1.5,1.2-2.1.5-.6,1.2-1.1,1.9-1.4.7-.3,1.6-.5,2.5-.5s1.7.2,2.5.5c.7.3,1.3.7,1.8,1.3.5.6.8,1.2,1.1,2,.2.8.4,1.7.4,2.6v1.3h-10.3v-2.2h7.1v-.2c0-.5-.1-1-.3-1.4s-.5-.8-.8-1c-.4-.3-.9-.4-1.4-.4s-.9.1-1.2.3-.6.5-.9.9c-.2.4-.4.8-.5,1.3-.1.5-.2,1.1-.2,1.7v.5c0,.5,0,1.1.2,1.5.1.5.4.9.7,1.2.3.3.6.6,1.1.8s.9.3,1.4.3,1.3-.1,1.8-.4c.5-.3,1-.7,1.4-1.2l1.6,1.7c-.3.4-.6.8-1.1,1.2-.5.4-1,.7-1.7.9-.7.2-1.4.3-2.3.3Z"/>
          <path d="M603.7,152.4v2.3h-7.5v-2.3h7.5ZM598.2,149.2h3.2v12.5c0,.4,0,.7.2.9.1.2.3.4.5.4.2,0,.5.1.8.1s.4,0,.6,0c.2,0,.3,0,.4,0v2.4c-.3,0-.6.2-.9.2-.3,0-.7,0-1.1,0-.7,0-1.3-.1-1.9-.4s-1-.6-1.3-1.2c-.3-.6-.4-1.3-.4-2.2v-12.8Z"/>
          <path d="M609,146.9v18.6h-3.2v-18.6h3.2ZM608.5,158.5h-.9c0-.9.1-1.7.4-2.5s.6-1.4,1-2c.4-.6,1-1,1.6-1.3.6-.3,1.3-.5,2-.5s1.2,0,1.8.3c.5.2,1,.5,1.4.9s.7.9.9,1.5c.2.6.3,1.4.3,2.3v8.3h-3.2v-8.4c0-.6,0-1.1-.3-1.4-.2-.4-.4-.6-.8-.8-.3-.2-.7-.2-1.2-.2s-1,0-1.3.3c-.4.2-.7.5-.9.8-.2.3-.4.7-.5,1.2-.1.5-.2.9-.2,1.5Z"/>
          <path d="M625.5,165.7c-1,0-1.9-.2-2.7-.5s-1.5-.8-2-1.3c-.6-.6-1-1.2-1.3-2-.3-.8-.4-1.6-.4-2.5v-.5c0-1,.1-1.9.4-2.8.3-.8.7-1.5,1.2-2.1s1.2-1.1,1.9-1.4,1.6-.5,2.5-.5,1.7.2,2.5.5c.7.3,1.3.7,1.8,1.3.5.6.8,1.2,1.1,2,.2.8.4,1.7.4,2.6v1.3h-10.3v-2.2h7.1v-.2c0-.5-.1-1-.3-1.4-.2-.4-.5-.8-.8-1s-.9-.4-1.4-.4-.9.1-1.2.3-.6.5-.9.9c-.2.4-.4.8-.5,1.3-.1.5-.2,1.1-.2,1.7v.5c0,.5,0,1.1.2,1.5.1.5.4.9.7,1.2.3.3.6.6,1.1.8s.9.3,1.4.3,1.3-.1,1.8-.4c.5-.3,1-.7,1.4-1.2l1.6,1.7c-.3.4-.6.8-1.1,1.2s-1,.7-1.7.9c-.7.2-1.4.3-2.3.3Z"/>
          <path d="M636.2,155.1v10.4h-3.2v-13.1h3l.2,2.7ZM640.2,152.3v3c-.2,0-.4,0-.6,0s-.4,0-.6,0c-.5,0-.9,0-1.3.2-.4.1-.7.3-.9.6-.2.2-.4.6-.6.9-.1.4-.2.8-.2,1.2h-.7c0-.9,0-1.7.3-2.4.2-.7.4-1.3.7-1.9.3-.5.7-.9,1.2-1.2.5-.3,1-.4,1.7-.4s.4,0,.6,0c.2,0,.4,0,.5.1Z"/>
          <path d="M647.5,165.7c-1,0-1.9-.2-2.7-.5s-1.5-.8-2-1.3c-.6-.6-1-1.2-1.3-2-.3-.8-.4-1.6-.4-2.5v-.5c0-1,.1-1.9.4-2.8.3-.8.7-1.5,1.2-2.1.5-.6,1.2-1.1,1.9-1.4.7-.3,1.6-.5,2.5-.5s1.7.2,2.5.5c.7.3,1.3.7,1.8,1.3.5.6.8,1.2,1.1,2,.2.8.4,1.7.4,2.6v1.3h-10.3v-2.2h7.1v-.2c0-.5-.1-1-.3-1.4-.2-.4-.5-.8-.8-1s-.9-.4-1.4-.4-.9.1-1.2.3c-.4.2-.6.5-.9.9-.2.4-.4.8-.5,1.3-.1.5-.2,1.1-.2,1.7v.5c0,.5,0,1.1.2,1.5.1.5.4.9.7,1.2.3.3.6.6,1.1.8s.9.3,1.4.3,1.3-.1,1.8-.4c.5-.3,1-.7,1.4-1.2l1.6,1.7c-.3.4-.6.8-1.1,1.2s-1,.7-1.7.9c-.7.2-1.4.3-2.3.3Z"/>
          <path d="M660.6,159.1v-.3c0-1,.1-1.9.3-2.7.2-.8.6-1.5,1-2.1.4-.6,1-1,1.6-1.4.6-.3,1.4-.5,2.2-.5s1.5.2,2,.5c.6.3,1.1.8,1.5,1.3.4.6.7,1.3,1,2.1s.4,1.7.5,2.6v.7c-.1.9-.3,1.8-.5,2.6-.2.8-.6,1.4-1,2-.4.6-.9,1-1.5,1.3-.6.3-1.3.5-2.1.5s-1.5-.2-2.1-.5-1.2-.8-1.6-1.4c-.4-.6-.8-1.3-1-2.1-.2-.8-.3-1.7-.3-2.6ZM663.8,158.8v.3c0,.6,0,1.1.1,1.6,0,.5.3.9.5,1.3.2.4.5.7.8.9.3.2.8.3,1.3.3s1.1-.1,1.6-.4c.4-.3.7-.7.9-1.1.2-.5.4-1,.4-1.7v-1.9c0-.5-.1-.9-.2-1.3s-.3-.8-.6-1.1c-.2-.3-.5-.5-.9-.7-.3-.2-.8-.3-1.2-.3s-.9.1-1.3.3c-.3.2-.6.5-.8.9s-.4.8-.5,1.3c-.1.5-.2,1-.2,1.6ZM669,162.7v-15.8h3.2v18.6h-2.9l-.3-2.8Z"/>
          <path d="M683.3,159.7h1c0,.9,0,1.7-.3,2.4s-.5,1.4-.9,1.9c-.4.5-.9,1-1.5,1.3s-1.4.5-2.2.5-1.2,0-1.8-.3c-.5-.2-1-.5-1.4-.9s-.7-.9-.9-1.5c-.2-.6-.3-1.4-.3-2.2v-8.5h3.2v8.5c0,.4,0,.8.2,1.1s.2.5.4.7c.2.2.4.3.6.4.2,0,.5.1.8.1.8,0,1.4-.2,1.8-.5.4-.3.8-.7,1-1.3.2-.5.3-1.1.3-1.8ZM682.9,162.4v-10h3.2v13.1h-3l-.2-3.1Z"/>
          <path d="M692.1,155.1v10.4h-3.2v-13.1h3l.2,2.7ZM696.1,152.3v3c-.2,0-.4,0-.6,0s-.4,0-.6,0c-.5,0-.9,0-1.3.2-.4.1-.7.3-.9.6-.2.2-.4.6-.6.9-.1.4-.2.8-.2,1.2h-.7c0-.9,0-1.7.3-2.4.2-.7.4-1.3.7-1.9.3-.5.7-.9,1.2-1.2.5-.3,1-.4,1.7-.4s.4,0,.6,0c.2,0,.4,0,.5.1Z"/>
          <path d="M697.8,149c0-.5.2-.9.5-1.2.3-.3.8-.5,1.3-.5s1,.2,1.3.5c.3.3.5.7.5,1.2s-.2.9-.5,1.2c-.3.3-.8.5-1.3.5s-1-.2-1.3-.5c-.3-.3-.5-.7-.5-1.2ZM701.2,152.4v13.1h-3.2v-13.1h3.2Z"/>
          <path d="M707.4,155.2v10.3h-3.2v-13.1h3l.2,2.8ZM706.9,158.5h-.9c0-1,.1-1.8.4-2.6.2-.8.6-1.4,1.1-2s1-1,1.6-1.3c.6-.3,1.3-.4,2.1-.4s1.2,0,1.7.3c.5.2.9.5,1.3.8.4.4.6.9.8,1.5.2.6.3,1.4.3,2.3v8.4h-3.2v-8.4c0-.6,0-1.1-.3-1.4-.2-.3-.4-.6-.7-.7-.3-.1-.7-.2-1.2-.2s-.9,0-1.3.3c-.4.2-.7.5-.9.8s-.4.7-.6,1.2c-.1.5-.2.9-.2,1.5Z"/>
          <path d="M717.6,159.1v-.3c0-1,.1-1.9.4-2.7.2-.8.6-1.5,1-2.1.5-.6,1-1,1.7-1.4.6-.3,1.4-.5,2.2-.5s1.6.2,2.2.5c.6.3,1.1.8,1.5,1.3.4.6.7,1.3.9,2.1s.4,1.7.5,2.6v.7c-.1.9-.3,1.8-.5,2.6-.2.8-.6,1.4-1,2-.4.6-.9,1-1.5,1.3-.6.3-1.3.5-2.1.5s-1.5-.2-2.2-.5c-.6-.3-1.2-.8-1.7-1.4-.5-.6-.8-1.3-1-2.1-.2-.8-.4-1.7-.4-2.6ZM726.4,152.4h2.9v12.7c0,1.2-.3,2.2-.8,3s-1.2,1.5-2.1,1.9-2,.6-3.2.6-1.1,0-1.7-.2c-.6-.1-1.2-.4-1.8-.7-.6-.3-1-.7-1.4-1.2l1.4-1.9c.4.5.9.9,1.5,1.2.5.3,1.1.4,1.8.4s1.2-.1,1.7-.4c.5-.2.8-.6,1.1-1,.2-.5.4-1,.4-1.7v-9.7l.3-3ZM720.8,158.8v.3c0,.6,0,1.1.2,1.6s.3.9.5,1.3c.2.4.5.7.9.9.4.2.8.3,1.3.3s1.2-.1,1.6-.4c.4-.3.7-.7,1-1.1.2-.5.4-1,.4-1.7v-1.9c0-.5-.1-.9-.3-1.3-.1-.4-.3-.8-.6-1.1s-.5-.5-.9-.7c-.4-.2-.8-.3-1.3-.3s-.9.1-1.3.3c-.4.2-.7.5-.9.9-.2.4-.4.8-.5,1.3s-.2,1-.2,1.6Z"/>
          <path d="M738.3,149c0-.5.2-.9.5-1.2.3-.3.8-.5,1.3-.5s1,.2,1.3.5c.3.3.5.7.5,1.2s-.2.9-.5,1.2c-.3.3-.8.5-1.3.5s-1-.2-1.3-.5c-.3-.3-.5-.7-.5-1.2ZM741.7,152.4v13.1h-3.2v-13.1h3.2Z"/>
          <path d="M747.9,155.2v10.3h-3.2v-13.1h3l.2,2.8ZM747.4,158.5h-.9c0-1,.1-1.8.4-2.6.2-.8.6-1.4,1.1-2s1-1,1.6-1.3c.6-.3,1.3-.4,2.1-.4s1.2,0,1.7.3c.5.2.9.5,1.3.8.4.4.6.9.8,1.5.2.6.3,1.4.3,2.3v8.4h-3.2v-8.4c0-.6,0-1.1-.3-1.4-.2-.3-.4-.6-.7-.7-.3-.1-.7-.2-1.2-.2s-.9,0-1.3.3c-.4.2-.7.5-.9.8s-.4.7-.6,1.2c-.1.5-.2.9-.2,1.5Z"/>
          <path d="M765.8,161.9c0-.3,0-.5-.2-.7-.1-.2-.4-.4-.8-.6-.4-.2-1-.4-1.7-.5-.7-.1-1.3-.3-1.9-.5-.6-.2-1.1-.5-1.5-.8-.4-.3-.7-.7-1-1.1-.2-.4-.3-.9-.3-1.5s.1-1,.4-1.5c.2-.5.6-.9,1-1.3.4-.4,1-.7,1.6-.9.6-.2,1.4-.3,2.2-.3s2.1.2,2.9.5c.8.4,1.4.9,1.8,1.5.4.6.6,1.3.6,2.1h-3.2c0-.3,0-.7-.2-.9s-.4-.5-.7-.7-.7-.3-1.2-.3-.8,0-1.1.2c-.3.1-.5.3-.7.6-.2.2-.2.5-.2.8s0,.4.1.6c0,.2.2.3.4.5.2.1.5.3.8.4.3.1.7.2,1.2.3,1,.2,1.8.4,2.6.8s1.3.7,1.7,1.3c.4.5.6,1.2.6,2s-.1,1.1-.4,1.6c-.2.5-.6.9-1.1,1.3-.5.4-1,.6-1.7.8-.7.2-1.4.3-2.2.3-1.2,0-2.2-.2-3-.6s-1.5-1-1.9-1.6c-.4-.7-.6-1.4-.6-2.1h3.1c0,.5.2.9.4,1.2s.6.5.9.7c.4.1.8.2,1.2.2s.9,0,1.2-.2c.3-.1.6-.3.7-.5.2-.2.3-.5.3-.8Z"/>
          <path d="M774.5,154.9v15.6h-3.2v-18.1h3l.2,2.5ZM782.9,158.8v.3c0,1-.1,1.8-.3,2.6-.2.8-.5,1.5-1,2.1-.4.6-1,1.1-1.6,1.4-.6.3-1.4.5-2.2.5s-1.5-.2-2.1-.5c-.6-.3-1.1-.8-1.5-1.3-.4-.6-.7-1.2-1-2s-.4-1.6-.5-2.5v-.8c.1-1,.3-1.8.5-2.6.2-.8.6-1.5,1-2,.4-.6.9-1,1.5-1.3.6-.3,1.3-.5,2.1-.5s1.6.2,2.2.5c.6.3,1.2.8,1.6,1.4.4.6.8,1.3,1,2.1.2.8.3,1.7.3,2.7ZM779.7,159.1v-.3c0-.6,0-1.1-.2-1.6s-.3-.9-.5-1.3c-.2-.4-.5-.7-.8-.9-.3-.2-.8-.3-1.3-.3s-.9,0-1.3.2c-.4.2-.6.4-.9.7-.2.3-.4.7-.5,1.1s-.2.9-.2,1.3v2c0,.6.2,1.1.4,1.6s.5.9.9,1.1.9.4,1.6.4.9-.1,1.3-.3.6-.5.8-.9.4-.8.5-1.3c0-.5.1-1,.1-1.6Z"/>
          <path d="M791.1,165.7c-1,0-1.9-.2-2.7-.5s-1.5-.8-2-1.3c-.6-.6-1-1.2-1.3-2-.3-.8-.4-1.6-.4-2.5v-.5c0-1,.1-1.9.4-2.8.3-.8.7-1.5,1.2-2.1.5-.6,1.2-1.1,1.9-1.4.7-.3,1.6-.5,2.5-.5s1.7.2,2.5.5c.7.3,1.3.7,1.8,1.3.5.6.8,1.2,1.1,2,.2.8.4,1.7.4,2.6v1.3h-10.3v-2.2h7.1v-.2c0-.5-.1-1-.3-1.4-.2-.4-.5-.8-.8-1s-.9-.4-1.4-.4-.9.1-1.2.3c-.4.2-.6.5-.9.9-.2.4-.4.8-.5,1.3-.1.5-.2,1.1-.2,1.7v.5c0,.5,0,1.1.2,1.5.1.5.4.9.7,1.2.3.3.6.6,1.1.8s.9.3,1.4.3,1.3-.1,1.8-.4c.5-.3,1-.7,1.4-1.2l1.6,1.7c-.3.4-.6.8-1.1,1.2s-1,.7-1.7.9c-.7.2-1.4.3-2.3.3Z"/>
          <path d="M803.9,163.2c.5,0,.9,0,1.2-.3s.6-.4.9-.8c.2-.3.3-.7.3-1.1h3c0,.9-.3,1.7-.8,2.4s-1.1,1.3-1.9,1.7c-.8.4-1.7.6-2.7.6s-1.9-.2-2.6-.5c-.8-.3-1.4-.8-1.9-1.4-.5-.6-.9-1.3-1.1-2.1-.2-.8-.4-1.7-.4-2.6v-.4c0-.9.1-1.8.4-2.6.2-.8.6-1.5,1.1-2.1.5-.6,1.1-1.1,1.9-1.4.8-.3,1.6-.5,2.6-.5s2,.2,2.8.6c.8.4,1.4,1,1.9,1.7.5.7.7,1.6.7,2.6h-3c0-.5-.1-.9-.3-1.3s-.5-.7-.8-.9c-.4-.2-.8-.3-1.3-.3s-1,.1-1.3.3c-.4.2-.6.5-.8.9s-.3.8-.4,1.3c0,.5-.1,1-.1,1.5v.4c0,.5,0,1,.1,1.5,0,.5.2.9.4,1.3s.5.7.8.9c.4.2.8.3,1.4.3Z"/>
          <path d="M817.7,152.4v2.3h-7.5v-2.3h7.5ZM812.2,149.2h3.2v12.5c0,.4,0,.7.2.9.1.2.3.4.5.4.2,0,.5.1.8.1s.4,0,.6,0c.2,0,.3,0,.4,0v2.4c-.3,0-.6.2-.9.2-.3,0-.7,0-1.1,0-.7,0-1.3-.1-1.9-.4s-1-.6-1.3-1.2c-.3-.6-.4-1.3-.4-2.2v-12.8Z"/>
          <path d="M819.8,149c0-.5.2-.9.5-1.2.3-.3.8-.5,1.3-.5s1,.2,1.3.5c.3.3.5.7.5,1.2s-.2.9-.5,1.2c-.3.3-.8.5-1.3.5s-1-.2-1.3-.5c-.3-.3-.5-.7-.5-1.2ZM823.2,152.4v13.1h-3.2v-13.1h3.2Z"/>
          <path d="M825.7,159.1v-.3c0-1,.1-1.8.4-2.7.3-.8.7-1.5,1.2-2.1.5-.6,1.2-1.1,1.9-1.4s1.6-.5,2.6-.5,1.9.2,2.6.5,1.4.8,1.9,1.4c.5.6.9,1.3,1.2,2.1.3.8.4,1.7.4,2.7v.3c0,1-.1,1.8-.4,2.6-.3.8-.7,1.5-1.2,2.1-.5.6-1.2,1.1-1.9,1.4s-1.6.5-2.6.5-1.8-.2-2.6-.5-1.4-.8-1.9-1.4c-.5-.6-.9-1.3-1.2-2.1-.3-.8-.4-1.7-.4-2.6ZM828.9,158.8v.3c0,.6,0,1.1.2,1.6.1.5.3.9.5,1.3.2.4.5.7.9.9.4.2.8.3,1.3.3s1-.1,1.3-.3c.4-.2.7-.5.9-.9.2-.4.4-.8.5-1.3.1-.5.2-1,.2-1.6v-.3c0-.6,0-1.1-.2-1.6-.1-.5-.3-.9-.5-1.3-.2-.4-.5-.7-.9-.9s-.8-.3-1.3-.3-1,.1-1.3.3c-.4.2-.7.5-.9.9-.2.4-.4.8-.5,1.3-.1.5-.2,1-.2,1.6Z"/>
          <path d="M843.4,155.2v10.3h-3.2v-13.1h3l.2,2.8ZM842.9,158.5h-.9c0-1,.1-1.8.4-2.6.2-.8.6-1.4,1.1-2s1-1,1.6-1.3c.6-.3,1.3-.4,2.1-.4s1.2,0,1.7.3c.5.2.9.5,1.3.8.4.4.6.9.8,1.5.2.6.3,1.4.3,2.3v8.4h-3.2v-8.4c0-.6,0-1.1-.3-1.4-.2-.3-.4-.6-.7-.7-.3-.1-.7-.2-1.2-.2s-.9,0-1.3.3c-.4.2-.7.5-.9.8s-.4.7-.6,1.2c-.1.5-.2.9-.2,1.5Z"/>
          <path d="M859.7,159.1v-.3c0-1,.1-1.8.4-2.7.3-.8.7-1.5,1.2-2.1.5-.6,1.2-1.1,1.9-1.4s1.6-.5,2.6-.5,1.9.2,2.6.5,1.4.8,1.9,1.4c.5.6.9,1.3,1.2,2.1.3.8.4,1.7.4,2.7v.3c0,1-.1,1.8-.4,2.6-.3.8-.7,1.5-1.2,2.1-.5.6-1.2,1.1-1.9,1.4s-1.6.5-2.6.5-1.8-.2-2.6-.5-1.4-.8-1.9-1.4c-.5-.6-.9-1.3-1.2-2.1-.3-.8-.4-1.7-.4-2.6ZM862.9,158.8v.3c0,.6,0,1.1.2,1.6.1.5.3.9.5,1.3.2.4.5.7.9.9.4.2.8.3,1.3.3s1-.1,1.3-.3c.4-.2.7-.5.9-.9.2-.4.4-.8.5-1.3.1-.5.2-1,.2-1.6v-.3c0-.6,0-1.1-.2-1.6-.1-.5-.3-.9-.5-1.3-.2-.4-.5-.7-.9-.9s-.8-.3-1.3-.3-1,.1-1.3.3c-.4.2-.7.5-.9.9-.2.4-.4.8-.5,1.3-.1.5-.2,1-.2,1.6Z"/>
          <path d="M881.1,152.4v2.3h-7.8v-2.3h7.8ZM878.4,165.5h-3.2v-14.3c0-1,.2-1.8.6-2.5.4-.7.9-1.2,1.6-1.5s1.5-.5,2.5-.5.6,0,.9,0c.3,0,.6,0,.9.2v2.4c-.2,0-.4,0-.6,0-.2,0-.4,0-.6,0-.4,0-.8,0-1.1.2-.3.2-.5.4-.7.7s-.2.7-.2,1.1v14.3Z"/>
          <path d="M891.3,152.4l3,9.6.5,3.4-2.2.4-4.7-13.4h3.4ZM893,164l3.5-11.6h3.4l-5.2,15.1c-.1.3-.3.7-.5,1.1-.2.4-.4.7-.8,1.1-.3.3-.7.6-1.2.8s-1,.3-1.7.3-.5,0-.8,0c-.2,0-.5,0-.7-.2v-2.4c0,0,.2,0,.3,0,.1,0,.2,0,.3,0,.5,0,.9,0,1.2-.2s.6-.3.7-.5.3-.5.5-.9l1-2.5Z"/>
          <path d="M900.8,159.1v-.3c0-1,.1-1.8.4-2.7.3-.8.7-1.5,1.2-2.1.5-.6,1.2-1.1,1.9-1.4s1.6-.5,2.6-.5,1.9.2,2.6.5,1.4.8,1.9,1.4c.5.6.9,1.3,1.2,2.1.3.8.4,1.7.4,2.7v.3c0,1-.1,1.8-.4,2.6-.3.8-.7,1.5-1.2,2.1-.5.6-1.2,1.1-1.9,1.4s-1.6.5-2.6.5-1.8-.2-2.6-.5-1.4-.8-1.9-1.4c-.5-.6-.9-1.3-1.2-2.1-.3-.8-.4-1.7-.4-2.6ZM904,158.8v.3c0,.6,0,1.1.2,1.6.1.5.3.9.5,1.3.2.4.5.7.9.9.4.2.8.3,1.3.3s1-.1,1.3-.3c.4-.2.7-.5.9-.9.2-.4.4-.8.5-1.3.1-.5.2-1,.2-1.6v-.3c0-.6,0-1.1-.2-1.6-.1-.5-.3-.9-.5-1.3-.2-.4-.5-.7-.9-.9s-.8-.3-1.3-.3-1,.1-1.3.3c-.4.2-.7.5-.9.9-.2.4-.4.8-.5,1.3-.1.5-.2,1-.2,1.6Z"/>
          <path d="M923.5,159.7h1c0,.9,0,1.7-.3,2.4s-.5,1.4-.9,1.9c-.4.5-.9,1-1.5,1.3s-1.4.5-2.2.5-1.2,0-1.8-.3c-.5-.2-1-.5-1.4-.9s-.7-.9-.9-1.5c-.2-.6-.3-1.4-.3-2.2v-8.5h3.2v8.5c0,.4,0,.8.2,1.1s.2.5.4.7c.2.2.4.3.6.4.2,0,.5.1.8.1.8,0,1.4-.2,1.8-.5.4-.3.8-.7,1-1.3.2-.5.3-1.1.3-1.8ZM923.1,162.4v-10h3.2v13.1h-3l-.2-3.1Z"/>
          <path d="M932.4,155.1v10.4h-3.2v-13.1h3l.2,2.7ZM936.3,152.3v3c-.2,0-.4,0-.6,0s-.4,0-.6,0c-.5,0-.9,0-1.3.2-.4.1-.7.3-.9.6-.2.2-.4.6-.6.9-.1.4-.2.8-.2,1.2h-.7c0-.9,0-1.7.3-2.4.2-.7.4-1.3.7-1.9.3-.5.7-.9,1.2-1.2.5-.3,1-.4,1.7-.4s.4,0,.6,0c.2,0,.4,0,.5.1Z"/>
        </g>
      </g>
      <g class="st1">
        <g class="st1">
          <path d="M279.5,182.7l3.1,10.7v2.4c.1,0-1.9,0-1.9,0l-4.5-13.1h3.3ZM281.8,193.4l3-10.7h3.3l-4.5,13.1h-2v-2.4Z"/>
          <path d="M295.6,196c-1,0-1.9-.2-2.7-.5s-1.5-.8-2-1.3-1-1.2-1.3-2c-.3-.8-.4-1.6-.4-2.5v-.5c0-1,.1-1.9.4-2.8.3-.8.7-1.5,1.2-2.1.5-.6,1.2-1.1,1.9-1.4.7-.3,1.6-.5,2.5-.5s1.7.2,2.5.5c.7.3,1.3.7,1.8,1.3.5.6.8,1.2,1.1,2,.2.8.4,1.7.4,2.6v1.3h-10.3v-2.2h7.1v-.2c0-.5-.1-1-.3-1.4s-.5-.8-.8-1c-.4-.3-.9-.4-1.4-.4s-.9.1-1.2.3-.6.5-.9.9c-.2.4-.4.8-.5,1.3-.1.5-.2,1.1-.2,1.7v.5c0,.5,0,1.1.2,1.5.1.5.4.9.7,1.2.3.3.6.6,1.1.8s.9.3,1.4.3,1.3-.1,1.8-.4c.5-.3,1-.7,1.4-1.2l1.6,1.7c-.3.4-.6.8-1.1,1.2-.5.4-1,.7-1.7.9-.7.2-1.4.3-2.3.3Z"/>
          <path d="M306.1,177.2v18.6h-3.2v-18.6h3.2ZM305.6,188.8h-.9c0-.9.1-1.7.4-2.5.2-.8.6-1.4,1-2,.4-.6,1-1,1.6-1.3s1.3-.5,2-.5,1.2,0,1.8.3c.5.2,1,.5,1.4.9s.7.9.9,1.5.3,1.4.3,2.3v8.3h-3.2v-8.4c0-.6,0-1.1-.3-1.4-.2-.4-.4-.6-.8-.8-.3-.2-.7-.2-1.2-.2s-1,0-1.3.3c-.4.2-.7.5-.9.8s-.4.7-.5,1.2c-.1.5-.2.9-.2,1.5Z"/>
          <path d="M316.8,179.3c0-.5.2-.9.5-1.2.3-.3.8-.5,1.3-.5s1,.2,1.3.5c.3.3.5.7.5,1.2s-.2.9-.5,1.2c-.3.3-.8.5-1.3.5s-1-.2-1.3-.5c-.3-.3-.5-.7-.5-1.2ZM320.2,182.7v13.1h-3.2v-13.1h3.2Z"/>
          <path d="M328.6,193.5c.5,0,.9,0,1.2-.3.4-.2.6-.4.9-.8.2-.3.3-.7.3-1.1h3c0,.9-.3,1.7-.7,2.4-.5.7-1.1,1.3-1.9,1.7-.8.4-1.7.6-2.7.6s-1.9-.2-2.6-.5c-.7-.3-1.4-.8-1.9-1.4-.5-.6-.9-1.3-1.1-2.1-.2-.8-.4-1.7-.4-2.6v-.4c0-.9.1-1.8.4-2.6.2-.8.6-1.5,1.1-2.1.5-.6,1.1-1.1,1.9-1.4.8-.3,1.6-.5,2.6-.5s2,.2,2.8.6c.8.4,1.4,1,1.9,1.7.5.7.7,1.6.7,2.6h-3c0-.5-.1-.9-.3-1.3-.2-.4-.5-.7-.8-.9-.4-.2-.8-.3-1.3-.3s-1,.1-1.3.3c-.4.2-.6.5-.8.9-.2.4-.3.8-.4,1.3s-.1,1-.1,1.5v.4c0,.5,0,1,.1,1.5,0,.5.2.9.4,1.3.2.4.5.7.8.9.4.2.8.3,1.4.3Z"/>
          <path d="M339.6,177.2v18.6h-3.2v-18.6h3.2Z"/>
          <path d="M348.5,196c-1,0-1.9-.2-2.7-.5s-1.5-.8-2-1.3-1-1.2-1.3-2c-.3-.8-.4-1.6-.4-2.5v-.5c0-1,.1-1.9.4-2.8.3-.8.7-1.5,1.2-2.1.5-.6,1.2-1.1,1.9-1.4.7-.3,1.6-.5,2.5-.5s1.7.2,2.5.5c.7.3,1.3.7,1.8,1.3.5.6.8,1.2,1.1,2,.2.8.4,1.7.4,2.6v1.3h-10.3v-2.2h7.1v-.2c0-.5-.1-1-.3-1.4s-.5-.8-.8-1c-.4-.3-.9-.4-1.4-.4s-.9.1-1.2.3-.6.5-.9.9c-.2.4-.4.8-.5,1.3-.1.5-.2,1.1-.2,1.7v.5c0,.5,0,1.1.2,1.5.1.5.4.9.7,1.2.3.3.6.6,1.1.8s.9.3,1.4.3,1.3-.1,1.8-.4c.5-.3,1-.7,1.4-1.2l1.6,1.7c-.3.4-.6.8-1.1,1.2-.5.4-1,.7-1.7.9-.7.2-1.4.3-2.3.3Z"/>
          <path d="M356.1,194.2c0-.5.2-.9.5-1.2s.8-.5,1.3-.5,1,.2,1.3.5.5.7.5,1.2-.2.9-.5,1.2c-.3.3-.8.5-1.3.5s-1-.2-1.3-.5c-.3-.3-.5-.7-.5-1.2Z"/>
          <path d="M378.6,191.2c0-.3,0-.6-.2-.9-.1-.3-.3-.5-.5-.7-.3-.2-.6-.4-1.1-.7-.5-.2-1.1-.4-1.8-.7-.8-.3-1.6-.5-2.3-.9s-1.3-.7-1.9-1.1-1-.9-1.3-1.5c-.3-.6-.4-1.2-.4-2s.2-1.4.5-2c.3-.6.8-1.1,1.3-1.5s1.2-.8,2-1,1.6-.4,2.6-.4,2.4.2,3.4.7,1.7,1.1,2.2,1.9c.5.8.8,1.7.8,2.7h-3.3c0-.5-.1-1-.3-1.5-.2-.4-.6-.8-1-1s-1-.4-1.7-.4-1.2.1-1.7.3c-.4.2-.8.5-1,.8s-.3.7-.3,1.2,0,.6.2.9c.2.3.4.5.7.7.3.2.7.4,1.1.6s1,.4,1.6.6c1,.3,1.8.6,2.5,1,.7.4,1.3.8,1.8,1.2.5.5.9,1,1.1,1.5.2.6.4,1.2.4,1.9s-.1,1.4-.4,2c-.3.6-.7,1.1-1.3,1.5-.6.4-1.2.7-2,1-.8.2-1.6.3-2.6.3s-1.7-.1-2.5-.3c-.8-.2-1.6-.6-2.3-1-.7-.5-1.2-1.1-1.6-1.8-.4-.7-.6-1.5-.6-2.5h3.3c0,.6,0,1,.3,1.4.2.4.4.7.8,1,.3.2.7.4,1.2.5.5.1.9.2,1.5.2s1.2,0,1.7-.3.8-.5,1-.8c.2-.3.3-.7.3-1.2Z"/>
          <path d="M391.9,187.8v1.9s-2,0-2,0c-.5,0-.9,0-1.3.2-.4.1-.7.2-.9.4s-.4.4-.5.7c-.1.3-.2.6-.2.9s0,.6.2.9c.1.3.4.5.7.6.3.1.6.2,1,.2.6,0,1.1-.1,1.5-.3.4-.2.7-.5,1-.8s.4-.6.4-.9l.9,1.4c-.1.3-.3.7-.5,1.1-.2.4-.5.7-.9,1-.4.3-.8.6-1.3.8-.5.2-1.1.3-1.7.3s-1.6-.2-2.3-.5c-.7-.3-1.2-.8-1.6-1.4-.4-.6-.6-1.3-.6-2s.1-1.3.4-1.8c.3-.5.6-1,1.1-1.3s1.1-.6,1.9-.8,1.6-.3,2.6-.3h2.2ZM391.4,193v-6c0-.4,0-.8-.2-1.1-.2-.3-.4-.6-.7-.7s-.7-.3-1.2-.3-.8,0-1.1.2c-.3.1-.6.3-.7.6-.2.3-.3.6-.3.9h-3.2c0-.5.1-1.1.4-1.5.3-.5.6-.9,1.1-1.3.5-.4,1.1-.7,1.7-.9.7-.2,1.4-.3,2.3-.3s1.9.2,2.7.5,1.4.8,1.8,1.5.7,1.5.7,2.5v5.7c0,.7,0,1.2.1,1.7,0,.5.2.9.4,1.2v.2h-3.3c-.2-.3-.3-.8-.4-1.3,0-.5-.1-1-.1-1.5Z"/>
          <path d="M404.4,182.7v2.3h-7.8v-2.3h7.8ZM401.7,195.8h-3.2v-14.3c0-1,.2-1.8.6-2.5.4-.7.9-1.2,1.6-1.5s1.5-.5,2.5-.5.6,0,.9,0,.6,0,.9.2v2.4c-.2,0-.4,0-.6,0-.2,0-.4,0-.6,0-.4,0-.8,0-1.1.2-.3.2-.5.4-.7.7s-.2.7-.2,1.1v14.3Z"/>
          <path d="M411.9,196c-1,0-1.9-.2-2.7-.5s-1.5-.8-2-1.3-1-1.2-1.3-2c-.3-.8-.4-1.6-.4-2.5v-.5c0-1,.1-1.9.4-2.8.3-.8.7-1.5,1.2-2.1.5-.6,1.2-1.1,1.9-1.4.7-.3,1.6-.5,2.5-.5s1.7.2,2.5.5c.7.3,1.3.7,1.8,1.3.5.6.8,1.2,1.1,2,.2.8.4,1.7.4,2.6v1.3h-10.3v-2.2h7.1v-.2c0-.5-.1-1-.3-1.4s-.5-.8-.8-1c-.4-.3-.9-.4-1.4-.4s-.9.1-1.2.3-.6.5-.9.9c-.2.4-.4.8-.5,1.3-.1.5-.2,1.1-.2,1.7v.5c0,.5,0,1.1.2,1.5.1.5.4.9.7,1.2.3.3.6.6,1.1.8s.9.3,1.4.3,1.3-.1,1.8-.4c.5-.3,1-.7,1.4-1.2l1.6,1.7c-.3.4-.6.8-1.1,1.2-.5.4-1,.7-1.7.9-.7.2-1.4.3-2.3.3Z"/>
          <path d="M426.6,192.2c0-.3,0-.5-.2-.7-.1-.2-.4-.4-.8-.6-.4-.2-1-.4-1.7-.5-.7-.1-1.3-.3-1.9-.5s-1.1-.5-1.5-.8c-.4-.3-.7-.7-1-1.1-.2-.4-.3-.9-.3-1.5s.1-1,.4-1.5c.2-.5.6-.9,1-1.3.4-.4,1-.7,1.6-.9.6-.2,1.4-.3,2.2-.3s2.1.2,2.9.5c.8.4,1.4.9,1.8,1.5s.6,1.3.6,2.1h-3.2c0-.3,0-.7-.2-.9-.2-.3-.4-.5-.7-.7s-.7-.3-1.2-.3-.8,0-1.1.2c-.3.1-.5.3-.7.6-.2.2-.2.5-.2.8s0,.4.1.6c0,.2.2.3.4.5s.5.3.8.4.7.2,1.2.3c1,.2,1.8.4,2.6.8.7.3,1.3.7,1.7,1.3.4.5.6,1.2.6,2s-.1,1.1-.4,1.6c-.2.5-.6.9-1.1,1.3-.5.4-1,.6-1.7.8-.7.2-1.4.3-2.2.3-1.2,0-2.2-.2-3-.6s-1.5-1-1.9-1.6-.6-1.4-.6-2.1h3.1c0,.5.2.9.4,1.2.2.3.6.5.9.7.4.1.8.2,1.2.2s.9,0,1.2-.2c.3-.1.6-.3.8-.5.2-.2.3-.5.3-.8Z"/>
          <path d="M438.3,182.7v2.3h-7.5v-2.3h7.5ZM432.8,179.5h3.2v12.5c0,.4,0,.7.2.9.1.2.3.4.5.4.2,0,.5.1.7.1s.4,0,.6,0c.2,0,.3,0,.4,0v2.4c-.3,0-.6.2-.9.2-.3,0-.7,0-1.1,0-.7,0-1.3-.1-1.9-.4-.5-.2-1-.6-1.3-1.2-.3-.6-.4-1.3-.4-2.2v-12.8Z"/>
          <path d="M448.6,182.7l2.2,10,.2,3.1h-2l-3.4-13.1h3.1ZM450.2,192.6l2.9-9.9h2l-.6,3.4-2.9,9.6h-1.8l.4-3.1ZM455.4,182.7l2.8,9.8.4,3.2h-1.8l-2.9-9.6-.6-3.4h2ZM457.8,192.5l2.1-9.8h3.1l-3.4,13.1h-2l.2-3.3Z"/>
          <path d="M472.5,187.8v1.9s-2,0-2,0c-.5,0-.9,0-1.3.2-.4.1-.7.2-.9.4s-.4.4-.5.7c-.1.3-.2.6-.2.9s0,.6.2.9c.1.3.4.5.7.6.3.1.6.2,1,.2.6,0,1.1-.1,1.5-.3.4-.2.7-.5,1-.8s.4-.6.4-.9l.9,1.4c-.1.3-.3.7-.5,1.1-.2.4-.5.7-.9,1-.4.3-.8.6-1.3.8-.5.2-1.1.3-1.7.3s-1.6-.2-2.3-.5c-.7-.3-1.2-.8-1.6-1.4-.4-.6-.6-1.3-.6-2s.1-1.3.4-1.8c.3-.5.6-1,1.1-1.3s1.1-.6,1.9-.8,1.6-.3,2.6-.3h2.2ZM472.1,193v-6c0-.4,0-.8-.2-1.1-.2-.3-.4-.6-.7-.7s-.7-.3-1.2-.3-.8,0-1.1.2c-.3.1-.6.3-.7.6-.2.3-.3.6-.3.9h-3.2c0-.5.1-1.1.4-1.5.3-.5.6-.9,1.1-1.3.5-.4,1.1-.7,1.7-.9.7-.2,1.4-.3,2.3-.3s1.9.2,2.7.5,1.4.8,1.8,1.5.7,1.5.7,2.5v5.7c0,.7,0,1.2.1,1.7,0,.5.2.9.4,1.2v.2h-3.3c-.2-.3-.3-.8-.4-1.3,0-.5-.1-1-.1-1.5Z"/>
          <path d="M480.1,182.7l3,9.6.5,3.4-2.2.4-4.7-13.4h3.4ZM481.8,194.3l3.5-11.6h3.4l-5.2,15.1c-.1.3-.3.7-.5,1.1-.2.4-.4.7-.8,1.1-.3.3-.7.6-1.2.8-.5.2-1,.3-1.7.3s-.5,0-.8,0c-.2,0-.5,0-.7-.2v-2.4c0,0,.2,0,.3,0,.1,0,.2,0,.3,0,.5,0,.9,0,1.2-.2.3-.1.6-.3.7-.5s.3-.5.5-.9l1-2.5Z"/>
          <path d="M502.6,182.7v2.3h-7.5v-2.3h7.5ZM497.1,179.5h3.2v12.5c0,.4,0,.7.2.9.1.2.3.4.5.4.2,0,.5.1.7.1s.4,0,.6,0c.2,0,.3,0,.4,0v2.4c-.3,0-.6.2-.9.2-.3,0-.7,0-1.1,0-.7,0-1.3-.1-1.9-.4-.5-.2-1-.6-1.3-1.2-.3-.6-.4-1.3-.4-2.2v-12.8Z"/>
          <path d="M503.9,189.4v-.3c0-1,.1-1.8.4-2.7.3-.8.7-1.5,1.2-2.1s1.2-1.1,1.9-1.4c.8-.3,1.6-.5,2.6-.5s1.9.2,2.6.5,1.4.8,1.9,1.4.9,1.3,1.2,2.1.4,1.7.4,2.7v.3c0,1-.1,1.8-.4,2.6s-.7,1.5-1.2,2.1-1.2,1.1-1.9,1.4c-.8.3-1.6.5-2.6.5s-1.8-.2-2.6-.5c-.8-.3-1.4-.8-1.9-1.4s-.9-1.3-1.2-2.1c-.3-.8-.4-1.7-.4-2.6ZM507.1,189.1v.3c0,.6,0,1.1.2,1.6.1.5.3.9.5,1.3.2.4.5.7.9.9.4.2.8.3,1.3.3s1-.1,1.3-.3c.4-.2.7-.5.9-.9s.4-.8.5-1.3c.1-.5.2-1,.2-1.6v-.3c0-.6,0-1.1-.2-1.6-.1-.5-.3-.9-.5-1.3s-.5-.7-.9-.9-.8-.3-1.3-.3-1,.1-1.3.3-.7.5-.9.9c-.2.4-.4.8-.5,1.3-.1.5-.2,1-.2,1.6Z"/>
          <path d="M531.8,192.2c0-.3,0-.5-.2-.7-.1-.2-.4-.4-.8-.6-.4-.2-1-.4-1.7-.5-.7-.1-1.3-.3-1.9-.5s-1.1-.5-1.5-.8c-.4-.3-.7-.7-1-1.1-.2-.4-.3-.9-.3-1.5s.1-1,.4-1.5c.2-.5.6-.9,1-1.3.4-.4,1-.7,1.6-.9.6-.2,1.4-.3,2.2-.3s2.1.2,2.9.5c.8.4,1.4.9,1.8,1.5s.6,1.3.6,2.1h-3.2c0-.3,0-.7-.2-.9-.2-.3-.4-.5-.7-.7s-.7-.3-1.2-.3-.8,0-1.1.2c-.3.1-.5.3-.7.6-.2.2-.2.5-.2.8s0,.4.1.6c0,.2.2.3.4.5s.5.3.8.4.7.2,1.2.3c1,.2,1.8.4,2.6.8.7.3,1.3.7,1.7,1.3.4.5.6,1.2.6,2s-.1,1.1-.4,1.6c-.2.5-.6.9-1.1,1.3-.5.4-1,.6-1.7.8-.7.2-1.4.3-2.2.3-1.2,0-2.2-.2-3-.6s-1.5-1-1.9-1.6-.6-1.4-.6-2.1h3.1c0,.5.2.9.4,1.2.2.3.6.5.9.7.4.1.8.2,1.2.2s.9,0,1.2-.2c.3-.1.6-.3.8-.5.2-.2.3-.5.3-.8Z"/>
          <path d="M543.2,196c-1,0-1.9-.2-2.7-.5s-1.5-.8-2-1.3-1-1.2-1.3-2c-.3-.8-.4-1.6-.4-2.5v-.5c0-1,.1-1.9.4-2.8.3-.8.7-1.5,1.2-2.1.5-.6,1.2-1.1,1.9-1.4.7-.3,1.6-.5,2.5-.5s1.7.2,2.5.5c.7.3,1.3.7,1.8,1.3.5.6.8,1.2,1.1,2,.2.8.4,1.7.4,2.6v1.3h-10.3v-2.2h7.1v-.2c0-.5-.1-1-.3-1.4s-.5-.8-.8-1c-.4-.3-.9-.4-1.4-.4s-.9.1-1.2.3-.6.5-.9.9c-.2.4-.4.8-.5,1.3-.1.5-.2,1.1-.2,1.7v.5c0,.5,0,1.1.2,1.5.1.5.4.9.7,1.2.3.3.6.6,1.1.8s.9.3,1.4.3,1.3-.1,1.8-.4c.5-.3,1-.7,1.4-1.2l1.6,1.7c-.3.4-.6.8-1.1,1.2-.5.4-1,.7-1.7.9-.7.2-1.4.3-2.3.3Z"/>
          <path d="M554.1,177.2v18.6h-3.2v-18.6h3.2Z"/>
          <path d="M560.5,177.2v18.6h-3.2v-18.6h3.2Z"/>
          <path d="M577.3,187.8v1.9s-2,0-2,0c-.5,0-.9,0-1.3.2-.4.1-.7.2-.9.4s-.4.4-.5.7c-.1.3-.2.6-.2.9s0,.6.2.9c.1.3.4.5.7.6.3.1.6.2,1,.2.6,0,1.1-.1,1.5-.3.4-.2.7-.5,1-.8s.4-.6.4-.9l.9,1.4c-.1.3-.3.7-.5,1.1-.2.4-.5.7-.9,1-.4.3-.8.6-1.3.8-.5.2-1.1.3-1.7.3s-1.6-.2-2.3-.5c-.7-.3-1.2-.8-1.6-1.4-.4-.6-.6-1.3-.6-2s.1-1.3.4-1.8c.3-.5.6-1,1.1-1.3s1.1-.6,1.9-.8,1.6-.3,2.6-.3h2.2ZM576.9,193v-6c0-.4,0-.8-.2-1.1-.2-.3-.4-.6-.7-.7s-.7-.3-1.2-.3-.8,0-1.1.2c-.3.1-.6.3-.7.6-.2.3-.3.6-.3.9h-3.2c0-.5.1-1.1.4-1.5.3-.5.6-.9,1.1-1.3.5-.4,1.1-.7,1.7-.9.7-.2,1.4-.3,2.3-.3s1.9.2,2.7.5,1.4.8,1.8,1.5.7,1.5.7,2.5v5.7c0,.7,0,1.2.1,1.7,0,.5.2.9.4,1.2v.2h-3.3c-.2-.3-.3-.8-.4-1.3,0-.5-.1-1-.1-1.5Z"/>
          <path d="M594.5,193.5c.5,0,.9,0,1.2-.3s.6-.4.9-.8c.2-.3.3-.7.3-1.1h3c0,.9-.3,1.7-.8,2.4-.5.7-1.1,1.3-1.9,1.7-.8.4-1.7.6-2.7.6s-1.9-.2-2.6-.5c-.7-.3-1.4-.8-1.9-1.4-.5-.6-.9-1.3-1.1-2.1-.2-.8-.4-1.7-.4-2.6v-.4c0-.9.1-1.8.4-2.6.2-.8.6-1.5,1.1-2.1.5-.6,1.1-1.1,1.9-1.4.7-.3,1.6-.5,2.6-.5s2,.2,2.8.6,1.4,1,1.9,1.7c.5.7.7,1.6.7,2.6h-3c0-.5-.1-.9-.3-1.3s-.5-.7-.8-.9c-.4-.2-.8-.3-1.3-.3s-1,.1-1.3.3c-.4.2-.6.5-.8.9-.2.4-.3.8-.4,1.3s-.1,1-.1,1.5v.4c0,.5,0,1,.1,1.5,0,.5.2.9.4,1.3.2.4.5.7.8.9.4.2.8.3,1.4.3Z"/>
          <path d="M609.7,187.8v1.9s-2,0-2,0c-.5,0-.9,0-1.3.2-.4.1-.7.2-.9.4-.2.2-.4.4-.5.7-.1.3-.2.6-.2.9s0,.6.2.9.4.5.7.6c.3.1.6.2,1,.2.6,0,1.1-.1,1.5-.3.4-.2.7-.5,1-.8.2-.3.4-.6.4-.9l.9,1.4c-.1.3-.3.7-.5,1.1-.2.4-.5.7-.9,1-.4.3-.8.6-1.3.8-.5.2-1.1.3-1.7.3s-1.6-.2-2.3-.5c-.7-.3-1.2-.8-1.6-1.4-.4-.6-.6-1.3-.6-2s.1-1.3.4-1.8c.3-.5.6-1,1.1-1.3s1.1-.6,1.9-.8,1.6-.3,2.6-.3h2.2ZM609.3,193v-6c0-.4,0-.8-.2-1.1-.2-.3-.4-.6-.7-.7s-.7-.3-1.2-.3-.8,0-1.1.2-.6.3-.7.6c-.2.3-.3.6-.3.9h-3.2c0-.5.1-1.1.4-1.5s.6-.9,1.1-1.3,1.1-.7,1.7-.9c.7-.2,1.4-.3,2.3-.3s1.9.2,2.7.5c.8.3,1.4.8,1.8,1.5s.7,1.5.7,2.5v5.7c0,.7,0,1.2.1,1.7,0,.5.2.9.4,1.2v.2h-3.3c-.2-.3-.3-.8-.4-1.3,0-.5-.1-1-.1-1.5Z"/>
          <path d="M618.5,185.4v10.4h-3.2v-13.1h3l.2,2.7ZM622.5,182.6v3c-.2,0-.4,0-.6,0s-.4,0-.6,0c-.5,0-.9,0-1.3.2-.4.1-.7.3-.9.6-.2.2-.4.6-.6.9-.1.4-.2.8-.2,1.2h-.7c0-.9,0-1.7.3-2.4.2-.7.4-1.3.7-1.9.3-.5.7-.9,1.2-1.2.5-.3,1-.4,1.7-.4s.4,0,.6,0c.2,0,.4,0,.5.1Z"/>
          <path d="M634.2,178.2v17.6h-3.3v-17.6h3.3Z"/>
          <path d="M646.8,177.2v18.6h-3.2v-18.6h3.2ZM646.3,188.8h-.9c0-.9.1-1.7.4-2.5s.6-1.4,1-2c.4-.6,1-1,1.6-1.3.6-.3,1.3-.5,2-.5s1.2,0,1.8.3c.5.2,1,.5,1.4.9.4.4.7.9.9,1.5.2.6.3,1.4.3,2.3v8.3h-3.2v-8.4c0-.6,0-1.1-.3-1.4-.2-.4-.4-.6-.8-.8-.3-.2-.7-.2-1.2-.2s-1,0-1.3.3c-.4.2-.7.5-.9.8-.2.3-.4.7-.5,1.2-.1.5-.2.9-.2,1.5Z"/>
          <path d="M665.2,187.8v1.9s-2,0-2,0c-.5,0-.9,0-1.3.2-.4.1-.7.2-.9.4s-.4.4-.5.7c-.1.3-.2.6-.2.9s0,.6.2.9.4.5.7.6c.3.1.6.2,1,.2.6,0,1.1-.1,1.5-.3.4-.2.7-.5,1-.8s.4-.6.4-.9l.9,1.4c-.1.3-.3.7-.5,1.1-.2.4-.5.7-.9,1-.4.3-.8.6-1.3.8-.5.2-1.1.3-1.7.3s-1.6-.2-2.3-.5c-.7-.3-1.2-.8-1.6-1.4-.4-.6-.6-1.3-.6-2s.1-1.3.4-1.8c.3-.5.6-1,1.1-1.3s1.1-.6,1.9-.8,1.6-.3,2.6-.3h2.2ZM664.7,193v-6c0-.4,0-.8-.2-1.1-.2-.3-.4-.6-.7-.7s-.7-.3-1.2-.3-.8,0-1.1.2-.6.3-.7.6c-.2.3-.3.6-.3.9h-3.2c0-.5.1-1.1.4-1.5s.6-.9,1.1-1.3,1.1-.7,1.7-.9,1.4-.3,2.3-.3,1.9.2,2.7.5,1.4.8,1.8,1.5.7,1.5.7,2.5v5.7c0,.7,0,1.2.1,1.7,0,.5.2.9.4,1.2v.2h-3.3c-.2-.3-.3-.8-.4-1.3,0-.5-.1-1-.1-1.5Z"/>
          <path d="M672.8,182.7l3.1,10.7v2.4c.1,0-1.9,0-1.9,0l-4.5-13.1h3.3ZM675,193.4l3-10.7h3.3l-4.5,13.1h-2v-2.4Z"/>
          <path d="M688.8,196c-1,0-1.9-.2-2.7-.5s-1.5-.8-2-1.3c-.6-.6-1-1.2-1.3-2-.3-.8-.4-1.6-.4-2.5v-.5c0-1,.1-1.9.4-2.8.3-.8.7-1.5,1.2-2.1.5-.6,1.2-1.1,1.9-1.4.7-.3,1.6-.5,2.5-.5s1.7.2,2.5.5c.7.3,1.3.7,1.8,1.3.5.6.8,1.2,1.1,2,.2.8.4,1.7.4,2.6v1.3h-10.3v-2.2h7.1v-.2c0-.5-.1-1-.3-1.4-.2-.4-.5-.8-.8-1s-.9-.4-1.4-.4-.9.1-1.2.3c-.4.2-.6.5-.9.9-.2.4-.4.8-.5,1.3-.1.5-.2,1.1-.2,1.7v.5c0,.5,0,1.1.2,1.5.1.5.4.9.7,1.2.3.3.6.6,1.1.8s.9.3,1.4.3,1.3-.1,1.8-.4c.5-.3,1-.7,1.4-1.2l1.6,1.7c-.3.4-.6.8-1.1,1.2s-1,.7-1.7.9c-.7.2-1.4.3-2.3.3Z"/>
          <path d="M708.2,196c-1,0-1.9-.2-2.7-.5s-1.5-.8-2-1.3c-.6-.6-1-1.2-1.3-2-.3-.8-.4-1.6-.4-2.5v-.5c0-1,.1-1.9.4-2.8.3-.8.7-1.5,1.2-2.1.5-.6,1.2-1.1,1.9-1.4.7-.3,1.6-.5,2.5-.5s1.7.2,2.5.5c.7.3,1.3.7,1.8,1.3.5.6.8,1.2,1.1,2,.2.8.4,1.7.4,2.6v1.3h-10.3v-2.2h7.1v-.2c0-.5-.1-1-.3-1.4-.2-.4-.5-.8-.8-1s-.9-.4-1.4-.4-.9.1-1.2.3c-.4.2-.6.5-.9.9-.2.4-.4.8-.5,1.3-.1.5-.2,1.1-.2,1.7v.5c0,.5,0,1.1.2,1.5.1.5.4.9.7,1.2.3.3.6.6,1.1.8s.9.3,1.4.3,1.3-.1,1.8-.4c.5-.3,1-.7,1.4-1.2l1.6,1.7c-.3.4-.6.8-1.1,1.2s-1,.7-1.7.9c-.7.2-1.4.3-2.3.3Z"/>
          <path d="M717.6,182.7l3.1,10.7v2.4c.1,0-1.9,0-1.9,0l-4.5-13.1h3.3ZM719.9,193.4l3-10.7h3.3l-4.5,13.1h-2v-2.4Z"/>
          <path d="M733.7,196c-1,0-1.9-.2-2.7-.5s-1.5-.8-2-1.3c-.6-.6-1-1.2-1.3-2-.3-.8-.4-1.6-.4-2.5v-.5c0-1,.1-1.9.4-2.8.3-.8.7-1.5,1.2-2.1.5-.6,1.2-1.1,1.9-1.4.7-.3,1.6-.5,2.5-.5s1.7.2,2.5.5c.7.3,1.3.7,1.8,1.3.5.6.8,1.2,1.1,2,.2.8.4,1.7.4,2.6v1.3h-10.3v-2.2h7.1v-.2c0-.5-.1-1-.3-1.4-.2-.4-.5-.8-.8-1s-.9-.4-1.4-.4-.9.1-1.2.3c-.4.2-.6.5-.9.9-.2.4-.4.8-.5,1.3-.1.5-.2,1.1-.2,1.7v.5c0,.5,0,1.1.2,1.5.1.5.4.9.7,1.2.3.3.6.6,1.1.8s.9.3,1.4.3,1.3-.1,1.8-.4c.5-.3,1-.7,1.4-1.2l1.6,1.7c-.3.4-.6.8-1.1,1.2s-1,.7-1.7.9c-.7.2-1.4.3-2.3.3Z"/>
          <path d="M744.3,185.4v10.4h-3.2v-13.1h3l.2,2.7ZM748.3,182.6v3c-.2,0-.4,0-.6,0s-.4,0-.6,0c-.5,0-.9,0-1.3.2-.4.1-.7.3-.9.6-.2.2-.4.6-.6.9-.1.4-.2.8-.2,1.2h-.7c0-.9,0-1.7.3-2.4.2-.7.4-1.3.7-1.9.3-.5.7-.9,1.2-1.2.5-.3,1-.4,1.7-.4s.4,0,.6,0c.2,0,.4,0,.5.1Z"/>
          <path d="M762,196c-1,0-1.9-.2-2.7-.5s-1.5-.8-2-1.3c-.6-.6-1-1.2-1.3-2-.3-.8-.4-1.6-.4-2.5v-.5c0-1,.1-1.9.4-2.8.3-.8.7-1.5,1.2-2.1.5-.6,1.2-1.1,1.9-1.4.7-.3,1.6-.5,2.5-.5s1.7.2,2.5.5c.7.3,1.3.7,1.8,1.3.5.6.8,1.2,1.1,2,.2.8.4,1.7.4,2.6v1.3h-10.3v-2.2h7.1v-.2c0-.5-.1-1-.3-1.4-.2-.4-.5-.8-.8-1s-.9-.4-1.4-.4-.9.1-1.2.3c-.4.2-.6.5-.9.9-.2.4-.4.8-.5,1.3-.1.5-.2,1.1-.2,1.7v.5c0,.5,0,1.1.2,1.5.1.5.4.9.7,1.2.3.3.6.6,1.1.8s.9.3,1.4.3,1.3-.1,1.8-.4c.5-.3,1-.7,1.4-1.2l1.6,1.7c-.3.4-.6.8-1.1,1.2s-1,.7-1.7.9c-.7.2-1.4.3-2.3.3Z"/>
          <path d="M772,182.7l2.3,4.2,2.4-4.2h3.5l-3.8,6.4,4,6.7h-3.5l-2.5-4.4-2.5,4.4h-3.5l4-6.7-3.8-6.4h3.5Z"/>
          <path d="M785.2,185.2v15.6h-3.2v-18.1h3l.2,2.5ZM793.6,189.1v.3c0,1-.1,1.8-.3,2.6-.2.8-.5,1.5-1,2.1-.4.6-1,1.1-1.6,1.4-.6.3-1.4.5-2.2.5s-1.5-.2-2.1-.5c-.6-.3-1.1-.8-1.5-1.3-.4-.6-.7-1.2-1-2s-.4-1.6-.5-2.5v-.8c.1-1,.3-1.8.5-2.6.2-.8.6-1.5,1-2,.4-.6.9-1,1.5-1.3.6-.3,1.3-.5,2.1-.5s1.6.2,2.2.5c.6.3,1.2.8,1.6,1.4.4.6.8,1.3,1,2.1.2.8.3,1.7.3,2.7ZM790.4,189.4v-.3c0-.6,0-1.1-.2-1.6s-.3-.9-.5-1.3c-.2-.4-.5-.7-.8-.9-.3-.2-.8-.3-1.3-.3s-.9,0-1.3.2c-.4.2-.6.4-.9.7-.2.3-.4.7-.5,1.1s-.2.9-.2,1.3v2c0,.6.2,1.1.4,1.6s.5.9.9,1.1.9.4,1.6.4.9-.1,1.3-.3.6-.5.8-.9.4-.8.5-1.3c0-.5.1-1,.1-1.6Z"/>
          <path d="M801.8,196c-1,0-1.9-.2-2.7-.5s-1.5-.8-2-1.3c-.6-.6-1-1.2-1.3-2-.3-.8-.4-1.6-.4-2.5v-.5c0-1,.1-1.9.4-2.8.3-.8.7-1.5,1.2-2.1.5-.6,1.2-1.1,1.9-1.4.7-.3,1.6-.5,2.5-.5s1.7.2,2.5.5c.7.3,1.3.7,1.8,1.3.5.6.8,1.2,1.1,2,.2.8.4,1.7.4,2.6v1.3h-10.3v-2.2h7.1v-.2c0-.5-.1-1-.3-1.4-.2-.4-.5-.8-.8-1s-.9-.4-1.4-.4-.9.1-1.2.3c-.4.2-.6.5-.9.9-.2.4-.4.8-.5,1.3-.1.5-.2,1.1-.2,1.7v.5c0,.5,0,1.1.2,1.5.1.5.4.9.7,1.2.3.3.6.6,1.1.8s.9.3,1.4.3,1.3-.1,1.8-.4c.5-.3,1-.7,1.4-1.2l1.6,1.7c-.3.4-.6.8-1.1,1.2s-1,.7-1.7.9c-.7.2-1.4.3-2.3.3Z"/>
          <path d="M812.5,185.4v10.4h-3.2v-13.1h3l.2,2.7ZM816.4,182.6v3c-.2,0-.4,0-.6,0s-.4,0-.6,0c-.5,0-.9,0-1.3.2-.4.1-.7.3-.9.6-.2.2-.4.6-.6.9-.1.4-.2.8-.2,1.2h-.7c0-.9,0-1.7.3-2.4.2-.7.4-1.3.7-1.9.3-.5.7-.9,1.2-1.2.5-.3,1-.4,1.7-.4s.4,0,.6,0c.2,0,.4,0,.5.1Z"/>
          <path d="M818.1,179.3c0-.5.2-.9.5-1.2.3-.3.8-.5,1.3-.5s1,.2,1.3.5c.3.3.5.7.5,1.2s-.2.9-.5,1.2c-.3.3-.8.5-1.3.5s-1-.2-1.3-.5c-.3-.3-.5-.7-.5-1.2ZM821.6,182.7v13.1h-3.2v-13.1h3.2Z"/>
          <path d="M830.5,196c-1,0-1.9-.2-2.7-.5s-1.5-.8-2-1.3c-.6-.6-1-1.2-1.3-2-.3-.8-.4-1.6-.4-2.5v-.5c0-1,.1-1.9.4-2.8.3-.8.7-1.5,1.2-2.1.5-.6,1.2-1.1,1.9-1.4.7-.3,1.6-.5,2.5-.5s1.7.2,2.5.5c.7.3,1.3.7,1.8,1.3.5.6.8,1.2,1.1,2,.2.8.4,1.7.4,2.6v1.3h-10.3v-2.2h7.1v-.2c0-.5-.1-1-.3-1.4-.2-.4-.5-.8-.8-1s-.9-.4-1.4-.4-.9.1-1.2.3c-.4.2-.6.5-.9.9-.2.4-.4.8-.5,1.3-.1.5-.2,1.1-.2,1.7v.5c0,.5,0,1.1.2,1.5.1.5.4.9.7,1.2.3.3.6.6,1.1.8s.9.3,1.4.3,1.3-.1,1.8-.4c.5-.3,1-.7,1.4-1.2l1.6,1.7c-.3.4-.6.8-1.1,1.2s-1,.7-1.7.9c-.7.2-1.4.3-2.3.3Z"/>
          <path d="M841.1,185.5v10.3h-3.2v-13.1h3l.2,2.8ZM840.6,188.8h-.9c0-1,.1-1.8.4-2.6.2-.8.6-1.4,1.1-2s1-1,1.6-1.3c.6-.3,1.3-.4,2.1-.4s1.2,0,1.7.3c.5.2.9.5,1.3.8.4.4.6.9.8,1.5.2.6.3,1.4.3,2.3v8.4h-3.2v-8.4c0-.6,0-1.1-.3-1.4-.2-.3-.4-.6-.7-.7-.3-.1-.7-.2-1.2-.2s-.9,0-1.3.3c-.4.2-.7.5-.9.8s-.4.7-.6,1.2c-.1.5-.2.9-.2,1.5Z"/>
          <path d="M857.1,193.5c.5,0,.9,0,1.2-.3s.6-.4.9-.8c.2-.3.3-.7.3-1.1h3c0,.9-.3,1.7-.8,2.4s-1.1,1.3-1.9,1.7c-.8.4-1.7.6-2.7.6s-1.9-.2-2.6-.5c-.8-.3-1.4-.8-1.9-1.4-.5-.6-.9-1.3-1.1-2.1-.2-.8-.4-1.7-.4-2.6v-.4c0-.9.1-1.8.4-2.6.2-.8.6-1.5,1.1-2.1.5-.6,1.1-1.1,1.9-1.4.8-.3,1.6-.5,2.6-.5s2,.2,2.8.6c.8.4,1.4,1,1.9,1.7.5.7.7,1.6.7,2.6h-3c0-.5-.1-.9-.3-1.3s-.5-.7-.8-.9c-.4-.2-.8-.3-1.3-.3s-1,.1-1.3.3c-.4.2-.6.5-.8.9s-.3.8-.4,1.3c0,.5-.1,1-.1,1.5v.4c0,.5,0,1,.1,1.5,0,.5.2.9.4,1.3s.5.7.8.9c.4.2.8.3,1.4.3Z"/>
          <path d="M870.6,196c-1,0-1.9-.2-2.7-.5s-1.5-.8-2-1.3c-.6-.6-1-1.2-1.3-2-.3-.8-.4-1.6-.4-2.5v-.5c0-1,.1-1.9.4-2.8.3-.8.7-1.5,1.2-2.1.5-.6,1.2-1.1,1.9-1.4.7-.3,1.6-.5,2.5-.5s1.7.2,2.5.5c.7.3,1.3.7,1.8,1.3.5.6.8,1.2,1.1,2,.2.8.4,1.7.4,2.6v1.3h-10.3v-2.2h7.1v-.2c0-.5-.1-1-.3-1.4-.2-.4-.5-.8-.8-1s-.9-.4-1.4-.4-.9.1-1.2.3c-.4.2-.6.5-.9.9-.2.4-.4.8-.5,1.3-.1.5-.2,1.1-.2,1.7v.5c0,.5,0,1.1.2,1.5.1.5.4.9.7,1.2.3.3.6.6,1.1.8s.9.3,1.4.3,1.3-.1,1.8-.4c.5-.3,1-.7,1.4-1.2l1.6,1.7c-.3.4-.6.8-1.1,1.2s-1,.7-1.7.9c-.7.2-1.4.3-2.3.3Z"/>
          <path d="M877.5,189.4v-.3c0-1,.1-1.9.3-2.7.2-.8.6-1.5,1-2.1.4-.6,1-1,1.6-1.4.6-.3,1.4-.5,2.2-.5s1.5.2,2,.5c.6.3,1.1.8,1.5,1.3.4.6.7,1.3,1,2.1s.4,1.7.5,2.6v.7c-.1.9-.3,1.8-.5,2.6-.2.8-.6,1.4-1,2-.4.6-.9,1-1.5,1.3-.6.3-1.3.5-2.1.5s-1.5-.2-2.1-.5-1.2-.8-1.6-1.4c-.4-.6-.8-1.3-1-2.1-.2-.8-.3-1.7-.3-2.6ZM880.7,189.1v.3c0,.6,0,1.1.1,1.6,0,.5.3.9.5,1.3.2.4.5.7.8.9.3.2.8.3,1.3.3s1.1-.1,1.6-.4c.4-.3.7-.7.9-1.1.2-.5.4-1,.4-1.7v-1.9c0-.5-.1-.9-.2-1.3s-.3-.8-.6-1.1c-.2-.3-.5-.5-.9-.7-.3-.2-.8-.3-1.2-.3s-.9.1-1.3.3c-.3.2-.6.5-.8.9s-.4.8-.5,1.3c-.1.5-.2,1-.2,1.6ZM885.9,193v-15.8h3.2v18.6h-2.9l-.3-2.8Z"/>
          <path d="M892.1,194.2c0-.5.2-.9.5-1.2.3-.3.8-.5,1.3-.5s1,.2,1.3.5c.3.3.5.7.5,1.2s-.2.9-.5,1.2c-.3.3-.8.5-1.3.5s-1-.2-1.3-.5c-.3-.3-.5-.7-.5-1.2Z"/>
        </g>
      </g>
    </g>
    <g class="st1">
      <g class="st1">
        <path class="st2" d="M468.7,293.3h-5v-2.1s4.5,0,4.5,0c.7,0,1.4-.1,2-.4.6-.3,1-.6,1.3-1.1.3-.5.5-1,.5-1.7s-.1-1.3-.4-1.8c-.3-.5-.7-.8-1.3-1-.6-.2-1.3-.3-2.1-.3h-3.8v17.6h-2.6v-19.7h6.5c1,0,1.9.1,2.7.3s1.5.5,2,.9c.6.4,1,1,1.3,1.6.3.7.4,1.4.4,2.4s-.2,1.5-.6,2.2c-.4.7-1,1.2-1.7,1.6-.7.4-1.6.7-2.6.8l-.9.6ZM468.5,302.5h-5.9l1.5-2.1h4.4c.8,0,1.5-.1,2.1-.4.6-.3,1-.7,1.3-1.2.3-.5.5-1.2.5-1.9s-.1-1.4-.4-1.9-.7-.9-1.2-1.2c-.6-.3-1.3-.4-2.2-.4h-3.7v-2.1h5.1l.6.8c.9,0,1.7.3,2.4.8s1.2,1,1.5,1.7c.3.7.5,1.5.5,2.3,0,1.2-.3,2.3-.8,3.1-.5.8-1.3,1.5-2.3,1.9-1,.4-2.1.7-3.4.7Z"/>
        <path class="st2" d="M478.6,301.2c0-.4.1-.8.4-1.1.3-.3.7-.4,1.2-.4s.9.1,1.2.4c.3.3.4.7.4,1.1s-.1.8-.4,1.1c-.3.3-.7.4-1.2.4s-.9-.1-1.2-.4c-.3-.3-.4-.6-.4-1.1Z"/>
        <path class="st2" d="M495.7,282.8v19.7h-2.6v-19.7h2.6ZM498.4,302.5h-4.1v-2.1h4.1c1.4,0,2.6-.3,3.5-.9.9-.6,1.6-1.4,2.1-2.5.5-1.1.7-2.3.7-3.8v-1.2c0-1.1-.1-2.1-.4-3-.3-.9-.7-1.6-1.2-2.2s-1.2-1.1-1.9-1.4c-.8-.3-1.6-.5-2.6-.5h-4.4v-2.1h4.4c1.3,0,2.5.2,3.5.6,1.1.4,2,1,2.8,1.9.8.8,1.4,1.8,1.8,2.9.4,1.1.6,2.4.6,3.8v1.2c0,1.4-.2,2.7-.6,3.8-.4,1.1-1,2.1-1.8,2.9-.8.8-1.7,1.4-2.8,1.8-1.1.4-2.3.6-3.7.6Z"/>
        <path class="st2" d="M513.4,290.2v12.3h-2.5v-14.6h2.4v2.3ZM517.9,287.8v2.3c-.2,0-.4,0-.6,0-.2,0-.4,0-.6,0-.6,0-1.1,0-1.5.3-.4.2-.8.4-1.1.8-.3.3-.5.7-.7,1.2s-.3.9-.3,1.5l-.7.4c0-.9,0-1.7.3-2.5s.4-1.5.8-2.1.8-1.1,1.4-1.4c.6-.3,1.3-.5,2-.5s.4,0,.6,0c.2,0,.4,0,.5.1Z"/>
        <path class="st2" d="M528.8,293.6v1.8s-2.5,0-2.5,0c-.7,0-1.3,0-1.9.2-.6.1-1,.3-1.4.5-.4.2-.7.5-.9.8-.2.3-.3.7-.3,1.2s.1.9.3,1.3c.2.4.5.7.9.9.4.2.9.3,1.5.3s1.4-.2,2-.5c.6-.3,1.1-.7,1.4-1.2s.5-.9.6-1.4l1.1,1.2c0,.4-.2.8-.5,1.3-.3.5-.7.9-1.1,1.3s-1,.8-1.6,1c-.6.3-1.4.4-2.1.4s-1.9-.2-2.6-.6c-.7-.4-1.3-.9-1.7-1.6-.4-.7-.6-1.4-.6-2.2s.2-1.5.5-2.1.7-1.1,1.3-1.5c.6-.4,1.3-.7,2.1-.9s1.7-.3,2.7-.3h2.9ZM528.3,300v-7.5c0-.6-.1-1.1-.3-1.5-.2-.4-.6-.8-1-1s-1-.4-1.7-.4-1.2.1-1.7.3c-.5.2-.8.5-1.1.9s-.4.7-.4,1.1h-2.5c0-.5.1-1,.4-1.6.3-.5.7-1,1.2-1.4.5-.4,1.1-.8,1.8-1s1.5-.4,2.4-.4,2,.2,2.8.5c.8.4,1.5.9,1.9,1.6.5.7.7,1.6.7,2.7v6.8c0,.5,0,1,.1,1.6,0,.5.2,1,.4,1.4v.2h-2.6c-.1-.3-.2-.7-.3-1.2,0-.5-.1-.9-.1-1.3Z"/>
        <path class="st2" d="M537.3,281.7v20.8h-2.5v-20.8h2.5ZM546.2,287.9l-6.4,6.8-3.6,3.7-.2-2.7,2.6-3.1,4.5-4.8h3.1ZM544,302.5l-5.2-7,1.3-2.2,6.9,9.2h-2.9Z"/>
        <path class="st2" d="M554.6,302.8c-1,0-1.9-.2-2.8-.5-.8-.3-1.5-.8-2.1-1.5-.6-.6-1-1.4-1.4-2.2-.3-.9-.5-1.8-.5-2.8v-.6c0-1.2.2-2.3.5-3.2.4-.9.8-1.7,1.4-2.4.6-.6,1.3-1.1,2.1-1.5.8-.3,1.6-.5,2.4-.5s1.9.2,2.7.5c.8.4,1.4.9,1.9,1.5.5.6.8,1.4,1.1,2.3.2.9.4,1.8.4,2.8v1.1h-10.9v-2h8.4v-.2c0-.6-.2-1.3-.4-1.9s-.6-1.1-1.1-1.5-1.2-.6-2-.6-1.1.1-1.6.4c-.5.2-.9.6-1.2,1.1s-.6,1-.8,1.7c-.2.7-.3,1.5-.3,2.3v.6c0,.7,0,1.3.3,2s.5,1.1.9,1.6c.4.5.8.8,1.4,1.1.5.3,1.1.4,1.8.4s1.6-.2,2.2-.5c.6-.4,1.1-.8,1.6-1.4l1.5,1.2c-.3.5-.7.9-1.2,1.4-.5.4-1.1.8-1.8,1.1-.7.3-1.5.4-2.5.4Z"/>
        <path class="st2" d="M565.5,299.5v2c0,.8-.2,1.7-.6,2.6-.4.9-1,1.7-1.7,2.3l-1.4-1c.3-.4.5-.8.7-1.2.2-.4.3-.8.5-1.3s.2-.9.2-1.4v-2.1h2.4Z"/>
        <path class="st2" d="M583,293.3h-5v-2.1s4.5,0,4.5,0c.7,0,1.4-.1,2-.4.6-.3,1-.6,1.3-1.1.3-.5.5-1,.5-1.7s-.1-1.3-.4-1.8c-.3-.5-.7-.8-1.3-1-.6-.2-1.3-.3-2.1-.3h-3.8v17.6h-2.6v-19.7h6.5c1,0,1.9.1,2.7.3s1.5.5,2,.9c.6.4,1,1,1.3,1.6.3.7.4,1.4.4,2.4s-.2,1.5-.6,2.2c-.4.7-1,1.2-1.7,1.6-.7.4-1.6.7-2.6.8l-.9.6ZM582.8,302.5h-5.9l1.5-2.1h4.4c.8,0,1.5-.1,2.1-.4.6-.3,1-.7,1.3-1.2.3-.5.5-1.2.5-1.9s-.1-1.4-.4-1.9-.7-.9-1.2-1.2c-.6-.3-1.3-.4-2.2-.4h-3.7v-2.1h5.1l.6.8c.9,0,1.7.3,2.4.8s1.2,1,1.5,1.7c.3.7.5,1.5.5,2.3,0,1.2-.3,2.3-.8,3.1-.5.8-1.3,1.5-2.3,1.9-1,.4-2.1.7-3.4.7Z"/>
        <path class="st2" d="M592.8,284c0-.4.1-.7.4-1s.6-.4,1.1-.4.8.1,1.1.4.4.6.4,1-.1.7-.4,1c-.3.3-.6.4-1.1.4s-.9-.1-1.1-.4c-.2-.3-.4-.6-.4-1ZM595.5,287.9v14.6h-2.5v-14.6h2.5Z"/>
        <path class="st2" d="M602.3,281.7v20.8h-2.5v-20.8h2.5Z"/>
        <path class="st2" d="M609,281.7v20.8h-2.5v-20.8h2.5Z"/>
        <path class="st2" d="M613,284c0-.4.1-.7.4-1s.6-.4,1.1-.4.8.1,1.1.4.4.6.4,1-.1.7-.4,1c-.3.3-.6.4-1.1.4s-.9-.1-1.1-.4c-.2-.3-.4-.6-.4-1ZM615.7,287.9v14.6h-2.5v-14.6h2.5Z"/>
        <path class="st2" d="M622.3,291v11.5h-2.5v-14.6h2.4v3.1ZM621.7,294.6h-1c0-1,.2-2,.4-2.8.3-.9.7-1.6,1.2-2.2.5-.6,1.1-1.1,1.9-1.5.7-.3,1.5-.5,2.4-.5s1.4,0,1.9.3c.6.2,1.1.5,1.5.9s.7,1,.9,1.6c.2.7.3,1.5.3,2.5v9.6h-2.5v-9.6c0-.8-.1-1.4-.3-1.8-.2-.5-.6-.8-1-1-.4-.2-1-.3-1.6-.3s-1.2.1-1.7.4c-.5.3-.9.6-1.3,1.1-.4.5-.6,1-.9,1.6s-.3,1.2-.3,1.9Z"/>
        <path class="st2" d="M634.5,295.3v-.3c0-1.1.1-2.1.4-3,.3-.9.6-1.7,1.2-2.4.5-.7,1.1-1.2,1.8-1.5.7-.4,1.5-.5,2.4-.5s1.7.2,2.4.5,1.3.8,1.8,1.4c.5.6.9,1.3,1.1,2.2.3.9.5,1.8.6,2.9v1.2c0,1.1-.3,2-.6,2.9-.3.9-.7,1.6-1.2,2.2-.5.6-1.1,1.1-1.8,1.4-.7.3-1.5.5-2.4.5s-1.7-.2-2.4-.6c-.7-.4-1.3-.9-1.8-1.6-.5-.7-.9-1.5-1.2-2.4-.3-.9-.4-1.9-.4-3ZM644.5,287.9h2.3v14.3c0,1.3-.3,2.4-.8,3.3-.5.9-1.3,1.6-2.2,2.1-.9.5-2,.7-3.2.7s-1.1,0-1.8-.2c-.7-.2-1.3-.4-2-.8-.7-.4-1.2-.9-1.6-1.5l1.3-1.5c.6.7,1.3,1.3,1.9,1.5.7.3,1.3.4,2,.4s1.5-.1,2.1-.4c.6-.3,1-.7,1.3-1.3.3-.6.5-1.3.5-2.1v-11.2l.2-3.2ZM637,295.1v.3c0,.7,0,1.4.2,2.1.1.6.4,1.2.7,1.7.3.5.7.9,1.2,1.1.5.3,1.1.4,1.7.4s1.5-.2,2.1-.5,1-.8,1.3-1.4.6-1.2.8-1.9v-3.3c0-.5-.2-1-.5-1.4-.2-.5-.5-.9-.8-1.2-.3-.4-.7-.7-1.2-.9-.5-.2-1-.3-1.7-.3s-1.3.1-1.8.4c-.5.3-.9.7-1.2,1.2-.3.5-.5,1.1-.7,1.7-.1.6-.2,1.3-.2,2.1Z"/>
        <path class="st2" d="M659.1,298.6c0-.4,0-.7-.2-1-.2-.3-.5-.6-1-.9s-1.2-.5-2.2-.7c-.8-.2-1.5-.4-2.2-.6-.7-.2-1.2-.5-1.7-.9-.5-.3-.8-.7-1-1.2-.2-.5-.4-1-.4-1.6s.1-1.1.4-1.6.6-1,1.1-1.4c.5-.4,1-.7,1.7-.9.7-.2,1.4-.3,2.2-.3,1.2,0,2.2.2,3,.6.8.4,1.5,1,1.9,1.7.4.7.7,1.5.7,2.3h-2.5c0-.4-.1-.8-.4-1.2-.2-.4-.6-.7-1-1-.5-.3-1-.4-1.7-.4s-1.3.1-1.7.3c-.4.2-.7.5-.9.8-.2.3-.3.7-.3,1s0,.5.1.7c0,.2.3.4.5.6s.6.3,1,.5c.4.2,1,.3,1.7.5,1.2.3,2.2.6,3,1s1.4.8,1.7,1.4c.4.6.6,1.2.6,2s-.1,1.2-.4,1.8c-.3.5-.6,1-1.1,1.4-.5.4-1.1.7-1.8.9-.7.2-1.5.3-2.3.3-1.3,0-2.4-.2-3.3-.7s-1.6-1.1-2-1.8c-.5-.7-.7-1.5-.7-2.3h2.5c0,.7.2,1.2.6,1.6s.8.7,1.3.9c.5.2,1,.2,1.6.2s1.3,0,1.7-.3c.5-.2.8-.4,1.1-.7s.4-.7.4-1.1Z"/>
        <path class="st2" d="M672.2,282.8h2.2l.4,12v7.7h-2.6v-19.7ZM673,282.8h2.5l6.5,16.1,6.4-16.1h2.5l-8,19.7h-2l-8-19.7ZM689.5,282.8h2.2v19.7h-2.6v-7.7l.4-12Z"/>
        <path class="st2" d="M709.6,282.8v2.1h-15.2v-2.1h15.2ZM703.2,282.8v19.7h-2.6v-19.7h2.6Z"/>
      </g>
    </g>
    <g class="st1">
      <g class="st1">
        <path class="st2" d="M529.1,324.8h1.7l.3,9.3v6h-2v-15.3ZM529.8,324.8h2l5,12.5,5-12.5h2l-6.2,15.3h-1.5l-6.2-15.3ZM542.6,324.8h1.7v15.3h-2v-6l.3-9.3Z"/>
        <path class="st2" d="M554.6,333.2v1.4s-1.9,0-1.9,0c-.6,0-1,0-1.5.1-.4,0-.8.2-1.1.4s-.5.4-.7.7c-.2.3-.2.6-.2.9s0,.7.2,1,.4.5.7.7c.3.2.7.3,1.2.3s1.1-.1,1.6-.4.8-.6,1.1-.9c.3-.4.4-.7.4-1.1l.8.9c0,.3-.2.6-.4,1-.2.4-.5.7-.9,1-.4.3-.8.6-1.3.8-.5.2-1,.3-1.7.3s-1.4-.2-2-.5c-.6-.3-1-.7-1.3-1.2-.3-.5-.5-1.1-.5-1.7s.1-1.1.4-1.6c.2-.5.6-.9,1-1.2.4-.3,1-.5,1.6-.7s1.3-.2,2.1-.2h2.3ZM554.3,338.2v-5.8c0-.4,0-.8-.3-1.2-.2-.3-.4-.6-.8-.8-.4-.2-.8-.3-1.3-.3s-.9,0-1.3.3c-.4.2-.7.4-.9.7-.2.3-.3.6-.3.9h-1.9c0-.4.1-.8.3-1.2.2-.4.5-.8.9-1.1.4-.3.9-.6,1.4-.8.6-.2,1.2-.3,1.9-.3s1.6.1,2.2.4c.6.3,1.1.7,1.5,1.3.4.6.5,1.3.5,2.1v5.3c0,.4,0,.8,0,1.2s.2.8.3,1.1v.2h-2c0-.2-.2-.5-.2-.9,0-.4,0-.7,0-1Z"/>
        <path class="st2" d="M561.2,330.5v9.6h-1.9v-11.4h1.9v1.8ZM564.8,328.7v1.8c-.2,0-.3,0-.5,0s-.3,0-.5,0c-.4,0-.8,0-1.2.2s-.6.3-.9.6c-.2.3-.4.6-.6.9-.1.3-.2.7-.3,1.1l-.5.3c0-.7,0-1.3.2-1.9.1-.6.3-1.1.6-1.6.3-.5.7-.8,1.1-1.1.4-.3,1-.4,1.6-.4s.3,0,.5,0,.3,0,.4,0Z"/>
        <path class="st2" d="M570.9,338.7c.5,0,.9,0,1.3-.3.4-.2.7-.5,1-.8s.4-.7.4-1.1h1.8c0,.7-.3,1.3-.7,1.9-.4.6-1,1-1.6,1.4s-1.4.5-2.2.5-1.6-.2-2.2-.5-1.2-.7-1.6-1.2c-.4-.5-.7-1.1-.9-1.8-.2-.7-.3-1.4-.3-2.2v-.4c0-.8.1-1.5.3-2.2.2-.7.5-1.3.9-1.8.4-.5.9-.9,1.6-1.2s1.4-.5,2.2-.5,1.7.2,2.3.5,1.2.9,1.6,1.5.6,1.3.6,2.1h-1.8c0-.5-.2-.9-.4-1.3s-.5-.7-.9-.9c-.4-.2-.8-.3-1.4-.3s-1.1.1-1.5.4-.7.5-1,.9c-.2.4-.4.8-.5,1.3-.1.5-.2,1-.2,1.5v.4c0,.5,0,1,.1,1.5s.3.9.5,1.3c.2.4.6.7,1,.9.4.2.9.4,1.5.4Z"/>
        <path class="st2" d="M579.6,324v16.1h-1.9v-16.1h1.9ZM579.1,334h-.8c0-.8.1-1.5.3-2.2s.5-1.2.9-1.7c.4-.5.9-.9,1.5-1.1.6-.3,1.2-.4,1.9-.4s1.1,0,1.5.2c.4.2.8.4,1.1.7.3.3.6.8.7,1.3s.3,1.2.3,1.9v7.4h-2v-7.5c0-.6,0-1.1-.3-1.4-.2-.4-.4-.6-.8-.8-.3-.2-.7-.2-1.2-.2s-.9.1-1.3.3c-.4.2-.7.5-1,.8-.3.4-.5.8-.7,1.2-.2.5-.2.9-.2,1.5Z"/>
        <path class="st2" d="M604.6,338.5v1.6h-10v-1.4l5-5.6c.6-.7,1.1-1.3,1.4-1.7.3-.5.6-.9.7-1.3.1-.4.2-.8.2-1.2s-.1-1-.3-1.4c-.2-.4-.5-.7-.9-1-.4-.2-.9-.4-1.4-.4s-1.2.1-1.7.4c-.5.3-.8.6-1,1.1-.2.5-.3,1-.3,1.6h-1.9c0-.9.2-1.6.6-2.4s.9-1.3,1.7-1.7c.7-.4,1.7-.6,2.7-.6s1.8.2,2.5.5c.7.3,1.2.8,1.6,1.4.4.6.6,1.3.6,2.1s0,.9-.2,1.4c-.2.5-.4.9-.6,1.4-.3.5-.6.9-.9,1.3-.3.4-.7.9-1.1,1.3l-4.1,4.4h7.7Z"/>
        <path class="st2" d="M616.3,331.2v2.3c0,1.3-.1,2.3-.3,3.2s-.5,1.6-1,2.1c-.4.5-.9.9-1.5,1.1-.6.2-1.3.4-2,.4s-1.1,0-1.6-.2c-.5-.1-.9-.4-1.3-.7-.4-.3-.7-.8-1-1.3-.3-.5-.5-1.2-.6-1.9-.1-.7-.2-1.6-.2-2.6v-2.3c0-1.3.1-2.3.3-3.1s.6-1.5,1-2,.9-.9,1.5-1.1,1.3-.3,2-.3,1.1,0,1.6.2c.5.1.9.4,1.3.7.4.3.7.7,1,1.2.3.5.5,1.1.6,1.9.1.7.2,1.6.2,2.6ZM614.3,333.9v-3c0-.7,0-1.3-.1-1.8,0-.5-.2-1-.4-1.3-.2-.4-.3-.7-.6-.9-.2-.2-.5-.4-.8-.5-.3-.1-.6-.2-1-.2s-.9,0-1.2.3c-.4.2-.7.4-.9.8-.2.4-.4.9-.6,1.5s-.2,1.3-.2,2.2v3c0,.7,0,1.3.1,1.8,0,.5.2,1,.4,1.4s.4.7.6.9c.2.2.5.4.8.5.3.1.6.2,1,.2s.9,0,1.2-.3c.4-.2.7-.5.9-.9.2-.4.4-.9.5-1.5s.2-1.3.2-2.2Z"/>
        <path class="st2" d="M628.8,338.5v1.6h-10v-1.4l5-5.6c.6-.7,1.1-1.3,1.4-1.7.3-.5.6-.9.7-1.3.1-.4.2-.8.2-1.2s-.1-1-.3-1.4c-.2-.4-.5-.7-.9-1-.4-.2-.9-.4-1.4-.4s-1.2.1-1.7.4c-.5.3-.8.6-1,1.1-.2.5-.3,1-.3,1.6h-1.9c0-.9.2-1.6.6-2.4s.9-1.3,1.7-1.7c.7-.4,1.7-.6,2.7-.6s1.8.2,2.5.5c.7.3,1.2.8,1.6,1.4.4.6.6,1.3.6,2.1s0,.9-.2,1.4c-.2.5-.4.9-.6,1.4-.3.5-.6.9-.9,1.3-.3.4-.7.9-1.1,1.3l-4.1,4.4h7.7Z"/>
        <path class="st2" d="M640.4,331.2v2.3c0,1.3-.1,2.3-.3,3.2-.2.9-.5,1.6-1,2.1-.4.5-.9.9-1.5,1.1s-1.3.4-2,.4-1.1,0-1.6-.2c-.5-.1-.9-.4-1.3-.7-.4-.3-.7-.8-1-1.3-.3-.5-.5-1.2-.6-1.9-.1-.7-.2-1.6-.2-2.6v-2.3c0-1.3.1-2.3.3-3.1s.6-1.5,1-2,.9-.9,1.5-1.1c.6-.2,1.3-.3,2-.3s1.1,0,1.6.2c.5.1.9.4,1.3.7.4.3.7.7,1,1.2.3.5.5,1.1.6,1.9.1.7.2,1.6.2,2.6ZM638.5,333.9v-3c0-.7,0-1.3-.1-1.8,0-.5-.2-1-.4-1.3-.2-.4-.3-.7-.6-.9-.2-.2-.5-.4-.8-.5s-.6-.2-1-.2-.9,0-1.2.3c-.4.2-.7.4-.9.8s-.4.9-.6,1.5-.2,1.3-.2,2.2v3c0,.7,0,1.3.1,1.8,0,.5.2,1,.4,1.4.2.4.4.7.6.9.2.2.5.4.8.5.3.1.6.2,1,.2s.9,0,1.2-.3c.4-.2.7-.5.9-.9.2-.4.4-.9.5-1.5s.2-1.3.2-2.2Z"/>
      </g>
    </g>
  </g>
</svg>