<?xml version="1.0" encoding="UTF-8"?>
<svg id="Layer_1" xmlns="http://www.w3.org/2000/svg" xmlns:xlink="http://www.w3.org/1999/xlink" version="1.1" viewBox="0 0 1183 459">
  <!-- Generator: Adobe Illustrator 29.2.1, SVG Export Plug-In . SVG Version: 2.1.0 Build 116)  -->
  <defs>
    <style>
      .st0 {
        fill: #213133;
        stroke: #000;
        stroke-miterlimit: 10;
      }

      .st1 {
        isolation: isolate;
      }

      .st2 {
        fill: #0896a6;
      }
    </style>
  </defs>
  <path class="st2" d="M211.1,134.7c2.3,0,4.2-1.9,4.2-4.2v-10.3c0-2.3-1.9-4.2-4.2-4.2h-5.8c0-1.5,0-2.9.3-4.4.3-1.6.7-2.9,1.3-4.2.6-1.2,1.4-2.2,2.4-2.9.9-.8,2.2-1.2,3.6-1.2v-6.5c-2.4,0-4.6.5-6.4,1.6-1.8,1-3.4,2.5-4.6,4.2-1.2,1.9-2.1,4-2.6,6.1-.5,2.4-.8,4.8-.8,7.3v14.5c0,2.3,1.9,4.2,4.2,4.2h8.4ZM185.9,134.7c2.3,0,4.2-1.9,4.2-4.2v-10.3c0-2.3-1.9-4.2-4.2-4.2h-5.8c0-1.5,0-2.9.3-4.4.3-1.6.7-2.9,1.3-4.2.6-1.2,1.4-2.2,2.4-2.9.9-.8,2.2-1.2,3.6-1.2v-6.5c-2.4,0-4.6.5-6.4,1.6-1.8,1-3.4,2.5-4.6,4.2-1.2,1.9-2.1,4-2.6,6.1-.5,2.4-.8,4.8-.8,7.3v14.5c0,2.3,1.9,4.2,4.2,4.2h8.4Z"/>
  <path class="st2" d="M958.3,99.7c-2.3,0-4.2,1.9-4.2,4.2v10.3c0,2.3,1.9,4.2,4.2,4.2h5.8c0,1.5,0,2.9-.3,4.4-.3,1.6-.7,2.9-1.3,4.2-.6,1.2-1.4,2.2-2.3,2.9-1,.8-2.2,1.2-3.7,1.2v6.5c2.4,0,4.6-.5,6.4-1.6,1.8-1,3.4-2.5,4.6-4.2,1.2-1.9,2.1-4,2.6-6.1.5-2.4.8-4.8.8-7.3v-14.4c0-2.3-1.9-4.2-4.2-4.2h-8.4,0ZM983.5,99.7c-2.3,0-4.2,1.9-4.2,4.2v10.3c0,2.3,1.9,4.2,4.2,4.2h5.8c0,1.5,0,2.9-.3,4.4-.3,1.6-.7,2.9-1.3,4.2-.6,1.2-1.4,2.2-2.3,2.9-1,.8-2.2,1.2-3.7,1.2v6.5c2.4,0,4.6-.5,6.4-1.6,1.8-1,3.4-2.5,4.6-4.2,1.2-1.9,2.1-4,2.6-6.1.5-2.4.8-4.8.8-7.3v-14.4c0-2.3-1.9-4.2-4.2-4.2h-8.4,0Z"/>
  <g>
    <g class="st1">
      <g class="st1">
        <g class="st1">
          <path d="M244,116.7v2.7h-14.6v-2.7h14.6ZM238.4,116.7v18.1h-3.4v-18.1h3.4Z"/>
          <path d="M249.3,115.7v19.1h-3.3v-19.1h3.3ZM248.8,127.7h-1c0-.9.1-1.8.4-2.6.2-.8.6-1.5,1.1-2.1.5-.6,1-1,1.6-1.4.6-.3,1.3-.5,2.1-.5s1.3,0,1.8.3c.5.2,1,.5,1.4.9.4.4.7.9.9,1.6.2.7.3,1.4.3,2.4v8.6h-3.3v-8.6c0-.6,0-1.1-.3-1.5-.2-.4-.4-.6-.8-.8-.3-.2-.7-.2-1.2-.2s-1,.1-1.4.3c-.4.2-.7.5-.9.8-.2.4-.4.8-.5,1.2-.1.5-.2,1-.2,1.5Z"/>
          <path d="M266.3,135.1c-1,0-1.9-.2-2.8-.5s-1.5-.8-2.1-1.4c-.6-.6-1-1.3-1.3-2.1s-.5-1.6-.5-2.6v-.5c0-1,.1-2,.4-2.8s.7-1.6,1.3-2.2c.5-.6,1.2-1.1,2-1.4s1.6-.5,2.5-.5,1.8.2,2.5.5c.7.3,1.3.8,1.8,1.4.5.6.9,1.3,1.1,2.1s.4,1.7.4,2.7v1.4h-10.6v-2.3h7.3v-.2c0-.5-.1-1-.3-1.4-.2-.4-.5-.8-.8-1-.4-.3-.9-.4-1.5-.4s-.9.1-1.3.3c-.4.2-.7.5-.9.9-.2.4-.4.8-.5,1.4s-.2,1.1-.2,1.8v.5c0,.6,0,1.1.2,1.6.2.5.4.9.7,1.3.3.4.7.6,1.1.8.4.2.9.3,1.5.3s1.3-.1,1.9-.4c.6-.3,1-.7,1.5-1.2l1.7,1.7c-.3.4-.7.8-1.1,1.2s-1.1.7-1.7.9c-.7.2-1.4.4-2.3.4Z"/>
          <path d="M276,121.4l3.1,9.9.5,3.5-2.3.4-4.9-13.8h3.5ZM277.8,133.4l3.6-12h3.5l-5.4,15.5c-.1.3-.3.7-.5,1.1-.2.4-.5.8-.8,1.1-.3.4-.7.6-1.2.9-.5.2-1.1.3-1.8.3s-.6,0-.8,0c-.2,0-.5,0-.7-.2v-2.5c0,0,.2,0,.3,0,.1,0,.2,0,.3,0,.5,0,.9,0,1.2-.2.3-.1.6-.3.8-.5.2-.2.4-.6.5-1l1-2.6Z"/>
          <path d="M295,121.4l2.2,10.3.2,3.2h-2.1l-3.5-13.5h3.2ZM296.6,131.6l3-10.2h2.1l-.6,3.5-3,9.9h-1.8l.4-3.2ZM302,121.4l2.9,10.1.4,3.3h-1.8l-3-9.9-.6-3.5h2.1ZM304.4,131.5l2.2-10.1h3.2l-3.5,13.5h-2.1l.2-3.4Z"/>
          <path d="M317.7,135.1c-1,0-1.9-.2-2.8-.5s-1.5-.8-2.1-1.4c-.6-.6-1-1.3-1.3-2.1s-.5-1.6-.5-2.6v-.5c0-1,.1-2,.4-2.8s.7-1.6,1.3-2.2c.5-.6,1.2-1.1,2-1.4s1.6-.5,2.5-.5,1.8.2,2.5.5c.7.3,1.3.8,1.8,1.4.5.6.9,1.3,1.1,2.1s.4,1.7.4,2.7v1.4h-10.6v-2.3h7.3v-.2c0-.5-.1-1-.3-1.4-.2-.4-.5-.8-.8-1-.4-.3-.9-.4-1.5-.4s-.9.1-1.3.3c-.4.2-.7.5-.9.9-.2.4-.4.8-.5,1.4s-.2,1.1-.2,1.8v.5c0,.6,0,1.1.2,1.6.2.5.4.9.7,1.3.3.4.7.6,1.1.8.4.2.9.3,1.5.3s1.3-.1,1.9-.4c.6-.3,1-.7,1.5-1.2l1.7,1.7c-.3.4-.7.8-1.1,1.2s-1.1.7-1.7.9c-.7.2-1.4.4-2.3.4Z"/>
          <path d="M328.7,124.2v10.7h-3.3v-13.5h3.1l.2,2.8ZM332.8,121.3v3.1c-.2,0-.4,0-.7,0-.2,0-.4,0-.6,0-.5,0-1,0-1.3.2-.4.1-.7.3-1,.6-.3.3-.4.6-.6.9-.1.4-.2.8-.2,1.3h-.7c0-.9,0-1.7.3-2.5s.4-1.4.8-1.9.7-1,1.3-1.3c.5-.3,1.1-.5,1.7-.5s.4,0,.6,0c.2,0,.4,0,.5.1Z"/>
          <path d="M340.4,135.1c-1,0-1.9-.2-2.8-.5s-1.5-.8-2.1-1.4c-.6-.6-1-1.3-1.3-2.1s-.5-1.6-.5-2.6v-.5c0-1,.1-2,.4-2.8s.7-1.6,1.3-2.2c.5-.6,1.2-1.1,2-1.4s1.6-.5,2.5-.5,1.8.2,2.5.5c.7.3,1.3.8,1.8,1.4.5.6.9,1.3,1.1,2.1s.4,1.7.4,2.7v1.4h-10.6v-2.3h7.3v-.2c0-.5-.1-1-.3-1.4-.2-.4-.5-.8-.8-1-.4-.3-.9-.4-1.5-.4s-.9.1-1.3.3c-.4.2-.7.5-.9.9-.2.4-.4.8-.5,1.4s-.2,1.1-.2,1.8v.5c0,.6,0,1.1.2,1.6.2.5.4.9.7,1.3.3.4.7.6,1.1.8.4.2.9.3,1.5.3s1.3-.1,1.9-.4c.6-.3,1-.7,1.5-1.2l1.7,1.7c-.3.4-.7.8-1.1,1.2s-1.1.7-1.7.9c-.7.2-1.4.4-2.3.4Z"/>
          <path d="M356.6,121.4l3.2,11v2.5c.1,0-2,0-2,0l-4.6-13.5h3.4ZM358.9,132.4l3.1-11h3.4l-4.6,13.5h-2.1v-2.5Z"/>
          <path d="M373.1,135.1c-1,0-1.9-.2-2.8-.5s-1.5-.8-2.1-1.4c-.6-.6-1-1.3-1.3-2.1s-.5-1.6-.5-2.6v-.5c0-1,.1-2,.4-2.8s.7-1.6,1.3-2.2c.5-.6,1.2-1.1,2-1.4s1.6-.5,2.5-.5,1.8.2,2.5.5c.7.3,1.3.8,1.8,1.4.5.6.9,1.3,1.1,2.1s.4,1.7.4,2.7v1.4h-10.6v-2.3h7.3v-.2c0-.5-.1-1-.3-1.4-.2-.4-.5-.8-.8-1-.4-.3-.9-.4-1.5-.4s-.9.1-1.3.3c-.4.2-.7.5-.9.9-.2.4-.4.8-.5,1.4s-.2,1.1-.2,1.8v.5c0,.6,0,1.1.2,1.6.2.5.4.9.7,1.3.3.4.7.6,1.1.8.4.2.9.3,1.5.3s1.3-.1,1.9-.4c.6-.3,1-.7,1.5-1.2l1.7,1.7c-.3.4-.7.8-1.1,1.2s-1.1.7-1.7.9c-.7.2-1.4.4-2.3.4Z"/>
          <path d="M384,124.2v10.7h-3.3v-13.5h3.1l.2,2.8ZM388.1,121.3v3.1c-.2,0-.4,0-.7,0-.2,0-.4,0-.6,0-.5,0-1,0-1.3.2-.4.1-.7.3-1,.6-.3.3-.4.6-.6.9-.1.4-.2.8-.2,1.3h-.7c0-.9,0-1.7.3-2.5s.4-1.4.8-1.9.7-1,1.3-1.3c.5-.3,1.1-.5,1.7-.5s.4,0,.6,0c.2,0,.4,0,.5.1Z"/>
          <path d="M392.3,121.4l3.1,9.9.5,3.5-2.3.4-4.9-13.8h3.5ZM394.1,133.4l3.6-12h3.5l-5.4,15.5c-.1.3-.3.7-.5,1.1-.2.4-.5.8-.8,1.1-.3.4-.7.6-1.2.9-.5.2-1.1.3-1.8.3s-.6,0-.8,0c-.2,0-.5,0-.7-.2v-2.5c0,0,.2,0,.3,0,.1,0,.2,0,.3,0,.5,0,.9,0,1.2-.2.3-.1.6-.3.8-.5.2-.2.4-.6.5-1l1-2.6Z"/>
          <path d="M412.5,124v16.1h-3.3v-18.7h3.1l.2,2.6ZM421.1,128v.3c0,1-.1,1.9-.3,2.7-.2.8-.6,1.6-1,2.2-.4.6-1,1.1-1.6,1.4-.7.3-1.4.5-2.2.5s-1.6-.2-2.2-.5c-.6-.3-1.1-.8-1.6-1.4-.4-.6-.8-1.3-1-2.1-.3-.8-.4-1.6-.6-2.6v-.8c.1-1,.3-1.9.6-2.7.3-.8.6-1.5,1-2.1.4-.6.9-1.1,1.6-1.4s1.3-.5,2.1-.5,1.6.2,2.3.5,1.2.8,1.7,1.4c.4.6.8,1.3,1,2.2.2.8.3,1.8.3,2.8ZM417.8,128.3v-.3c0-.6,0-1.2-.2-1.7-.1-.5-.3-1-.5-1.3-.2-.4-.5-.7-.9-.9s-.8-.3-1.3-.3-.9,0-1.3.2-.7.4-.9.7-.4.7-.5,1.1c-.1.4-.2.9-.3,1.4v2.1c0,.6.2,1.2.4,1.7s.5.9,1,1.2c.4.3,1,.4,1.6.4s.9-.1,1.3-.3.6-.5.9-.9c.2-.4.4-.8.5-1.4,0-.5.1-1.1.1-1.6Z"/>
          <path d="M426.8,124.2v10.7h-3.3v-13.5h3.1l.2,2.8ZM430.9,121.3v3.1c-.2,0-.4,0-.7,0-.2,0-.4,0-.6,0-.5,0-1,0-1.3.2-.4.1-.7.3-1,.6-.3.3-.4.6-.6.9-.1.4-.2.8-.2,1.3h-.7c0-.9,0-1.7.3-2.5s.4-1.4.8-1.9.7-1,1.3-1.3c.5-.3,1.1-.5,1.7-.5s.4,0,.6,0c.2,0,.4,0,.5.1Z"/>
          <path d="M431.8,128.3v-.3c0-1,.1-1.9.4-2.7.3-.8.7-1.6,1.2-2.2.5-.6,1.2-1.1,2-1.4.8-.3,1.7-.5,2.7-.5s1.9.2,2.7.5c.8.3,1.4.8,2,1.4.5.6,1,1.3,1.2,2.2.3.8.4,1.7.4,2.7v.3c0,1-.1,1.9-.4,2.7-.3.8-.7,1.6-1.2,2.2-.5.6-1.2,1.1-2,1.4s-1.7.5-2.7.5-1.9-.2-2.7-.5c-.8-.3-1.5-.8-2-1.4-.5-.6-1-1.3-1.2-2.2-.3-.8-.4-1.7-.4-2.7ZM435,128v.3c0,.6,0,1.1.2,1.7.1.5.3,1,.5,1.4.2.4.6.7.9.9.4.2.8.3,1.4.3s1-.1,1.4-.3c.4-.2.7-.5.9-.9.2-.4.4-.8.5-1.4.1-.5.2-1.1.2-1.7v-.3c0-.6,0-1.1-.2-1.6-.1-.5-.3-1-.5-1.4-.2-.4-.6-.7-.9-.9-.4-.2-.8-.3-1.4-.3s-1,.1-1.4.3c-.4.2-.7.5-.9.9-.2.4-.4.8-.5,1.4-.1.5-.2,1.1-.2,1.6Z"/>
          <path d="M450.1,124.2v10.7h-3.3v-13.5h3.1l.2,2.8ZM449.6,127.7h-1c0-.9.1-1.8.3-2.6.2-.8.6-1.5,1-2.1.4-.6,1-1,1.7-1.4s1.4-.5,2.3-.5,1.2,0,1.7.3.9.5,1.3.8.7.9.9,1.5.3,1.3.3,2.2v9h-3.3v-8.7c0-.6,0-1.1-.3-1.5-.2-.4-.4-.6-.8-.8-.3-.1-.7-.2-1.2-.2s-1,.1-1.3.3c-.4.2-.7.5-.9.8-.2.4-.4.8-.5,1.2-.1.5-.2,1-.2,1.5ZM457.8,127l-1.4.2c0-.8.1-1.6.3-2.4s.6-1.4,1-2,1-1,1.6-1.3c.7-.3,1.4-.5,2.3-.5s1.3,0,1.8.3c.5.2,1,.5,1.4.9.4.4.7.9.9,1.6.2.6.3,1.4.3,2.3v8.7h-3.3v-8.7c0-.7,0-1.2-.3-1.5-.2-.3-.4-.6-.8-.7-.3-.1-.7-.2-1.2-.2s-.9,0-1.2.3c-.3.2-.6.4-.8.7-.2.3-.4.6-.5,1-.1.4-.2.8-.2,1.3Z"/>
          <path d="M472.2,124v16.1h-3.3v-18.7h3.1l.2,2.6ZM480.9,128v.3c0,1-.1,1.9-.3,2.7-.2.8-.6,1.6-1,2.2-.4.6-1,1.1-1.6,1.4-.7.3-1.4.5-2.2.5s-1.6-.2-2.2-.5c-.6-.3-1.1-.8-1.6-1.4-.4-.6-.8-1.3-1-2.1-.3-.8-.4-1.6-.6-2.6v-.8c.1-1,.3-1.9.6-2.7.3-.8.6-1.5,1-2.1.4-.6.9-1.1,1.6-1.4s1.3-.5,2.1-.5,1.6.2,2.3.5,1.2.8,1.7,1.4c.4.6.8,1.3,1,2.2.2.8.3,1.8.3,2.8ZM477.6,128.3v-.3c0-.6,0-1.2-.2-1.7-.1-.5-.3-1-.5-1.3-.2-.4-.5-.7-.9-.9s-.8-.3-1.3-.3-.9,0-1.3.2-.7.4-.9.7-.4.7-.5,1.1c-.1.4-.2.9-.3,1.4v2.1c0,.6.2,1.2.4,1.7s.5.9,1,1.2c.4.3,1,.4,1.6.4s.9-.1,1.3-.3.6-.5.9-.9c.2-.4.4-.8.5-1.4,0-.5.1-1.1.1-1.6Z"/>
          <path d="M489.7,121.4v2.4h-7.7v-2.4h7.7ZM484,118.1h3.3v12.9c0,.4,0,.7.2.9s.3.4.5.4.5.1.8.1.4,0,.6,0c.2,0,.3,0,.5,0v2.5c-.3,0-.6.2-.9.2-.3,0-.7,0-1.2,0-.7,0-1.4-.1-1.9-.4-.6-.3-1-.7-1.3-1.2-.3-.6-.5-1.3-.5-2.3v-13.2Z"/>
          <path d="M506.1,126.7v2s-2.1,0-2.1,0c-.5,0-1,0-1.4.2-.4.1-.7.3-1,.4-.2.2-.4.4-.6.7-.1.3-.2.6-.2.9s0,.6.2.9c.2.3.4.5.7.6.3.2.6.2,1,.2.6,0,1.1-.1,1.5-.4.4-.2.8-.5,1-.9s.4-.7.4-1l.9,1.4c-.1.3-.3.7-.5,1.1s-.5.7-.9,1.1c-.4.3-.8.6-1.3.8-.5.2-1.1.3-1.8.3s-1.7-.2-2.3-.5c-.7-.3-1.2-.8-1.6-1.4s-.6-1.3-.6-2.1.1-1.3.4-1.9c.3-.5.7-1,1.2-1.4.5-.4,1.2-.7,1.9-.9.8-.2,1.7-.3,2.7-.3h2.2ZM505.6,132v-6.2c0-.5,0-.9-.2-1.2s-.4-.6-.7-.8-.7-.3-1.2-.3-.8,0-1.2.2-.6.4-.8.6-.3.6-.3.9h-3.3c0-.6.1-1.1.4-1.6.3-.5.6-1,1.1-1.3.5-.4,1.1-.7,1.8-.9.7-.2,1.5-.3,2.3-.3s1.9.2,2.7.5c.8.3,1.4.9,1.9,1.6.5.7.7,1.6.7,2.6v5.9c0,.7,0,1.2.1,1.7,0,.5.2.9.4,1.2v.2h-3.4c-.2-.3-.3-.8-.4-1.3s-.1-1-.1-1.6Z"/>
          <path d="M515.1,124.3v10.6h-3.3v-13.5h3.1l.2,2.9ZM514.6,127.7h-1c0-1,.1-1.9.4-2.7.3-.8.6-1.5,1.1-2.1.5-.6,1-1,1.7-1.3.6-.3,1.4-.5,2.2-.5s1.2,0,1.8.3c.5.2,1,.5,1.4.9.4.4.7.9.9,1.6.2.6.3,1.4.3,2.4v8.6h-3.3v-8.7c0-.6,0-1.1-.3-1.5s-.4-.6-.8-.8c-.3-.1-.7-.2-1.2-.2s-.9.1-1.3.3c-.4.2-.7.5-.9.8-.3.4-.4.8-.6,1.2-.1.5-.2,1-.2,1.5Z"/>
          <path d="M525.6,128.3v-.3c0-1,.1-2,.4-2.8.2-.8.6-1.6,1-2.2.5-.6,1-1.1,1.7-1.4.7-.3,1.4-.5,2.2-.5s1.5.2,2.1.5c.6.3,1.1.8,1.5,1.4.4.6.8,1.3,1,2.1.3.8.4,1.7.6,2.7v.7c-.1,1-.3,1.8-.6,2.6-.3.8-.6,1.5-1,2.1s-.9,1.1-1.6,1.4c-.6.3-1.3.5-2.1.5s-1.6-.2-2.2-.5-1.2-.8-1.7-1.4c-.5-.6-.8-1.3-1-2.2-.2-.8-.4-1.7-.4-2.7ZM528.9,128v.3c0,.6,0,1.1.1,1.6,0,.5.3,1,.5,1.3s.5.7.9.9c.4.2.8.3,1.3.3s1.2-.1,1.6-.4c.4-.3.7-.7,1-1.2.2-.5.4-1.1.4-1.7v-2c0-.5-.1-1-.3-1.4-.1-.4-.3-.8-.6-1.1-.2-.3-.5-.5-.9-.7s-.8-.3-1.3-.3-.9.1-1.3.3c-.4.2-.6.5-.9.9-.2.4-.4.8-.5,1.4-.1.5-.2,1.1-.2,1.7ZM534.2,132v-16.3h3.3v19.1h-3l-.3-2.9Z"/>
          <path d="M548.9,121.4l2.2,10.3.2,3.2h-2.1l-3.5-13.5h3.2ZM550.6,131.6l3-10.2h2.1l-.6,3.5-3,9.9h-1.8l.4-3.2ZM555.9,121.4l2.9,10.1.4,3.3h-1.8l-3-9.9-.6-3.5h2.1ZM558.4,131.5l2.2-10.1h3.2l-3.5,13.5h-2.1l.2-3.4Z"/>
          <path d="M568.9,115.7v19.1h-3.3v-19.1h3.3ZM568.4,127.7h-1c0-.9.1-1.8.4-2.6.2-.8.6-1.5,1.1-2.1.5-.6,1-1,1.6-1.4.6-.3,1.3-.5,2.1-.5s1.3,0,1.8.3c.5.2,1,.5,1.4.9.4.4.7.9.9,1.6.2.7.3,1.4.3,2.4v8.6h-3.3v-8.6c0-.6,0-1.1-.3-1.5-.2-.4-.4-.6-.8-.8-.3-.2-.7-.2-1.2-.2s-1,.1-1.4.3c-.4.2-.7.5-.9.8-.2.4-.4.8-.5,1.2-.1.5-.2,1-.2,1.5Z"/>
          <path d="M586,135.1c-1,0-1.9-.2-2.8-.5s-1.5-.8-2.1-1.4c-.6-.6-1-1.3-1.3-2.1s-.5-1.6-.5-2.6v-.5c0-1,.1-2,.4-2.8s.7-1.6,1.3-2.2c.5-.6,1.2-1.1,2-1.4s1.6-.5,2.5-.5,1.8.2,2.5.5c.7.3,1.3.8,1.8,1.4.5.6.9,1.3,1.1,2.1.2.8.4,1.7.4,2.7v1.4h-10.6v-2.3h7.3v-.2c0-.5-.1-1-.3-1.4-.2-.4-.5-.8-.8-1-.4-.3-.9-.4-1.5-.4s-.9.1-1.3.3c-.4.2-.7.5-.9.9-.2.4-.4.8-.5,1.4s-.2,1.1-.2,1.8v.5c0,.6,0,1.1.2,1.6.2.5.4.9.7,1.3.3.4.7.6,1.1.8.4.2.9.3,1.5.3s1.3-.1,1.9-.4c.6-.3,1-.7,1.5-1.2l1.7,1.7c-.3.4-.7.8-1.1,1.2-.5.4-1.1.7-1.7.9-.7.2-1.4.4-2.3.4Z"/>
          <path d="M596.8,124.3v10.6h-3.3v-13.5h3.1l.2,2.9ZM596.3,127.7h-1c0-1,.1-1.9.4-2.7.3-.8.6-1.5,1.1-2.1s1-1,1.7-1.3c.6-.3,1.4-.5,2.2-.5s1.2,0,1.8.3c.5.2,1,.5,1.4.9s.7.9.9,1.6c.2.6.3,1.4.3,2.4v8.6h-3.3v-8.7c0-.6,0-1.1-.3-1.5s-.4-.6-.8-.8c-.3-.1-.7-.2-1.2-.2s-.9.1-1.3.3-.7.5-.9.8c-.3.4-.4.8-.6,1.2-.1.5-.2,1-.2,1.5Z"/>
          <path d="M620.6,121.4v2.4h-7.7v-2.4h7.7ZM614.9,118.1h3.3v12.9c0,.4,0,.7.2.9.1.2.3.4.5.4s.5.1.8.1.4,0,.6,0,.3,0,.5,0v2.5c-.3,0-.6.2-.9.2-.3,0-.7,0-1.2,0-.7,0-1.4-.1-1.9-.4-.6-.3-1-.7-1.3-1.2-.3-.6-.5-1.3-.5-2.3v-13.2Z"/>
          <path d="M626,115.7v19.1h-3.3v-19.1h3.3ZM625.5,127.7h-1c0-.9.1-1.8.4-2.6.2-.8.6-1.5,1.1-2.1.5-.6,1-1,1.6-1.4.6-.3,1.3-.5,2.1-.5s1.3,0,1.8.3c.5.2,1,.5,1.4.9.4.4.7.9.9,1.6.2.7.3,1.4.3,2.4v8.6h-3.3v-8.6c0-.6,0-1.1-.3-1.5-.2-.4-.4-.6-.8-.8-.3-.2-.8-.2-1.2-.2s-1,.1-1.4.3-.7.5-.9.8c-.2.4-.4.8-.5,1.2-.1.5-.2,1-.2,1.5Z"/>
          <path d="M643.1,135.1c-1,0-1.9-.2-2.8-.5s-1.5-.8-2.1-1.4c-.6-.6-1-1.3-1.3-2.1-.3-.8-.5-1.6-.5-2.6v-.5c0-1,.1-2,.4-2.8s.7-1.6,1.3-2.2c.5-.6,1.2-1.1,2-1.4s1.6-.5,2.5-.5,1.8.2,2.5.5c.7.3,1.3.8,1.8,1.4.5.6.9,1.3,1.1,2.1.2.8.4,1.7.4,2.7v1.4h-10.6v-2.3h7.3v-.2c0-.5-.1-1-.3-1.4-.2-.4-.5-.8-.8-1-.4-.3-.9-.4-1.5-.4s-.9.1-1.3.3c-.4.2-.7.5-.9.9-.2.4-.4.8-.5,1.4s-.2,1.1-.2,1.8v.5c0,.6,0,1.1.2,1.6.2.5.4.9.7,1.3.3.4.7.6,1.1.8.4.2.9.3,1.5.3s1.3-.1,1.9-.4c.6-.3,1-.7,1.5-1.2l1.7,1.7c-.3.4-.7.8-1.1,1.2-.5.4-1.1.7-1.7.9-.7.2-1.4.4-2.3.4Z"/>
          <path d="M652.7,121.4l3.1,9.9.5,3.5-2.3.4-4.9-13.8h3.5ZM654.5,133.4l3.6-12h3.5l-5.4,15.5c-.1.3-.3.7-.5,1.1s-.5.8-.8,1.1c-.3.4-.7.6-1.2.9-.5.2-1.1.3-1.8.3s-.6,0-.8,0c-.2,0-.5,0-.7-.2v-2.5c0,0,.2,0,.3,0,.1,0,.2,0,.3,0,.5,0,.9,0,1.2-.2.3-.1.6-.3.8-.5.2-.2.4-.6.5-1l1-2.6Z"/>
          <path d="M669,128.3v-.3c0-1,.1-2,.4-2.8s.6-1.6,1.1-2.2,1-1.1,1.7-1.4,1.4-.5,2.3-.5,1.6.2,2.2.5,1.1.8,1.5,1.4c.4.6.7,1.3.9,2.1.2.8.4,1.7.5,2.7v.7c-.1,1-.3,1.8-.6,2.6-.3.8-.6,1.5-1,2.1-.4.6-.9,1.1-1.5,1.4-.6.3-1.3.5-2.2.5s-1.6-.2-2.2-.5c-.7-.3-1.2-.8-1.7-1.4-.5-.6-.8-1.3-1.1-2.2-.2-.8-.4-1.7-.4-2.7ZM678.1,121.4h3v13.1c0,1.2-.3,2.3-.8,3.1-.5.9-1.3,1.5-2.2,1.9-.9.4-2,.7-3.3.7s-1.1,0-1.7-.2c-.6-.1-1.2-.4-1.8-.7-.6-.3-1.1-.7-1.4-1.2l1.5-1.9c.4.5,1,.9,1.5,1.2.6.3,1.2.4,1.8.4s1.2-.1,1.7-.4c.5-.2.8-.6,1.1-1.1.3-.5.4-1,.4-1.7v-10l.3-3.1ZM672.3,128v.3c0,.6,0,1.1.2,1.6.1.5.3,1,.5,1.3.2.4.5.7.9.9.4.2.8.3,1.3.3s1.2-.1,1.7-.4c.4-.3.8-.7,1-1.2.2-.5.4-1.1.4-1.7v-2c0-.5-.1-1-.3-1.4s-.3-.8-.6-1.1c-.2-.3-.5-.5-.9-.7s-.8-.3-1.3-.3-.9.1-1.3.3c-.4.2-.7.5-.9.9-.2.4-.4.8-.5,1.4-.1.5-.2,1.1-.2,1.7Z"/>
          <path d="M692,126.7v2s-2.1,0-2.1,0c-.5,0-1,0-1.4.2-.4.1-.7.3-1,.4-.2.2-.4.4-.6.7-.1.3-.2.6-.2.9s0,.6.2.9c.2.3.4.5.7.6.3.2.6.2,1,.2.6,0,1.1-.1,1.5-.4.4-.2.8-.5,1-.9s.4-.7.4-1l.9,1.4c-.1.3-.3.7-.5,1.1s-.5.7-.9,1.1-.8.6-1.3.8-1.1.3-1.8.3-1.7-.2-2.3-.5-1.2-.8-1.6-1.4-.6-1.3-.6-2.1.1-1.3.4-1.9.7-1,1.2-1.4c.5-.4,1.2-.7,1.9-.9.8-.2,1.7-.3,2.7-.3h2.2ZM691.5,132v-6.2c0-.5,0-.9-.2-1.2-.2-.3-.4-.6-.7-.8-.3-.2-.7-.3-1.2-.3s-.8,0-1.2.2-.6.4-.8.6c-.2.3-.3.6-.3.9h-3.3c0-.6.1-1.1.4-1.6s.6-1,1.1-1.3c.5-.4,1.1-.7,1.8-.9s1.5-.3,2.3-.3,1.9.2,2.7.5c.8.3,1.4.9,1.9,1.6.5.7.7,1.6.7,2.6v5.9c0,.7,0,1.2.1,1.7,0,.5.2.9.4,1.2v.2h-3.3c-.2-.3-.3-.8-.4-1.3s-.1-1-.1-1.6Z"/>
          <path d="M699.8,121.4l3.2,11v2.5c.1,0-2,0-2,0l-4.6-13.5h3.4ZM702.1,132.4l3.1-11h3.4l-4.6,13.5h-2.1v-2.5Z"/>
          <path d="M716.3,135.1c-1,0-1.9-.2-2.8-.5s-1.5-.8-2.1-1.4c-.6-.6-1-1.3-1.3-2.1-.3-.8-.5-1.6-.5-2.6v-.5c0-1,.1-2,.4-2.8s.7-1.6,1.3-2.2c.5-.6,1.2-1.1,2-1.4s1.6-.5,2.5-.5,1.8.2,2.5.5c.7.3,1.3.8,1.8,1.4.5.6.9,1.3,1.1,2.1.2.8.4,1.7.4,2.7v1.4h-10.6v-2.3h7.3v-.2c0-.5-.1-1-.3-1.4-.2-.4-.5-.8-.8-1-.4-.3-.9-.4-1.5-.4s-.9.1-1.3.3c-.4.2-.7.5-.9.9-.2.4-.4.8-.5,1.4s-.2,1.1-.2,1.8v.5c0,.6,0,1.1.2,1.6.2.5.4.9.7,1.3.3.4.7.6,1.1.8.4.2.9.3,1.5.3s1.3-.1,1.9-.4c.6-.3,1-.7,1.5-1.2l1.7,1.7c-.3.4-.7.8-1.1,1.2-.5.4-1.1.7-1.7.9-.7.2-1.4.4-2.3.4Z"/>
          <path d="M733.6,124.2v10.7h-3.3v-13.5h3.1l.2,2.8ZM733.1,127.7h-1c0-.9.1-1.8.3-2.6.2-.8.6-1.5,1-2.1s1-1,1.7-1.4,1.4-.5,2.3-.5,1.2,0,1.7.3c.5.2.9.5,1.3.8s.7.9.9,1.5.3,1.3.3,2.2v9h-3.3v-8.7c0-.6,0-1.1-.3-1.5-.2-.4-.4-.6-.8-.8-.3-.1-.7-.2-1.2-.2s-1,.1-1.3.3-.7.5-.9.8c-.2.4-.4.8-.5,1.2-.1.5-.2,1-.2,1.5ZM741.3,127l-1.4.2c0-.8.1-1.6.3-2.4.2-.7.6-1.4,1-2,.4-.6,1-1,1.6-1.3.7-.3,1.4-.5,2.3-.5s1.3,0,1.8.3c.5.2,1,.5,1.4.9.4.4.7.9.9,1.6.2.6.3,1.4.3,2.3v8.7h-3.3v-8.7c0-.7,0-1.2-.3-1.5s-.4-.6-.8-.7c-.3-.1-.7-.2-1.2-.2s-.9,0-1.2.3c-.3.2-.6.4-.8.7-.2.3-.4.6-.5,1-.1.4-.2.8-.2,1.3Z"/>
          <path d="M758.5,135.1c-1,0-1.9-.2-2.8-.5s-1.5-.8-2.1-1.4c-.6-.6-1-1.3-1.3-2.1-.3-.8-.5-1.6-.5-2.6v-.5c0-1,.1-2,.4-2.8s.7-1.6,1.3-2.2c.5-.6,1.2-1.1,2-1.4s1.6-.5,2.5-.5,1.8.2,2.5.5c.7.3,1.3.8,1.8,1.4.5.6.9,1.3,1.1,2.1.2.8.4,1.7.4,2.7v1.4h-10.6v-2.3h7.3v-.2c0-.5-.1-1-.3-1.4-.2-.4-.5-.8-.8-1-.4-.3-.9-.4-1.5-.4s-.9.1-1.3.3c-.4.2-.7.5-.9.9-.2.4-.4.8-.5,1.4s-.2,1.1-.2,1.8v.5c0,.6,0,1.1.2,1.6.2.5.4.9.7,1.3.3.4.7.6,1.1.8.4.2.9.3,1.5.3s1.3-.1,1.9-.4c.6-.3,1-.7,1.5-1.2l1.7,1.7c-.3.4-.7.8-1.1,1.2-.5.4-1.1.7-1.7.9-.7.2-1.4.4-2.3.4Z"/>
          <path d="M780.4,126.7v2s-2.1,0-2.1,0c-.5,0-1,0-1.4.2-.4.1-.7.3-1,.4-.2.2-.4.4-.6.7-.1.3-.2.6-.2.9s0,.6.2.9c.2.3.4.5.7.6.3.2.6.2,1,.2.6,0,1.1-.1,1.5-.4.4-.2.8-.5,1-.9s.4-.7.4-1l.9,1.4c-.1.3-.3.7-.5,1.1s-.5.7-.9,1.1-.8.6-1.3.8-1.1.3-1.8.3-1.7-.2-2.3-.5-1.2-.8-1.6-1.4-.6-1.3-.6-2.1.1-1.3.4-1.9.7-1,1.2-1.4c.5-.4,1.2-.7,1.9-.9.8-.2,1.7-.3,2.7-.3h2.2ZM779.9,132v-6.2c0-.5,0-.9-.2-1.2-.2-.3-.4-.6-.7-.8-.3-.2-.7-.3-1.2-.3s-.8,0-1.2.2-.6.4-.8.6c-.2.3-.3.6-.3.9h-3.3c0-.6.1-1.1.4-1.6s.6-1,1.1-1.3c.5-.4,1.1-.7,1.8-.9s1.5-.3,2.3-.3,1.9.2,2.7.5c.8.3,1.4.9,1.9,1.6.5.7.7,1.6.7,2.6v5.9c0,.7,0,1.2.1,1.7,0,.5.2.9.4,1.2v.2h-3.3c-.2-.3-.3-.8-.4-1.3s-.1-1-.1-1.6Z"/>
          <path d="M792,128.3v-.3c0-1,.1-2,.3-2.8s.6-1.6,1-2.2,1-1.1,1.7-1.4,1.4-.5,2.3-.5,1.5.2,2.2.5c.6.3,1.1.8,1.5,1.4.4.6.8,1.3,1,2.1.3.8.4,1.7.6,2.7v.7c-.1.9-.3,1.8-.6,2.6-.3.8-.6,1.5-1,2.1-.4.6-.9,1.1-1.6,1.4-.6.3-1.3.5-2.2.5s-1.6-.2-2.2-.5c-.7-.3-1.2-.8-1.7-1.4s-.8-1.3-1-2.2-.3-1.7-.3-2.7ZM795.3,128v.3c0,.6,0,1.1.2,1.6.1.5.3,1,.5,1.4.2.4.5.7.9.9s.8.3,1.3.3,1.2-.1,1.7-.4.8-.7,1-1.2.4-1.1.4-1.7v-1.9c0-.5-.1-1-.3-1.4s-.3-.8-.6-1.1c-.2-.3-.5-.5-.9-.7s-.8-.3-1.3-.3-.9.1-1.3.3c-.4.2-.6.5-.9.9-.2.4-.4.8-.5,1.4-.1.5-.2,1.1-.2,1.7ZM800.6,140.1v-15.9l.4-2.7h2.9v18.7h-3.3Z"/>
          <path d="M815.4,128.9h1c0,.9,0,1.7-.3,2.5-.2.8-.5,1.4-.9,2-.4.6-.9,1-1.6,1.3-.6.3-1.4.5-2.3.5s-1.3,0-1.8-.3c-.5-.2-1-.5-1.4-.9-.4-.4-.7-.9-.9-1.6s-.3-1.4-.3-2.3v-8.7h3.3v8.7c0,.4,0,.8.2,1.1.1.3.2.5.4.7.2.2.4.3.7.4.3,0,.5.1.8.1.8,0,1.4-.2,1.9-.5.5-.3.8-.8,1-1.3s.3-1.2.3-1.8ZM815,131.7v-10.3h3.3v13.5h-3.1l-.2-3.2Z"/>
          <path d="M820.6,128.3v-.3c0-1,.1-1.9.4-2.7s.7-1.6,1.2-2.2c.5-.6,1.2-1.1,2-1.4.8-.3,1.7-.5,2.7-.5s1.9.2,2.7.5c.8.3,1.4.8,2,1.4.5.6,1,1.3,1.2,2.2s.4,1.7.4,2.7v.3c0,1-.1,1.9-.4,2.7s-.7,1.6-1.2,2.2c-.5.6-1.2,1.1-2,1.4-.8.3-1.7.5-2.7.5s-1.9-.2-2.7-.5c-.8-.3-1.5-.8-2-1.4-.5-.6-1-1.3-1.2-2.2s-.4-1.7-.4-2.7ZM823.9,128v.3c0,.6,0,1.1.2,1.7.1.5.3,1,.5,1.4.2.4.6.7.9.9.4.2.8.3,1.4.3s1-.1,1.4-.3c.4-.2.7-.5.9-.9.2-.4.4-.8.5-1.4.1-.5.2-1.1.2-1.7v-.3c0-.6,0-1.1-.2-1.6-.1-.5-.3-1-.5-1.4-.2-.4-.6-.7-.9-.9-.4-.2-.8-.3-1.4-.3s-1,.1-1.4.3c-.4.2-.7.5-.9.9-.2.4-.4.8-.5,1.4-.1.5-.2,1.1-.2,1.6Z"/>
          <path d="M842,121.4v2.4h-7.7v-2.4h7.7ZM836.3,118.1h3.3v12.9c0,.4,0,.7.2.9.1.2.3.4.5.4s.5.1.8.1.4,0,.6,0,.3,0,.5,0v2.5c-.3,0-.6.2-.9.2-.3,0-.7,0-1.2,0-.7,0-1.4-.1-1.9-.4-.6-.3-1-.7-1.3-1.2-.3-.6-.5-1.3-.5-2.3v-13.2Z"/>
          <path d="M850.2,135.1c-1,0-1.9-.2-2.8-.5s-1.5-.8-2.1-1.4c-.6-.6-1-1.3-1.3-2.1-.3-.8-.5-1.6-.5-2.6v-.5c0-1,.1-2,.4-2.8s.7-1.6,1.3-2.2c.5-.6,1.2-1.1,2-1.4s1.6-.5,2.5-.5,1.8.2,2.5.5c.7.3,1.3.8,1.8,1.4.5.6.9,1.3,1.1,2.1.2.8.4,1.7.4,2.7v1.4h-10.6v-2.3h7.3v-.2c0-.5-.1-1-.3-1.4-.2-.4-.5-.8-.8-1-.4-.3-.9-.4-1.5-.4s-.9.1-1.3.3c-.4.2-.7.5-.9.9-.2.4-.4.8-.5,1.4s-.2,1.1-.2,1.8v.5c0,.6,0,1.1.2,1.6.2.5.4.9.7,1.3.3.4.7.6,1.1.8.4.2.9.3,1.5.3s1.3-.1,1.9-.4c.6-.3,1-.7,1.5-1.2l1.7,1.7c-.3.4-.7.8-1.1,1.2-.5.4-1.1.7-1.7.9-.7.2-1.4.4-2.3.4Z"/>
          <path d="M870.6,121.4v2.4h-7.7v-2.4h7.7ZM865,118.1h3.3v12.9c0,.4,0,.7.2.9.1.2.3.4.5.4s.5.1.8.1.4,0,.6,0,.3,0,.5,0v2.5c-.3,0-.6.2-.9.2-.3,0-.7,0-1.2,0-.7,0-1.4-.1-1.9-.4-.6-.3-1-.7-1.3-1.2-.3-.6-.5-1.3-.5-2.3v-13.2Z"/>
          <path d="M876,115.7v19.1h-3.3v-19.1h3.3ZM875.5,127.7h-1c0-.9.1-1.8.4-2.6.2-.8.6-1.5,1.1-2.1.5-.6,1-1,1.6-1.4.6-.3,1.3-.5,2.1-.5s1.3,0,1.8.3c.5.2,1,.5,1.4.9.4.4.7.9.9,1.6.2.7.3,1.4.3,2.4v8.6h-3.3v-8.6c0-.6,0-1.1-.3-1.5-.2-.4-.4-.6-.8-.8-.3-.2-.8-.2-1.2-.2s-1,.1-1.4.3-.7.5-.9.8c-.2.4-.4.8-.5,1.2-.1.5-.2,1-.2,1.5Z"/>
          <path d="M893.1,135.1c-1,0-1.9-.2-2.8-.5s-1.5-.8-2.1-1.4c-.6-.6-1-1.3-1.3-2.1-.3-.8-.5-1.6-.5-2.6v-.5c0-1,.1-2,.4-2.8s.7-1.6,1.3-2.2c.5-.6,1.2-1.1,2-1.4s1.6-.5,2.5-.5,1.8.2,2.5.5c.7.3,1.3.8,1.8,1.4.5.6.9,1.3,1.1,2.1.2.8.4,1.7.4,2.7v1.4h-10.6v-2.3h7.3v-.2c0-.5-.1-1-.3-1.4-.2-.4-.5-.8-.8-1-.4-.3-.9-.4-1.5-.4s-.9.1-1.3.3c-.4.2-.7.5-.9.9-.2.4-.4.8-.5,1.4s-.2,1.1-.2,1.8v.5c0,.6,0,1.1.2,1.6.2.5.4.9.7,1.3.3.4.7.6,1.1.8.4.2.9.3,1.5.3s1.3-.1,1.9-.4c.6-.3,1-.7,1.5-1.2l1.7,1.7c-.3.4-.7.8-1.1,1.2-.5.4-1.1.7-1.7.9-.7.2-1.4.4-2.3.4Z"/>
          <path d="M902.8,121.4l3.1,9.9.5,3.5-2.3.4-4.9-13.8h3.5ZM904.6,133.4l3.6-12h3.5l-5.4,15.5c-.1.3-.3.7-.5,1.1s-.5.8-.8,1.1c-.3.4-.7.6-1.2.9-.5.2-1.1.3-1.8.3s-.6,0-.8,0c-.2,0-.5,0-.7-.2v-2.5c0,0,.2,0,.3,0,.1,0,.2,0,.3,0,.5,0,.9,0,1.2-.2.3-.1.6-.3.8-.5.2-.2.4-.6.5-1l1-2.6Z"/>
        </g>
      </g>
      <g class="st1">
        <g class="st1">
          <path d="M226.4,161.8c0-.3,0-.5-.2-.8-.1-.2-.4-.4-.8-.6-.4-.2-1-.4-1.8-.5-.7-.1-1.3-.3-1.9-.6-.6-.2-1.1-.5-1.5-.8-.4-.3-.8-.7-1-1.1-.2-.4-.4-.9-.4-1.5s.1-1.1.4-1.6c.2-.5.6-.9,1-1.3s1-.7,1.7-.9c.7-.2,1.4-.3,2.2-.3s2.1.2,3,.6c.8.4,1.5.9,1.9,1.5.4.7.7,1.4.7,2.2h-3.3c0-.4,0-.7-.2-1-.2-.3-.4-.5-.7-.7-.3-.2-.8-.3-1.3-.3s-.8,0-1.2.2c-.3.1-.5.3-.7.6s-.2.5-.2.8,0,.4.1.6c0,.2.2.3.4.5s.5.3.8.4c.3.1.8.2,1.3.3,1,.2,1.9.5,2.6.8s1.3.8,1.8,1.3c.4.5.6,1.2.6,2.1s-.1,1.1-.4,1.6c-.3.5-.6.9-1.1,1.3-.5.4-1.1.6-1.8.9-.7.2-1.4.3-2.3.3-1.2,0-2.3-.2-3.1-.7-.9-.4-1.5-1-1.9-1.7s-.7-1.4-.7-2.1h3.2c0,.5.2.9.4,1.3.3.3.6.5,1,.7.4.1.8.2,1.3.2s.9,0,1.3-.2c.3-.1.6-.3.8-.6.2-.2.3-.5.3-.8Z"/>
          <path d="M238.5,152v2.4h-7.7v-2.4h7.7ZM232.8,148.7h3.3v12.9c0,.4,0,.7.2.9s.3.4.5.4.5.1.8.1.4,0,.6,0c.2,0,.3,0,.5,0v2.5c-.3,0-.6.2-.9.2-.3,0-.7,0-1.2,0-.7,0-1.4-.1-1.9-.4-.6-.3-1-.7-1.3-1.2-.3-.6-.5-1.3-.5-2.3v-13.2Z"/>
          <path d="M239.8,158.8v-.3c0-1,.1-1.9.4-2.7.3-.8.7-1.6,1.2-2.2.5-.6,1.2-1.1,2-1.4.8-.3,1.7-.5,2.7-.5s1.9.2,2.7.5c.8.3,1.4.8,2,1.4.5.6,1,1.3,1.2,2.2.3.8.4,1.7.4,2.7v.3c0,1-.1,1.9-.4,2.7-.3.8-.7,1.6-1.2,2.2-.5.6-1.2,1.1-2,1.4s-1.7.5-2.7.5-1.9-.2-2.7-.5c-.8-.3-1.5-.8-2-1.4-.5-.6-1-1.3-1.2-2.2-.3-.8-.4-1.7-.4-2.7ZM243.1,158.6v.3c0,.6,0,1.1.2,1.7.1.5.3,1,.5,1.4.2.4.6.7.9.9.4.2.8.3,1.4.3s1-.1,1.4-.3c.4-.2.7-.5.9-.9.2-.4.4-.8.5-1.4.1-.5.2-1.1.2-1.7v-.3c0-.6,0-1.1-.2-1.6-.1-.5-.3-1-.5-1.4-.2-.4-.6-.7-.9-.9-.4-.2-.8-.3-1.4-.3s-1,.1-1.4.3c-.4.2-.7.5-.9.9-.2.4-.4.8-.5,1.4-.1.5-.2,1.1-.2,1.6Z"/>
          <path d="M254.2,158.8v-.3c0-1,.1-1.9.4-2.7.3-.8.7-1.6,1.2-2.2.5-.6,1.2-1.1,2-1.4.8-.3,1.7-.5,2.7-.5s1.9.2,2.7.5c.8.3,1.4.8,2,1.4.5.6,1,1.3,1.2,2.2.3.8.4,1.7.4,2.7v.3c0,1-.1,1.9-.4,2.7-.3.8-.7,1.6-1.2,2.2-.5.6-1.2,1.1-2,1.4s-1.7.5-2.7.5-1.9-.2-2.7-.5c-.8-.3-1.5-.8-2-1.4-.5-.6-1-1.3-1.2-2.2-.3-.8-.4-1.7-.4-2.7ZM257.5,158.6v.3c0,.6,0,1.1.2,1.7.1.5.3,1,.5,1.4.2.4.6.7.9.9.4.2.8.3,1.4.3s1-.1,1.4-.3c.4-.2.7-.5.9-.9.2-.4.4-.8.5-1.4.1-.5.2-1.1.2-1.7v-.3c0-.6,0-1.1-.2-1.6-.1-.5-.3-1-.5-1.4-.2-.4-.6-.7-.9-.9-.4-.2-.8-.3-1.4-.3s-1,.1-1.4.3c-.4.2-.7.5-.9.9-.2.4-.4.8-.5,1.4-.1.5-.2,1.1-.2,1.6Z"/>
          <path d="M268.7,158.9v-.3c0-1,.1-2,.4-2.8.2-.8.6-1.6,1-2.2.5-.6,1-1.1,1.7-1.4.7-.3,1.4-.5,2.2-.5s1.5.2,2.1.5c.6.3,1.1.8,1.5,1.4.4.6.8,1.3,1,2.1.3.8.4,1.7.6,2.7v.7c-.1,1-.3,1.8-.6,2.6-.3.8-.6,1.5-1,2.1s-.9,1.1-1.6,1.4c-.6.3-1.3.5-2.1.5s-1.6-.2-2.2-.5-1.2-.8-1.7-1.4c-.5-.6-.8-1.3-1-2.2-.2-.8-.4-1.7-.4-2.7ZM272,158.6v.3c0,.6,0,1.1.1,1.6,0,.5.3,1,.5,1.3s.5.7.9.9c.4.2.8.3,1.3.3s1.2-.1,1.6-.4c.4-.3.7-.7,1-1.2.2-.5.4-1.1.4-1.7v-2c0-.5-.1-1-.3-1.4-.1-.4-.3-.8-.6-1.1-.2-.3-.5-.5-.9-.7s-.8-.3-1.3-.3-.9.1-1.3.3c-.4.2-.6.5-.9.9-.2.4-.4.8-.5,1.4-.1.5-.2,1.1-.2,1.7ZM277.3,162.6v-16.3h3.3v19.1h-3l-.3-2.9Z"/>
          <path d="M289.9,146.3h3.3v16.2l-.3,3h-3v-19.1ZM301.9,158.6v.3c0,1-.1,1.9-.3,2.8-.2.8-.6,1.6-1,2.2-.4.6-1,1.1-1.6,1.4s-1.4.5-2.3.5-1.6-.2-2.2-.5c-.6-.3-1.1-.8-1.5-1.4-.4-.6-.7-1.3-1-2.1-.2-.8-.4-1.7-.6-2.7v-.7c.1-1,.3-1.9.6-2.7s.6-1.5,1-2.1c.4-.6.9-1.1,1.5-1.4.6-.3,1.3-.5,2.1-.5s1.6.2,2.3.5c.7.3,1.2.8,1.6,1.4s.8,1.3,1,2.2c.2.8.3,1.8.3,2.8ZM298.6,158.8v-.3c0-.6,0-1.1-.1-1.6,0-.5-.2-1-.4-1.4s-.5-.7-.8-.9c-.4-.2-.8-.3-1.3-.3s-1,0-1.3.3-.7.4-.9.7c-.2.3-.4.7-.5,1.1-.1.4-.2.9-.3,1.3v1.9c0,.6.2,1.2.4,1.7s.5.9,1,1.2,1,.4,1.7.4,1-.1,1.3-.3c.4-.2.6-.5.8-.9s.4-.8.4-1.4c0-.5.1-1.1.1-1.7Z"/>
          <path d="M310.3,165.7c-1,0-1.9-.2-2.8-.5s-1.5-.8-2.1-1.4c-.6-.6-1-1.3-1.3-2.1s-.5-1.6-.5-2.6v-.5c0-1,.1-2,.4-2.8s.7-1.6,1.3-2.2c.5-.6,1.2-1.1,2-1.4s1.6-.5,2.5-.5,1.8.2,2.5.5c.7.3,1.3.8,1.8,1.4.5.6.9,1.3,1.1,2.1s.4,1.7.4,2.7v1.4h-10.6v-2.3h7.3v-.2c0-.5-.1-1-.3-1.4-.2-.4-.5-.8-.8-1-.4-.3-.9-.4-1.5-.4s-.9.1-1.3.3c-.4.2-.7.5-.9.9-.2.4-.4.8-.5,1.4s-.2,1.1-.2,1.8v.5c0,.6,0,1.1.2,1.6.2.5.4.9.7,1.3.3.4.7.6,1.1.8.4.2.9.3,1.5.3s1.3-.1,1.9-.4c.6-.3,1-.7,1.5-1.2l1.7,1.7c-.3.4-.7.8-1.1,1.2s-1.1.7-1.7.9c-.7.2-1.4.4-2.3.4Z"/>
          <path d="M321.2,146.3v19.1h-3.3v-19.1h3.3ZM320.7,158.2h-1c0-.9.1-1.8.4-2.6.2-.8.6-1.5,1.1-2.1.5-.6,1-1,1.6-1.4.6-.3,1.3-.5,2.1-.5s1.3,0,1.8.3c.5.2,1,.5,1.4.9.4.4.7.9.9,1.6.2.7.3,1.4.3,2.4v8.6h-3.3v-8.6c0-.6,0-1.1-.3-1.5-.2-.4-.4-.6-.8-.8-.3-.2-.7-.2-1.2-.2s-1,.1-1.4.3c-.4.2-.7.5-.9.8-.2.4-.4.8-.5,1.2-.1.5-.2,1-.2,1.5Z"/>
          <path d="M332.2,148.5c0-.5.2-.9.5-1.2.3-.3.8-.5,1.4-.5s1,.2,1.4.5c.3.3.5.7.5,1.2s-.2.9-.5,1.2c-.3.3-.8.5-1.4.5s-1-.2-1.4-.5c-.3-.3-.5-.7-.5-1.2ZM335.7,152v13.5h-3.3v-13.5h3.3Z"/>
          <path d="M342.1,154.9v10.6h-3.3v-13.5h3.1l.2,2.9ZM341.6,158.2h-1c0-1,.1-1.9.4-2.7.3-.8.6-1.5,1.1-2.1.5-.6,1-1,1.7-1.3.6-.3,1.4-.5,2.2-.5s1.2,0,1.8.3c.5.2,1,.5,1.4.9.4.4.7.9.9,1.6.2.6.3,1.4.3,2.4v8.6h-3.3v-8.7c0-.6,0-1.1-.3-1.5s-.4-.6-.8-.8c-.3-.1-.7-.2-1.2-.2s-.9.1-1.3.3c-.4.2-.7.5-.9.8-.3.4-.4.8-.6,1.2-.1.5-.2,1-.2,1.5Z"/>
          <path d="M352.5,158.9v-.3c0-1,.1-2,.4-2.8.2-.8.6-1.6,1-2.2.5-.6,1-1.1,1.7-1.4.7-.3,1.4-.5,2.2-.5s1.5.2,2.1.5c.6.3,1.1.8,1.5,1.4.4.6.8,1.3,1,2.1.3.8.4,1.7.6,2.7v.7c-.1,1-.3,1.8-.6,2.6-.3.8-.6,1.5-1,2.1s-.9,1.1-1.6,1.4c-.6.3-1.3.5-2.1.5s-1.6-.2-2.2-.5-1.2-.8-1.7-1.4c-.5-.6-.8-1.3-1-2.2-.2-.8-.4-1.7-.4-2.7ZM355.8,158.6v.3c0,.6,0,1.1.1,1.6,0,.5.3,1,.5,1.3s.5.7.9.9c.4.2.8.3,1.3.3s1.2-.1,1.6-.4c.4-.3.7-.7,1-1.2.2-.5.4-1.1.4-1.7v-2c0-.5-.1-1-.3-1.4-.1-.4-.3-.8-.6-1.1-.2-.3-.5-.5-.9-.7s-.8-.3-1.3-.3-.9.1-1.3.3c-.4.2-.6.5-.9.9-.2.4-.4.8-.5,1.4-.1.5-.2,1.1-.2,1.7ZM361.2,162.6v-16.3h3.3v19.1h-3l-.3-2.9Z"/>
          <path d="M373.8,148.5c0-.5.2-.9.5-1.2.3-.3.8-.5,1.4-.5s1,.2,1.4.5c.3.3.5.7.5,1.2s-.2.9-.5,1.2c-.3.3-.8.5-1.4.5s-1-.2-1.4-.5c-.3-.3-.5-.7-.5-1.2ZM377.3,152v13.5h-3.3v-13.5h3.3Z"/>
          <path d="M386.8,152v2.4h-7.7v-2.4h7.7ZM381.2,148.7h3.3v12.9c0,.4,0,.7.2.9s.3.4.5.4.5.1.8.1.4,0,.6,0c.2,0,.3,0,.5,0v2.5c-.3,0-.6.2-.9.2-.3,0-.7,0-1.2,0-.7,0-1.4-.1-1.9-.4-.6-.3-1-.7-1.3-1.2-.3-.6-.5-1.3-.5-2.3v-13.2Z"/>
          <path d="M389.1,163.8c0-.5.2-.9.5-1.3.3-.3.8-.5,1.4-.5s1,.2,1.4.5c.3.3.5.8.5,1.3s-.2.9-.5,1.2c-.3.3-.8.5-1.4.5s-1-.2-1.4-.5c-.3-.3-.5-.7-.5-1.2Z"/>
          <path d="M413.5,159.5h3.4c0,1.2-.4,2.3-1,3.2s-1.4,1.7-2.4,2.2c-1,.5-2.3.8-3.8.8s-2.2-.2-3.1-.6c-.9-.4-1.7-1-2.3-1.7-.6-.8-1.1-1.7-1.5-2.7s-.5-2.2-.5-3.6v-1.4c0-1.3.2-2.5.5-3.6s.8-2,1.5-2.7,1.4-1.3,2.4-1.7,1.9-.6,3.1-.6,2.7.3,3.7.8c1,.5,1.8,1.3,2.4,2.2.6.9.9,2,1,3.3h-3.4c0-.8-.2-1.4-.5-1.9-.3-.5-.7-.9-1.2-1.2-.5-.3-1.2-.4-2.1-.4s-1.2.1-1.8.4-.9.6-1.3,1.1c-.3.5-.6,1.1-.7,1.8s-.2,1.6-.2,2.5v1.4c0,.9,0,1.7.2,2.5s.4,1.3.7,1.9c.3.5.7.9,1.2,1.2.5.3,1.1.4,1.8.4s1.5-.1,2-.4c.5-.3.9-.7,1.2-1.2.3-.5.5-1.2.5-1.9Z"/>
          <path d="M418.7,158.8v-.3c0-1,.1-1.9.4-2.7.3-.8.7-1.6,1.2-2.2.5-.6,1.2-1.1,2-1.4.8-.3,1.7-.5,2.7-.5s1.9.2,2.7.5c.8.3,1.4.8,2,1.4.5.6,1,1.3,1.2,2.2.3.8.4,1.7.4,2.7v.3c0,1-.1,1.9-.4,2.7-.3.8-.7,1.6-1.2,2.2-.5.6-1.2,1.1-2,1.4s-1.7.5-2.7.5-1.9-.2-2.7-.5c-.8-.3-1.5-.8-2-1.4-.5-.6-1-1.3-1.2-2.2-.3-.8-.4-1.7-.4-2.7ZM422,158.6v.3c0,.6,0,1.1.2,1.7.1.5.3,1,.5,1.4.2.4.6.7.9.9.4.2.8.3,1.4.3s1-.1,1.4-.3c.4-.2.7-.5.9-.9.2-.4.4-.8.5-1.4.1-.5.2-1.1.2-1.7v-.3c0-.6,0-1.1-.2-1.6-.1-.5-.3-1-.5-1.4-.2-.4-.6-.7-.9-.9-.4-.2-.8-.3-1.4-.3s-1,.1-1.4.3c-.4.2-.7.5-.9.9-.2.4-.4.8-.5,1.4-.1.5-.2,1.1-.2,1.6Z"/>
          <path d="M437,154.7v10.7h-3.3v-13.5h3.1l.2,2.8ZM436.5,158.2h-1c0-.9.1-1.8.3-2.6.2-.8.6-1.5,1-2.1.4-.6,1-1,1.7-1.4s1.4-.5,2.3-.5,1.2,0,1.7.3.9.5,1.3.8.7.9.9,1.5.3,1.3.3,2.2v9h-3.3v-8.7c0-.6,0-1.1-.3-1.5-.2-.4-.4-.6-.8-.8-.3-.1-.7-.2-1.2-.2s-1,.1-1.3.3c-.4.2-.7.5-.9.8-.2.4-.4.8-.5,1.2-.1.5-.2,1-.2,1.5ZM444.7,157.6l-1.4.2c0-.8.1-1.6.3-2.4s.6-1.4,1-2,1-1,1.6-1.3c.7-.3,1.4-.5,2.3-.5s1.3,0,1.8.3c.5.2,1,.5,1.4.9.4.4.7.9.9,1.6.2.6.3,1.4.3,2.3v8.7h-3.3v-8.7c0-.7,0-1.2-.3-1.5-.2-.3-.4-.6-.8-.7-.3-.1-.7-.2-1.2-.2s-.9,0-1.2.3c-.3.2-.6.4-.8.7-.2.3-.4.6-.5,1-.1.4-.2.8-.2,1.3Z"/>
          <path d="M459.1,154.7v10.7h-3.3v-13.5h3.1l.2,2.8ZM458.6,158.2h-1c0-.9.1-1.8.3-2.6.2-.8.6-1.5,1-2.1.4-.6,1-1,1.7-1.4s1.4-.5,2.3-.5,1.2,0,1.7.3.9.5,1.3.8.7.9.9,1.5.3,1.3.3,2.2v9h-3.3v-8.7c0-.6,0-1.1-.3-1.5-.2-.4-.4-.6-.8-.8-.3-.1-.7-.2-1.2-.2s-1,.1-1.3.3c-.4.2-.7.5-.9.8-.2.4-.4.8-.5,1.2-.1.5-.2,1-.2,1.5ZM466.8,157.6l-1.4.2c0-.8.1-1.6.3-2.4s.6-1.4,1-2,1-1,1.6-1.3c.7-.3,1.4-.5,2.3-.5s1.3,0,1.8.3c.5.2,1,.5,1.4.9.4.4.7.9.9,1.6.2.6.3,1.4.3,2.3v8.7h-3.3v-8.7c0-.7,0-1.2-.3-1.5-.2-.3-.4-.6-.8-.7-.3-.1-.7-.2-1.2-.2s-.9,0-1.2.3c-.3.2-.6.4-.8.7-.2.3-.4.6-.5,1-.1.4-.2.8-.2,1.3Z"/>
          <path d="M486.5,159.5h1c0,.9,0,1.7-.3,2.5-.2.8-.5,1.4-.9,2-.4.6-.9,1-1.6,1.3-.6.3-1.4.5-2.3.5s-1.3,0-1.8-.3c-.5-.2-1-.5-1.4-.9-.4-.4-.7-.9-.9-1.6-.2-.6-.3-1.4-.3-2.3v-8.7h3.3v8.7c0,.4,0,.8.2,1.1.1.3.2.5.4.7s.4.3.7.4c.3,0,.5.1.8.1.8,0,1.4-.2,1.9-.5.5-.3.8-.8,1-1.3s.3-1.2.3-1.8ZM486,162.2v-10.3h3.3v13.5h-3.1l-.2-3.2Z"/>
          <path d="M495.5,154.9v10.6h-3.3v-13.5h3.1l.2,2.9ZM494.9,158.2h-1c0-1,.1-1.9.4-2.7.3-.8.6-1.5,1.1-2.1.5-.6,1-1,1.7-1.3.6-.3,1.4-.5,2.2-.5s1.2,0,1.8.3c.5.2,1,.5,1.4.9.4.4.7.9.9,1.6.2.6.3,1.4.3,2.4v8.6h-3.3v-8.7c0-.6,0-1.1-.3-1.5s-.4-.6-.8-.8c-.3-.1-.7-.2-1.2-.2s-.9.1-1.3.3c-.4.2-.7.5-.9.8-.3.4-.4.8-.6,1.2-.1.5-.2,1-.2,1.5Z"/>
          <path d="M506.5,148.5c0-.5.2-.9.5-1.2.3-.3.8-.5,1.4-.5s1,.2,1.4.5c.3.3.5.7.5,1.2s-.2.9-.5,1.2c-.3.3-.8.5-1.4.5s-1-.2-1.4-.5c-.3-.3-.5-.7-.5-1.2ZM510,152v13.5h-3.3v-13.5h3.3Z"/>
          <path d="M518.6,163.1c.5,0,.9,0,1.2-.3s.7-.4.9-.8c.2-.3.3-.7.4-1.2h3.1c0,.9-.3,1.7-.8,2.5s-1.2,1.3-2,1.7c-.8.4-1.8.6-2.8.6s-1.9-.2-2.7-.5c-.8-.3-1.4-.8-1.9-1.5-.5-.6-.9-1.3-1.1-2.2-.3-.8-.4-1.7-.4-2.6v-.4c0-.9.1-1.8.4-2.6s.6-1.5,1.1-2.2,1.2-1.1,1.9-1.5c.8-.3,1.7-.5,2.7-.5s2,.2,2.9.6c.8.4,1.5,1,1.9,1.8.5.8.7,1.7.7,2.7h-3.1c0-.5-.1-.9-.3-1.3-.2-.4-.5-.7-.8-.9-.4-.2-.8-.3-1.3-.3s-1,.1-1.4.3c-.4.2-.7.6-.9,1-.2.4-.3.9-.4,1.3,0,.5-.1,1-.1,1.6v.4c0,.5,0,1.1.1,1.6,0,.5.2.9.4,1.3.2.4.5.7.9.9.4.2.8.3,1.4.3Z"/>
          <path d="M534.3,157.2v2s-2.1,0-2.1,0c-.5,0-1,0-1.4.2-.4.1-.7.3-1,.4-.2.2-.4.4-.6.7-.1.3-.2.6-.2.9s0,.6.2.9c.2.3.4.5.7.6.3.2.6.2,1,.2.6,0,1.1-.1,1.5-.4.4-.2.8-.5,1-.9s.4-.7.4-1l.9,1.4c-.1.3-.3.7-.5,1.1s-.5.7-.9,1.1c-.4.3-.8.6-1.3.8-.5.2-1.1.3-1.8.3s-1.7-.2-2.3-.5c-.7-.3-1.2-.8-1.6-1.4s-.6-1.3-.6-2.1.1-1.3.4-1.9c.3-.5.7-1,1.2-1.4.5-.4,1.2-.7,1.9-.9.8-.2,1.7-.3,2.7-.3h2.2ZM533.8,162.6v-6.2c0-.5,0-.9-.2-1.2s-.4-.6-.7-.8-.7-.3-1.2-.3-.8,0-1.2.2-.6.4-.8.6-.3.6-.3.9h-3.3c0-.6.1-1.1.4-1.6.3-.5.6-1,1.1-1.3.5-.4,1.1-.7,1.8-.9.7-.2,1.5-.3,2.3-.3s1.9.2,2.7.5c.8.3,1.4.9,1.9,1.6.5.7.7,1.6.7,2.6v5.9c0,.7,0,1.2.1,1.7,0,.5.2.9.4,1.2v.2h-3.4c-.2-.3-.3-.8-.4-1.3s-.1-1-.1-1.6Z"/>
          <path d="M546.5,152v2.4h-7.7v-2.4h7.7ZM540.8,148.7h3.3v12.9c0,.4,0,.7.2.9s.3.4.5.4.5.1.8.1.4,0,.6,0c.2,0,.3,0,.5,0v2.5c-.3,0-.6.2-.9.2-.3,0-.7,0-1.2,0-.7,0-1.4-.1-1.9-.4-.6-.3-1-.7-1.3-1.2-.3-.6-.5-1.3-.5-2.3v-13.2Z"/>
          <path d="M548.7,148.5c0-.5.2-.9.5-1.2.3-.3.8-.5,1.4-.5s1,.2,1.4.5c.3.3.5.7.5,1.2s-.2.9-.5,1.2c-.3.3-.8.5-1.4.5s-1-.2-1.4-.5c-.3-.3-.5-.7-.5-1.2ZM552.2,152v13.5h-3.3v-13.5h3.3Z"/>
          <path d="M554.7,158.8v-.3c0-1,.1-1.9.4-2.7.3-.8.7-1.6,1.2-2.2.5-.6,1.2-1.1,2-1.4.8-.3,1.7-.5,2.7-.5s1.9.2,2.7.5c.8.3,1.4.8,2,1.4.5.6,1,1.3,1.2,2.2.3.8.4,1.7.4,2.7v.3c0,1-.1,1.9-.4,2.7-.3.8-.7,1.6-1.2,2.2-.5.6-1.2,1.1-2,1.4s-1.7.5-2.7.5-1.9-.2-2.7-.5c-.8-.3-1.5-.8-2-1.4-.5-.6-1-1.3-1.2-2.2-.3-.8-.4-1.7-.4-2.7ZM558,158.6v.3c0,.6,0,1.1.2,1.7.1.5.3,1,.5,1.4.2.4.6.7.9.9.4.2.8.3,1.4.3s1-.1,1.4-.3c.4-.2.7-.5.9-.9.2-.4.4-.8.5-1.4.1-.5.2-1.1.2-1.7v-.3c0-.6,0-1.1-.2-1.6-.1-.5-.3-1-.5-1.4-.2-.4-.6-.7-.9-.9-.4-.2-.8-.3-1.4-.3s-1,.1-1.4.3c-.4.2-.7.5-.9.9-.2.4-.4.8-.5,1.4-.1.5-.2,1.1-.2,1.6Z"/>
          <path d="M573,154.9v10.6h-3.3v-13.5h3.1l.2,2.9ZM572.5,158.2h-1c0-1,.1-1.9.4-2.7.3-.8.6-1.5,1.1-2.1.5-.6,1-1,1.7-1.3.6-.3,1.4-.5,2.2-.5s1.2,0,1.8.3c.5.2,1,.5,1.4.9.4.4.7.9.9,1.6.2.6.3,1.4.3,2.4v8.6h-3.3v-8.7c0-.6,0-1.1-.3-1.5s-.4-.6-.8-.8c-.3-.1-.7-.2-1.2-.2s-.9.1-1.3.3c-.4.2-.7.5-.9.8-.3.4-.4.8-.6,1.2-.1.5-.2,1-.2,1.5Z"/>
          <path d="M596.7,152v2.4h-7.7v-2.4h7.7ZM591.1,148.7h3.3v12.9c0,.4,0,.7.2.9.1.2.3.4.5.4s.5.1.8.1.4,0,.6,0,.3,0,.5,0v2.5c-.3,0-.6.2-.9.2-.3,0-.7,0-1.2,0-.7,0-1.4-.1-1.9-.4-.6-.3-1-.7-1.3-1.2-.3-.6-.5-1.3-.5-2.3v-13.2Z"/>
          <path d="M602.1,146.3v19.1h-3.3v-19.1h3.3ZM601.6,158.2h-1c0-.9.1-1.8.4-2.6.2-.8.6-1.5,1.1-2.1.5-.6,1-1,1.6-1.4.6-.3,1.3-.5,2.1-.5s1.3,0,1.8.3c.5.2,1,.5,1.4.9.4.4.7.9.9,1.6.2.7.3,1.4.3,2.4v8.6h-3.3v-8.6c0-.6,0-1.1-.3-1.5-.2-.4-.4-.6-.8-.8-.3-.2-.8-.2-1.2-.2s-1,.1-1.4.3-.7.5-.9.8c-.2.4-.4.8-.5,1.2-.1.5-.2,1-.2,1.5Z"/>
          <path d="M616.4,154.7v10.7h-3.3v-13.5h3.1l.2,2.8ZM620.5,151.9v3.1c-.2,0-.4,0-.7,0s-.4,0-.6,0c-.5,0-1,0-1.3.2-.4.1-.7.3-1,.6-.3.3-.4.6-.6.9-.1.4-.2.8-.2,1.3h-.7c0-.9,0-1.7.3-2.5.2-.7.4-1.4.8-1.9s.7-1,1.3-1.3c.5-.3,1.1-.5,1.7-.5s.4,0,.6,0c.2,0,.4,0,.5.1Z"/>
          <path d="M621.4,158.8v-.3c0-1,.1-1.9.4-2.7s.7-1.6,1.2-2.2c.5-.6,1.2-1.1,2-1.4.8-.3,1.7-.5,2.7-.5s1.9.2,2.7.5c.8.3,1.4.8,2,1.4.5.6,1,1.3,1.2,2.2s.4,1.7.4,2.7v.3c0,1-.1,1.9-.4,2.7s-.7,1.6-1.2,2.2c-.5.6-1.2,1.1-2,1.4-.8.3-1.7.5-2.7.5s-1.9-.2-2.7-.5c-.8-.3-1.5-.8-2-1.4-.5-.6-1-1.3-1.2-2.2s-.4-1.7-.4-2.7ZM624.7,158.6v.3c0,.6,0,1.1.2,1.7.1.5.3,1,.5,1.4.2.4.6.7.9.9.4.2.8.3,1.4.3s1-.1,1.4-.3c.4-.2.7-.5.9-.9.2-.4.4-.8.5-1.4.1-.5.2-1.1.2-1.7v-.3c0-.6,0-1.1-.2-1.6-.1-.5-.3-1-.5-1.4-.2-.4-.6-.7-.9-.9-.4-.2-.8-.3-1.4-.3s-1,.1-1.4.3c-.4.2-.7.5-.9.9-.2.4-.4.8-.5,1.4-.1.5-.2,1.1-.2,1.6Z"/>
          <path d="M644.8,159.5h1c0,.9,0,1.7-.3,2.5-.2.8-.5,1.4-.9,2-.4.6-.9,1-1.6,1.3-.6.3-1.4.5-2.3.5s-1.3,0-1.8-.3c-.5-.2-1-.5-1.4-.9-.4-.4-.7-.9-.9-1.6s-.3-1.4-.3-2.3v-8.7h3.3v8.7c0,.4,0,.8.2,1.1.1.3.2.5.4.7.2.2.4.3.7.4.3,0,.5.1.8.1.8,0,1.4-.2,1.9-.5.5-.3.8-.8,1-1.3s.3-1.2.3-1.8ZM644.4,162.2v-10.3h3.3v13.5h-3.1l-.2-3.2Z"/>
          <path d="M650.1,158.9v-.3c0-1,.1-2,.4-2.8s.6-1.6,1.1-2.2,1-1.1,1.7-1.4,1.4-.5,2.3-.5,1.6.2,2.2.5,1.1.8,1.5,1.4c.4.6.7,1.3.9,2.1.2.8.4,1.7.5,2.7v.7c-.1,1-.3,1.8-.6,2.6-.3.8-.6,1.5-1,2.1-.4.6-.9,1.1-1.5,1.4-.6.3-1.3.5-2.2.5s-1.6-.2-2.2-.5c-.7-.3-1.2-.8-1.7-1.4-.5-.6-.8-1.3-1.1-2.2-.2-.8-.4-1.7-.4-2.7ZM659.2,152h3v13.1c0,1.2-.3,2.3-.8,3.1-.5.9-1.3,1.5-2.2,1.9-.9.4-2,.7-3.3.7s-1.1,0-1.7-.2c-.6-.1-1.2-.4-1.8-.7-.6-.3-1.1-.7-1.4-1.2l1.5-1.9c.4.5,1,.9,1.5,1.2.6.3,1.2.4,1.8.4s1.2-.1,1.7-.4c.5-.2.8-.6,1.1-1.1.3-.5.4-1,.4-1.7v-10l.3-3.1ZM653.4,158.6v.3c0,.6,0,1.1.2,1.6.1.5.3,1,.5,1.3.2.4.5.7.9.9.4.2.8.3,1.3.3s1.2-.1,1.7-.4c.4-.3.8-.7,1-1.2.2-.5.4-1.1.4-1.7v-2c0-.5-.1-1-.3-1.4s-.3-.8-.6-1.1c-.2-.3-.5-.5-.9-.7s-.8-.3-1.3-.3-.9.1-1.3.3c-.4.2-.7.5-.9.9-.2.4-.4.8-.5,1.4-.1.5-.2,1.1-.2,1.7Z"/>
          <path d="M668.4,146.3v19.1h-3.3v-19.1h3.3ZM667.8,158.2h-1c0-.9.1-1.8.4-2.6.2-.8.6-1.5,1.1-2.1.5-.6,1-1,1.6-1.4.6-.3,1.3-.5,2.1-.5s1.3,0,1.8.3c.5.2,1,.5,1.4.9.4.4.7.9.9,1.6.2.7.3,1.4.3,2.4v8.6h-3.3v-8.6c0-.6,0-1.1-.3-1.5-.2-.4-.4-.6-.8-.8-.3-.2-.8-.2-1.2-.2s-1,.1-1.4.3-.7.5-.9.8c-.2.4-.4.8-.5,1.2-.1.5-.2,1-.2,1.5Z"/>
          <path d="M678.8,158.8v-.3c0-1,.1-1.9.4-2.7s.7-1.6,1.2-2.2c.5-.6,1.2-1.1,2-1.4.8-.3,1.7-.5,2.7-.5s1.9.2,2.7.5c.8.3,1.4.8,2,1.4.5.6,1,1.3,1.2,2.2s.4,1.7.4,2.7v.3c0,1-.1,1.9-.4,2.7s-.7,1.6-1.2,2.2c-.5.6-1.2,1.1-2,1.4-.8.3-1.7.5-2.7.5s-1.9-.2-2.7-.5c-.8-.3-1.5-.8-2-1.4-.5-.6-1-1.3-1.2-2.2s-.4-1.7-.4-2.7ZM682.1,158.6v.3c0,.6,0,1.1.2,1.7.1.5.3,1,.5,1.4.2.4.6.7.9.9.4.2.8.3,1.4.3s1-.1,1.4-.3c.4-.2.7-.5.9-.9.2-.4.4-.8.5-1.4.1-.5.2-1.1.2-1.7v-.3c0-.6,0-1.1-.2-1.6-.1-.5-.3-1-.5-1.4-.2-.4-.6-.7-.9-.9-.4-.2-.8-.3-1.4-.3s-1,.1-1.4.3c-.4.2-.7.5-.9.9-.2.4-.4.8-.5,1.4-.1.5-.2,1.1-.2,1.6Z"/>
          <path d="M702.3,159.5h1c0,.9,0,1.7-.3,2.5-.2.8-.5,1.4-.9,2-.4.6-.9,1-1.6,1.3-.6.3-1.4.5-2.3.5s-1.3,0-1.8-.3c-.5-.2-1-.5-1.4-.9-.4-.4-.7-.9-.9-1.6s-.3-1.4-.3-2.3v-8.7h3.3v8.7c0,.4,0,.8.2,1.1.1.3.2.5.4.7.2.2.4.3.7.4.3,0,.5.1.8.1.8,0,1.4-.2,1.9-.5.5-.3.8-.8,1-1.3s.3-1.2.3-1.8ZM701.8,162.2v-10.3h3.3v13.5h-3.1l-.2-3.2Z"/>
          <path d="M714.4,152v2.4h-7.7v-2.4h7.7ZM708.8,148.7h3.3v12.9c0,.4,0,.7.2.9.1.2.3.4.5.4s.5.1.8.1.4,0,.6,0,.3,0,.5,0v2.5c-.3,0-.6.2-.9.2-.3,0-.7,0-1.2,0-.7,0-1.4-.1-1.9-.4-.6-.3-1-.7-1.3-1.2-.3-.6-.5-1.3-.5-2.3v-13.2Z"/>
          <path d="M729.3,152v2.4h-7.7v-2.4h7.7ZM723.7,148.7h3.3v12.9c0,.4,0,.7.2.9.1.2.3.4.5.4s.5.1.8.1.4,0,.6,0,.3,0,.5,0v2.5c-.3,0-.6.2-.9.2-.3,0-.7,0-1.2,0-.7,0-1.4-.1-1.9-.4-.6-.3-1-.7-1.3-1.2-.3-.6-.5-1.3-.5-2.3v-13.2Z"/>
          <path d="M734.8,146.3v19.1h-3.3v-19.1h3.3ZM734.2,158.2h-1c0-.9.1-1.8.4-2.6.2-.8.6-1.5,1.1-2.1.5-.6,1-1,1.6-1.4.6-.3,1.3-.5,2.1-.5s1.3,0,1.8.3c.5.2,1,.5,1.4.9.4.4.7.9.9,1.6.2.7.3,1.4.3,2.4v8.6h-3.3v-8.6c0-.6,0-1.1-.3-1.5-.2-.4-.4-.6-.8-.8-.3-.2-.8-.2-1.2-.2s-1,.1-1.4.3-.7.5-.9.8c-.2.4-.4.8-.5,1.2-.1.5-.2,1-.2,1.5Z"/>
          <path d="M751.8,165.7c-1,0-1.9-.2-2.8-.5s-1.5-.8-2.1-1.4c-.6-.6-1-1.3-1.3-2.1-.3-.8-.5-1.6-.5-2.6v-.5c0-1,.1-2,.4-2.8s.7-1.6,1.3-2.2c.5-.6,1.2-1.1,2-1.4s1.6-.5,2.5-.5,1.8.2,2.5.5c.7.3,1.3.8,1.8,1.4.5.6.9,1.3,1.1,2.1.2.8.4,1.7.4,2.7v1.4h-10.6v-2.3h7.3v-.2c0-.5-.1-1-.3-1.4-.2-.4-.5-.8-.8-1-.4-.3-.9-.4-1.5-.4s-.9.1-1.3.3c-.4.2-.7.5-.9.9-.2.4-.4.8-.5,1.4s-.2,1.1-.2,1.8v.5c0,.6,0,1.1.2,1.6.2.5.4.9.7,1.3.3.4.7.6,1.1.8.4.2.9.3,1.5.3s1.3-.1,1.9-.4c.6-.3,1-.7,1.5-1.2l1.7,1.7c-.3.4-.7.8-1.1,1.2-.5.4-1.1.7-1.7.9-.7.2-1.4.4-2.3.4Z"/>
          <path d="M767.9,152l2.2,10.3.2,3.2h-2.1l-3.5-13.5h3.2ZM769.6,162.2l3-10.2h2.1l-.6,3.5-3,9.9h-1.8l.4-3.2ZM774.9,152l2.9,10.1.4,3.3h-1.8l-3-9.9-.6-3.5h2.1ZM777.4,162.1l2.2-10.1h3.2l-3.5,13.5h-2.1l.2-3.4Z"/>
          <path d="M787.9,146.3v19.1h-3.3v-19.1h3.3ZM787.4,158.2h-1c0-.9.1-1.8.4-2.6.2-.8.6-1.5,1.1-2.1.5-.6,1-1,1.6-1.4.6-.3,1.3-.5,2.1-.5s1.3,0,1.8.3c.5.2,1,.5,1.4.9.4.4.7.9.9,1.6.2.7.3,1.4.3,2.4v8.6h-3.3v-8.6c0-.6,0-1.1-.3-1.5-.2-.4-.4-.6-.8-.8-.3-.2-.8-.2-1.2-.2s-1,.1-1.4.3-.7.5-.9.8c-.2.4-.4.8-.5,1.2-.1.5-.2,1-.2,1.5Z"/>
          <path d="M798.3,158.8v-.3c0-1,.1-1.9.4-2.7s.7-1.6,1.2-2.2c.5-.6,1.2-1.1,2-1.4.8-.3,1.7-.5,2.7-.5s1.9.2,2.7.5c.8.3,1.4.8,2,1.4.5.6,1,1.3,1.2,2.2s.4,1.7.4,2.7v.3c0,1-.1,1.9-.4,2.7s-.7,1.6-1.2,2.2c-.5.6-1.2,1.1-2,1.4-.8.3-1.7.5-2.7.5s-1.9-.2-2.7-.5c-.8-.3-1.5-.8-2-1.4-.5-.6-1-1.3-1.2-2.2s-.4-1.7-.4-2.7ZM801.6,158.6v.3c0,.6,0,1.1.2,1.7.1.5.3,1,.5,1.4.2.4.6.7.9.9.4.2.8.3,1.4.3s1-.1,1.4-.3c.4-.2.7-.5.9-.9.2-.4.4-.8.5-1.4.1-.5.2-1.1.2-1.7v-.3c0-.6,0-1.1-.2-1.6-.1-.5-.3-1-.5-1.4-.2-.4-.6-.7-.9-.9-.4-.2-.8-.3-1.4-.3s-1,.1-1.4.3c-.4.2-.7.5-.9.9-.2.4-.4.8-.5,1.4-.1.5-.2,1.1-.2,1.6Z"/>
          <path d="M816.8,146.3v19.1h-3.3v-19.1h3.3Z"/>
          <path d="M826,165.7c-1,0-1.9-.2-2.8-.5s-1.5-.8-2.1-1.4c-.6-.6-1-1.3-1.3-2.1-.3-.8-.5-1.6-.5-2.6v-.5c0-1,.1-2,.4-2.8s.7-1.6,1.3-2.2c.5-.6,1.2-1.1,2-1.4s1.6-.5,2.5-.5,1.8.2,2.5.5c.7.3,1.3.8,1.8,1.4.5.6.9,1.3,1.1,2.1.2.8.4,1.7.4,2.7v1.4h-10.6v-2.3h7.3v-.2c0-.5-.1-1-.3-1.4-.2-.4-.5-.8-.8-1-.4-.3-.9-.4-1.5-.4s-.9.1-1.3.3c-.4.2-.7.5-.9.9-.2.4-.4.8-.5,1.4s-.2,1.1-.2,1.8v.5c0,.6,0,1.1.2,1.6.2.5.4.9.7,1.3.3.4.7.6,1.1.8.4.2.9.3,1.5.3s1.3-.1,1.9-.4c.6-.3,1-.7,1.5-1.2l1.7,1.7c-.3.4-.7.8-1.1,1.2-.5.4-1.1.7-1.7.9-.7.2-1.4.4-2.3.4Z"/>
          <path d="M843.3,154.6v16.1h-3.3v-18.7h3.1l.2,2.6ZM852,158.6v.3c0,1-.1,1.9-.3,2.7-.2.8-.6,1.6-1,2.2-.4.6-1,1.1-1.6,1.4-.7.3-1.4.5-2.2.5s-1.6-.2-2.2-.5c-.6-.3-1.1-.8-1.6-1.4-.4-.6-.8-1.3-1-2.1-.3-.8-.4-1.6-.6-2.6v-.8c.1-1,.3-1.9.6-2.7.3-.8.6-1.5,1-2.1.4-.6.9-1.1,1.6-1.4s1.3-.5,2.1-.5,1.6.2,2.3.5c.7.3,1.2.8,1.6,1.4s.8,1.3,1,2.2c.2.8.3,1.8.3,2.8ZM848.7,158.8v-.3c0-.6,0-1.2-.2-1.7-.1-.5-.3-1-.5-1.3-.2-.4-.5-.7-.9-.9-.4-.2-.8-.3-1.3-.3s-.9,0-1.3.2-.7.4-.9.7-.4.7-.5,1.1c-.1.4-.2.9-.3,1.4v2.1c0,.6.2,1.2.4,1.7s.5.9,1,1.2c.4.3,1,.4,1.6.4s.9-.1,1.3-.3c.4-.2.6-.5.9-.9.2-.4.4-.8.5-1.4,0-.5.1-1.1.1-1.6Z"/>
          <path d="M857.6,154.7v10.7h-3.3v-13.5h3.1l.2,2.8ZM861.7,151.9v3.1c-.2,0-.4,0-.7,0s-.4,0-.6,0c-.5,0-1,0-1.3.2-.4.1-.7.3-1,.6-.3.3-.4.6-.6.9-.1.4-.2.8-.2,1.3h-.7c0-.9,0-1.7.3-2.5.2-.7.4-1.4.8-1.9s.7-1,1.3-1.3c.5-.3,1.1-.5,1.7-.5s.4,0,.6,0c.2,0,.4,0,.5.1Z"/>
          <path d="M862.6,158.8v-.3c0-1,.1-1.9.4-2.7s.7-1.6,1.2-2.2c.5-.6,1.2-1.1,2-1.4.8-.3,1.7-.5,2.7-.5s1.9.2,2.7.5c.8.3,1.4.8,2,1.4.5.6,1,1.3,1.2,2.2s.4,1.7.4,2.7v.3c0,1-.1,1.9-.4,2.7s-.7,1.6-1.2,2.2c-.5.6-1.2,1.1-2,1.4-.8.3-1.7.5-2.7.5s-1.9-.2-2.7-.5c-.8-.3-1.5-.8-2-1.4-.5-.6-1-1.3-1.2-2.2s-.4-1.7-.4-2.7ZM865.9,158.6v.3c0,.6,0,1.1.2,1.7.1.5.3,1,.5,1.4.2.4.6.7.9.9.4.2.8.3,1.4.3s1-.1,1.4-.3c.4-.2.7-.5.9-.9.2-.4.4-.8.5-1.4.1-.5.2-1.1.2-1.7v-.3c0-.6,0-1.1-.2-1.6-.1-.5-.3-1-.5-1.4-.2-.4-.6-.7-.9-.9-.4-.2-.8-.3-1.4-.3s-1,.1-1.4.3c-.4.2-.7.5-.9.9-.2.4-.4.8-.5,1.4-.1.5-.2,1.1-.2,1.6Z"/>
          <path d="M883.2,163.1c.5,0,.9,0,1.2-.3s.7-.4.9-.8c.2-.3.3-.7.4-1.2h3.1c0,.9-.3,1.7-.8,2.5-.5.7-1.2,1.3-2,1.7-.8.4-1.7.6-2.8.6s-1.9-.2-2.7-.5c-.8-.3-1.4-.8-1.9-1.5-.5-.6-.9-1.3-1.1-2.2-.3-.8-.4-1.7-.4-2.6v-.4c0-.9.1-1.8.4-2.6s.6-1.5,1.1-2.2c.5-.6,1.2-1.1,1.9-1.5.8-.3,1.7-.5,2.7-.5s2,.2,2.9.6c.8.4,1.5,1,1.9,1.8.5.8.7,1.7.7,2.7h-3.1c0-.5-.1-.9-.3-1.3-.2-.4-.5-.7-.8-.9s-.8-.3-1.3-.3-1,.1-1.4.3c-.4.2-.7.6-.9,1-.2.4-.3.9-.4,1.3s-.1,1-.1,1.6v.4c0,.5,0,1.1.1,1.6s.2.9.4,1.3c.2.4.5.7.9.9.4.2.8.3,1.4.3Z"/>
          <path d="M897,165.7c-1,0-1.9-.2-2.8-.5s-1.5-.8-2.1-1.4c-.6-.6-1-1.3-1.3-2.1-.3-.8-.5-1.6-.5-2.6v-.5c0-1,.1-2,.4-2.8s.7-1.6,1.3-2.2c.5-.6,1.2-1.1,2-1.4s1.6-.5,2.5-.5,1.8.2,2.5.5c.7.3,1.3.8,1.8,1.4.5.6.9,1.3,1.1,2.1.2.8.4,1.7.4,2.7v1.4h-10.6v-2.3h7.3v-.2c0-.5-.1-1-.3-1.4-.2-.4-.5-.8-.8-1-.4-.3-.9-.4-1.5-.4s-.9.1-1.3.3c-.4.2-.7.5-.9.9-.2.4-.4.8-.5,1.4s-.2,1.1-.2,1.8v.5c0,.6,0,1.1.2,1.6.2.5.4.9.7,1.3.3.4.7.6,1.1.8.4.2.9.3,1.5.3s1.3-.1,1.9-.4c.6-.3,1-.7,1.5-1.2l1.7,1.7c-.3.4-.7.8-1.1,1.2-.5.4-1.1.7-1.7.9-.7.2-1.4.4-2.3.4Z"/>
          <path d="M912.1,161.8c0-.3,0-.5-.2-.8-.1-.2-.4-.4-.8-.6-.4-.2-1-.4-1.8-.5-.7-.1-1.3-.3-1.9-.6-.6-.2-1.1-.5-1.5-.8-.4-.3-.8-.7-1-1.1-.2-.4-.4-.9-.4-1.5s.1-1.1.4-1.6c.2-.5.6-.9,1-1.3.5-.4,1-.7,1.7-.9.7-.2,1.4-.3,2.2-.3s2.1.2,3,.6,1.5.9,1.9,1.5c.4.7.7,1.4.7,2.2h-3.3c0-.4,0-.7-.2-1-.2-.3-.4-.5-.7-.7-.3-.2-.8-.3-1.3-.3s-.8,0-1.2.2-.5.3-.7.6c-.2.2-.2.5-.2.8s0,.4.1.6c0,.2.2.3.4.5s.5.3.8.4c.3.1.8.2,1.3.3,1,.2,1.9.5,2.6.8.8.3,1.3.8,1.8,1.3.4.5.6,1.2.6,2.1s-.1,1.1-.4,1.6c-.3.5-.6.9-1.1,1.3-.5.4-1.1.6-1.8.9-.7.2-1.4.3-2.3.3-1.2,0-2.3-.2-3.1-.7-.9-.4-1.5-1-1.9-1.7s-.7-1.4-.7-2.1h3.2c0,.5.2.9.4,1.3.3.3.6.5,1,.7.4.1.8.2,1.3.2s.9,0,1.3-.2c.3-.1.6-.3.8-.6.2-.2.3-.5.3-.8Z"/>
          <path d="M925.2,161.8c0-.3,0-.5-.2-.8-.1-.2-.4-.4-.8-.6-.4-.2-1-.4-1.8-.5-.7-.1-1.3-.3-1.9-.6-.6-.2-1.1-.5-1.5-.8-.4-.3-.8-.7-1-1.1-.2-.4-.4-.9-.4-1.5s.1-1.1.4-1.6c.2-.5.6-.9,1-1.3.5-.4,1-.7,1.7-.9.7-.2,1.4-.3,2.2-.3s2.1.2,3,.6,1.5.9,1.9,1.5c.4.7.7,1.4.7,2.2h-3.3c0-.4,0-.7-.2-1-.2-.3-.4-.5-.7-.7-.3-.2-.8-.3-1.3-.3s-.8,0-1.2.2-.5.3-.7.6c-.2.2-.2.5-.2.8s0,.4.1.6c0,.2.2.3.4.5s.5.3.8.4c.3.1.8.2,1.3.3,1,.2,1.9.5,2.6.8.8.3,1.3.8,1.8,1.3.4.5.6,1.2.6,2.1s-.1,1.1-.4,1.6c-.3.5-.6.9-1.1,1.3-.5.4-1.1.6-1.8.9-.7.2-1.4.3-2.3.3-1.2,0-2.3-.2-3.1-.7-.9-.4-1.5-1-1.9-1.7s-.7-1.4-.7-2.1h3.2c0,.5.2.9.4,1.3.3.3.6.5,1,.7.4.1.8.2,1.3.2s.9,0,1.3-.2c.3-.1.6-.3.8-.6.2-.2.3-.5.3-.8Z"/>
        </g>
      </g>
      <g class="st1">
        <g class="st1">
          <path d="M180.3,182.5l2.2,10.3.2,3.2h-2.1l-3.5-13.5h3.2ZM181.9,192.8l3-10.2h2.1l-.6,3.5-3,9.9h-1.8l.4-3.2ZM187.3,182.5l2.9,10.1.4,3.3h-1.8l-3-9.9-.6-3.5h2.1ZM189.7,192.7l2.2-10.1h3.2l-3.5,13.5h-2.1l.2-3.4Z"/>
          <path d="M204.9,187.8v2s-2.1,0-2.1,0c-.5,0-1,0-1.4.2-.4.1-.7.3-1,.4-.2.2-.4.4-.6.7-.1.3-.2.6-.2.9s0,.6.2.9c.2.3.4.5.7.6.3.2.6.2,1,.2.6,0,1.1-.1,1.5-.4.4-.2.8-.5,1-.9s.4-.7.4-1l.9,1.4c-.1.3-.3.7-.5,1.1s-.5.7-.9,1.1c-.4.3-.8.6-1.3.8-.5.2-1.1.3-1.8.3s-1.7-.2-2.3-.5c-.7-.3-1.2-.8-1.6-1.4s-.6-1.3-.6-2.1.1-1.3.4-1.9c.3-.5.7-1,1.2-1.4.5-.4,1.2-.7,1.9-.9.8-.2,1.7-.3,2.7-.3h2.2ZM204.5,193.2v-6.2c0-.5,0-.9-.2-1.2s-.4-.6-.7-.8-.7-.3-1.2-.3-.8,0-1.2.2-.6.4-.8.6-.3.6-.3.9h-3.3c0-.6.1-1.1.4-1.6.3-.5.6-1,1.1-1.3.5-.4,1.1-.7,1.8-.9.7-.2,1.5-.3,2.3-.3s1.9.2,2.7.5c.8.3,1.4.9,1.9,1.6.5.7.7,1.6.7,2.6v5.9c0,.7,0,1.2.1,1.7,0,.5.2.9.4,1.2v.2h-3.4c-.2-.3-.3-.8-.4-1.3s-.1-1-.1-1.6Z"/>
          <path d="M218.1,192.3c0-.3,0-.5-.2-.8-.1-.2-.4-.4-.8-.6-.4-.2-1-.4-1.8-.5-.7-.1-1.3-.3-1.9-.6-.6-.2-1.1-.5-1.5-.8-.4-.3-.8-.7-1-1.1-.2-.4-.4-.9-.4-1.5s.1-1.1.4-1.6c.2-.5.6-.9,1-1.3s1-.7,1.7-.9c.7-.2,1.4-.3,2.2-.3s2.1.2,3,.6c.8.4,1.5.9,1.9,1.5.4.7.7,1.4.7,2.2h-3.3c0-.4,0-.7-.2-1-.2-.3-.4-.5-.7-.7-.3-.2-.8-.3-1.3-.3s-.8,0-1.2.2c-.3.1-.5.3-.7.6s-.2.5-.2.8,0,.4.1.6c0,.2.2.3.4.5s.5.3.8.4c.3.1.8.2,1.3.3,1,.2,1.9.5,2.6.8s1.3.8,1.8,1.3c.4.5.6,1.2.6,2.1s-.1,1.1-.4,1.6c-.3.5-.6.9-1.1,1.3-.5.4-1.1.6-1.8.9-.7.2-1.4.3-2.3.3-1.2,0-2.3-.2-3.1-.7-.9-.4-1.5-1-1.9-1.7s-.7-1.4-.7-2.1h3.2c0,.5.2.9.4,1.3.3.3.6.5,1,.7.4.1.8.2,1.3.2s.9,0,1.3-.2c.3-.1.6-.3.8-.6.2-.2.3-.5.3-.8Z"/>
          <path d="M238.1,187.8v2s-2.1,0-2.1,0c-.5,0-1,0-1.4.2-.4.1-.7.3-1,.4-.2.2-.4.4-.6.7-.1.3-.2.6-.2.9s0,.6.2.9c.2.3.4.5.7.6.3.2.6.2,1,.2.6,0,1.1-.1,1.5-.4.4-.2.8-.5,1-.9s.4-.7.4-1l.9,1.4c-.1.3-.3.7-.5,1.1s-.5.7-.9,1.1c-.4.3-.8.6-1.3.8-.5.2-1.1.3-1.8.3s-1.7-.2-2.3-.5c-.7-.3-1.2-.8-1.6-1.4s-.6-1.3-.6-2.1.1-1.3.4-1.9c.3-.5.7-1,1.2-1.4.5-.4,1.2-.7,1.9-.9.8-.2,1.7-.3,2.7-.3h2.2ZM237.6,193.2v-6.2c0-.5,0-.9-.2-1.2s-.4-.6-.7-.8-.7-.3-1.2-.3-.8,0-1.2.2-.6.4-.8.6-.3.6-.3.9h-3.3c0-.6.1-1.1.4-1.6.3-.5.6-1,1.1-1.3.5-.4,1.1-.7,1.8-.9.7-.2,1.5-.3,2.3-.3s1.9.2,2.7.5c.8.3,1.4.9,1.9,1.6.5.7.7,1.6.7,2.6v5.9c0,.7,0,1.2.1,1.7,0,.5.2.9.4,1.2v.2h-3.4c-.2-.3-.3-.8-.4-1.3s-.1-1-.1-1.6Z"/>
          <path d="M246,182.5l2.2,10.3.2,3.2h-2.1l-3.5-13.5h3.2ZM247.6,192.8l3-10.2h2.1l-.6,3.5-3,9.9h-1.8l.4-3.2ZM253,182.5l2.9,10.1.4,3.3h-1.8l-3-9.9-.6-3.5h2.1ZM255.4,192.7l2.2-10.1h3.2l-3.5,13.5h-2.1l.2-3.4Z"/>
          <path d="M268.8,196.3c-1,0-1.9-.2-2.8-.5s-1.5-.8-2.1-1.4c-.6-.6-1-1.3-1.3-2.1s-.5-1.6-.5-2.6v-.5c0-1,.1-2,.4-2.8s.7-1.6,1.3-2.2c.5-.6,1.2-1.1,2-1.4s1.6-.5,2.5-.5,1.8.2,2.5.5c.7.3,1.3.8,1.8,1.4.5.6.9,1.3,1.1,2.1s.4,1.7.4,2.7v1.4h-10.6v-2.3h7.3v-.2c0-.5-.1-1-.3-1.4-.2-.4-.5-.8-.8-1-.4-.3-.9-.4-1.5-.4s-.9.1-1.3.3c-.4.2-.7.5-.9.9-.2.4-.4.8-.5,1.4s-.2,1.1-.2,1.8v.5c0,.6,0,1.1.2,1.6.2.5.4.9.7,1.3.3.4.7.6,1.1.8.4.2.9.3,1.5.3s1.3-.1,1.9-.4c.6-.3,1-.7,1.5-1.2l1.7,1.7c-.3.4-.7.8-1.1,1.2s-1.1.7-1.7.9c-.7.2-1.4.4-2.3.4Z"/>
          <path d="M283.8,192.3c0-.3,0-.5-.2-.8-.1-.2-.4-.4-.8-.6-.4-.2-1-.4-1.8-.5-.7-.1-1.3-.3-1.9-.6-.6-.2-1.1-.5-1.5-.8-.4-.3-.8-.7-1-1.1-.2-.4-.4-.9-.4-1.5s.1-1.1.4-1.6c.2-.5.6-.9,1-1.3s1-.7,1.7-.9c.7-.2,1.4-.3,2.2-.3s2.1.2,3,.6c.8.4,1.5.9,1.9,1.5.4.7.7,1.4.7,2.2h-3.3c0-.4,0-.7-.2-1-.2-.3-.4-.5-.7-.7-.3-.2-.8-.3-1.3-.3s-.8,0-1.2.2c-.3.1-.5.3-.7.6s-.2.5-.2.8,0,.4.1.6c0,.2.2.3.4.5s.5.3.8.4c.3.1.8.2,1.3.3,1,.2,1.9.5,2.6.8s1.3.8,1.8,1.3c.4.5.6,1.2.6,2.1s-.1,1.1-.4,1.6c-.3.5-.6.9-1.1,1.3-.5.4-1.1.6-1.8.9-.7.2-1.4.3-2.3.3-1.2,0-2.3-.2-3.1-.7-.9-.4-1.5-1-1.9-1.7s-.7-1.4-.7-2.1h3.2c0,.5.2.9.4,1.3.3.3.6.5,1,.7.4.1.8.2,1.3.2s.9,0,1.3-.2c.3-.1.6-.3.8-.6.2-.2.3-.5.3-.8Z"/>
          <path d="M289,189.4v-.3c0-1,.1-1.9.4-2.7.3-.8.7-1.6,1.2-2.2.5-.6,1.2-1.1,2-1.4.8-.3,1.7-.5,2.7-.5s1.9.2,2.7.5c.8.3,1.4.8,2,1.4.5.6,1,1.3,1.2,2.2.3.8.4,1.7.4,2.7v.3c0,1-.1,1.9-.4,2.7-.3.8-.7,1.6-1.2,2.2-.5.6-1.2,1.1-2,1.4s-1.7.5-2.7.5-1.9-.2-2.7-.5c-.8-.3-1.5-.8-2-1.4-.5-.6-1-1.3-1.2-2.2-.3-.8-.4-1.7-.4-2.7ZM292.3,189.2v.3c0,.6,0,1.1.2,1.7.1.5.3,1,.5,1.4.2.4.6.7.9.9.4.2.8.3,1.4.3s1-.1,1.4-.3c.4-.2.7-.5.9-.9.2-.4.4-.8.5-1.4.1-.5.2-1.1.2-1.7v-.3c0-.6,0-1.1-.2-1.6-.1-.5-.3-1-.5-1.4-.2-.4-.6-.7-.9-.9-.4-.2-.8-.3-1.4-.3s-1,.1-1.4.3c-.4.2-.7.5-.9.9-.2.4-.4.8-.5,1.4-.1.5-.2,1.1-.2,1.6Z"/>
          <path d="M307.3,185.3v10.7h-3.3v-13.5h3.1l.2,2.8ZM306.8,188.8h-1c0-.9.1-1.8.3-2.6.2-.8.6-1.5,1-2.1.4-.6,1-1,1.7-1.4s1.4-.5,2.3-.5,1.2,0,1.7.3.9.5,1.3.8.7.9.9,1.5.3,1.3.3,2.2v9h-3.3v-8.7c0-.6,0-1.1-.3-1.5-.2-.4-.4-.6-.8-.8-.3-.1-.7-.2-1.2-.2s-1,.1-1.3.3c-.4.2-.7.5-.9.8-.2.4-.4.8-.5,1.2-.1.5-.2,1-.2,1.5ZM315,188.2l-1.4.2c0-.8.1-1.6.3-2.4s.6-1.4,1-2,1-1,1.6-1.3c.7-.3,1.4-.5,2.3-.5s1.3,0,1.8.3c.5.2,1,.5,1.4.9.4.4.7.9.9,1.6.2.6.3,1.4.3,2.3v8.7h-3.3v-8.7c0-.7,0-1.2-.3-1.5-.2-.3-.4-.6-.8-.7-.3-.1-.7-.2-1.2-.2s-.9,0-1.2.3c-.3.2-.6.4-.8.7-.2.3-.4.6-.5,1-.1.4-.2.8-.2,1.3Z"/>
          <path d="M332.2,196.3c-1,0-1.9-.2-2.8-.5s-1.5-.8-2.1-1.4c-.6-.6-1-1.3-1.3-2.1s-.5-1.6-.5-2.6v-.5c0-1,.1-2,.4-2.8s.7-1.6,1.3-2.2c.5-.6,1.2-1.1,2-1.4s1.6-.5,2.5-.5,1.8.2,2.5.5c.7.3,1.3.8,1.8,1.4.5.6.9,1.3,1.1,2.1s.4,1.7.4,2.7v1.4h-10.6v-2.3h7.3v-.2c0-.5-.1-1-.3-1.4-.2-.4-.5-.8-.8-1-.4-.3-.9-.4-1.5-.4s-.9.1-1.3.3c-.4.2-.7.5-.9.9-.2.4-.4.8-.5,1.4s-.2,1.1-.2,1.8v.5c0,.6,0,1.1.2,1.6.2.5.4.9.7,1.3.3.4.7.6,1.1.8.4.2.9.3,1.5.3s1.3-.1,1.9-.4c.6-.3,1-.7,1.5-1.2l1.7,1.7c-.3.4-.7.8-1.1,1.2s-1.1.7-1.7.9c-.7.2-1.4.4-2.3.4Z"/>
          <path d="M340,194.4c0-.5.2-.9.5-1.3.3-.3.8-.5,1.4-.5s1,.2,1.4.5c.3.3.5.8.5,1.3s-.2.9-.5,1.2c-.3.3-.8.5-1.4.5s-1-.2-1.4-.5c-.3-.3-.5-.7-.5-1.2Z"/>
          <path d="M366.5,177.9v2.7h-14.6v-2.7h14.6ZM360.9,177.9v18.1h-3.4v-18.1h3.4Z"/>
          <path d="M371.7,176.9v19.1h-3.3v-19.1h3.3ZM371.2,188.8h-1c0-.9.1-1.8.4-2.6.2-.8.6-1.5,1.1-2.1.5-.6,1-1,1.6-1.4.6-.3,1.3-.5,2.1-.5s1.3,0,1.8.3c.5.2,1,.5,1.4.9.4.4.7.9.9,1.6.2.7.3,1.4.3,2.4v8.6h-3.3v-8.6c0-.6,0-1.1-.3-1.5-.2-.4-.4-.6-.8-.8-.3-.2-.7-.2-1.2-.2s-1,.1-1.4.3c-.4.2-.7.5-.9.8-.2.4-.4.8-.5,1.2-.1.5-.2,1-.2,1.5Z"/>
          <path d="M388.8,196.3c-1,0-1.9-.2-2.8-.5s-1.5-.8-2.1-1.4c-.6-.6-1-1.3-1.3-2.1s-.5-1.6-.5-2.6v-.5c0-1,.1-2,.4-2.8s.7-1.6,1.3-2.2c.5-.6,1.2-1.1,2-1.4s1.6-.5,2.5-.5,1.8.2,2.5.5c.7.3,1.3.8,1.8,1.4.5.6.9,1.3,1.1,2.1s.4,1.7.4,2.7v1.4h-10.6v-2.3h7.3v-.2c0-.5-.1-1-.3-1.4-.2-.4-.5-.8-.8-1-.4-.3-.9-.4-1.5-.4s-.9.1-1.3.3c-.4.2-.7.5-.9.9-.2.4-.4.8-.5,1.4s-.2,1.1-.2,1.8v.5c0,.6,0,1.1.2,1.6.2.5.4.9.7,1.3.3.4.7.6,1.1.8.4.2.9.3,1.5.3s1.3-.1,1.9-.4c.6-.3,1-.7,1.5-1.2l1.7,1.7c-.3.4-.7.8-1.1,1.2s-1.1.7-1.7.9c-.7.2-1.4.4-2.3.4Z"/>
          <path d="M398.5,182.5l3.1,9.9.5,3.5-2.3.4-4.9-13.8h3.5ZM400.3,194.5l3.6-12h3.5l-5.4,15.5c-.1.3-.3.7-.5,1.1-.2.4-.5.8-.8,1.1-.3.4-.7.6-1.2.9-.5.2-1.1.3-1.8.3s-.6,0-.8,0c-.2,0-.5,0-.7-.2v-2.5c0,0,.2,0,.3,0,.1,0,.2,0,.3,0,.5,0,.9,0,1.2-.2.3-.1.6-.3.8-.5.2-.2.4-.6.5-1l1-2.6Z"/>
          <path d="M418.6,185.1v16.1h-3.3v-18.7h3.1l.2,2.6ZM427.3,189.1v.3c0,1-.1,1.9-.3,2.7-.2.8-.6,1.6-1,2.2-.4.6-1,1.1-1.6,1.4-.7.3-1.4.5-2.2.5s-1.6-.2-2.2-.5c-.6-.3-1.1-.8-1.6-1.4-.4-.6-.8-1.3-1-2.1-.3-.8-.4-1.6-.6-2.6v-.8c.1-1,.3-1.9.6-2.7.3-.8.6-1.5,1-2.1.4-.6.9-1.1,1.6-1.4s1.3-.5,2.1-.5,1.6.2,2.3.5,1.2.8,1.7,1.4c.4.6.8,1.3,1,2.2.2.8.3,1.8.3,2.8ZM424,189.4v-.3c0-.6,0-1.2-.2-1.7-.1-.5-.3-1-.5-1.3-.2-.4-.5-.7-.9-.9s-.8-.3-1.3-.3-.9,0-1.3.2-.7.4-.9.7-.4.7-.5,1.1c-.1.4-.2.9-.3,1.4v2.1c0,.6.2,1.2.4,1.7s.5.9,1,1.2c.4.3,1,.4,1.6.4s.9-.1,1.3-.3.6-.5.9-.9c.2-.4.4-.8.5-1.4,0-.5.1-1.1.1-1.6Z"/>
          <path d="M429.6,179c0-.5.2-.9.5-1.2.3-.3.8-.5,1.4-.5s1,.2,1.4.5c.3.3.5.7.5,1.2s-.2.9-.5,1.2c-.3.3-.8.5-1.4.5s-1-.2-1.4-.5c-.3-.3-.5-.7-.5-1.2ZM433.1,182.5v13.5h-3.3v-13.5h3.3Z"/>
          <path d="M441.8,193.7c.5,0,.9,0,1.2-.3s.7-.4.9-.8c.2-.3.3-.7.4-1.2h3.1c0,.9-.3,1.7-.8,2.5s-1.2,1.3-2,1.7c-.8.4-1.8.6-2.8.6s-1.9-.2-2.7-.5c-.8-.3-1.4-.8-1.9-1.5-.5-.6-.9-1.3-1.1-2.2-.3-.8-.4-1.7-.4-2.6v-.4c0-.9.1-1.8.4-2.6s.6-1.5,1.1-2.2,1.2-1.1,1.9-1.5c.8-.3,1.7-.5,2.7-.5s2,.2,2.9.6c.8.4,1.5,1,1.9,1.8.5.8.7,1.7.7,2.7h-3.1c0-.5-.1-.9-.3-1.3-.2-.4-.5-.7-.8-.9-.4-.2-.8-.3-1.3-.3s-1,.1-1.4.3c-.4.2-.7.6-.9,1-.2.4-.3.9-.4,1.3,0,.5-.1,1-.1,1.6v.4c0,.5,0,1.1.1,1.6,0,.5.2.9.4,1.3.2.4.5.7.9.9.4.2.8.3,1.4.3Z"/>
          <path d="M452.9,176.9v19.1h-3.3v-19.1h3.3ZM461.3,182.5l-5.9,6.6-3.2,3.2-1-2.6,2.5-3.1,3.7-4.2h4ZM458,196l-4.2-6.3,2.2-2.1,5.8,8.4h-3.8Z"/>
          <path d="M468.9,196.3c-1,0-1.9-.2-2.8-.5s-1.5-.8-2.1-1.4c-.6-.6-1-1.3-1.3-2.1s-.5-1.6-.5-2.6v-.5c0-1,.1-2,.4-2.8s.7-1.6,1.3-2.2c.5-.6,1.2-1.1,2-1.4s1.6-.5,2.5-.5,1.8.2,2.5.5c.7.3,1.3.8,1.8,1.4.5.6.9,1.3,1.1,2.1s.4,1.7.4,2.7v1.4h-10.6v-2.3h7.3v-.2c0-.5-.1-1-.3-1.4-.2-.4-.5-.8-.8-1-.4-.3-.9-.4-1.5-.4s-.9.1-1.3.3c-.4.2-.7.5-.9.9-.2.4-.4.8-.5,1.4s-.2,1.1-.2,1.8v.5c0,.6,0,1.1.2,1.6.2.5.4.9.7,1.3.3.4.7.6,1.1.8.4.2.9.3,1.5.3s1.3-.1,1.9-.4c.6-.3,1-.7,1.5-1.2l1.7,1.7c-.3.4-.7.8-1.1,1.2s-1.1.7-1.7.9c-.7.2-1.4.4-2.3.4Z"/>
          <path d="M476,189.4v-.3c0-1,.1-2,.4-2.8.2-.8.6-1.6,1-2.2.5-.6,1-1.1,1.7-1.4.7-.3,1.4-.5,2.2-.5s1.5.2,2.1.5c.6.3,1.1.8,1.5,1.4.4.6.8,1.3,1,2.1.3.8.4,1.7.6,2.7v.7c-.1,1-.3,1.8-.6,2.6-.3.8-.6,1.5-1,2.1s-.9,1.1-1.6,1.4c-.6.3-1.3.5-2.1.5s-1.6-.2-2.2-.5-1.2-.8-1.7-1.4c-.5-.6-.8-1.3-1-2.2-.2-.8-.4-1.7-.4-2.7ZM479.3,189.2v.3c0,.6,0,1.1.1,1.6,0,.5.3,1,.5,1.3s.5.7.9.9c.4.2.8.3,1.3.3s1.2-.1,1.6-.4c.4-.3.7-.7,1-1.2.2-.5.4-1.1.4-1.7v-2c0-.5-.1-1-.3-1.4-.1-.4-.3-.8-.6-1.1-.2-.3-.5-.5-.9-.7s-.8-.3-1.3-.3-.9.1-1.3.3c-.4.2-.6.5-.9.9-.2.4-.4.8-.5,1.4-.1.5-.2,1.1-.2,1.7ZM484.6,193.2v-16.3h3.3v19.1h-3l-.3-2.9Z"/>
          <path d="M505.7,190h1c0,.9,0,1.7-.3,2.5-.2.8-.5,1.4-.9,2-.4.6-.9,1-1.6,1.3-.6.3-1.4.5-2.3.5s-1.3,0-1.8-.3c-.5-.2-1-.5-1.4-.9-.4-.4-.7-.9-.9-1.6-.2-.6-.3-1.4-.3-2.3v-8.7h3.3v8.7c0,.4,0,.8.2,1.1.1.3.2.5.4.7s.4.3.7.4c.3,0,.5.1.8.1.8,0,1.4-.2,1.9-.5.5-.3.8-.8,1-1.3s.3-1.2.3-1.8ZM505.2,192.8v-10.3h3.3v13.5h-3.1l-.2-3.2Z"/>
          <path d="M514.7,185.1v16.1h-3.3v-18.7h3.1l.2,2.6ZM523.4,189.1v.3c0,1-.1,1.9-.3,2.7-.2.8-.6,1.6-1,2.2-.4.6-1,1.1-1.6,1.4-.7.3-1.4.5-2.2.5s-1.6-.2-2.2-.5c-.6-.3-1.1-.8-1.6-1.4-.4-.6-.8-1.3-1-2.1-.3-.8-.4-1.6-.6-2.6v-.8c.1-1,.3-1.9.6-2.7.3-.8.6-1.5,1-2.1.4-.6.9-1.1,1.6-1.4s1.3-.5,2.1-.5,1.6.2,2.3.5,1.2.8,1.7,1.4c.4.6.8,1.3,1,2.2.2.8.3,1.8.3,2.8ZM520.1,189.4v-.3c0-.6,0-1.2-.2-1.7-.1-.5-.3-1-.5-1.3-.2-.4-.5-.7-.9-.9s-.8-.3-1.3-.3-.9,0-1.3.2-.7.4-.9.7-.4.7-.5,1.1c-.1.4-.2.9-.3,1.4v2.1c0,.6.2,1.2.4,1.7s.5.9,1,1.2c.4.3,1,.4,1.6.4s.9-.1,1.3-.3.6-.5.9-.9c.2-.4.4-.8.5-1.4,0-.5.1-1.1.1-1.6Z"/>
          <path d="M535.4,185.3v10.7h-3.3v-13.5h3.1l.2,2.8ZM534.9,188.8h-1c0-.9.1-1.8.3-2.6.2-.8.6-1.5,1-2.1.4-.6,1-1,1.7-1.4s1.4-.5,2.3-.5,1.2,0,1.7.3.9.5,1.3.8.7.9.9,1.5.3,1.3.3,2.2v9h-3.3v-8.7c0-.6,0-1.1-.3-1.5-.2-.4-.4-.6-.8-.8-.3-.1-.7-.2-1.2-.2s-1,.1-1.3.3c-.4.2-.7.5-.9.8-.2.4-.4.8-.5,1.2-.1.5-.2,1-.2,1.5ZM543.1,188.2l-1.4.2c0-.8.1-1.6.3-2.4s.6-1.4,1-2,1-1,1.6-1.3c.7-.3,1.4-.5,2.3-.5s1.3,0,1.8.3c.5.2,1,.5,1.4.9.4.4.7.9.9,1.6.2.6.3,1.4.3,2.3v8.7h-3.3v-8.7c0-.7,0-1.2-.3-1.5-.2-.3-.4-.6-.8-.7-.3-.1-.7-.2-1.2-.2s-.9,0-1.2.3c-.3.2-.6.4-.8.7-.2.3-.4.6-.5,1-.1.4-.2.8-.2,1.3Z"/>
          <path d="M556.5,182.5l3.1,9.9.5,3.5-2.3.4-4.9-13.8h3.5ZM558.2,194.5l3.6-12h3.5l-5.4,15.5c-.1.3-.3.7-.5,1.1-.2.4-.5.8-.8,1.1-.3.4-.7.6-1.2.9-.5.2-1.1.3-1.8.3s-.6,0-.8,0c-.2,0-.5,0-.7-.2v-2.5c0,0,.2,0,.3,0,.1,0,.2,0,.3,0,.5,0,.9,0,1.2-.2.3-.1.6-.3.8-.5.2-.2.4-.6.5-1l1-2.6Z"/>
          <path d="M578.8,193.7c.5,0,.9,0,1.2-.3s.7-.4.9-.8c.2-.3.3-.7.4-1.2h3.1c0,.9-.3,1.7-.8,2.5-.5.7-1.2,1.3-2,1.7-.8.4-1.7.6-2.8.6s-1.9-.2-2.7-.5c-.8-.3-1.4-.8-1.9-1.5-.5-.6-.9-1.3-1.1-2.2-.3-.8-.4-1.7-.4-2.6v-.4c0-.9.1-1.8.4-2.6s.6-1.5,1.1-2.2,1.2-1.1,1.9-1.5c.8-.3,1.7-.5,2.7-.5s2,.2,2.9.6c.8.4,1.5,1,1.9,1.8.5.8.7,1.7.7,2.7h-3.1c0-.5-.1-.9-.3-1.3-.2-.4-.5-.7-.8-.9-.4-.2-.8-.3-1.3-.3s-1,.1-1.4.3c-.4.2-.7.6-.9,1-.2.4-.3.9-.4,1.3,0,.5-.1,1-.1,1.6v.4c0,.5,0,1.1.1,1.6,0,.5.2.9.4,1.3.2.4.5.7.9.9.4.2.8.3,1.4.3Z"/>
          <path d="M594.5,187.8v2s-2.1,0-2.1,0c-.5,0-1,0-1.4.2-.4.1-.7.3-1,.4-.2.2-.4.4-.6.7-.1.3-.2.6-.2.9s0,.6.2.9c.2.3.4.5.7.6.3.2.6.2,1,.2.6,0,1.1-.1,1.5-.4.4-.2.8-.5,1-.9s.4-.7.4-1l.9,1.4c-.1.3-.3.7-.5,1.1s-.5.7-.9,1.1-.8.6-1.3.8c-.5.2-1.1.3-1.8.3s-1.7-.2-2.3-.5-1.2-.8-1.6-1.4-.6-1.3-.6-2.1.1-1.3.4-1.9.7-1,1.2-1.4c.5-.4,1.2-.7,1.9-.9.8-.2,1.7-.3,2.7-.3h2.2ZM594,193.2v-6.2c0-.5,0-.9-.2-1.2-.2-.3-.4-.6-.7-.8-.3-.2-.7-.3-1.2-.3s-.8,0-1.2.2-.6.4-.8.6c-.2.3-.3.6-.3.9h-3.3c0-.6.1-1.1.4-1.6s.6-1,1.1-1.3c.5-.4,1.1-.7,1.8-.9s1.5-.3,2.3-.3,1.9.2,2.7.5c.8.3,1.4.9,1.9,1.6.5.7.7,1.6.7,2.6v5.9c0,.7,0,1.2.1,1.7,0,.5.2.9.4,1.2v.2h-3.3c-.2-.3-.3-.8-.4-1.3s-.1-1-.1-1.6Z"/>
          <path d="M603.6,185.3v10.7h-3.3v-13.5h3.1l.2,2.8ZM607.7,182.5v3.1c-.2,0-.4,0-.7,0s-.4,0-.6,0c-.5,0-1,0-1.3.2-.4.1-.7.3-1,.6-.3.3-.4.6-.6.9-.1.4-.2.8-.2,1.3h-.7c0-.9,0-1.7.3-2.5.2-.7.4-1.4.8-1.9s.7-1,1.3-1.3c.5-.3,1.1-.5,1.7-.5s.4,0,.6,0c.2,0,.4,0,.5.1Z"/>
          <path d="M623.7,187.8v2s-2.1,0-2.1,0c-.5,0-1,0-1.4.2-.4.1-.7.3-1,.4-.2.2-.4.4-.6.7-.1.3-.2.6-.2.9s0,.6.2.9c.2.3.4.5.7.6.3.2.6.2,1,.2.6,0,1.1-.1,1.5-.4.4-.2.8-.5,1-.9s.4-.7.4-1l.9,1.4c-.1.3-.3.7-.5,1.1s-.5.7-.9,1.1-.8.6-1.3.8-1.1.3-1.8.3-1.7-.2-2.3-.5-1.2-.8-1.6-1.4-.6-1.3-.6-2.1.1-1.3.4-1.9.7-1,1.2-1.4c.5-.4,1.2-.7,1.9-.9.8-.2,1.7-.3,2.7-.3h2.2ZM623.2,193.2v-6.2c0-.5,0-.9-.2-1.2-.2-.3-.4-.6-.7-.8-.3-.2-.7-.3-1.2-.3s-.8,0-1.2.2-.6.4-.8.6c-.2.3-.3.6-.3.9h-3.3c0-.6.1-1.1.4-1.6s.6-1,1.1-1.3c.5-.4,1.1-.7,1.8-.9s1.5-.3,2.3-.3,1.9.2,2.7.5c.8.3,1.4.9,1.9,1.6.5.7.7,1.6.7,2.6v5.9c0,.7,0,1.2.1,1.7,0,.5.2.9.4,1.2v.2h-3.3c-.2-.3-.3-.8-.4-1.3s-.1-1-.1-1.6Z"/>
          <path d="M635.9,182.5v2.4h-7.7v-2.4h7.7ZM630.2,179.2h3.3v12.9c0,.4,0,.7.2.9.1.2.3.4.5.4s.5.1.8.1.4,0,.6,0,.3,0,.5,0v2.5c-.3,0-.6.2-.9.2-.3,0-.7,0-1.2,0-.7,0-1.4-.1-1.9-.4-.6-.3-1-.7-1.3-1.2-.3-.6-.5-1.3-.5-2.3v-13.2Z"/>
          <path d="M647.7,185.3v10.7h-3.3v-13.5h3.1l.2,2.8ZM647.2,188.8h-1c0-.9.1-1.8.3-2.6.2-.8.6-1.5,1-2.1s1-1,1.7-1.4,1.4-.5,2.3-.5,1.2,0,1.7.3c.5.2.9.5,1.3.8s.7.9.9,1.5.3,1.3.3,2.2v9h-3.3v-8.7c0-.6,0-1.1-.3-1.5-.2-.4-.4-.6-.8-.8-.3-.1-.7-.2-1.2-.2s-1,.1-1.3.3-.7.5-.9.8c-.2.4-.4.8-.5,1.2-.1.5-.2,1-.2,1.5ZM655.4,188.2l-1.4.2c0-.8.1-1.6.3-2.4.2-.7.6-1.4,1-2,.4-.6,1-1,1.6-1.3.7-.3,1.4-.5,2.3-.5s1.3,0,1.8.3c.5.2,1,.5,1.4.9.4.4.7.9.9,1.6.2.6.3,1.4.3,2.3v8.7h-3.3v-8.7c0-.7,0-1.2-.3-1.5s-.4-.6-.8-.7c-.3-.1-.7-.2-1.2-.2s-.9,0-1.2.3c-.3.2-.6.4-.8.7-.2.3-.4.6-.5,1-.1.4-.2.8-.2,1.3Z"/>
          <path d="M668.8,182.5l3.1,9.9.5,3.5-2.3.4-4.9-13.8h3.5ZM670.5,194.5l3.6-12h3.5l-5.4,15.5c-.1.3-.3.7-.5,1.1s-.5.8-.8,1.1c-.3.4-.7.6-1.2.9-.5.2-1.1.3-1.8.3s-.6,0-.8,0c-.2,0-.5,0-.7-.2v-2.5c0,0,.2,0,.3,0,.1,0,.2,0,.3,0,.5,0,.9,0,1.2-.2.3-.1.6-.3.8-.5.2-.2.4-.6.5-1l1-2.6Z"/>
          <path d="M688.8,176.9v19.1h-3.3v-19.1h3.3ZM688.3,188.8h-1c0-.9.1-1.8.4-2.6.2-.8.6-1.5,1.1-2.1.5-.6,1-1,1.6-1.4.6-.3,1.3-.5,2.1-.5s1.3,0,1.8.3c.5.2,1,.5,1.4.9.4.4.7.9.9,1.6.2.7.3,1.4.3,2.4v8.6h-3.3v-8.6c0-.6,0-1.1-.3-1.5-.2-.4-.4-.6-.8-.8-.3-.2-.8-.2-1.2-.2s-1,.1-1.4.3-.7.5-.9.8c-.2.4-.4.8-.5,1.2-.1.5-.2,1-.2,1.5Z"/>
          <path d="M699.2,189.4v-.3c0-1,.1-1.9.4-2.7s.7-1.6,1.2-2.2c.5-.6,1.2-1.1,2-1.4.8-.3,1.7-.5,2.7-.5s1.9.2,2.7.5c.8.3,1.4.8,2,1.4.5.6,1,1.3,1.2,2.2s.4,1.7.4,2.7v.3c0,1-.1,1.9-.4,2.7s-.7,1.6-1.2,2.2c-.5.6-1.2,1.1-2,1.4-.8.3-1.7.5-2.7.5s-1.9-.2-2.7-.5c-.8-.3-1.5-.8-2-1.4-.5-.6-1-1.3-1.2-2.2s-.4-1.7-.4-2.7ZM702.5,189.2v.3c0,.6,0,1.1.2,1.7.1.5.3,1,.5,1.4.2.4.6.7.9.9.4.2.8.3,1.4.3s1-.1,1.4-.3c.4-.2.7-.5.9-.9.2-.4.4-.8.5-1.4.1-.5.2-1.1.2-1.7v-.3c0-.6,0-1.1-.2-1.6-.1-.5-.3-1-.5-1.4-.2-.4-.6-.7-.9-.9-.4-.2-.8-.3-1.4-.3s-1,.1-1.4.3c-.4.2-.7.5-.9.9-.2.4-.4.8-.5,1.4-.1.5-.2,1.1-.2,1.6Z"/>
          <path d="M717.5,185.3v10.7h-3.3v-13.5h3.1l.2,2.8ZM717,188.8h-1c0-.9.1-1.8.3-2.6.2-.8.6-1.5,1-2.1s1-1,1.7-1.4,1.4-.5,2.3-.5,1.2,0,1.7.3c.5.2.9.5,1.3.8s.7.9.9,1.5.3,1.3.3,2.2v9h-3.3v-8.7c0-.6,0-1.1-.3-1.5-.2-.4-.4-.6-.8-.8-.3-.1-.7-.2-1.2-.2s-1,.1-1.3.3-.7.5-.9.8c-.2.4-.4.8-.5,1.2-.1.5-.2,1-.2,1.5ZM725.2,188.2l-1.4.2c0-.8.1-1.6.3-2.4.2-.7.6-1.4,1-2,.4-.6,1-1,1.6-1.3.7-.3,1.4-.5,2.3-.5s1.3,0,1.8.3c.5.2,1,.5,1.4.9.4.4.7.9.9,1.6.2.6.3,1.4.3,2.3v8.7h-3.3v-8.7c0-.7,0-1.2-.3-1.5s-.4-.6-.8-.7c-.3-.1-.7-.2-1.2-.2s-.9,0-1.2.3c-.3.2-.6.4-.8.7-.2.3-.4.6-.5,1-.1.4-.2.8-.2,1.3Z"/>
          <path d="M742.5,196.3c-1,0-1.9-.2-2.8-.5s-1.5-.8-2.1-1.4c-.6-.6-1-1.3-1.3-2.1-.3-.8-.5-1.6-.5-2.6v-.5c0-1,.1-2,.4-2.8s.7-1.6,1.3-2.2c.5-.6,1.2-1.1,2-1.4s1.6-.5,2.5-.5,1.8.2,2.5.5c.7.3,1.3.8,1.8,1.4.5.6.9,1.3,1.1,2.1.2.8.4,1.7.4,2.7v1.4h-10.6v-2.3h7.3v-.2c0-.5-.1-1-.3-1.4-.2-.4-.5-.8-.8-1-.4-.3-.9-.4-1.5-.4s-.9.1-1.3.3c-.4.2-.7.5-.9.9-.2.4-.4.8-.5,1.4s-.2,1.1-.2,1.8v.5c0,.6,0,1.1.2,1.6.2.5.4.9.7,1.3.3.4.7.6,1.1.8.4.2.9.3,1.5.3s1.3-.1,1.9-.4c.6-.3,1-.7,1.5-1.2l1.7,1.7c-.3.4-.7.8-1.1,1.2-.5.4-1.1.7-1.7.9-.7.2-1.4.4-2.3.4Z"/>
          <path d="M758.6,182.5l2.2,10.3.2,3.2h-2.1l-3.5-13.5h3.2ZM760.2,192.8l3-10.2h2.1l-.6,3.5-3,9.9h-1.8l.4-3.2ZM765.6,182.5l2.9,10.1.4,3.3h-1.8l-3-9.9-.6-3.5h2.1ZM768,192.7l2.2-10.1h3.2l-3.5,13.5h-2.1l.2-3.4Z"/>
          <path d="M778.5,176.9v19.1h-3.3v-19.1h3.3ZM778,188.8h-1c0-.9.1-1.8.4-2.6.2-.8.6-1.5,1.1-2.1.5-.6,1-1,1.6-1.4.6-.3,1.3-.5,2.1-.5s1.3,0,1.8.3c.5.2,1,.5,1.4.9.4.4.7.9.9,1.6.2.7.3,1.4.3,2.4v8.6h-3.3v-8.6c0-.6,0-1.1-.3-1.5-.2-.4-.4-.6-.8-.8-.3-.2-.8-.2-1.2-.2s-1,.1-1.4.3-.7.5-.9.8c-.2.4-.4.8-.5,1.2-.1.5-.2,1-.2,1.5Z"/>
          <path d="M789.5,179c0-.5.2-.9.5-1.2s.8-.5,1.4-.5,1,.2,1.4.5c.3.3.5.7.5,1.2s-.2.9-.5,1.2c-.3.3-.8.5-1.4.5s-1-.2-1.4-.5c-.3-.3-.5-.7-.5-1.2ZM793,182.5v13.5h-3.3v-13.5h3.3Z"/>
          <path d="M801.7,193.7c.5,0,.9,0,1.2-.3s.7-.4.9-.8c.2-.3.3-.7.4-1.2h3.1c0,.9-.3,1.7-.8,2.5-.5.7-1.2,1.3-2,1.7-.8.4-1.7.6-2.8.6s-1.9-.2-2.7-.5c-.8-.3-1.4-.8-1.9-1.5-.5-.6-.9-1.3-1.1-2.2-.3-.8-.4-1.7-.4-2.6v-.4c0-.9.1-1.8.4-2.6s.6-1.5,1.1-2.2c.5-.6,1.2-1.1,1.9-1.5.8-.3,1.7-.5,2.7-.5s2,.2,2.9.6c.8.4,1.5,1,1.9,1.8.5.8.7,1.7.7,2.7h-3.1c0-.5-.1-.9-.3-1.3-.2-.4-.5-.7-.8-.9s-.8-.3-1.3-.3-1,.1-1.4.3c-.4.2-.7.6-.9,1-.2.4-.3.9-.4,1.3s-.1,1-.1,1.6v.4c0,.5,0,1.1.1,1.6s.2.9.4,1.3c.2.4.5.7.9.9.4.2.8.3,1.4.3Z"/>
          <path d="M812.7,176.9v19.1h-3.3v-19.1h3.3ZM812.2,188.8h-1c0-.9.1-1.8.4-2.6.2-.8.6-1.5,1.1-2.1.5-.6,1-1,1.6-1.4.6-.3,1.3-.5,2.1-.5s1.3,0,1.8.3c.5.2,1,.5,1.4.9.4.4.7.9.9,1.6.2.7.3,1.4.3,2.4v8.6h-3.3v-8.6c0-.6,0-1.1-.3-1.5-.2-.4-.4-.6-.8-.8-.3-.2-.8-.2-1.2-.2s-1,.1-1.4.3-.7.5-.9.8c-.2.4-.4.8-.5,1.2-.1.5-.2,1-.2,1.5Z"/>
          <path d="M832.2,182.5l2.2,10.3.2,3.2h-2.1l-3.5-13.5h3.2ZM833.8,192.8l3-10.2h2.1l-.6,3.5-3,9.9h-1.8l.4-3.2ZM839.2,182.5l2.9,10.1.4,3.3h-1.8l-3-9.9-.6-3.5h2.1ZM841.6,192.7l2.2-10.1h3.2l-3.5,13.5h-2.1l.2-3.4Z"/>
          <path d="M856.8,187.8v2s-2.1,0-2.1,0c-.5,0-1,0-1.4.2-.4.1-.7.3-1,.4-.2.2-.4.4-.6.7-.1.3-.2.6-.2.9s0,.6.2.9c.2.3.4.5.7.6.3.2.6.2,1,.2.6,0,1.1-.1,1.5-.4.4-.2.8-.5,1-.9s.4-.7.4-1l.9,1.4c-.1.3-.3.7-.5,1.1s-.5.7-.9,1.1-.8.6-1.3.8-1.1.3-1.8.3-1.7-.2-2.3-.5-1.2-.8-1.6-1.4-.6-1.3-.6-2.1.1-1.3.4-1.9.7-1,1.2-1.4c.5-.4,1.2-.7,1.9-.9.8-.2,1.7-.3,2.7-.3h2.2ZM856.3,193.2v-6.2c0-.5,0-.9-.2-1.2-.2-.3-.4-.6-.7-.8-.3-.2-.7-.3-1.2-.3s-.8,0-1.2.2-.6.4-.8.6c-.2.3-.3.6-.3.9h-3.3c0-.6.1-1.1.4-1.6s.6-1,1.1-1.3c.5-.4,1.1-.7,1.8-.9s1.5-.3,2.3-.3,1.9.2,2.7.5c.8.3,1.4.9,1.9,1.6.5.7.7,1.6.7,2.6v5.9c0,.7,0,1.2.1,1.7,0,.5.2.9.4,1.2v.2h-3.3c-.2-.3-.3-.8-.4-1.3s-.1-1-.1-1.6Z"/>
          <path d="M870,192.3c0-.3,0-.5-.2-.8-.1-.2-.4-.4-.8-.6-.4-.2-1-.4-1.8-.5-.7-.1-1.3-.3-1.9-.6-.6-.2-1.1-.5-1.5-.8-.4-.3-.8-.7-1-1.1-.2-.4-.4-.9-.4-1.5s.1-1.1.4-1.6c.2-.5.6-.9,1-1.3.5-.4,1-.7,1.7-.9.7-.2,1.4-.3,2.2-.3s2.1.2,3,.6,1.5.9,1.9,1.5c.4.7.7,1.4.7,2.2h-3.3c0-.4,0-.7-.2-1-.2-.3-.4-.5-.7-.7-.3-.2-.8-.3-1.3-.3s-.8,0-1.2.2-.5.3-.7.6c-.2.2-.2.5-.2.8s0,.4.1.6c0,.2.2.3.4.5s.5.3.8.4c.3.1.8.2,1.3.3,1,.2,1.9.5,2.6.8.8.3,1.3.8,1.8,1.3.4.5.6,1.2.6,2.1s-.1,1.1-.4,1.6c-.3.5-.6.9-1.1,1.3-.5.4-1.1.6-1.8.9-.7.2-1.4.3-2.3.3-1.2,0-2.3-.2-3.1-.7-.9-.4-1.5-1-1.9-1.7s-.7-1.4-.7-2.1h3.2c0,.5.2.9.4,1.3.3.3.6.5,1,.7.4.1.8.2,1.3.2s.9,0,1.3-.2c.3-.1.6-.3.8-.6.2-.2.3-.5.3-.8Z"/>
          <path d="M887.6,193.7c.5,0,.9,0,1.2-.3s.7-.4.9-.8c.2-.3.3-.7.4-1.2h3.1c0,.9-.3,1.7-.8,2.5-.5.7-1.2,1.3-2,1.7-.8.4-1.7.6-2.8.6s-1.9-.2-2.7-.5c-.8-.3-1.4-.8-1.9-1.5-.5-.6-.9-1.3-1.1-2.2-.3-.8-.4-1.7-.4-2.6v-.4c0-.9.1-1.8.4-2.6s.6-1.5,1.1-2.2c.5-.6,1.2-1.1,1.9-1.5.8-.3,1.7-.5,2.7-.5s2,.2,2.9.6c.8.4,1.5,1,1.9,1.8.5.8.7,1.7.7,2.7h-3.1c0-.5-.1-.9-.3-1.3-.2-.4-.5-.7-.8-.9s-.8-.3-1.3-.3-1,.1-1.4.3c-.4.2-.7.6-.9,1-.2.4-.3.9-.4,1.3s-.1,1-.1,1.6v.4c0,.5,0,1.1.1,1.6s.2.9.4,1.3c.2.4.5.7.9.9.4.2.8.3,1.4.3Z"/>
          <path d="M894.7,189.4v-.3c0-1,.1-1.9.4-2.7s.7-1.6,1.2-2.2c.5-.6,1.2-1.1,2-1.4.8-.3,1.7-.5,2.7-.5s1.9.2,2.7.5c.8.3,1.4.8,2,1.4.5.6,1,1.3,1.2,2.2s.4,1.7.4,2.7v.3c0,1-.1,1.9-.4,2.7s-.7,1.6-1.2,2.2c-.5.6-1.2,1.1-2,1.4-.8.3-1.7.5-2.7.5s-1.9-.2-2.7-.5c-.8-.3-1.5-.8-2-1.4-.5-.6-1-1.3-1.2-2.2s-.4-1.7-.4-2.7ZM898,189.2v.3c0,.6,0,1.1.2,1.7.1.5.3,1,.5,1.4.2.4.6.7.9.9.4.2.8.3,1.4.3s1-.1,1.4-.3c.4-.2.7-.5.9-.9.2-.4.4-.8.5-1.4.1-.5.2-1.1.2-1.7v-.3c0-.6,0-1.1-.2-1.6-.1-.5-.3-1-.5-1.4-.2-.4-.6-.7-.9-.9-.4-.2-.8-.3-1.4-.3s-1,.1-1.4.3c-.4.2-.7.5-.9.9-.2.4-.4.8-.5,1.4-.1.5-.2,1.1-.2,1.6Z"/>
          <path d="M913,185.4v10.6h-3.3v-13.5h3.1l.2,2.9ZM912.5,188.8h-1c0-1,.1-1.9.4-2.7.3-.8.6-1.5,1.1-2.1s1-1,1.7-1.3c.6-.3,1.4-.5,2.2-.5s1.2,0,1.8.3c.5.2,1,.5,1.4.9s.7.9.9,1.6c.2.6.3,1.4.3,2.4v8.6h-3.3v-8.7c0-.6,0-1.1-.3-1.5s-.4-.6-.8-.8c-.3-.1-.7-.2-1.2-.2s-.9.1-1.3.3-.7.5-.9.8c-.3.4-.4.8-.6,1.2-.1.5-.2,1-.2,1.5Z"/>
          <path d="M926.2,182.5l3.2,11v2.5c.1,0-2,0-2,0l-4.6-13.5h3.4ZM928.5,193.5l3.1-11h3.4l-4.6,13.5h-2.1v-2.5Z"/>
          <path d="M942.7,196.3c-1,0-1.9-.2-2.8-.5s-1.5-.8-2.1-1.4c-.6-.6-1-1.3-1.3-2.1-.3-.8-.5-1.6-.5-2.6v-.5c0-1,.1-2,.4-2.8s.7-1.6,1.3-2.2c.5-.6,1.2-1.1,2-1.4s1.6-.5,2.5-.5,1.8.2,2.5.5c.7.3,1.3.8,1.8,1.4.5.6.9,1.3,1.1,2.1.2.8.4,1.7.4,2.7v1.4h-10.6v-2.3h7.3v-.2c0-.5-.1-1-.3-1.4-.2-.4-.5-.8-.8-1-.4-.3-.9-.4-1.5-.4s-.9.1-1.3.3c-.4.2-.7.5-.9.9-.2.4-.4.8-.5,1.4s-.2,1.1-.2,1.8v.5c0,.6,0,1.1.2,1.6.2.5.4.9.7,1.3.3.4.7.6,1.1.8.4.2.9.3,1.5.3s1.3-.1,1.9-.4c.6-.3,1-.7,1.5-1.2l1.7,1.7c-.3.4-.7.8-1.1,1.2-.5.4-1.1.7-1.7.9-.7.2-1.4.4-2.3.4Z"/>
          <path d="M953.6,185.4v10.6h-3.3v-13.5h3.1l.2,2.9ZM953.1,188.8h-1c0-1,.1-1.9.4-2.7.3-.8.6-1.5,1.1-2.1s1-1,1.7-1.3c.6-.3,1.4-.5,2.2-.5s1.2,0,1.8.3c.5.2,1,.5,1.4.9s.7.9.9,1.6c.2.6.3,1.4.3,2.4v8.6h-3.3v-8.7c0-.6,0-1.1-.3-1.5s-.4-.6-.8-.8c-.3-.1-.7-.2-1.2-.2s-.9.1-1.3.3-.7.5-.9.8c-.3.4-.4.8-.6,1.2-.1.5-.2,1-.2,1.5Z"/>
          <path d="M964.6,179c0-.5.2-.9.5-1.2s.8-.5,1.4-.5,1,.2,1.4.5c.3.3.5.7.5,1.2s-.2.9-.5,1.2c-.3.3-.8.5-1.4.5s-1-.2-1.4-.5c-.3-.3-.5-.7-.5-1.2ZM968.1,182.5v13.5h-3.3v-13.5h3.3Z"/>
          <path d="M977.3,196.3c-1,0-1.9-.2-2.8-.5s-1.5-.8-2.1-1.4c-.6-.6-1-1.3-1.3-2.1-.3-.8-.5-1.6-.5-2.6v-.5c0-1,.1-2,.4-2.8s.7-1.6,1.3-2.2c.5-.6,1.2-1.1,2-1.4s1.6-.5,2.5-.5,1.8.2,2.5.5c.7.3,1.3.8,1.8,1.4.5.6.9,1.3,1.1,2.1.2.8.4,1.7.4,2.7v1.4h-10.6v-2.3h7.3v-.2c0-.5-.1-1-.3-1.4-.2-.4-.5-.8-.8-1-.4-.3-.9-.4-1.5-.4s-.9.1-1.3.3c-.4.2-.7.5-.9.9-.2.4-.4.8-.5,1.4s-.2,1.1-.2,1.8v.5c0,.6,0,1.1.2,1.6.2.5.4.9.7,1.3.3.4.7.6,1.1.8.4.2.9.3,1.5.3s1.3-.1,1.9-.4c.6-.3,1-.7,1.5-1.2l1.7,1.7c-.3.4-.7.8-1.1,1.2-.5.4-1.1.7-1.7.9-.7.2-1.4.4-2.3.4Z"/>
          <path d="M988.2,185.4v10.6h-3.3v-13.5h3.1l.2,2.9ZM987.7,188.8h-1c0-1,.1-1.9.4-2.7.3-.8.6-1.5,1.1-2.1s1-1,1.7-1.3c.6-.3,1.4-.5,2.2-.5s1.2,0,1.8.3c.5.2,1,.5,1.4.9s.7.9.9,1.6c.2.6.3,1.4.3,2.4v8.6h-3.3v-8.7c0-.6,0-1.1-.3-1.5s-.4-.6-.8-.8c-.3-.1-.7-.2-1.2-.2s-.9.1-1.3.3-.7.5-.9.8c-.3.4-.4.8-.6,1.2-.1.5-.2,1-.2,1.5Z"/>
          <path d="M1005.6,182.5v2.4h-7.7v-2.4h7.7ZM999.9,179.2h3.3v12.9c0,.4,0,.7.2.9.1.2.3.4.5.4s.5.1.8.1.4,0,.6,0,.3,0,.5,0v2.5c-.3,0-.6.2-.9.2-.3,0-.7,0-1.2,0-.7,0-1.4-.1-1.9-.4-.6-.3-1-.7-1.3-1.2-.3-.6-.5-1.3-.5-2.3v-13.2Z"/>
        </g>
      </g>
      <g class="st1">
        <g class="st1">
          <path d="M195.5,213.1v2.4h-8.1v-2.4h8.1ZM192.8,226.6h-3.3v-14.7c0-1,.2-1.9.6-2.6s.9-1.2,1.7-1.6c.7-.4,1.6-.5,2.6-.5s.6,0,.9,0c.3,0,.6,0,.9.2v2.5c-.2,0-.4,0-.6,0-.2,0-.4,0-.6,0-.4,0-.8,0-1.1.2s-.6.4-.7.7c-.2.3-.2.7-.2,1.1v14.7Z"/>
          <path d="M197,220v-.3c0-1,.1-1.9.4-2.7.3-.8.7-1.6,1.2-2.2.5-.6,1.2-1.1,2-1.4.8-.3,1.7-.5,2.7-.5s1.9.2,2.7.5c.8.3,1.4.8,2,1.4.5.6,1,1.3,1.2,2.2.3.8.4,1.7.4,2.7v.3c0,1-.1,1.9-.4,2.7-.3.8-.7,1.6-1.2,2.2-.5.6-1.2,1.1-2,1.4s-1.7.5-2.7.5-1.9-.2-2.7-.5c-.8-.3-1.5-.8-2-1.4-.5-.6-1-1.3-1.2-2.2-.3-.8-.4-1.7-.4-2.7ZM200.3,219.7v.3c0,.6,0,1.1.2,1.7.1.5.3,1,.5,1.4.2.4.6.7.9.9.4.2.8.3,1.4.3s1-.1,1.4-.3c.4-.2.7-.5.9-.9.2-.4.4-.8.5-1.4.1-.5.2-1.1.2-1.7v-.3c0-.6,0-1.1-.2-1.6-.1-.5-.3-1-.5-1.4-.2-.4-.6-.7-.9-.9-.4-.2-.8-.3-1.4-.3s-1,.1-1.4.3c-.4.2-.7.5-.9.9-.2.4-.4.8-.5,1.4-.1.5-.2,1.1-.2,1.6Z"/>
          <path d="M215.3,215.9v10.7h-3.3v-13.5h3.1l.2,2.8ZM219.4,213v3.1c-.2,0-.4,0-.7,0-.2,0-.4,0-.6,0-.5,0-1,0-1.3.2-.4.1-.7.3-1,.6-.3.3-.4.6-.6.9-.1.4-.2.8-.2,1.3h-.7c0-.9,0-1.7.3-2.5s.4-1.4.8-1.9.7-1,1.3-1.3c.5-.3,1.1-.5,1.7-.5s.4,0,.6,0c.2,0,.4,0,.5.1Z"/>
          <path d="M230.8,215.9v10.7h-3.3v-13.5h3.1l.2,2.8ZM230.3,219.4h-1c0-.9.1-1.8.3-2.6.2-.8.6-1.5,1-2.1.4-.6,1-1,1.7-1.4s1.4-.5,2.3-.5,1.2,0,1.7.3.9.5,1.3.8.7.9.9,1.5.3,1.3.3,2.2v9h-3.3v-8.7c0-.6,0-1.1-.3-1.5-.2-.4-.4-.6-.8-.8-.3-.1-.7-.2-1.2-.2s-1,.1-1.3.3c-.4.2-.7.5-.9.8-.2.4-.4.8-.5,1.2-.1.5-.2,1-.2,1.5ZM238.5,218.8l-1.4.2c0-.8.1-1.6.3-2.4s.6-1.4,1-2,1-1,1.6-1.3c.7-.3,1.4-.5,2.3-.5s1.3,0,1.8.3c.5.2,1,.5,1.4.9.4.4.7.9.9,1.6.2.6.3,1.4.3,2.3v8.7h-3.3v-8.7c0-.7,0-1.2-.3-1.5-.2-.3-.4-.6-.8-.7-.3-.1-.7-.2-1.2-.2s-.9,0-1.2.3c-.3.2-.6.4-.8.7-.2.3-.4.6-.5,1-.1.4-.2.8-.2,1.3Z"/>
          <path d="M255.7,226.8c-1,0-1.9-.2-2.8-.5s-1.5-.8-2.1-1.4c-.6-.6-1-1.3-1.3-2.1s-.5-1.6-.5-2.6v-.5c0-1,.1-2,.4-2.8s.7-1.6,1.3-2.2c.5-.6,1.2-1.1,2-1.4s1.6-.5,2.5-.5,1.8.2,2.5.5c.7.3,1.3.8,1.8,1.4.5.6.9,1.3,1.1,2.1s.4,1.7.4,2.7v1.4h-10.6v-2.3h7.3v-.2c0-.5-.1-1-.3-1.4-.2-.4-.5-.8-.8-1-.4-.3-.9-.4-1.5-.4s-.9.1-1.3.3c-.4.2-.7.5-.9.9-.2.4-.4.8-.5,1.4s-.2,1.1-.2,1.8v.5c0,.6,0,1.1.2,1.6.2.5.4.9.7,1.3.3.4.7.6,1.1.8.4.2.9.3,1.5.3s1.3-.1,1.9-.4c.6-.3,1-.7,1.5-1.2l1.7,1.7c-.3.4-.7.8-1.1,1.2s-1.1.7-1.7.9c-.7.2-1.4.4-2.3.4Z"/>
          <path d="M277.2,222.9c0-.3,0-.5-.2-.8-.1-.2-.4-.4-.8-.6-.4-.2-1-.4-1.8-.5-.7-.1-1.3-.3-1.9-.6-.6-.2-1.1-.5-1.5-.8-.4-.3-.8-.7-1-1.1-.2-.4-.4-.9-.4-1.5s.1-1.1.4-1.6c.2-.5.6-.9,1-1.3s1-.7,1.7-.9c.7-.2,1.4-.3,2.2-.3s2.1.2,3,.6c.8.4,1.5.9,1.9,1.5.4.7.7,1.4.7,2.2h-3.3c0-.4,0-.7-.2-1-.2-.3-.4-.5-.7-.7-.3-.2-.8-.3-1.3-.3s-.8,0-1.2.2c-.3.1-.5.3-.7.6s-.2.5-.2.8,0,.4.1.6c0,.2.2.3.4.5s.5.3.8.4c.3.1.8.2,1.3.3,1,.2,1.9.5,2.6.8s1.3.8,1.8,1.3c.4.5.6,1.2.6,2.1s-.1,1.1-.4,1.6c-.3.5-.6.9-1.1,1.3-.5.4-1.1.6-1.8.9-.7.2-1.4.3-2.3.3-1.2,0-2.3-.2-3.1-.7-.9-.4-1.5-1-1.9-1.7s-.7-1.4-.7-2.1h3.2c0,.5.2.9.4,1.3.3.3.6.5,1,.7.4.1.8.2,1.3.2s.9,0,1.3-.2c.3-.1.6-.3.8-.6.2-.2.3-.5.3-.8Z"/>
          <path d="M282.8,209.6c0-.5.2-.9.5-1.2.3-.3.8-.5,1.4-.5s1,.2,1.4.5c.3.3.5.7.5,1.2s-.2.9-.5,1.2c-.3.3-.8.5-1.4.5s-1-.2-1.4-.5c-.3-.3-.5-.7-.5-1.2ZM286.3,213.1v13.5h-3.3v-13.5h3.3Z"/>
          <path d="M292.7,216v10.6h-3.3v-13.5h3.1l.2,2.9ZM292.2,219.4h-1c0-1,.1-1.9.4-2.7.3-.8.6-1.5,1.1-2.1.5-.6,1-1,1.7-1.3.6-.3,1.4-.5,2.2-.5s1.2,0,1.8.3c.5.2,1,.5,1.4.9.4.4.7.9.9,1.6.2.6.3,1.4.3,2.4v8.6h-3.3v-8.7c0-.6,0-1.1-.3-1.5s-.4-.6-.8-.8c-.3-.1-.7-.2-1.2-.2s-.9.1-1.3.3c-.4.2-.7.5-.9.8-.3.4-.4.8-.6,1.2-.1.5-.2,1-.2,1.5Z"/>
          <path d="M309.3,224.3c.5,0,.9,0,1.2-.3s.7-.4.9-.8c.2-.3.3-.7.4-1.2h3.1c0,.9-.3,1.7-.8,2.5s-1.2,1.3-2,1.7c-.8.4-1.8.6-2.8.6s-1.9-.2-2.7-.5c-.8-.3-1.4-.8-1.9-1.5-.5-.6-.9-1.3-1.1-2.2-.3-.8-.4-1.7-.4-2.6v-.4c0-.9.1-1.8.4-2.6s.6-1.5,1.1-2.2,1.2-1.1,1.9-1.5c.8-.3,1.7-.5,2.7-.5s2,.2,2.9.6c.8.4,1.5,1,1.9,1.8.5.8.7,1.7.7,2.7h-3.1c0-.5-.1-.9-.3-1.3-.2-.4-.5-.7-.8-.9-.4-.2-.8-.3-1.3-.3s-1,.1-1.4.3c-.4.2-.7.6-.9,1-.2.4-.3.9-.4,1.3,0,.5-.1,1-.1,1.6v.4c0,.5,0,1.1.1,1.6,0,.5.2.9.4,1.3.2.4.5.7.9.9.4.2.8.3,1.4.3Z"/>
          <path d="M323.1,226.8c-1,0-1.9-.2-2.8-.5s-1.5-.8-2.1-1.4c-.6-.6-1-1.3-1.3-2.1s-.5-1.6-.5-2.6v-.5c0-1,.1-2,.4-2.8s.7-1.6,1.3-2.2c.5-.6,1.2-1.1,2-1.4s1.6-.5,2.5-.5,1.8.2,2.5.5c.7.3,1.3.8,1.8,1.4.5.6.9,1.3,1.1,2.1s.4,1.7.4,2.7v1.4h-10.6v-2.3h7.3v-.2c0-.5-.1-1-.3-1.4-.2-.4-.5-.8-.8-1-.4-.3-.9-.4-1.5-.4s-.9.1-1.3.3c-.4.2-.7.5-.9.9-.2.4-.4.8-.5,1.4s-.2,1.1-.2,1.8v.5c0,.6,0,1.1.2,1.6.2.5.4.9.7,1.3.3.4.7.6,1.1.8.4.2.9.3,1.5.3s1.3-.1,1.9-.4c.6-.3,1-.7,1.5-1.2l1.7,1.7c-.3.4-.7.8-1.1,1.2s-1.1.7-1.7.9c-.7.2-1.4.4-2.3.4Z"/>
          <path d="M341,208.5v18.1h-3.4v-18.1h3.4Z"/>
          <path d="M354,207.5v19.1h-3.3v-19.1h3.3ZM353.5,219.4h-1c0-.9.1-1.8.4-2.6.2-.8.6-1.5,1.1-2.1.5-.6,1-1,1.6-1.4.6-.3,1.3-.5,2.1-.5s1.3,0,1.8.3c.5.2,1,.5,1.4.9.4.4.7.9.9,1.6.2.7.3,1.4.3,2.4v8.6h-3.3v-8.6c0-.6,0-1.1-.3-1.5-.2-.4-.4-.6-.8-.8-.3-.2-.7-.2-1.2-.2s-1,.1-1.4.3c-.4.2-.7.5-.9.8-.2.4-.4.8-.5,1.2-.1.5-.2,1-.2,1.5Z"/>
          <path d="M372.9,218.4v2s-2.1,0-2.1,0c-.5,0-1,0-1.4.2-.4.1-.7.3-1,.4-.2.2-.4.4-.6.7-.1.3-.2.6-.2.9s0,.6.2.9c.2.3.4.5.7.6.3.2.6.2,1,.2.6,0,1.1-.1,1.5-.4.4-.2.8-.5,1-.9s.4-.7.4-1l.9,1.4c-.1.3-.3.7-.5,1.1s-.5.7-.9,1.1c-.4.3-.8.6-1.3.8-.5.2-1.1.3-1.8.3s-1.7-.2-2.3-.5c-.7-.3-1.2-.8-1.6-1.4s-.6-1.3-.6-2.1.1-1.3.4-1.9c.3-.5.7-1,1.2-1.4.5-.4,1.2-.7,1.9-.9.8-.2,1.7-.3,2.7-.3h2.2ZM372.4,223.7v-6.2c0-.5,0-.9-.2-1.2s-.4-.6-.7-.8-.7-.3-1.2-.3-.8,0-1.2.2-.6.4-.8.6-.3.6-.3.9h-3.3c0-.6.1-1.1.4-1.6.3-.5.6-1,1.1-1.3.5-.4,1.1-.7,1.8-.9.7-.2,1.5-.3,2.3-.3s1.9.2,2.7.5c.8.3,1.4.9,1.9,1.6.5.7.7,1.6.7,2.6v5.9c0,.7,0,1.2.1,1.7,0,.5.2.9.4,1.2v.2h-3.4c-.2-.3-.3-.8-.4-1.3s-.1-1-.1-1.6Z"/>
          <path d="M380.7,213.1l3.2,11v2.5c.1,0-2,0-2,0l-4.6-13.5h3.4ZM383,224.1l3.1-11h3.4l-4.6,13.5h-2.1v-2.5Z"/>
          <path d="M397.2,226.8c-1,0-1.9-.2-2.8-.5s-1.5-.8-2.1-1.4c-.6-.6-1-1.3-1.3-2.1s-.5-1.6-.5-2.6v-.5c0-1,.1-2,.4-2.8s.7-1.6,1.3-2.2c.5-.6,1.2-1.1,2-1.4s1.6-.5,2.5-.5,1.8.2,2.5.5c.7.3,1.3.8,1.8,1.4.5.6.9,1.3,1.1,2.1s.4,1.7.4,2.7v1.4h-10.6v-2.3h7.3v-.2c0-.5-.1-1-.3-1.4-.2-.4-.5-.8-.8-1-.4-.3-.9-.4-1.5-.4s-.9.1-1.3.3c-.4.2-.7.5-.9.9-.2.4-.4.8-.5,1.4s-.2,1.1-.2,1.8v.5c0,.6,0,1.1.2,1.6.2.5.4.9.7,1.3.3.4.7.6,1.1.8.4.2.9.3,1.5.3s1.3-.1,1.9-.4c.6-.3,1-.7,1.5-1.2l1.7,1.7c-.3.4-.7.8-1.1,1.2s-1.1.7-1.7.9c-.7.2-1.4.4-2.3.4Z"/>
          <path d="M417.6,213.1v2.4h-7.7v-2.4h7.7ZM411.9,209.8h3.3v12.9c0,.4,0,.7.2.9s.3.4.5.4.5.1.8.1.4,0,.6,0c.2,0,.3,0,.5,0v2.5c-.3,0-.6.2-.9.2-.3,0-.7,0-1.2,0-.7,0-1.4-.1-1.9-.4-.6-.3-1-.7-1.3-1.2-.3-.6-.5-1.3-.5-2.3v-13.2Z"/>
          <path d="M423,207.5v19.1h-3.3v-19.1h3.3ZM422.5,219.4h-1c0-.9.1-1.8.4-2.6.2-.8.6-1.5,1.1-2.1.5-.6,1-1,1.6-1.4.6-.3,1.3-.5,2.1-.5s1.3,0,1.8.3c.5.2,1,.5,1.4.9.4.4.7.9.9,1.6.2.7.3,1.4.3,2.4v8.6h-3.3v-8.6c0-.6,0-1.1-.3-1.5-.2-.4-.4-.6-.8-.8-.3-.2-.7-.2-1.2-.2s-1,.1-1.4.3c-.4.2-.7.5-.9.8-.2.4-.4.8-.5,1.2-.1.5-.2,1-.2,1.5Z"/>
          <path d="M437.3,215.9v10.7h-3.3v-13.5h3.1l.2,2.8ZM441.4,213v3.1c-.2,0-.4,0-.7,0-.2,0-.4,0-.6,0-.5,0-1,0-1.3.2-.4.1-.7.3-1,.6-.3.3-.4.6-.6.9-.1.4-.2.8-.2,1.3h-.7c0-.9,0-1.7.3-2.5s.4-1.4.8-1.9.7-1,1.3-1.3c.5-.3,1.1-.5,1.7-.5s.4,0,.6,0c.2,0,.4,0,.5.1Z"/>
          <path d="M449,226.8c-1,0-1.9-.2-2.8-.5s-1.5-.8-2.1-1.4c-.6-.6-1-1.3-1.3-2.1s-.5-1.6-.5-2.6v-.5c0-1,.1-2,.4-2.8s.7-1.6,1.3-2.2c.5-.6,1.2-1.1,2-1.4s1.6-.5,2.5-.5,1.8.2,2.5.5c.7.3,1.3.8,1.8,1.4.5.6.9,1.3,1.1,2.1s.4,1.7.4,2.7v1.4h-10.6v-2.3h7.3v-.2c0-.5-.1-1-.3-1.4-.2-.4-.5-.8-.8-1-.4-.3-.9-.4-1.5-.4s-.9.1-1.3.3c-.4.2-.7.5-.9.9-.2.4-.4.8-.5,1.4s-.2,1.1-.2,1.8v.5c0,.6,0,1.1.2,1.6.2.5.4.9.7,1.3.3.4.7.6,1.1.8.4.2.9.3,1.5.3s1.3-.1,1.9-.4c.6-.3,1-.7,1.5-1.2l1.7,1.7c-.3.4-.7.8-1.1,1.2s-1.1.7-1.7.9c-.7.2-1.4.4-2.3.4Z"/>
          <path d="M462.7,226.8c-1,0-1.9-.2-2.8-.5s-1.5-.8-2.1-1.4c-.6-.6-1-1.3-1.3-2.1s-.5-1.6-.5-2.6v-.5c0-1,.1-2,.4-2.8s.7-1.6,1.3-2.2c.5-.6,1.2-1.1,2-1.4s1.6-.5,2.5-.5,1.8.2,2.5.5c.7.3,1.3.8,1.8,1.4.5.6.9,1.3,1.1,2.1s.4,1.7.4,2.7v1.4h-10.6v-2.3h7.3v-.2c0-.5-.1-1-.3-1.4-.2-.4-.5-.8-.8-1-.4-.3-.9-.4-1.5-.4s-.9.1-1.3.3c-.4.2-.7.5-.9.9-.2.4-.4.8-.5,1.4s-.2,1.1-.2,1.8v.5c0,.6,0,1.1.2,1.6.2.5.4.9.7,1.3.3.4.7.6,1.1.8.4.2.9.3,1.5.3s1.3-.1,1.9-.4c.6-.3,1-.7,1.5-1.2l1.7,1.7c-.3.4-.7.8-1.1,1.2s-1.1.7-1.7.9c-.7.2-1.4.4-2.3.4Z"/>
          <path d="M478.9,213.1l3.1,9.9.5,3.5-2.3.4-4.9-13.8h3.5ZM480.7,225.1l3.6-12h3.5l-5.4,15.5c-.1.3-.3.7-.5,1.1-.2.4-.5.8-.8,1.1-.3.4-.7.6-1.2.9-.5.2-1.1.3-1.8.3s-.6,0-.8,0c-.2,0-.5,0-.7-.2v-2.5c0,0,.2,0,.3,0,.1,0,.2,0,.3,0,.5,0,.9,0,1.2-.2.3-.1.6-.3.8-.5.2-.2.4-.6.5-1l1-2.6Z"/>
          <path d="M488.6,220v-.3c0-1,.1-1.9.4-2.7.3-.8.7-1.6,1.2-2.2.5-.6,1.2-1.1,2-1.4.8-.3,1.7-.5,2.7-.5s1.9.2,2.7.5c.8.3,1.4.8,2,1.4.5.6,1,1.3,1.2,2.2.3.8.4,1.7.4,2.7v.3c0,1-.1,1.9-.4,2.7-.3.8-.7,1.6-1.2,2.2-.5.6-1.2,1.1-2,1.4s-1.7.5-2.7.5-1.9-.2-2.7-.5c-.8-.3-1.5-.8-2-1.4-.5-.6-1-1.3-1.2-2.2-.3-.8-.4-1.7-.4-2.7ZM491.9,219.7v.3c0,.6,0,1.1.2,1.7.1.5.3,1,.5,1.4.2.4.6.7.9.9.4.2.8.3,1.4.3s1-.1,1.4-.3c.4-.2.7-.5.9-.9.2-.4.4-.8.5-1.4.1-.5.2-1.1.2-1.7v-.3c0-.6,0-1.1-.2-1.6-.1-.5-.3-1-.5-1.4-.2-.4-.6-.7-.9-.9-.4-.2-.8-.3-1.4-.3s-1,.1-1.4.3c-.4.2-.7.5-.9.9-.2.4-.4.8-.5,1.4-.1.5-.2,1.1-.2,1.6Z"/>
          <path d="M512.1,220.6h1c0,.9,0,1.7-.3,2.5-.2.8-.5,1.4-.9,2-.4.6-.9,1-1.6,1.3-.6.3-1.4.5-2.3.5s-1.3,0-1.8-.3c-.5-.2-1-.5-1.4-.9-.4-.4-.7-.9-.9-1.6-.2-.6-.3-1.4-.3-2.3v-8.7h3.3v8.7c0,.4,0,.8.2,1.1.1.3.2.5.4.7s.4.3.7.4c.3,0,.5.1.8.1.8,0,1.4-.2,1.9-.5.5-.3.8-.8,1-1.3s.3-1.2.3-1.8ZM511.7,223.4v-10.3h3.3v13.5h-3.1l-.2-3.2Z"/>
          <path d="M521.1,216v10.6h-3.3v-13.5h3.1l.2,2.9ZM520.6,219.4h-1c0-1,.1-1.9.4-2.7.3-.8.6-1.5,1.1-2.1.5-.6,1-1,1.7-1.3.6-.3,1.4-.5,2.2-.5s1.2,0,1.8.3c.5.2,1,.5,1.4.9.4.4.7.9.9,1.6.2.6.3,1.4.3,2.4v8.6h-3.3v-8.7c0-.6,0-1.1-.3-1.5s-.4-.6-.8-.8c-.3-.1-.7-.2-1.2-.2s-.9.1-1.3.3c-.4.2-.7.5-.9.8-.3.4-.4.8-.6,1.2-.1.5-.2,1-.2,1.5Z"/>
          <path d="M531.6,220v-.3c0-1,.1-2,.4-2.8s.6-1.6,1.1-2.2c.5-.6,1-1.1,1.7-1.4s1.4-.5,2.3-.5,1.6.2,2.2.5c.6.3,1.1.8,1.5,1.4.4.6.7,1.3.9,2.1.2.8.4,1.7.5,2.7v.7c-.1,1-.3,1.8-.6,2.6-.3.8-.6,1.5-1,2.1s-.9,1.1-1.5,1.4c-.6.3-1.3.5-2.2.5s-1.6-.2-2.2-.5c-.7-.3-1.2-.8-1.7-1.4-.5-.6-.8-1.3-1.1-2.2-.2-.8-.4-1.7-.4-2.7ZM540.7,213.1h3v13.1c0,1.2-.3,2.3-.8,3.1-.5.9-1.3,1.5-2.2,1.9-.9.4-2,.7-3.3.7s-1.1,0-1.8-.2-1.2-.4-1.8-.7c-.6-.3-1.1-.7-1.4-1.2l1.5-1.9c.4.5,1,.9,1.5,1.2.6.3,1.2.4,1.8.4s1.2-.1,1.7-.4c.5-.2.8-.6,1.1-1.1.3-.5.4-1,.4-1.7v-10l.3-3.1ZM534.9,219.8v.3c0,.6,0,1.1.2,1.6.1.5.3,1,.5,1.3.2.4.5.7.9.9.4.2.8.3,1.3.3s1.2-.1,1.7-.4c.4-.3.8-.7,1-1.2.2-.5.4-1.1.4-1.7v-2c0-.5-.1-1-.3-1.4s-.3-.8-.6-1.1-.5-.5-.9-.7-.8-.3-1.3-.3-.9.1-1.3.3c-.4.2-.7.5-.9.9-.2.4-.4.8-.5,1.4-.1.5-.2,1.1-.2,1.7Z"/>
          <path d="M556.3,207.5v19.1h-3.3v-19.1h3.3ZM564.7,213.1l-5.9,6.6-3.2,3.2-1-2.6,2.5-3.1,3.7-4.2h4ZM561.3,226.6l-4.2-6.3,2.2-2.1,5.8,8.4h-3.8Z"/>
          <path d="M566.4,209.6c0-.5.2-.9.5-1.2.3-.3.8-.5,1.4-.5s1,.2,1.4.5c.3.3.5.7.5,1.2s-.2.9-.5,1.2c-.3.3-.8.5-1.4.5s-1-.2-1.4-.5c-.3-.3-.5-.7-.5-1.2ZM569.9,213.1v13.5h-3.3v-13.5h3.3Z"/>
          <path d="M572.5,220v-.3c0-1,.1-2,.4-2.8.2-.8.6-1.6,1-2.2.5-.6,1-1.1,1.7-1.4.7-.3,1.4-.5,2.2-.5s1.5.2,2.1.5c.6.3,1.1.8,1.5,1.4.4.6.8,1.3,1,2.1.3.8.4,1.7.6,2.7v.7c-.1,1-.3,1.8-.6,2.6-.3.8-.6,1.5-1,2.1-.4.6-.9,1.1-1.5,1.4-.6.3-1.3.5-2.1.5s-1.6-.2-2.2-.5-1.2-.8-1.7-1.4c-.5-.6-.8-1.3-1-2.2-.2-.8-.4-1.7-.4-2.7ZM575.8,219.8v.3c0,.6,0,1.1.1,1.6,0,.5.3,1,.5,1.3s.5.7.9.9c.4.2.8.3,1.3.3s1.2-.1,1.6-.4c.4-.3.7-.7,1-1.2.2-.5.4-1.1.4-1.7v-2c0-.5-.1-1-.3-1.4s-.3-.8-.6-1.1c-.2-.3-.5-.5-.9-.7s-.8-.3-1.3-.3-.9.1-1.3.3c-.4.2-.6.5-.9.9-.2.4-.4.8-.5,1.4-.1.5-.2,1.1-.2,1.7ZM581.1,223.7v-16.3h3.3v19.1h-3l-.3-2.9Z"/>
          <path d="M594.8,222.9c0-.3,0-.5-.2-.8-.1-.2-.4-.4-.8-.6-.4-.2-1-.4-1.8-.5-.7-.1-1.3-.3-1.9-.6-.6-.2-1.1-.5-1.5-.8-.4-.3-.8-.7-1-1.1-.2-.4-.4-.9-.4-1.5s.1-1.1.4-1.6c.2-.5.6-.9,1-1.3.5-.4,1-.7,1.7-.9.7-.2,1.4-.3,2.2-.3s2.1.2,3,.6,1.5.9,1.9,1.5c.4.7.7,1.4.7,2.2h-3.3c0-.4,0-.7-.2-1-.2-.3-.4-.5-.7-.7-.3-.2-.8-.3-1.3-.3s-.8,0-1.2.2-.5.3-.7.6c-.2.2-.2.5-.2.8s0,.4.1.6c0,.2.2.3.4.5s.5.3.8.4c.3.1.8.2,1.3.3,1,.2,1.9.5,2.6.8.8.3,1.3.8,1.8,1.3.4.5.6,1.2.6,2.1s-.1,1.1-.4,1.6c-.3.5-.6.9-1.1,1.3-.5.4-1.1.6-1.8.9-.7.2-1.4.3-2.3.3-1.2,0-2.3-.2-3.1-.7-.9-.4-1.5-1-1.9-1.7s-.7-1.4-.7-2.1h3.2c0,.5.2.9.4,1.3.3.3.6.5,1,.7.4.1.8.2,1.3.2s.9,0,1.3-.2c.3-.1.6-.3.8-.6.2-.2.3-.5.3-.8Z"/>
          <path d="M600.7,225c0-.5.2-.9.5-1.3.3-.3.8-.5,1.4-.5s1,.2,1.4.5c.3.3.5.8.5,1.3s-.2.9-.5,1.2c-.3.3-.8.5-1.4.5s-1-.2-1.4-.5c-.3-.3-.5-.7-.5-1.2Z"/>
          <path d="M614.4,208.5h2.9l.5,12.5v5.6h-3.4v-18.1ZM615.9,208.5h3l5,13.6,4.9-13.6h3l-6.7,18.1h-2.4l-6.7-18.1ZM630.3,208.5h2.9v18.1h-3.4v-5.6l.5-12.5Z"/>
          <path d="M638.6,213.1l3.1,9.9.5,3.5-2.3.4-4.9-13.8h3.5ZM640.4,225.1l3.6-12h3.5l-5.4,15.5c-.1.3-.3.7-.5,1.1-.2.4-.5.8-.8,1.1-.3.4-.7.6-1.2.9-.5.2-1.1.3-1.8.3s-.6,0-.8,0-.5,0-.7-.2v-2.5c0,0,.2,0,.3,0,.1,0,.2,0,.3,0,.5,0,.9,0,1.2-.2.3-.1.6-.3.8-.5.2-.2.4-.6.5-1l1-2.6Z"/>
          <path d="M654.9,220v-.3c0-1,.1-1.9.4-2.7s.7-1.6,1.2-2.2c.5-.6,1.2-1.1,2-1.4.8-.3,1.7-.5,2.7-.5s1.9.2,2.7.5c.8.3,1.4.8,2,1.4.5.6,1,1.3,1.2,2.2s.4,1.7.4,2.7v.3c0,1-.1,1.9-.4,2.7s-.7,1.6-1.2,2.2c-.5.6-1.2,1.1-2,1.4-.8.3-1.7.5-2.7.5s-1.9-.2-2.7-.5c-.8-.3-1.5-.8-2-1.4-.5-.6-1-1.3-1.2-2.2s-.4-1.7-.4-2.7ZM658.1,219.7v.3c0,.6,0,1.1.2,1.7.1.5.3,1,.5,1.4.2.4.6.7.9.9.4.2.8.3,1.4.3s1-.1,1.4-.3c.4-.2.7-.5.9-.9.2-.4.4-.8.5-1.4.1-.5.2-1.1.2-1.7v-.3c0-.6,0-1.1-.2-1.6-.1-.5-.3-1-.5-1.4-.2-.4-.6-.7-.9-.9-.4-.2-.8-.3-1.4-.3s-1,.1-1.4.3c-.4.2-.7.5-.9.9-.2.4-.4.8-.5,1.4-.1.5-.2,1.1-.2,1.6Z"/>
          <path d="M671.9,213.1l3.2,11v2.5c.1,0-2,0-2,0l-4.6-13.5h3.4ZM674.2,224.1l3.1-11h3.4l-4.6,13.5h-2.1v-2.5Z"/>
          <path d="M688.4,226.8c-1,0-1.9-.2-2.8-.5s-1.5-.8-2.1-1.4c-.6-.6-1-1.3-1.3-2.1-.3-.8-.5-1.6-.5-2.6v-.5c0-1,.1-2,.4-2.8s.7-1.6,1.3-2.2c.5-.6,1.2-1.1,2-1.4s1.6-.5,2.5-.5,1.8.2,2.5.5c.7.3,1.3.8,1.8,1.4.5.6.9,1.3,1.1,2.1.2.8.4,1.7.4,2.7v1.4h-10.6v-2.3h7.3v-.2c0-.5-.1-1-.3-1.4-.2-.4-.5-.8-.8-1-.4-.3-.9-.4-1.5-.4s-.9.1-1.3.3c-.4.2-.7.5-.9.9-.2.4-.4.8-.5,1.4s-.2,1.1-.2,1.8v.5c0,.6,0,1.1.2,1.6.2.5.4.9.7,1.3.3.4.7.6,1.1.8.4.2.9.3,1.5.3s1.3-.1,1.9-.4c.6-.3,1-.7,1.5-1.2l1.7,1.7c-.3.4-.7.8-1.1,1.2-.5.4-1.1.7-1.7.9-.7.2-1.4.4-2.3.4Z"/>
          <path d="M699.3,215.9v10.7h-3.3v-13.5h3.1l.2,2.8ZM703.4,213v3.1c-.2,0-.4,0-.7,0s-.4,0-.6,0c-.5,0-1,0-1.3.2-.4.1-.7.3-1,.6-.3.3-.4.6-.6.9-.1.4-.2.8-.2,1.3h-.7c0-.9,0-1.7.3-2.5.2-.7.4-1.4.8-1.9s.7-1,1.3-1.3c.5-.3,1.1-.5,1.7-.5s.4,0,.6,0c.2,0,.4,0,.5.1Z"/>
          <path d="M712.7,218.4v2s-2.1,0-2.1,0c-.5,0-1,0-1.4.2-.4.1-.7.3-1,.4-.2.2-.4.4-.6.7-.1.3-.2.6-.2.9s0,.6.2.9c.2.3.4.5.7.6.3.2.6.2,1,.2.6,0,1.1-.1,1.5-.4.4-.2.8-.5,1-.9s.4-.7.4-1l.9,1.4c-.1.3-.3.7-.5,1.1s-.5.7-.9,1.1-.8.6-1.3.8-1.1.3-1.8.3-1.7-.2-2.3-.5-1.2-.8-1.6-1.4-.6-1.3-.6-2.1.1-1.3.4-1.9.7-1,1.2-1.4c.5-.4,1.2-.7,1.9-.9.8-.2,1.7-.3,2.7-.3h2.2ZM712.2,223.7v-6.2c0-.5,0-.9-.2-1.2-.2-.3-.4-.6-.7-.8-.3-.2-.7-.3-1.2-.3s-.8,0-1.2.2-.6.4-.8.6c-.2.3-.3.6-.3.9h-3.3c0-.6.1-1.1.4-1.6s.6-1,1.1-1.3c.5-.4,1.1-.7,1.8-.9s1.5-.3,2.3-.3,1.9.2,2.7.5c.8.3,1.4.9,1.9,1.6.5.7.7,1.6.7,2.6v5.9c0,.7,0,1.2.1,1.7,0,.5.2.9.4,1.2v.2h-3.3c-.2-.3-.3-.8-.4-1.3s-.1-1-.1-1.6Z"/>
          <path d="M722,207.5v19.1h-3.3v-19.1h3.3Z"/>
          <path d="M728.6,207.5v19.1h-3.3v-19.1h3.3Z"/>
          <path d="M744.1,226.8c-1,0-1.9-.2-2.8-.5s-1.5-.8-2.1-1.4c-.6-.6-1-1.3-1.3-2.1-.3-.8-.5-1.6-.5-2.6v-.5c0-1,.1-2,.4-2.8s.7-1.6,1.3-2.2c.5-.6,1.2-1.1,2-1.4s1.6-.5,2.5-.5,1.8.2,2.5.5c.7.3,1.3.8,1.8,1.4.5.6.9,1.3,1.1,2.1.2.8.4,1.7.4,2.7v1.4h-10.6v-2.3h7.3v-.2c0-.5-.1-1-.3-1.4-.2-.4-.5-.8-.8-1-.4-.3-.9-.4-1.5-.4s-.9.1-1.3.3c-.4.2-.7.5-.9.9-.2.4-.4.8-.5,1.4s-.2,1.1-.2,1.8v.5c0,.6,0,1.1.2,1.6.2.5.4.9.7,1.3.3.4.7.6,1.1.8.4.2.9.3,1.5.3s1.3-.1,1.9-.4c.6-.3,1-.7,1.5-1.2l1.7,1.7c-.3.4-.7.8-1.1,1.2-.5.4-1.1.7-1.7.9-.7.2-1.4.4-2.3.4Z"/>
          <path d="M754.4,213.1l2.4,4.3,2.4-4.3h3.6l-4,6.6,4.1,6.9h-3.6l-2.6-4.5-2.6,4.5h-3.6l4.1-6.9-3.9-6.6h3.6Z"/>
          <path d="M768,215.7v16.1h-3.3v-18.7h3.1l.2,2.6ZM776.6,219.7v.3c0,1-.1,1.9-.3,2.7-.2.8-.6,1.6-1,2.2-.4.6-1,1.1-1.6,1.4-.7.3-1.4.5-2.2.5s-1.6-.2-2.2-.5c-.6-.3-1.1-.8-1.6-1.4-.4-.6-.8-1.3-1-2.1-.3-.8-.4-1.6-.6-2.6v-.8c.1-1,.3-1.9.6-2.7.3-.8.6-1.5,1-2.1.4-.6.9-1.1,1.6-1.4s1.3-.5,2.1-.5,1.6.2,2.3.5c.7.3,1.2.8,1.6,1.4s.8,1.3,1,2.2c.2.8.3,1.8.3,2.8ZM773.3,220v-.3c0-.6,0-1.2-.2-1.7-.1-.5-.3-1-.5-1.3-.2-.4-.5-.7-.9-.9-.4-.2-.8-.3-1.3-.3s-.9,0-1.3.2-.7.4-.9.7-.4.7-.5,1.1c-.1.4-.2.9-.3,1.4v2.1c0,.6.2,1.2.4,1.7s.5.9,1,1.2c.4.3,1,.4,1.6.4s.9-.1,1.3-.3c.4-.2.6-.5.9-.9.2-.4.4-.8.5-1.4,0-.5.1-1.1.1-1.6Z"/>
          <path d="M785.1,226.8c-1,0-1.9-.2-2.8-.5s-1.5-.8-2.1-1.4c-.6-.6-1-1.3-1.3-2.1-.3-.8-.5-1.6-.5-2.6v-.5c0-1,.1-2,.4-2.8s.7-1.6,1.3-2.2c.5-.6,1.2-1.1,2-1.4s1.6-.5,2.5-.5,1.8.2,2.5.5c.7.3,1.3.8,1.8,1.4.5.6.9,1.3,1.1,2.1.2.8.4,1.7.4,2.7v1.4h-10.6v-2.3h7.3v-.2c0-.5-.1-1-.3-1.4-.2-.4-.5-.8-.8-1-.4-.3-.9-.4-1.5-.4s-.9.1-1.3.3c-.4.2-.7.5-.9.9-.2.4-.4.8-.5,1.4s-.2,1.1-.2,1.8v.5c0,.6,0,1.1.2,1.6.2.5.4.9.7,1.3.3.4.7.6,1.1.8.4.2.9.3,1.5.3s1.3-.1,1.9-.4c.6-.3,1-.7,1.5-1.2l1.7,1.7c-.3.4-.7.8-1.1,1.2-.5.4-1.1.7-1.7.9-.7.2-1.4.4-2.3.4Z"/>
          <path d="M796,215.9v10.7h-3.3v-13.5h3.1l.2,2.8ZM800.1,213v3.1c-.2,0-.4,0-.7,0s-.4,0-.6,0c-.5,0-1,0-1.3.2-.4.1-.7.3-1,.6-.3.3-.4.6-.6.9-.1.4-.2.8-.2,1.3h-.7c0-.9,0-1.7.3-2.5.2-.7.4-1.4.8-1.9s.7-1,1.3-1.3c.5-.3,1.1-.5,1.7-.5s.4,0,.6,0c.2,0,.4,0,.5.1Z"/>
          <path d="M801.9,209.6c0-.5.2-.9.5-1.2s.8-.5,1.4-.5,1,.2,1.4.5c.3.3.5.7.5,1.2s-.2.9-.5,1.2c-.3.3-.8.5-1.4.5s-1-.2-1.4-.5c-.3-.3-.5-.7-.5-1.2ZM805.4,213.1v13.5h-3.3v-13.5h3.3Z"/>
          <path d="M814.6,226.8c-1,0-1.9-.2-2.8-.5s-1.5-.8-2.1-1.4c-.6-.6-1-1.3-1.3-2.1-.3-.8-.5-1.6-.5-2.6v-.5c0-1,.1-2,.4-2.8s.7-1.6,1.3-2.2c.5-.6,1.2-1.1,2-1.4s1.6-.5,2.5-.5,1.8.2,2.5.5c.7.3,1.3.8,1.8,1.4.5.6.9,1.3,1.1,2.1.2.8.4,1.7.4,2.7v1.4h-10.6v-2.3h7.3v-.2c0-.5-.1-1-.3-1.4-.2-.4-.5-.8-.8-1-.4-.3-.9-.4-1.5-.4s-.9.1-1.3.3c-.4.2-.7.5-.9.9-.2.4-.4.8-.5,1.4s-.2,1.1-.2,1.8v.5c0,.6,0,1.1.2,1.6.2.5.4.9.7,1.3.3.4.7.6,1.1.8.4.2.9.3,1.5.3s1.3-.1,1.9-.4c.6-.3,1-.7,1.5-1.2l1.7,1.7c-.3.4-.7.8-1.1,1.2-.5.4-1.1.7-1.7.9-.7.2-1.4.4-2.3.4Z"/>
          <path d="M825.5,216v10.6h-3.3v-13.5h3.1l.2,2.9ZM825,219.4h-1c0-1,.1-1.9.4-2.7.3-.8.6-1.5,1.1-2.1s1-1,1.7-1.3c.6-.3,1.4-.5,2.2-.5s1.2,0,1.8.3c.5.2,1,.5,1.4.9s.7.9.9,1.6c.2.6.3,1.4.3,2.4v8.6h-3.3v-8.7c0-.6,0-1.1-.3-1.5s-.4-.6-.8-.8c-.3-.1-.7-.2-1.2-.2s-.9.1-1.3.3-.7.5-.9.8c-.3.4-.4.8-.6,1.2-.1.5-.2,1-.2,1.5Z"/>
          <path d="M842.1,224.3c.5,0,.9,0,1.2-.3s.7-.4.9-.8c.2-.3.3-.7.4-1.2h3.1c0,.9-.3,1.7-.8,2.5-.5.7-1.2,1.3-2,1.7-.8.4-1.7.6-2.8.6s-1.9-.2-2.7-.5c-.8-.3-1.4-.8-1.9-1.5-.5-.6-.9-1.3-1.1-2.2-.3-.8-.4-1.7-.4-2.6v-.4c0-.9.1-1.8.4-2.6s.6-1.5,1.1-2.2c.5-.6,1.2-1.1,1.9-1.5.8-.3,1.7-.5,2.7-.5s2,.2,2.9.6c.8.4,1.5,1,1.9,1.8.5.8.7,1.7.7,2.7h-3.1c0-.5-.1-.9-.3-1.3-.2-.4-.5-.7-.8-.9s-.8-.3-1.3-.3-1,.1-1.4.3c-.4.2-.7.6-.9,1-.2.4-.3.9-.4,1.3s-.1,1-.1,1.6v.4c0,.5,0,1.1.1,1.6s.2.9.4,1.3c.2.4.5.7.9.9.4.2.8.3,1.4.3Z"/>
          <path d="M855.9,226.8c-1,0-1.9-.2-2.8-.5s-1.5-.8-2.1-1.4c-.6-.6-1-1.3-1.3-2.1-.3-.8-.5-1.6-.5-2.6v-.5c0-1,.1-2,.4-2.8s.7-1.6,1.3-2.2c.5-.6,1.2-1.1,2-1.4s1.6-.5,2.5-.5,1.8.2,2.5.5c.7.3,1.3.8,1.8,1.4.5.6.9,1.3,1.1,2.1.2.8.4,1.7.4,2.7v1.4h-10.6v-2.3h7.3v-.2c0-.5-.1-1-.3-1.4-.2-.4-.5-.8-.8-1-.4-.3-.9-.4-1.5-.4s-.9.1-1.3.3c-.4.2-.7.5-.9.9-.2.4-.4.8-.5,1.4s-.2,1.1-.2,1.8v.5c0,.6,0,1.1.2,1.6.2.5.4.9.7,1.3.3.4.7.6,1.1.8.4.2.9.3,1.5.3s1.3-.1,1.9-.4c.6-.3,1-.7,1.5-1.2l1.7,1.7c-.3.4-.7.8-1.1,1.2-.5.4-1.1.7-1.7.9-.7.2-1.4.4-2.3.4Z"/>
          <path d="M872,213.1l2.2,10.3.2,3.2h-2.1l-3.5-13.5h3.2ZM873.6,223.4l3-10.2h2.1l-.6,3.5-3,9.9h-1.8l.4-3.2ZM879,213.1l2.9,10.1.4,3.3h-1.8l-3-9.9-.6-3.5h2.1ZM881.4,223.2l2.2-10.1h3.2l-3.5,13.5h-2.1l.2-3.4Z"/>
          <path d="M896.6,218.4v2s-2.1,0-2.1,0c-.5,0-1,0-1.4.2-.4.1-.7.3-1,.4-.2.2-.4.4-.6.7-.1.3-.2.6-.2.9s0,.6.2.9c.2.3.4.5.7.6.3.2.6.2,1,.2.6,0,1.1-.1,1.5-.4.4-.2.8-.5,1-.9s.4-.7.4-1l.9,1.4c-.1.3-.3.7-.5,1.1s-.5.7-.9,1.1-.8.6-1.3.8-1.1.3-1.8.3-1.7-.2-2.3-.5-1.2-.8-1.6-1.4-.6-1.3-.6-2.1.1-1.3.4-1.9.7-1,1.2-1.4c.5-.4,1.2-.7,1.9-.9.8-.2,1.7-.3,2.7-.3h2.2ZM896.2,223.7v-6.2c0-.5,0-.9-.2-1.2-.2-.3-.4-.6-.7-.8-.3-.2-.7-.3-1.2-.3s-.8,0-1.2.2-.6.4-.8.6c-.2.3-.3.6-.3.9h-3.3c0-.6.1-1.1.4-1.6s.6-1,1.1-1.3c.5-.4,1.1-.7,1.8-.9s1.5-.3,2.3-.3,1.9.2,2.7.5c.8.3,1.4.9,1.9,1.6.5.7.7,1.6.7,2.6v5.9c0,.7,0,1.2.1,1.7,0,.5.2.9.4,1.2v.2h-3.3c-.2-.3-.3-.8-.4-1.3s-.1-1-.1-1.6Z"/>
          <path d="M909.8,222.9c0-.3,0-.5-.2-.8-.1-.2-.4-.4-.8-.6-.4-.2-1-.4-1.8-.5-.7-.1-1.3-.3-1.9-.6-.6-.2-1.1-.5-1.5-.8-.4-.3-.8-.7-1-1.1-.2-.4-.4-.9-.4-1.5s.1-1.1.4-1.6c.2-.5.6-.9,1-1.3.5-.4,1-.7,1.7-.9.7-.2,1.4-.3,2.2-.3s2.1.2,3,.6,1.5.9,1.9,1.5c.4.7.7,1.4.7,2.2h-3.3c0-.4,0-.7-.2-1-.2-.3-.4-.5-.7-.7-.3-.2-.8-.3-1.3-.3s-.8,0-1.2.2-.5.3-.7.6c-.2.2-.2.5-.2.8s0,.4.1.6c0,.2.2.3.4.5s.5.3.8.4c.3.1.8.2,1.3.3,1,.2,1.9.5,2.6.8.8.3,1.3.8,1.8,1.3.4.5.6,1.2.6,2.1s-.1,1.1-.4,1.6c-.3.5-.6.9-1.1,1.3-.5.4-1.1.6-1.8.9-.7.2-1.4.3-2.3.3-1.2,0-2.3-.2-3.1-.7-.9-.4-1.5-1-1.9-1.7s-.7-1.4-.7-2.1h3.2c0,.5.2.9.4,1.3.3.3.6.5,1,.7.4.1.8.2,1.3.2s.9,0,1.3-.2c.3-.1.6-.3.8-.6.2-.2.3-.5.3-.8Z"/>
          <path d="M921.3,220v-.3c0-1,.1-2,.4-2.8s.6-1.6,1.1-2.2,1-1.1,1.7-1.4,1.4-.5,2.3-.5,1.6.2,2.2.5,1.1.8,1.5,1.4c.4.6.7,1.3.9,2.1.2.8.4,1.7.5,2.7v.7c-.1,1-.3,1.8-.6,2.6-.3.8-.6,1.5-1,2.1-.4.6-.9,1.1-1.5,1.4-.6.3-1.3.5-2.2.5s-1.6-.2-2.2-.5c-.7-.3-1.2-.8-1.7-1.4-.5-.6-.8-1.3-1.1-2.2-.2-.8-.4-1.7-.4-2.7ZM930.5,213.1h3v13.1c0,1.2-.3,2.3-.8,3.1-.5.9-1.3,1.5-2.2,1.9-.9.4-2,.7-3.3.7s-1.1,0-1.7-.2c-.6-.1-1.2-.4-1.8-.7-.6-.3-1.1-.7-1.4-1.2l1.5-1.9c.4.5,1,.9,1.5,1.2.6.3,1.2.4,1.8.4s1.2-.1,1.7-.4c.5-.2.8-.6,1.1-1.1.3-.5.4-1,.4-1.7v-10l.3-3.1ZM924.6,219.8v.3c0,.6,0,1.1.2,1.6.1.5.3,1,.5,1.3.2.4.5.7.9.9.4.2.8.3,1.3.3s1.2-.1,1.7-.4c.4-.3.8-.7,1-1.2.2-.5.4-1.1.4-1.7v-2c0-.5-.1-1-.3-1.4s-.3-.8-.6-1.1c-.2-.3-.5-.5-.9-.7s-.8-.3-1.3-.3-.9.1-1.3.3c-.4.2-.7.5-.9.9-.2.4-.4.8-.5,1.4-.1.5-.2,1.1-.2,1.7Z"/>
          <path d="M939.7,215.9v10.7h-3.3v-13.5h3.1l.2,2.8ZM943.8,213v3.1c-.2,0-.4,0-.7,0s-.4,0-.6,0c-.5,0-1,0-1.3.2-.4.1-.7.3-1,.6-.3.3-.4.6-.6.9-.1.4-.2.8-.2,1.3h-.7c0-.9,0-1.7.3-2.5.2-.7.4-1.4.8-1.9s.7-1,1.3-1.3c.5-.3,1.1-.5,1.7-.5s.4,0,.6,0c.2,0,.4,0,.5.1Z"/>
          <path d="M951.4,226.8c-1,0-1.9-.2-2.8-.5s-1.5-.8-2.1-1.4c-.6-.6-1-1.3-1.3-2.1-.3-.8-.5-1.6-.5-2.6v-.5c0-1,.1-2,.4-2.8s.7-1.6,1.3-2.2c.5-.6,1.2-1.1,2-1.4s1.6-.5,2.5-.5,1.8.2,2.5.5c.7.3,1.3.8,1.8,1.4.5.6.9,1.3,1.1,2.1.2.8.4,1.7.4,2.7v1.4h-10.6v-2.3h7.3v-.2c0-.5-.1-1-.3-1.4-.2-.4-.5-.8-.8-1-.4-.3-.9-.4-1.5-.4s-.9.1-1.3.3c-.4.2-.7.5-.9.9-.2.4-.4.8-.5,1.4s-.2,1.1-.2,1.8v.5c0,.6,0,1.1.2,1.6.2.5.4.9.7,1.3.3.4.7.6,1.1.8.4.2.9.3,1.5.3s1.3-.1,1.9-.4c.6-.3,1-.7,1.5-1.2l1.7,1.7c-.3.4-.7.8-1.1,1.2-.5.4-1.1.7-1.7.9-.7.2-1.4.4-2.3.4Z"/>
          <path d="M966.9,218.4v2s-2.1,0-2.1,0c-.5,0-1,0-1.4.2-.4.1-.7.3-1,.4-.2.2-.4.4-.6.7-.1.3-.2.6-.2.9s0,.6.2.9c.2.3.4.5.7.6.3.2.6.2,1,.2.6,0,1.1-.1,1.5-.4.4-.2.8-.5,1-.9s.4-.7.4-1l.9,1.4c-.1.3-.3.7-.5,1.1s-.5.7-.9,1.1-.8.6-1.3.8-1.1.3-1.8.3-1.7-.2-2.3-.5-1.2-.8-1.6-1.4-.6-1.3-.6-2.1.1-1.3.4-1.9.7-1,1.2-1.4c.5-.4,1.2-.7,1.9-.9.8-.2,1.7-.3,2.7-.3h2.2ZM966.5,223.7v-6.2c0-.5,0-.9-.2-1.2-.2-.3-.4-.6-.7-.8-.3-.2-.7-.3-1.2-.3s-.8,0-1.2.2-.6.4-.8.6c-.2.3-.3.6-.3.9h-3.3c0-.6.1-1.1.4-1.6s.6-1,1.1-1.3c.5-.4,1.1-.7,1.8-.9s1.5-.3,2.3-.3,1.9.2,2.7.5c.8.3,1.4.9,1.9,1.6.5.7.7,1.6.7,2.6v5.9c0,.7,0,1.2.1,1.7,0,.5.2.9.4,1.2v.2h-3.3c-.2-.3-.3-.8-.4-1.3s-.1-1-.1-1.6Z"/>
          <path d="M979.1,213.1v2.4h-7.7v-2.4h7.7ZM973.5,209.8h3.3v12.9c0,.4,0,.7.2.9.1.2.3.4.5.4s.5.1.8.1.4,0,.6,0,.3,0,.5,0v2.5c-.3,0-.6.2-.9.2-.3,0-.7,0-1.2,0-.7,0-1.4-.1-1.9-.4-.6-.3-1-.7-1.3-1.2-.3-.6-.5-1.3-.5-2.3v-13.2Z"/>
          <path d="M981.5,225c0-.5.2-.9.5-1.3.3-.3.8-.5,1.4-.5s1,.2,1.4.5c.3.3.5.8.5,1.3s-.2.9-.5,1.2c-.3.3-.8.5-1.4.5s-1-.2-1.4-.5c-.3-.3-.5-.7-.5-1.2Z"/>
        </g>
      </g>
    </g>
    <g class="st1">
      <g class="st1">
        <path class="st2" d="M474.3,292.7l-6.5,17.9h-2.7l7.5-19.7h1.7v1.7ZM479.4,303.3v2.1h-11.1v-2.1h11.1ZM479.7,310.6l-6.5-17.9v-1.7s1.7,0,1.7,0l7.5,19.7h-2.7Z"/>
        <path class="st2" d="M484.7,309.3c0-.4.1-.8.4-1.1.3-.3.7-.4,1.2-.4s.9.1,1.2.4c.3.3.4.7.4,1.1s-.1.8-.4,1.1c-.3.3-.7.4-1.2.4s-.9-.1-1.2-.4c-.3-.3-.4-.6-.4-1.1Z"/>
        <path class="st2" d="M499.2,290.9h2.2l.4,12v7.7h-2.6v-19.7ZM500.1,290.9h2.5l6.5,16.1,6.4-16.1h2.5l-8,19.7h-2l-8-19.7ZM516.6,290.9h2.2v19.7h-2.6v-7.7l.4-12Z"/>
        <path class="st2" d="M522.4,303.4v-.3c0-1.1.2-2,.5-2.9s.7-1.7,1.3-2.4c.6-.7,1.3-1.2,2.1-1.6s1.7-.6,2.8-.6,2,.2,2.8.6c.8.4,1.5.9,2.1,1.6s1,1.5,1.3,2.4.5,1.9.5,2.9v.3c0,1.1-.2,2-.5,2.9s-.8,1.7-1.3,2.4-1.3,1.2-2.1,1.6-1.7.6-2.8.6-2-.2-2.8-.6c-.8-.4-1.5-.9-2.1-1.6s-1-1.5-1.3-2.4-.5-1.9-.5-2.9ZM524.9,303.1v.3c0,.7,0,1.4.3,2.1.2.6.4,1.2.8,1.7.3.5.8.9,1.3,1.2.5.3,1.1.4,1.8.4s1.3-.1,1.8-.4c.5-.3.9-.7,1.3-1.2.3-.5.6-1.1.8-1.7.2-.6.3-1.3.3-2.1v-.3c0-.7,0-1.4-.3-2-.2-.6-.4-1.2-.8-1.7-.3-.5-.8-.9-1.3-1.2-.5-.3-1.1-.4-1.8-.4s-1.3.1-1.8.4c-.5.3-1,.7-1.3,1.2-.3.5-.6,1.1-.8,1.7-.2.6-.3,1.3-.3,2Z"/>
        <path class="st2" d="M538.2,303.4v-.3c0-1.1.2-2,.5-2.9s.7-1.7,1.3-2.4c.6-.7,1.3-1.2,2.1-1.6s1.7-.6,2.8-.6,2,.2,2.8.6c.8.4,1.5.9,2.1,1.6s1,1.5,1.3,2.4.5,1.9.5,2.9v.3c0,1.1-.2,2-.5,2.9s-.8,1.7-1.3,2.4-1.3,1.2-2.1,1.6-1.7.6-2.8.6-2-.2-2.8-.6c-.8-.4-1.5-.9-2.1-1.6s-1-1.5-1.3-2.4-.5-1.9-.5-2.9ZM540.7,303.1v.3c0,.7,0,1.4.3,2.1.2.6.4,1.2.8,1.7.3.5.8.9,1.3,1.2.5.3,1.1.4,1.8.4s1.3-.1,1.8-.4c.5-.3.9-.7,1.3-1.2.3-.5.6-1.1.8-1.7.2-.6.3-1.3.3-2.1v-.3c0-.7,0-1.4-.3-2-.2-.6-.4-1.2-.8-1.7-.3-.5-.8-.9-1.3-1.2-.5-.3-1.1-.4-1.8-.4s-1.3.1-1.8.4c-.5.3-1,.7-1.3,1.2-.3.5-.6,1.1-.8,1.7-.2.6-.3,1.3-.3,2Z"/>
        <path class="st2" d="M557.1,298.3v12.3h-2.5v-14.6h2.4v2.3ZM561.7,295.9v2.3c-.2,0-.4,0-.6,0-.2,0-.4,0-.6,0-.6,0-1.1,0-1.5.3-.4.2-.8.4-1.1.8-.3.3-.5.7-.7,1.2s-.3.9-.3,1.5l-.7.4c0-.9,0-1.7.3-2.5s.4-1.5.8-2.1.8-1.1,1.4-1.4c.6-.3,1.3-.5,2-.5s.4,0,.6,0c.2,0,.4,0,.5.1Z"/>
        <path class="st2" d="M569.8,310.9c-1,0-1.9-.2-2.8-.5-.8-.3-1.5-.8-2.1-1.5-.6-.6-1-1.4-1.4-2.2-.3-.9-.5-1.8-.5-2.8v-.6c0-1.2.2-2.3.5-3.2.4-.9.8-1.7,1.4-2.4.6-.6,1.3-1.1,2.1-1.5.8-.3,1.6-.5,2.4-.5s1.9.2,2.7.5c.8.4,1.4.9,1.9,1.5.5.6.8,1.4,1.1,2.3.2.9.4,1.8.4,2.8v1.1h-10.9v-2h8.4v-.2c0-.6-.2-1.3-.4-1.9s-.6-1.1-1.1-1.5-1.2-.6-2-.6-1.1.1-1.6.4c-.5.2-.9.6-1.2,1.1s-.6,1-.8,1.7c-.2.7-.3,1.5-.3,2.3v.6c0,.7,0,1.3.3,2s.5,1.1.9,1.6c.4.5.8.8,1.4,1.1.5.3,1.1.4,1.8.4s1.6-.2,2.2-.5c.6-.4,1.1-.8,1.6-1.4l1.5,1.2c-.3.5-.7.9-1.2,1.4-.5.4-1.1.8-1.8,1.1-.7.3-1.5.4-2.5.4Z"/>
        <path class="st2" d="M580.7,307.6v2c0,.8-.2,1.7-.6,2.6-.4.9-1,1.7-1.7,2.3l-1.4-1c.3-.4.5-.8.7-1.2.2-.4.3-.8.5-1.3s.2-.9.2-1.4v-2.1h2.4Z"/>
        <path class="st2" d="M593.8,290.9v19.7h-2.6v-19.7h2.6ZM596.5,310.6h-4.1v-2.1h4.1c1.4,0,2.6-.3,3.5-.9.9-.6,1.6-1.4,2.1-2.5.5-1.1.7-2.3.7-3.8v-1.2c0-1.1-.1-2.1-.4-3-.3-.9-.7-1.6-1.2-2.2-.5-.6-1.2-1.1-1.9-1.4-.8-.3-1.6-.5-2.6-.5h-4.4v-2.1h4.4c1.3,0,2.5.2,3.5.6,1.1.4,2,1,2.8,1.9.8.8,1.4,1.8,1.8,2.9.4,1.1.6,2.4.6,3.8v1.2c0,1.4-.2,2.7-.6,3.8-.4,1.1-1,2.1-1.8,2.9-.8.8-1.7,1.4-2.8,1.8-1.1.4-2.3.6-3.7.6Z"/>
        <path class="st2" d="M615,310.9c-1,0-1.9-.2-2.8-.5-.8-.3-1.5-.8-2.1-1.5-.6-.6-1-1.4-1.4-2.2-.3-.9-.5-1.8-.5-2.8v-.6c0-1.2.2-2.3.5-3.2s.8-1.7,1.4-2.4c.6-.6,1.3-1.1,2.1-1.5.8-.3,1.6-.5,2.4-.5s1.9.2,2.7.5c.8.4,1.4.9,1.9,1.5s.8,1.4,1.1,2.3c.2.9.4,1.8.4,2.8v1.1h-10.9v-2h8.4v-.2c0-.6-.2-1.3-.4-1.9-.2-.6-.6-1.1-1.1-1.5s-1.2-.6-2-.6-1.1.1-1.6.4c-.5.2-.9.6-1.2,1.1s-.6,1-.8,1.7c-.2.7-.3,1.5-.3,2.3v.6c0,.7,0,1.3.3,2,.2.6.5,1.1.9,1.6s.8.8,1.4,1.1,1.1.4,1.8.4,1.6-.2,2.2-.5c.6-.4,1.1-.8,1.6-1.4l1.5,1.2c-.3.5-.7.9-1.2,1.4-.5.4-1.1.8-1.8,1.1-.7.3-1.5.4-2.5.4Z"/>
        <path class="st2" d="M626.1,299.1v11.5h-2.5v-14.6h2.4v3.1ZM625.5,302.7h-1c0-1,.2-2,.4-2.8.3-.9.7-1.6,1.2-2.2.5-.6,1.1-1.1,1.9-1.5.7-.3,1.5-.5,2.4-.5s1.4,0,1.9.3c.6.2,1.1.5,1.5.9s.7,1,.9,1.6c.2.7.3,1.5.3,2.5v9.6h-2.5v-9.6c0-.8-.1-1.4-.3-1.8-.2-.5-.6-.8-1-1-.4-.2-1-.3-1.6-.3s-1.2.1-1.7.4c-.5.3-.9.6-1.3,1.1-.4.5-.6,1-.9,1.6s-.3,1.2-.3,1.9Z"/>
        <path class="st2" d="M640,296l4.1,12.4.3,2.2h-1.7l-5.3-14.6h2.6ZM643.4,308.3l4-12.4h2.6l-5.3,14.6h-1.7l.4-2.3Z"/>
        <path class="st2" d="M658.2,310.9c-1,0-1.9-.2-2.8-.5-.8-.3-1.5-.8-2.1-1.5s-1-1.4-1.4-2.2-.5-1.8-.5-2.8v-.6c0-1.2.2-2.3.5-3.2.4-.9.8-1.7,1.4-2.4.6-.6,1.3-1.1,2.1-1.5.8-.3,1.6-.5,2.4-.5s2,.2,2.7.5c.8.4,1.4.9,1.9,1.5.5.6.8,1.4,1.1,2.3.2.9.4,1.8.4,2.8v1.1h-10.9v-2h8.4v-.2c0-.6-.2-1.3-.4-1.9-.2-.6-.6-1.1-1.1-1.5s-1.2-.6-2-.6-1.1.1-1.6.4c-.5.2-.9.6-1.2,1.1s-.6,1-.8,1.7c-.2.7-.3,1.5-.3,2.3v.6c0,.7,0,1.3.3,2,.2.6.5,1.1.9,1.6.4.5.8.8,1.4,1.1.5.3,1.1.4,1.8.4s1.6-.2,2.2-.5c.6-.4,1.2-.8,1.6-1.4l1.5,1.2c-.3.5-.7.9-1.2,1.4s-1.1.8-1.8,1.1c-.7.3-1.5.4-2.5.4Z"/>
        <path class="st2" d="M669.4,298.3v12.3h-2.5v-14.6h2.4v2.3ZM673.9,295.9v2.3c-.2,0-.4,0-.6,0-.2,0-.4,0-.6,0-.6,0-1.1,0-1.5.3-.4.2-.8.4-1.1.8-.3.3-.5.7-.7,1.2s-.3.9-.3,1.5l-.7.4c0-.9,0-1.7.3-2.5s.4-1.5.8-2.1c.4-.6.8-1.1,1.4-1.4.6-.3,1.3-.5,2-.5s.4,0,.6,0c.2,0,.4,0,.5.1Z"/>
        <path class="st2" d="M695.4,304.3h2.6c-.1,1.2-.5,2.4-1.1,3.3-.6,1-1.4,1.8-2.4,2.3-1.1.6-2.4.9-3.9.9s-2.2-.2-3.1-.6-1.8-1-2.4-1.8c-.7-.8-1.2-1.8-1.6-2.9-.4-1.1-.5-2.4-.5-3.8v-2c0-1.4.2-2.6.5-3.8.4-1.1.9-2.1,1.6-2.9s1.5-1.4,2.5-1.9c1-.4,2.1-.6,3.3-.6s2.7.3,3.8.8c1,.6,1.8,1.3,2.4,2.3.6,1,.9,2.1,1.1,3.4h-2.6c-.1-.9-.4-1.7-.7-2.4-.3-.7-.8-1.2-1.5-1.5-.6-.4-1.5-.5-2.5-.5s-1.6.2-2.3.5c-.7.3-1.2.8-1.7,1.4-.4.6-.8,1.3-1,2.2s-.3,1.8-.3,2.9v2c0,1,.1,1.9.3,2.7.2.8.5,1.6.9,2.2.4.6.9,1.1,1.6,1.5.6.4,1.4.5,2.3.5s2-.2,2.7-.5,1.2-.9,1.5-1.5c.3-.7.6-1.4.7-2.4Z"/>
        <path class="st2" d="M716.7,300.1v1.2c0,1.5-.2,2.8-.6,4-.4,1.2-.9,2.2-1.6,3-.7.8-1.5,1.4-2.5,1.9-1,.4-2.1.6-3.3.6s-2.2-.2-3.2-.6c-1-.4-1.8-1.1-2.5-1.9-.7-.8-1.3-1.8-1.6-3-.4-1.2-.6-2.5-.6-4v-1.2c0-1.5.2-2.8.6-4,.4-1.2.9-2.2,1.6-3s1.5-1.5,2.5-1.9,2-.6,3.2-.6,2.3.2,3.3.6c1,.4,1.8,1.1,2.5,1.9.7.8,1.2,1.8,1.6,3s.6,2.5.6,4ZM714.1,301.4v-1.3c0-1.2-.1-2.2-.4-3.1-.2-.9-.6-1.7-1-2.3s-1-1.1-1.7-1.4c-.7-.3-1.4-.5-2.3-.5s-1.5.2-2.2.5c-.7.3-1.2.8-1.7,1.4-.5.6-.8,1.4-1.1,2.3-.3.9-.4,1.9-.4,3.1v1.3c0,1.2.1,2.2.4,3.1.3.9.6,1.7,1.1,2.3.5.6,1,1.1,1.7,1.4.7.3,1.4.5,2.2.5s1.6-.2,2.3-.5,1.2-.8,1.7-1.4c.5-.6.8-1.4,1-2.3s.4-2,.4-3.1Z"/>
      </g>
    </g>
    <g class="st1">
      <g class="st1">
        <path class="st2" d="M546.2,330.5h1.7l.3,9.3v6h-2v-15.3ZM546.8,330.5h2l5,12.5,5-12.5h2l-6.2,15.3h-1.5l-6.2-15.3ZM559.7,330.5h1.7v15.3h-2v-6l.3-9.3Z"/>
        <path class="st2" d="M571.7,338.9v1.4s-1.9,0-1.9,0c-.6,0-1,0-1.5.1-.4,0-.8.2-1.1.4s-.5.4-.7.7c-.2.3-.2.6-.2.9s0,.7.2,1,.4.5.7.7c.3.2.7.3,1.2.3s1.1-.1,1.6-.4.8-.6,1.1-.9c.3-.4.4-.7.4-1.1l.8.9c0,.3-.2.6-.4,1-.2.4-.5.7-.9,1-.4.3-.8.6-1.3.8-.5.2-1,.3-1.7.3s-1.4-.2-2-.5c-.6-.3-1-.7-1.3-1.2-.3-.5-.5-1.1-.5-1.7s.1-1.1.4-1.6c.2-.5.6-.9,1-1.2.4-.3,1-.5,1.6-.7s1.3-.2,2.1-.2h2.3ZM571.4,343.9v-5.8c0-.4,0-.8-.3-1.2-.2-.3-.4-.6-.8-.8-.4-.2-.8-.3-1.3-.3s-.9,0-1.3.3c-.4.2-.7.4-.9.7-.2.3-.3.6-.3.9h-1.9c0-.4.1-.8.3-1.2.2-.4.5-.8.9-1.1.4-.3.9-.6,1.4-.8.6-.2,1.2-.3,1.9-.3s1.6.1,2.2.4c.6.3,1.1.7,1.5,1.3.4.6.5,1.3.5,2.1v5.3c0,.4,0,.8,0,1.2s.2.8.3,1.1v.2h-2c0-.2-.2-.5-.2-.9,0-.4,0-.7,0-1Z"/>
        <path class="st2" d="M577.1,334.4l3,8.8.5,2-1.4.7-4.2-11.6h2.1ZM579.4,344.6l3.2-10.2h2.1l-4.6,13.1c-.1.3-.2.6-.4.9-.2.3-.4.6-.7.9-.3.3-.6.5-1,.7-.4.2-.8.3-1.3.3s-.4,0-.6,0c-.2,0-.4,0-.5-.1v-1.6s.1,0,.3,0,.2,0,.3,0c.4,0,.8,0,1.1-.2.3-.1.6-.3.8-.6.2-.3.4-.6.6-1.1l.8-2.2Z"/>
        <path class="st2" d="M601.5,344.2v1.6h-10v-1.4l5-5.6c.6-.7,1.1-1.3,1.4-1.7.3-.5.6-.9.7-1.3s.2-.8.2-1.2-.1-1-.3-1.4c-.2-.4-.5-.7-.9-1-.4-.2-.9-.4-1.4-.4s-1.2.1-1.7.4-.8.6-1,1.1c-.2.5-.3,1-.3,1.6h-1.9c0-.9.2-1.6.6-2.4.4-.7.9-1.3,1.7-1.7.7-.4,1.7-.6,2.7-.6s1.8.2,2.5.5c.7.3,1.2.8,1.6,1.4.4.6.6,1.3.6,2.1s0,.9-.2,1.4-.4.9-.6,1.4-.6.9-.9,1.3c-.3.4-.7.9-1.1,1.3l-4.1,4.4h7.7Z"/>
        <path class="st2" d="M613.2,336.9v2.3c0,1.3-.1,2.3-.3,3.2-.2.9-.5,1.6-1,2.1-.4.5-.9.9-1.5,1.1s-1.3.4-2,.4-1.1,0-1.6-.2c-.5-.1-.9-.4-1.3-.7-.4-.3-.7-.8-1-1.3-.3-.5-.5-1.2-.6-1.9-.1-.7-.2-1.6-.2-2.6v-2.3c0-1.3.1-2.3.3-3.1s.6-1.5,1-2,.9-.9,1.5-1.1c.6-.2,1.3-.3,2-.3s1.1,0,1.6.2c.5.1.9.4,1.3.7.4.3.7.7,1,1.2.3.5.5,1.1.6,1.9.1.7.2,1.6.2,2.6ZM611.2,339.6v-3c0-.7,0-1.3-.1-1.8,0-.5-.2-1-.4-1.3-.2-.4-.3-.7-.6-.9-.2-.2-.5-.4-.8-.5s-.6-.2-1-.2-.9,0-1.2.3c-.4.2-.7.4-.9.8s-.4.9-.6,1.5-.2,1.3-.2,2.2v3c0,.7,0,1.3.1,1.8,0,.5.2,1,.4,1.4.2.4.4.7.6.9.2.2.5.4.8.5.3.1.6.2,1,.2s.9,0,1.2-.3c.4-.2.7-.5.9-.9.2-.4.4-.9.5-1.5s.2-1.3.2-2.2Z"/>
        <path class="st2" d="M625.7,344.2v1.6h-10v-1.4l5-5.6c.6-.7,1.1-1.3,1.4-1.7.3-.5.6-.9.7-1.3.1-.4.2-.8.2-1.2s-.1-1-.3-1.4c-.2-.4-.5-.7-.9-1-.4-.2-.9-.4-1.4-.4s-1.2.1-1.7.4c-.5.3-.8.6-1,1.1-.2.5-.3,1-.3,1.6h-1.9c0-.9.2-1.6.6-2.4s.9-1.3,1.7-1.7c.7-.4,1.7-.6,2.7-.6s1.8.2,2.5.5c.7.3,1.2.8,1.6,1.4.4.6.6,1.3.6,2.1s0,.9-.2,1.4c-.2.5-.4.9-.6,1.4-.3.5-.6.9-.9,1.3-.3.4-.7.9-1.1,1.3l-4.1,4.4h7.7Z"/>
        <path class="st2" d="M634.1,330.4v15.4h-1.9v-12.9l-3.9,1.4v-1.8l5.6-2.1h.3Z"/>
      </g>
    </g>
  </g>
  <g>
    <path class="st0" d="M521.1,389.4c-.6.3-1.2-.2-1.1-.9l1.2-7.1-5.3-5c-.5-.5-.2-1.3.4-1.4l7.3-1,3.3-6.5c.3-.6,1.1-.6,1.4,0l3.3,6.5,7.3,1c.7,0,.9,1,.4,1.4l-5.3,5,1.2,7.1c0,.7-.5,1.2-1.1.9l-6.6-3.4-6.6,3.4h.2Z"/>
    <path class="st0" d="M559.4,389.7c-.6.3-1.2-.2-1.1-.9l1.2-7.1-5.3-5c-.5-.5-.2-1.3.4-1.4l7.3-1,3.3-6.5c.3-.6,1.1-.6,1.4,0l3.3,6.5,7.3,1c.7,0,.9,1,.4,1.4l-5.3,5,1.2,7.1c0,.7-.5,1.2-1.1.9l-6.6-3.4-6.6,3.4h.2Z"/>
    <path class="st0" d="M597.8,389.7c-.6.3-1.2-.2-1.1-.9l1.2-7.1-5.3-5c-.5-.5-.2-1.3.4-1.4l7.3-1,3.3-6.5c.3-.6,1.1-.6,1.4,0l3.3,6.5,7.3,1c.7,0,.9,1,.4,1.4l-5.3,5,1.2,7.1c0,.7-.5,1.2-1.1.9l-6.6-3.4-6.6,3.4h.2Z"/>
    <path class="st0" d="M636.2,389.7c-.6.3-1.2-.2-1.1-.9l1.2-7.1-5.3-5c-.5-.5-.2-1.3.4-1.4l7.3-1,3.3-6.5c.3-.6,1.1-.6,1.4,0l3.3,6.5,7.3,1c.7,0,.9,1,.4,1.4l-5.3,5,1.2,7.1c0,.7-.5,1.2-1.1.9l-6.6-3.4-6.6,3.4h.2Z"/>
  </g>
</svg>